M48
INCH,TZ
T01C.008
T02C.035
T03C.03543
T04C.04134
T05C.04331
T06C.05118
T07C.125
T08C.16535
T09C.02362
T10C.04016
T11C.04331
T12C.04724
T13C.06299
T14C.12795
;LEADER: 12 
;HEADER: 
;CODE  : ASCII 
;FILE  : BEAGLEV FIRE_REV A_230911-1-12.drl for  ... layers TOP and BOTTOM
;DESIGN: BEAGLEV FIRE_REV A_230911.brd
;T01 Holesize 1. = 8.000000 Tolerance = +3.000000/-3.000000 PLATED MILS Quantity = 1830
;T02 Holesize 2. = 35.000000 Tolerance = +3.000000/-3.000000 PLATED MILS Quantity = 92
;T03 Holesize 3. = 35.430000 Tolerance = +0.000000/-0.000000 PLATED MILS Quantity = 10
;T04 Holesize 4. = 41.340000 Tolerance = +0.000000/-0.000000 PLATED MILS Quantity = 4
;T05 Holesize 5. = 43.310000 Tolerance = +0.000000/-0.000000 PLATED MILS Quantity = 6
;T06 Holesize 6. = 51.180000 Tolerance = +0.000000/-0.000000 PLATED MILS Quantity = 2
;T07 Holesize 7. = 125.000000 Tolerance = +3.000000/-3.000000 PLATED MILS Quantity = 4
;T08 Holesize 8. = 165.350000 Tolerance = +0.000000/-0.000000 PLATED MILS Quantity = 1
;T09 Holesize 9. = 23.620000 Tolerance = +0.000000/-0.000000 NON_PLATED MILS Quantity = 2
;T10 Holesize 10. = 40.160000 Tolerance = +0.000000/-0.000000 NON_PLATED MILS Quantity = 2
;T11 Holesize 11. = 43.310000 Tolerance = +0.000000/-0.000000 NON_PLATED MILS Quantity = 1
;T12 Holesize 12. = 47.240000 Tolerance = +0.000000/-0.000000 NON_PLATED MILS Quantity = 3
;T13 Holesize 13. = 62.990000 Tolerance = +0.000000/-0.000000 NON_PLATED MILS Quantity = 1
;T14 Holesize 14. = 127.950000 Tolerance = +0.000000/-0.000000 NON_PLATED MILS Quantity = 2
%
G90
T01
X-14420Y58980
X-8000Y65840
X-9550Y65850
X-11120Y65840
X-15991Y59690
X-15820Y61330
X-15149Y66029
X-32690Y63630
R02Y2000
X-34690Y67630
R02Y-2000
X-36690Y63630
R02Y2000
X-38690Y63630
R02Y2000
X-7897Y58351
X-25610Y41630
X-3391Y54170
X178500Y30350
X219075Y96620
X209606Y170385
X199200Y115000
X251521Y27534
X236100Y176410
X201300Y156000
X208700Y127500
X180390Y41320
X224760Y44510
X218400Y68200
X206690Y21780
X200600Y27800
X200783Y56687
X214840Y20860
X216232Y15370
X266900Y24400
X268000Y25600
X269500Y25600
X216098Y38270
X216098Y39870
X272100Y37300
X270200Y37300
X272100Y35900
X270200Y35900
X213130Y39870
X214598Y38270
X214598Y39870
X213098Y38170
X238630Y107930
X238630Y109730
X269635Y51276
X269636Y49476
X189700Y117300
X91348Y170531
X186234Y96734
X87411Y170531
X247038Y43405
X246999Y45281
X269725Y43571
X269725Y45371
X274100Y97800
X136594Y164100
X275600Y96200
X133445Y165400
X191269Y174323
X197006Y174323
X203700Y174323
X195037Y174323
X193069Y174323
X205669Y172354
X87411Y172500
X193069Y172354
X71395Y172500
X55379Y172500
X188600Y94870
X191100Y170385
X65800Y128700
X116123Y154126
X250033Y23197
X243700Y156400
X163365Y147827
X89379Y170531
X182200Y94500
X85442Y170531
X75332Y170531
X18900Y131900
X20300Y133700
X73363Y170531
X180156Y94806
X71395Y170531
X180100Y97400
X69426Y170531
X181300Y101900
X59316Y170531
X179900Y103300
X57347Y170531
X138200Y122600
X23200Y136800
X55379Y170531
X53410Y170531
X21700Y135400
X166470Y100530
X178500Y95900
X43300Y170531
X175600Y95900
X41331Y170531
X39363Y170531
X175700Y99000
X174300Y103600
X37394Y170531
X-40600Y181900
X-44600Y174700
X-40600Y174700
X-44600Y156700
X-40600Y153100
X-44600Y185500
X-44600Y178300
X-44600Y167500
X-40600Y145900
X-40600Y185500
X-40600Y167500
X-40600Y156700
X-40600Y171100
X-44600Y181900
X-44600Y171100
X-44600Y153100
X-44600Y149500
X-40600Y149500
X-40600Y163900
X-40600Y160300
X-40600Y178300
X-44600Y145900
X-44600Y163900
X-44600Y160300
X51900Y81084
X-12162Y100708
X59500Y110900
X56100Y81084
X60600Y90400
X40300Y120400
X229200Y149300
X223800Y110500
X146250Y159300
X122422Y150977
X59670Y97030
X49584Y77284
X116123Y135229
X201408Y153708
X32047Y108053
X33000Y89100
X32047Y90731
X247700Y138900
X207637Y174323
X221500Y134000
X219740Y134018
X232300Y112860
X29800Y112900
X39052Y112884
X29800Y111400
X32047Y95455
X32047Y103329
X51651Y86049
X32500Y110600
X33929Y110603
X61500Y84300
X70300Y87400
R02Y-1500
X43222Y78422
X61500Y99400
X60100Y99400
X63184Y109484
X55600Y115400
X-23016Y92590
X-23016Y108826
X-11393Y121003
X72400Y103329
X122422Y125780
X76745Y109270
X125571Y125780
X78545Y109270
X60631Y93480
X60625Y95343
X54000Y59900
X131871Y150977
X49600Y58300
X128721Y150977
X39363Y172500
X249157Y136257
X259610Y109870
X251126Y136274
X266540Y109740
X77700Y149000
X244600Y143600
X243200Y145000
X78069Y38394
X69730Y45700
X79870Y16910
X69730Y27400
X65930Y29600
X65930Y48000
X32645Y48334
X193069Y170385
X182200Y91700
X195037Y170385
X179900Y91650
X247127Y61287
X247127Y63087
X269725Y67193
X269725Y68993
X157066Y87986
X269725Y61288
X157066Y91136
X269725Y63088
X203700Y170385
X161351Y86850
X197006Y170385
X160215Y91136
X247127Y67193
X169764Y87926
X247127Y68993
X166615Y91076
X241125Y73000
X241127Y74899
X258350Y70709
X258350Y72677
X258250Y60866
X150767Y91136
X219170Y88909
X258250Y54961
X220970Y88909
X258250Y52992
X258250Y58898
X229071Y47471
X259199Y76615
X227271Y47471
X259199Y78583
X-20400Y163900
X138100Y125700
X247000Y110200
X245100Y101590
X257840Y94340
X188400Y144830
X69730Y62200
X79669Y56694
X80000Y38500
X36585Y47250
X38555Y47250
X34615Y47250
X32645Y22300
X36585Y22300
X199846Y96620
X169180Y123800
X202834Y96620
X201340Y96620
X28450Y52485
X28450Y54485
X38450Y50485
R02Y2000
X30950Y54485
R02Y-2000
X33450Y50485
X33450Y52485
X35950Y52485
X35950Y50485
X35950Y54485
X33450Y54485
X49900Y37400
R02Y-1900
X49900Y31800
X48300Y37400
X48300Y35500
X48300Y31800
X48300Y33600
X21300Y31800
X21300Y37400
X21300Y35600
X21300Y33700
X22900Y31800
X22900Y37400
X22900Y35600
X22900Y33700
X37475Y140755
X-25000Y25580
X-37183Y22881
X8508Y160308
X119272Y144677
X13508Y160308
X122422Y141528
X89818Y68318
X125571Y144677
X-24890Y-390
X119272Y141528
X30175Y157680
X109823Y94284
X94800Y144678
X45355Y164305
X106674Y94284
X61652Y160455
X96200Y140103
X112973Y94285
X116123Y91136
X-29400Y1400
X85600Y72200
X79500Y128500
X125571Y141528
X241800Y142200
X116123Y94285
X237600Y140800
X87000Y71000
X80900Y126700
X125571Y138378
X-29400Y-2060
X240400Y139400
X78350Y99450
X37900Y80400
X60800Y117610
X135020Y150977
X236200Y150810
X-24421Y18176
X-3700Y26200
X106700Y150526
X135020Y147827
X239000Y152210
X103524Y94284
X109823Y147827
X126000Y161800
X233400Y155010
X234800Y153610
X122400Y160300
X-25600Y-6300
X138170Y154126
X230600Y147800
X88418Y69718
X82500Y128500
X128721Y138378
X-32500Y-3648
X15620Y72490
X15620Y70990
X14120Y72490
R02X-1500
X14120Y70990
R02X-1500
X5220Y38250
R02Y-1500
X6720Y38250
R02Y-1500
X5220Y33750
X6720Y33750
X199800Y34500
X255930Y93620
X254530Y93620
X253130Y93670
X216378Y28870
X213578Y28870
X214978Y28898
X43385Y140770
X63500Y52100
X60700Y53500
R02X1400
X63500Y33800
X60700Y35200
R02X1400
X60700Y16900
X62100Y16900
X63500Y15500
X63500Y16900
X43730Y47300
X42200Y47300
X40700Y47300
X44200Y20500
R02Y1500
X30500Y47300
X29000Y47300
X27470Y47300
X24400Y22400
R02X1500
X138170Y150977
X232000Y146400
X8900Y35600
X47325Y140675
X52500Y58300
X125571Y157276
X-35700Y-6100
X84200Y73400
X78000Y126800
X128721Y144677
X51100Y59700
X125571Y154126
X39445Y140755
X-25000Y22880
X-37183Y25598
X19400Y77360
X35505Y140805
X206480Y59290
X27500Y149800
X27500Y154300
X119272Y157276
X73684Y128600
X116123Y157276
X72000Y126900
X67700Y126900
X119272Y150977
X82800Y9900
X69600Y128300
X116123Y150977
X164940Y26420
X113600Y17470
X142300Y17500
X87200Y55300
X90600Y55300
X90600Y53600
X90600Y51900
X88900Y51900
X87200Y51900
X88900Y53600
X87200Y53600
X88900Y55300
X92900Y92900
X92900Y94700
X92900Y96300
X92900Y97800
X96770Y24530
X95700Y22200
X97600Y22200
X97700Y20700
X95700Y20700
X194590Y113914
X92900Y103800
R02Y-1400
X194500Y112500
X193100Y113900
X193100Y112500
X92800Y138703
X37475Y164305
X160215Y147827
X30415Y151770
X109823Y141528
X33200Y164300
X109823Y138378
X128721Y147827
X101800Y144787
X116123Y138378
X47325Y164305
X43385Y164305
X97400Y144700
X125571Y147827
X122422Y147827
X119272Y147827
X91300Y137403
X30195Y159650
X27500Y158734
X155600Y157800
X116123Y141528
X39445Y164305
X119200Y160276
X112973Y150977
X195700Y185000
X125000Y193650
X111600Y159500
X152300Y157800
X174400Y172853
X144800Y193650
X165200Y194100
X155400Y172700
X10080Y44750
X4980Y13520
X-2580Y24620
X50200Y132731
X-22200Y35148
X-22200Y33648
X-23800Y35148
X-23800Y33648
X-25400Y35148
X-25400Y33648
X-27000Y35148
X-27000Y33648
X-27000Y15580
X-25400Y15580
X-25400Y14080
X-27000Y14080
X95950Y112400
X215975Y66175
X220960Y45200
X220240Y62970
X225400Y46700
X97750Y112400
X125800Y185600
X-11980Y145900
X-1410Y174700
X125839Y183500
X-12000Y153350
X-12100Y156700
X-12100Y160300
X-12100Y164300
X-12100Y167500
X-12100Y171100
R03Y3600
X-16000Y191400
X269359Y78793
X223566Y136489
X253094Y136294
X226990Y157177
X232820Y172197
X278535Y80804
X72900Y92700
X-14100Y158800
X86700Y130203
X269725Y73099
X247127Y86709
X269725Y74899
X247211Y84826
X225535Y128786
X246204Y158196
X-1492Y154278
X11276Y148940
X-962Y31500
X213319Y109440
X214600Y109390
X199000Y31230
X241700Y175670
X163264Y157577
X166764Y150977
X253618Y35982
X256418Y35982
X252118Y35982
X255018Y35982
X96170Y153631
X71600Y118000
X81050Y153950
X29860Y85500
X20000Y154255
X-7300Y19196
X-16380Y5940
X15600Y35600
X91348Y172500
R03X-16016
X28460Y85500
X82500Y154000
X58955Y158255
X58800Y120800
R02Y1400
X-1500Y166900
X211700Y176300
X201300Y176354
X252513Y125087
X262287Y125087
X-38400Y189000
X267700Y115600
X232200Y115200
X232200Y116700
X271100Y129300
X271100Y127800
X269500Y129300
X269500Y127800
X216340Y96620
X214795Y96620
X213340Y96620
X135020Y138378
X138000Y147800
X131871Y147827
X130295Y157050
X122422Y144677
X119272Y154126
X90600Y18700
R02X-1700
X87200Y17000
X88900Y17000
X87200Y15300
R02X1700
X90600Y17000
X193300Y128500
X193300Y127000
X194700Y127000
X194700Y128500
X69512Y151107
X109822Y150978
X112972Y141529
X103100Y136804
X119009Y122848
X218246Y73800
X222000Y73800
X212135Y66335
X211300Y63200
X-20290Y2310
X247127Y79004
X7090Y67521
X267559Y78793
X55789Y120900
X53189Y120900
X232509Y157258
X278535Y79004
X180000Y130512
X13100Y19109
X9500Y23300
X9500Y27400
X227504Y128786
X8904Y31500
X247127Y80804
X192600Y41320
X213080Y167570
X123900Y161800
X124000Y165500
X210100Y167830
X210100Y139400
X184460Y41320
X205669Y170385
X186700Y86000
X181100Y26050
X185900Y28600
X183600Y28600
X181100Y28600
X183600Y26000
X211756Y128800
X54600Y153740
X52140Y140840
X112973Y138378
X213700Y136789
X54600Y157680
X94600Y141603
X214300Y151000
X196100Y41400
X50589Y120900
X211500Y166610
X211600Y118440
X188530Y41320
X124000Y163600
X180000Y127646
X3508Y166792
X207637Y170385
X184300Y86000
X8508Y145808
X47989Y120900
X234309Y157258
X-1200Y157300
X122422Y138378
X-1500Y143600
X185175Y19360
X184250Y70700
X95806Y122338
X3508Y154400
X228790Y157177
X230160Y172197
X180150Y59000
X93800Y130203
X13500Y166900
X41415Y140815
X95700Y130050
X176125Y59000
X8500Y166800
X184175Y59000
X91900Y130000
X116123Y144677
X90000Y130000
X188200Y59000
X203086Y154700
X176320Y41320
X112973Y144677
X176200Y70700
X91070Y123931
X188275Y70700
X97602Y130200
X95796Y124290
X109823Y132079
X180225Y70700
X209606Y176014
X253200Y64990
X-24421Y30450
X-3700Y28100
X-15700Y180550
X103524Y119200
X169864Y159277
R02X-1500
X29630Y68265
X28450Y66265
X28450Y64265
X38450Y64265
X38450Y66265
X39630Y68265
X33450Y64265
X33450Y66265
X35950Y66265
X35950Y64265
X37130Y68265
R02X-2500
X30950Y66265
X30950Y64265
X21100Y24300
X70053Y156902
X59600Y119000
X12100Y40620
X82800Y74600
X112973Y147827
X172950Y37150
R02Y-1450
X195300Y138200
X265494Y117000
X91218Y66918
X35217Y70416
X78100Y169631
X89379Y172500
R03X-16016
X214000Y176300
X199300Y176400
X195037Y172354
X207637Y172354
X176400Y63300
X176400Y65100
X176400Y66800
X233000Y56800
X87200Y37000
X90600Y37000
X90600Y35300
X90600Y33600
X88900Y33600
X87200Y33600
X88900Y35300
X87200Y35300
X88900Y37000
X92900Y84500
R03Y1600
X172641Y95859
X208510Y66300
X231000Y58800
X229514Y60541
X233000Y58800
X231000Y56800
X223100Y63236
X228195Y65205
X147800Y88000
X73650Y113724
X-14100Y176300
X112972Y87985
X100390Y60390
X3508Y145808
X55953Y112086
X-12180Y112885
X-12180Y116944
X56900Y113800
X81400Y75800
X75084Y126716
X109823Y144677
X47400Y81084
X39700Y84500
X111600Y157578
X224980Y8469
X199400Y23100
X175000Y5450
X-39170Y74420
X-49170Y74420
X-19170Y74420
X-29170Y74420
X-52400Y21403
X-52400Y19396
X-52400Y17503
X-52400Y33607
X-52400Y31600
X-52400Y29707
X257500Y-2300
X262300Y1100
X252700Y-100
X252300Y-5500
X245000Y-9100
X229800Y-10700
R21X-10000
X800Y-10700
X9800Y-10700
X-7500Y-10700
X-17900Y-10700
X-48500Y-1500
X-46000Y2700
X-52100Y2800
X-55400Y13700
X-55500Y45200
X-55400Y53700
R08Y10000
X269400Y170700
X271600Y177700
X261500Y189200
X252700Y189100
X252100Y195600
X243800Y199300
X226900Y200800
R21X-10000
X219100Y48200
X215310Y62660
X96700Y120775
X-120Y65200
R03Y-1500
X1380Y65200
R03Y-1500
X258350Y41181
X260776Y102824
X125900Y165500
X258350Y43150
X268440Y102740
X127700Y165500
X930Y168010
X-21878Y154962
X-33628Y143932
X-980Y50490
X191275Y28575
X85670Y153590
X94150Y153700
X82287Y170630
X205880Y15370
X222850Y44940
X17860Y81760
X17890Y84730
X17860Y83260
X17890Y86230
X-14970Y19878
R02X1600
X-14970Y18378
R02X1600
X-16570Y19878
X-16570Y18378
X-30935Y11670
X-32500Y11687
X-29400Y11687
X-34300Y48830
R02Y2000
X-36300Y52830
R02Y-2000
X-38300Y52830
R02Y-2000
X-32300Y52830
R02Y-2000
X8200Y71180
X1850Y70400
X1850Y72060
X8200Y72610
X7445Y49935
X8460Y51130
X10230Y52950
X1503Y50490
X2187Y31470
X266790Y65890
X267860Y70940
X278580Y77020
X279470Y82550
X23600Y58790
X25600Y58790
X25600Y56890
X23600Y56890
X158300Y16700
X158320Y18820
X160450Y18710
X269480Y76850
X267510Y76830
X255541Y53647
X245750Y88150
X258100Y80551
X160450Y16650
X201870Y109790
X193000Y34900
X208480Y24900
X193800Y31000
X188700Y31700
X74200Y30300
R02X-2500
X74200Y48800
R02X-2500
X65300Y63700
R02X3000
X-6700Y116990
X-6700Y113490
X-7700Y104990
X-7700Y99990
X-7700Y93490
X-33700Y106990
X-26700Y106990
X44500Y119700
X44000Y122700
X77500Y85700
X77500Y83700
X230500Y75700
R02Y-2000
X230500Y69200
X230500Y67200
X232500Y73700
X232500Y71700
X232500Y69200
X232500Y67200
X252500Y168700
X249000Y168700
X247500Y176700
X247500Y179200
X241330Y156210
X239000Y156260
X220930Y157340
X230660Y156510
X222690Y88090
X217440Y87860
X220730Y110930
X219070Y110880
X200234Y118185
X200280Y119870
X195942Y118218
X195970Y119760
X195985Y121345
X221070Y106720
X219308Y106653
X222690Y96620
X221090Y96620
X258100Y45118
X229160Y45510
X258100Y74646
X258100Y68740
X258100Y62835
X258100Y56929
X172480Y124206
X96660Y13160
X78200Y107400
X76700Y107300
X186502Y56960
X-34500Y20480
X-34400Y18280
X-34400Y16180
X-34400Y28180
X-34400Y30380
X-34300Y32380
X-35600Y19280
X-35600Y17180
X-35700Y29480
X-35700Y31480
X185702Y73060
X227240Y45510
X221100Y48230
X94550Y137600
X90950Y131653
X93000Y124390
X98000Y123800
X98600Y132050
X94750Y131850
X182302Y68960
X178202Y68960
X182102Y60860
X178202Y60860
X-20857Y104767
X-21139Y96649
X-20634Y116944
X-6100Y145500
X96087Y177900
X27934Y132634
X241400Y147900
X241600Y150700
X-6760Y24060
X-4730Y22600
X20010Y151510
X53010Y49510
X53010Y47510
X90300Y48200
X90300Y46200
X90300Y30200
R02Y-2000
X90300Y44200
X-26700Y96990
X-33700Y96990
X-26700Y114990
X-33700Y114990
X10300Y80200
X34300Y171200
R04X-4000
X18300Y157200
X18300Y161200
X20300Y163200
X16300Y142200
X16300Y126990
X3300Y132990
X16300Y131200
X16300Y136200
X10300Y136200
X3300Y136200
X279300Y127200
X279300Y131200
X279300Y136200
R03Y4000
X272300Y148200
X268300Y148200
X260300Y141200
X260300Y145200
X264300Y145200
X264300Y148200
X260300Y148200
X253950Y141190
X249300Y141200
X249300Y145200
X253950Y145190
X253950Y148190
X249300Y148200
X101300Y14200
X101300Y10200
X106300Y10200
R04X5000
X126300Y14200
R04X-5000
X-37600Y32487
X-37600Y30480
X-37600Y28587
X-37600Y20287
X-37600Y18287
X-37600Y16287
X-35600Y1400
X-20290Y-5100
X-31700Y-7000
X-37500Y1400
X-19200Y4700
X-20621Y22243
X-20621Y26293
X-1800Y11500
X920Y12220
X9040Y11440
X-15200Y195800
X-17200Y195800
X-29000Y196000
X-31000Y196000
X-25500Y176200
X-29250Y162550
X-15100Y147410
X-16800Y147410
X-30074Y148100
X13500Y144500
X27700Y80700
X252600Y107700
X255200Y107800
X255200Y110500
X252600Y110400
X263800Y28700
X263800Y30600
X272700Y96400
X277500Y99150
X274700Y28300
X277000Y28300
X277000Y30400
X274700Y30500
X36734Y150934
X39734Y150934
X49279Y105800
X45279Y105800
X45279Y101800
X45279Y97800
X49279Y97800
X49279Y101800
X53279Y101800
R02Y-4000
X49279Y93800
R02X-4000
X41279Y97800
R02Y4000
X28710Y104823
X28710Y94023
X40734Y136434
X32734Y138434
X32734Y140934
X29734Y140934
X42734Y148934
X45234Y148934
X45234Y150934
X42734Y150934
X47834Y157934
X45334Y157934
X42734Y157934
X37394Y172500
X50255Y172500
X82300Y150200
X264500Y157700
X260500Y151700
X264500Y151700
X264500Y154700
X260500Y154700
X249500Y151700
X254150Y151690
X254150Y154690
X249500Y154700
X216810Y166710
X172746Y158454
X172746Y159954
X201446Y168854
X199946Y168854
X116740Y17470
X111400Y17470
X82287Y172500
X66271Y172500
X93010Y63510
R02Y-2000
X49600Y12000
X46100Y12000
X46100Y15000
R02X3500
X53100Y18500
R07Y3500
X19934Y158734
X31200Y38500
X31200Y34400
X31200Y29100
X35900Y29100
X40300Y29000
X40300Y34200
X40300Y38500
X35900Y38500
X35900Y34300
X45400Y58800
X47400Y58800
X47400Y56900
X45400Y56900
X72800Y98500
X72800Y100100
X71400Y98600
X71400Y100100
X103500Y156000
X103500Y157500
X-35718Y151132
R04Y7200
X-18432Y161932
X-17532Y183499
X-17537Y176303
X-17500Y169078
X-1492Y160308
X115900Y161150
X85600Y89368
X85600Y86168
X85600Y87768
X85600Y84668
X208030Y31610
X208480Y26800
X208480Y28300
X208030Y33010
X176200Y31700
R02Y1600
X240530Y106759
X240430Y111200
X245000Y111600
X245000Y113700
X245000Y116000
X245000Y118400
X277400Y118500
X279100Y118500
X279100Y120300
X277400Y120300
X85600Y97776
X85600Y93076
X85600Y94576
X85600Y96176
X85600Y104400
X85600Y102800
X85600Y101300
X262755Y121355
X251755Y121355
X275500Y156000
X278000Y155900
X278000Y158300
X275500Y158300
X222800Y157349
X259984Y158114
X224551Y157349
X236400Y156300
X236362Y158114
X242267Y157900
X248173Y158114
X254078Y158114
X247100Y82800
X247300Y77100
X200500Y73600
X200485Y71900
X200500Y75400
X57000Y129900
R02X-1500
X73000Y148900
R02X-1500
X63790Y154110
X63800Y159200
X232200Y120600
R03Y1600
X196000Y85170
X196000Y86970
X208805Y89300
R02X-1800
X210605Y89300
X135020Y154126
X106673Y144678
X119296Y138404
X128721Y141528
X116123Y147827
X125571Y150977
X146043Y157043
X105066Y157590
X269700Y41600
R02Y5800
X245000Y43405
X245000Y45300
X245000Y49500
X245000Y51300
X241300Y76900
X241100Y71100
X247200Y71000
X247100Y65100
X245400Y60000
X245400Y64500
X270000Y71000
X270000Y65200
X268400Y59900
X268350Y64478
X180200Y125700
X180000Y132700
X-26900Y26480
X-27000Y22380
X40800Y138900
X36100Y138800
X73861Y54850
X71700Y54800
X71700Y51600
X73800Y51600
X69600Y54800
X69600Y51600
X73800Y59700
X73861Y18250
X71700Y18200
X71700Y15000
X73800Y15000
X69600Y18200
X69600Y15000
X73800Y23100
X69600Y36500
X71700Y36500
X73800Y33300
R02X-2100
X73800Y41400
X73861Y36550
X55800Y122800
X53200Y122800
X51279Y122800
X47299Y122800
X40900Y122700
X48300Y41200
X48300Y39700
X48300Y42700
X48300Y26500
X48300Y29500
X48300Y28000
X22900Y41200
X22900Y39700
X22900Y42700
X22900Y28000
X22900Y29500
X22900Y26500
X-35700Y21580
X-35700Y26880
X106606Y119750
X218246Y66300
X206480Y63580
X208200Y73800
X213200Y73800
X215700Y73800
X230900Y63900
X229300Y63400
X226600Y59700
X222200Y69500
X216500Y69500
X208700Y69300
X212900Y69300
X-29400Y37080
X-32500Y37080
X-30935Y37063
X142014Y54053
X126660Y54053
X144573Y54053
X124101Y54053
X144573Y50904
X126659Y50904
X144573Y45196
X124101Y47754
X139456Y23149
X126660Y23149
X142015Y23149
X124101Y23149
X152250Y50904
X154809Y50904
X152250Y28856
X154809Y28856
X118982Y50904
X116423Y50904
X116424Y26298
X113865Y26298
X159927Y32006
X116424Y54053
X121541Y54053
X149692Y23149
X108747Y54053
X111306Y23149
X108747Y29448
X116424Y29448
X152493Y44953
X118983Y29448
X111306Y54053
X118983Y47754
X111306Y47754
X159927Y54053
X157368Y32006
X154810Y23149
X108747Y23149
X118983Y23149
X149691Y25707
X108747Y47754
X149691Y54053
X116424Y23149
X157803Y44768
X149692Y32006
X111306Y32006
X157369Y23149
X152250Y54053
X160040Y44830
X116424Y47754
X149691Y45196
X147133Y32006
X157368Y54053
X154809Y57203
X159927Y50904
X149691Y50904
X144573Y57203
X139455Y57203
X139455Y50904
X129219Y57203
X129219Y50904
X121541Y50904
X124101Y57203
X108747Y50904
X106188Y47754
X113865Y57203
X162682Y44860
X159927Y42046
X154809Y42046
X159927Y35156
X152251Y35156
X149691Y42046
X144573Y42046
X147133Y35156
X142015Y35156
X124101Y44604
X118983Y44604
X113865Y35156
X113865Y44604
X108747Y44604
X162486Y32006
X159927Y28856
X147133Y28856
X136897Y28856
X129219Y26298
X124101Y32598
X118983Y26298
X118983Y32598
X108747Y32598
X106188Y29448
X108747Y26298
X152251Y19999
X129219Y19999
X136897Y19999
X124101Y19999
X139456Y32006
X126660Y29448
X142015Y32006
X124101Y29448
X139456Y45196
X129218Y45196
X142014Y44604
X126660Y44604
X144574Y23149
X121542Y23149
X111306Y50904
X157368Y50904
X144574Y47754
X149691Y57203
X121542Y47754
X118983Y57203
X144574Y32006
X121542Y29448
X147133Y19999
X118983Y19999
X111306Y28856
X157368Y28856
X147132Y54053
X157368Y57203
X154809Y54053
X152250Y57203
X147132Y57203
X147132Y50904
X142014Y57203
X142014Y50904
X129219Y47754
X139455Y54053
X129219Y54053
X124100Y50904
X126660Y48346
X126660Y57203
X121542Y57203
X116424Y57203
X106188Y50904
X113865Y47754
X113865Y54053
X111306Y57203
X154809Y45196
X162486Y50904
X162486Y42046
X157368Y42046
X152250Y42046
X162486Y35156
X157368Y35156
X147132Y42046
X144574Y35156
X149692Y35156
X136897Y45196
X121542Y44604
X116424Y44604
X111306Y35156
X111306Y44604
X152251Y23149
X162486Y28856
X152251Y32006
X144574Y28856
X139456Y28856
X136897Y23149
X136897Y32006
X129219Y29448
X129219Y23149
X126660Y26298
X121542Y26298
X116424Y32598
X121542Y32598
X113865Y32006
X113865Y23149
X106188Y26298
X154810Y19999
R03X-5118
X126660Y19999
X121542Y19999
X144392Y94121
X153916Y100585
X153916Y110033
X153916Y106884
X157066Y103734
X157066Y106884
X166515Y132079
X163366Y132080
X157066Y100585
X160215Y97435
X144467Y97435
X141318Y103734
X141318Y106884
X147617Y100585
X150767Y100585
X163365Y100585
X150767Y144677
X147617Y144677
X153916Y97435
X157066Y97435
X153916Y91136
X153916Y94285
X147617Y94285
X147618Y97434
X150767Y94285
X141318Y97435
X150767Y110033
X163365Y103734
X163365Y135229
X160215Y135229
X169664Y138378
X169664Y132079
X163365Y128929
X169664Y116333
X169664Y110033
X163366Y113182
X116123Y110033
X119272Y110033
X119272Y100585
X125570Y103733
X119272Y106884
X116123Y106884
X131869Y100585
X131869Y103734
X135019Y91136
X138168Y91136
X119272Y97435
X119272Y94285
X138168Y97435
X116123Y87986
X122420Y91136
X128720Y87985
X125571Y100583
X109823Y91134
X135019Y113181
X160215Y144677
X122422Y100583
X153916Y141528
X125570Y91134
X125571Y97433
X157066Y141528
X128719Y106882
X141318Y100585
X138168Y94285
X160215Y103734
X128720Y97434
X109823Y97433
X135019Y87986
X125571Y94284
X135019Y103734
X103524Y97433
X125571Y110033
X135019Y100585
X109822Y87986
X128721Y94285
X138168Y106884
X125571Y113183
X125571Y87986
X138168Y113181
X138168Y100585
X128719Y110032
X122422Y110033
X109823Y116333
X112973Y106884
X128719Y103733
X138168Y103734
X116123Y97435
X106674Y97433
X103524Y103734
X128721Y91136
X122420Y87986
X150767Y125780
X160215Y132079
X157066Y132079
X125571Y135229
X160215Y128929
X160215Y119482
X131871Y119482
X160215Y113183
X157066Y110033
X131869Y113181
X128721Y116333
X157066Y150977
X106780Y125830
X112962Y122641
X147617Y150977
X150767Y150977
X147618Y147828
X109823Y128929
X116123Y128929
X141318Y110033
X150767Y103734
X166515Y110033
X122422Y135229
X166515Y116333
X119272Y128929
X122422Y128929
X163365Y116333
X122422Y119482
X125571Y116333
X147617Y103734
X147617Y110033
X161791Y157590
X153916Y154126
X169664Y150977
X157066Y144677
X144467Y150977
X153916Y135229
X147617Y141528
X147617Y135229
X144467Y132079
X135020Y132079
X128720Y132080
X128721Y125780
X131871Y128929
X125571Y128929
X125571Y119482
X119272Y116333
X122422Y116333
X166515Y138378
X163365Y110033
X163365Y125780
X144467Y103734
X163366Y97434
X150767Y106884
X144467Y106884
X163365Y144677
X116123Y125780
X166515Y125780
X160215Y94285
X119272Y125780
X163365Y138378
X112973Y128929
X131871Y135229
X112973Y103734
X116123Y103734
X119272Y135229
X106450Y122592
X119272Y132079
X135020Y135229
X122422Y132079
X112972Y132080
X128721Y135229
X150767Y132079
X153916Y128929
X157066Y125780
X153916Y119482
X141318Y128929
X147617Y128929
X144467Y125780
X147617Y119482
X141318Y119482
X138168Y119481
X135020Y125780
X157066Y116333
X150767Y116333
X144467Y116333
X163465Y94225
X122422Y94284
X131871Y138378
X135019Y106884
X116123Y132079
X109987Y125929
X153916Y113183
X147617Y106884
X144467Y110033
X141318Y113183
X147618Y113182
X135019Y116331
X160215Y100585
X150751Y97451
X141318Y94285
X153916Y87986
X163201Y91300
X135019Y94285
X109752Y122702
X112973Y135229
X172814Y144677
X169664Y144677
X166515Y144677
X160215Y150977
X150767Y147827
X141318Y144677
X166515Y141528
X172814Y138378
X166515Y135229
X172815Y132080
X153916Y138378
X153916Y132079
X163365Y141528
X160215Y141528
X160215Y138378
X147618Y132080
X141318Y132079
X131871Y132079
X125571Y132079
X109823Y135229
X166515Y128929
X166515Y119482
X157066Y128929
X153916Y125780
X160215Y125780
X157066Y119482
X163365Y119482
X144467Y128929
X141318Y125780
X150767Y128929
X147617Y125780
X150767Y119482
X144467Y119482
X128721Y128929
X131871Y125780
X128721Y119482
X135020Y119482
X135020Y128929
X116126Y122627
X172814Y116333
X166515Y113183
X172814Y110033
X166515Y106884
X153916Y116333
X160215Y116333
X157066Y113183
X160215Y110033
X163365Y106884
X160215Y106884
X144467Y113183
X141318Y116333
X147617Y116333
X150767Y113183
X138168Y116331
X131869Y106884
X131871Y116333
X128720Y113182
X116123Y113183
X109583Y110272
X166465Y97485
X157066Y94285
X153916Y103734
X144467Y100585
X135019Y97435
X122422Y97433
X119272Y103734
X109823Y100585
X172300Y87900
X147617Y91136
X138168Y87986
X112973Y91136
X103574Y88225
T02
X20000Y185000
X20000Y195000
X30000Y185000
X30000Y195000
X40000Y185000
X40000Y195000
X50000Y185000
X50000Y195000
X60000Y185000
X60000Y195000
X70000Y185000
X70000Y195000
X80000Y185000
X80000Y195000
X90000Y185000
X90000Y195000
X100000Y185000
X100000Y195000
X110000Y185000
X110000Y195000
X120000Y185000
X120000Y195000
X130000Y185000
X130000Y195000
X140000Y185000
X140000Y195000
X150000Y185000
X150000Y195000
X160000Y185000
X160000Y195000
X170000Y185000
X170000Y195000
X180000Y185000
X180000Y195000
X190000Y185000
X190000Y195000
X200000Y185000
X200000Y195000
X210000Y185000
X210000Y195000
X220000Y185000
X220000Y195000
X230000Y185000
X230000Y195000
X240000Y185000
X240000Y195000
X20000Y-5000
X20000Y5000
X30000Y-5000
X30000Y5000
X40000Y-5000
X40000Y5000
X50000Y-5000
X50000Y5000
X60000Y-5000
X60000Y5000
X70000Y-5000
X70000Y5000
X80000Y-5000
X80000Y5000
X90000Y-5000
X90000Y5000
X100000Y-5000
X100000Y5000
X110000Y-5000
X110000Y5000
X120000Y-5000
X120000Y5000
X130000Y-5000
X130000Y5000
X140000Y-5000
X140000Y5000
X150000Y-5000
X150000Y5000
X160000Y-5000
X160000Y5000
X170000Y-5000
X170000Y5000
X180000Y-5000
X180000Y5000
X190000Y-5000
X190000Y5000
X200000Y-5000
X200000Y5000
X210000Y-5000
X210000Y5000
X220000Y-5000
X220000Y5000
X230000Y-5000
X230000Y5000
X240000Y-5000
X240000Y5000
T03
X10000Y129290
X0Y124290
X10000Y119290
X0Y114290
X10000Y109290
X0Y104290
X10000Y99290
X0Y94290
X10000Y89290
X0Y84290
T04
X-40984Y132892
X-40984Y122892
X-40984Y90688
X-40984Y80688
T05
X169839Y174530
R05X-10000
T06
X-43400Y65753
X-43400Y51973
T07
X-10Y189980
X0Y0
X260000Y177500
X260000Y12500
T08
X229472Y30301
T09
X-35463Y35646
X-35463Y12890
T10
X253289Y103767
X253289Y24503
T11
X190102Y141546
T12
X-42500Y-4500
X-12500Y-504
X-12500Y-8496
T13
X268843Y141546
T14
X-25000Y129290
X-25000Y84290
M30
