G04 ================== begin FILE IDENTIFICATION RECORD ==================*
G04 Layout Name:  BEAGLEV FIRE_REV A_230911.brd*
G04 Film Name:    BOTTOM*
G04 File Format:  Gerber RS274X*
G04 File Origin:  Cadence Allegro 17.4-S031*
G04 Origin Date:  Tue Sep 26 15:21:00 2023*
G04 *
G04 Layer:  VIA CLASS/BOTTOM*
G04 Layer:  PIN/BOTTOM*
G04 Layer:  ETCH/BOTTOM*
G04 Layer:  BOARD GEOMETRY/OUTLINE*
G04 *
G04 Offset:    (0.00 0.00)*
G04 Mirror:    No*
G04 Mode:      Positive*
G04 Rotation:  0*
G04 FullContactRelief:  No*
G04 UndefLineWidth:     5.00*
G04 ================== end FILE IDENTIFICATION RECORD ====================*
%FSLAX25Y25*MOIN*%
%IR0*IPPOS*OFA0.00000B0.00000*MIA0B0*SFA1.00000B1.00000*%
%AMMACRO51*
4,1,44,.00689,-.00194,
.00194,-.00689,
.001677,-.007118,
.001375,-.007293,
.001048,-.007412,
.000704,-.007472,
.000356,-.007472,
.000013,-.007412,
-.000315,-.007293,
-.000617,-.007118,
-.000884,-.006894,
-.00088,-.00689,
-.00689,-.00088,
-.007118,-.000617,
-.007293,-.000315,
-.007412,.000012,
-.007472,.000356,
-.007472,.000704,
-.007412,.001048,
-.007293,.001375,
-.007119,.001677,
-.006894,.001944,
-.00689,.00194,
-.00194,.00689,
-.001677,.007118,
-.001375,.007293,
-.001048,.007412,
-.000704,.007472,
-.000356,.007472,
-.000013,.007412,
.000315,.007293,
.000617,.007118,
.000884,.006894,
.00088,.00689,
.00689,.00088,
.007118,.000617,
.007293,.000315,
.007412,-.000012,
.007472,-.000356,
.007472,-.000704,
.007412,-.001048,
.007293,-.001375,
.007119,-.001677,
.006894,-.001944,
.00689,-.00194,
0.0*
%
%ADD51MACRO51*%
%AMMACRO49*
4,1,40,.0035,-.00625,
-.0035,-.00625,
-.003847,-.00622,
-.004184,-.006129,
-.0045,-.005982,
-.004786,-.005782,
-.005032,-.005536,
-.005232,-.00525,
-.005379,-.004934,
-.00547,-.004597,
-.0055,-.00425,
-.0055,.00425,
-.00547,.004597,
-.005379,.004934,
-.005232,.00525,
-.005032,.005536,
-.004786,.005782,
-.0045,.005982,
-.004184,.006129,
-.003847,.00622,
-.0035,.00625,
.0035,.00625,
.003847,.00622,
.004184,.006129,
.0045,.005982,
.004786,.005782,
.005032,.005536,
.005232,.00525,
.005379,.004934,
.00547,.004597,
.0055,.00425,
.0055,-.00425,
.00547,-.004597,
.005379,-.004934,
.005232,-.00525,
.005032,-.005536,
.004786,-.005782,
.0045,-.005982,
.004184,-.006129,
.003847,-.00622,
.0035,-.00625,
0.0*
%
%ADD49MACRO49*%
%AMMACRO47*
4,1,40,.00625,.0035,
.00625,-.0035,
.00622,-.003847,
.006129,-.004184,
.005982,-.0045,
.005782,-.004786,
.005536,-.005032,
.00525,-.005232,
.004934,-.005379,
.004597,-.00547,
.00425,-.0055,
-.00425,-.0055,
-.004597,-.00547,
-.004934,-.005379,
-.00525,-.005232,
-.005536,-.005032,
-.005782,-.004786,
-.005982,-.0045,
-.006129,-.004184,
-.00622,-.003847,
-.00625,-.0035,
-.00625,.0035,
-.00622,.003847,
-.006129,.004184,
-.005982,.0045,
-.005782,.004786,
-.005536,.005032,
-.00525,.005232,
-.004934,.005379,
-.004597,.00547,
-.00425,.0055,
.00425,.0055,
.004597,.00547,
.004934,.005379,
.00525,.005232,
.005536,.005032,
.005782,.004786,
.005982,.0045,
.006129,.004184,
.00622,.003847,
.00625,.0035,
0.0*
%
%ADD47MACRO47*%
%AMMACRO35*
4,1,40,-.02,-.0067,
-.02,.0067,
-.019798,.00901,
-.019198,.011249,
-.018218,.01335,
-.016888,.015249,
-.015249,.016888,
-.01335,.018218,
-.011249,.019198,
-.00901,.019798,
-.0067,.02,
.0067,.02,
.00901,.019798,
.011249,.019198,
.01335,.018218,
.015249,.016888,
.016888,.015249,
.018218,.01335,
.019198,.011249,
.019798,.00901,
.02,.0067,
.02,-.0067,
.019798,-.00901,
.019198,-.011249,
.018218,-.01335,
.016888,-.015249,
.015249,-.016888,
.01335,-.018218,
.011249,-.019198,
.00901,-.019798,
.0067,-.02,
-.0067,-.02,
-.00901,-.019798,
-.011249,-.019198,
-.01335,-.018218,
-.015249,-.016888,
-.016888,-.015249,
-.018218,-.01335,
-.019198,-.011249,
-.019798,-.00901,
-.02,-.0067,
0.0*
%
%ADD35MACRO35*%
%AMMACRO36*
4,1,40,-.0067,.02,
.0067,.02,
.00901,.019798,
.011249,.019198,
.01335,.018218,
.015249,.016888,
.016888,.015249,
.018218,.01335,
.019198,.011249,
.019798,.00901,
.02,.0067,
.02,-.0067,
.019798,-.00901,
.019198,-.011249,
.018218,-.01335,
.016888,-.015249,
.015249,-.016888,
.01335,-.018218,
.011249,-.019198,
.00901,-.019798,
.0067,-.02,
-.0067,-.02,
-.00901,-.019798,
-.011249,-.019198,
-.01335,-.018218,
-.015249,-.016888,
-.016888,-.015249,
-.018218,-.01335,
-.019198,-.011249,
-.019798,-.00901,
-.02,-.0067,
-.02,.0067,
-.019798,.00901,
-.019198,.011249,
-.018218,.01335,
-.016888,.015249,
-.015249,.016888,
-.01335,.018218,
-.011249,.019198,
-.00901,.019798,
-.0067,.02,
0.0*
%
%ADD36MACRO36*%
%AMMACRO60*
4,1,40,-.02953,.03445,
.02953,.03445,
.030897,.03433,
.032222,.033975,
.033465,.033396,
.034589,.032609,
.035559,.031639,
.036346,.030515,
.036925,.029272,
.03728,.027947,
.0374,.02658,
.0374,-.02658,
.03728,-.027947,
.036925,-.029272,
.036346,-.030515,
.035559,-.031639,
.034589,-.032609,
.033465,-.033396,
.032222,-.033975,
.030897,-.03433,
.02953,-.03445,
-.02953,-.03445,
-.030897,-.03433,
-.032222,-.033975,
-.033465,-.033396,
-.034589,-.032609,
-.035559,-.031639,
-.036346,-.030515,
-.036925,-.029272,
-.03728,-.027947,
-.0374,-.02658,
-.0374,.02658,
-.03728,.027947,
-.036925,.029272,
-.036346,.030515,
-.035559,.031639,
-.034589,.032609,
-.033465,.033396,
-.032222,.033975,
-.030897,.03433,
-.02953,.03445,
0.0*
%
%ADD60MACRO60*%
%ADD31C,.03*%
%ADD11C,.014*%
%ADD38C,.06*%
%ADD71R,.01693X.1*%
%ADD25O,.10236X.05512*%
%ADD58C,.04331*%
%ADD52C,.065*%
%ADD14C,.075*%
%ADD37R,.06X.06*%
%ADD20C,.02362*%
%ADD40R,.08X.08*%
%ADD13C,.04724*%
%ADD53R,.065X.065*%
%AMMACRO21*
4,1,40,.045,.03213,
.045,-.03213,
.04488,-.033497,
.044525,-.034822,
.043946,-.036065,
.043159,-.037189,
.042189,-.038159,
.041065,-.038946,
.039822,-.039525,
.038497,-.03988,
.03713,-.04,
-.03713,-.04,
-.038497,-.03988,
-.039822,-.039525,
-.041065,-.038946,
-.042189,-.038159,
-.043159,-.037189,
-.043946,-.036065,
-.044525,-.034822,
-.04488,-.033497,
-.045,-.03213,
-.045,.03213,
-.04488,.033497,
-.044525,.034822,
-.043946,.036065,
-.043159,.037189,
-.042189,.038159,
-.041065,.038946,
-.039822,.039525,
-.038497,.03988,
-.03713,.04,
.03713,.04,
.038497,.03988,
.039822,.039525,
.041065,.038946,
.042189,.038159,
.043159,.037189,
.043946,.036065,
.044525,.034822,
.04488,.033497,
.045,.03213,
0.0*
%
%ADD21MACRO21*%
%ADD15R,.075X.075*%
%AMMACRO65*
4,1,40,.03307,-.01181,
-.03307,-.01181,
-.033754,-.01175,
-.034418,-.011572,
-.03504,-.011282,
-.035603,-.010888,
-.036088,-.010403,
-.036482,-.00984,
-.036772,-.009218,
-.03695,-.008554,
-.03701,-.00787,
-.03701,.00787,
-.03695,.008554,
-.036772,.009218,
-.036482,.00984,
-.036088,.010403,
-.035603,.010888,
-.03504,.011282,
-.034418,.011572,
-.033754,.01175,
-.03307,.01181,
.03307,.01181,
.033754,.01175,
.034418,.011572,
.03504,.011282,
.035603,.010888,
.036088,.010403,
.036482,.00984,
.036772,.009218,
.03695,.008554,
.03701,.00787,
.03701,-.00787,
.03695,-.008554,
.036772,-.009218,
.036482,-.00984,
.036088,-.010403,
.035603,-.010888,
.03504,-.011282,
.034418,-.011572,
.033754,-.01175,
.03307,-.01181,
0.0*
%
%ADD65MACRO65*%
%ADD72R,.01693X.18504*%
%ADD16C,.06299*%
%AMMACRO23*
4,1,44,.01181,.0059,
.01181,-.0059,
.011781,-.006242,
.011693,-.006574,
.011549,-.006886,
.011352,-.007167,
.01111,-.007411,
.010829,-.007609,
.010518,-.007754,
.010187,-.007844,
.009845,-.007875,
.00984,-.00787,
-.00984,-.00787,
-.010182,-.007845,
-.010514,-.007756,
-.010825,-.007611,
-.011106,-.007414,
-.011349,-.007171,
-.011546,-.00689,
-.011691,-.006579,
-.01178,-.006247,
-.01181,-.005905,
-.01181,-.0059,
-.01181,.0059,
-.011781,.006242,
-.011693,.006574,
-.011549,.006886,
-.011352,.007167,
-.01111,.007411,
-.010829,.007609,
-.010518,.007754,
-.010187,.007844,
-.009845,.007875,
-.00984,.00787,
.00984,.00787,
.010182,.007845,
.010514,.007756,
.010825,.007611,
.011106,.007414,
.011349,.007171,
.011546,.00689,
.011691,.006579,
.01178,.006247,
.01181,.005905,
.01181,.0059,
0.0*
%
%ADD23MACRO23*%
%AMMACRO70*
4,1,40,.02756,.01772,
.02756,-.01772,
.02744,-.019087,
.027085,-.020412,
.026506,-.021655,
.025719,-.022779,
.024749,-.023749,
.023625,-.024536,
.022382,-.025115,
.021057,-.02547,
.01969,-.02559,
-.01969,-.02559,
-.021057,-.02547,
-.022382,-.025115,
-.023625,-.024536,
-.024749,-.023749,
-.025719,-.022779,
-.026506,-.021655,
-.027085,-.020412,
-.02744,-.019087,
-.02756,-.01772,
-.02756,.01772,
-.02744,.019087,
-.027085,.020412,
-.026506,.021655,
-.025719,.022779,
-.024749,.023749,
-.023625,.024536,
-.022382,.025115,
-.021057,.02547,
-.01969,.02559,
.01969,.02559,
.021057,.02547,
.022382,.025115,
.023625,.024536,
.024749,.023749,
.025719,.022779,
.026506,.021655,
.027085,.020412,
.02744,.019087,
.02756,.01772,
0.0*
%
%ADD70MACRO70*%
%AMMACRO68*
4,1,40,.02559,.01772,
.02559,-.01772,
.02547,-.019087,
.025115,-.020412,
.024536,-.021655,
.023749,-.022779,
.022779,-.023749,
.021655,-.024536,
.020412,-.025115,
.019087,-.02547,
.01772,-.02559,
-.01772,-.02559,
-.019087,-.02547,
-.020412,-.025115,
-.021655,-.024536,
-.022779,-.023749,
-.023749,-.022779,
-.024536,-.021655,
-.025115,-.020412,
-.02547,-.019087,
-.02559,-.01772,
-.02559,.01772,
-.02547,.019087,
-.025115,.020412,
-.024536,.021655,
-.023749,.022779,
-.022779,.023749,
-.021655,.024536,
-.020412,.025115,
-.019087,.02547,
-.01772,.02559,
.01772,.02559,
.019087,.02547,
.020412,.025115,
.021655,.024536,
.022779,.023749,
.023749,.022779,
.024536,.021655,
.025115,.020412,
.02547,.019087,
.02559,.01772,
0.0*
%
%ADD68MACRO68*%
%AMMACRO17*
4,1,40,.01181,.00787,
.01181,-.00787,
.01178,-.008212,
.011691,-.008544,
.011546,-.008855,
.011349,-.009136,
.011106,-.009379,
.010825,-.009576,
.010514,-.009721,
.010182,-.00981,
.00984,-.00984,
-.00984,-.00984,
-.010182,-.00981,
-.010514,-.009721,
-.010825,-.009576,
-.011106,-.009379,
-.011349,-.009136,
-.011546,-.008855,
-.011691,-.008544,
-.01178,-.008212,
-.01181,-.00787,
-.01181,.00787,
-.01178,.008212,
-.011691,.008544,
-.011546,.008855,
-.011349,.009136,
-.011106,.009379,
-.010825,.009576,
-.010514,.009721,
-.010182,.00981,
-.00984,.00984,
.00984,.00984,
.010182,.00981,
.010514,.009721,
.010825,.009576,
.011106,.009379,
.011349,.009136,
.011546,.008855,
.011691,.008544,
.01178,.008212,
.01181,.00787,
0.0*
%
%ADD17MACRO17*%
%AMMACRO61*
4,1,40,-.01378,-.00295,
-.01378,.00295,
-.01375,.003292,
-.013661,.003624,
-.013516,.003935,
-.013319,.004216,
-.013076,.004459,
-.012795,.004656,
-.012484,.004801,
-.012152,.00489,
-.01181,.00492,
.01181,.00492,
.012152,.00489,
.012484,.004801,
.012795,.004656,
.013076,.004459,
.013319,.004216,
.013516,.003935,
.013661,.003624,
.01375,.003292,
.01378,.00295,
.01378,-.00295,
.01375,-.003292,
.013661,-.003624,
.013516,-.003935,
.013319,-.004216,
.013076,-.004459,
.012795,-.004656,
.012484,-.004801,
.012152,-.00489,
.01181,-.00492,
-.01181,-.00492,
-.012152,-.00489,
-.012484,-.004801,
-.012795,-.004656,
-.013076,-.004459,
-.013319,-.004216,
-.013516,-.003935,
-.013661,-.003624,
-.01375,-.003292,
-.01378,-.00295,
0.0*
%
%ADD61MACRO61*%
%AMMACRO34*
4,1,40,.0067,-.02,
-.0067,-.02,
-.00901,-.019798,
-.011249,-.019198,
-.01335,-.018218,
-.015249,-.016888,
-.016888,-.015249,
-.018218,-.01335,
-.019198,-.011249,
-.019798,-.00901,
-.02,-.0067,
-.02,.0067,
-.019798,.00901,
-.019198,.011249,
-.018218,.01335,
-.016888,.015249,
-.015249,.016888,
-.01335,.018218,
-.011249,.019198,
-.00901,.019798,
-.0067,.02,
.0067,.02,
.00901,.019798,
.011249,.019198,
.01335,.018218,
.015249,.016888,
.016888,.015249,
.018218,.01335,
.019198,.011249,
.019798,.00901,
.02,.0067,
.02,-.0067,
.019798,-.00901,
.019198,-.011249,
.018218,-.01335,
.016888,-.015249,
.015249,-.016888,
.01335,-.018218,
.011249,-.019198,
.00901,-.019798,
.0067,-.02,
0.0*
%
%ADD34MACRO34*%
%AMMACRO50*
4,1,40,-.00625,-.0035,
-.00625,.0035,
-.00622,.003847,
-.006129,.004184,
-.005982,.0045,
-.005782,.004786,
-.005536,.005032,
-.00525,.005232,
-.004934,.005379,
-.004597,.00547,
-.00425,.0055,
.00425,.0055,
.004597,.00547,
.004934,.005379,
.00525,.005232,
.005536,.005032,
.005782,.004786,
.005982,.0045,
.006129,.004184,
.00622,.003847,
.00625,.0035,
.00625,-.0035,
.00622,-.003847,
.006129,-.004184,
.005982,-.0045,
.005782,-.004786,
.005536,-.005032,
.00525,-.005232,
.004934,-.005379,
.004597,-.00547,
.00425,-.0055,
-.00425,-.0055,
-.004597,-.00547,
-.004934,-.005379,
-.00525,-.005232,
-.005536,-.005032,
-.005782,-.004786,
-.005982,-.0045,
-.006129,-.004184,
-.00622,-.003847,
-.00625,-.0035,
0.0*
%
%ADD50MACRO50*%
%AMMACRO73*
4,1,44,.02559,-.02953,
-.02559,-.02953,
-.026957,-.029411,
-.028282,-.029057,
-.029526,-.028478,
-.03065,-.027692,
-.031621,-.026723,
-.032408,-.025599,
-.032989,-.024356,
-.033345,-.023032,
-.033465,-.021665,
-.03346,-.02166,
-.03346,.02166,
-.033345,.023027,
-.03299,.024352,
-.032411,.025595,
-.031624,.026719,
-.030654,.027689,
-.02953,.028476,
-.028287,.029055,
-.026962,.02941,
-.025595,.02953,
-.02559,.02953,
.02559,.02953,
.026957,.029411,
.028282,.029057,
.029526,.028478,
.03065,.027692,
.031621,.026723,
.032408,.025599,
.032989,.024356,
.033345,.023032,
.033465,.021665,
.03346,.02166,
.03346,-.02166,
.033345,-.023027,
.03299,-.024352,
.032411,-.025595,
.031624,-.026719,
.030654,-.027689,
.02953,-.028476,
.028287,-.029055,
.026962,-.02941,
.025595,-.02953,
.02559,-.02953,
0.0*
%
%ADD73MACRO73*%
%AMMACRO67*
4,1,44,.02953,.02559,
.02953,-.02559,
.029411,-.026957,
.029057,-.028282,
.028478,-.029526,
.027692,-.03065,
.026723,-.031621,
.025599,-.032408,
.024356,-.032989,
.023032,-.033345,
.021665,-.033465,
.02166,-.03346,
-.02166,-.03346,
-.023027,-.033345,
-.024352,-.03299,
-.025595,-.032411,
-.026719,-.031624,
-.027689,-.030654,
-.028476,-.02953,
-.029055,-.028287,
-.02941,-.026962,
-.02953,-.025595,
-.02953,-.02559,
-.02953,.02559,
-.029411,.026957,
-.029057,.028282,
-.028478,.029526,
-.027692,.03065,
-.026723,.031621,
-.025599,.032408,
-.024356,.032989,
-.023032,.033345,
-.021665,.033465,
-.02166,.03346,
.02166,.03346,
.023027,.033345,
.024352,.03299,
.025595,.032411,
.026719,.031624,
.027689,.030654,
.028476,.02953,
.029055,.028287,
.02941,.026962,
.02953,.025595,
.02953,.02559,
0.0*
%
%ADD67MACRO67*%
%AMMACRO55*
4,1,44,.03543,.02756,
.03543,-.02756,
.035316,-.028927,
.034962,-.030252,
.034383,-.031496,
.033597,-.03262,
.032628,-.033591,
.031504,-.034378,
.030261,-.034959,
.028937,-.035315,
.02757,-.035435,
.02756,-.03543,
-.02756,-.03543,
-.028927,-.035316,
-.030252,-.034962,
-.031496,-.034383,
-.03262,-.033597,
-.033591,-.032628,
-.034378,-.031504,
-.034959,-.030261,
-.035315,-.028937,
-.035435,-.02757,
-.03543,-.02756,
-.03543,.02756,
-.035316,.028927,
-.034962,.030252,
-.034383,.031496,
-.033597,.03262,
-.032628,.033591,
-.031504,.034378,
-.030261,.034959,
-.028937,.035315,
-.02757,.035435,
-.02756,.03543,
.02756,.03543,
.028927,.035316,
.030252,.034962,
.031496,.034383,
.03262,.033597,
.033591,.032628,
.034378,.031504,
.034959,.030261,
.035315,.028937,
.035435,.02757,
.03543,.02756,
0.0*
%
%ADD55MACRO55*%
%AMMACRO48*
4,1,40,-.0035,.00625,
.0035,.00625,
.003847,.00622,
.004184,.006129,
.0045,.005982,
.004786,.005782,
.005032,.005536,
.005232,.00525,
.005379,.004934,
.00547,.004597,
.0055,.00425,
.0055,-.00425,
.00547,-.004597,
.005379,-.004934,
.005232,-.00525,
.005032,-.005536,
.004786,-.005782,
.0045,-.005982,
.004184,-.006129,
.003847,-.00622,
.0035,-.00625,
-.0035,-.00625,
-.003847,-.00622,
-.004184,-.006129,
-.0045,-.005982,
-.004786,-.005782,
-.005032,-.005536,
-.005232,-.00525,
-.005379,-.004934,
-.00547,-.004597,
-.0055,-.00425,
-.0055,.00425,
-.00547,.004597,
-.005379,.004934,
-.005232,.00525,
-.005032,.005536,
-.004786,.005782,
-.0045,.005982,
-.004184,.006129,
-.003847,.00622,
-.0035,.00625,
0.0*
%
%ADD48MACRO48*%
%ADD19R,.022X.02*%
%ADD46R,.01X.05*%
%ADD18R,.02X.022*%
%AMMACRO66*
4,1,44,.02953,.02362,
.02953,-.02362,
.029411,-.024987,
.029057,-.026312,
.028478,-.027556,
.027692,-.02868,
.026723,-.029651,
.025599,-.030438,
.024356,-.031019,
.023032,-.031375,
.021665,-.031495,
.02166,-.03149,
-.02166,-.03149,
-.023027,-.031375,
-.024352,-.03102,
-.025595,-.030441,
-.026719,-.029654,
-.027689,-.028684,
-.028476,-.02756,
-.029055,-.026317,
-.02941,-.024992,
-.02953,-.023625,
-.02953,-.02362,
-.02953,.02362,
-.029411,.024987,
-.029057,.026312,
-.028478,.027556,
-.027692,.02868,
-.026723,.029651,
-.025599,.030438,
-.024356,.031019,
-.023032,.031375,
-.021665,.031495,
-.02166,.03149,
.02166,.03149,
.023027,.031375,
.024352,.03102,
.025595,.030441,
.026719,.029654,
.027689,.028684,
.028476,.02756,
.029055,.026317,
.02941,.024992,
.02953,.023625,
.02953,.02362,
0.0*
%
%ADD66MACRO66*%
%AMMACRO59*
4,1,40,.02166,-.04429,
-.02166,-.04429,
-.023027,-.04417,
-.024352,-.043815,
-.025595,-.043236,
-.026719,-.042449,
-.027689,-.041479,
-.028476,-.040355,
-.029055,-.039112,
-.02941,-.037787,
-.02953,-.03642,
-.02953,.03642,
-.02941,.037787,
-.029055,.039112,
-.028476,.040355,
-.027689,.041479,
-.026719,.042449,
-.025595,.043236,
-.024352,.043815,
-.023027,.04417,
-.02166,.04429,
.02166,.04429,
.023027,.04417,
.024352,.043815,
.025595,.043236,
.026719,.042449,
.027689,.041479,
.028476,.040355,
.029055,.039112,
.02941,.037787,
.02953,.03642,
.02953,-.03642,
.02941,-.037787,
.029055,-.039112,
.028476,-.040355,
.027689,-.041479,
.026719,-.042449,
.025595,-.043236,
.024352,-.043815,
.023027,-.04417,
.02166,-.04429,
0.0*
%
%ADD59MACRO59*%
%ADD57R,.04X.025*%
%ADD44R,.035X.03*%
%ADD39O,.016X.06*%
%ADD42R,.03X.035*%
%ADD33R,.012X.0374*%
%ADD41R,.059X.04*%
%ADD32R,.0374X.012*%
%ADD43R,.04X.059*%
%ADD12R,.055X.064*%
%ADD26C,.175*%
%ADD27R,.01535X.04331*%
%ADD24O,.09055X.05512*%
%ADD69R,.08937X.01102*%
%ADD64C,.17717*%
%AMMACRO45*
4,1,40,-.01378,-.01303,
-.01378,.01303,
-.01375,.013372,
-.013661,.013704,
-.013516,.014015,
-.013319,.014296,
-.013076,.014539,
-.012795,.014736,
-.012484,.014881,
-.012152,.01497,
-.01181,.015,
.01181,.015,
.012152,.01497,
.012484,.014881,
.012795,.014736,
.013076,.014539,
.013319,.014296,
.013516,.014015,
.013661,.013704,
.01375,.013372,
.01378,.01303,
.01378,-.01303,
.01375,-.013372,
.013661,-.013704,
.013516,-.014015,
.013319,-.014296,
.013076,-.014539,
.012795,-.014736,
.012484,-.014881,
.012152,-.01497,
.01181,-.015,
-.01181,-.015,
-.012152,-.01497,
-.012484,-.014881,
-.012795,-.014736,
-.013076,-.014539,
-.013319,-.014296,
-.013516,-.014015,
-.013661,-.013704,
-.01375,-.013372,
-.01378,-.01303,
0.0*
%
%ADD45MACRO45*%
%ADD22C,.12795*%
%ADD10O,.06299X.0315*%
%AMMACRO28*
4,1,28,.04823,.02715,
.04626,.02715,
.04626,.0488,
.03051,.0488,
.03051,.02715,
.02067,.02715,
.02067,.0488,
.00492,.0488,
.00492,.02715,
-.00492,.02715,
-.00492,.0488,
-.02067,.0488,
-.02067,.02715,
-.03051,.02715,
-.03051,.0488,
-.04626,.0488,
-.04626,.02715,
-.04823,.02715,
-.04823,-.01616,
-.0689,-.01616,
-.0689,-.0386,
-.04823,-.0386,
-.04823,-.0488,
.04823,-.0488,
.04823,-.0386,
.0689,-.0386,
.0689,-.01616,
.04823,-.01616,
.04823,.02715,
0.0*
%
%ADD28MACRO28*%
%AMMACRO63*
4,1,44,-.01181,-.0059,
-.01181,.0059,
-.011781,.006242,
-.011693,.006574,
-.011549,.006886,
-.011352,.007167,
-.01111,.007411,
-.010829,.007609,
-.010518,.007754,
-.010187,.007844,
-.009845,.007875,
-.00984,.00787,
.00984,.00787,
.010182,.007845,
.010514,.007756,
.010825,.007611,
.011106,.007414,
.011349,.007171,
.011546,.00689,
.011691,.006579,
.01178,.006247,
.01181,.005905,
.01181,.0059,
.01181,-.0059,
.011781,-.006242,
.011693,-.006574,
.011549,-.006886,
.011352,-.007167,
.01111,-.007411,
.010829,-.007609,
.010518,-.007754,
.010187,-.007844,
.009845,-.007875,
.00984,-.00787,
-.00984,-.00787,
-.010182,-.007845,
-.010514,-.007756,
-.010825,-.007611,
-.011106,-.007414,
-.011349,-.007171,
-.011546,-.00689,
-.011691,-.006579,
-.01178,-.006247,
-.01181,-.005905,
-.01181,-.0059,
0.0*
%
%ADD63MACRO63*%
%AMMACRO30*
4,1,44,-.0059,.01181,
.0059,.01181,
.006242,.011781,
.006574,.011693,
.006886,.011549,
.007167,.011352,
.007411,.01111,
.007609,.010829,
.007754,.010518,
.007844,.010187,
.007875,.009845,
.00787,.00984,
.00787,-.00984,
.007845,-.010182,
.007756,-.010514,
.007611,-.010825,
.007414,-.011106,
.007171,-.011349,
.00689,-.011546,
.006579,-.011691,
.006247,-.01178,
.005905,-.01181,
.0059,-.01181,
-.0059,-.01181,
-.006242,-.011781,
-.006574,-.011693,
-.006886,-.011549,
-.007167,-.011352,
-.007411,-.01111,
-.007609,-.010829,
-.007754,-.010518,
-.007844,-.010187,
-.007875,-.009845,
-.00787,-.00984,
-.00787,.00984,
-.007845,.010182,
-.007756,.010514,
-.007611,.010825,
-.007414,.011106,
-.007171,.011349,
-.00689,.011546,
-.006579,.011691,
-.006247,.01178,
-.005905,.01181,
-.0059,.01181,
0.0*
%
%ADD30MACRO30*%
%AMMACRO56*
4,1,44,.01181,.00196,
.01181,-.00196,
.011781,-.002302,
.011693,-.002634,
.011549,-.002946,
.011352,-.003227,
.01111,-.003471,
.010829,-.003669,
.010518,-.003814,
.010187,-.003904,
.009845,-.003935,
.00984,-.00393,
-.00984,-.00393,
-.010182,-.003905,
-.010514,-.003816,
-.010825,-.003671,
-.011106,-.003474,
-.011349,-.003231,
-.011546,-.00295,
-.011691,-.002639,
-.01178,-.002307,
-.01181,-.001965,
-.01181,-.00196,
-.01181,.00196,
-.011781,.002302,
-.011693,.002634,
-.011549,.002946,
-.011352,.003227,
-.01111,.003471,
-.010829,.003669,
-.010518,.003814,
-.010187,.003904,
-.009845,.003935,
-.00984,.00393,
.00984,.00393,
.010182,.003905,
.010514,.003816,
.010825,.003671,
.011106,.003474,
.011349,.003231,
.011546,.00295,
.011691,.002639,
.01178,.002307,
.01181,.001965,
.01181,.00196,
0.0*
%
%ADD56MACRO56*%
%AMMACRO54*
4,1,44,.00196,-.01181,
-.00196,-.01181,
-.002302,-.011781,
-.002634,-.011693,
-.002946,-.011549,
-.003227,-.011352,
-.003471,-.01111,
-.003669,-.010829,
-.003814,-.010518,
-.003904,-.010187,
-.003935,-.009845,
-.00393,-.00984,
-.00393,.00984,
-.003905,.010182,
-.003816,.010514,
-.003671,.010825,
-.003474,.011106,
-.003231,.011349,
-.00295,.011546,
-.002639,.011691,
-.002307,.01178,
-.001965,.01181,
-.00196,.01181,
.00196,.01181,
.002302,.011781,
.002634,.011693,
.002946,.011549,
.003227,.011352,
.003471,.01111,
.003669,.010829,
.003814,.010518,
.003904,.010187,
.003935,.009845,
.00393,.00984,
.00393,-.00984,
.003905,-.010182,
.003816,-.010514,
.003671,-.010825,
.003474,-.011106,
.003231,-.011349,
.00295,-.011546,
.002639,-.011691,
.002307,-.01178,
.001965,-.01181,
.00196,-.01181,
0.0*
%
%ADD54MACRO54*%
%AMMACRO62*
4,1,40,-.01181,-.00787,
-.01181,.00787,
-.01178,.008212,
-.011691,.008544,
-.011546,.008855,
-.011349,.009136,
-.011106,.009379,
-.010825,.009576,
-.010514,.009721,
-.010182,.00981,
-.00984,.00984,
.00984,.00984,
.010182,.00981,
.010514,.009721,
.010825,.009576,
.011106,.009379,
.011349,.009136,
.011546,.008855,
.011691,.008544,
.01178,.008212,
.01181,.00787,
.01181,-.00787,
.01178,-.008212,
.011691,-.008544,
.011546,-.008855,
.011349,-.009136,
.011106,-.009379,
.010825,-.009576,
.010514,-.009721,
.010182,-.00981,
.00984,-.00984,
-.00984,-.00984,
-.010182,-.00981,
-.010514,-.009721,
-.010825,-.009576,
-.011106,-.009379,
-.011349,-.009136,
-.011546,-.008855,
-.011691,-.008544,
-.01178,-.008212,
-.01181,-.00787,
0.0*
%
%ADD62MACRO62*%
%AMMACRO29*
4,1,40,-.00787,.01181,
.00787,.01181,
.008212,.01178,
.008544,.011691,
.008855,.011546,
.009136,.011349,
.009379,.011106,
.009576,.010825,
.009721,.010514,
.00981,.010182,
.00984,.00984,
.00984,-.00984,
.00981,-.010182,
.009721,-.010514,
.009576,-.010825,
.009379,-.011106,
.009136,-.011349,
.008855,-.011546,
.008544,-.011691,
.008212,-.01178,
.00787,-.01181,
-.00787,-.01181,
-.008212,-.01178,
-.008544,-.011691,
-.008855,-.011546,
-.009136,-.011349,
-.009379,-.011106,
-.009576,-.010825,
-.009721,-.010514,
-.00981,-.010182,
-.00984,-.00984,
-.00984,.00984,
-.00981,.010182,
-.009721,.010514,
-.009576,.010825,
-.009379,.011106,
-.009136,.011349,
-.008855,.011546,
-.008544,.011691,
-.008212,.01178,
-.00787,.01181,
0.0*
%
%ADD29MACRO29*%
%ADD74C,.01*%
%ADD75C,.02*%
%ADD76C,.04*%
%ADD77C,.015*%
%ADD78C,.025*%
%ADD79C,.005*%
%ADD80C,.0042*%
%ADD81C,.008*%
%ADD82C,.00448*%
%ADD83C,.02204*%
G75*
%LPD*%
G75*
G36*
G01X-35500Y201500D02*
X233000D01*
X239500Y201000D01*
X244500Y200000D01*
X250500Y198000D01*
X255000Y196000D01*
X261500Y192000D01*
X268500Y185500D01*
X271000Y182500D01*
X273500Y178500D01*
Y172500D01*
X270000Y169000D01*
X266446D01*
G02X266197Y169713I0J400D01*
G03X269952Y177500I-6197J7787D01*
G03X260000Y187452I-9952J0D01*
G03X252213Y183697I0J-9952D01*
G02X251500Y183946I-313J249D01*
G01Y193000D01*
X249500Y195000D01*
X244500Y198000D01*
X244250Y198250D01*
X242000Y199000D01*
X238500Y199500D01*
X237000Y200000D01*
X10500D01*
X8500Y198000D01*
Y196414D01*
G02X7787Y196165I-400J0D01*
G03X-10Y199932I-7797J-6186D01*
G03X-7787Y196189I0J-9951D01*
G02X-8500Y196439I-313J249D01*
G01Y197500D01*
X-11000Y200000D01*
X-33500D01*
X-35500Y199500D01*
X-39000Y198000D01*
X-39500D01*
X-42500Y197000D01*
X-51000Y188500D01*
X-53000Y184500D01*
Y144910D01*
X-49620Y141530D01*
X-15960D01*
X-12700Y138270D01*
Y138170D01*
X-14370Y136500D01*
X-17780D01*
X-19350Y138070D01*
X-49430D01*
X-53000Y134500D01*
Y78040D01*
X-50420Y75460D01*
X-33940D01*
X-33900Y75500D01*
X-19550D01*
X-17550Y77500D01*
X-11000D01*
X-9705Y76205D01*
X-12300Y73610D01*
X-50240D01*
X-53000Y70850D01*
Y47500D01*
X-50156Y44656D01*
G02X-50439Y43974I-283J-282D01*
G01X-51408D01*
G03Y38420I0J-2777D01*
G01X-48258D01*
G03X-45685Y42240I0J2777D01*
G02X-45315Y42790I371J150D01*
G01X-32150D01*
X-30840Y41480D01*
Y40810D01*
X-32030Y39620D01*
X-41270D01*
X-44500Y36390D01*
Y12500D01*
X-40910Y8910D01*
X-32110D01*
X-30525Y7325D01*
Y6975D01*
X-31710Y5790D01*
X-42000D01*
X-44500Y3290D01*
Y-1194D01*
G03X-46364Y-4500I2000J-3306D01*
G03X-42500Y-8364I3864J0D01*
G03X-41936Y-8323I3J3864D01*
G01X-41873Y-8313D01*
X-40500Y-9000D01*
X-34500Y-10500D01*
X-20000D01*
X-17500Y-8000D01*
Y1000D01*
X-14005Y4495D01*
X-10935D01*
X-9430Y6000D01*
X-8706D01*
G02X-8370Y5384I-1J-400D01*
G03X-9553Y2791I8370J-5385D01*
G02X-10177Y2584I-384J112D01*
G03X-12500Y3360I-2323J-3089D01*
G03X-16364Y-504I0J-3864D01*
G03X-13848Y-4125I3864J0D01*
G02Y-4875I-140J-375D01*
G03X-16364Y-8496I1348J-3621D01*
G03X-15560Y-10856I3864J-1D01*
G02X-15876Y-11500I-317J-244D01*
G01X-35500D01*
X-37500Y-11000D01*
X-40000Y-10500D01*
X-43000Y-9500D01*
X-46000Y-7500D01*
X-47500Y-6000D01*
X-51500Y-1500D01*
X-53500Y2000D01*
X-55000Y5000D01*
X-56000Y9000D01*
X-56500Y10500D01*
Y180500D01*
X-55500Y184500D01*
X-54000Y188500D01*
X-52000Y191500D01*
X-49000Y195000D01*
X-46000Y197500D01*
X-43000Y199000D01*
X-40500Y200000D01*
X-37500Y201000D01*
X-35500Y201500D01*
G37*
G36*
G01X-33776Y33560D02*
X-30800D01*
X-26410Y29170D01*
X-12320D01*
X-9990Y26840D01*
X-5800D01*
X-5590Y26630D01*
Y24660D01*
X-2010Y21080D01*
X1390D01*
X1590Y20880D01*
Y12530D01*
X180Y11120D01*
X-32701D01*
G02X-33059Y11698I0J400D01*
G03X-32780Y12890I-2404J1191D01*
G03X-35463Y15573I-2683J0D01*
G03X-37167Y14962I0J-2682D01*
G01X-37307Y14847D01*
X-37770Y15310D01*
X-41530D01*
X-42050Y15830D01*
Y33440D01*
X-41930Y33560D01*
X-37150D01*
G03X-33776I1687J2085D01*
G37*
G36*
G01X-29780Y51030D02*
X-24830D01*
X-23190Y49390D01*
Y44760D01*
X-25580D01*
X-27130Y43210D01*
X-28860D01*
X-31610Y45960D01*
X-45770D01*
X-47750Y47940D01*
Y53960D01*
X-45930Y55780D01*
X-34530D01*
X-29780Y51030D01*
G37*
G36*
G01X-23050Y66110D02*
Y59850D01*
X-23760Y59140D01*
X-29540D01*
X-32110Y61710D01*
X-47210D01*
X-47750Y62250D01*
Y69080D01*
X-47240Y69590D01*
X-30470D01*
X-27920Y67040D01*
X-23980D01*
X-23050Y66110D01*
G37*
G36*
G01X-6580Y47890D02*
X15540D01*
X16140Y47290D01*
Y42490D01*
X15510Y41860D01*
X6190D01*
X2740Y38410D01*
X-6330D01*
X-6402Y38338D01*
X-6492D01*
Y38248D01*
X-11920Y32820D01*
X-27180D01*
X-27860Y33500D01*
Y38660D01*
X-26250Y40270D01*
X-14200D01*
X-10323Y44147D01*
X-10314Y44154D01*
G03X-10222Y44246I-377J469D01*
G01X-10215Y44255D01*
X-6580Y47890D01*
G37*
G36*
G01X251500Y6054D02*
G02X252213Y6303I400J0D01*
G03X260000Y2548I7787J6197D01*
G03X267306Y5743I0J9951D01*
G02X268000Y5471I294J-271D01*
G01Y4000D01*
X264000Y500D01*
X261500Y-1500D01*
X255500Y-5500D01*
X251000Y-7500D01*
X247500Y-9000D01*
X245000Y-10000D01*
X241500Y-10500D01*
X239500Y-11000D01*
X238500D01*
X237000Y-11500D01*
X-9124D01*
G02X-9440Y-10856I1J400D01*
G03X-8636Y-8496I-3060J2359D01*
G03X-11152Y-4875I-3864J0D01*
G02Y-4125I140J375D01*
G03X-9936Y-3395I-1347J3622D01*
G02X-9297Y-3551I266J-299D01*
G03X0Y-9952I9297J3551D01*
G03X7787Y-6197I0J9952D01*
G02X8500Y-6446I313J-249D01*
G01Y-9500D01*
X9000Y-10000D01*
X237500D01*
X243500Y-9000D01*
X245000Y-8000D01*
X251500Y-1500D01*
Y6054D01*
G37*
G36*
G01X-3670Y36930D02*
X-3260Y37340D01*
X3400D01*
X4805Y38745D01*
X5995D01*
X6270Y39020D01*
X7060D01*
X7480Y38600D01*
Y33490D01*
X7060Y33070D01*
X-3370D01*
X-3670Y33370D01*
Y36930D01*
G37*
G36*
G01X14810Y56130D02*
X16370Y54570D01*
X11760Y49960D01*
X8890D01*
X8240Y49310D01*
X7520D01*
X6950Y49880D01*
Y52300D01*
X10780Y56130D01*
X14810D01*
G37*
G36*
G01X91642Y65900D02*
X92100D01*
X101498Y56501D01*
Y56080D01*
G03X102100Y55478I602J0D01*
G01X102521D01*
X104800Y53200D01*
Y12300D01*
X102000Y9500D01*
X84302D01*
G02X83902Y9900I0J400D01*
G03X81698I-1102J0D01*
G02X81298Y9500I-400J0D01*
G01X41202D01*
Y11245D01*
G03X42102Y12970I-1203J1725D01*
G03X37898I-2102J0D01*
G03X38798Y11245I2103J0D01*
G01Y9500D01*
X19500D01*
X18000Y11000D01*
Y32780D01*
X19140Y33920D01*
Y40930D01*
X19810Y41600D01*
Y64810D01*
X20900Y65900D01*
X26498D01*
Y63285D01*
X26898Y62886D01*
X26902Y62809D01*
G03X27468Y62243I601J35D01*
G01X27545Y62239D01*
X27885Y61898D01*
X42215D01*
X42567Y62250D01*
X42617Y62264D01*
G03X43037Y62684I-160J580D01*
G01X43051Y62734D01*
X43502Y63185D01*
Y64048D01*
X46238D01*
G03X47963Y63148I1725J1203D01*
G03X50065Y65250I0J2102D01*
G03X50054Y65460I-2102J-5D01*
G02X50452Y65900I398J40D01*
G01X90794D01*
X90829Y65887D01*
G03X91607I389J1030D01*
G01X91642Y65900D01*
G37*
G36*
G01X11620Y70280D02*
X10810D01*
X10380Y70710D01*
Y72870D01*
X10720Y73210D01*
X17870D01*
X18270Y72810D01*
Y69990D01*
X16180Y67900D01*
Y60600D01*
X15780Y60200D01*
X12680D01*
X11980Y60900D01*
Y69920D01*
X11620Y70280D01*
G37*
G36*
G01X35645Y69400D02*
X41800D01*
X42500Y68700D01*
Y63600D01*
X41800Y62900D01*
X28300D01*
X27500Y63700D01*
Y68700D01*
X28200Y69400D01*
X34789D01*
X34823Y69387D01*
G03X35217Y69314I394J1029D01*
G03X35611Y69387I0J1102D01*
G01X35645Y69400D01*
G37*
G36*
G01X33054Y94300D02*
X35300D01*
X35600Y94000D01*
Y87900D01*
X34700Y87000D01*
X33400Y88300D01*
X29600D01*
X29100Y88800D01*
Y92600D01*
X30800Y94300D01*
X31715D01*
X31740Y94293D01*
G03X32047Y94254I304J1162D01*
G01X32722D01*
G03X33029Y94293I3J1201D01*
G01X33054Y94300D01*
G37*
G36*
G01X32000Y111400D02*
X35500D01*
X35900Y111000D01*
Y109300D01*
X35500Y108900D01*
X33000D01*
X31600Y110300D01*
Y111000D01*
X32000Y111400D01*
G37*
G36*
G01X30100Y117200D02*
X43600D01*
X44400Y116400D01*
Y113000D01*
X44200Y112800D01*
X32200D01*
X31802Y112402D01*
X31585D01*
X30598Y111415D01*
Y111198D01*
X30000Y110600D01*
X29100D01*
X28900Y110800D01*
Y116000D01*
X30100Y117200D01*
G37*
G36*
G01X56413Y166000D02*
X68645D01*
G02X68992Y165400I0J-400D01*
G03X68912Y165100I521J-300D01*
G01Y162900D01*
G03X69513Y162298I602J0D01*
G01X71513D01*
G03X72114Y162900I0J601D01*
G01Y163920D01*
G02X72797Y164203I400J0D01*
G01X75000Y162000D01*
Y131500D01*
X71700Y128200D01*
Y127969D01*
X71577Y127918D01*
G03Y125882I424J-1018D01*
G01X71700Y125831D01*
Y119298D01*
G02X71515Y119099I-200J0D01*
G03Y116901I85J-1099D01*
G02X71700Y116702I-15J-199D01*
G01Y105259D01*
G03X71250Y104020I1481J-1239D01*
G01Y102680D01*
G03X73182Y100748I1932J0D01*
G01X73600D01*
Y98300D01*
X73200Y97900D01*
X66600D01*
X66400Y98100D01*
Y98300D01*
X66500Y98400D01*
Y122600D01*
X65802Y123299D01*
Y123302D01*
X64199D01*
X63102Y124399D01*
Y128215D01*
X62315Y129002D01*
X57385D01*
X57384Y129000D01*
X57200D01*
X56500Y128300D01*
Y124500D01*
X56200Y124200D01*
X53200D01*
X52700Y124700D01*
Y128400D01*
X52100Y129000D01*
X25000D01*
X23000Y131000D01*
Y135498D01*
G02X23200Y135698I200J0D01*
G03Y137902I0J1102D01*
G02X23000Y138102I0J200D01*
G01Y148098D01*
X24500D01*
G03X25102Y148700I0J602D01*
G01Y150900D01*
G03X24801Y151421I-601J0D01*
G01X24702Y151478D01*
Y152577D01*
X24801Y152634D01*
G03X25102Y153155I-300J521D01*
G01Y155355D01*
G03X24801Y155876I-601J0D01*
G01X24702Y155933D01*
Y157056D01*
X24801Y157113D01*
G03X25102Y157634I-300J521D01*
G01Y159834D01*
G03X24500Y160436I-602J0D01*
G01X23000D01*
Y163500D01*
X25500Y166000D01*
X52677D01*
G02X53024Y165400I0J-400D01*
G03X52944Y165100I521J-300D01*
G01Y162900D01*
G03X53545Y162298I602J0D01*
G01X55545D01*
G03X56146Y162900I0J601D01*
G01Y165100D01*
G03X56066Y165400I-601J0D01*
G02X56413Y166000I347J200D01*
G37*
G36*
G01X46600Y118000D02*
X49400D01*
X50300Y117100D01*
Y106600D01*
X50459Y106441D01*
X50471Y106421D01*
G03X50667Y106225I512J316D01*
G01X50687Y106213D01*
X51000Y105900D01*
X53100D01*
X54500Y104500D01*
Y100300D01*
X56000Y98800D01*
Y85000D01*
X55686Y84686D01*
X52930D01*
G02X52611Y85326I0J400D01*
G03X52852Y86049I-960J722D01*
G01Y87864D01*
G03X52501Y88714I-1202J1D01*
G01X51716Y89498D01*
Y90500D01*
G03X51115Y91102I-602J0D01*
G01X48915D01*
G03X48394Y90801I0J-601D01*
G01X48337Y90702D01*
X47517D01*
X47460Y90801D01*
G03X46939Y91102I-521J-300D01*
G01X44739D01*
G03X44138Y90500I0J-601D01*
G01Y88500D01*
G03X44398Y88004I601J-1D01*
G01Y87162D01*
X44299Y87105D01*
G03X43998Y86584I300J-521D01*
G01Y84000D01*
X41199D01*
G02X40800Y84427I0J400D01*
G03X40802Y84500I-1100J67D01*
G03X38598I-1102J0D01*
G03X38600Y84427I1102J-6D01*
G02X38201Y84000I-399J-27D01*
G01X37800D01*
X36894Y84906D01*
Y85640D01*
X37005Y85695D01*
G03X37340Y86234I-266J539D01*
G01Y89734D01*
G03X37005Y90273I-601J0D01*
G01X36894Y90328D01*
Y108878D01*
X36902Y108885D01*
Y110902D01*
X37798Y111798D01*
X38861D01*
X38877Y111796D01*
G03X39227I175J1087D01*
G01X39243Y111798D01*
X44615D01*
X45402Y112585D01*
Y116802D01*
X46600Y118000D01*
G37*
G36*
G01X62220Y118500D02*
X64900D01*
X65300Y118100D01*
Y98300D01*
X65100Y98100D01*
X64723D01*
X64676Y98129D01*
G03X64055Y98302I-621J-1028D01*
G01X59999D01*
X59800Y98500D01*
Y109831D01*
X59923Y109882D01*
G03Y111918I-424J1018D01*
G01X59800Y111969D01*
Y116233D01*
G02X60360Y116600I400J0D01*
G03X60800Y116508I441J1010D01*
G03X61902Y117610I0J1102D01*
G03X61842Y117970I-1102J1D01*
G02X62220Y118500I378J130D01*
G37*
G36*
G01X57600Y127800D02*
X57800Y128000D01*
X61900D01*
X62100Y127800D01*
Y123900D01*
X63700Y122300D01*
X64800D01*
Y120300D01*
X58300D01*
X57600Y121000D01*
Y127800D01*
G37*
G36*
G01X97520Y169280D02*
X97570Y169330D01*
X99510D01*
X99600Y169240D01*
Y160000D01*
X99900Y159700D01*
X104100D01*
X104400Y160000D01*
Y165400D01*
X104560Y165560D01*
X106140D01*
X106670Y165030D01*
Y161510D01*
X106700Y161480D01*
Y160240D01*
X107060Y159880D01*
X110130D01*
X110498Y159512D01*
Y159500D01*
G03X110500Y159434I1102J0D01*
G01Y157639D01*
G03X110498Y157578I1100J-67D01*
G03X110500Y157517I1102J6D01*
G01Y155050D01*
X110491Y155021D01*
G03X110452Y154819I909J-280D01*
G01X110446Y154746D01*
X110100Y154400D01*
X103500D01*
X100600Y157300D01*
X95500D01*
X93500Y155300D01*
X90000D01*
X89700Y155600D01*
Y158140D01*
X89970Y158410D01*
X93610D01*
X96000Y160800D01*
Y165030D01*
X97520Y166550D01*
Y169280D01*
G37*
G36*
G01X170400Y146860D02*
X166340D01*
X160700Y152500D01*
Y158090D01*
X161090Y158480D01*
X163770D01*
X164100Y158150D01*
Y153860D01*
X164650Y153310D01*
X170550D01*
X170900Y152960D01*
Y147360D01*
X170400Y146860D01*
G37*
G36*
G01X174290Y178248D02*
X184084D01*
X185348Y176984D01*
Y161578D01*
G03X185627Y160905I951J0D01*
G01X186200Y160332D01*
Y149237D01*
G03X186198Y149200I599J-51D01*
G01Y147000D01*
G03X186200Y146963I601J14D01*
G01Y139800D01*
X190100Y135900D01*
Y124400D01*
X191300Y123200D01*
X196800D01*
X197899Y124298D01*
X199415D01*
X200302Y125185D01*
Y126701D01*
X201100Y127500D01*
X203200D01*
X203900Y126800D01*
Y123900D01*
X204550Y123250D01*
X209250D01*
X210522Y124522D01*
X211900D01*
G03X212491Y125009I0J602D01*
G01X212522Y125172D01*
X213124D01*
G03X213797Y125450I1J951D01*
G01X215347Y127000D01*
X232100D01*
X233400Y125700D01*
Y120100D01*
X232200Y118900D01*
X226808D01*
X223574Y122134D01*
G03X222950Y122411I-672J-673D01*
G03X221968Y123244I-982J-162D01*
G01X215354D01*
G03X214358Y122248I0J-996D01*
G01Y121024D01*
X212953Y119619D01*
G02X212385Y119621I-283J283D01*
G03X211956Y119802I-430J-421D01*
G01X209956D01*
G03X209354Y119200I0J-602D01*
G01Y117000D01*
G03X209499Y116609I602J1D01*
G02X209485Y116335I-152J-130D01*
G03X209303Y115976I415J-436D01*
G01X209281Y115802D01*
X208719D01*
X208697Y115976D01*
G03X208100Y116502I-597J-76D01*
G01X206100D01*
G03X205612Y116252I0J-601D01*
G01X204443D01*
X204409Y116264D01*
G03X204200Y116302I-210J-564D01*
G01X202000D01*
G03X201650Y116189I1J-602D01*
G01X201597Y116152D01*
X200652D01*
Y117100D01*
G03X200050Y117702I-602J0D01*
G01X196550D01*
G03X195948Y117100I0J-602D01*
G01Y116817D01*
G02X195266Y116534I-400J0D01*
G01X195200Y116600D01*
X191172D01*
G02X190780Y117080I0J400D01*
G03X190802Y117300I-1080J219D01*
G03X188598I-1102J0D01*
G03X188620Y117080I1102J-1D01*
G02X188228Y116600I-392J-80D01*
G01X175000D01*
X173600Y115200D01*
X171900D01*
X171600Y115500D01*
Y133100D01*
X171900Y133400D01*
X181000D01*
X181800Y134200D01*
Y140700D01*
X181100Y141400D01*
X173300D01*
X172400Y142300D01*
Y168100D01*
X171000Y169500D01*
X167500D01*
X167263Y169737D01*
G02X167404Y170078I141J141D01*
G01X173089D01*
G03X174290Y171280I0J1201D01*
G01Y171554D01*
G02X174477Y171754I200J0D01*
G03Y173952I-77J1099D01*
G02X174290Y174152I13J200D01*
G01Y178248D01*
G37*
G36*
G01X190500Y21500D02*
X191400Y20600D01*
X197200D01*
X199500Y18300D01*
Y17560D01*
X198900Y16960D01*
X194540D01*
X193010Y18490D01*
X187110D01*
X186300Y19300D01*
Y22550D01*
X184560Y24290D01*
X183210D01*
X182700Y24800D01*
X181700D01*
Y28200D01*
X184800D01*
X186200Y26800D01*
X186800D01*
Y25160D01*
X187710Y24250D01*
X190340D01*
X190500Y24090D01*
Y21500D01*
G37*
G36*
G01X182604Y67900D02*
X189000D01*
X189200Y67700D01*
Y62200D01*
X189000Y62000D01*
X176100D01*
X175200Y62900D01*
Y66600D01*
X176500Y67900D01*
X177900D01*
X177924Y67894D01*
G03X178202Y67858I279J1066D01*
G03X178480Y67894I-1J1102D01*
G01X178504Y67900D01*
X182000D01*
X182024Y67894D01*
G03X182302Y67858I279J1066D01*
G03X182580Y67894I-1J1102D01*
G01X182604Y67900D01*
G37*
G36*
G01X199900Y109200D02*
X195900D01*
X195200Y108500D01*
Y107700D01*
X185300D01*
X183500Y109500D01*
Y113700D01*
X185000Y115200D01*
X193400D01*
X197300Y111300D01*
X199900D01*
Y109200D01*
G37*
G36*
G01X226400Y79300D02*
X228600D01*
X234850Y73050D01*
Y63550D01*
X234400Y63100D01*
X230400D01*
X228827Y61527D01*
X228813Y61517D01*
G03X228312Y60541I700J-976D01*
G03X228700Y59657I1201J0D01*
G01Y57500D01*
X228400Y57200D01*
X226400D01*
X226100Y57500D01*
Y63400D01*
X226900Y64200D01*
X227534D01*
X227581Y64172D01*
G03X228195Y64004I613J1033D01*
G03X228809Y64172I1J1201D01*
G01X228856Y64200D01*
X228900D01*
X229500Y64800D01*
Y68400D01*
X228800Y69100D01*
X219036D01*
G03X217764I-636J-900D01*
G01X204900D01*
X202600Y71400D01*
X198300D01*
X197452Y72248D01*
Y76152D01*
X198150Y76850D01*
X206450D01*
X208800Y79200D01*
X212800D01*
X213800Y78200D01*
Y75800D01*
X217100Y72500D01*
X221952D01*
X221968Y72497D01*
G03X222070Y72488I104J593D01*
G01X224070D01*
G03X224172Y72497I-2J602D01*
G01X224188Y72500D01*
X225300D01*
X226000Y73200D01*
Y78900D01*
X226400Y79300D01*
G37*
G36*
G01X213627Y117601D02*
X213676Y117650D01*
G02X214358Y117367I282J-283D01*
G01Y116344D01*
G03X215354Y115348I996J0D01*
G01X221968D01*
G03X222916Y116040I0J995D01*
G01X222961Y116180D01*
X224715D01*
X227412Y113483D01*
G02X227129Y112800I-283J-283D01*
G01X222300D01*
X221700Y112200D01*
Y106400D01*
X223400Y104700D01*
Y85500D01*
X222200Y84300D01*
X194200D01*
X192900Y85600D01*
Y95200D01*
X193400Y95700D01*
X195500D01*
X196100Y95100D01*
Y88100D01*
X196400Y87800D01*
X203800D01*
X204200Y88200D01*
Y94584D01*
X204402Y94785D01*
Y99515D01*
X204200Y99716D01*
Y99800D01*
X201900Y102100D01*
Y104100D01*
X201100Y104900D01*
X196300D01*
X195100Y103700D01*
X193100D01*
X192900Y103900D01*
Y105800D01*
X193200Y106100D01*
X194500D01*
X195098Y106698D01*
X196198D01*
X197500Y108000D01*
X201000D01*
X201800Y108800D01*
Y112100D01*
X201400Y112500D01*
X197516D01*
X197201Y112816D01*
G02X197483Y113498I283J282D01*
G01X198386D01*
G03X199200Y113248I815J1202D01*
G01X201597D01*
X201650Y113211D01*
G03X202000Y113098I351J489D01*
G01X204200D01*
G03X204688Y113348I0J601D01*
G01X205612D01*
G03X206100Y113098I488J351D01*
G01X207417D01*
G02X207597Y112342I-1J-400D01*
G01X206970D01*
G03X206782Y112311I3J-602D01*
G01X206752Y112302D01*
X206598D01*
Y112213D01*
G03X206368Y111740I371J-473D01*
G01Y109785D01*
X206084Y109500D01*
X206365Y109218D01*
X206375Y109153D01*
G03X206883Y108645I595J87D01*
G01X206948Y108635D01*
X207385Y108198D01*
X211298D01*
Y107385D01*
X212235Y106448D01*
X214965D01*
X215902Y107385D01*
Y111315D01*
X214515Y112702D01*
X212671D01*
X212352Y113021D01*
Y113297D01*
X212389Y113350D01*
G03X212502Y113700I-489J351D01*
G01Y115900D01*
G03X212357Y116291I-602J-1D01*
G02X212371Y116565I152J130D01*
G03X212558Y117000I-415J436D01*
G01Y117322D01*
X212954D01*
G03X213627Y117601I0J951D01*
G37*
G36*
G01X197300Y99400D02*
X203100D01*
X203400Y99100D01*
Y95200D01*
X202800Y94600D01*
X201000D01*
X200800Y94800D01*
Y95300D01*
X200000Y96100D01*
X197831D01*
X197100Y96831D01*
Y99200D01*
X197300Y99400D01*
G37*
G36*
G01X193900Y125600D02*
X192200D01*
X191500Y126300D01*
Y136600D01*
X191700Y136800D01*
X195800D01*
X196000Y136600D01*
Y129400D01*
X197500Y127900D01*
X199200D01*
X199300Y127800D01*
Y125600D01*
X199000Y125300D01*
X194200D01*
X193900Y125600D01*
G37*
G36*
G01X209180Y33400D02*
Y24250D01*
X208990Y24060D01*
X208090D01*
X207760Y24390D01*
Y25750D01*
X207210Y26300D01*
X202680D01*
X202580Y26400D01*
Y28700D01*
X202680Y28800D01*
X206960D01*
X207400Y29240D01*
Y33430D01*
X207760Y33790D01*
X208790D01*
X209180Y33400D01*
G37*
G36*
G01X202700Y30300D02*
X202000Y31000D01*
Y33900D01*
X199600Y36300D01*
Y41700D01*
X201800Y43900D01*
X204900D01*
X205900Y42900D01*
Y30700D01*
X205500Y30300D01*
X202700D01*
G37*
G36*
G01X214550Y107450D02*
X212650D01*
X212300Y107800D01*
Y108800D01*
X211900Y109200D01*
X207800D01*
X207600Y109400D01*
Y110900D01*
X208400Y111700D01*
X214100D01*
X214900Y110900D01*
Y107800D01*
X214550Y107450D01*
G37*
G36*
G01X213580Y32000D02*
X215880D01*
X216980Y30900D01*
Y27900D01*
X216780Y27700D01*
X213280D01*
X212980Y28000D01*
Y31400D01*
X213580Y32000D01*
G37*
G36*
G01X217930Y44820D02*
X219430Y43320D01*
Y38410D01*
X218150Y37130D01*
X212860D01*
X212330Y37660D01*
Y40360D01*
X213840Y41870D01*
Y44820D01*
X217930D01*
G37*
G36*
G01X222200Y67000D02*
X228000D01*
X228498Y66502D01*
Y65398D01*
X228302Y65202D01*
X226485D01*
X225098Y63815D01*
Y63498D01*
X224200Y62600D01*
Y57000D01*
X225000Y56200D01*
X225984D01*
X225985Y56198D01*
X228815D01*
X228816Y56200D01*
X229000D01*
X229900Y57100D01*
Y60100D01*
X230300Y60500D01*
X233200D01*
X233800Y59900D01*
Y55600D01*
X233612Y55412D01*
X222908D01*
X221055Y57265D01*
G03X220410Y57532I-645J-646D01*
G01X213900D01*
Y59000D01*
X214100Y59200D01*
X220300D01*
X221300Y60200D01*
Y62668D01*
X221306Y62692D01*
G03X221342Y62970I-1066J279D01*
G03X221306Y63248I-1102J-1D01*
G01X221300Y63272D01*
Y66100D01*
X222200Y67000D01*
G37*
G36*
G01X217700Y79400D02*
X223000D01*
X223800Y78600D01*
Y74000D01*
X223302Y73502D01*
X217515D01*
X216700Y74316D01*
Y78400D01*
X217700Y79400D01*
G37*
G36*
G01X216300Y165200D02*
X225300D01*
X226200Y164300D01*
Y157945D01*
G03Y156409I789J-768D01*
G01Y155400D01*
X225400Y154600D01*
X220459D01*
X215900Y159160D01*
Y164800D01*
X216300Y165200D01*
G37*
G36*
G01X261670Y50149D02*
G02X262353Y49866I283J-283D01*
G01Y42424D01*
G03X262438Y42116I601J0D01*
G02X262094Y41512I-344J-204D01*
G01X262018D01*
G03X261373Y41245I0J-913D01*
G01X260529Y40400D01*
X259803D01*
G02X259416Y40901I0J400D01*
G03X259452Y41181I-1066J279D01*
G03X259182Y41903I-1102J-1D01*
G02Y42428I302J263D01*
G03X259452Y43150I-832J723D01*
G03X258350Y44252I-1102J0D01*
G03X257966Y44183I0J-1103D01*
G02X257485Y44350I-139J375D01*
G03X257476Y44363I-498J-335D01*
G02Y44580I169J108D01*
G03X257572Y44905I-505J326D01*
G01Y46007D01*
G03X257368Y46459I-603J0D01*
G01X257300Y46518D01*
Y48331D01*
X257368Y48390D01*
G03X257452Y48482I-400J449D01*
G01X257746D01*
G03X258391Y48748I1J912D01*
G01X258478Y48836D01*
X259979D01*
G03X260624Y49102I1J912D01*
G01X261670Y50149D01*
G37*
G36*
G01X256900Y37800D02*
Y36100D01*
X255900Y35100D01*
X249800D01*
X248000Y36900D01*
Y37900D01*
X248200Y38100D01*
X256600D01*
X256900Y37800D01*
G37*
G36*
G01X258073Y69642D02*
G03X258350Y69607I276J1067D01*
G03X259075Y69879I0J1102D01*
G02X259738Y69578I263J-301D01*
G01Y61901D01*
G02X259049Y61625I-400J0D01*
G03X258250Y61968I-799J-759D01*
G03X257797Y61871I-1J-1102D01*
G02X257529Y61978I-83J182D01*
G03X257477Y62080I-560J-221D01*
G02Y62296I168J108D01*
G03X257572Y62621I-507J324D01*
G01Y63723D01*
G03X257368Y64175I-603J0D01*
G01X257300Y64234D01*
Y66047D01*
X257368Y66106D01*
G03X257572Y66558I-399J452D01*
G01Y67660D01*
G03X257476Y67985I-601J-1D01*
G02Y68202I169J108D01*
G03X257572Y68527I-505J326D01*
G01Y69255D01*
G02X258073Y69642I400J0D01*
G37*
G36*
G01X257572Y91756D02*
X257947Y92131D01*
G02X258288Y91989I141J-142D01*
G01Y85700D01*
G03X258555Y85055I913J0D01*
G01X259738Y83872D01*
Y80078D01*
G02X259301Y79680I-400J0D01*
G03X259199Y79685I-105J-1097D01*
G03X258097Y78583I0J-1102D01*
G03X258366Y77861I1102J0D01*
G02Y77337I-302J-262D01*
G03X258097Y76615I833J-722D01*
G03X259199Y75513I1102J0D01*
G03X259301Y75518I-3J1102D01*
G02X259738Y75120I37J-398D01*
G01Y73808D01*
G02X259075Y73507I-400J0D01*
G03X258350Y73779I-725J-830D01*
G03X257966Y73710I0J-1103D01*
G02X257485Y73878I-139J375D01*
G03X257477Y73891I-516J-309D01*
G02Y74107I168J108D01*
G03X257572Y74432I-507J324D01*
G01Y75534D01*
G03X257368Y75986I-603J0D01*
G01X257300Y76045D01*
Y77858D01*
X257368Y77917D01*
G03X257572Y78369I-399J452D01*
G01Y79471D01*
G03X257476Y79796I-601J-1D01*
G02Y80013I169J109D01*
G03X257572Y80338I-505J326D01*
G01Y81440D01*
G03X257368Y81892I-603J0D01*
G01X257300Y81951D01*
Y83764D01*
X257368Y83823D01*
G03X257572Y84275I-399J452D01*
G01Y85377D01*
G03X257477Y85702I-602J1D01*
G02Y85918I168J108D01*
G03X257572Y86243I-507J324D01*
G01Y87345D01*
G03X257368Y87797I-603J0D01*
G01X257300Y87856D01*
Y89669D01*
X257368Y89728D01*
G03X257572Y90180I-399J452D01*
G01Y91756D01*
G37*
G36*
G01X248550Y94360D02*
X256450D01*
X256782Y94028D01*
X256797Y93984D01*
G03X256875Y93808I1043J357D01*
G01X256900Y93763D01*
Y92500D01*
X256800Y92400D01*
X248300D01*
X248100Y92600D01*
Y93910D01*
X248550Y94360D01*
G37*
G36*
G01X265249Y100900D02*
X269700D01*
X270400Y100200D01*
Y93817D01*
X270308Y93758D01*
G03X270030Y93251I323J-507D01*
G01Y92149D01*
G03X270126Y91824I601J1D01*
G02Y91607I-169J-109D01*
G03X270030Y91282I505J-326D01*
G01Y90180D01*
G03X270308Y89673I601J0D01*
G01X270400Y89614D01*
Y87911D01*
X270308Y87852D01*
G03X270050Y87500I323J-507D01*
G01X270011Y87352D01*
X269349D01*
G03X268704Y87085I0J-913D01*
G01X267184Y85565D01*
G03X266918Y84920I646J-644D01*
G01Y79689D01*
G03X266457Y78793I640J-896D01*
G03X267559Y77691I1102J0D01*
G03X268321Y77997I0J1102D01*
G02X268597I138J-145D01*
G03X269359Y77691I762J796D01*
G03X270012Y77905I0J1103D01*
G02X270255Y77900I118J-161D01*
G03X270308Y77862I376J469D01*
G01X270400Y77803D01*
Y76100D01*
X270308Y76041D01*
G03X270162Y75910I323J-507D01*
G03X269725Y76001I-438J-1011D01*
G03X268623Y74899I0J-1102D01*
G03X268929Y74137I1102J0D01*
G02Y73861I-145J-138D01*
G03X268623Y73099I796J-762D01*
G03X269725Y71997I1102J0D01*
G03X270162Y72088I-1J1102D01*
G03X270308Y71957I469J376D01*
G01X270400Y71898D01*
Y70195D01*
X270308Y70136D01*
G03X270162Y70005I323J-507D01*
G03X269725Y70095I-436J-1012D01*
G03X268623Y68993I0J-1102D01*
G03X268929Y68231I1102J0D01*
G02Y67955I-145J-138D01*
G03X268623Y67193I796J-762D01*
G03X269725Y66091I1102J0D01*
G03X270162Y66182I-1J1102D01*
G03X270308Y66051I469J376D01*
G01X270400Y65992D01*
Y64289D01*
X270308Y64230D01*
G03X270162Y64099I323J-507D01*
G03X269725Y64190I-438J-1011D01*
G03X268623Y63088I0J-1102D01*
G03X268929Y62326I1102J0D01*
G02Y62050I-145J-138D01*
G03X268623Y61288I796J-762D01*
G03X269725Y60186I1102J0D01*
G03X270162Y60277I-1J1102D01*
G03X270308Y60146I469J376D01*
G01X270400Y60087D01*
Y58384D01*
X270308Y58325D01*
G03X270150Y58178I324J-507D01*
G01X269856D01*
G03X269211Y57912I-1J-912D01*
G01X269123Y57824D01*
X267998D01*
G03X267353Y57557I0J-913D01*
G01X266195Y56399D01*
G03X265928Y55754I646J-645D01*
G01Y42418D01*
X265590Y42079D01*
G02X265249Y42221I-141J142D01*
G01Y60928D01*
G03X264648Y61530I-602J0D01*
G01X262822D01*
Y66822D01*
X264648D01*
G03X265249Y67424I-1J602D01*
G01Y85928D01*
G03X264648Y86530I-602J0D01*
G01X262954D01*
G03X262438Y86237I1J-602D01*
G02X261812Y86159I-343J205D01*
G01X261372Y86600D01*
Y97422D01*
G03X261105Y98067I-913J0D01*
G01X258967Y100205D01*
G03X258322Y100472I-645J-646D01*
G01X257954D01*
G02X257813Y100813I0J200D01*
G01X257900Y100900D01*
X262353D01*
Y90928D01*
G03X262954Y90326I602J0D01*
G01X264648D01*
G03X265249Y90928I-1J602D01*
G01Y100900D01*
G37*
G36*
G01X277700Y37300D02*
X275200Y34800D01*
X269200D01*
X268700Y35300D01*
Y37300D01*
X269500Y38100D01*
X276900D01*
X277700Y37300D01*
G37*
G36*
G01X278800Y108500D02*
X275200D01*
X273600Y110100D01*
Y120200D01*
X274700Y121300D01*
X279300D01*
X280200Y120400D01*
Y109900D01*
X278800Y108500D01*
G37*
G36*
G01X280300Y165500D02*
Y154700D01*
X279400Y153800D01*
X274400D01*
X273500Y154700D01*
Y165500D01*
X274000Y166000D01*
X279800D01*
X280300Y165500D01*
G37*
%LPC*%
G75*
G36*
G01X-51408Y10116D02*
X-48258D01*
G02Y4562I0J-2777D01*
G01X-51408D01*
G02Y10116I0J2777D01*
G37*
G36*
G01X-26323Y13211D02*
G02X-27000Y12978I-678J869D01*
G02X-28102Y14080I0J1102D01*
G02X-27807Y14830I1101J0D01*
G02X-28102Y15580I806J750D01*
G02X-27000Y16682I1102J0D01*
G02X-26323Y16449I-1J-1102D01*
G03X-26077I123J158D01*
G02X-25400Y16682I678J-869D01*
G02X-24298Y15580I0J-1102D01*
G02X-24593Y14830I-1101J0D01*
G02X-24298Y14080I-806J-750D01*
G02X-25400Y12978I-1102J0D01*
G02X-26077Y13211I1J1102D01*
G03X-26323I-123J-158D01*
G37*
G36*
G01X77590Y22672D02*
X77846D01*
X78245Y23072D01*
X91155D01*
X91554Y22672D01*
X91670D01*
G02X92272Y22071I1J-601D01*
G01Y21955D01*
X92702Y21525D01*
Y17812D01*
X94038D01*
G02X95763Y18712I1725J-1203D01*
G02Y14508I0J-2102D01*
G02X94038Y15408I0J2103D01*
G01X92702D01*
Y14185D01*
X91915Y13398D01*
X86135D01*
X82450Y17084D01*
X80976D01*
X80972Y16888D01*
G02X79870Y15808I-1102J22D01*
G02X78840Y16519I0J1102D01*
G01X78824Y16559D01*
X77914Y17470D01*
X77590D01*
G02X76988Y18071I-1J601D01*
G01Y18395D01*
X76968Y18415D01*
Y21795D01*
X76988Y21815D01*
Y22071D01*
G02X77590Y22672I602J-1D01*
G37*
G36*
G01X42578Y19200D02*
Y23200D01*
G02X43140Y23800I601J0D01*
G02X44200Y24602I1060J-299D01*
G02X45217Y23924I0J-1102D01*
G01X45268Y23802D01*
X49080D01*
G02X49682Y23200I0J-602D01*
G01Y19200D01*
G02X49080Y18598I-602J0D01*
G01X43180D01*
G02X42578Y19200I0J602D01*
G37*
G36*
G01X21578Y22800D02*
G03X21158Y23200I-400J1D01*
G02X21100Y23198I-67J1100D01*
G02X22202Y24300I0J1102D01*
G02X22200Y24228I-1102J-5D01*
G03X22599Y23802I399J-26D01*
G01X28080D01*
G02X28682Y23200I0J-602D01*
G01Y19200D01*
G02X28080Y18598I-602J0D01*
G01X22180D01*
G02X21578Y19200I0J602D01*
G01Y22800D01*
G37*
G36*
G01X20504Y36362D02*
G03Y36638I-145J138D01*
G02X20198Y37400I796J762D01*
G02X21300Y38502I1102J0D01*
G02X21977Y38269I-1J-1102D01*
G03X22223I123J158D01*
G02X22900Y38502I678J-869D01*
G02X24002Y37400I0J-1102D01*
G02X23696Y36638I-1102J0D01*
G03Y36362I145J-138D01*
G02X24002Y35600I-796J-762D01*
G02X23754Y34903I-1102J0D01*
G03Y34397I309J-253D01*
G02X24002Y33700I-854J-697D01*
G02X23754Y33003I-1102J0D01*
G03Y32497I309J-253D01*
G02X24002Y31800I-854J-697D01*
G02X22900Y30698I-1102J0D01*
G02X22223Y30931I1J1102D01*
G03X21977I-123J-158D01*
G02X21300Y30698I-678J869D01*
G02X20198Y31800I0J1102D01*
G02X20446Y32497I1102J0D01*
G03Y33003I-309J253D01*
G02X20198Y33700I854J697D01*
G02X20446Y34397I1102J0D01*
G03Y34903I-309J253D01*
G02X20198Y35600I854J697D01*
G02X20504Y36362I1102J0D01*
G37*
G36*
G01X47446Y36197D02*
G03Y36703I-309J253D01*
G02X47198Y37400I854J697D01*
G02X48300Y38502I1102J0D01*
G02X48977Y38269I-1J-1102D01*
G03X49223I123J158D01*
G02X49900Y38502I678J-869D01*
G02X51002Y37400I0J-1102D01*
G02X50754Y36703I-1102J0D01*
G03Y36197I309J-253D01*
G02X51002Y35500I-854J-697D01*
G02X50754Y34803I-1102J0D01*
G03Y34297I309J-253D01*
G02X51002Y33600I-854J-697D01*
G02X50696Y32838I-1102J0D01*
G03Y32562I145J-138D01*
G02X51002Y31800I-796J-762D01*
G02X49900Y30698I-1102J0D01*
G02X49223Y30931I1J1102D01*
G03X48977I-123J-158D01*
G02X48300Y30698I-678J869D01*
G02X47198Y31800I0J1102D01*
G02X47504Y32562I1102J0D01*
G03Y32838I-145J138D01*
G02X47198Y33600I796J762D01*
G02X47446Y34297I1102J0D01*
G03Y34803I-309J253D01*
G02X47198Y35500I854J697D01*
G02X47446Y36197I1102J0D01*
G37*
G36*
G01X77183Y37142D02*
G03X77220Y37692I-271J294D01*
G02X76967Y38394I849J703D01*
G02X78069Y39496I1102J0D01*
G02X78731Y39275I0J-1102D01*
G03X79245Y39303I240J320D01*
G02X80000Y39602I755J-804D01*
G02X81085Y38692I0J-1102D01*
G03X81762Y38478I394J69D01*
G01X81985Y38702D01*
X91715D01*
X92702Y37715D01*
Y35902D01*
X94241D01*
G02X95763Y36554I1522J-1450D01*
G02Y32350I0J-2102D01*
G02X93890Y33498I0J2102D01*
G01X92702D01*
Y32485D01*
X91915Y31698D01*
X79385D01*
X78985Y32098D01*
X77590D01*
G02X76988Y32700I0J602D01*
G01Y36700D01*
G02X77183Y37142I601J-1D01*
G37*
G36*
G01X68128Y46800D02*
G02X68730Y47402I602J0D01*
G01X70730D01*
G02X71332Y46800I0J-602D01*
G01Y44600D01*
G02X70844Y44009I-602J0D01*
G01X70682Y43978D01*
Y43322D01*
X70844Y43291D01*
G02X71332Y42700I-114J-591D01*
G01Y40500D01*
G02X70730Y39898I-602J0D01*
G01X68802D01*
Y32285D01*
X68688Y32172D01*
X68674Y32145D01*
G02X68416Y31887I-534J276D01*
G01X68389Y31873D01*
X66804Y30288D01*
X66882Y30155D01*
G02X67032Y29600I-952J-555D01*
G02X66983Y29274I-1102J-1D01*
G03X67083Y29036I191J-60D01*
G02X67410Y28539I-273J-536D01*
G01X67422Y28352D01*
X68118D01*
X68130Y28539D01*
G02X68730Y29102I600J-38D01*
G01X70730D01*
G02X71332Y28500I0J-602D01*
G01Y26300D01*
G02X70730Y25698I-602J0D01*
G01X68730D01*
G02X68130Y26261I0J601D01*
G01X68118Y26448D01*
X67422D01*
X67410Y26261D01*
G02X66810Y25698I-600J38D01*
G01X65101D01*
G03X64959Y25357I0J-200D01*
G01X65195Y25122D01*
X68195D01*
X68802Y24515D01*
Y13985D01*
X67115Y12298D01*
X60485D01*
X59098Y13685D01*
Y27545D01*
X61075Y29522D01*
X62765D01*
X63222Y29064D01*
X63256Y29049D01*
G02X63559Y28746I-246J-549D01*
G01X63574Y28712D01*
X63628Y28658D01*
G03X64270Y28765I283J283D01*
G02X64586Y29058I540J-265D01*
G03X64835Y29475I-148J371D01*
G02X64828Y29600I1095J124D01*
G02X64919Y30039I1102J0D01*
G03X64552Y30598I-367J159D01*
G01X59885D01*
X59098Y31385D01*
Y36015D01*
X59985Y36902D01*
X62385D01*
X63198Y37715D01*
Y42815D01*
X64085Y43702D01*
X67915D01*
X68398Y43218D01*
X68519Y43263D01*
G02X68616Y43291I215J-562D01*
G01X68778Y43322D01*
Y43978D01*
X68616Y44009D01*
G02X68128Y44600I114J591D01*
G01Y46800D01*
G37*
G36*
G01X78196Y56002D02*
G03X78588Y56479I0J400D01*
G02X78567Y56694I1081J214D01*
G02X80771I1102J0D01*
G02X80689Y56277I-1101J0D01*
G01X80674Y56241D01*
Y56002D01*
X80985D01*
X81985Y57002D01*
X91715D01*
X92702Y56015D01*
Y54202D01*
X94025D01*
G02X95763Y55121I1738J-1184D01*
G02Y50917I0J-2102D01*
G02X94052Y51798I0J2102D01*
G01X92702D01*
Y50785D01*
X91915Y49998D01*
X79385D01*
X78985Y50398D01*
X77590D01*
G02X76988Y51000I0J602D01*
G01Y55000D01*
G02X77521Y55598I602J0D01*
G01X77698Y55618D01*
Y56002D01*
X78196D01*
G37*
G36*
G01X52701Y59383D02*
G03X52932Y59629I37J197D01*
G02X52898Y59900I1068J272D01*
G02X55102I1102J0D01*
G02X54001Y58798I-1102J0D01*
G01X53999D01*
G03X53600Y58372I0J-400D01*
G02X53602Y58300I-1100J-67D01*
G02X52500Y57198I-1102J0D01*
G02X51400Y58228I0J1102D01*
G03X51028Y58600I-399J-27D01*
G02X50928Y58611I70J1100D01*
G03X50698Y58396I-31J-197D01*
G02X50702Y58300I-1098J-94D01*
G02X49600Y59402I-1102J0D01*
G01X49601D01*
G03X50001Y59775I1J400D01*
G02X51100Y60802I1099J-75D01*
G02X52200Y59772I0J-1102D01*
G03X52572Y59400I399J27D01*
G02X52701Y59383I-79J-1099D01*
G37*
G36*
G01X68559Y61577D02*
G03X68690Y61835I-57J191D01*
G02X68628Y62200I1040J364D01*
G02X70832I1102J0D01*
G02X70808Y61969I-1102J-2D01*
G03X71011Y61532I391J-84D01*
G02X71332Y61000I-280J-532D01*
G01Y58800D01*
G02X70730Y58198I-602J0D01*
G01X68802D01*
Y50585D01*
X68688Y50472D01*
X68674Y50445D01*
G02X68416Y50187I-534J276D01*
G01X68389Y50173D01*
X66846Y48630D01*
X66912Y48500D01*
G02X67032Y48000I-982J-500D01*
G02X64828I-1102J0D01*
G02X64890Y48366I1102J2D01*
G03X64513Y48898I-377J132D01*
G01X59885D01*
X59098Y49685D01*
Y54315D01*
X59985Y55202D01*
X62385D01*
X63198Y56015D01*
Y61115D01*
X64085Y62002D01*
X67915D01*
X68398Y61518D01*
X68519Y61563D01*
G02X68559Y61577I219J-560D01*
G37*
G36*
G01X95856Y23915D02*
G02X95668Y24530I914J616D01*
G02X97872I1102J0D01*
G02X97664Y23885I-1102J-1D01*
G03X97885Y23265I324J-234D01*
G02X98702Y22200I-286J-1065D01*
G02X98454Y21504I-1101J0D01*
G02X98802Y20700I-755J-804D01*
G02X97700Y19598I-1102J0D01*
G02X96966Y19878I0J1102D01*
G03X96434I-266J-299D01*
G02X95700Y19598I-734J822D01*
G02X94598Y20700I0J1102D01*
G02X94893Y21450I1101J0D01*
G02X94598Y22200I806J750D01*
G02X95571Y23294I1102J0D01*
G03X95856Y23915I-47J397D01*
G37*
G36*
G01X38192Y25702D02*
X38243Y25826D01*
G02X38800Y26202I558J-226D01*
G01X41000D01*
G02X41602Y25600I0J-602D01*
G01Y23600D01*
G02X41000Y22998I-602J0D01*
G01X38800D01*
G02X38243Y23374I1J602D01*
G01X38192Y23498D01*
X37308D01*
X37257Y23374D01*
G02X37253Y23363I-567J200D01*
G03X37306Y23133I184J-79D01*
G02X37686Y22300I-721J-832D01*
G01Y21785D01*
G02X37364Y21006I-1101J-1D01*
G01X37302Y20944D01*
Y19800D01*
G02X36700Y19198I-602J0D01*
G01X34500D01*
G02X33898Y19800I0J602D01*
G01Y20875D01*
G03X33216Y21158I-400J0D01*
G01X33002Y20944D01*
Y19800D01*
G02X32400Y19198I-602J0D01*
G01X30200D01*
G02X29598Y19800I0J602D01*
G01Y21800D01*
G02X30200Y22402I602J0D01*
G01X31344D01*
X31604Y22661D01*
X31619Y22700D01*
G02X32645Y23402I1026J-399D01*
G02X33704Y22603I0J-1101D01*
G03X34253Y22348I385J110D01*
G02X34500Y22402I249J-548D01*
G01X35477D01*
X35513Y22555D01*
G02X35568Y22722I1070J-260D01*
G01X35583Y22759D01*
Y22998D01*
X34500D01*
G02X33898Y23600I0J602D01*
G01Y25600D01*
G02X34500Y26202I602J0D01*
G01X36700D01*
G02X37257Y25826I-1J-602D01*
G01X37308Y25702D01*
X38192D01*
G37*
G36*
G01X35033Y55096D02*
G02X36867I917J-611D01*
G03X37533I333J222D01*
G02X38450Y55587I917J-611D01*
G02X39552Y54485I0J-1102D01*
G02X39272Y53751I-1102J0D01*
G03Y53219I299J-266D01*
G02Y51751I-822J-734D01*
G03Y51219I299J-266D01*
G02X39421Y51007I-821J-735D01*
G01X39477Y50902D01*
X46115D01*
X46515Y50502D01*
X49080D01*
G02X49682Y49900I0J-602D01*
G01Y45900D01*
G02X49080Y45298I-602J0D01*
G01X43180D01*
G02X42711Y45524I1J602D01*
G01X42651Y45598D01*
X41602D01*
Y44100D01*
G02X41000Y43498I-602J0D01*
G01X38800D01*
G02X38198Y44100I0J602D01*
G01Y45244D01*
X38019Y45424D01*
G03X37429Y45398I-283J-283D01*
G02X37364Y45326I-849J701D01*
G01X37282Y45244D01*
Y44100D01*
G02X36680Y43498I-602J0D01*
G01X34480D01*
G02X33878Y44100I0J602D01*
G01Y44655D01*
G03X33196Y44938I-400J0D01*
G01X33002Y44744D01*
Y44100D01*
G02X32400Y43498I-602J0D01*
G01X30200D01*
G02X29598Y44100I0J602D01*
G01Y45598D01*
X28609D01*
X28549Y45524D01*
G02X28080Y45298I-470J376D01*
G01X22180D01*
G02X21578Y45900I0J602D01*
G01Y49900D01*
G02X22180Y50502I602J0D01*
G01X24745D01*
X25145Y50902D01*
X29923D01*
X29979Y51007D01*
G02X30128Y51219I970J-523D01*
G03Y51751I-299J266D01*
G02X30033Y51874I822J733D01*
G03X29367I-333J-222D01*
G02X28450Y51383I-917J611D01*
G02X27348Y52485I0J1102D01*
G02X27628Y53219I1102J0D01*
G03Y53751I-299J266D01*
G02X27348Y54485I822J734D01*
G02X28450Y55587I1102J0D01*
G02X29367Y55096I0J-1102D01*
G03X30033I333J222D01*
G02X31867I917J-611D01*
G03X32533I333J222D01*
G02X34367I917J-611D01*
G03X35033I333J222D01*
G37*
G36*
G01X25698Y153155D02*
Y155355D01*
G02X26300Y155956I602J-1D01*
G01X28300D01*
G02X28902Y155355I1J-601D01*
G01Y153155D01*
G02X28300Y152554I-602J1D01*
G01X26300D01*
G02X25698Y153155I-1J601D01*
G37*
G36*
G01Y148700D02*
Y150900D01*
G02X26300Y151502I602J0D01*
G01X28300D01*
G02X28902Y150900I0J-602D01*
G01Y148700D01*
G02X28300Y148098I-602J0D01*
G01X26300D01*
G02X25698Y148700I0J602D01*
G37*
G36*
G01X38398Y146730D02*
Y148464D01*
G02X39000Y149066I602J0D01*
G01X41200D01*
G02X41802Y148464I0J-602D01*
G01Y146464D01*
G02X41659Y146075I-601J0D01*
G01X41540Y145935D01*
X44235Y143240D01*
G02X44586Y142390I-851J-849D01*
G01Y140770D01*
G02X43385Y139568I-1201J-1D01*
G02X42567Y139890I1J1202D01*
G03X42060Y139922I-273J-293D01*
G02X41415Y139713I-646J893D01*
G02X40718Y139962I1J1102D01*
G03X40193Y139946I-253J-310D01*
G02X39445Y139653I-748J808D01*
G02X38722Y139923I0J1103D01*
G03X38198I-262J-302D01*
G02X37475Y139653I-723J833D01*
G02X36731Y139942I0J1102D01*
G03X36207Y139955I-269J-295D01*
G02X35505Y139703I-701J850D01*
G02Y141907I0J1102D01*
G02X36249Y141618I0J-1102D01*
G03X36773Y141605I269J295D01*
G02X37475Y141857I701J-850D01*
G02X38198Y141587I0J-1103D01*
G03X38722I262J302D01*
G02X39235Y141837I723J-832D01*
G03X39442Y142512I-76J393D01*
G01X36092Y145862D01*
X34900D01*
G02X34298Y146464I0J602D01*
G01Y148464D01*
G02X34900Y149066I602J0D01*
G01X37100D01*
G02X37702Y148464I0J-602D01*
G01Y146944D01*
X38057Y146589D01*
G03X38398Y146730I141J141D01*
G37*
G36*
G01X38722Y163473D02*
G03X38198I-262J-302D01*
G02X37475Y163203I-723J833D01*
G02Y165407I0J1102D01*
G02X38198Y165137I0J-1103D01*
G03X38722I262J302D01*
G02X39445Y165407I723J-833D01*
G02Y163203I0J-1102D01*
G02X38722Y163473I0J1103D01*
G37*
G36*
G01X44108Y165137D02*
G03X44632I262J302D01*
G02X46078I723J-833D01*
G03X46602I262J302D01*
G02X47325Y165407I723J-833D01*
G02Y163203I0J-1102D01*
G02X46602Y163473I0J1103D01*
G03X46078I-262J-302D01*
G02X44632I-723J833D01*
G03X44108I-262J-302D01*
G02X43385Y163203I-723J833D01*
G02Y165407I0J1102D01*
G02X44108Y165137I0J-1103D01*
G37*
G36*
G01X68499Y128335D02*
G02X69600Y129402I1101J-35D01*
G02Y127198I0J-1102D01*
G02X69307Y127238I1J1102D01*
G03X68801Y126865I-106J-386D01*
G02X67700Y125798I-1101J35D01*
G02Y128002I0J1102D01*
G02X67993Y127962I-1J-1102D01*
G03X68499Y128335I106J386D01*
G37*
G36*
G01X28300Y160436D02*
G02X28718Y160267I0J-601D01*
G03X29315Y160313I278J287D01*
G02X30195Y160752I880J-663D01*
G02X31297Y159650I0J-1102D01*
G02X31020Y158919I-1103J0D01*
G03X31014Y158394I299J-266D01*
G02X31277Y157680I-838J-714D01*
G02X30175Y156578I-1102J0D01*
G02X29257Y157071I0J1101D01*
G03X28674Y157163I-334J-221D01*
G02X28300Y157032I-375J471D01*
G01X26300D01*
G02X25698Y157634I0J602D01*
G01Y159834D01*
G02X26300Y160436I602J0D01*
G01X28300D01*
G37*
G36*
G01X220208Y88113D02*
G03X219932I-138J-145D01*
G02X219170Y87807I-762J796D01*
G02Y90011I0J1102D01*
G02X219932Y89705I0J-1102D01*
G03X220208I138J145D01*
G02X220970Y90011I762J-796D01*
G02Y87807I0J-1102D01*
G02X220208Y88113I0J1102D01*
G37*
G36*
G01X206368Y104240D02*
G02X206970Y104842I602J0D01*
G01X210970D01*
G02X211572Y104240I0J-602D01*
G01Y103088D01*
X213858Y100802D01*
X216915D01*
X217902Y99815D01*
Y97907D01*
G03X218507Y97565I400J1D01*
G02X219075Y97722I567J-945D01*
G02Y95518I0J-1102D01*
G02X218507Y95675I-1J1102D01*
G03X217902Y95333I-205J-343D01*
G01Y90285D01*
X217015Y89398D01*
X212085D01*
X211298Y90185D01*
Y99962D01*
X210122Y101138D01*
X206970D01*
G02X206368Y101740I0J602D01*
G01Y104240D01*
G37*
G54D83*
X-24421Y18176D03*
X-7300Y19196D03*
X-37183Y25598D03*
Y22881D03*
X-25000Y22880D03*
Y25580D03*
X65800Y128700D03*
X52140Y140840D03*
X50200Y132731D03*
X47325Y140675D03*
X30415Y151770D03*
X69512Y151107D03*
X33200Y164300D03*
X54600Y157680D03*
Y153740D03*
X58955Y158255D03*
X61652Y160455D03*
X70053Y156902D03*
X180000Y127646D03*
Y130512D03*
%LPD*%
G75*
G36*
G01X25560Y49900D02*
X30016D01*
G03X30840Y49389I933J585D01*
G02X31200Y48991I-40J-398D01*
G01Y46940D01*
X30962Y46702D01*
X30200D01*
G03X29907Y46625I1J-602D01*
G01X29862Y46600D01*
X25360D01*
X25160Y46800D01*
Y49500D01*
X25560Y49900D01*
G37*
G36*
G01X40400D02*
X45700D01*
X46100Y49500D01*
Y46800D01*
X45900Y46600D01*
X41338D01*
X41293Y46625D01*
G03X41000Y46702I-294J-525D01*
G01X40298D01*
X40000Y47000D01*
Y49500D01*
X40400Y49900D01*
G37*
G36*
G01X63070Y25830D02*
X64780Y24120D01*
X67780D01*
X67800Y24100D01*
Y14400D01*
X66700Y13300D01*
X60900D01*
X60100Y14100D01*
Y27130D01*
X61490Y28520D01*
X62350D01*
X63070Y27800D01*
Y25830D01*
G37*
G36*
G01X64200Y42400D02*
X64500Y42700D01*
X67500D01*
X67800Y42400D01*
Y32700D01*
X66700Y31600D01*
X60300D01*
X60100Y31800D01*
Y35600D01*
X60400Y35900D01*
X62800D01*
X64200Y37300D01*
Y42400D01*
G37*
G36*
G01Y60700D02*
X64500Y61000D01*
X67500D01*
X67800Y60700D01*
Y51000D01*
X66700Y49900D01*
X60300D01*
X60100Y50100D01*
Y53900D01*
X60400Y54200D01*
X62800D01*
X64200Y55600D01*
Y60700D01*
G37*
G36*
G01X91500Y14400D02*
X86550D01*
X82865Y18085D01*
X78715D01*
X77970Y18830D01*
Y21380D01*
X78660Y22070D01*
X90740D01*
X91700Y21110D01*
Y14600D01*
X91500Y14400D01*
G37*
G36*
G01X78700Y33800D02*
Y36700D01*
X81400D01*
X82400Y37700D01*
X91300D01*
X91700Y37300D01*
Y32900D01*
X91500Y32700D01*
X79800D01*
X78700Y33800D01*
G37*
G36*
G01Y52100D02*
Y55000D01*
X81400D01*
X82400Y56000D01*
X91300D01*
X91700Y55600D01*
Y51200D01*
X91500Y51000D01*
X79800D01*
X78700Y52100D01*
G37*
G36*
G01X216500Y99800D02*
X216900Y99400D01*
Y90700D01*
X216600Y90400D01*
X212500D01*
X212300Y90600D01*
Y91400D01*
X214800D01*
X214900Y91500D01*
Y92300D01*
X214800Y92400D01*
X212300D01*
Y93400D01*
X214700D01*
X214900Y93600D01*
Y94200D01*
X214700Y94400D01*
X212300D01*
Y99500D01*
X212600Y99800D01*
X216500D01*
G37*
G54D10*
X-49833Y7339D03*
Y41197D03*
X-33297Y7339D03*
Y41197D03*
G54D20*
X-35463Y12890D03*
Y35646D03*
G54D11*
X-52100Y2800D03*
X-55400Y13700D03*
X-52400Y17503D03*
Y19396D03*
Y21403D03*
Y29707D03*
Y31600D03*
Y33607D03*
X-55500Y45200D03*
X-55400Y53700D03*
Y63700D03*
Y73700D03*
Y93700D03*
Y83700D03*
Y103700D03*
Y113700D03*
Y123700D03*
Y133700D03*
X-48500Y-1500D03*
X-46000Y2700D03*
X-38690Y67630D03*
Y65630D03*
Y63630D03*
X-49170Y74420D03*
X-39170D03*
X-44600Y145900D03*
X-40600Y149500D03*
X-44600D03*
Y153100D03*
X-40600Y145900D03*
Y153100D03*
X-44600Y160300D03*
Y163900D03*
X-40600Y160300D03*
Y163900D03*
Y156700D03*
X-44600D03*
Y171100D03*
X-40600D03*
Y167500D03*
X-44600D03*
X-40600Y174700D03*
X-44600D03*
X-40600Y178300D03*
X-44600Y181900D03*
X-40600Y185500D03*
X-44600Y178300D03*
Y185500D03*
X-40600Y181900D03*
X-31700Y-7000D03*
X-35700Y-6100D03*
X-32500Y-3648D03*
X-29400Y-2060D03*
X-37500Y1400D03*
X-35600D03*
X-29400D03*
X-35700Y21580D03*
X-27000Y22380D03*
X-37600Y16287D03*
Y18287D03*
Y20287D03*
X-35600Y17180D03*
Y19280D03*
X-34400Y16180D03*
Y18280D03*
X-34500Y20480D03*
X-29400Y11687D03*
X-32500D03*
X-30935Y11670D03*
X-27000Y14080D03*
Y15580D03*
X-35700Y26880D03*
X-26900Y26480D03*
X-37600Y28587D03*
Y30480D03*
Y32487D03*
X-35700Y31480D03*
Y29480D03*
X-34300Y32380D03*
X-34400Y30380D03*
Y28180D03*
X-27000Y33648D03*
X-37183Y25598D03*
Y22881D03*
X-30935Y37063D03*
X-32500Y37080D03*
X-29400D03*
X-27000Y35148D03*
X-32300Y48830D03*
Y50830D03*
Y52830D03*
X-38300Y48830D03*
Y50830D03*
Y52830D03*
X-36300Y48830D03*
Y50830D03*
Y52830D03*
X-34300D03*
Y50830D03*
Y48830D03*
X-36690Y67630D03*
Y65630D03*
Y63630D03*
X-34690D03*
Y65630D03*
Y67630D03*
X-32690D03*
Y65630D03*
Y63630D03*
X-29170Y74420D03*
X-33700Y96990D03*
X-26700D03*
X-33700Y114990D03*
X-26700D03*
Y106990D03*
X-33700D03*
X-35718Y151132D03*
X-30074Y148100D03*
X-33628Y143932D03*
X-35718Y158332D03*
X-29250Y162550D03*
X-35718Y172732D03*
Y165532D03*
Y179932D03*
X-38400Y189000D03*
X-31000Y196000D03*
X-29000D03*
X-20290Y-5100D03*
X-17900Y-10700D03*
X-25600Y-6300D03*
X-19200Y4700D03*
X-20290Y2310D03*
X-16380Y5940D03*
X-24890Y-390D03*
X-20621Y22243D03*
X-16570Y18378D03*
Y19878D03*
X-14970Y18378D03*
Y19878D03*
X-25400Y14080D03*
Y15580D03*
X-24421Y18176D03*
X-20621Y26293D03*
X-24421Y30450D03*
X-25400Y33648D03*
X-23800D03*
X-22200D03*
X-25000Y22880D03*
Y25580D03*
X-25400Y35148D03*
X-23800D03*
X-22200D03*
X-25610Y41630D03*
X-15149Y66029D03*
X-15820Y61330D03*
X-15991Y59690D03*
X-19170Y74420D03*
X-23016Y92590D03*
X-21139Y96649D03*
X-20857Y104767D03*
X-20634Y116944D03*
X-23016Y108826D03*
X-16800Y147410D03*
X-15100D03*
X-18432Y161932D03*
X-21878Y154962D03*
X-20400Y163900D03*
X-17500Y169078D03*
X-17537Y176303D03*
X-25500Y176200D03*
X-17532Y183499D03*
X-15700Y180550D03*
X-17200Y195800D03*
X-15200D03*
X-16000Y191400D03*
X-7500Y-10700D03*
X-4730Y22600D03*
X-11770Y18378D03*
X-13370D03*
X-11770Y19878D03*
X-13370D03*
X-7300Y19196D03*
X-6760Y24060D03*
X-3700Y28100D03*
Y26200D03*
X-3391Y54170D03*
X-7897Y58351D03*
X-11120Y65840D03*
X-9550Y65850D03*
X-8000Y65840D03*
X-14420Y58980D03*
X-7700Y93490D03*
Y99990D03*
Y104990D03*
X-12162Y100708D03*
X-6700Y113490D03*
Y116990D03*
X-12180Y116944D03*
Y112885D03*
X-11393Y121003D03*
X-6100Y145500D03*
X-12000Y153350D03*
X-11980Y145900D03*
X-14100Y158800D03*
X-12100Y164300D03*
Y160300D03*
Y156700D03*
X-14100Y176300D03*
X-12100Y174700D03*
Y171100D03*
Y167500D03*
Y181900D03*
Y178300D03*
X800Y-10700D03*
X920Y12220D03*
X-1800Y11500D03*
X4980Y13520D03*
X2187Y31470D03*
X8904Y31500D03*
X-962D03*
X-2580Y24620D03*
X6720Y33750D03*
X5220D03*
X8900Y35600D03*
X6720Y35250D03*
Y36750D03*
Y38250D03*
X5220Y35250D03*
Y36750D03*
Y38250D03*
X1503Y50490D03*
X8460Y51130D03*
X7445Y49935D03*
X-980Y50490D03*
X1380Y60700D03*
Y62200D03*
Y63700D03*
Y65200D03*
X-120Y60700D03*
Y62200D03*
Y63700D03*
Y65200D03*
X7090Y67521D03*
X8200Y72610D03*
X1850Y72060D03*
Y70400D03*
X8200Y71180D03*
X3300Y136200D03*
Y132990D03*
X3508Y145808D03*
X-1500Y143600D03*
X8508Y145808D03*
X-1492Y160308D03*
X3508Y154400D03*
X-1200Y157300D03*
X-1492Y154278D03*
X8508Y160308D03*
X930Y168010D03*
X8500Y166800D03*
X3508Y166792D03*
X-1500Y166900D03*
X-1410Y174700D03*
X9800Y-10700D03*
X19800D03*
X9040Y11440D03*
X13100Y19109D03*
X9500Y27400D03*
Y23300D03*
X12100Y40620D03*
X15600Y35600D03*
X10080Y44750D03*
X10230Y52950D03*
X10300Y80200D03*
X17860Y81760D03*
X19400Y77360D03*
X11120Y70990D03*
X12620D03*
X14120D03*
X11120Y72490D03*
X12620D03*
X14120D03*
X15620Y70990D03*
Y72490D03*
X17890Y86230D03*
X17860Y83260D03*
X17890Y84730D03*
X16300Y126990D03*
X10300Y136200D03*
X16300D03*
Y131200D03*
X20300Y133700D03*
X18900Y131900D03*
X13500Y144500D03*
X16300Y142200D03*
X20010Y151510D03*
X11276Y148940D03*
X19934Y158734D03*
X20300Y163200D03*
X18300Y161200D03*
Y157200D03*
X20000Y154255D03*
X13508Y160308D03*
X18300Y171200D03*
X13500Y166900D03*
X16900Y200800D03*
X29800Y-10700D03*
X27400Y22400D03*
X25900D03*
X24400D03*
X32645Y22300D03*
X22900Y26500D03*
Y29500D03*
Y28000D03*
X31200Y29100D03*
Y34400D03*
X21100Y24300D03*
X22900Y33700D03*
Y31800D03*
X21300Y33700D03*
Y31800D03*
X22900Y42700D03*
Y39700D03*
Y41200D03*
X31200Y38500D03*
X22900Y35600D03*
Y37400D03*
X21300Y35600D03*
Y37400D03*
X23600Y56890D03*
X25600D03*
X27470Y47300D03*
X29000D03*
X30500D03*
X30950Y50485D03*
Y52485D03*
Y54485D03*
X28450D03*
Y52485D03*
X32645Y48334D03*
X25600Y58790D03*
X23600D03*
X30950Y64265D03*
Y66265D03*
X32130Y68265D03*
X28450Y64265D03*
Y66265D03*
X29630Y68265D03*
X27700Y80700D03*
X28710Y94023D03*
X28460Y85500D03*
X29860D03*
X32047Y90731D03*
X28710Y104823D03*
X32047Y103329D03*
Y95455D03*
X32500Y110600D03*
X29800Y111400D03*
Y112900D03*
X32047Y108053D03*
X29734Y140934D03*
X32734D03*
Y138434D03*
X27934Y132634D03*
X21700Y135400D03*
X23200Y136800D03*
X30415Y151770D03*
X27500Y149800D03*
Y158734D03*
X30195Y159650D03*
X27500Y154300D03*
X30175Y157680D03*
X22300Y171200D03*
X26300D03*
X30300D03*
X26900Y200800D03*
X39800Y-10700D03*
X44200Y22000D03*
Y20500D03*
X36585Y22300D03*
X35900Y34300D03*
X40300Y34200D03*
Y29000D03*
X35900Y29100D03*
X44200Y23500D03*
X35900Y38500D03*
X40300D03*
X40700Y47300D03*
X42200D03*
X43730D03*
X33450Y54485D03*
X35950D03*
Y50485D03*
Y52485D03*
X33450D03*
Y50485D03*
X38450Y54485D03*
Y52485D03*
Y50485D03*
X34615Y47250D03*
X38555D03*
X36585D03*
X34630Y68265D03*
X37130D03*
X35950Y64265D03*
Y66265D03*
X33450D03*
Y64265D03*
X39630Y68265D03*
X38450Y66265D03*
Y64265D03*
X35217Y70416D03*
X37900Y80400D03*
X43222Y78422D03*
X41279Y93800D03*
X39700Y84500D03*
X33000Y89100D03*
X41279Y105800D03*
Y101800D03*
Y97800D03*
X33929Y110603D03*
X39052Y112884D03*
X40900Y122700D03*
X44000D03*
X44500Y119700D03*
X40300Y120400D03*
X36100Y138800D03*
X40800Y138900D03*
X40734Y136434D03*
X41415Y140815D03*
X35505Y140805D03*
X39445Y140755D03*
X43385Y140770D03*
X37475Y140755D03*
X42734Y150934D03*
Y148934D03*
X39734Y150934D03*
X36734D03*
X42734Y157934D03*
X39445Y164305D03*
X43385D03*
X33200Y164300D03*
X37475Y164305D03*
X37394Y172500D03*
X34300Y171200D03*
X41331Y172500D03*
X43300D03*
X39363D03*
X37394Y170531D03*
X39363D03*
X41331D03*
X43300D03*
X36900Y200800D03*
X49800Y-10700D03*
X53100Y22000D03*
Y18500D03*
Y15000D03*
X49600D03*
X46100D03*
Y12000D03*
X49600D03*
X48300Y28000D03*
Y29500D03*
Y26500D03*
X53100Y32500D03*
Y29000D03*
Y25500D03*
X48300Y33600D03*
Y31800D03*
X49900D03*
Y33600D03*
X48300Y42700D03*
Y39700D03*
Y41200D03*
X53100Y43000D03*
Y39500D03*
Y36000D03*
X48300Y35500D03*
Y37400D03*
X49900Y35500D03*
Y37400D03*
X45400Y56900D03*
X47400D03*
X53010Y47510D03*
Y49510D03*
X52500Y58300D03*
X49600D03*
X47400Y58800D03*
X45400D03*
X51100Y59700D03*
X54000Y59900D03*
X47400Y81084D03*
X49584Y77284D03*
X56100Y81084D03*
X51900D03*
X45279Y93800D03*
X49279D03*
X53279D03*
X51651Y86049D03*
X53279Y97800D03*
Y101800D03*
X49279D03*
Y97800D03*
X45279D03*
Y101800D03*
Y105800D03*
X49279D03*
X55953Y112086D03*
X55600Y115400D03*
X47299Y122800D03*
X51279D03*
X53200D03*
X55800D03*
X47989Y120900D03*
X50589D03*
X53189D03*
X55789D03*
X54000Y129900D03*
X55500D03*
X52140Y140840D03*
X50200Y132731D03*
X47325Y140675D03*
X45234Y150934D03*
Y148934D03*
X45334Y157934D03*
X47834D03*
X54600Y157680D03*
Y153740D03*
X47325Y164305D03*
X45355D03*
X50255Y172500D03*
X53410Y170531D03*
X55379D03*
Y172500D03*
X46900Y200800D03*
X59800Y-10700D03*
X63500Y16900D03*
Y15500D03*
X62100Y16900D03*
X60700D03*
X63500Y33800D03*
X65930Y29600D03*
X63500Y35200D03*
X62100D03*
X60700D03*
X63500Y53500D03*
X62100D03*
X60700D03*
X63500Y52100D03*
X65930Y48000D03*
X68300Y63700D03*
X65300D03*
X60631Y93480D03*
X61500Y84300D03*
X60600Y90400D03*
X60625Y95343D03*
X60100Y99400D03*
X61500D03*
X59670Y97030D03*
X56900Y113800D03*
X60800Y117610D03*
X63184Y109484D03*
X59500Y110900D03*
X59600Y119000D03*
X58800Y123600D03*
Y122200D03*
Y120800D03*
X67700Y126900D03*
X65800Y128700D03*
X57000Y129900D03*
X63800Y159200D03*
X63790Y154110D03*
X58955Y158255D03*
X61652Y160455D03*
X66271Y172500D03*
X57347D03*
X59316D03*
X57347Y170531D03*
X59316D03*
X56900Y200800D03*
X66900D03*
X69800Y-10700D03*
X79800D03*
X69600Y15000D03*
Y18200D03*
X73800Y15000D03*
X71700D03*
Y18200D03*
X73861Y18250D03*
X79870Y16910D03*
X69600Y33300D03*
X71700D03*
X73800D03*
Y23100D03*
X69200Y30300D03*
X71700D03*
X74200D03*
X69730Y27400D03*
X73861Y36550D03*
X73800Y41400D03*
X71700Y36500D03*
X69600D03*
X80000Y38500D03*
X69730Y45700D03*
X78069Y38394D03*
X69600Y51600D03*
Y54800D03*
X73800Y51600D03*
X71700D03*
Y54800D03*
X73861Y54850D03*
X69200Y48800D03*
X71700D03*
X74200D03*
X79669Y56694D03*
X73800Y59700D03*
X71300Y63700D03*
X69730Y62200D03*
X77500Y83700D03*
Y85700D03*
X72900Y92700D03*
X70300Y84400D03*
Y85900D03*
Y87400D03*
X71400Y100100D03*
Y98600D03*
X72800Y100100D03*
Y98500D03*
X78350Y99450D03*
X72400Y103329D03*
X76700Y107300D03*
X78200Y107400D03*
X73650Y113724D03*
X78545Y109270D03*
X76745D03*
X75084Y126716D03*
X71600Y118000D03*
X69600Y128300D03*
X72000Y126900D03*
X73684Y128600D03*
X78000Y126800D03*
X79500Y128500D03*
X70000Y148900D03*
X71500D03*
X73000D03*
X69512Y151107D03*
X77700Y149000D03*
X70053Y156902D03*
X73363Y172500D03*
X78100Y169631D03*
X75332Y172500D03*
X69426Y170531D03*
X71395D03*
X73363D03*
X75332D03*
X71395Y172500D03*
X76900Y200800D03*
X89800Y-10700D03*
X82800Y9900D03*
X90600Y17000D03*
Y15300D03*
X88900D03*
X87200D03*
X88900Y17000D03*
X87200D03*
Y18700D03*
X88900D03*
X90600D03*
X90300Y26200D03*
Y28200D03*
Y30200D03*
X87200Y33600D03*
X88900D03*
X90600D03*
X90300Y44200D03*
Y46200D03*
X88900Y37000D03*
X87200Y35300D03*
X88900D03*
X90600D03*
Y37000D03*
X87200D03*
X90300Y48200D03*
X88900Y55300D03*
X87200Y53600D03*
X88900D03*
X87200Y51900D03*
X88900D03*
X90600D03*
Y53600D03*
Y55300D03*
X87200D03*
X91218Y66918D03*
X88418Y69718D03*
X89818Y68318D03*
X81400Y75800D03*
X82800Y74600D03*
X84200Y73400D03*
X87000Y71000D03*
X85600Y72200D03*
Y93076D03*
Y84668D03*
Y87768D03*
Y86168D03*
Y89368D03*
Y101300D03*
Y102800D03*
Y104400D03*
Y96176D03*
Y94576D03*
Y97776D03*
X91070Y123931D03*
X82500Y128500D03*
X80900Y126700D03*
X90950Y131653D03*
X90000Y130000D03*
X91900D03*
X86700Y130203D03*
X91300Y137403D03*
X82300Y150200D03*
X85670Y153590D03*
X82500Y154000D03*
X81050Y153950D03*
X82287Y172500D03*
Y170630D03*
X89379Y172500D03*
X91348D03*
X85442Y170531D03*
X89379D03*
X87411Y172500D03*
Y170531D03*
X91348D03*
X86900Y200800D03*
X99800Y-10700D03*
X101300Y10200D03*
Y14200D03*
X96660Y13160D03*
X95700Y20700D03*
X97700D03*
X97600Y22200D03*
X95700D03*
X96770Y24530D03*
X93010Y59510D03*
Y61510D03*
Y63510D03*
X100390Y60390D03*
X103574Y88225D03*
X92900Y89300D03*
Y87700D03*
Y86100D03*
Y84500D03*
Y92900D03*
Y101000D03*
Y102400D03*
Y103800D03*
X103524Y103734D03*
X92900Y97800D03*
Y96300D03*
Y94700D03*
X103524Y97433D03*
Y94284D03*
X97750Y112400D03*
X95950D03*
X98000Y123800D03*
X93000Y124390D03*
X96700Y120775D03*
X103524Y119200D03*
X95796Y124290D03*
X95806Y122338D03*
X94750Y131850D03*
X98600Y132050D03*
X94550Y137600D03*
X97602Y130200D03*
X95700Y130050D03*
X93800Y130203D03*
X94600Y141603D03*
X103100Y136804D03*
X92800Y138703D03*
X96200Y140103D03*
X97400Y144700D03*
X101800Y144787D03*
X94800Y144678D03*
X103500Y157500D03*
Y156000D03*
X94150Y153700D03*
X96170Y153631D03*
X96087Y177900D03*
X96900Y200800D03*
X109800Y-10700D03*
X111300Y10200D03*
X106300D03*
X111400Y17470D03*
X106300Y14200D03*
X111300D03*
X113600Y17470D03*
X106188Y26298D03*
X113865Y23149D03*
Y32006D03*
X111306Y28856D03*
X108747Y26298D03*
X106188Y29448D03*
X108747Y32598D03*
X111306Y32006D03*
X108747Y23149D03*
Y29448D03*
X111306Y23149D03*
X113865Y26298D03*
X111306Y44604D03*
Y35156D03*
X108747Y44604D03*
X113865D03*
Y35156D03*
X111306Y57203D03*
X113865Y54053D03*
Y47754D03*
X106188Y50904D03*
X111306D03*
X113865Y57203D03*
X106188Y47754D03*
X108747Y50904D03*
Y47754D03*
X111306D03*
Y54053D03*
X108747D03*
X112973Y91136D03*
X112972Y87985D03*
X109822Y87986D03*
X109823Y91134D03*
Y100585D03*
X112973Y103734D03*
X106674Y97433D03*
X109823D03*
X112973Y94285D03*
X106674Y94284D03*
X109823D03*
X109583Y110272D03*
X112973Y106884D03*
X109823Y116333D03*
X106606Y119750D03*
X109752Y122702D03*
X109987Y125929D03*
X106450Y122592D03*
X112973Y128929D03*
X109823D03*
X112962Y122641D03*
X106780Y125830D03*
X109823Y135229D03*
X112973D03*
X109823Y132079D03*
X112972Y132080D03*
X112973Y138378D03*
X112972Y141529D03*
X109823Y138378D03*
Y141528D03*
X106673Y144678D03*
X109823Y144677D03*
X112973Y147827D03*
Y144677D03*
X109822Y150978D03*
X112973Y150977D03*
X109823Y147827D03*
X106700Y150526D03*
X105066Y157590D03*
X115900Y161150D03*
X111600Y157578D03*
Y159500D03*
X106900Y200800D03*
X119800Y-10700D03*
X126300Y10200D03*
X121300D03*
X116300D03*
X121542Y19999D03*
X126660D03*
X116740Y17470D03*
X116300Y14200D03*
X121300D03*
X126300D03*
X118983Y19999D03*
X124101D03*
X121542Y32598D03*
X116424D03*
X121542Y26298D03*
X126660D03*
X121542Y29448D03*
Y23149D03*
X124101Y29448D03*
X126660D03*
X118983Y32598D03*
Y26298D03*
X124101Y32598D03*
X116424Y23149D03*
X118983D03*
Y29448D03*
X116424D03*
Y26298D03*
X124101Y23149D03*
X126660D03*
X116424Y44604D03*
X121542D03*
X126660D03*
X118983D03*
X124101D03*
X116424Y57203D03*
X121542D03*
X126660D03*
Y48346D03*
X124100Y50904D03*
X118983Y57203D03*
X121542Y47754D03*
X124101Y57203D03*
X121541Y50904D03*
X116424Y47754D03*
X118983D03*
X121541Y54053D03*
X116424D03*
X116423Y50904D03*
X118982D03*
X124101Y47754D03*
X126659Y50904D03*
X124101Y54053D03*
X126660D03*
X122420Y87986D03*
X125571D03*
X125570Y91134D03*
X116123Y91136D03*
X122420D03*
X116123Y87986D03*
X119272Y103734D03*
X122422Y97433D03*
Y94284D03*
X116123Y103734D03*
Y97435D03*
X125571Y94284D03*
Y97433D03*
X122422Y100583D03*
X116123Y94285D03*
X125571Y100583D03*
X119272Y94285D03*
Y97435D03*
X125570Y103733D03*
X119272Y100585D03*
X116123Y113183D03*
X122422Y116333D03*
X119272D03*
X125571D03*
X122422Y110033D03*
X125571Y113183D03*
Y110033D03*
X116123Y106884D03*
X119272D03*
Y110033D03*
X116123D03*
X116126Y122627D03*
X119272Y125780D03*
X116123D03*
X119009Y122848D03*
X125571Y119482D03*
Y128929D03*
X122422Y119482D03*
Y128929D03*
X119272D03*
X116123D03*
X125571Y125780D03*
X122422D03*
X125571Y132079D03*
X119296Y138404D03*
X116123Y132079D03*
X122422D03*
X119272D03*
Y135229D03*
X122422Y138378D03*
Y135229D03*
X116123Y141528D03*
Y138378D03*
X125571Y135229D03*
Y138378D03*
Y141528D03*
X119272D03*
X122422D03*
X116123Y135229D03*
X125571Y150977D03*
X116123Y147827D03*
Y144677D03*
X122422D03*
X119272Y147827D03*
X122422D03*
X125571D03*
X116123Y150977D03*
X119272D03*
X125571Y144677D03*
X119272D03*
X122422Y150977D03*
X124000Y163600D03*
X123900Y161800D03*
X119272Y154126D03*
X119200Y160276D03*
X116123Y157276D03*
X119272D03*
X125571Y154126D03*
Y157276D03*
X122400Y160300D03*
X126000Y161800D03*
X116123Y154126D03*
X127700Y165500D03*
X125900D03*
X124000D03*
X125839Y183500D03*
X125800Y185600D03*
X116900Y200800D03*
X126900D03*
X125000Y193650D03*
X129800Y-10700D03*
X139800D03*
X139456Y19999D03*
X136897D03*
X129219D03*
Y23149D03*
Y29448D03*
X136897Y32006D03*
Y23149D03*
X139456Y28856D03*
Y32006D03*
X129219Y26298D03*
X136897Y28856D03*
X139456Y23149D03*
X136897Y45196D03*
X129218D03*
X139456D03*
X129219Y54053D03*
X139455D03*
X129219Y47754D03*
Y50904D03*
Y57203D03*
X139455Y50904D03*
Y57203D03*
X138168Y87986D03*
X128721Y91136D03*
X135019Y87986D03*
X128720Y87985D03*
X138168Y91136D03*
X135019D03*
Y97435D03*
Y94285D03*
X138168Y103734D03*
X128719Y103733D03*
X138168Y100585D03*
X128721Y94285D03*
X135019Y100585D03*
Y103734D03*
X128720Y97434D03*
X138168Y94285D03*
Y97435D03*
X131869Y103734D03*
Y100585D03*
X128720Y113182D03*
X131871Y116333D03*
X131869Y106884D03*
X138168Y116331D03*
X135019D03*
Y106884D03*
X128721Y116333D03*
X131869Y113181D03*
X128719Y110032D03*
X138168Y113181D03*
Y106884D03*
X128719Y106882D03*
X135019Y113181D03*
X135020Y128929D03*
Y119482D03*
X128721D03*
X131871Y125780D03*
X128721Y128929D03*
X135020Y125780D03*
X138168Y119481D03*
X131871Y128929D03*
X128721Y125780D03*
X131871Y119482D03*
X138100Y125700D03*
X138200Y122600D03*
X131871Y132079D03*
X128721Y141528D03*
X131871Y138378D03*
X128721Y135229D03*
X135020D03*
X131871D03*
X128720Y132080D03*
X135020Y132079D03*
Y138378D03*
X128721D03*
X131871Y147827D03*
X138000Y147800D03*
X128721Y147827D03*
Y144677D03*
X138170Y150977D03*
X135020Y147827D03*
Y150977D03*
X128721D03*
X131871D03*
X135020Y154126D03*
X130295Y157050D03*
X138170Y154126D03*
X133445Y165400D03*
X136594Y164100D03*
X136900Y200800D03*
X149800Y-10700D03*
X144574Y19999D03*
X149692D03*
X147133D03*
X142300Y17500D03*
X144574Y28856D03*
Y32006D03*
Y23149D03*
X142015Y32006D03*
X147133Y28856D03*
Y32006D03*
X149692D03*
X149691Y25707D03*
X149692Y23149D03*
X142015D03*
X149692Y35156D03*
X144574D03*
X147132Y42046D03*
X142014Y44604D03*
X142015Y35156D03*
X147133D03*
X144573Y42046D03*
X149691D03*
Y45196D03*
X144573D03*
X142014Y50904D03*
Y57203D03*
X147132Y50904D03*
Y57203D03*
Y54053D03*
X149691Y57203D03*
X144574Y47754D03*
X144573Y57203D03*
X149691Y50904D03*
Y54053D03*
X144573Y50904D03*
Y54053D03*
X142014D03*
X147617Y91136D03*
X147800Y88000D03*
X150767Y91136D03*
X144467Y100585D03*
X141318Y94285D03*
X150751Y97451D03*
X144467Y103734D03*
X147617D03*
X150767D03*
X141318Y100585D03*
Y97435D03*
X150767Y94285D03*
X147618Y97434D03*
X147617Y94285D03*
X150767Y100585D03*
X147617D03*
X141318Y103734D03*
X144467Y97435D03*
X144392Y94121D03*
X150767Y113183D03*
X147617Y116333D03*
X141318D03*
X144467Y113183D03*
X147618Y113182D03*
X141318Y113183D03*
X144467Y110033D03*
X147617Y106884D03*
X144467Y116333D03*
X150767D03*
X144467Y106884D03*
X150767D03*
X147617Y110033D03*
X141318D03*
X150767D03*
X141318Y106884D03*
X144467Y119482D03*
X150767D03*
X147617Y125780D03*
X150767Y128929D03*
X141318Y125780D03*
X144467Y128929D03*
X141318Y119482D03*
X147617D03*
X144467Y125780D03*
X147617Y128929D03*
X141318D03*
X150767Y125780D03*
X141318Y132079D03*
X147618Y132080D03*
X150767Y132079D03*
X144467D03*
X147617Y135229D03*
Y141528D03*
X141318Y144677D03*
X150767Y147827D03*
X144467Y150977D03*
X147618Y147828D03*
X150767Y150977D03*
X147617D03*
Y144677D03*
X150767D03*
X146043Y157043D03*
X146250Y159300D03*
X146900Y200800D03*
X144800Y193650D03*
X159800Y-10700D03*
X154810Y19999D03*
X160450Y16650D03*
Y18710D03*
X158320Y18820D03*
X158300Y16700D03*
X152251Y19999D03*
Y32006D03*
X162486Y28856D03*
X152251Y23149D03*
X157368Y28856D03*
X159927D03*
X162486Y32006D03*
X157369Y23149D03*
X154810D03*
X157368Y32006D03*
X159927D03*
X154809Y28856D03*
X152250D03*
X157368Y35156D03*
X162486D03*
X152250Y42046D03*
X157368D03*
X162486D03*
X154809Y45196D03*
X152251Y35156D03*
X159927D03*
X154809Y42046D03*
X159927D03*
X162682Y44860D03*
X160040Y44830D03*
X157803Y44768D03*
X152493Y44953D03*
X162486Y50904D03*
X152250Y57203D03*
X154809Y54053D03*
X157368Y57203D03*
Y50904D03*
X159927D03*
X154809Y57203D03*
X157368Y54053D03*
X152250D03*
X159927D03*
X154809Y50904D03*
X152250D03*
X163201Y91300D03*
X153916Y87986D03*
X160215Y91136D03*
X161351Y86850D03*
X157066Y91136D03*
Y87986D03*
X153916Y91136D03*
Y103734D03*
X157066Y94285D03*
X160215Y100585D03*
X163465Y94225D03*
X160215Y94285D03*
X163366Y97434D03*
X160215Y103734D03*
X163365D03*
X153916Y94285D03*
X157066Y97435D03*
X153916D03*
X163365Y100585D03*
X160215Y97435D03*
X157066Y100585D03*
Y103734D03*
X153916Y100585D03*
X160215Y106884D03*
X163365D03*
X160215Y110033D03*
X157066Y113183D03*
X160215Y116333D03*
X153916D03*
Y113183D03*
X157066Y116333D03*
X163365Y110033D03*
Y116333D03*
X157066Y110033D03*
X160215Y113183D03*
X163366Y113182D03*
X157066Y106884D03*
X153916D03*
Y110033D03*
X163365Y119482D03*
X157066D03*
X160215Y125780D03*
X153916D03*
X157066Y128929D03*
X153916Y119482D03*
X157066Y125780D03*
X153916Y128929D03*
X163365Y125780D03*
X160215Y119482D03*
Y128929D03*
X163365D03*
X160215Y138378D03*
Y141528D03*
X163365D03*
X153916Y132079D03*
Y138378D03*
X163365D03*
X153916Y135229D03*
X157066Y132079D03*
X160215D03*
X157066Y141528D03*
X153916D03*
X160215Y135229D03*
X163365D03*
X163366Y132080D03*
X160215Y150977D03*
X163365Y144677D03*
X157066D03*
Y150977D03*
X160215Y147827D03*
Y144677D03*
X163365Y147827D03*
X153916Y154126D03*
X161791Y157590D03*
X163264Y157577D03*
X152300Y157800D03*
X155600D03*
X155400Y172700D03*
X156900Y200800D03*
X169800Y-10700D03*
X175000Y5450D03*
X172950Y34250D03*
X164940Y26420D03*
X172950Y35700D03*
Y37150D03*
X172300Y87900D03*
X166615Y91076D03*
X169764Y87926D03*
X166465Y97485D03*
X172641Y95859D03*
X174300Y103600D03*
X166470Y100530D03*
X166515Y106884D03*
X172814Y110033D03*
X166515Y113183D03*
X172814Y116333D03*
X166515D03*
Y110033D03*
X169664D03*
Y116333D03*
X166515Y119482D03*
Y128929D03*
X172480Y124206D03*
X166515Y125780D03*
X169180Y123800D03*
X172815Y132080D03*
X166515Y135229D03*
X172814Y138378D03*
X166515Y141528D03*
Y138378D03*
X169664Y132079D03*
Y138378D03*
X166515Y132079D03*
Y144677D03*
X169664D03*
X172814D03*
X169664Y150977D03*
X166764D03*
X172746Y159954D03*
Y158454D03*
X166864Y159277D03*
X168364D03*
X169864D03*
X174400Y172853D03*
X166900Y200800D03*
X165200Y194100D03*
X179800Y-10700D03*
X185175Y19360D03*
X176200Y33300D03*
Y31700D03*
X183600Y26000D03*
X181100Y28600D03*
X183600D03*
X185900D03*
X181100Y26050D03*
X178500Y30350D03*
X176200Y34900D03*
X176320Y41320D03*
X184460D03*
X180390D03*
X186502Y56960D03*
X178202Y60860D03*
X182102D03*
X178202Y68960D03*
X182302D03*
X176400Y66800D03*
Y65100D03*
Y63300D03*
X184175Y59000D03*
X176125D03*
X180150D03*
X185702Y73060D03*
X180225Y70700D03*
X176200D03*
X184250D03*
X184300Y86000D03*
X186700D03*
X179900Y91650D03*
X182200Y91700D03*
X175700Y99000D03*
X175600Y95900D03*
X178500D03*
X179900Y103300D03*
X181300Y101900D03*
X180100Y97400D03*
X180156Y94806D03*
X182200Y94500D03*
X186234Y96734D03*
X180200Y125700D03*
X180000Y127646D03*
Y132700D03*
Y130512D03*
X176900Y200800D03*
X186900D03*
X189800Y-10700D03*
X188700Y31700D03*
X193800Y31000D03*
X191275Y28575D03*
X199000Y31230D03*
X193000Y34900D03*
X188530Y41320D03*
X196100Y41400D03*
X192600Y41320D03*
X188200Y59000D03*
X188275Y70700D03*
X196000Y86970D03*
Y85170D03*
X188600Y94870D03*
X193100Y112500D03*
Y113900D03*
X194500Y112500D03*
X194590Y113914D03*
X189700Y117300D03*
X199200Y115000D03*
X195985Y121345D03*
X195970Y119760D03*
X195942Y118218D03*
X194700Y128500D03*
Y127000D03*
X193300D03*
Y128500D03*
X195300Y138200D03*
X188400Y144830D03*
X195037Y172354D03*
X199300Y176400D03*
X197006Y170385D03*
X195037D03*
X193069D03*
X191100D03*
X193069Y172354D03*
Y174323D03*
X195037D03*
X197006D03*
X191269D03*
X195700Y185000D03*
X196900Y200800D03*
X199800Y-10700D03*
X209800D03*
X205880Y15370D03*
X206690Y21780D03*
X208030Y33010D03*
X208480Y28300D03*
Y26800D03*
X208030Y31610D03*
X208480Y24900D03*
X199400Y23100D03*
X199800Y34500D03*
X200600Y27800D03*
X200783Y56687D03*
X208700Y69300D03*
X206480Y63580D03*
X208510Y66300D03*
X206480Y59290D03*
X208200Y73800D03*
X200500Y75400D03*
X200485Y71900D03*
X200500Y73600D03*
X210605Y89300D03*
X205205D03*
X207005D03*
X208805D03*
X201340Y96620D03*
X202834D03*
X199846D03*
X201870Y109790D03*
X200280Y119870D03*
X200234Y118185D03*
X208700Y127500D03*
X210100Y139400D03*
X203086Y154700D03*
X201408Y153708D03*
X201300Y156000D03*
X199946Y168854D03*
X201446D03*
X207637Y172354D03*
X209606Y176014D03*
X207637Y170385D03*
X205669D03*
X210100Y167830D03*
X201300Y176354D03*
X203700Y170385D03*
X207637Y174323D03*
X205669Y172354D03*
X203700Y174323D03*
X209606Y170385D03*
X206900Y200800D03*
X219800Y-10700D03*
X216232Y15370D03*
X214840Y20860D03*
X214978Y28898D03*
X213578Y28870D03*
X216378D03*
X222850Y44940D03*
X220960Y45200D03*
X213098Y38170D03*
X214598Y39870D03*
Y38270D03*
X213130Y39870D03*
X216098D03*
Y38270D03*
X221100Y48230D03*
X219100Y48200D03*
X212900Y69300D03*
X216500Y69500D03*
X222200D03*
X218246Y66300D03*
X215310Y62660D03*
X223100Y63236D03*
X211300Y63200D03*
X212135Y66335D03*
X220240Y62970D03*
X215975Y66175D03*
X218400Y68200D03*
X215700Y73800D03*
X213200D03*
X222000D03*
X218246D03*
X217440Y87860D03*
X222690Y88090D03*
X220970Y88909D03*
X219170D03*
X221090Y96620D03*
X222690D03*
X213340D03*
X214795D03*
X216340D03*
X219075D03*
X219308Y106653D03*
X221070Y106720D03*
X219070Y110880D03*
X220730Y110930D03*
X214600Y109390D03*
X213319Y109440D03*
X211600Y118440D03*
X211756Y128800D03*
X213700Y136789D03*
X219740Y134018D03*
X221500Y134000D03*
X214300Y151000D03*
X222800Y157349D03*
X220930Y157340D03*
X216810Y166710D03*
X214000Y176300D03*
X211500Y166610D03*
X213080Y167570D03*
X211700Y176300D03*
X216900Y200800D03*
X229800Y-10700D03*
X224980Y8469D03*
X227240Y45510D03*
X229160D03*
X224760Y44510D03*
X231000Y56800D03*
X233000D03*
X225400Y46700D03*
X227271Y47471D03*
X229071D03*
X226600Y59700D03*
X229300Y63400D03*
X230900Y63900D03*
X232500Y67200D03*
Y69200D03*
X230500Y67200D03*
Y69200D03*
X228195Y65205D03*
X233000Y58800D03*
X229514Y60541D03*
X231000Y58800D03*
X232500Y71700D03*
Y73700D03*
X230500Y71700D03*
Y73700D03*
Y75700D03*
X232200Y116700D03*
Y115200D03*
X232300Y112860D03*
X223800Y110500D03*
X232200Y125400D03*
Y123800D03*
Y122200D03*
Y120600D03*
X227504Y128786D03*
X225535D03*
X223566Y136489D03*
X232000Y146400D03*
X230600Y147800D03*
X229200Y149300D03*
X224551Y157349D03*
X230660Y156510D03*
X228790Y157177D03*
X234309Y157258D03*
X232509D03*
X226990Y157177D03*
X234800Y153610D03*
X233400Y155010D03*
X230160Y172197D03*
X232820D03*
X226900Y200800D03*
X245000Y-9100D03*
Y45300D03*
Y43405D03*
Y51300D03*
Y49500D03*
X245400Y64500D03*
Y60000D03*
X241100Y71100D03*
X241300Y76900D03*
X241127Y74899D03*
X241125Y73000D03*
X245750Y88150D03*
X245100Y101590D03*
X245000Y116000D03*
Y113700D03*
Y111600D03*
X240430Y111200D03*
X240530Y106759D03*
X238630Y109730D03*
Y107930D03*
X245000Y118400D03*
X240400Y139400D03*
X237600Y140800D03*
X241600Y150700D03*
X241400Y147900D03*
X239000Y152210D03*
X236200Y150810D03*
X241800Y142200D03*
X243200Y145000D03*
X244600Y143600D03*
X242267Y157900D03*
X236362Y158114D03*
X236400Y156300D03*
X239000Y156260D03*
X241330Y156210D03*
X246204Y158196D03*
X243700Y156400D03*
X241700Y175670D03*
X236100Y176410D03*
X243800Y199300D03*
X252300Y-5500D03*
X257500Y-2300D03*
X252700Y-100D03*
X250033Y23197D03*
X251521Y27534D03*
X258100Y45118D03*
X258350Y43150D03*
Y41181D03*
X255018Y35982D03*
X252118D03*
X256418D03*
X253618D03*
X246999Y45281D03*
X247038Y43405D03*
X258100Y56929D03*
X255541Y53647D03*
X258250Y52992D03*
Y54961D03*
X247100Y65100D03*
X258100Y62835D03*
Y68740D03*
X253200Y64990D03*
X258250Y58898D03*
Y60866D03*
X247127Y68993D03*
Y67193D03*
Y63087D03*
Y61287D03*
X247200Y71000D03*
X247300Y77100D03*
X258100Y74646D03*
Y80551D03*
X247127Y80804D03*
Y79004D03*
X258350Y72677D03*
Y70709D03*
X247100Y82800D03*
X247211Y84826D03*
X247127Y86709D03*
X253130Y93670D03*
X254530Y93620D03*
X255930D03*
X257840Y94340D03*
X252600Y110400D03*
X255200Y110500D03*
Y107800D03*
X252600Y107700D03*
X247000Y110200D03*
X251755Y121355D03*
X252513Y125087D03*
X249300Y141200D03*
X253950Y141190D03*
X253094Y136294D03*
X251126Y136274D03*
X249157Y136257D03*
X247700Y138900D03*
X254150Y151690D03*
X249500Y151700D03*
X249300Y148200D03*
X253950Y148190D03*
Y145190D03*
X249300Y145200D03*
X254078Y158114D03*
X248173D03*
X249500Y154700D03*
X254150Y154690D03*
X247500Y176700D03*
X249000Y168700D03*
X252500D03*
X247500Y179200D03*
X252700Y189100D03*
X252100Y195600D03*
X262300Y1100D03*
X263800Y30600D03*
Y28700D03*
X269500Y25600D03*
X268000D03*
X266900Y24400D03*
X269700Y41600D03*
X269725Y45371D03*
Y43571D03*
X270200Y35900D03*
Y37300D03*
X269700Y53200D03*
Y47400D03*
X269636Y49476D03*
X269635Y51276D03*
X268350Y64478D03*
X268400Y59900D03*
X270000Y65200D03*
X266790Y65890D03*
X269725Y63088D03*
Y61288D03*
Y68993D03*
Y67193D03*
X270000Y71000D03*
X267510Y76830D03*
X269480Y76850D03*
X267860Y70940D03*
X267559Y78793D03*
X269725Y74899D03*
Y73099D03*
X269359Y78793D03*
X259199Y78583D03*
Y76615D03*
X268440Y102740D03*
X260776Y102824D03*
X265494Y117000D03*
X267700Y115600D03*
X266540Y109740D03*
X259610Y109870D03*
X262755Y121355D03*
X269500Y127800D03*
Y129300D03*
X262287Y125087D03*
X260300Y141200D03*
X264500Y151700D03*
X260500D03*
X260300Y148200D03*
X264300D03*
Y145200D03*
X260300D03*
X268300Y148200D03*
X259984Y158114D03*
X260500Y154700D03*
X264500D03*
Y157700D03*
X269400Y170700D03*
X261500Y189200D03*
X274700Y30500D03*
X277000Y30400D03*
Y28300D03*
X274700D03*
X272100Y35900D03*
Y37300D03*
X278580Y77020D03*
X278535Y79004D03*
Y80804D03*
X279470Y82550D03*
X277500Y99150D03*
X272700Y96400D03*
X275600Y96200D03*
X274100Y97800D03*
X277400Y120300D03*
X279100D03*
Y118500D03*
X277400D03*
X279300Y127200D03*
X271100Y127800D03*
Y129300D03*
X279300Y140200D03*
Y136200D03*
Y131200D03*
X272300Y148200D03*
X279300D03*
Y144200D03*
X275500Y158300D03*
X278000D03*
Y155900D03*
X275500Y156000D03*
X271600Y177700D03*
G54D30*
X-3524Y172952D03*
X-7460D03*
G54D12*
X-50550Y18176D03*
Y30380D03*
X-39450Y18176D03*
Y30380D03*
G54D21*
X-26140Y47090D03*
Y63090D03*
X-17030Y20050D03*
Y36050D03*
G54D22*
X-25000Y84290D03*
Y129290D03*
G54D13*
X-42500Y-4500D03*
X-12500Y-8496D03*
Y-504D03*
G54D40*
X14053Y53978D03*
G54D31*
X-1240Y15330D03*
X13720Y76510D03*
X40000Y12970D03*
X47963Y65250D03*
X77481Y144200D03*
X95763Y16610D03*
Y34452D03*
X100463Y41450D03*
X95763Y53019D03*
X150763Y147650D03*
X186600Y100350D03*
Y106281D03*
X177770D03*
X223200Y13689D03*
G54D32*
X-270Y27179D03*
Y24620D03*
Y29738D03*
X5636D03*
Y24620D03*
Y27179D03*
G54D41*
X25130Y21200D03*
Y28200D03*
Y40900D03*
Y47900D03*
X30453Y57844D03*
Y64844D03*
X46130Y21200D03*
Y28200D03*
Y40900D03*
Y47900D03*
X39507Y57844D03*
Y64844D03*
X80540Y20071D03*
Y27071D03*
Y34700D03*
Y41700D03*
Y53000D03*
Y60000D03*
X88720Y20071D03*
Y34700D03*
Y27071D03*
Y41700D03*
Y53000D03*
Y60000D03*
X177770Y113540D03*
Y120540D03*
X177870Y136072D03*
Y143072D03*
X200385Y67200D03*
Y74200D03*
X191390Y113814D03*
Y120814D03*
G54D50*
X108700Y42180D03*
Y44380D03*
X109800Y100740D03*
Y102940D03*
X125620Y133200D03*
Y135400D03*
X137140Y23370D03*
Y25570D03*
X129370Y23850D03*
Y26050D03*
X139420Y54610D03*
Y56810D03*
X138220Y117010D03*
Y119210D03*
X147653Y117096D03*
X147610Y126260D03*
Y128460D03*
X147653Y119296D03*
X141340Y117590D03*
Y119790D03*
X141330Y126280D03*
Y128480D03*
X147650Y132580D03*
Y134780D03*
X159940Y26540D03*
Y28740D03*
X159920Y48630D03*
Y50830D03*
X153970Y117018D03*
X160180Y126400D03*
Y128600D03*
X157020Y128810D03*
X153970Y119218D03*
X157020Y131010D03*
X152340Y149800D03*
Y152000D03*
G54D23*
X-33628Y143932D03*
Y147868D03*
X-35718Y151132D03*
Y155068D03*
Y158332D03*
Y162268D03*
Y172732D03*
Y176668D03*
Y165532D03*
Y169468D03*
Y179932D03*
Y183868D03*
X-19818Y154962D03*
Y158898D03*
Y161932D03*
Y169132D03*
Y173068D03*
Y176332D03*
Y165868D03*
Y180268D03*
Y183532D03*
Y187468D03*
G54D14*
X-43400Y51973D03*
G54D24*
X-12992Y75786D03*
G54D33*
X5962Y55473D03*
X844D03*
X3403D03*
Y61379D03*
X844D03*
X5962D03*
G54D42*
X35239Y87984D03*
X40839D03*
X56969Y102600D03*
X51369D03*
X54639Y126200D03*
X63739Y112500D03*
X60239Y126200D03*
X69339Y112500D03*
X128860Y160100D03*
X134460D03*
X162300Y154050D03*
X156700D03*
X187365Y126880D03*
X197980Y18860D03*
X192965Y126880D03*
X203580Y18860D03*
X218000Y77450D03*
X212400D03*
G54D15*
X-43400Y65753D03*
G54D60*
X207905Y91900D03*
G54D51*
X123387Y50284D03*
X121831Y48728D03*
X161939Y133645D03*
X160383Y132089D03*
G54D43*
X66130Y21190D03*
X66140Y35371D03*
Y53671D03*
X73130Y21190D03*
X73140Y35371D03*
Y53671D03*
X168500Y150331D03*
X175500D03*
X168500Y158460D03*
X175500D03*
X186665Y133790D03*
X193665D03*
G54D34*
X-1492Y140668D03*
G54D61*
X202196Y92884D03*
Y90916D03*
Y88947D03*
Y94853D03*
X213614Y88947D03*
Y90916D03*
Y92884D03*
Y94853D03*
G54D70*
X254054Y109454D03*
G54D16*
X-40984Y80688D03*
Y90688D03*
Y122892D03*
Y132892D03*
X0Y84290D03*
Y94290D03*
X10000Y89290D03*
X0Y104290D03*
X10000Y99290D03*
X0Y114290D03*
X10000Y109290D03*
Y119290D03*
X0Y124290D03*
X10000Y129290D03*
X268843Y141546D03*
G54D52*
X119839Y174530D03*
X129839D03*
X139839D03*
X149839D03*
X159839D03*
G54D25*
X-12992Y137794D03*
G54D80*
G01X122422Y128929D02*
X121270D01*
X119899Y130300D01*
X118500D01*
X117962Y129762D01*
Y128105D01*
X117476Y127619D01*
X116109D01*
X110962Y122472D01*
Y121400D01*
X95800Y106238D01*
Y84118D01*
X99418Y80500D01*
X187319D01*
X190800Y77019D01*
Y55927D01*
X195647Y51080D01*
X203553D01*
X204803Y52330D01*
X218758D01*
X220748Y50340D01*
X240378D01*
X241640Y49078D01*
Y34178D01*
X245218Y30600D01*
X259500D01*
X261700Y32800D01*
Y38500D01*
X262540Y39340D01*
X265922D01*
X268100Y41518D01*
Y55232D01*
X268520Y55652D01*
X269501D01*
X269855Y55298D01*
X275100D01*
G01X125571Y116333D02*
X124739Y117165D01*
Y118461D01*
X124027Y119173D01*
Y120842D01*
X122869Y122000D01*
X121038D01*
X117941Y118903D01*
X117403D01*
X112760Y114260D01*
X108360D01*
X98800Y104700D01*
Y88718D01*
X104318Y83200D01*
X188800D01*
X193700Y78300D01*
Y57700D01*
X197480Y53920D01*
X202302D01*
X203742Y55360D01*
X219888D01*
X222008Y53240D01*
X241640D01*
X244052Y55652D01*
X246903D01*
X247257Y55298D01*
X252502D01*
G01X122422Y119482D02*
X122767Y119827D01*
Y120320D01*
X122347Y120740D01*
X121560D01*
X118463Y117643D01*
X117925D01*
X113282Y113000D01*
X108882D01*
X106976Y111094D01*
Y110500D01*
X107841Y109635D01*
Y109041D01*
X107247Y108447D01*
X106653D01*
X105788Y109312D01*
X105194D01*
X104600Y108718D01*
Y108124D01*
X105465Y107259D01*
Y106665D01*
X104871Y106071D01*
X104277D01*
X103412Y106936D01*
X102818D01*
X100060Y104178D01*
Y102558D01*
X100480Y102138D01*
X101280D01*
X101700Y101718D01*
Y100878D01*
X101280Y100458D01*
X100480D01*
X100060Y100038D01*
Y89240D01*
X104840Y84460D01*
X189322D01*
X194960Y78822D01*
Y58222D01*
X198002Y55180D01*
X201780D01*
X203220Y56620D01*
X220410D01*
X222530Y54500D01*
X241118D01*
X243530Y56912D01*
X246903D01*
X247258Y57267D01*
X252502D01*
G01X119272Y128929D02*
X119222Y128879D01*
Y127583D01*
X117433Y125794D01*
Y125237D01*
X116666Y124470D01*
X115230D01*
X114172Y123412D01*
Y122139D01*
X112566Y120533D01*
X111877D01*
X97060Y105716D01*
Y84640D01*
X99940Y81760D01*
X187841D01*
X192060Y77541D01*
Y56449D01*
X196169Y52340D01*
X203031D01*
X204281Y53590D01*
X219280D01*
X221270Y51600D01*
X240900D01*
X242900Y49600D01*
Y34700D01*
X245740Y31860D01*
X247360D01*
X247780Y32280D01*
Y33280D01*
X248200Y33700D01*
X249040D01*
X249460Y33280D01*
Y32280D01*
X249880Y31860D01*
X250720D01*
X251140Y32280D01*
Y33280D01*
X251560Y33700D01*
X252400D01*
X252820Y33280D01*
Y32280D01*
X253240Y31860D01*
X254080D01*
X254500Y32280D01*
Y33280D01*
X254920Y33700D01*
X255760D01*
X256180Y33280D01*
Y32280D01*
X256600Y31860D01*
X258978D01*
X260440Y33322D01*
Y39022D01*
X262018Y40600D01*
X265400D01*
X266840Y42040D01*
Y55754D01*
X267998Y56912D01*
X269501D01*
X269856Y57267D01*
X275100D01*
G01X228790Y157177D02*
X228520Y157447D01*
Y164697D01*
X228940Y165117D01*
X229730D01*
X230150Y165537D01*
Y166377D01*
X229730Y166797D01*
X228940D01*
X228520Y167217D01*
Y168057D01*
X228940Y168477D01*
X229730D01*
X230150Y168897D01*
Y169737D01*
X229730Y170157D01*
X228940D01*
X228520Y170577D01*
Y174110D01*
X228940Y174530D01*
X230440D01*
X230860Y174110D01*
Y172897D01*
X230160Y172197D01*
G01X226990Y157177D02*
X227260Y157447D01*
Y174632D01*
X228418Y175790D01*
X230962D01*
X232120Y174632D01*
Y172897D01*
X232820Y172197D01*
G01X252502Y74983D02*
X248383D01*
X248029Y74629D01*
X241397D01*
X241127Y74899D01*
G01X252502Y73015D02*
X248385D01*
X248031Y73369D01*
X241496D01*
X241127Y73000D01*
X241125D01*
G01X252502Y51361D02*
X257746D01*
X258100Y51007D01*
X259457D01*
X260650Y52200D01*
Y84250D01*
X259200Y85700D01*
Y96900D01*
X257800Y98300D01*
X252118D01*
X250508Y99910D01*
X249914D01*
X248724Y98720D01*
X248130D01*
X247536Y99314D01*
Y99908D01*
X248726Y101098D01*
Y101692D01*
X242218Y108200D01*
X238900D01*
X238630Y107930D01*
G01Y109730D02*
X238900Y109460D01*
X242740D01*
X252640Y99560D01*
X258322D01*
X260460Y97422D01*
Y86222D01*
X261910Y84772D01*
Y51678D01*
X259979Y49747D01*
X258100D01*
X257746Y49393D01*
X252502D01*
G01Y45456D02*
X252327Y45281D01*
X246999D01*
G01X252502Y43487D02*
X252420Y43405D01*
X247038D01*
G01X252502Y69078D02*
X252417Y68993D01*
X247127D01*
G01X252502Y67109D02*
X252418Y67193D01*
X247127D01*
G01X252502Y63172D02*
X252417Y63087D01*
X247127D01*
G01X252502Y61204D02*
X252419Y61287D01*
X247127D01*
G01X252502Y80889D02*
X252417Y80804D01*
X247127D01*
G01X252502Y78920D02*
X252418Y79004D01*
X247127D01*
G01X252502Y84826D02*
X247211D01*
G01X247127Y86709D02*
X252417D01*
X252502Y86794D01*
G01X275100Y45456D02*
X275015Y45371D01*
X269725D01*
G01X275100Y43487D02*
X275016Y43571D01*
X269725D01*
G01X275100Y49393D02*
X275017Y49476D01*
X269636D01*
G01X275100Y51361D02*
X275015Y51276D01*
X269635D01*
G01X275100Y63172D02*
X275016Y63088D01*
X269725D01*
G01X275100Y61204D02*
X275016Y61288D01*
X269725D01*
G01X275100Y69078D02*
X275015Y68993D01*
X269725D01*
G01X275100Y67109D02*
X275016Y67193D01*
X269725D01*
G01X267559Y78793D02*
X267829Y79063D01*
Y84920D01*
X269349Y86440D01*
X274746D01*
X275100Y86794D01*
G01Y74983D02*
X275099D01*
X275015Y74899D01*
X269725D01*
G01X275100Y73015D02*
X275016Y73099D01*
X269725D01*
G01X275100Y84826D02*
X274746Y85180D01*
X269871D01*
X269089Y84398D01*
Y79063D01*
X269359Y78793D01*
G01X275100Y78920D02*
X278451D01*
X278535Y79004D01*
G01X275100Y80889D02*
X278450D01*
X278535Y80804D01*
G54D62*
X211241Y148668D03*
G54D26*
X0Y0D03*
X-10Y189980D03*
X260000Y12500D03*
Y177500D03*
G54D44*
X91905Y151203D03*
Y156803D03*
X172300Y90500D03*
Y96100D03*
X184600Y113660D03*
Y119260D03*
X198300Y115600D03*
Y121200D03*
X232030Y58980D03*
Y64580D03*
G54D17*
X-38510Y145900D03*
X-40600Y153100D03*
Y160300D03*
Y174700D03*
Y167500D03*
Y181900D03*
X-24700Y156930D03*
Y163900D03*
Y171100D03*
Y178300D03*
Y185500D03*
G54D53*
X169839Y174530D03*
G54D71*
X263801Y32424D03*
Y95928D03*
G54D35*
X3508Y155678D03*
G54D81*
G01X32645Y22300D02*
Y22145D01*
X31300Y20800D01*
G01X34615Y47250D02*
X33950D01*
X31800Y45100D01*
X31300D01*
G01X35600Y20800D02*
X36585Y21785D01*
Y22300D01*
G01X35600Y24600D02*
X39900D01*
G01X38555Y47250D02*
Y46445D01*
X39900Y45100D01*
G01X35580D02*
X36585Y46105D01*
Y47250D01*
G01X120850Y92150D02*
Y95861D01*
X122422Y97433D01*
G01X161939Y133645D02*
X161992Y133592D01*
X165292D01*
X165300Y133600D01*
X165900D01*
X166515Y134215D01*
Y135229D01*
G01X185175Y19360D02*
Y21291D01*
G01X192922Y23405D02*
X190902Y25425D01*
X189309D01*
G01Y27000D02*
X193692D01*
X194122Y27430D01*
G01X195553Y166740D02*
X200346Y171533D01*
Y172047D01*
G01X225000Y141050D02*
X208850D01*
X206900Y143000D01*
G01Y158746D02*
Y160100D01*
X207900Y161100D01*
X213200D01*
X214000Y160300D01*
Y159502D01*
X225800Y147700D01*
Y141800D01*
G01X223600Y127700D02*
X221692Y125792D01*
G01D02*
X218661D01*
G01X225800Y140250D02*
Y135300D01*
X224954Y134454D01*
X219892D01*
G01D02*
X218661D01*
G01X225800Y125900D02*
X225400D01*
G01D02*
X223600Y127700D01*
G01X225800Y140250D02*
X225000Y141050D01*
G01D02*
X225750Y141800D01*
X225800D01*
G01D02*
Y140250D01*
G54D54*
X180450Y21291D03*
X182025D03*
X183600D03*
X185175D03*
X186750D03*
Y32709D03*
X185175D03*
X183600D03*
X182025D03*
X180450D03*
G54D63*
X206359Y150636D03*
Y146700D03*
G54D45*
X86870Y150853D03*
Y157153D03*
G54D27*
X-5506Y35289D03*
X2172D03*
X-387D03*
X-2947D03*
G54D18*
X-48400Y153100D03*
X-44600D03*
X-48400Y145900D03*
X-44600D03*
X-48400Y149500D03*
X-44600D03*
X-48400Y160300D03*
X-44600D03*
X-48400Y156700D03*
X-44600D03*
X-48400Y163900D03*
X-44600D03*
X-48400Y167500D03*
X-44600D03*
X-48400Y171100D03*
X-44600D03*
X-48400Y174700D03*
X-44600D03*
X-48400Y181900D03*
X-44600D03*
X-48400Y185500D03*
X-44600D03*
X-48400Y178300D03*
X-44600D03*
X-29570Y145900D03*
X-27850Y153100D03*
X-31650D03*
X-27850Y160300D03*
X-31650D03*
X-27850Y167500D03*
X-31650D03*
X-27850Y174700D03*
X-31650D03*
X-27850Y181900D03*
X-31650D03*
X-15820Y61330D03*
X-18380Y92590D03*
Y96649D03*
Y104767D03*
Y100708D03*
Y108826D03*
Y116944D03*
Y112885D03*
Y121003D03*
X-25770Y145900D03*
X-15900Y156700D03*
Y164300D03*
Y171100D03*
Y178300D03*
X-16000Y191400D03*
X-19800D03*
X-3840Y55831D03*
X-7640D03*
Y50490D03*
X-3840D03*
X-12020Y61330D03*
X-7640D03*
X-3840D03*
X-14580Y92590D03*
Y96649D03*
Y104767D03*
Y100708D03*
Y108826D03*
Y116944D03*
Y112885D03*
Y121003D03*
X-12100Y156700D03*
Y164300D03*
X-3592Y176700D03*
X-7392D03*
X-12100Y171100D03*
Y178300D03*
X4583Y20550D03*
X783D03*
X5303Y50490D03*
X1503D03*
X5650Y68470D03*
X1850D03*
X9620D03*
X13420D03*
X23500Y149800D03*
X27300D03*
X23500Y158734D03*
X27300D03*
X23500Y154255D03*
X27300D03*
X30050Y168231D03*
X38422Y93200D03*
X34622D03*
X38422Y97355D03*
X34622D03*
X38422Y101529D03*
X34622D03*
X38422Y105837D03*
X34622D03*
X42089Y168231D03*
X38289D03*
X33850D03*
X54039Y89550D03*
Y93616D03*
Y85484D03*
X49400D03*
X45600D03*
X54100Y97700D03*
X48289Y116071D03*
X52089D03*
X48183Y111971D03*
X51983D03*
X48183Y107837D03*
X51983D03*
X56000Y107584D03*
X54545Y164000D03*
X46355Y168231D03*
X50155D03*
X54545D03*
X62010Y27400D03*
X65810D03*
X65930Y45700D03*
Y41600D03*
Y59900D03*
X57839Y89550D03*
Y93616D03*
X67539Y89550D03*
X63739D03*
X67539Y85484D03*
X63739D03*
X57839D03*
X67539Y93616D03*
X63739D03*
X67539Y103350D03*
X63739D03*
X67539Y99216D03*
X63739D03*
X57900Y97700D03*
X67539Y107584D03*
X63739D03*
X59800D03*
X58345Y164000D03*
X62500Y168231D03*
X66300D03*
X58345D03*
X73530Y27400D03*
X69730D03*
Y45700D03*
Y41600D03*
Y59900D03*
X78487Y164000D03*
X70513D03*
X74313D03*
X78487Y168231D03*
X74313D03*
X70513D03*
X82287Y164000D03*
X90305D03*
X86505D03*
X82287Y168231D03*
X86505D03*
X90305D03*
X103100Y57180D03*
X102390Y168231D03*
X98590D03*
X106900Y57180D03*
X137400Y141393D03*
X133600D03*
X137400Y145501D03*
X133600D03*
X139523Y160100D03*
X143323D03*
X184000Y148100D03*
X194285Y89700D03*
X198085D03*
Y94100D03*
X194285D03*
X198085Y98300D03*
X194285D03*
X198100Y126680D03*
X187800Y148100D03*
X191753Y162600D03*
X195553D03*
X191753Y166740D03*
X195553D03*
X205770Y98300D03*
X201970D03*
X209655D03*
X207100Y114800D03*
X210900D03*
X201900Y126680D03*
X210956Y118100D03*
X207156D03*
X206900Y143000D03*
X210700D03*
Y154400D03*
X206900D03*
Y158746D03*
X210700D03*
X223070Y74190D03*
X223080Y78270D03*
X213455Y98300D03*
X221500Y103693D03*
X226990Y58130D03*
X223190D03*
X227000Y62170D03*
X223200D03*
X226870Y74190D03*
X226880Y78270D03*
X225300Y103693D03*
X245400Y90731D03*
X241600D03*
G54D72*
X263801Y51676D03*
Y76676D03*
G54D36*
X8508Y170132D03*
X12000Y22501D03*
Y15602D03*
Y29401D03*
Y36299D03*
X13508Y170132D03*
X36158Y120632D03*
X73852Y93616D03*
Y103350D03*
X143198Y139690D03*
X142072Y148368D03*
X192300Y148100D03*
X230200Y13689D03*
G54D82*
G01X103100Y57180D02*
Y57280D01*
X101658Y58722D01*
Y59122D01*
X100390Y60390D01*
G54D28*
X-1667Y43220D03*
G54D64*
X229472Y30301D03*
G54D46*
X102965Y151261D03*
X101005D03*
X99035D03*
Y162861D03*
X101005D03*
X102965D03*
X104935Y151261D03*
Y162861D03*
G54D19*
X-35010Y-5859D03*
Y-2059D03*
X-29990Y-2060D03*
Y-5860D03*
X-20290Y-5820D03*
Y-2020D03*
X-24890Y-5840D03*
Y-2040D03*
X-15991Y45590D03*
Y57073D03*
Y53273D03*
Y49390D03*
X-6760Y29650D03*
Y25850D03*
X-11791Y45623D03*
Y53273D03*
Y57073D03*
Y49423D03*
X3508Y147908D03*
Y151708D03*
X8508D03*
Y147908D03*
X-1492Y151708D03*
Y147908D03*
Y160308D03*
Y164108D03*
X3508Y160308D03*
Y164108D03*
X8508Y160308D03*
Y164108D03*
X16870Y35420D03*
Y39220D03*
X13508Y160308D03*
Y164108D03*
X31300Y20800D03*
Y24600D03*
Y41300D03*
Y45100D03*
X30200Y89300D03*
Y85500D03*
X35600Y20800D03*
X39900D03*
X35600Y24600D03*
X39900D03*
Y41300D03*
Y45100D03*
X35580Y41300D03*
Y45100D03*
X39074Y110071D03*
Y113871D03*
X43259Y110071D03*
Y113871D03*
X34759D03*
Y110071D03*
X36000Y151264D03*
Y147464D03*
X40100Y151264D03*
Y147464D03*
X51900Y77284D03*
Y81084D03*
X56100Y77284D03*
Y81084D03*
X50015Y93300D03*
Y89500D03*
X45839Y93300D03*
Y89500D03*
X63800Y117500D03*
Y121300D03*
X77500Y150200D03*
Y154000D03*
X82400Y136000D03*
Y132200D03*
X86700Y136000D03*
Y132200D03*
X81800Y150200D03*
Y154000D03*
X94490Y166870D03*
Y170670D03*
X108710Y162461D03*
Y158661D03*
X137315Y137300D03*
Y133500D03*
X180390Y41320D03*
Y37520D03*
X176320Y41320D03*
Y37520D03*
X184460Y41320D03*
Y37520D03*
X184250Y66900D03*
X180225D03*
X176200D03*
X180150Y62800D03*
Y59000D03*
X176125Y62800D03*
Y59000D03*
X184175Y62800D03*
Y59000D03*
X184250Y70700D03*
X180225D03*
X176200D03*
X192922Y19605D03*
Y23405D03*
X194122Y31230D03*
Y27430D03*
X198200Y31230D03*
Y27430D03*
X196670Y41320D03*
Y37520D03*
X192600Y41320D03*
Y37520D03*
X188530Y41320D03*
Y37520D03*
X188275Y66900D03*
X188200Y62800D03*
Y59000D03*
X188275Y70700D03*
X194085Y104840D03*
Y108640D03*
X206480Y58370D03*
X210680D03*
X206480Y62170D03*
X210680D03*
X210710Y70180D03*
Y66380D03*
X206500Y70180D03*
Y66380D03*
X203100Y114700D03*
X206600Y122323D03*
Y126123D03*
X203100Y118500D03*
X210800Y126123D03*
Y122323D03*
X206400Y138800D03*
Y135000D03*
X202200Y138800D03*
Y135000D03*
X210600D03*
Y138800D03*
X202613Y146768D03*
Y150568D03*
X200346Y172047D03*
Y168247D03*
X219150Y58260D03*
X214970Y58240D03*
X222850Y70030D03*
Y66230D03*
X214850Y66350D03*
Y70150D03*
X219150Y62060D03*
X214970Y62040D03*
X213500Y104840D03*
Y108640D03*
X215453Y171947D03*
Y168147D03*
X219660D03*
Y171947D03*
X227140Y70070D03*
Y66270D03*
X229560Y99870D03*
Y103670D03*
X233723Y99870D03*
Y103670D03*
X223800Y171947D03*
Y168147D03*
X237920Y99870D03*
Y103670D03*
G54D55*
X183600Y27000D03*
G54D73*
X276889Y109847D03*
Y162997D03*
G54D37*
X20000Y-5000D03*
Y185000D03*
G54D74*
G01X-23016Y92590D02*
X-29082D01*
X-40984Y80688D01*
G01X-48400Y149500D02*
Y153100D01*
G01Y145900D02*
Y149500D01*
G01Y163900D02*
Y167500D01*
G01Y160300D02*
Y163900D01*
G01Y156700D02*
Y160300D01*
G01Y153100D02*
Y156700D01*
G01Y174700D02*
Y178300D01*
G01Y171100D02*
Y174700D01*
G01Y167500D02*
Y171100D01*
G01Y181900D02*
Y185500D01*
G01Y178300D02*
Y181900D01*
G01X-38400Y189000D02*
X-46800D01*
X-48400Y187400D01*
Y185500D01*
G01X-29990Y-5860D02*
X-30560D01*
X-31700Y-7000D01*
G01X-35600Y1400D02*
Y-1469D01*
X-35010Y-2059D01*
G01X-29650Y50023D02*
X-29303Y50370D01*
G01X-20290Y-5820D02*
Y-5100D01*
G01Y-2020D02*
Y2310D01*
G01X-26140Y47090D02*
X-24640Y45590D01*
G01D02*
X-15991D01*
G01X-11791Y45623D02*
X-15784Y41630D01*
X-25610D01*
G01X-11791Y53273D02*
X-15991D01*
G01X-15149Y66029D02*
X-17740D01*
X-18740Y65029D01*
Y56022D01*
X-15991Y53273D01*
G01Y49390D02*
Y53273D01*
G01Y57073D02*
X-11791D01*
G01X-15991D02*
Y59690D01*
G01D02*
Y61159D01*
X-15820Y61330D01*
G01X-7640D02*
Y63360D01*
X-8290Y64010D01*
X-13140D01*
X-15820Y61330D01*
G01X-18380Y92590D02*
X-23016D01*
G01X-18380Y96649D02*
X-21139D01*
G01X-18380Y104767D02*
X-20857D01*
G01X-18380Y116944D02*
X-20634D01*
G01X-18380Y108826D02*
X-23016D01*
G01X-19818Y161932D02*
X-18432D01*
G01X-19818Y154962D02*
X-21878D01*
G01X-17537Y176303D02*
X-17566Y176332D01*
X-19818D01*
G01Y169132D02*
X-17500D01*
Y169078D01*
G01X-17532Y183499D02*
Y183532D01*
X-19818D01*
G01X-6760Y25850D02*
Y24060D01*
G01Y29650D02*
X-6672Y29738D01*
X-270D01*
G01X-5506Y35289D02*
Y32424D01*
X-6760Y31170D01*
Y29650D01*
G01X-980Y50490D02*
X-3840D01*
G01X-3391Y54170D02*
X-3840Y54619D01*
Y55831D01*
G01D02*
Y61330D01*
G01X-7640Y55831D02*
Y58094D01*
X-7897Y58351D01*
G01X-7640Y55831D02*
Y50490D01*
G01X-11791Y49423D02*
X-8707D01*
X-7640Y50490D01*
G01X-12020Y61330D02*
X-9041Y58351D01*
X-7897D01*
G01X-14580Y121003D02*
X-11393D01*
G01X930Y168010D02*
Y171950D01*
X-72Y172952D01*
X-3524D01*
G01X2683Y24600D02*
Y22450D01*
X4583Y20550D01*
G01X-270Y24620D02*
X-2580D01*
G01X5636Y27179D02*
X2683D01*
G01D02*
X-270D01*
G01X2683D02*
Y24600D01*
G01X5636Y24620D02*
X2703D01*
X2683Y24600D01*
G01X5636Y29738D02*
X5220Y30154D01*
Y33750D01*
G01X10230Y52950D02*
X7445Y50165D01*
Y49935D01*
G01X-980Y50490D02*
X1503D01*
G01X3403Y58426D02*
X3317Y58512D01*
X1552D01*
X844Y57804D01*
Y55473D01*
G01X3403D02*
Y52810D01*
X5303Y50910D01*
Y50490D01*
G01X3403Y58426D02*
Y55473D01*
G01X12773Y63078D02*
Y59993D01*
X11780Y59000D01*
X8980D01*
X5962Y55982D01*
Y55473D01*
G01X1850Y68470D02*
Y70400D01*
G01X3403Y61379D02*
Y58426D01*
G01X7090Y67521D02*
X6599D01*
X5962Y68158D01*
G01X5650Y68470D02*
X5962Y68158D01*
G01D02*
Y61379D01*
G01X1850Y70400D02*
Y72060D01*
G01X9620Y68470D02*
X8200Y69890D01*
Y71180D01*
G01D02*
Y72610D01*
G01X8508Y151708D02*
X11276Y148940D01*
G01X-1492Y151708D02*
Y154278D01*
G01Y164108D02*
Y166892D01*
X-1500Y166900D01*
G01X3508Y160308D02*
X2992D01*
X-808Y164108D01*
X-1492D01*
G01X16870Y35420D02*
X16690Y35600D01*
X15600D01*
G01X14053Y53978D02*
X13025Y52950D01*
X10230D01*
G01X10213Y63078D02*
Y67877D01*
X9620Y68470D01*
G01X13720Y72890D02*
X14120Y72490D01*
G01X13720Y76510D02*
Y72890D01*
G01X23500Y154255D02*
X20000D01*
G01X28460Y85500D02*
X29860D01*
G01D02*
X30200D01*
G01X32047Y90731D02*
X32153D01*
G01X32047Y103329D02*
X32822D01*
X34622Y101529D01*
G01X32047Y95455D02*
X32722D01*
X34622Y97355D01*
G01X32047Y108053D02*
X32406D01*
X34622Y105837D01*
G01X23500Y149800D02*
Y154255D01*
G01D02*
Y158734D01*
G01X30050Y168231D02*
Y164830D01*
G01X40000Y12970D02*
Y5000D01*
G01X42280Y26100D02*
Y23180D01*
X39900Y20800D01*
G01X39507Y64844D02*
X39913Y65250D01*
G01D02*
X47963D01*
G01X39074Y113871D02*
X34759D01*
G01X43259D02*
X39074D01*
G01X40100Y147464D02*
Y145675D01*
X43385Y142390D01*
Y140770D01*
G01X42089Y168231D02*
X46355D01*
G01D02*
Y174245D01*
X45661Y174939D01*
X42039D01*
X41331Y174231D01*
Y172500D01*
G01X56100Y77284D02*
X51900D01*
G01X49584D02*
X51900D01*
G01X61500Y84300D02*
X60684Y83484D01*
X51400D01*
X49400Y85484D01*
G01X50015Y89500D02*
X45839D01*
G01X45600Y85484D02*
Y89261D01*
X45839Y89500D01*
G01X50015D02*
X51651Y87864D01*
Y86049D01*
G01X55600Y115400D02*
X59600D01*
G01X50255Y172500D02*
Y168331D01*
X50155Y168231D01*
G01X56100Y77284D02*
X63784D01*
X67539Y81039D01*
Y85484D01*
G01Y93616D02*
Y89550D01*
G01D02*
Y85484D01*
G01X59670Y97030D02*
X58570D01*
X57900Y97700D01*
G01X59670Y97030D02*
X59740Y97100D01*
X64055D01*
X67539Y93616D01*
G01X59600Y115400D02*
X60700D01*
G01X59600D02*
X60800Y114200D01*
G01X59600Y115400D02*
X60100Y115900D01*
G01X60239Y126200D02*
X58800Y124761D01*
Y123600D01*
G01X66300Y168231D02*
Y172471D01*
X66271Y172500D01*
G01X62500Y168231D02*
Y174200D01*
X61645Y175055D01*
X58055D01*
X57347Y174347D01*
Y172500D01*
G01X58345Y168231D02*
X62500D01*
G01X82400Y136000D02*
X75100D01*
G01D02*
X73600D01*
G01X75100D02*
X73800Y137300D01*
G01X75100Y136000D02*
X73900Y134800D01*
G01X73550Y161150D02*
X74313Y161913D01*
G01D02*
Y164000D01*
G01X78487D02*
Y168231D01*
G01Y164000D02*
Y162183D01*
X79080Y161590D01*
X91470D01*
X92470Y162590D01*
Y165410D01*
X90305Y167575D01*
Y168231D01*
G01X81800Y154000D02*
X77500D01*
G01X78100Y169631D02*
Y172113D01*
X78487Y172500D01*
Y174113D01*
G01X74313Y168231D02*
X78487D01*
G01X79274Y174900D02*
X77700D01*
G01X79274D02*
X88700D01*
X89379Y174221D01*
Y172500D01*
G01X77700Y174900D02*
X74363D01*
X73363Y173900D01*
Y172500D01*
G01X78487Y174113D02*
X77700Y174900D01*
G01X78487Y174113D02*
X79274Y174900D01*
G01X78487Y168231D02*
X78100Y168618D01*
Y169631D01*
G01X88720Y16400D02*
X89437D01*
X89937Y16900D01*
X91263D01*
X91553Y16610D01*
G01D02*
X95763D01*
G01Y34452D02*
X95515Y34700D01*
X88720D01*
G01X95763Y53019D02*
X95744Y53000D01*
X88720D01*
G01X82500Y154000D02*
X84000Y152500D01*
Y148250D01*
X86700Y145550D01*
Y136000D01*
G01X81800Y150200D02*
X82300D01*
G01X91905Y151203D02*
X87220D01*
X86870Y150853D01*
G01X82287Y164000D02*
Y168231D01*
G01X86505Y164000D02*
X82287D01*
G01X81800Y154000D02*
X82500D01*
G01X86870Y157153D02*
X89467Y159750D01*
X92890D01*
X94490Y161350D01*
Y166870D01*
G01X82287Y172500D02*
Y170630D01*
G01D02*
Y168231D01*
G01X104961Y26298D02*
X103463Y24800D01*
G01X109800Y102940D02*
X105918D01*
X105124Y103734D01*
X103524D01*
G01X101005Y151261D02*
Y155095D01*
X100139Y155961D01*
X98900D01*
G01X99035Y151261D02*
Y155826D01*
X98900Y155961D01*
G01X96170Y153631D02*
Y152070D01*
X95303Y151203D01*
X91905D01*
G01X98900Y155961D02*
X96170D01*
G01D02*
Y153631D01*
G01X113865Y23149D02*
X112025Y24989D01*
Y25340D01*
X111180Y26185D01*
Y26260D01*
G01X106188Y26298D02*
X104961D01*
G01D02*
X103960Y27299D01*
G01D02*
Y29480D01*
G01X111306Y44604D02*
X111500Y44410D01*
Y42470D01*
G01X108790Y34750D02*
X110900D01*
X111306Y35156D01*
G01X108700Y42180D02*
X111210D01*
X111500Y42470D01*
G01X113700D02*
Y44439D01*
X113865Y44604D01*
G01X111306Y57203D02*
X106923D01*
X106900Y57180D01*
G01D02*
X103900Y54180D01*
Y53600D01*
G01X105692Y51400D02*
X105242Y50950D01*
Y49958D01*
G01X106188Y50904D02*
X105692Y51400D01*
G01X105242Y49958D02*
X106188Y50904D01*
G01X103900Y53600D02*
Y52000D01*
X104500Y51400D01*
G01X103880Y47720D02*
Y47795D01*
X104725Y48640D01*
Y49441D01*
G01X104500Y51400D02*
X105692D01*
G01X104725Y49441D02*
X105242Y49958D01*
G01X106100Y53600D02*
Y53525D01*
X106945Y52680D01*
X106971D01*
X108747Y50904D01*
G01X112990Y109070D02*
X113065D01*
X113910Y109915D01*
Y110970D01*
X116123Y113183D01*
G01X109583Y110272D02*
X110785Y109070D01*
X112990D01*
G01X116330Y121633D02*
Y120645D01*
X112060Y116375D01*
Y116300D01*
G01X107470Y128750D02*
Y128446D01*
X109987Y125929D01*
G01X111898Y133679D02*
X111373D01*
X109823Y135229D01*
G01X107470Y130950D02*
Y132876D01*
X109823Y135229D01*
G01X116123Y132079D02*
X115698D01*
X114098Y133679D01*
G01X108750Y143040D02*
X108311D01*
X106673Y144678D01*
G01X110950Y143040D02*
X111461D01*
X112972Y141529D01*
G01X109822Y150978D02*
Y152831D01*
X109750Y152903D01*
G01X126660Y19999D02*
X126980Y19679D01*
Y17490D01*
G01X121542Y19999D02*
X121880Y19661D01*
Y17450D01*
G01X118940Y17470D02*
Y19956D01*
X118983Y19999D01*
G01X124080Y17450D02*
Y19978D01*
X124101Y19999D01*
G01X129219Y29448D02*
Y31101D01*
X127750Y32570D01*
X126300D01*
G01X121542Y44604D02*
X121730Y44416D01*
Y42450D01*
G01X116424Y44604D02*
X116480Y44548D01*
Y42480D01*
G01X118680D02*
Y44301D01*
X118983Y44604D01*
G01X123930Y42450D02*
Y44433D01*
X124101Y44604D01*
G01X123387Y50284D02*
X123480D01*
X124100Y50904D01*
G01X118990Y54820D02*
X118590Y55220D01*
X118407D01*
X116424Y57203D01*
G01X121831Y48728D02*
Y48043D01*
X121542Y47754D01*
G01X121541Y50904D02*
Y51258D01*
X120195Y52604D01*
X119481D01*
X119465Y52620D01*
X118990D01*
G01X120850Y89950D02*
Y89556D01*
X122420Y87986D01*
G01X116230Y101740D02*
X117278D01*
X119272Y103734D01*
G01X116230Y99540D02*
Y97542D01*
X116123Y97435D01*
G01X119940Y112610D02*
X118296D01*
X117723Y113183D01*
X116123D01*
G01X122140Y112610D02*
Y110315D01*
X122422Y110033D01*
G01X116126Y122627D02*
X116330Y122423D01*
Y121633D01*
G01X118530D02*
Y122369D01*
X119009Y122848D01*
G01X125620Y133200D02*
Y132128D01*
X125571Y132079D01*
G01X125560Y130720D02*
Y132068D01*
X125571Y132079D01*
G01X116123Y147827D02*
X116653D01*
X118240Y146240D01*
G01X123500Y152480D02*
X124068D01*
X125571Y150977D01*
G01X121300Y152480D02*
X120918D01*
X119272Y154126D01*
G01X122422Y144677D02*
X122003D01*
X120440Y146240D01*
G01X139456Y19999D02*
X139260Y19803D01*
Y17780D01*
G01X137060D02*
Y19836D01*
X136897Y19999D01*
G01X129180Y17490D02*
Y19960D01*
X129219Y19999D01*
G01X139690Y35130D02*
X138240D01*
X136897Y33787D01*
Y32006D01*
G01X129370Y23850D02*
Y23300D01*
X129219Y23149D01*
G01X137140Y25570D02*
Y28613D01*
X136897Y28856D01*
G01X129219Y54053D02*
X129652Y53620D01*
X131390D01*
G01Y51420D02*
X129735D01*
X129219Y50904D01*
G01X137030Y95870D02*
X136584D01*
X135019Y97435D01*
G01X139230Y95870D02*
X139733D01*
X141318Y94285D01*
G01X130620Y116360D02*
X131844D01*
X131871Y116333D01*
G01X133020Y116320D02*
X131884D01*
X131871Y116333D01*
G01X131080Y124910D02*
Y124989D01*
X131871Y125780D01*
G01X128880Y124910D02*
Y125621D01*
X128721Y125780D01*
G01X132320Y119590D02*
X131979D01*
X131871Y119482D01*
G01X137315Y137300D02*
X137400Y137385D01*
Y141393D01*
G01X137315Y137300D02*
X136098D01*
X135020Y138378D01*
G01X137400Y141393D02*
Y145501D01*
G01D02*
Y147200D01*
X138000Y147800D01*
G01X132860Y155700D02*
Y158500D01*
X134460Y160100D01*
G01X132860Y155700D02*
X134434Y154126D01*
X135020D01*
G01X130660Y155700D02*
X130295Y156065D01*
Y157050D01*
G01D02*
Y158665D01*
X128860Y160100D01*
G01X149692Y19999D02*
X149590Y19897D01*
Y17790D01*
G01X144574Y19999D02*
X144470Y19895D01*
Y17750D01*
G01X147390Y17790D02*
Y19742D01*
X147133Y19999D01*
G01X144780Y26580D02*
Y28650D01*
X144574Y28856D01*
G01X146980Y26580D02*
Y28703D01*
X147133Y28856D01*
G01X146680Y47730D02*
Y44098D01*
X147132Y43646D01*
Y42046D01*
G01D02*
X146928Y41842D01*
Y39818D01*
G01X144728D02*
Y41891D01*
X144573Y42046D01*
G01X149970Y39970D02*
Y41767D01*
X149691Y42046D01*
G01X151110Y47820D02*
Y49485D01*
X149691Y50904D01*
G01X141340Y117590D02*
Y116355D01*
X141318Y116333D01*
G01X141300Y115070D02*
Y116315D01*
X141318Y116333D01*
G01X147653Y117096D02*
Y116369D01*
X147617Y116333D01*
G01X152340Y149800D02*
Y149400D01*
X150767Y147827D01*
G01X146040Y152970D02*
Y152550D01*
X144467Y150977D01*
G01X146040Y155170D02*
Y157040D01*
X146043Y157043D01*
G01X154810Y19999D02*
X154700Y19889D01*
Y17780D01*
G01X152500D02*
Y19750D01*
X152251Y19999D01*
G01X164690Y32000D02*
Y30490D01*
X164200Y30000D01*
X163630D01*
X162486Y28856D01*
G01X159940Y26540D02*
X161840D01*
X162548Y27248D01*
Y28794D01*
X162486Y28856D01*
G01X152251Y32006D02*
X152826D01*
X154410Y33590D01*
Y35130D01*
G01X157368Y35156D02*
X157342Y35130D01*
X154410D01*
G01X159920Y48630D02*
X158243D01*
X154809Y45196D01*
G01D02*
X153310Y46695D01*
Y47820D01*
G01X162486Y42046D02*
X162480Y42040D01*
Y39950D01*
G01X157368Y42046D02*
X157310Y41988D01*
Y39950D01*
G01X152250Y42046D02*
X152170Y41966D01*
Y39970D01*
G01X155110Y39950D02*
Y41745D01*
X154809Y42046D01*
G01X160280Y39950D02*
Y41693D01*
X159927Y42046D01*
G01X162486Y50904D02*
Y49304D01*
X162710Y49080D01*
Y47020D01*
G01X159920Y48630D02*
X161530Y47020D01*
X162710D01*
G01X159170Y92700D02*
X158651D01*
X157066Y94285D01*
G01X163201Y91300D02*
X163126Y91375D01*
X163051D01*
X161726Y92700D01*
X161370D01*
G01X162230Y98950D02*
X161850D01*
X160215Y100585D01*
G01X152740Y125800D02*
X153896D01*
X153916Y125780D01*
G01X155170Y125760D02*
X153936D01*
X153916Y125780D01*
G01X160720Y119470D02*
X160227D01*
X160215Y119482D01*
G01X157020Y131010D02*
Y132033D01*
X157066Y132079D01*
G01X152340Y152000D02*
Y152550D01*
X153916Y154126D01*
G01X156700Y154050D02*
X158150Y155500D01*
Y168500D01*
X159150Y169500D01*
X169800D01*
G01X172300Y90500D02*
Y87900D01*
G01X164430Y98950D02*
X165000D01*
X166465Y97485D01*
G01X169664Y116333D02*
Y114400D01*
G01D02*
Y112900D01*
G01X177770Y113540D02*
X170524D01*
G01D02*
X169664Y114400D01*
G01Y112900D02*
Y112680D01*
G01X170524Y113540D02*
X169884Y112900D01*
G01D02*
X169664D01*
G01Y112680D02*
Y110033D01*
G01X169884Y112900D02*
X169664Y112680D01*
G01X169180Y123800D02*
Y124116D01*
X169400Y124336D01*
Y125040D01*
X170140Y125780D01*
G01X169664Y138378D02*
Y136336D01*
X170600Y135400D01*
X177198D01*
X177870Y136072D01*
G01X172500Y169500D02*
X169800D01*
G01D02*
X169839Y169539D01*
G01D02*
Y174530D01*
G01X176200Y66900D02*
Y67000D01*
G01X194085Y104840D02*
X189595Y100350D01*
X186600D01*
G01Y106281D02*
Y108800D01*
G01X177770Y106281D02*
Y113540D01*
G01X189309Y28575D02*
X191275D01*
G01D02*
X193930Y31230D01*
X194122D01*
G01X192922Y23405D02*
X197305D01*
G01D02*
X199095D01*
G01X197305D02*
X198200Y24300D01*
G01D02*
Y27430D01*
G01Y24300D02*
X199095Y23405D01*
G01X194122Y27430D02*
X194400D01*
X198200Y31230D01*
G01D02*
X199000D01*
G01X202196Y90916D02*
X199301D01*
X198085Y89700D01*
G01X198300Y121200D02*
X196970D01*
G01X198300D02*
X198950D01*
X200280Y119870D01*
G01X196970Y121200D02*
X196130D01*
X195985Y121345D01*
G01X196970Y121200D02*
X195970Y120200D01*
Y119760D01*
G01X195300Y138200D02*
X195900Y138800D01*
X202200D01*
G01X200346Y168247D02*
Y164346D01*
X198600Y162600D01*
X195553D01*
G01X195037Y172354D02*
X200039D01*
X200346Y172047D01*
G01X199400Y23100D02*
Y23040D01*
X203580Y18860D01*
G01X206690Y21780D02*
X204778Y23692D01*
Y23720D01*
G01X208480Y26800D02*
Y24900D01*
G01X199095Y23405D02*
X199400Y23100D01*
G01X208700Y69300D02*
X208600D01*
X207720Y70180D01*
X206500D01*
G01X206480Y63580D02*
Y62170D01*
G01D02*
X206880D01*
X210680Y58370D01*
G01X206500Y66380D02*
X207720D01*
X207800Y66300D01*
X208510D01*
G01X213455Y99505D02*
X209970Y102990D01*
X208970D01*
G01X210600Y122023D02*
X211823D01*
X215592Y125792D01*
X218661D01*
G01X206400Y135000D02*
Y132900D01*
X207000Y132300D01*
X222900D01*
X223600Y131600D01*
Y127700D01*
G01X202200Y138800D02*
Y146355D01*
X202613Y146768D01*
G01X210600Y135000D02*
X218115D01*
X218661Y134454D01*
G01X206359Y146700D02*
X206291Y146768D01*
X202613D01*
G01X206900Y154400D02*
X204400Y156900D01*
Y161800D01*
X205500Y162900D01*
X217616D01*
G01X207637Y172354D02*
X215046D01*
X215453Y171947D01*
G01X200346Y172047D02*
Y173754D01*
X199300Y174800D01*
Y176400D01*
G01X223200Y13689D02*
X221519Y15370D01*
X216232D01*
G01X214978Y23720D02*
X214198D01*
Y21502D01*
X214840Y20860D01*
G01X212900Y69300D02*
X212300D01*
X211420Y70180D01*
X210710D01*
G01X214850Y70150D02*
X215550D01*
X216200Y69500D01*
X216500D01*
G01X222300Y91600D02*
X222800D01*
G01X221400Y94300D02*
X222300D01*
G01D02*
X223900Y92700D01*
G01X213455Y98300D02*
Y99505D01*
G01X217616Y162900D02*
X216810Y163706D01*
G01X217616Y162900D02*
X218700Y161816D01*
G01X216810Y163706D02*
Y166710D01*
G01X215453Y168147D02*
Y168067D01*
X216810Y166710D01*
G01X215453Y171947D02*
X219660D01*
G01D02*
Y174740D01*
X218100Y176300D01*
X214000D01*
G01X224980Y8469D02*
X230200Y13689D01*
G01X228195Y65205D02*
Y65215D01*
X227140Y66270D01*
G01X229514Y60541D02*
X229859D01*
X231420Y58980D01*
G01D02*
X232030D01*
G01X241600Y90731D02*
X239631Y92700D01*
X223900D01*
G01D02*
X223000D01*
G01X222800Y91600D02*
X223900Y92700D01*
G01X229560Y99870D02*
X233723D01*
G01D02*
X237920D01*
G01X232300Y112860D02*
Y110100D01*
X234870Y107530D01*
X236535D01*
X238185Y105880D01*
X239083D01*
X239920Y105043D01*
Y101870D01*
X237920Y99870D01*
G01X223600Y126500D02*
Y127700D01*
G01X223800Y168147D02*
Y163250D01*
G01X265400Y51700D02*
X265376Y51676D01*
G01D02*
X264790D01*
G54D29*
X-5492Y168070D03*
G54D56*
X177891Y30150D03*
Y28575D03*
Y27000D03*
Y25425D03*
Y23850D03*
X189309D03*
Y25425D03*
Y27000D03*
Y28575D03*
Y30150D03*
G54D65*
X218661Y117131D03*
Y125792D03*
Y121461D03*
Y138784D03*
Y134454D03*
Y130123D03*
Y147446D03*
Y143115D03*
G54D38*
X20000Y5000D03*
Y195000D03*
X30000Y-5000D03*
Y5000D03*
Y185000D03*
Y195000D03*
X40000Y-5000D03*
Y5000D03*
Y185000D03*
Y195000D03*
X50000Y-5000D03*
Y5000D03*
Y185000D03*
Y195000D03*
X60000Y-5000D03*
X70000D03*
X60000Y5000D03*
X70000D03*
X60000Y185000D03*
X70000D03*
X60000Y195000D03*
X70000D03*
X80000Y-5000D03*
Y5000D03*
Y185000D03*
Y195000D03*
X90000Y-5000D03*
Y5000D03*
Y185000D03*
Y195000D03*
X100000Y-5000D03*
Y5000D03*
Y185000D03*
Y195000D03*
X110000Y-5000D03*
Y5000D03*
Y185000D03*
Y195000D03*
X120000Y-5000D03*
X130000D03*
X120000Y5000D03*
X130000D03*
X120000Y185000D03*
X130000D03*
X120000Y195000D03*
X130000D03*
X140000Y-5000D03*
Y5000D03*
Y185000D03*
Y195000D03*
X150000Y-5000D03*
Y5000D03*
Y185000D03*
Y195000D03*
X160000Y-5000D03*
Y5000D03*
Y185000D03*
Y195000D03*
X170000Y-5000D03*
Y5000D03*
Y185000D03*
Y195000D03*
X180000Y-5000D03*
Y5000D03*
Y185000D03*
Y195000D03*
X190000Y-5000D03*
X200000D03*
X190000Y5000D03*
X200000D03*
X190000Y185000D03*
X200000D03*
X190000Y195000D03*
X200000D03*
X210000Y-5000D03*
Y5000D03*
Y185000D03*
Y195000D03*
X220000Y-5000D03*
Y5000D03*
Y185000D03*
Y195000D03*
X230000Y-5000D03*
Y5000D03*
Y185000D03*
Y195000D03*
X240000Y-5000D03*
Y5000D03*
Y185000D03*
Y195000D03*
G54D47*
X96170Y158161D03*
Y155961D03*
X108790Y32550D03*
Y34750D03*
X112990Y109070D03*
Y106870D03*
X107470Y128750D03*
Y130950D03*
X109750Y152903D03*
Y155103D03*
X121530Y32140D03*
Y29940D03*
X118990Y54820D03*
Y52620D03*
X120850Y92150D03*
Y89950D03*
X116230Y101740D03*
Y99540D03*
X125560Y128520D03*
Y130720D03*
X136870Y31520D03*
Y29320D03*
X131390Y53620D03*
Y51420D03*
X135000Y128400D03*
Y126200D03*
X144550Y32450D03*
Y34650D03*
X147630Y90520D03*
Y88320D03*
X144510Y112710D03*
Y110510D03*
X141300Y115070D03*
Y112870D03*
X144450Y116920D03*
X150750D03*
X144450Y119120D03*
X144410Y128410D03*
Y126210D03*
X150750Y119120D03*
X146040Y152970D03*
Y155170D03*
X162710Y44820D03*
Y47020D03*
X160120Y115790D03*
Y113590D03*
X157026Y116990D03*
Y119190D03*
X160200Y137890D03*
Y135690D03*
X153730Y138010D03*
Y135810D03*
G54D75*
G01X-49833Y13567D02*
X-49700Y13700D01*
G01X-49500Y37200D02*
X-49833Y37533D01*
G01X-9500Y4500D02*
X-5000Y0D01*
X0D01*
G01X176200Y175200D02*
X170509D01*
X169839Y174530D01*
G01X176900Y174500D02*
X176200Y175200D01*
G01X260700Y45670D02*
X263470D01*
G01X263801Y51676D02*
Y63789D01*
G01X264790Y51676D02*
X263801D01*
G01Y66622D02*
Y76676D01*
G01D02*
Y86730D01*
G01Y76676D02*
X265450D01*
G01X263801Y90126D02*
Y95928D01*
G01D02*
X265450D01*
G54D39*
X10213Y44878D03*
X12773D03*
X15333D03*
X17893D03*
Y63078D03*
X15333D03*
X12773D03*
X10213D03*
G54D57*
X198770Y102990D03*
Y110490D03*
X204778Y23720D03*
Y27470D03*
Y31220D03*
X208970Y102990D03*
Y110490D03*
Y106740D03*
X214978Y31220D03*
Y23720D03*
G54D66*
X218700Y111520D03*
G54D48*
X111400Y17470D03*
X113600D03*
X103960Y29480D03*
X106160D03*
X111500Y42470D03*
X113700D03*
X111560Y35050D03*
X113760D03*
X106490Y50780D03*
X108690D03*
X111480Y57180D03*
X113680D03*
X103900Y53600D03*
X106100D03*
X103880Y47720D03*
X106080D03*
X111898Y133679D03*
X114098D03*
X108750Y143040D03*
X110950D03*
X116740Y17470D03*
X118940D03*
X126980Y17490D03*
X121880Y17450D03*
X124080D03*
X116550Y32550D03*
X118750D03*
X116480Y42480D03*
X118680D03*
X121730Y42450D03*
X123930D03*
X126780Y57160D03*
X116783Y57203D03*
X118983D03*
X121901D03*
X124101D03*
X119940Y112610D03*
X122140D03*
X116330Y121633D03*
X118530D03*
X118240Y146240D03*
X120440D03*
X129180Y17490D03*
X128980Y57160D03*
X137030Y95870D03*
X139230D03*
X133020Y116320D03*
X135220D03*
X129170Y113150D03*
X131370D03*
X144780Y26580D03*
X146980D03*
X139690Y35130D03*
X141890D03*
X151150Y128890D03*
X141630Y132060D03*
X143830D03*
X159170Y92700D03*
X161370D03*
X155170Y125760D03*
X157370D03*
X153350Y128890D03*
X171300Y21920D03*
X173500D03*
X171300Y19120D03*
X173500D03*
X171300Y30320D03*
X173500D03*
X171300Y27520D03*
X173500D03*
X171300Y24720D03*
X173500D03*
X178420Y17450D03*
X180620D03*
G54D76*
G01X20000Y-5000D02*
Y5000D01*
G54D67*
X218700Y161816D03*
G54D58*
X190102Y141546D03*
G54D49*
X111180Y26260D03*
X108980D03*
X112060Y116300D03*
X109860D03*
X126300Y32570D03*
X124100D03*
X121370Y26310D03*
X119170D03*
X125980Y119480D03*
X123500Y152480D03*
X121300D03*
X139260Y17780D03*
X137060D03*
X130620Y116360D03*
X128420D03*
X128180Y119480D03*
X131080Y124910D03*
X128880D03*
X134520Y119590D03*
X132320D03*
X131440Y132050D03*
X129240D03*
X132860Y155700D03*
X130660D03*
X144470Y17750D03*
X142270D03*
X149590Y17790D03*
X147390D03*
X149970Y39970D03*
X149560Y35150D03*
X147360D03*
X146928Y39818D03*
X144728D03*
X141720Y50880D03*
X139520D03*
X146870Y57240D03*
X144670D03*
X151110Y47820D03*
X149710Y57260D03*
X146680Y47730D03*
X144480D03*
X150540Y125800D03*
X151320Y132000D03*
X154700Y17780D03*
X152500D03*
X162490Y32000D03*
X152170Y39970D03*
X162480Y39950D03*
X160280D03*
X162330Y35120D03*
X160130D03*
X154410Y35130D03*
X152210D03*
X157310Y39950D03*
X155110D03*
X153310Y47820D03*
X157170Y57220D03*
X154970D03*
X151910Y57260D03*
X162230Y98950D03*
X159670Y110020D03*
X157470D03*
X152740Y125800D03*
X162920Y119470D03*
X160720D03*
X153520Y132000D03*
X164690Y32000D03*
X164430Y98950D03*
X172250Y116320D03*
X170050D03*
X172300Y110040D03*
X170100D03*
X166070Y128930D03*
X163870D03*
X172340Y125780D03*
X170140D03*
X166210Y135290D03*
X164010D03*
X172320Y132110D03*
X170120D03*
X172280Y138360D03*
X170080D03*
X185260Y17450D03*
X183060D03*
G54D77*
G01X34759Y110071D02*
X34527Y110303D01*
G01X56000Y107584D02*
X56200Y107384D01*
Y103369D01*
X56969Y102600D01*
G01X57900Y97700D02*
X57700Y97900D01*
Y101869D01*
X56969Y102600D01*
G01X203100Y114700D02*
X199200D01*
X198300Y115600D01*
G01X206500Y66380D02*
X201205D01*
X200385Y67200D01*
G01X210710Y66380D02*
X212090D01*
X212135Y66335D01*
G01X211300Y63200D02*
Y63040D01*
X210680Y62420D01*
Y62170D01*
G01X210900Y112420D02*
X212530Y110790D01*
G01X210900Y112420D02*
X208970Y110490D01*
G01X207100Y114800D02*
X203200D01*
X203100Y114700D01*
G01X210900Y114800D02*
Y112420D01*
G54D59*
X202295Y42661D03*
X216861D03*
G54D68*
X224920Y109454D03*
G54D78*
G01X-49833Y7339D02*
X-45281Y10316D01*
G01X-54385D02*
X-49833Y7339D01*
G01D02*
X-45281Y4362D01*
G01X-54385Y38220D02*
X-49833Y41197D01*
G01X-54385Y44174D02*
X-49833Y41197D01*
G01D02*
X-45281Y38220D01*
G01X-7379Y-7379D02*
X0Y0D01*
G01X-7389Y197359D02*
X-10Y189980D01*
G01X0Y0D02*
X7379Y-7379D01*
G01X-10Y189980D02*
X7369Y197359D01*
G01X252621Y5121D02*
X260000Y12500D01*
G01X252621Y184879D02*
X260000Y177500D01*
G01Y12500D02*
X267379Y5121D01*
G01X260000Y177500D02*
X267379Y184879D01*
G01X260000Y177500D02*
X267379Y170121D01*
G54D69*
X252502Y37582D03*
Y39550D03*
Y43487D03*
Y45456D03*
Y49393D03*
Y51361D03*
Y55298D03*
Y57267D03*
Y61204D03*
Y63172D03*
Y67109D03*
Y69078D03*
Y73015D03*
Y74983D03*
Y78920D03*
Y80889D03*
Y84826D03*
Y86794D03*
Y90731D03*
Y92700D03*
X275100Y37582D03*
Y39550D03*
Y43487D03*
Y45456D03*
Y49393D03*
Y51361D03*
Y55298D03*
Y57267D03*
Y61204D03*
Y63172D03*
Y67109D03*
Y69078D03*
Y73015D03*
Y74983D03*
Y78920D03*
Y80889D03*
Y84826D03*
Y86794D03*
Y90731D03*
Y92700D03*
G54D79*
G01X-18380Y100708D02*
X-38866D01*
X-40984Y98590D01*
Y90688D01*
G01X-18380Y112885D02*
X-38195D01*
X-40984Y115674D01*
Y122892D01*
G01X-18380Y121003D02*
X-20868D01*
X-22665Y119206D01*
X-32816D01*
X-34100Y120490D01*
Y126008D01*
X-40984Y132892D01*
G01X-5492Y168070D02*
X-8290Y165272D01*
Y151890D01*
X-10680Y149500D01*
X-40600D01*
G01X-38510Y145900D02*
X-40600D01*
G01Y163900D02*
X-24700D01*
G01X-40600Y156700D02*
X-24930D01*
X-24700Y156930D01*
G01X-40600Y171100D02*
X-24700D01*
G01X-40600Y178300D02*
X-24700D01*
G01X-40600Y185500D02*
X-24700D01*
G01X-35010Y-5859D02*
X-35700Y-6100D01*
G01X-29990Y-2060D02*
X-29400D01*
G01X-33628Y147868D02*
X-31752D01*
X-29784Y145900D01*
X-29570D01*
G01X-27850Y160300D02*
X-27700Y160450D01*
X-12250D01*
X-12100Y160300D01*
G01X-27850Y153100D02*
X-12280D01*
X-12030Y153350D01*
X-12000D01*
G01X-35718Y162268D02*
X-33618D01*
X-31650Y160300D01*
G01X-35718Y155068D02*
X-33618D01*
X-31650Y153100D01*
G01X-27850Y174700D02*
X-12100D01*
G01X-27850Y167500D02*
X-12100D01*
G01X-35718Y176668D02*
X-33618D01*
X-31650Y174700D01*
G01X-35718Y169468D02*
X-33618D01*
X-31650Y167500D01*
G01X-27850Y181900D02*
X-12100D01*
G01X-35718Y183868D02*
X-33618D01*
X-31650Y181900D01*
G01X-24890Y-5840D02*
X-25140D01*
X-25600Y-6300D01*
G01X-24890Y-2040D02*
Y-390D01*
G01X-14580Y116944D02*
Y117203D01*
X-18380Y121003D01*
G01X-25770Y145900D02*
X-11980D01*
G01X-15900Y156700D02*
X-18098Y158898D01*
X-19818D01*
G01Y165868D02*
X-17468D01*
X-15900Y164300D01*
G01X-19818Y173068D02*
X-17868D01*
X-15900Y171100D01*
G01X-19800Y191400D02*
Y187486D01*
X-19818Y187468D01*
G01Y180268D02*
X-17868D01*
X-15900Y178300D01*
G01X-14580Y92590D02*
Y96649D01*
G01Y108826D02*
Y104767D01*
G01Y100708D02*
X-12162D01*
G01X-14580Y96649D02*
Y100708D01*
G01Y116944D02*
X-12180D01*
G01X-14580Y112885D02*
Y108826D01*
G01Y112885D02*
X-12180D01*
G01X-7460Y172952D02*
Y176632D01*
X-7392Y176700D01*
G01X-1492Y140668D02*
Y143592D01*
X-1500Y143600D01*
G01X3508Y147908D02*
Y145808D01*
G01Y151708D02*
Y154400D01*
G01X-1500Y143600D02*
Y147900D01*
X-1492Y147908D01*
G01X-1200Y157300D02*
Y156040D01*
X540Y154300D01*
Y149940D01*
X-1492Y147908D01*
G01X3508Y155678D02*
Y154400D01*
G01Y164108D02*
Y166792D01*
G01X-3592Y176700D02*
X-1592Y174700D01*
X-1410D01*
G01X13100Y19109D02*
Y16702D01*
X12000Y15602D01*
G01X8904Y31500D02*
Y33203D01*
X12000Y36299D01*
G01X9500Y27400D02*
X9999D01*
X12000Y29401D01*
G01X9500Y23300D02*
X11201D01*
X12000Y22501D01*
G01X12100Y40620D02*
X15470D01*
X16870Y39220D01*
G01X17893Y44878D02*
Y40243D01*
X16870Y39220D01*
G01X19400Y77360D02*
Y69270D01*
X17893Y67763D01*
Y63078D01*
G01X8508Y147908D02*
Y145808D01*
G01X8500Y166800D02*
Y164116D01*
X8508Y164108D01*
G01X13500Y166900D02*
Y164116D01*
X13508Y164108D01*
G01X8508Y170132D02*
Y166808D01*
X8500Y166800D01*
G01X13500Y166900D02*
Y170124D01*
X13508Y170132D01*
G01X40300Y120400D02*
X36390D01*
X36158Y120632D01*
G01X36000Y147464D02*
Y147300D01*
X41415Y141885D01*
Y140815D01*
G01X38289Y168231D02*
X33850D01*
G01D02*
X36000Y170381D01*
Y174100D01*
X36500Y174600D01*
X38900D01*
X39363Y174137D01*
Y172500D01*
G01X52089Y116071D02*
X54360Y113800D01*
X56900D01*
G01X51983Y111971D02*
X55838D01*
X55953Y112086D01*
G01X51983Y107837D02*
X54246Y110100D01*
X58700D01*
X59500Y110900D01*
G01X54545Y164000D02*
Y168231D01*
G01X55379Y172500D02*
X52901D01*
X52060Y171659D01*
Y168840D01*
X52669Y168231D01*
X54545D01*
G01X69730Y27400D02*
X65810D01*
G01X60631Y93480D02*
X59700Y92549D01*
Y91800D01*
X57839Y89939D01*
Y89550D01*
G01X60631Y93480D02*
X61800Y92311D01*
Y91800D01*
X63739Y89861D01*
Y89550D01*
G01X61100Y86300D02*
X60600Y86800D01*
G01X57839Y85484D02*
X58655Y86300D01*
X60100D01*
G01D02*
X61100D01*
G01D02*
X62923D01*
X63739Y85484D01*
G01X60600Y86800D02*
X60100Y86300D01*
G01X60600Y86800D02*
Y90400D01*
G01X60625Y95343D02*
X59566D01*
X57839Y93616D01*
G01X60625Y95343D02*
X62012D01*
X63739Y93616D01*
G01X69730Y45700D02*
Y41600D01*
G01Y62200D02*
Y59900D01*
G01X72900Y92700D02*
X72936D01*
X73852Y93616D01*
G01X86700Y130203D02*
X86404D01*
X82400Y126199D01*
Y121732D01*
X75300Y114632D01*
Y106500D01*
X77000Y104800D01*
Y96764D01*
X73852Y93616D01*
G01Y103350D02*
X72421D01*
X72400Y103329D01*
G01X77500Y150200D02*
Y149200D01*
X77700Y149000D01*
G01X77481Y144200D02*
Y148781D01*
X77700Y149000D01*
G01X70513Y164000D02*
Y168231D01*
G01D02*
X68669D01*
X68000Y168900D01*
Y171600D01*
X68900Y172500D01*
X71395D01*
G01X90000Y130000D02*
X88600D01*
X83900Y125300D01*
Y121110D01*
X81000Y118210D01*
Y108722D01*
X79700Y107422D01*
Y80346D01*
X97881Y62165D01*
X101124D01*
X103889Y59400D01*
X105589D01*
X106089Y59900D01*
Y60300D01*
X106589Y60800D01*
X107589D01*
X108089Y60300D01*
Y59900D01*
X108589Y59400D01*
X109589D01*
X110089Y59900D01*
Y60300D01*
X110589Y60800D01*
X111589D01*
X112089Y60300D01*
Y59900D01*
X112589Y59400D01*
X113589D01*
X114089Y59900D01*
Y60300D01*
X114589Y60800D01*
X115589D01*
X116089Y60300D01*
Y59900D01*
X116589Y59400D01*
X117589D01*
X118089Y59900D01*
Y60300D01*
X118589Y60800D01*
X119589D01*
X120089Y60300D01*
Y59900D01*
X120589Y59400D01*
X121589D01*
X122089Y59900D01*
Y60300D01*
X122589Y60800D01*
X123589D01*
X124089Y60300D01*
Y59900D01*
X124589Y59400D01*
X125589D01*
X126089Y59900D01*
Y60300D01*
X126589Y60800D01*
X127589D01*
X128089Y60300D01*
Y59900D01*
X128589Y59400D01*
X163700D01*
X170000Y53100D01*
X186300D01*
X188200Y55000D01*
Y59000D01*
G01X180225Y70700D02*
Y72676D01*
X179651Y73250D01*
X174650D01*
X174100Y72700D01*
Y70722D01*
X173443Y70065D01*
X166534D01*
X163349Y73250D01*
X131591D01*
X131091Y72750D01*
Y70565D01*
X130591Y70065D01*
X129591D01*
X129091Y70565D01*
Y72750D01*
X128591Y73250D01*
X127591D01*
X127091Y72750D01*
Y70565D01*
X126591Y70065D01*
X125591D01*
X125091Y70565D01*
Y72750D01*
X124591Y73250D01*
X123591D01*
X123091Y72750D01*
Y70565D01*
X122591Y70065D01*
X121591D01*
X121091Y70565D01*
Y72750D01*
X120591Y73250D01*
X119591D01*
X119091Y72750D01*
Y70565D01*
X118591Y70065D01*
X117591D01*
X117091Y70565D01*
Y72750D01*
X116591Y73250D01*
X115591D01*
X115091Y72750D01*
Y70565D01*
X114591Y70065D01*
X113591D01*
X113091Y70565D01*
Y72750D01*
X112591Y73250D01*
X111591D01*
X111091Y72750D01*
Y70565D01*
X110591Y70065D01*
X109591D01*
X109091Y70565D01*
Y72750D01*
X108591Y73250D01*
X107591D01*
X107091Y72750D01*
Y70565D01*
X106591Y70065D01*
X105591D01*
X105091Y70565D01*
Y72750D01*
X104591Y73250D01*
X103591D01*
X103091Y72750D01*
Y70565D01*
X102591Y70065D01*
X101591D01*
X101091Y70565D01*
Y72750D01*
X100591Y73250D01*
X97406D01*
X88500Y82156D01*
Y115100D01*
X91400Y118000D01*
Y120690D01*
X95000Y124290D01*
X95796D01*
G01X176200Y70700D02*
X174065Y68565D01*
X163271D01*
X162771Y69065D01*
Y71250D01*
X162271Y71750D01*
X161271D01*
X160771Y71250D01*
Y69065D01*
X160271Y68565D01*
X159271D01*
X158771Y69065D01*
Y71250D01*
X158271Y71750D01*
X157271D01*
X156771Y71250D01*
Y69065D01*
X156271Y68565D01*
X155271D01*
X154771Y69065D01*
Y71250D01*
X154271Y71750D01*
X153271D01*
X152771Y71250D01*
Y69065D01*
X152271Y68565D01*
X151271D01*
X150771Y69065D01*
Y71250D01*
X150271Y71750D01*
X149271D01*
X148771Y71250D01*
Y69065D01*
X148271Y68565D01*
X147271D01*
X146771Y69065D01*
Y71250D01*
X146271Y71750D01*
X145271D01*
X144771Y71250D01*
Y69065D01*
X144271Y68565D01*
X143271D01*
X142771Y69065D01*
Y71250D01*
X142271Y71750D01*
X141271D01*
X140771Y71250D01*
Y69065D01*
X140271Y68565D01*
X139271D01*
X138771Y69065D01*
Y71250D01*
X138271Y71750D01*
X137271D01*
X136771Y71250D01*
Y69065D01*
X136271Y68565D01*
X135271D01*
X134771Y69065D01*
Y71250D01*
X134271Y71750D01*
X133271D01*
X132771Y71250D01*
Y69065D01*
X132271Y68565D01*
X99969D01*
X87000Y81534D01*
Y115722D01*
X89900Y118622D01*
Y122761D01*
X91070Y123931D01*
G01X184175Y59000D02*
Y56153D01*
X182622Y54600D01*
X170622D01*
X162922Y62300D01*
X160878D01*
X160378Y61800D01*
Y61400D01*
X159878Y60900D01*
X158878D01*
X158378Y61400D01*
Y61800D01*
X157878Y62300D01*
X156878D01*
X156378Y61800D01*
Y61400D01*
X155878Y60900D01*
X154878D01*
X154378Y61400D01*
Y61800D01*
X153878Y62300D01*
X152878D01*
X152378Y61800D01*
Y61400D01*
X151878Y60900D01*
X150878D01*
X150378Y61400D01*
Y61800D01*
X149878Y62300D01*
X148878D01*
X148378Y61800D01*
Y61400D01*
X147878Y60900D01*
X146878D01*
X146378Y61400D01*
Y61800D01*
X145878Y62300D01*
X144878D01*
X144378Y61800D01*
Y61400D01*
X143878Y60900D01*
X142878D01*
X142378Y61400D01*
Y61800D01*
X141878Y62300D01*
X140878D01*
X140378Y61800D01*
Y61400D01*
X139878Y60900D01*
X138878D01*
X138378Y61400D01*
Y61800D01*
X137878Y62300D01*
X136878D01*
X136378Y61800D01*
Y61400D01*
X135878Y60900D01*
X134878D01*
X134378Y61400D01*
Y61800D01*
X133878Y62300D01*
X132878D01*
X132378Y61800D01*
Y61400D01*
X131878Y60900D01*
X130878D01*
X130378Y61400D01*
Y61800D01*
X129878Y62300D01*
X103111D01*
X101746Y63665D01*
X98503D01*
X81200Y80968D01*
Y106800D01*
X82500Y108100D01*
Y117588D01*
X85400Y120488D01*
Y124627D01*
X89073Y128300D01*
X90300D01*
X91900Y129900D01*
Y130000D01*
G01X95700Y130050D02*
Y129379D01*
X91621Y125300D01*
X90317D01*
X88400Y123383D01*
Y119244D01*
X85500Y116344D01*
Y106800D01*
X84200Y105500D01*
Y82212D01*
X99512Y66900D01*
X150177D01*
X150677Y66400D01*
Y65800D01*
X151177Y65300D01*
X152177D01*
X152677Y65800D01*
Y66400D01*
X153177Y66900D01*
X154177D01*
X154677Y66400D01*
Y65800D01*
X155177Y65300D01*
X156177D01*
X156677Y65800D01*
Y66400D01*
X157177Y66900D01*
X158177D01*
X158677Y66400D01*
Y65800D01*
X159177Y65300D01*
X160177D01*
X160677Y65800D01*
Y66400D01*
X161177Y66900D01*
X162177D01*
X162677Y66400D01*
Y65800D01*
X163177Y65300D01*
X164177D01*
X164677Y65800D01*
Y66400D01*
X165177Y66900D01*
X166177D01*
X166677Y66400D01*
Y65800D01*
X167177Y65300D01*
X168177D01*
X168677Y65800D01*
Y66400D01*
X169177Y66900D01*
X172400D01*
X173300Y66000D01*
Y64200D01*
X172800Y63700D01*
X170000D01*
X169500Y63200D01*
Y62200D01*
X170000Y61700D01*
X172800D01*
X173300Y61200D01*
Y59500D01*
X173800Y59000D01*
X176125D01*
G01X93800Y130203D02*
Y129601D01*
X90999Y126800D01*
X89695D01*
X86900Y124005D01*
Y119866D01*
X84000Y116966D01*
Y107422D01*
X82700Y106122D01*
Y81590D01*
X99125Y65165D01*
X102368D01*
X103733Y63800D01*
X105433D01*
X105933Y64300D01*
Y64900D01*
X106433Y65400D01*
X107433D01*
X107933Y64900D01*
Y64300D01*
X108433Y63800D01*
X109433D01*
X109933Y64300D01*
Y64900D01*
X110433Y65400D01*
X111433D01*
X111933Y64900D01*
Y64300D01*
X112433Y63800D01*
X113433D01*
X113933Y64300D01*
Y64900D01*
X114433Y65400D01*
X115433D01*
X115933Y64900D01*
Y64300D01*
X116433Y63800D01*
X117433D01*
X117933Y64300D01*
Y64900D01*
X118433Y65400D01*
X119433D01*
X119933Y64900D01*
Y64300D01*
X120433Y63800D01*
X121433D01*
X121933Y64300D01*
Y64900D01*
X122433Y65400D01*
X123433D01*
X123933Y64900D01*
Y64300D01*
X124433Y63800D01*
X125433D01*
X125933Y64300D01*
Y64900D01*
X126433Y65400D01*
X127433D01*
X127933Y64900D01*
Y64300D01*
X128433Y63800D01*
X129433D01*
X129933Y64300D01*
Y64900D01*
X130433Y65400D01*
X131433D01*
X131933Y64900D01*
Y64300D01*
X132433Y63800D01*
X133433D01*
X133933Y64300D01*
Y64900D01*
X134433Y65400D01*
X135433D01*
X135933Y64900D01*
Y64300D01*
X136433Y63800D01*
X137433D01*
X137933Y64300D01*
Y64900D01*
X138433Y65400D01*
X139433D01*
X139933Y64900D01*
Y64300D01*
X140433Y63800D01*
X141433D01*
X141933Y64300D01*
Y64900D01*
X142433Y65400D01*
X143433D01*
X143933Y64900D01*
Y64300D01*
X144433Y63800D01*
X145433D01*
X145933Y64300D01*
Y64900D01*
X146433Y65400D01*
X147433D01*
X147933Y64900D01*
Y64300D01*
X148433Y63800D01*
X163544D01*
X171244Y56100D01*
X179500D01*
X180150Y56750D01*
Y59000D01*
G01X97602Y130200D02*
X100300Y127502D01*
Y122278D01*
X91500Y113478D01*
Y83400D01*
X95860Y79040D01*
X98650D01*
X99150Y78540D01*
Y76750D01*
X99650Y76250D01*
X100650D01*
X101150Y76750D01*
Y78540D01*
X101650Y79040D01*
X102650D01*
X103150Y78540D01*
Y76750D01*
X103650Y76250D01*
X104650D01*
X105150Y76750D01*
Y78540D01*
X105650Y79040D01*
X106650D01*
X107150Y78540D01*
Y76750D01*
X107650Y76250D01*
X108650D01*
X109150Y76750D01*
Y78540D01*
X109650Y79040D01*
X110650D01*
X111150Y78540D01*
Y76750D01*
X111650Y76250D01*
X112650D01*
X113150Y76750D01*
Y78540D01*
X113650Y79040D01*
X114650D01*
X115150Y78540D01*
Y76750D01*
X115650Y76250D01*
X116650D01*
X117150Y76750D01*
Y78540D01*
X117650Y79040D01*
X118650D01*
X119150Y78540D01*
Y76750D01*
X119650Y76250D01*
X120650D01*
X121150Y76750D01*
Y78540D01*
X121650Y79040D01*
X122650D01*
X123150Y78540D01*
Y76750D01*
X123650Y76250D01*
X124650D01*
X125150Y76750D01*
Y78540D01*
X125650Y79040D01*
X126650D01*
X127150Y78540D01*
Y76750D01*
X127650Y76250D01*
X128650D01*
X129150Y76750D01*
Y78540D01*
X129650Y79040D01*
X130650D01*
X131150Y78540D01*
Y76750D01*
X131650Y76250D01*
X132650D01*
X133150Y76750D01*
Y78540D01*
X133650Y79040D01*
X134650D01*
X135150Y78540D01*
Y76750D01*
X135650Y76250D01*
X136650D01*
X137150Y76750D01*
Y78540D01*
X137650Y79040D01*
X186159D01*
X188275Y76924D01*
Y70700D01*
G01X95806Y122338D02*
X92900Y119432D01*
Y117000D01*
X90000Y114100D01*
Y82778D01*
X98028Y74750D01*
X139625D01*
X140125Y75250D01*
Y77040D01*
X140625Y77540D01*
X141625D01*
X142125Y77040D01*
Y75250D01*
X142625Y74750D01*
X143625D01*
X144125Y75250D01*
Y77040D01*
X144625Y77540D01*
X145625D01*
X146125Y77040D01*
Y75250D01*
X146625Y74750D01*
X147625D01*
X148125Y75250D01*
Y77040D01*
X148625Y77540D01*
X149625D01*
X150125Y77040D01*
Y75250D01*
X150625Y74750D01*
X151625D01*
X152125Y75250D01*
Y77040D01*
X152625Y77540D01*
X153625D01*
X154125Y77040D01*
Y75250D01*
X154625Y74750D01*
X155625D01*
X156125Y75250D01*
Y77040D01*
X156625Y77540D01*
X157625D01*
X158125Y77040D01*
Y75250D01*
X158625Y74750D01*
X159625D01*
X160125Y75250D01*
Y77040D01*
X160625Y77540D01*
X161625D01*
X162125Y77040D01*
Y75250D01*
X162625Y74750D01*
X163625D01*
X164125Y75250D01*
Y77040D01*
X164625Y77540D01*
X165625D01*
X166125Y77040D01*
Y75250D01*
X166625Y74750D01*
X167625D01*
X168125Y75250D01*
Y77040D01*
X168625Y77540D01*
X169625D01*
X170125Y77040D01*
Y72350D01*
X170625Y71850D01*
X171625D01*
X172125Y72350D01*
Y77040D01*
X172625Y77540D01*
X173625D01*
X174125Y77040D01*
Y75250D01*
X174625Y74750D01*
X175625D01*
X176125Y75250D01*
Y77040D01*
X176625Y77540D01*
X177625D01*
X178125Y77040D01*
Y75250D01*
X178625Y74750D01*
X179625D01*
X180125Y75250D01*
Y77040D01*
X180625Y77540D01*
X181625D01*
X182125Y77040D01*
Y75250D01*
X182625Y74750D01*
X183750D01*
X184250Y74250D01*
Y70700D01*
G01X82400Y132200D02*
X86700D01*
G01Y130203D02*
Y132200D01*
G01X86505Y168231D02*
Y167800D01*
X90305Y164000D01*
G01X86505Y168231D02*
X84569D01*
X84000Y168800D01*
Y171400D01*
X85100Y172500D01*
X87411D01*
G01X80000Y185000D02*
X84200Y189200D01*
X122100D01*
X124000Y187300D01*
Y185339D01*
X125839Y183500D01*
G01X125800Y185600D02*
X125700Y185700D01*
Y187700D01*
X122700Y190700D01*
X84300D01*
X80000Y195000D01*
G01X101800Y144787D02*
X102913D01*
X107700Y140000D01*
X114501D01*
X116123Y138378D01*
G01X102965Y151261D02*
Y148235D01*
X104000Y147200D01*
X106822D01*
X107449Y147827D01*
X109823D01*
G01X102965Y162861D02*
Y165775D01*
X104080Y166890D01*
X106670D01*
X108710Y164850D01*
Y162461D01*
G01X102390Y168231D02*
X101005Y166846D01*
Y162861D01*
G01X102390Y168231D02*
X99951Y170670D01*
X94490D01*
G01X102390Y168231D02*
X102719Y168560D01*
X106590D01*
X108160Y170130D01*
Y173082D01*
X115778Y180700D01*
X133669D01*
X139839Y174530D01*
G01X112973Y144677D02*
X111400Y146250D01*
Y154740D01*
X117711Y161051D01*
Y167311D01*
X119900Y169500D01*
X142300D01*
X144200Y171400D01*
Y178500D01*
X146400Y180700D01*
X185100D01*
X187800Y178000D01*
Y162200D01*
X192500Y157500D01*
X202000D01*
X203086Y156414D01*
Y154700D01*
G01X139523Y160100D02*
Y164877D01*
X136639Y167761D01*
X122661D01*
X121050Y166150D01*
Y156200D01*
X120550Y155700D01*
X118700D01*
X117655Y154655D01*
Y152955D01*
X117300Y152600D01*
X115500D01*
X114500Y151600D01*
Y146300D01*
X116123Y144677D01*
G01X119200Y160276D02*
X117689Y158765D01*
Y156811D01*
X116578Y155700D01*
X115100D01*
X112973Y153573D01*
Y150977D01*
G01X104935Y151261D02*
Y149201D01*
X105436Y148700D01*
X106200D01*
X106700Y149200D01*
Y150526D01*
G01X108710Y162461D02*
X110040Y163791D01*
Y172840D01*
X116400Y179200D01*
X125169D01*
X129839Y174530D01*
G01X122422Y150977D02*
X123899Y149500D01*
X126700D01*
X127300Y150100D01*
Y151650D01*
X128150Y152500D01*
X139450D01*
X146250Y159300D01*
G01X125000Y193650D02*
Y191400D01*
X127000Y189400D01*
X184400D01*
X190000Y195000D01*
G01X131871Y138378D02*
X133600Y140107D01*
Y141393D01*
G01X128721Y135229D02*
X130400Y136908D01*
Y142301D01*
X133600Y145501D01*
G01X135020Y135229D02*
X135586D01*
X137315Y133500D01*
G01D02*
X143198Y139383D01*
Y139690D01*
G01X142072Y148368D02*
X141040Y149400D01*
X134100D01*
X133600Y148900D01*
Y145501D01*
G01X201300Y156000D02*
X191878D01*
X186300Y161578D01*
Y177378D01*
X184478Y179200D01*
X147022D01*
X145700Y177878D01*
Y170400D01*
X143323Y168023D01*
Y160100D01*
G01X144800Y193650D02*
Y193500D01*
X147400Y190900D01*
X162000D01*
X165200Y194100D01*
G01X200783Y56687D02*
X198913D01*
X196500Y59100D01*
Y79400D01*
X188200Y87700D01*
X177100D01*
X175900Y86500D01*
X168800D01*
X165700Y89600D01*
X156500D01*
X155400Y90700D01*
Y99101D01*
X153916Y100585D01*
G01X171300Y24720D02*
X168070Y21490D01*
Y14430D01*
X175000Y7500D01*
Y5450D01*
G01X171300Y27520D02*
X165905Y22125D01*
Y2245D01*
X166999Y1150D01*
X186150D01*
X190000Y5000D01*
G01X171300Y30320D02*
X170850Y29870D01*
Y29192D01*
X164400Y22742D01*
Y1627D01*
X166377Y-350D01*
X185350D01*
X190000Y-5000D01*
G01X171300Y19120D02*
Y15990D01*
X172000Y15290D01*
X176960D01*
X178280Y13970D01*
X190736D01*
X195316Y9390D01*
X203510D01*
X205000Y7900D01*
Y0D01*
X200000Y-5000D01*
G01X171300Y21920D02*
X169750Y20370D01*
Y15418D01*
X171378Y13790D01*
X176240D01*
X177560Y12470D01*
X190114D01*
X194694Y7890D01*
X197110D01*
X200000Y5000D01*
G01X173500Y19120D02*
X173520Y19100D01*
X179810D01*
X180450Y19740D01*
Y21291D01*
G01X173500Y21920D02*
X174520D01*
X176450Y23850D01*
X177891D01*
G01Y25425D02*
X174205D01*
X173500Y24720D01*
G01X177891Y27000D02*
X174020D01*
X173500Y27520D01*
G01X177891Y28575D02*
X175245D01*
X173500Y30320D01*
G01X178420Y17450D02*
Y16460D01*
X179310Y15570D01*
X191258D01*
X195938Y10890D01*
X207860D01*
X210000Y8750D01*
Y5000D01*
G01X185260Y17450D02*
X185640Y17070D01*
X191880D01*
X196560Y12390D01*
X211260D01*
X214520Y9130D01*
Y-480D01*
X210000Y-5000D01*
G01X183600Y21291D02*
Y17990D01*
X183060Y17450D01*
G01X182025Y21291D02*
Y18855D01*
X180620Y17450D01*
G01X182025Y32709D02*
Y35885D01*
X180390Y37520D01*
G01X183600Y32709D02*
Y36660D01*
X184460Y37520D01*
G01X185175Y32709D02*
Y34575D01*
X188120Y37520D01*
X188530D01*
G01X180450Y32709D02*
Y33390D01*
X176320Y37520D01*
G01X189309Y30150D02*
X190069D01*
X190600Y30681D01*
Y32700D01*
X191100Y33200D01*
X195900D01*
X196670Y33970D01*
Y37520D01*
G01X186750Y32709D02*
Y33880D01*
X187570Y34700D01*
X189780D01*
X192600Y37520D01*
G01X198100Y97200D02*
X198085Y97215D01*
Y98300D01*
G01X202196Y92884D02*
X199301D01*
X198085Y94100D01*
G01D02*
Y94500D01*
X194285Y98300D01*
G01X187800Y148100D02*
X192300D01*
G01X187800D02*
X188400Y147500D01*
Y144830D01*
G01X191753Y162600D02*
Y166740D01*
G01D02*
X189600Y168893D01*
Y171854D01*
X190100Y172354D01*
X193069D01*
G01X204778Y23720D02*
X201480D01*
X200600Y24600D01*
Y27800D01*
G01X206480Y58370D02*
Y59290D01*
G01X202838Y98490D02*
X202605D01*
X202415Y98300D01*
X201970D01*
G01X206600Y126123D02*
Y126130D01*
X207970Y127500D01*
X208700D01*
G01D02*
X209383D01*
X210760Y126123D01*
X210800D01*
G01X211756Y128800D02*
X210516Y130040D01*
X203460D01*
X202200Y131300D01*
Y135000D01*
G01X206400Y138800D02*
X210600D01*
G01X210100Y139400D02*
Y139300D01*
X210600Y138800D01*
G01X202613Y150568D02*
X206291D01*
X206359Y150636D01*
G01X201408Y153708D02*
X202613Y152503D01*
Y150568D01*
G01X223800Y171947D02*
Y174000D01*
X219800Y178000D01*
X205213D01*
X202350Y175137D01*
Y172750D01*
X202746Y172354D01*
X205669D01*
G01X214970Y62040D02*
Y62320D01*
X215310Y62660D01*
G01X219150Y62060D02*
Y62470D01*
X219650Y62970D01*
X220240D01*
G01X214850Y66350D02*
X215800D01*
X215975Y66175D01*
G01X237920Y103670D02*
X236120Y105470D01*
X234250D01*
X230510Y109210D01*
Y113852D01*
X222901Y121461D01*
X218661D01*
G01X211600Y118440D02*
X211766Y118274D01*
X212954D01*
X216141Y121461D01*
X218661D01*
G01X233723Y103670D02*
X229010Y108383D01*
Y113230D01*
X225109Y117131D01*
X218661D01*
G01X210800Y126123D02*
X213124D01*
X217124Y130123D01*
X218661D01*
G01X210600Y138800D02*
X218645D01*
X218661Y138784D01*
G01X219740Y134018D02*
X219892Y134170D01*
Y134454D01*
G01X218661Y147446D02*
Y152506D01*
X212421Y158746D01*
X210700D01*
G01X218661Y143115D02*
X210815D01*
X210700Y143000D01*
G01D02*
Y148127D01*
X211241Y148668D01*
G01D02*
Y153859D01*
X210700Y154400D01*
G01X223800Y171947D02*
X220000Y168147D01*
X219660D01*
G01X225300Y103693D02*
Y109074D01*
X224920Y109454D01*
G01X229560Y103670D02*
X225323D01*
X225300Y103693D01*
G01X223800Y110500D02*
Y110400D01*
X224746Y109454D01*
X224920D01*
G01X252502Y90731D02*
X245400D01*
G01X253200Y94050D02*
Y93400D01*
X252502Y92702D01*
Y92700D01*
G01X254600Y94000D02*
Y93700D01*
X254550Y93650D01*
Y93490D01*
X253760Y92700D01*
X252502D01*
G01X275100D02*
X279000D01*
X279646Y93346D01*
Y94054D01*
X277500Y96200D01*
X275600D01*
G01X275100Y90731D02*
X279153D01*
X281146Y92724D01*
Y94676D01*
X278022Y97800D01*
X274100D01*
G01X-32500Y-12500D02*
X232500D01*
G03X282500Y37500I0J50000D01*
G01Y152500D01*
G03X232500Y202500I-50000J0D01*
G01X-32500D01*
G03X-57500Y177500I0J-25000D01*
G01Y12500D01*
G03X-32500Y-12500I25000J0D01*
M02*
