G04 ================== begin FILE IDENTIFICATION RECORD ==================*
G04 Layout Name:  BEAGLEV FIRE_REV A_230911.brd*
G04 Film Name:    LAY10*
G04 File Format:  Gerber RS274X*
G04 File Origin:  Cadence Allegro 17.4-S031*
G04 Origin Date:  Tue Sep 26 15:21:00 2023*
G04 *
G04 Layer:  VIA CLASS/L10_SIG3*
G04 Layer:  PIN/L10_SIG3*
G04 Layer:  ETCH/L10_SIG3*
G04 Layer:  BOARD GEOMETRY/OUTLINE*
G04 *
G04 Offset:    (0.00 0.00)*
G04 Mirror:    No*
G04 Mode:      Positive*
G04 Rotation:  0*
G04 FullContactRelief:  No*
G04 UndefLineWidth:     5.00*
G04 ================== end FILE IDENTIFICATION RECORD ====================*
%FSLAX25Y25*MOIN*%
%IR0*IPPOS*OFA0.00000B0.00000*MIA0B0*SFA1.00000B1.00000*%
%ADD11C,.014*%
%ADD17C,.06*%
%ADD18C,.04331*%
%ADD13C,.02362*%
%ADD12C,.04724*%
%ADD19C,.06299*%
%ADD16C,.175*%
%ADD14C,.12795*%
%ADD10O,.06299X.0315*%
%ADD15O,.07874X.04331*%
%ADD20C,.01*%
%ADD21C,.02*%
%ADD22C,.024*%
%ADD23C,.004*%
%ADD24C,.005*%
%ADD25C,.0034*%
%ADD26C,.02404*%
G75*
%LPD*%
G75*
G36*
G01X-35500Y201500D02*
X233000D01*
X239500Y201000D01*
X244500Y200000D01*
X250500Y198000D01*
X255000Y196000D01*
X261500Y192000D01*
X268500Y185500D01*
X271000Y182500D01*
X273500Y178500D01*
Y172500D01*
X270000Y169000D01*
X266446D01*
G02X266197Y169713I0J400D01*
G03X269952Y177500I-6197J7787D01*
G03X260000Y187452I-9952J0D01*
G03X252213Y183697I0J-9952D01*
G02X251500Y183946I-313J249D01*
G01Y193000D01*
X249500Y195000D01*
X244500Y198000D01*
X244250Y198250D01*
X242000Y199000D01*
X238500Y199500D01*
X237000Y200000D01*
X10500D01*
X8500Y198000D01*
Y196414D01*
G02X7787Y196165I-400J0D01*
G03X-10Y199932I-7797J-6186D01*
G03X-7787Y196189I0J-9951D01*
G02X-8500Y196439I-313J249D01*
G01Y197500D01*
X-11000Y200000D01*
X-33500D01*
X-35500Y199500D01*
X-39000Y198000D01*
X-39500D01*
X-42500Y197000D01*
X-51000Y188500D01*
X-53000Y184500D01*
Y144910D01*
X-49620Y141530D01*
X-15960D01*
X-12700Y138270D01*
Y137020D01*
X-13220Y136500D01*
X-16470D01*
X-18040Y138070D01*
X-49430D01*
X-53000Y134500D01*
Y78040D01*
X-50420Y75460D01*
X-18120D01*
X-16080Y77500D01*
X-10500D01*
X-9455Y76455D01*
X-12300Y73610D01*
X-50240D01*
X-53000Y70850D01*
Y47500D01*
X-50156Y44656D01*
G02X-50439Y43974I-283J-282D01*
G01X-51408D01*
G03Y38420I0J-2777D01*
G01X-48258D01*
G03X-45685Y42240I0J2777D01*
G02X-45315Y42790I371J150D01*
G01X-32150D01*
X-30840Y41480D01*
Y40810D01*
X-32030Y39620D01*
X-41270D01*
X-44500Y36390D01*
Y12500D01*
X-40910Y8910D01*
X-32110D01*
X-30525Y7325D01*
Y6975D01*
X-31710Y5790D01*
X-42000D01*
X-44500Y3290D01*
Y-1194D01*
G03X-46364Y-4500I2000J-3306D01*
G03X-42500Y-8364I3864J0D01*
G03X-41936Y-8323I3J3864D01*
G01X-41873Y-8313D01*
X-40500Y-9000D01*
X-34500Y-10500D01*
X-20000D01*
X-17500Y-8000D01*
Y1000D01*
X-12500Y6000D01*
X-8706D01*
G02X-8370Y5384I-1J-400D01*
G03X-9553Y2791I8370J-5385D01*
G02X-10177Y2584I-384J112D01*
G03X-12500Y3360I-2323J-3089D01*
G03X-16364Y-504I0J-3864D01*
G03X-13848Y-4125I3864J0D01*
G02Y-4875I-140J-375D01*
G03X-16364Y-8496I1348J-3621D01*
G03X-15560Y-10856I3864J-1D01*
G02X-15876Y-11500I-317J-244D01*
G01X-35500D01*
X-37500Y-11000D01*
X-40000Y-10500D01*
X-43000Y-9500D01*
X-46000Y-7500D01*
X-47500Y-6000D01*
X-51500Y-1500D01*
X-53500Y2000D01*
X-55000Y5000D01*
X-56000Y9000D01*
X-56500Y10500D01*
Y180500D01*
X-55500Y184500D01*
X-54000Y188500D01*
X-52000Y191500D01*
X-49000Y195000D01*
X-46000Y197500D01*
X-43000Y199000D01*
X-40500Y200000D01*
X-37500Y201000D01*
X-35500Y201500D01*
G37*
G36*
G01X251500Y6054D02*
G02X252213Y6303I400J0D01*
G03X260000Y2548I7787J6197D01*
G03X267306Y5743I0J9951D01*
G02X268000Y5471I294J-271D01*
G01Y4000D01*
X264000Y500D01*
X261500Y-1500D01*
X255500Y-5500D01*
X251000Y-7500D01*
X247500Y-9000D01*
X245000Y-10000D01*
X241500Y-10500D01*
X239500Y-11000D01*
X238500D01*
X237000Y-11500D01*
X-9124D01*
G02X-9440Y-10856I1J400D01*
G03X-8636Y-8496I-3060J2359D01*
G03X-11152Y-4875I-3864J0D01*
G02Y-4125I140J375D01*
G03X-9936Y-3395I-1347J3622D01*
G02X-9297Y-3551I266J-299D01*
G03X0Y-9952I9297J3551D01*
G03X7787Y-6197I0J9952D01*
G02X8500Y-6446I313J-249D01*
G01Y-9500D01*
X9000Y-10000D01*
X237500D01*
X243500Y-9000D01*
X245000Y-8000D01*
X251500Y-1500D01*
Y6054D01*
G37*
G36*
G01X7727Y66500D02*
X13900D01*
X17900Y62500D01*
Y23700D01*
X20700Y20900D01*
X39000D01*
X44000Y15900D01*
Y-6700D01*
X42700Y-8000D01*
X37100D01*
X35800Y-6700D01*
Y5900D01*
X33500Y8200D01*
X30579D01*
X30562Y8203D01*
G03X30000Y8252I-562J-3203D01*
G03X29438Y8203I0J-3252D01*
G01X29421Y8200D01*
X20579D01*
X20562Y8203D01*
G03X20000Y8252I-562J-3203D01*
G03X19438Y8203I0J-3252D01*
G01X19421Y8200D01*
X9400D01*
X5650Y11950D01*
G02X5695Y12554I283J283D01*
G03X6182Y13520I-715J966D01*
G03X4980Y14722I-1202J0D01*
G03X4014Y14235I0J-1202D01*
G02X3410Y14190I-321J238D01*
G01X-3400Y21000D01*
Y23074D01*
G02X-2895Y23460I400J0D01*
G03X-2580Y23418I315J1160D01*
G03X-1378Y24620I0J1202D01*
G03X-2351Y25800I-1202J0D01*
G02X-2511Y26025I38J196D01*
G03X-2816Y27014I-1188J175D01*
G01X-2869Y27072D01*
Y27228D01*
X-2816Y27286D01*
G03X-2498Y28100I-883J814D01*
G03X-3271Y29223I-1202J0D01*
G01X-3400Y29272D01*
Y52955D01*
X-3227Y52979D01*
G03Y55361I-164J1191D01*
G01X-3400Y55385D01*
Y65700D01*
X-2600Y66500D01*
X6453D01*
X6499Y66474D01*
G03X7089Y66319I590J1047D01*
G01X7091D01*
G03X7681Y66474I0J1202D01*
G01X7727Y66500D01*
G37*
G36*
G01X22800Y55500D02*
X48400D01*
X50700Y53200D01*
Y31400D01*
X50400Y31100D01*
X44500D01*
X44000Y31600D01*
Y41500D01*
X42700Y42800D01*
X28600D01*
X27400Y41600D01*
Y31700D01*
X26800Y31100D01*
X20800D01*
X20500Y31400D01*
Y53200D01*
X22800Y55500D01*
G37*
%LPC*%
G75*
G36*
G01X-51408Y10116D02*
X-48258D01*
G02Y4562I0J-2777D01*
G01X-51408D01*
G02Y10116I0J2777D01*
G37*
G36*
G01X9040Y52778D02*
G02X9028Y52950I1190J169D01*
G02X10230Y51748I1202J0D01*
G02X10092Y51756I0J1202D01*
G03X9650Y51302I-46J-397D01*
G02X9662Y51130I-1190J-169D01*
G02X8647Y49943I-1202J0D01*
G01Y49935D01*
G02X6243I-1202J0D01*
G02X7258Y51122I1202J0D01*
G01Y51130D01*
G02X8460Y52332I1202J0D01*
G02X8598Y52324I0J-1202D01*
G03X9040Y52778I46J397D01*
G37*
G36*
G01X4281Y37500D02*
G02X4018Y38250I938J750D01*
G02X5220Y39452I1202J0D01*
G02X5970Y39189I0J-1201D01*
G02X6720Y39452I750J-938D01*
G02X7922Y38250I0J-1202D01*
G02X7659Y37500I-1201J0D01*
G02X7896Y36998I-939J-750D01*
G03X8440Y36711I391J83D01*
G02X8900Y36802I459J-1111D01*
G02Y34398I0J-1202D01*
G02X8083Y34718I0J1203D01*
G03X7772Y34668I-136J-146D01*
G02X7659Y34500I-1050J584D01*
G02X7922Y33750I-938J-750D01*
G02X6720Y32548I-1202J0D01*
G02X5970Y32811I0J1201D01*
G02X5220Y32548I-750J938D01*
G02X4018Y33750I0J1202D01*
G02X4281Y34500I1201J0D01*
G02Y36000I938J750D01*
G02Y37500I938J750D01*
G37*
G36*
G01X-48Y49730D02*
G02X-980Y49288I-931J760D01*
G02Y51692I0J1202D01*
G02X-48Y51250I1J-1202D01*
G03X571I310J252D01*
G02X1503Y51692I931J-760D01*
G02Y49288I0J-1202D01*
G02X571Y49730I-1J1202D01*
G03X-48I-309J-252D01*
G37*
G36*
G01X21961Y40450D02*
G02Y41950I938J750D01*
G02X21698Y42700I938J750D01*
G02X24102I1202J0D01*
G02X23839Y41950I-1201J0D01*
G02Y40450I-938J-750D01*
G02X24102Y39700I-938J-750D01*
G02X21698I-1202J0D01*
G02X21961Y40450I1201J0D01*
G37*
G36*
G01X47361D02*
G02Y41950I938J750D01*
G02X47098Y42700I938J750D01*
G02X49502I1202J0D01*
G02X49239Y41950I-1201J0D01*
G02Y40450I-938J-750D01*
G02X49502Y39700I-938J-750D01*
G02X47098I-1202J0D01*
G02X47361Y40450I1201J0D01*
G37*
G36*
G01X30956Y48412D02*
G03X31491Y48671I151J370D01*
G02X32645Y49536I1154J-337D01*
G02X33797Y48678I0J-1202D01*
G03X34289Y48407I383J114D01*
G02X34615Y48452I326J-1158D01*
G02X35459Y48105I-1J-1202D01*
G03X35741I141J143D01*
G02X36585Y48452I845J-855D01*
G02X37429Y48105I-1J-1202D01*
G03X37711I141J143D01*
G02X38555Y48452I845J-855D01*
G02X39339Y48161I0J-1202D01*
G03X39874Y48174I260J303D01*
G02X40700Y48502I825J-874D01*
G02X41450Y48239I0J-1201D01*
G02X42200Y48502I750J-938D01*
G02X42965Y48227I0J-1202D01*
G02X43730Y48502I765J-927D01*
G02Y46098I0J-1202D01*
G02X42965Y46373I0J1202D01*
G02X42200Y46098I-765J927D01*
G02X41450Y46361I0J1201D01*
G02X40700Y46098I-750J938D01*
G02X39916Y46389I0J1202D01*
G03X39381Y46376I-260J-303D01*
G02X38555Y46048I-825J874D01*
G02X37711Y46395I1J1202D01*
G03X37429I-141J-143D01*
G02X36585Y46048I-845J855D01*
G02X35741Y46395I1J1202D01*
G03X35459I-141J-143D01*
G02X34615Y46048I-845J855D01*
G02X33463Y46906I0J1202D01*
G03X32971Y47177I-383J-114D01*
G02X32645Y47132I-326J1158D01*
G02X32189Y47222I0J1202D01*
G03X31654Y46963I-151J-370D01*
G02X30500Y46098I-1154J337D01*
G02X29750Y46361I0J1201D01*
G02X29000Y46098I-750J938D01*
G02X28235Y46373I0J1202D01*
G02X27470Y46098I-765J927D01*
G02Y48502I0J1202D01*
G02X28235Y48227I0J-1202D01*
G02X29000Y48502I765J-927D01*
G02X29750Y48239I0J-1201D01*
G02X30500Y48502I750J-938D01*
G02X30956Y48412I0J-1202D01*
G37*
G54D26*
X9040Y11440D03*
X13100Y19109D03*
X2187Y31470D03*
X8904Y31500D03*
X-962D03*
X9500Y27400D03*
Y23300D03*
X12100Y40620D03*
X15600Y35600D03*
X10080Y44750D03*
%LPD*%
G75*
G54D10*
X-49833Y7339D03*
Y41197D03*
X-33297Y7339D03*
Y41197D03*
G54D20*
G01X-23016Y108826D02*
Y92590D01*
G01Y108826D02*
Y118154D01*
X-20167Y121003D01*
X-11393D01*
G01X55600Y115400D02*
X55500Y115300D01*
X44840D01*
X41440Y118700D01*
X19400D01*
X14580Y123520D01*
X7030D01*
X2716Y119206D01*
X-9596D01*
X-11393Y121003D01*
G01X73650Y113724D02*
X79276D01*
X89000Y104000D01*
Y93200D01*
X92900Y89300D01*
G54D11*
X-52100Y2800D03*
X-55400Y13700D03*
X-52400Y17503D03*
Y19396D03*
Y21403D03*
Y29707D03*
Y31600D03*
Y33607D03*
X-55500Y45200D03*
X-55400Y53700D03*
Y63700D03*
Y73700D03*
Y93700D03*
Y83700D03*
Y103700D03*
Y113700D03*
Y123700D03*
Y133700D03*
X-48500Y-1500D03*
X-46000Y2700D03*
X-49170Y74420D03*
X-39170D03*
X-29170D03*
X-17900Y-10700D03*
X-19170Y74420D03*
X-23016Y92590D03*
Y108826D03*
X-7500Y-10700D03*
X-12162Y100708D03*
X-12180Y116944D03*
Y112885D03*
X-11393Y121003D03*
X800Y-10700D03*
X1380Y60700D03*
Y62200D03*
Y63700D03*
Y65200D03*
X-120Y60700D03*
Y62200D03*
Y63700D03*
Y65200D03*
X9800Y-10700D03*
X19800D03*
X16900Y200800D03*
X29800Y-10700D03*
X22900Y33700D03*
Y31800D03*
X21300Y33700D03*
Y31800D03*
X22900Y35600D03*
Y37400D03*
X21300Y35600D03*
Y37400D03*
X30950Y50485D03*
Y52485D03*
Y54485D03*
X28450D03*
Y52485D03*
X26900Y200800D03*
X39800Y-10700D03*
X33450Y54485D03*
X35950D03*
Y50485D03*
Y52485D03*
X33450D03*
Y50485D03*
X38450Y54485D03*
Y52485D03*
Y50485D03*
X37394Y170531D03*
X39363D03*
X41331D03*
X43300D03*
X36900Y200800D03*
X49800Y-10700D03*
X48300Y33600D03*
Y31800D03*
X49900D03*
Y33600D03*
X48300Y35500D03*
Y37400D03*
X49900Y35500D03*
Y37400D03*
X52500Y58300D03*
X49600D03*
X51100Y59700D03*
X54000Y59900D03*
X55953Y112086D03*
X55600Y115400D03*
X47989Y120900D03*
X50589D03*
X53189D03*
X55789D03*
X46900Y200800D03*
X59800Y-10700D03*
X56900Y113800D03*
X60800Y117610D03*
X59500Y110900D03*
X59600Y119000D03*
X67700Y126900D03*
X65800Y128700D03*
X57347Y170531D03*
X59316D03*
X56900Y200800D03*
X66900D03*
X69800Y-10700D03*
X79800D03*
X79870Y16910D03*
X69730Y27400D03*
Y45700D03*
X78069Y38394D03*
X79669Y56694D03*
X69730Y62200D03*
X73650Y113724D03*
X75084Y126716D03*
X69600Y128300D03*
X72000Y126900D03*
X73684Y128600D03*
X78000Y126800D03*
X79500Y128500D03*
X69426Y170531D03*
X71395D03*
X76900Y200800D03*
X89800Y-10700D03*
X82500Y128500D03*
X80900Y126700D03*
X85442Y170531D03*
X89379D03*
X87411D03*
X91348D03*
X86900Y200800D03*
X99800Y-10700D03*
X92900Y89300D03*
X96900Y200800D03*
X109800Y-10700D03*
X111306Y50904D03*
X108747Y47754D03*
X111306D03*
Y54053D03*
X108747D03*
X109823Y144677D03*
X106900Y200800D03*
X119800Y-10700D03*
X116424Y47754D03*
X118983D03*
X121541Y54053D03*
X116424D03*
X116423Y50904D03*
X118982D03*
X125571Y87986D03*
X125570Y91134D03*
X122420Y91136D03*
X116123Y87986D03*
X122422Y94284D03*
X125571D03*
Y97433D03*
X122422Y100583D03*
X125571D03*
X119272Y94285D03*
Y97435D03*
X122422Y116333D03*
X119272D03*
X125571Y113183D03*
Y110033D03*
X119272Y125780D03*
X116123D03*
X125571Y138378D03*
Y141528D03*
X116123Y150977D03*
X119272D03*
X116123Y157276D03*
X119272D03*
X116123Y154126D03*
X116900Y200800D03*
X126900D03*
X129800Y-10700D03*
X139800D03*
X135019Y103734D03*
X131869D03*
Y100585D03*
X135019Y106884D03*
X128719Y110032D03*
X138168Y113181D03*
Y106884D03*
X128719Y106882D03*
X135019Y113181D03*
X128721Y138378D03*
Y144677D03*
X136900Y200800D03*
X149800Y-10700D03*
X149691Y45196D03*
Y54053D03*
X146900Y200800D03*
X159800Y-10700D03*
X160040Y44830D03*
X157803Y44768D03*
X152493Y44953D03*
X157368Y50904D03*
Y54053D03*
X152250D03*
X159927D03*
X154809Y50904D03*
X152250D03*
X160215Y91136D03*
X161351Y86850D03*
X163465Y94225D03*
X160215Y103734D03*
Y97435D03*
X156900Y200800D03*
X169800Y-10700D03*
X174300Y103600D03*
X166900Y200800D03*
X179800Y-10700D03*
X176320Y41320D03*
X184460D03*
X180390D03*
X184300Y86000D03*
X186700D03*
X179900Y91650D03*
X182200Y91700D03*
X175700Y99000D03*
X175600Y95900D03*
X178500D03*
X179900Y103300D03*
X181300Y101900D03*
X180100Y97400D03*
X180156Y94806D03*
X182200Y94500D03*
X186234Y96734D03*
X176900Y200800D03*
X186900D03*
X189800Y-10700D03*
X188530Y41320D03*
X196100Y41400D03*
X192600Y41320D03*
X188600Y94870D03*
X189700Y117300D03*
X197006Y170385D03*
X195037D03*
X193069D03*
X191100D03*
X196900Y200800D03*
X199800Y-10700D03*
X209800D03*
X200600Y27800D03*
X200783Y56687D03*
X208700Y127500D03*
X210100Y139400D03*
X203086Y154700D03*
X201300Y156000D03*
X209606Y176014D03*
X207637Y170385D03*
X205669D03*
X210100Y167830D03*
X203700Y170385D03*
X207637Y174323D03*
X209606Y170385D03*
X206900Y200800D03*
X219800Y-10700D03*
X220960Y45200D03*
X219100Y48200D03*
X215310Y62660D03*
X220240Y62970D03*
X215975Y66175D03*
X218400Y68200D03*
X219075Y96620D03*
X211600Y118440D03*
X214300Y151000D03*
X211500Y166610D03*
X213080Y167570D03*
X216900Y200800D03*
X229800Y-10700D03*
X224760Y44510D03*
X225400Y46700D03*
X223800Y110500D03*
X232000Y146400D03*
X230600Y147800D03*
X229200Y149300D03*
X234800Y153610D03*
X233400Y155010D03*
X226900Y200800D03*
X245000Y-9100D03*
X245100Y101590D03*
X240400Y139400D03*
X237600Y140800D03*
X239000Y152210D03*
X236200Y150810D03*
X241800Y142200D03*
X243200Y145000D03*
X244600Y143600D03*
X243700Y156400D03*
X236100Y176410D03*
X243800Y199300D03*
X252300Y-5500D03*
X257500Y-2300D03*
X252700Y-100D03*
X250033Y23197D03*
X251521Y27534D03*
X258350Y43150D03*
Y41181D03*
X253200Y64990D03*
X247000Y110200D03*
X251126Y136274D03*
X249157Y136257D03*
X247700Y138900D03*
X252700Y189100D03*
X252100Y195600D03*
X262300Y1100D03*
X268440Y102740D03*
X260776Y102824D03*
X266540Y109740D03*
X259610Y109870D03*
X269400Y170700D03*
X261500Y189200D03*
X271600Y177700D03*
G54D21*
G01X-49500Y37300D02*
X-49833Y37633D01*
G01X-9500Y4500D02*
X-5000Y0D01*
X0D01*
G54D12*
X-42500Y-4500D03*
X-12500Y-8496D03*
Y-504D03*
G54D22*
G01X-54385Y10316D02*
X-49833Y7339D01*
G01X-54385Y38220D02*
X-49833Y41197D01*
G01X-54385Y44174D02*
X-49833Y41197D01*
G01Y7339D02*
X-45281Y10316D01*
G01X-49833Y7339D02*
X-45281Y4362D01*
G01X-49833Y41197D02*
X-45281Y38220D01*
G01X-7379Y-7379D02*
X0Y0D01*
G01X-7389Y197359D02*
X-10Y189980D01*
G01X0Y0D02*
X7379Y-7379D01*
G01X-10Y189980D02*
X7369Y197359D01*
G01X252621Y5121D02*
X260000Y12500D01*
G01X252621Y184879D02*
X260000Y177500D01*
G01Y12500D02*
X267379Y5121D01*
G01X260000Y177500D02*
X267379Y184879D01*
G01X260000Y177500D02*
X267379Y170121D01*
G54D13*
X-35463Y12890D03*
Y35646D03*
G54D23*
G01X-12162Y100708D02*
Y107108D01*
X-11380Y107890D01*
X3400D01*
X8400Y112890D01*
X16200D01*
X17694Y114384D01*
X39616D01*
X43500Y110500D01*
X59100D01*
X59500Y110900D01*
G01X-12180Y116944D02*
X-10780Y115544D01*
Y111690D01*
X-9780Y110690D01*
X2240D01*
X7240Y115690D01*
X15040D01*
X16534Y117184D01*
X40776D01*
X44160Y113800D01*
X56900D01*
G01X55953Y112086D02*
X43894D01*
X40196Y115784D01*
X17114D01*
X15620Y114290D01*
X7820D01*
X2820Y109290D01*
X-11552D01*
X-12180Y109918D01*
Y112885D01*
G01X37394Y170531D02*
Y170508D01*
X41571Y166331D01*
X49029D01*
X51829Y163531D01*
X63411D01*
X68511Y158431D01*
X81674D01*
X84976Y155131D01*
X98294D01*
X110163Y167000D01*
X171460D01*
X174300Y164160D01*
Y103600D01*
G01X39363Y170531D02*
Y170519D01*
X42151Y167731D01*
X49609D01*
X52409Y164931D01*
X63991D01*
X69091Y159831D01*
X82254D01*
X85556Y156531D01*
X97714D01*
X109583Y168400D01*
X172040D01*
X175700Y164740D01*
Y99000D01*
G01X41331Y170531D02*
X42731Y169131D01*
X50189D01*
X52989Y166331D01*
X64571D01*
X69671Y161231D01*
X82835D01*
X86136Y157931D01*
X97134D01*
X109003Y169800D01*
X172620D01*
X177100Y165320D01*
Y97400D01*
X175600Y95900D01*
G01X43300Y170531D02*
X50769D01*
X53569Y167731D01*
X65151D01*
X70251Y162631D01*
X83415D01*
X86716Y159331D01*
X96554D01*
X108423Y171200D01*
X173200D01*
X178500Y165900D01*
Y95900D01*
G01X120000Y-5000D02*
X115650Y-650D01*
X56890D01*
X54300Y1940D01*
Y11680D01*
X56400Y13780D01*
Y51400D01*
X51000Y56800D01*
Y59600D01*
X51100Y59700D01*
G01X120000Y5000D02*
X115750Y750D01*
X57470D01*
X55700Y2520D01*
Y11100D01*
X57800Y13200D01*
Y51980D01*
X52500Y57280D01*
Y58300D01*
G01X100000Y-5000D02*
X97050Y-2050D01*
X56310D01*
X52900Y1360D01*
Y12260D01*
X55000Y14360D01*
Y50820D01*
X49600Y56220D01*
Y58300D01*
G01X100000Y5000D02*
X97150Y2150D01*
X58050D01*
X57100Y3100D01*
Y10520D01*
X59200Y12620D01*
Y52560D01*
X54000Y57760D01*
Y59900D01*
G01X59600Y119000D02*
X61800Y121200D01*
X85700D01*
X89500Y117400D01*
X106788D01*
X110388Y121000D01*
X119700D01*
X121200Y122500D01*
X135978D01*
X137578Y124100D01*
X138822D01*
X139622Y123300D01*
X160415D01*
X161715Y122000D01*
Y96963D01*
X163465Y95213D01*
Y94225D01*
G01X60800Y117610D02*
X62990Y119800D01*
X85120D01*
X88920Y116000D01*
X107368D01*
X110968Y119600D01*
X120280D01*
X121780Y121100D01*
X138822D01*
X139622Y121900D01*
X157200D01*
X158566Y120534D01*
Y105383D01*
X160215Y103734D01*
G01X116123Y154126D02*
X114723Y155526D01*
X105566D01*
X101967Y151927D01*
X91980D01*
X82957Y142904D01*
X78384D01*
X68084Y132604D01*
Y130984D01*
X65800Y128700D01*
G01X179900Y103300D02*
Y122240D01*
X181600Y123940D01*
Y133860D01*
X179900Y135560D01*
Y171660D01*
X173660Y177900D01*
X113143D01*
X95974Y160731D01*
X87296D01*
X83996Y164031D01*
X70831D01*
X65731Y169131D01*
X58736D01*
X57916Y169951D01*
Y169962D01*
X57347Y170531D01*
G01X59316D02*
X66311D01*
X71411Y165431D01*
X84577D01*
X87876Y162131D01*
X95394D01*
X112563Y179300D01*
X174240D01*
X181300Y172240D01*
Y136140D01*
X183000Y134440D01*
Y123360D01*
X181300Y121660D01*
Y101900D01*
G01X79870Y16910D02*
Y19100D01*
X78876Y20094D01*
X72706D01*
X69730Y23070D01*
Y27400D01*
G01X78069Y38394D02*
X72706D01*
X69730Y41370D01*
Y45700D01*
G01Y62200D02*
Y59670D01*
X72706Y56694D01*
X79669D01*
G01X75084Y126716D02*
Y129524D01*
X81463Y135903D01*
X86353D01*
X93553Y143103D01*
X107103D01*
X108677Y144677D01*
X109823D01*
G01X116123Y150977D02*
X115223D01*
X113500Y152700D01*
X106700D01*
X103127Y149127D01*
X93140D01*
X84116Y140103D01*
X79543D01*
X70884Y131444D01*
Y129584D01*
X69600Y128300D01*
G01X119272Y150977D02*
X117749Y152500D01*
X115717D01*
X114117Y154100D01*
X106120D01*
X102547Y150527D01*
X92560D01*
X83536Y141503D01*
X78963D01*
X69484Y132024D01*
Y130404D01*
X67700Y128620D01*
Y126900D01*
G01X72000D02*
Y128720D01*
X72284Y129004D01*
Y130864D01*
X80123Y138703D01*
X84696D01*
X93720Y147727D01*
X106628D01*
X108301Y149400D01*
X120299D01*
X120922Y150023D01*
Y154778D01*
X120000Y155700D01*
X118799D01*
X117223Y157276D01*
X116123D01*
G01X73684Y128600D02*
Y130284D01*
X80703Y137303D01*
X85276D01*
X94300Y146327D01*
X123044D01*
X123922Y147205D01*
Y155278D01*
X121924Y157276D01*
X119272D01*
G01X128721Y144677D02*
X127072Y143028D01*
X109028D01*
X108850Y142850D01*
X108830D01*
X107580Y141600D01*
X100650D01*
X95250Y136200D01*
X92219D01*
X91922Y135903D01*
X88333D01*
X86933Y134503D01*
X82043D01*
X78000Y130460D01*
Y126800D01*
G01X125571Y141528D02*
X123947Y139904D01*
X100934D01*
X95830Y134800D01*
X92799D01*
X92502Y134503D01*
X88913D01*
X87513Y133103D01*
X82623D01*
X79500Y129980D01*
Y128500D01*
G01X69426Y170531D02*
Y169397D01*
X71992Y166831D01*
X85158D01*
X88457Y163531D01*
X94814D01*
X111983Y180700D01*
X174820D01*
X182700Y172820D01*
Y136720D01*
X184400Y135020D01*
Y122780D01*
X182700Y121080D01*
Y100000D01*
X180100Y97400D01*
G01X71395Y170531D02*
Y169408D01*
X72572Y168231D01*
X85739D01*
X89038Y164931D01*
X94234D01*
X111403Y182100D01*
X175400D01*
X184100Y173400D01*
Y137300D01*
X185800Y135600D01*
Y122200D01*
X184100Y120500D01*
Y98750D01*
X180156Y94806D01*
G01X82500Y128500D02*
X99600D01*
X102700Y131600D01*
X106900D01*
X109029Y133729D01*
X126193D01*
X127221Y134757D01*
Y136878D01*
X128721Y138378D01*
G01X80900Y126700D02*
Y129400D01*
X83203Y131703D01*
X88093D01*
X89493Y133103D01*
X93082D01*
X93379Y133400D01*
X96410D01*
X98260Y135250D01*
X107100D01*
X108579Y136729D01*
X123922D01*
X125571Y138378D01*
G01X182200Y94500D02*
Y94680D01*
X185500Y97980D01*
Y119920D01*
X187200Y121620D01*
Y136180D01*
X185500Y137880D01*
Y173980D01*
X182900Y176580D01*
Y186500D01*
X181500Y187900D01*
X108400D01*
X107100Y186600D01*
Y179777D01*
X93654Y166331D01*
X89619D01*
X85442Y170508D01*
Y170531D01*
G01X89379D02*
X90779Y169131D01*
X92494D01*
X104300Y180937D01*
Y187760D01*
X107240Y190700D01*
X182660D01*
X185700Y187660D01*
Y177740D01*
X188300Y175140D01*
Y148820D01*
X193700Y143420D01*
Y140600D01*
X190000Y136900D01*
Y120460D01*
X188300Y118760D01*
Y96820D01*
X184580Y93100D01*
X167700D01*
X167300Y92700D01*
X162100D01*
X161715Y93085D01*
Y94983D01*
X160215Y96483D01*
Y97435D01*
G01X186234Y96734D02*
X186900Y97400D01*
Y119340D01*
X188600Y121040D01*
Y136760D01*
X186900Y138460D01*
Y174560D01*
X184300Y177160D01*
Y187080D01*
X182080Y189300D01*
X107820D01*
X105700Y187180D01*
Y180357D01*
X93074Y167731D01*
X90199D01*
X87979Y169951D01*
Y169963D01*
X87411Y170531D01*
G01X91348D02*
X91914D01*
X102900Y181517D01*
Y188340D01*
X106660Y192100D01*
X183240D01*
X187100Y188240D01*
Y178320D01*
X189700Y175720D01*
Y149400D01*
X195100Y144000D01*
Y140020D01*
X191400Y136320D01*
Y119880D01*
X189700Y118180D01*
Y117300D01*
G01X111306Y47754D02*
X109852Y46300D01*
X102047D01*
X94520Y53827D01*
Y102220D01*
X100758Y108458D01*
X120846D01*
X124170Y105134D01*
Y103153D01*
X124990Y102333D01*
X125876D01*
X127100Y101109D01*
Y100057D01*
X125720Y98677D01*
Y97582D01*
X125571Y97433D01*
G01X111306Y54053D02*
X109706Y55653D01*
X108346D01*
X107140Y56859D01*
X106574D01*
X101928Y52213D01*
X101362D01*
X100796Y52779D01*
Y53345D01*
X105484Y58033D01*
Y58599D01*
X104918Y59165D01*
X104352D01*
X99347Y54160D01*
X98781D01*
X98265Y54676D01*
Y55342D01*
X103220Y60297D01*
Y60863D01*
X102087Y61996D01*
X100572D01*
X98040Y64528D01*
Y97430D01*
X99028Y98418D01*
Y98984D01*
X97993Y100019D01*
Y100755D01*
X98474Y101236D01*
X99040D01*
X100160Y100116D01*
X100726D01*
X102944Y102334D01*
X104104D01*
X104924Y103154D01*
Y104858D01*
X105324Y105258D01*
X110356D01*
X111573Y104041D01*
Y103154D01*
X112393Y102334D01*
X119515D01*
X121266Y100583D01*
X122422D01*
G01X125571D02*
X124477D01*
X122530Y102530D01*
Y104511D01*
X121557Y105484D01*
X112393D01*
X111019Y106858D01*
X101421D01*
X100251Y105688D01*
Y105122D01*
X101576Y103797D01*
Y103231D01*
X101010Y102665D01*
X100444D01*
X99119Y103990D01*
X98553D01*
X96120Y101557D01*
Y62305D01*
X96520Y61905D01*
X98300D01*
X98700Y61505D01*
Y60705D01*
X98300Y60305D01*
X96520D01*
X96120Y59905D01*
Y54490D01*
X101011Y49599D01*
X101577D01*
X103306Y51328D01*
X103872D01*
X104567Y50633D01*
Y50067D01*
X103683Y49183D01*
Y48617D01*
X104235Y48065D01*
X104801D01*
X106236Y49500D01*
X107147D01*
X107547Y49900D01*
Y51402D01*
X108747Y52602D01*
Y54053D01*
G01X122422Y94284D02*
X123384D01*
X124000Y94900D01*
Y98088D01*
X123105Y98983D01*
X120603D01*
X120401Y99185D01*
X117316D01*
X115767Y100734D01*
X111730D01*
X109134Y103330D01*
X107363D01*
X104767Y100734D01*
X103607D01*
X99640Y96767D01*
Y94847D01*
X100040Y94447D01*
X101500D01*
X101900Y94047D01*
Y93247D01*
X101500Y92847D01*
X100090D01*
X99640Y92397D01*
Y91747D01*
X100040Y91347D01*
X103910D01*
X104300Y90957D01*
Y90137D01*
X103910Y89747D01*
X100190D01*
X99640Y89197D01*
Y87647D01*
X100040Y87247D01*
X101845D01*
X102245Y86847D01*
Y86047D01*
X101845Y85647D01*
X100090D01*
X99640Y85197D01*
Y84447D01*
X100040Y84047D01*
X101845D01*
X102245Y83647D01*
Y82847D01*
X101845Y82447D01*
X100090D01*
X99640Y81997D01*
Y80447D01*
X100040Y80047D01*
X101813D01*
X102213Y79647D01*
Y78847D01*
X101813Y78447D01*
X100298D01*
X99898Y78047D01*
Y64933D01*
X101235Y63596D01*
X102750D01*
X107946Y58400D01*
X110805D01*
X110808Y58403D01*
X111804D01*
X112600Y57607D01*
Y53498D01*
X111306Y52204D01*
Y50904D01*
G01X116424Y54053D02*
X115065Y55412D01*
Y58035D01*
X114604Y58496D01*
X113974D01*
X112467Y60003D01*
X108606D01*
X103413Y65196D01*
X101898D01*
X101498Y65596D01*
Y66396D01*
X101898Y66796D01*
X103513D01*
X103860Y67143D01*
Y68049D01*
X103513Y68396D01*
X101898D01*
X101498Y68796D01*
Y69596D01*
X101898Y69996D01*
X103313D01*
X103713Y70396D01*
Y71196D01*
X103313Y71596D01*
X101898D01*
X101498Y71996D01*
Y72796D01*
X101898Y73196D01*
X102900D01*
X103300Y73596D01*
Y74396D01*
X102900Y74796D01*
X101898D01*
X101498Y75196D01*
Y75996D01*
X101898Y76396D01*
X103413D01*
X103813Y76796D01*
Y82152D01*
X103845Y82184D01*
Y85544D01*
X103870Y85569D01*
Y86352D01*
X106590Y89072D01*
Y92388D01*
X105274Y93704D01*
Y98965D01*
X106397Y100088D01*
X107848D01*
X108248Y99688D01*
Y90161D01*
X108849Y89560D01*
X110760D01*
X111398Y90198D01*
Y98639D01*
X111893Y99134D01*
X114148D01*
X114723Y98559D01*
Y96855D01*
X115543Y96035D01*
X117140D01*
X117540Y95635D01*
Y93373D01*
X116703Y92536D01*
X115543D01*
X114723Y91716D01*
Y90498D01*
X116123Y89098D01*
Y87986D01*
G01X125571D02*
Y66228D01*
X128898Y62901D01*
Y58580D01*
X127939Y57621D01*
Y49730D01*
X128340Y49329D01*
X130092D01*
X130574Y48847D01*
Y47954D01*
X130897Y47631D01*
Y38360D01*
X127987Y35450D01*
X124750D01*
X124400Y35800D01*
Y37189D01*
X123999Y37590D01*
X123015D01*
X122615Y37190D01*
Y35850D01*
X122215Y35450D01*
X121415D01*
X121015Y35850D01*
Y37090D01*
X120615Y37490D01*
X119815D01*
X119415Y37090D01*
Y35850D01*
X119015Y35450D01*
X118449D01*
X118000Y35899D01*
Y36350D01*
X117600Y36750D01*
X116700D01*
X116300Y36350D01*
Y35901D01*
X115933Y35534D01*
X115367D01*
X114531Y36370D01*
X111640D01*
X111240Y36770D01*
Y39840D01*
X110840Y40240D01*
X109410D01*
X109010Y39840D01*
Y36000D01*
X108510Y35500D01*
X107364D01*
X106791Y36073D01*
Y40511D01*
X107820Y41540D01*
X112499D01*
X115144Y44185D01*
Y46474D01*
X116424Y47754D01*
G01X125571Y94284D02*
Y93192D01*
X127296Y91467D01*
Y67023D01*
X130498Y63821D01*
Y52826D01*
X132174Y51150D01*
Y48617D01*
X132497Y48294D01*
Y37697D01*
X128650Y33850D01*
X106751D01*
X105191Y35410D01*
Y41174D01*
X107157Y43140D01*
X111540D01*
X112665Y44265D01*
Y48488D01*
X111798Y49355D01*
X109874D01*
X109259Y48740D01*
Y48266D01*
X108747Y47754D01*
G01X118983D02*
X117704Y46475D01*
Y43560D01*
X117304Y43160D01*
X116382D01*
X113526Y40304D01*
Y38974D01*
X114150Y38350D01*
X115000D01*
X115400Y38750D01*
Y39400D01*
X116000Y40000D01*
X116900D01*
X117400Y39500D01*
Y38700D01*
X117750Y38350D01*
X118412D01*
X118890Y38828D01*
Y42420D01*
X119400Y42930D01*
X120344D01*
X120744Y42530D01*
Y39570D01*
X121144Y39170D01*
X122422D01*
X122822Y39570D01*
Y45781D01*
X123220Y46179D01*
X124224D01*
X125301Y45102D01*
Y43963D01*
X125860Y43404D01*
X127256D01*
X127660Y43000D01*
Y41800D01*
X127160Y41300D01*
X125500D01*
X124970Y40770D01*
Y38998D01*
X125568Y38400D01*
X126700D01*
X129297Y40997D01*
Y43419D01*
X127939Y44777D01*
Y45641D01*
X127105Y46475D01*
X126755D01*
X125380Y47850D01*
Y48929D01*
X124980Y49329D01*
X123220D01*
X122820Y49729D01*
Y52078D01*
X123220Y52478D01*
X124980D01*
X125380Y52878D01*
Y57621D01*
X126930Y59171D01*
Y62606D01*
X123971Y65565D01*
Y89535D01*
X125570Y91134D01*
G01X122420Y91136D02*
Y90247D01*
X122371Y90198D01*
Y89917D01*
X121020Y88566D01*
Y87406D01*
X122371Y86055D01*
Y84037D01*
X121971Y83637D01*
X118422D01*
X118421Y83636D01*
X117997D01*
X115400Y81039D01*
Y75792D01*
X116371Y74821D01*
X117171D01*
X117571Y75221D01*
Y79686D01*
X118071Y80186D01*
X118771D01*
X119171Y79786D01*
Y72713D01*
X118771Y72313D01*
X117275D01*
X116875Y71913D01*
Y71113D01*
X117275Y70713D01*
X118771D01*
X119171Y70313D01*
Y69513D01*
X118771Y69113D01*
X117275D01*
X116875Y68713D01*
Y67913D01*
X117275Y67513D01*
X118771D01*
X119171Y67113D01*
Y66313D01*
X118771Y65913D01*
X117275D01*
X116875Y65513D01*
Y64713D01*
X117275Y64313D01*
X118771D01*
X119171Y63913D01*
Y62800D01*
X119571Y62400D01*
X120371D01*
X120771Y62800D01*
Y81300D01*
X121171Y81700D01*
X121971D01*
X122371Y81300D01*
Y62072D01*
X122771Y61672D01*
X124600D01*
X125000Y61272D01*
Y60472D01*
X124600Y60072D01*
X122771D01*
X122371Y59672D01*
Y58072D01*
X122742Y57701D01*
Y54852D01*
X121943Y54053D01*
X121541D01*
G01X157803Y44768D02*
Y43387D01*
X158648Y42542D01*
Y38498D01*
X157950Y37800D01*
X145603D01*
X145103Y38300D01*
Y39500D01*
X144703Y39900D01*
X143903D01*
X143503Y39500D01*
Y37804D01*
X142799Y37100D01*
X136200D01*
X135203Y38097D01*
Y42929D01*
X134097Y44035D01*
Y48957D01*
X133774Y49280D01*
Y51813D01*
X132098Y53489D01*
Y64484D01*
X128896Y67686D01*
Y86181D01*
X130120Y87405D01*
Y90555D01*
X130121Y90556D01*
Y91716D01*
X129301Y92536D01*
X128490D01*
X127321Y93705D01*
Y96853D01*
X127320Y96854D01*
Y98014D01*
X128771Y99465D01*
Y101919D01*
X128357Y102333D01*
X128139D01*
X127090Y103382D01*
Y105359D01*
X125571Y106878D01*
Y110033D01*
G01X160040Y44830D02*
X161380Y43490D01*
X163190D01*
X168600Y48900D01*
Y77500D01*
X158466Y87634D01*
Y98015D01*
X157646Y98835D01*
X156799D01*
X155316Y100318D01*
Y104314D01*
X154496Y105134D01*
X153648D01*
X152167Y106615D01*
Y107464D01*
X151347Y108284D01*
X150498D01*
X149017Y109765D01*
Y110613D01*
X148197Y111433D01*
X147348D01*
X145867Y112914D01*
Y113763D01*
X145047Y114583D01*
X144198D01*
X142718Y116063D01*
Y116913D01*
X141898Y117733D01*
X140738D01*
X140736Y117731D01*
X134439D01*
X133619Y116911D01*
Y116049D01*
X132476Y114906D01*
X127294D01*
X125571Y113183D01*
G01X130000Y-5000D02*
X135000Y0D01*
Y10400D01*
X137600Y13000D01*
X193660D01*
X204800Y24140D01*
Y54720D01*
X203500Y56020D01*
Y75980D01*
X208120Y80600D01*
X221820D01*
X226600Y85380D01*
Y123359D01*
X223990Y125969D01*
Y129620D01*
X224930Y130560D01*
X228760D01*
X232000Y133800D01*
Y146400D01*
G01X230600Y147800D02*
Y134380D01*
X228180Y131960D01*
X224350D01*
X222590Y130200D01*
Y125389D01*
X225200Y122779D01*
Y85960D01*
X221240Y82000D01*
X207540D01*
X202100Y76560D01*
Y55440D01*
X203400Y54140D01*
Y24720D01*
X193080Y14400D01*
X132600D01*
X130000Y11800D01*
Y5000D01*
G01X157368Y50904D02*
X157219D01*
X154468Y48153D01*
X151167D01*
X150524Y47510D01*
X148400D01*
X146982Y46092D01*
Y44752D01*
X145851Y43621D01*
X143589D01*
X142808Y42840D01*
X142003D01*
X141603Y42440D01*
Y39110D01*
X141203Y38710D01*
X140403D01*
X140003Y39110D01*
Y43304D01*
X139603Y43704D01*
X138803D01*
X138403Y43304D01*
Y39010D01*
X138093Y38700D01*
X137113D01*
X136803Y39010D01*
Y43592D01*
X135697Y44698D01*
Y45694D01*
X136950Y46947D01*
Y49048D01*
X135389Y50609D01*
Y52461D01*
X133698Y54152D01*
Y65147D01*
X130496Y68349D01*
Y85518D01*
X131720Y86742D01*
Y89892D01*
X131721Y89893D01*
Y92379D01*
X130144Y93956D01*
Y98575D01*
X130371Y98802D01*
Y102582D01*
X130144Y102809D01*
Y104855D01*
X130748Y105459D01*
X133382D01*
X134807Y106884D01*
X135019D01*
G01X149691Y54053D02*
X148855D01*
X148412Y54496D01*
Y55332D01*
X148116Y55628D01*
X139332D01*
X138255Y56705D01*
Y60390D01*
X138790Y60925D01*
X140464D01*
X141019Y60370D01*
Y59295D01*
X141459Y58855D01*
X142219D01*
X142619Y59255D01*
Y60525D01*
X143019Y60925D01*
X143819D01*
X144219Y60525D01*
Y59600D01*
X144859Y58960D01*
X148070D01*
X148470Y59360D01*
Y61560D01*
X148050Y61980D01*
X146785D01*
X146385Y62380D01*
Y63180D01*
X146785Y63580D01*
X148170D01*
X148570Y63980D01*
Y64760D01*
X148150Y65180D01*
X146785D01*
X146385Y65580D01*
Y66380D01*
X146785Y66780D01*
X148030D01*
X148430Y67180D01*
Y68550D01*
X147800Y69180D01*
X143312D01*
X142912Y69580D01*
Y76548D01*
X143312Y76948D01*
X144112D01*
X144512Y76548D01*
Y71346D01*
X144952Y70906D01*
X145712D01*
X146112Y71306D01*
Y78148D01*
X145712Y78548D01*
X143312D01*
X142912Y78948D01*
Y81488D01*
X141980Y82420D01*
X138470D01*
X138070Y82820D01*
Y86170D01*
X138500Y86600D01*
X139343D01*
X139743Y87000D01*
Y95460D01*
X139343Y95860D01*
X137707D01*
X136594Y96973D01*
Y102159D01*
X135019Y103734D01*
G01X128719Y110032D02*
X129987Y111300D01*
X138071D01*
X140891Y108480D01*
X141739D01*
X142892Y107327D01*
Y106441D01*
X144024Y105309D01*
X144910D01*
X146042Y104177D01*
Y100141D01*
X147173Y99010D01*
X148060D01*
X149300Y97770D01*
Y86236D01*
X150008Y85528D01*
X150570D01*
X150927Y85885D01*
X151489D01*
X152059Y85315D01*
Y84753D01*
X151702Y84396D01*
Y83834D01*
X152272Y83264D01*
X152834D01*
X153365Y83795D01*
X154027D01*
X154547Y83275D01*
Y82713D01*
X153966Y82132D01*
Y81570D01*
X154536Y81000D01*
X155098D01*
X155929Y81831D01*
X156491D01*
X157061Y81261D01*
Y80699D01*
X156230Y79868D01*
Y79306D01*
X156874Y78662D01*
X158693D01*
X160230Y77125D01*
Y75756D01*
X160630Y75356D01*
X161750D01*
X162150Y74956D01*
Y74156D01*
X161750Y73756D01*
X160630D01*
X160230Y73356D01*
Y72556D01*
X160630Y72156D01*
X161750D01*
X162150Y71756D01*
Y70956D01*
X161750Y70556D01*
X160630D01*
X160230Y70156D01*
Y69356D01*
X160630Y68956D01*
X161750D01*
X162150Y68556D01*
Y67756D01*
X161750Y67356D01*
X160630D01*
X160230Y66956D01*
Y66156D01*
X160630Y65756D01*
X161750D01*
X162150Y65356D01*
Y64556D01*
X161750Y64156D01*
X160630D01*
X160230Y63756D01*
Y62956D01*
X160630Y62556D01*
X161750D01*
X162150Y62156D01*
Y61356D01*
X161750Y60956D01*
X158350D01*
X157950Y60556D01*
Y59050D01*
X158350Y58650D01*
X159540D01*
X160230Y57960D01*
Y56013D01*
X161528Y54715D01*
Y53027D01*
X160829Y52328D01*
X158799D01*
X157368Y53759D01*
Y54053D01*
G01X138168Y113181D02*
X139301D01*
X140874Y111608D01*
X141761D01*
X142892Y110477D01*
Y109590D01*
X144024Y108458D01*
X144909D01*
X146042Y107325D01*
Y106440D01*
X147173Y105309D01*
X148062D01*
X149192Y104179D01*
Y100141D01*
X150323Y99010D01*
X151210D01*
X152300Y97920D01*
Y87622D01*
X153336Y86586D01*
X154201D01*
X163750Y77037D01*
Y60702D01*
X164150Y60302D01*
X164800D01*
X165200Y59902D01*
Y59102D01*
X164800Y58702D01*
X164150D01*
X163750Y58302D01*
Y57502D01*
X164150Y57102D01*
X164800D01*
X165200Y56702D01*
Y55902D01*
X164800Y55502D01*
X164150D01*
X163750Y55102D01*
Y54302D01*
X164150Y53902D01*
X164800D01*
X165200Y53502D01*
Y52702D01*
X164800Y52302D01*
X164150D01*
X163750Y51902D01*
Y50302D01*
X161845Y48397D01*
X160644D01*
X160244Y48797D01*
Y49197D01*
X159844Y49597D01*
X159044D01*
X158644Y49197D01*
Y48797D01*
X158244Y48397D01*
X156975D01*
X155131Y46553D01*
X151830D01*
X151092Y45815D01*
Y42586D01*
X151050Y42544D01*
Y40250D01*
X150350Y39550D01*
X148950D01*
X148412Y40088D01*
Y43917D01*
X149691Y45196D01*
G01X152250Y54053D02*
Y54559D01*
X150970Y55839D01*
Y58240D01*
X150270Y58940D01*
Y61312D01*
X150670Y61712D01*
X152770D01*
X153170Y62112D01*
Y62912D01*
X152770Y63312D01*
X150670D01*
X150270Y63712D01*
Y64512D01*
X150670Y64912D01*
X152600D01*
X153000Y65312D01*
Y66112D01*
X152600Y66512D01*
X150430D01*
X150030Y66912D01*
Y67662D01*
X150480Y68112D01*
X152360D01*
X152760Y68512D01*
Y69312D01*
X152360Y69712D01*
X149860D01*
X149380Y70192D01*
Y70912D01*
X149780Y71312D01*
X152228D01*
X152628Y71712D01*
Y72472D01*
X152188Y72912D01*
X148112D01*
X147712Y73312D01*
Y74350D01*
X148072Y74710D01*
X152790D01*
X153190Y75110D01*
Y76140D01*
X152860Y76470D01*
X148190D01*
X147712Y76948D01*
Y77673D01*
X150241Y80202D01*
Y80768D01*
X149669Y81340D01*
X149103D01*
X147509Y79746D01*
X146943D01*
X146373Y80316D01*
Y80882D01*
X147912Y82421D01*
Y83038D01*
X147371Y83579D01*
X146804D01*
X145240Y82015D01*
X144674D01*
X144063Y82626D01*
Y83212D01*
X145621Y84770D01*
Y85388D01*
X145079Y85930D01*
X144389D01*
X142479Y84020D01*
X141703D01*
X141290Y84433D01*
Y85978D01*
X142892Y87580D01*
Y88492D01*
X142492Y88892D01*
X141884D01*
X141484Y89292D01*
Y90092D01*
X141884Y90492D01*
X143900D01*
X144300Y90892D01*
Y91692D01*
X143900Y92092D01*
X143292D01*
X142892Y92492D01*
Y97877D01*
X141759Y99010D01*
X140144D01*
X139743Y99411D01*
Y104177D01*
X138168Y105752D01*
Y106884D01*
G01X159927Y54053D02*
X158202Y55778D01*
X154431D01*
X153530Y56679D01*
Y60074D01*
X154880Y61424D01*
Y62262D01*
X155280Y62662D01*
X158040D01*
X158470Y63092D01*
Y63862D01*
X158070Y64262D01*
X155280D01*
X154880Y64662D01*
Y65462D01*
X155280Y65862D01*
X158040D01*
X158470Y66292D01*
Y67062D01*
X158070Y67462D01*
X155280D01*
X154880Y67862D01*
Y68662D01*
X155280Y69062D01*
X158145D01*
X158575Y69492D01*
Y70262D01*
X158175Y70662D01*
X155280D01*
X154880Y71062D01*
Y71862D01*
X155280Y72262D01*
X158120D01*
X158550Y72692D01*
Y73462D01*
X158150Y73862D01*
X155280D01*
X154880Y74262D01*
Y75062D01*
X155280Y75462D01*
X157770D01*
X158170Y75862D01*
Y76662D01*
X157770Y77062D01*
X155280D01*
X154880Y77462D01*
Y78393D01*
X146042Y87231D01*
Y97878D01*
X144910Y99010D01*
X144039D01*
X142892Y100157D01*
Y104178D01*
X141761Y105309D01*
X140874D01*
X139893Y106290D01*
Y107215D01*
X138608Y108500D01*
X136826D01*
X136426Y108900D01*
Y109300D01*
X136026Y109700D01*
X135226D01*
X134826Y109300D01*
Y108900D01*
X134426Y108500D01*
X133626D01*
X133226Y108900D01*
Y109300D01*
X132826Y109700D01*
X132026D01*
X131626Y109300D01*
Y108900D01*
X131226Y108500D01*
X130337D01*
X128719Y106882D01*
G01X135019Y113181D02*
Y114380D01*
X135545Y114906D01*
X141612D01*
X142892Y113626D01*
Y112740D01*
X144024Y111608D01*
X144910D01*
X145867Y110651D01*
Y109765D01*
X147348Y108284D01*
X148235D01*
X149017Y107502D01*
Y106617D01*
X150500Y105134D01*
X151385D01*
X152342Y104177D01*
Y100141D01*
X153473Y99010D01*
X154361D01*
X155491Y97880D01*
Y87708D01*
X155666Y87533D01*
Y87406D01*
X167000Y76072D01*
Y74033D01*
X166600Y73633D01*
X165900D01*
X165500Y73233D01*
Y72433D01*
X165900Y72033D01*
X166600D01*
X167000Y71633D01*
Y70833D01*
X166600Y70433D01*
X166100D01*
X165700Y70033D01*
Y69233D01*
X166100Y68833D01*
X166600D01*
X167000Y68433D01*
Y50701D01*
X163096Y46797D01*
X162508D01*
X162507Y46796D01*
X157951D01*
X156088Y44933D01*
Y39880D01*
X155888Y39680D01*
X154010D01*
X153610Y40080D01*
Y41547D01*
X153609Y41548D01*
Y43837D01*
X152493Y44953D01*
G01X234800Y153610D02*
Y131960D01*
X229400Y126560D01*
Y84500D01*
X234400Y79500D01*
Y41000D01*
X238800Y36600D01*
Y23700D01*
X233500Y18400D01*
X203020D01*
X194820Y10200D01*
X147400D01*
X144800Y7600D01*
Y-200D01*
X140000Y-5000D01*
G01X239000Y152210D02*
Y130170D01*
X235200Y126370D01*
Y85740D01*
X238600Y82340D01*
Y42740D01*
X243000Y38340D01*
Y21960D01*
X235239Y14199D01*
X222839D01*
X220840Y12200D01*
X208180D01*
X204250Y8270D01*
Y2510D01*
X202490Y750D01*
X155750D01*
X150000Y-5000D01*
G01X233400Y155010D02*
Y132540D01*
X228000Y127140D01*
Y84800D01*
X222400Y79200D01*
X208700D01*
X204900Y75400D01*
Y56600D01*
X206200Y55300D01*
Y23560D01*
X194240Y11600D01*
X142600D01*
X140000Y9000D01*
Y5000D01*
G01X236200Y150810D02*
Y131380D01*
X230800Y125980D01*
Y85080D01*
X235800Y80080D01*
Y41580D01*
X240200Y37180D01*
Y23120D01*
X234080Y17000D01*
X203600D01*
X195400Y8800D01*
X150400D01*
X150000Y8400D01*
Y5000D01*
G01X160000Y-5000D02*
X164350Y-650D01*
X203070D01*
X205650Y1930D01*
Y7690D01*
X208760Y10800D01*
X221420D01*
X223419Y12799D01*
X235819D01*
X244400Y21380D01*
Y38920D01*
X240000Y43320D01*
Y65900D01*
X242700Y68600D01*
Y82800D01*
X242040Y83460D01*
Y121000D01*
X240400Y122640D01*
Y139400D01*
G01X237600Y140800D02*
Y130750D01*
X233800Y126950D01*
Y85160D01*
X237200Y81760D01*
Y42160D01*
X241600Y37760D01*
Y22540D01*
X234660Y15600D01*
X222260D01*
X220260Y13600D01*
X207600D01*
X202850Y8850D01*
Y3819D01*
X201181Y2150D01*
X162850D01*
X160000Y5000D01*
G01X160215Y91136D02*
X165251Y86100D01*
X178800D01*
X181600Y88900D01*
X189732D01*
X193900Y93068D01*
Y102140D01*
X197390Y105630D01*
Y115312D01*
X198795Y116717D01*
Y122705D01*
X200900Y124810D01*
Y146120D01*
X195300Y151720D01*
Y168656D01*
X197006Y170362D01*
Y170385D01*
G01X203700D02*
Y166960D01*
X196700Y159960D01*
Y152300D01*
X202300Y146700D01*
Y118271D01*
X200700Y116671D01*
Y114378D01*
X198790Y112468D01*
Y105050D01*
X195300Y101560D01*
Y92488D01*
X190312Y87500D01*
X182180D01*
X179380Y84700D01*
X164671D01*
X162521Y86850D01*
X161351D01*
G01X170000Y-5000D02*
X172950Y-2050D01*
X203650D01*
X207050Y1350D01*
Y7110D01*
X209340Y9400D01*
X222000D01*
X223999Y11399D01*
X236399D01*
X245800Y20800D01*
Y39500D01*
X241400Y43900D01*
Y65320D01*
X244100Y68020D01*
Y83380D01*
X243440Y84040D01*
Y121580D01*
X241800Y123220D01*
Y142200D01*
G01X203086Y154700D02*
X207300Y150486D01*
Y117331D01*
X204900Y114931D01*
Y96060D01*
X200000Y91160D01*
Y87190D01*
X191409Y78599D01*
Y50900D01*
X190409Y49900D01*
X179200D01*
X176320Y47020D01*
Y41320D01*
G01X184460D02*
Y46260D01*
X185300Y47100D01*
X192370D01*
X194210Y48940D01*
Y77440D01*
X202800Y86030D01*
Y90000D01*
X207700Y94900D01*
Y113771D01*
X210100Y116171D01*
Y139400D01*
G01X180390Y41320D02*
Y47290D01*
X181600Y48500D01*
X191790D01*
X192810Y49520D01*
Y78020D01*
X201400Y86610D01*
Y90580D01*
X206300Y95480D01*
Y114351D01*
X208700Y116751D01*
Y127500D01*
G01X184300Y86000D02*
X185700Y84600D01*
X191372D01*
X198100Y91328D01*
Y100400D01*
X203500Y105800D01*
Y115511D01*
X205100Y117111D01*
Y147860D01*
X199500Y153460D01*
Y158800D01*
X207637Y166937D01*
Y170385D01*
G01X195037D02*
Y170373D01*
X193900Y169236D01*
Y151140D01*
X199500Y145540D01*
Y125390D01*
X197395Y123285D01*
Y117297D01*
X195990Y115892D01*
Y106210D01*
X192500Y102720D01*
Y93648D01*
X189152Y90300D01*
X181250D01*
X179900Y91650D01*
G01X182200Y91700D02*
X188572D01*
X191100Y94228D01*
Y114722D01*
X194200Y117822D01*
Y122070D01*
X198100Y125970D01*
Y144960D01*
X192500Y150560D01*
Y169816D01*
X193069Y170385D01*
G01X188530Y41320D02*
Y45300D01*
X188930Y45700D01*
X192950D01*
X195610Y48360D01*
Y76860D01*
X206650Y87900D01*
X211185D01*
X212100Y88815D01*
Y90900D01*
X209100Y93900D01*
Y113191D01*
X211600Y115691D01*
Y118440D01*
G01X214300Y151000D02*
Y142090D01*
X216600Y139790D01*
Y127562D01*
X214456Y125418D01*
Y114587D01*
X211900Y112031D01*
Y95060D01*
X214900Y92060D01*
Y87655D01*
X212345Y85100D01*
X207810D01*
X198410Y75700D01*
Y47200D01*
X196100Y44890D01*
Y41400D01*
G01X192600Y41320D02*
Y43370D01*
X197010Y47780D01*
Y76280D01*
X207230Y86500D01*
X211765D01*
X213500Y88235D01*
Y91480D01*
X210500Y94480D01*
Y112611D01*
X213056Y115167D01*
Y125998D01*
X215200Y128142D01*
Y139020D01*
X212900Y141320D01*
Y167390D01*
X213080Y167570D01*
G01X186700Y86000D02*
X190792D01*
X196700Y91908D01*
Y100980D01*
X200190Y104470D01*
Y111888D01*
X202100Y113798D01*
Y116091D01*
X203700Y117691D01*
Y147280D01*
X198100Y152880D01*
Y159380D01*
X205669Y166949D01*
Y170385D01*
G01X188600Y94870D02*
X189700Y95970D01*
Y115302D01*
X192800Y118402D01*
Y122650D01*
X196700Y126550D01*
Y144380D01*
X191100Y149980D01*
Y170385D01*
G01X200783Y56687D02*
X200630Y56534D01*
Y54770D01*
X202000Y53400D01*
Y29200D01*
X200600Y27800D01*
G01X208700Y127500D02*
Y151500D01*
X204200Y156000D01*
X201300D01*
G01X210100Y139400D02*
Y167830D01*
G01X253200Y64990D02*
Y84980D01*
X262030Y93810D01*
Y97860D01*
X258030Y101860D01*
Y117448D01*
X247600Y127878D01*
Y136800D01*
X251010Y140210D01*
Y157600D01*
X241100Y167510D01*
Y169430D01*
X234807Y175723D01*
X218227D01*
X215960Y177990D01*
X210520D01*
X209606Y177076D01*
Y176014D01*
G01X207637Y174323D02*
X234227D01*
X239700Y168850D01*
Y166930D01*
X244704Y161926D01*
Y157574D01*
X245100Y157178D01*
Y147580D01*
X247700Y144980D01*
Y138900D01*
G01X219075Y96620D02*
X216600Y99095D01*
Y125582D01*
X218000Y126982D01*
Y140370D01*
X215700Y142670D01*
Y151470D01*
X214481Y152689D01*
Y168149D01*
X212245Y170385D01*
X209606D01*
G01X220000Y-5000D02*
X224300Y-700D01*
X242300D01*
X244200Y1200D01*
Y15240D01*
X248640Y19680D01*
Y38060D01*
X250180Y39600D01*
X250200D01*
Y95650D01*
X248950Y96900D01*
Y105660D01*
X250200Y106910D01*
Y118780D01*
X244600Y124380D01*
Y143600D01*
G01X243200Y145000D02*
Y123800D01*
X248800Y118200D01*
Y107540D01*
X247550Y106290D01*
Y96270D01*
X248800Y95020D01*
Y40200D01*
X247240Y38640D01*
Y20260D01*
X242800Y15820D01*
Y1780D01*
X241720Y700D01*
X224300D01*
X220000Y5000D01*
G01X220960Y45200D02*
X222500Y46740D01*
Y49900D01*
X217100Y55300D01*
Y63800D01*
X215975Y64925D01*
Y66175D01*
G01X219100Y48200D02*
Y51320D01*
X215310Y55110D01*
Y62660D01*
G01X225400Y46700D02*
Y52000D01*
X220240Y57160D01*
Y62970D01*
G01X224760Y44510D02*
Y45220D01*
X223900Y46080D01*
Y51300D01*
X218500Y56700D01*
Y63900D01*
X219700Y65100D01*
Y67746D01*
X219246Y68200D01*
X218400D01*
G01X211600Y118440D02*
Y126522D01*
X213256Y128178D01*
Y131394D01*
X211500Y133150D01*
Y166610D01*
G01X223800Y110500D02*
Y122199D01*
X221190Y124809D01*
Y130780D01*
X223770Y133360D01*
X227600D01*
X229200Y134960D01*
Y149300D01*
G01X245100Y101590D02*
Y108300D01*
X247000Y110200D01*
G01X243700Y156400D02*
Y147000D01*
X246200Y144500D01*
Y124760D01*
X256630Y114330D01*
Y100790D01*
X251600Y95760D01*
Y39020D01*
X250040Y37460D01*
Y23197D01*
X250033D01*
G01X236100Y176410D02*
X242500Y170010D01*
Y168090D01*
X252410Y158180D01*
Y139870D01*
X255050Y137230D01*
Y135560D01*
X269740Y120870D01*
Y101240D01*
X266556Y98056D01*
Y92396D01*
X261215Y87055D01*
Y33825D01*
X255970Y28580D01*
X252567D01*
X251521Y27534D01*
G01X268440Y102740D02*
X265156Y99456D01*
Y92976D01*
X256100Y83920D01*
Y62020D01*
X254100Y60020D01*
Y45550D01*
X256500Y43150D01*
X258350D01*
G01X260776Y102824D02*
X263756Y99844D01*
Y93556D01*
X254700Y84500D01*
Y62600D01*
X253000Y60900D01*
Y44600D01*
X256419Y41181D01*
X258350D01*
G01X251126Y136274D02*
Y130674D01*
X263405Y118395D01*
Y112875D01*
X266540Y109740D01*
G01X259610Y109870D02*
X262005Y112277D01*
Y117815D01*
X249157Y130663D01*
Y136257D01*
G54D14*
X-25000Y84290D03*
Y129290D03*
G54D24*
G01X-32500Y-12500D02*
X232500D01*
G03X282500Y37500I0J50000D01*
G01Y152500D01*
G03X232500Y202500I-50000J0D01*
G01X-32500D01*
G03X-57500Y177500I0J-25000D01*
G01Y12500D01*
G03X-32500Y-12500I25000J0D01*
G54D15*
X-12992Y75786D03*
Y137794D03*
G54D25*
G01X47989Y120900D02*
X48669Y121580D01*
Y126070D01*
X50299Y127700D01*
X63200D01*
X65760Y125140D01*
X82140D01*
X84000Y127000D01*
X101600D01*
X103299Y128699D01*
X107514D01*
X109214Y130399D01*
X116732D01*
X117593Y129538D01*
Y128453D01*
X118317Y127729D01*
Y126735D01*
X119272Y125780D01*
G01X116123D02*
X117077Y126734D01*
Y127215D01*
X116833Y127459D01*
X103813D01*
X102114Y125760D01*
X84514D01*
X82654Y123900D01*
X65246D01*
X62686Y126460D01*
X60033D01*
X59693Y126120D01*
Y125340D01*
X59353Y125000D01*
X58673D01*
X58333Y125340D01*
Y126120D01*
X57993Y126460D01*
X57313D01*
X56973Y126120D01*
Y125340D01*
X56633Y125000D01*
X55953D01*
X55613Y125340D01*
Y126120D01*
X55273Y126460D01*
X54593D01*
X54253Y126120D01*
Y125340D01*
X53913Y125000D01*
X53233D01*
X52893Y125340D01*
Y126120D01*
X52553Y126460D01*
X50813D01*
X49909Y125556D01*
Y121580D01*
X50589Y120900D01*
G01X122422Y116333D02*
X121467Y115378D01*
Y114383D01*
X120401Y113317D01*
X117927D01*
X116484Y114760D01*
X114814D01*
X111814Y111760D01*
X101415D01*
X99215Y109560D01*
X87086D01*
X81346Y115300D01*
X65454D01*
X63614Y113460D01*
X59486D01*
X53869Y119077D01*
Y120220D01*
X53189Y120900D01*
G01X55789D02*
X55109Y120220D01*
Y119591D01*
X60000Y114700D01*
X63100D01*
X64940Y116540D01*
X81860D01*
X87600Y110800D01*
X98701D01*
X100901Y113000D01*
X105341D01*
X105681Y113340D01*
Y114060D01*
X106021Y114400D01*
X106701D01*
X107041Y114060D01*
Y113340D01*
X107381Y113000D01*
X108061D01*
X108401Y113340D01*
Y114060D01*
X108741Y114400D01*
X109421D01*
X109761Y114060D01*
Y113340D01*
X110101Y113000D01*
X111300D01*
X114300Y116000D01*
X116998D01*
X118441Y114557D01*
X119887D01*
X120227Y114897D01*
Y115378D01*
X119272Y116333D01*
G01X116423Y50904D02*
Y51823D01*
X116700Y52100D01*
X117618D01*
X118913Y53395D01*
Y54587D01*
X117594Y55906D01*
Y57469D01*
X118369Y58244D01*
Y58726D01*
X117029Y60066D01*
X114625D01*
X113118Y61573D01*
X111828D01*
X110600Y62801D01*
Y64116D01*
X111820Y65336D01*
X113676D01*
X114060Y65720D01*
Y66522D01*
X113676Y66906D01*
X112106D01*
X111020Y67992D01*
Y69850D01*
X112116Y70946D01*
X113686D01*
X114050Y71310D01*
Y72132D01*
X113686Y72496D01*
X112086D01*
X111020Y73562D01*
Y80520D01*
X110680Y80860D01*
X109810D01*
X109470Y80520D01*
Y65266D01*
X108374Y64170D01*
X106838D01*
X105430Y65578D01*
Y84110D01*
X107280Y85960D01*
X110303D01*
X110643Y86300D01*
Y86830D01*
X110983Y87170D01*
X111843D01*
X112183Y86830D01*
Y86300D01*
X112523Y85960D01*
X116346D01*
X118205Y87819D01*
Y89733D01*
X119272Y90800D01*
Y94285D01*
G01X118982Y50904D02*
Y51710D01*
X120153Y52881D01*
Y58696D01*
X117543Y61306D01*
X115139D01*
X113632Y62813D01*
X112342D01*
X111970Y63185D01*
Y63732D01*
X112334Y64096D01*
X114190D01*
X115300Y65206D01*
Y67050D01*
X114572Y67778D01*
X114558D01*
X114190Y68146D01*
X112620D01*
X112260Y68506D01*
Y69336D01*
X112630Y69706D01*
X114200D01*
X115290Y70796D01*
Y72646D01*
X114200Y73736D01*
X112600D01*
X112260Y74076D01*
Y81034D01*
X111194Y82100D01*
X109296D01*
X108230Y81034D01*
Y65780D01*
X107860Y65410D01*
X107352D01*
X106670Y66092D01*
Y83596D01*
X107794Y84720D01*
X116860D01*
X119445Y87305D01*
Y89219D01*
X120512Y90286D01*
Y96195D01*
X119272Y97435D01*
G01X154809Y50904D02*
X153513Y52200D01*
X139632D01*
X138199Y53633D01*
Y53647D01*
X136523Y55323D01*
Y62135D01*
X136888Y62500D01*
X143514D01*
X144810Y63796D01*
Y66193D01*
X143603Y67400D01*
X135640D01*
X135047Y67993D01*
Y69170D01*
X135387Y69510D01*
X139521D01*
X140770Y70759D01*
Y72979D01*
X139659Y74090D01*
X133720D01*
X133340Y74470D01*
Y75730D01*
X133790Y76180D01*
X140034D01*
X141100Y77246D01*
Y79374D01*
X140034Y80440D01*
X133860D01*
X133400Y80900D01*
Y81986D01*
X134014Y82600D01*
X135434D01*
X136500Y83666D01*
Y94742D01*
X135342Y95900D01*
X134616D01*
X133649Y96867D01*
Y97120D01*
X133640Y97129D01*
Y101963D01*
X131869Y103734D01*
G01X152250Y50904D02*
X151069Y49723D01*
X142256D01*
X141916Y49383D01*
Y49160D01*
X141576Y48820D01*
X140716D01*
X140376Y49160D01*
Y49383D01*
X140036Y49723D01*
X138496D01*
X136959Y51260D01*
Y53133D01*
X135283Y54809D01*
Y62649D01*
X136374Y63740D01*
X143000D01*
X143570Y64310D01*
Y65679D01*
X143089Y66160D01*
X135126D01*
X133807Y67479D01*
Y69684D01*
X134873Y70750D01*
X139007D01*
X139530Y71273D01*
Y72465D01*
X139145Y72850D01*
X133206D01*
X132100Y73956D01*
Y76244D01*
X133276Y77420D01*
X139520D01*
X139860Y77760D01*
Y78860D01*
X139520Y79200D01*
X133346D01*
X132160Y80386D01*
Y82500D01*
X133500Y83840D01*
X134920D01*
X135260Y84180D01*
Y86240D01*
X134900Y86600D01*
X134040D01*
X133300Y87340D01*
Y89000D01*
X133649Y89349D01*
Y91718D01*
X133291Y92076D01*
Y93078D01*
X133649Y93436D01*
Y95113D01*
X133262Y95500D01*
X132054D01*
X131714Y95840D01*
Y97714D01*
X132400Y98400D01*
Y100054D01*
X131869Y100585D01*
G54D16*
X0Y0D03*
X-10Y189980D03*
X260000Y12500D03*
Y177500D03*
G54D17*
X40000Y-5000D03*
Y5000D03*
X100000Y-5000D03*
Y5000D03*
X120000Y-5000D03*
X130000D03*
X120000Y5000D03*
X130000D03*
X140000Y-5000D03*
Y5000D03*
X150000Y-5000D03*
Y5000D03*
X160000Y-5000D03*
Y5000D03*
X170000Y-5000D03*
X220000D03*
Y5000D03*
G54D18*
X190102Y141546D03*
G54D19*
X268843D03*
M02*
