G04 ================== begin FILE IDENTIFICATION RECORD ==================*
G04 Layout Name:  BEAGLEV FIRE_REV A_230911.brd*
G04 Film Name:    LAY3*
G04 File Format:  Gerber RS274X*
G04 File Origin:  Cadence Allegro 17.4-S031*
G04 Origin Date:  Tue Sep 26 15:21:00 2023*
G04 *
G04 Layer:  VIA CLASS/L3_SIG1*
G04 Layer:  PIN/L3_SIG1*
G04 Layer:  ETCH/L3_SIG1*
G04 Layer:  BOARD GEOMETRY/OUTLINE*
G04 *
G04 Offset:    (0.00 0.00)*
G04 Mirror:    No*
G04 Mode:      Positive*
G04 Rotation:  0*
G04 FullContactRelief:  No*
G04 UndefLineWidth:     5.00*
G04 ================== end FILE IDENTIFICATION RECORD ====================*
%FSLAX25Y25*MOIN*%
%IR0*IPPOS*OFA0.00000B0.00000*MIA0B0*SFA1.00000B1.00000*%
%ADD11C,.014*%
%ADD17C,.06*%
%ADD18C,.04331*%
%ADD13C,.02362*%
%ADD12C,.04724*%
%ADD19C,.06299*%
%ADD16C,.175*%
%ADD14C,.12795*%
%ADD10O,.06299X.0315*%
%ADD15O,.07874X.04331*%
%ADD20C,.01*%
%ADD21C,.02*%
%ADD22C,.024*%
%ADD23C,.004*%
%ADD24C,.005*%
%ADD25C,.0034*%
%ADD26C,.008*%
%ADD27C,.0038*%
%ADD28C,.02404*%
G75*
%LPD*%
G75*
G36*
G01X-35500Y201500D02*
X233000D01*
X239500Y201000D01*
X244500Y200000D01*
X250500Y198000D01*
X255000Y196000D01*
X261500Y192000D01*
X268500Y185500D01*
X271000Y182500D01*
X273500Y178500D01*
Y172500D01*
X270000Y169000D01*
X266446D01*
G02X266197Y169713I0J400D01*
G03X269952Y177500I-6197J7787D01*
G03X260000Y187452I-9952J0D01*
G03X252213Y183697I0J-9952D01*
G02X251500Y183946I-313J249D01*
G01Y193000D01*
X249500Y195000D01*
X244500Y198000D01*
X244250Y198250D01*
X242000Y199000D01*
X238500Y199500D01*
X237000Y200000D01*
X10500D01*
X8500Y198000D01*
Y196414D01*
G02X7787Y196165I-400J0D01*
G03X-10Y199932I-7797J-6186D01*
G03X-7787Y196189I0J-9951D01*
G02X-8500Y196439I-313J249D01*
G01Y197500D01*
X-11000Y200000D01*
X-33500D01*
X-35500Y199500D01*
X-39000Y198000D01*
X-39500D01*
X-42500Y197000D01*
X-51000Y188500D01*
X-53000Y184500D01*
Y144910D01*
X-49620Y141530D01*
X-15960D01*
X-12700Y138270D01*
Y137000D01*
X-13200Y136500D01*
X-16470D01*
X-18040Y138070D01*
X-49430D01*
X-53000Y134500D01*
Y78040D01*
X-50420Y75460D01*
X-18120D01*
X-16080Y77500D01*
X-10500D01*
X-9455Y76455D01*
X-12300Y73610D01*
X-50240D01*
X-53000Y70850D01*
Y47500D01*
X-50156Y44656D01*
G02X-50439Y43974I-283J-282D01*
G01X-51408D01*
G03Y38420I0J-2777D01*
G01X-48258D01*
G03X-45685Y42240I0J2777D01*
G02X-45315Y42790I371J150D01*
G01X-32150D01*
X-30840Y41480D01*
Y40810D01*
X-32030Y39620D01*
X-41270D01*
X-44500Y36390D01*
Y12500D01*
X-40910Y8910D01*
X-32110D01*
X-30525Y7325D01*
Y6975D01*
X-31710Y5790D01*
X-42000D01*
X-44500Y3290D01*
Y-1194D01*
G03X-46364Y-4500I2000J-3306D01*
G03X-42500Y-8364I3864J0D01*
G03X-41936Y-8323I3J3864D01*
G01X-41873Y-8313D01*
X-40500Y-9000D01*
X-34500Y-10500D01*
X-20000D01*
X-17500Y-8000D01*
Y1000D01*
X-12500Y6000D01*
X-8706D01*
G02X-8370Y5384I-1J-400D01*
G03X-9553Y2791I8370J-5385D01*
G02X-10177Y2584I-384J112D01*
G03X-12500Y3360I-2323J-3089D01*
G03X-16364Y-504I0J-3864D01*
G03X-13848Y-4125I3864J0D01*
G02Y-4875I-140J-375D01*
G03X-16364Y-8496I1348J-3621D01*
G03X-15560Y-10856I3864J-1D01*
G02X-15876Y-11500I-317J-244D01*
G01X-35500D01*
X-37500Y-11000D01*
X-40000Y-10500D01*
X-43000Y-9500D01*
X-46000Y-7500D01*
X-47500Y-6000D01*
X-51500Y-1500D01*
X-53500Y2000D01*
X-55000Y5000D01*
X-56000Y9000D01*
X-56500Y10500D01*
Y180500D01*
X-55500Y184500D01*
X-54000Y188500D01*
X-52000Y191500D01*
X-49000Y195000D01*
X-46000Y197500D01*
X-43000Y199000D01*
X-40500Y200000D01*
X-37500Y201000D01*
X-35500Y201500D01*
G37*
G36*
G01X-12580Y67610D02*
X-6830D01*
X-6270Y67050D01*
Y61990D01*
X-10930Y57330D01*
X-15960D01*
X-17570Y58940D01*
Y62620D01*
X-15350Y64840D01*
X-15257Y64832D01*
G03X-15149Y64827I110J1197D01*
G03X-13947Y66029I0J1202D01*
G03X-13952Y66137I-1202J-2D01*
G01X-13960Y66230D01*
X-12580Y67610D01*
G37*
G36*
G01X251500Y6054D02*
G02X252213Y6303I400J0D01*
G03X260000Y2548I7787J6197D01*
G03X267306Y5743I0J9951D01*
G02X268000Y5471I294J-271D01*
G01Y4000D01*
X264000Y500D01*
X261500Y-1500D01*
X255500Y-5500D01*
X251000Y-7500D01*
X247500Y-9000D01*
X245000Y-10000D01*
X241500Y-10500D01*
X239500Y-11000D01*
X238500D01*
X237000Y-11500D01*
X-9124D01*
G02X-9440Y-10856I1J400D01*
G03X-8636Y-8496I-3060J2359D01*
G03X-11152Y-4875I-3864J0D01*
G02Y-4125I140J375D01*
G03X-9936Y-3395I-1347J3622D01*
G02X-9297Y-3551I266J-299D01*
G03X0Y-9952I9297J3551D01*
G03X7787Y-6197I0J9952D01*
G02X8500Y-6446I313J-249D01*
G01Y-9500D01*
X9000Y-10000D01*
X237500D01*
X243500Y-9000D01*
X245000Y-8000D01*
X251500Y-1500D01*
Y6054D01*
G37*
G36*
G01X22800Y55500D02*
X48400D01*
X50700Y53200D01*
Y31400D01*
X50400Y31100D01*
X44500D01*
X44000Y31600D01*
Y41500D01*
X42700Y42800D01*
X28600D01*
X27400Y41600D01*
Y31700D01*
X26800Y31100D01*
X20800D01*
X20500Y31400D01*
Y53200D01*
X22800Y55500D01*
G37*
G36*
G01X27500Y115500D02*
X29900D01*
X30800Y114600D01*
Y106700D01*
X33200Y104300D01*
Y94800D01*
X32400Y94000D01*
X29925D01*
X29902Y94175D01*
G03X28959Y95199I-1192J-152D01*
G01X28800Y95233D01*
Y102000D01*
X26800Y104000D01*
Y114800D01*
X27500Y115500D01*
G37*
G36*
G01X32000Y112500D02*
X35400D01*
X39900Y108000D01*
Y92100D01*
X42800Y89200D01*
X60536D01*
G03X60600Y89198I70J1200D01*
G03X60664Y89200I-6J1202D01*
G01X71300D01*
X72100Y88400D01*
Y84000D01*
X71700Y83600D01*
X41222D01*
G02X40842Y84125I0J400D01*
G03X40902Y84500I-1142J375D01*
G03X38498I-1202J0D01*
G03X38659Y83900I1202J1D01*
G01X38685Y83853D01*
Y83600D01*
X38300D01*
X34500Y87400D01*
Y104900D01*
X32828Y106572D01*
G02X32845Y107154I283J283D01*
G03X33249Y108053I-798J899D01*
G03X32163Y109249I-1202J0D01*
G02X31802Y109647I39J398D01*
G01Y112302D01*
X32000Y112500D01*
G37*
G36*
G01X229945Y44600D02*
X239100D01*
X249180Y34520D01*
X255680D01*
X263000Y27200D01*
X268200D01*
X268700Y27700D01*
Y37300D01*
X269400Y38000D01*
X272700D01*
X273400Y37300D01*
Y24300D01*
X272300Y23200D01*
X259700D01*
X254100Y28800D01*
X243200D01*
X238802Y33198D01*
X238787Y33245D01*
G03X229472Y40070I-9315J-2944D01*
G03X221841Y36400I0J-9769D01*
G01X213200D01*
X212000Y37600D01*
Y40800D01*
X213000Y41800D01*
X222000D01*
X223876Y43676D01*
X224016Y43566D01*
G03X224760Y43308I744J944D01*
G03X225958Y44416I0J1202D01*
G01X225973Y44600D01*
X226452D01*
X226506Y44558D01*
G03X227974I734J953D01*
G01X228028Y44600D01*
X228372D01*
X228426Y44558D01*
G03X229160Y44308I734J953D01*
G03X229945Y44600I0J1201D01*
G37*
%LPC*%
G75*
G36*
G01X-51408Y10116D02*
X-48258D01*
G02Y4562I0J-2777D01*
G01X-51408D01*
G02Y10116I0J2777D01*
G37*
G36*
G01X21961Y40450D02*
G02Y41950I938J750D01*
G02X21698Y42700I938J750D01*
G02X24102I1202J0D01*
G02X23839Y41950I-1201J0D01*
G02Y40450I-938J-750D01*
G02X24102Y39700I-938J-750D01*
G02X21698I-1202J0D01*
G02X21961Y40450I1201J0D01*
G37*
G36*
G01X47361D02*
G02Y41950I938J750D01*
G02X47098Y42700I938J750D01*
G02X49502I1202J0D01*
G02X49239Y41950I-1201J0D01*
G02Y40450I-938J-750D01*
G02X49502Y39700I-938J-750D01*
G02X47098I-1202J0D01*
G02X47361Y40450I1201J0D01*
G37*
G36*
G01X30956Y48412D02*
G03X31491Y48671I151J370D01*
G02X32645Y49536I1154J-337D01*
G02X33797Y48678I0J-1202D01*
G03X34289Y48407I383J114D01*
G02X34615Y48452I326J-1158D01*
G02X35459Y48105I-1J-1202D01*
G03X35741I141J143D01*
G02X36585Y48452I845J-855D01*
G02X37429Y48105I-1J-1202D01*
G03X37711I141J143D01*
G02X38555Y48452I845J-855D01*
G02X39339Y48161I0J-1202D01*
G03X39874Y48174I260J303D01*
G02X40700Y48502I825J-874D01*
G02X41450Y48239I0J-1201D01*
G02X42200Y48502I750J-938D01*
G02X42965Y48227I0J-1202D01*
G02X43730Y48502I765J-927D01*
G02Y46098I0J-1202D01*
G02X42965Y46373I0J1202D01*
G02X42200Y46098I-765J927D01*
G02X41450Y46361I0J1201D01*
G02X40700Y46098I-750J938D01*
G02X39916Y46389I0J1202D01*
G03X39381Y46376I-260J-303D01*
G02X38555Y46048I-825J874D01*
G02X37711Y46395I1J1202D01*
G03X37429I-141J-143D01*
G02X36585Y46048I-845J855D01*
G02X35741Y46395I1J1202D01*
G03X35459I-141J-143D01*
G02X34615Y46048I-845J855D01*
G02X33463Y46906I0J1202D01*
G03X32971Y47177I-383J-114D01*
G02X32645Y47132I-326J1158D01*
G02X32189Y47222I0J1202D01*
G03X31654Y46963I-151J-370D01*
G02X30500Y46098I-1154J337D01*
G02X29750Y46361I0J1201D01*
G02X29000Y46098I-750J938D01*
G02X28235Y46373I0J1202D01*
G02X27470Y46098I-765J927D01*
G02Y48502I0J1202D01*
G02X28235Y48227I0J-1202D01*
G02X29000Y48502I765J-927D01*
G02X29750Y48239I0J-1201D01*
G02X30500Y48502I750J-938D01*
G02X30956Y48412I0J-1202D01*
G37*
G54D28*
X28710Y104823D03*
X51651Y86049D03*
%LPD*%
G75*
G54D10*
X-49833Y7339D03*
Y41197D03*
X-33297Y7339D03*
Y41197D03*
G54D20*
G01X216232Y15370D02*
X217350Y16488D01*
Y21730D01*
X210700Y28380D01*
Y35772D01*
X213098Y38170D01*
G54D11*
X-52100Y2800D03*
X-55400Y13700D03*
X-52400Y17503D03*
Y19396D03*
Y21403D03*
Y29707D03*
Y31600D03*
Y33607D03*
X-55500Y45200D03*
X-55400Y53700D03*
Y63700D03*
Y73700D03*
Y93700D03*
Y83700D03*
Y103700D03*
Y113700D03*
Y123700D03*
Y133700D03*
X-48500Y-1500D03*
X-46000Y2700D03*
X-49170Y74420D03*
X-39170D03*
X-35700Y-6100D03*
X-32500Y-3648D03*
X-29400Y-2060D03*
Y1400D03*
X-37183Y25598D03*
Y22881D03*
X-29170Y74420D03*
X-17900Y-10700D03*
X-24890Y-390D03*
X-24421Y18176D03*
Y30450D03*
X-25000Y22880D03*
Y25580D03*
X-15820Y61330D03*
X-15991Y59690D03*
X-19170Y74420D03*
X-20400Y163900D03*
X-15700Y180550D03*
X-16000Y191400D03*
X-7500Y-10700D03*
X-3700Y28100D03*
Y26200D03*
X-11120Y65840D03*
X-9550Y65850D03*
X-8000Y65840D03*
X-14420Y58980D03*
X-14100Y158800D03*
X-12100Y174700D03*
Y171100D03*
Y167500D03*
Y181900D03*
Y178300D03*
X800Y-10700D03*
X3508Y154400D03*
X-1200Y157300D03*
X8508Y160308D03*
X9800Y-10700D03*
X19800D03*
X12100Y40620D03*
X20300Y133700D03*
X18900Y131900D03*
X13508Y160308D03*
X16900Y200800D03*
X29800Y-10700D03*
X22900Y33700D03*
Y31800D03*
X21300Y33700D03*
Y31800D03*
X22900Y35600D03*
Y37400D03*
X21300Y35600D03*
Y37400D03*
X30950Y50485D03*
Y52485D03*
Y54485D03*
X28450D03*
Y52485D03*
X32047Y103329D03*
Y95455D03*
X32500Y110600D03*
X29800Y111400D03*
Y112900D03*
X21700Y135400D03*
X23200Y136800D03*
X30415Y151770D03*
X30195Y159650D03*
X30175Y157680D03*
X26900Y200800D03*
X39800Y-10700D03*
X33450Y54485D03*
X35950D03*
Y50485D03*
Y52485D03*
X33450D03*
Y50485D03*
X38450Y54485D03*
Y52485D03*
Y50485D03*
X35217Y70416D03*
X33929Y110603D03*
X39445Y164305D03*
X43385D03*
X33200Y164300D03*
X37475Y164305D03*
X36900Y200800D03*
X49800Y-10700D03*
X48300Y33600D03*
Y31800D03*
X49900D03*
Y33600D03*
X48300Y35500D03*
Y37400D03*
X49900Y35500D03*
Y37400D03*
X47400Y81084D03*
X52140Y140840D03*
X54600Y157680D03*
X47325Y164305D03*
X45355D03*
X46900Y200800D03*
X59800Y-10700D03*
X61500Y84300D03*
X61652Y160455D03*
X56900Y200800D03*
X66900D03*
X69800Y-10700D03*
X79800D03*
X70300Y84400D03*
Y85900D03*
Y87400D03*
X78350Y99450D03*
X78545Y109270D03*
X76745D03*
X76900Y200800D03*
X89800Y-10700D03*
X82800Y9900D03*
X91218Y66918D03*
X88418Y69718D03*
X89818Y68318D03*
X81400Y75800D03*
X82800Y74600D03*
X84200Y73400D03*
X87000Y71000D03*
X85600Y72200D03*
X91070Y123931D03*
X86700Y130203D03*
X91300Y137403D03*
X86900Y200800D03*
X99800Y-10700D03*
X103524Y97433D03*
Y94284D03*
X96700Y120775D03*
X103524Y119200D03*
X95796Y124290D03*
X95806Y122338D03*
X94600Y141603D03*
X92800Y138703D03*
X96200Y140103D03*
X97400Y144700D03*
X101800Y144787D03*
X94800Y144678D03*
X96900Y200800D03*
X109800Y-10700D03*
X111306Y28856D03*
Y32006D03*
X108747Y23149D03*
Y29448D03*
X111306Y23149D03*
X113865Y26298D03*
X112972Y87985D03*
X109822Y87986D03*
X109823Y91134D03*
Y97433D03*
X112973Y94285D03*
X106674Y94284D03*
X109823D03*
X112973Y128929D03*
Y135229D03*
X109823Y132079D03*
X112972Y132080D03*
X112973Y138378D03*
X109823D03*
Y141528D03*
X111600Y159500D03*
X106900Y200800D03*
X119800Y-10700D03*
X116424Y23149D03*
X118983D03*
Y29448D03*
X116424D03*
Y26298D03*
X116123Y91136D03*
Y94285D03*
X125571Y125780D03*
X122422D03*
Y138378D03*
X116123Y141528D03*
X119272D03*
X122422D03*
X116123Y135229D03*
X119272Y147827D03*
X122422D03*
X125571D03*
X119272Y144677D03*
X124000Y163600D03*
X123900Y161800D03*
X119200Y160276D03*
X124000Y165500D03*
X116900Y200800D03*
X126900D03*
X125000Y193650D03*
X129800Y-10700D03*
X139800D03*
X135019Y87986D03*
X128720Y87985D03*
X138168Y91136D03*
X135019D03*
Y94285D03*
X138168Y100585D03*
X128721Y94285D03*
X135019Y100585D03*
X128720Y97434D03*
X138168Y94285D03*
Y97435D03*
X138100Y125700D03*
X138200Y122600D03*
X131871Y135229D03*
X128721Y147827D03*
X136900Y200800D03*
X149800Y-10700D03*
X147133Y32006D03*
X149692D03*
X149691Y25707D03*
X149692Y23149D03*
X144467Y103734D03*
X147617D03*
X141318Y100585D03*
X150767D03*
X141318Y103734D03*
X144467Y97435D03*
Y106884D03*
X150767D03*
X141318Y110033D03*
Y106884D03*
X147618Y147828D03*
X150767Y150977D03*
X147617D03*
X146900Y200800D03*
X159800Y-10700D03*
X157368Y28856D03*
X157369Y23149D03*
X154810D03*
X157368Y32006D03*
X159927D03*
X154809Y28856D03*
X152250D03*
X157066Y91136D03*
Y87986D03*
X153916Y91136D03*
Y94285D03*
X163365Y100585D03*
X157066Y103734D03*
X163365Y110033D03*
X157066Y106884D03*
X153916D03*
Y110033D03*
X163365Y125780D03*
Y138378D03*
Y135229D03*
Y144677D03*
X157066Y150977D03*
X160215Y147827D03*
X163365D03*
X152300Y157800D03*
X155600D03*
X155400Y172700D03*
X156900Y200800D03*
X169800Y-10700D03*
X175000Y5450D03*
X166470Y100530D03*
X166515Y110033D03*
Y125780D03*
Y138378D03*
X174400Y172853D03*
X166900Y200800D03*
X179800Y-10700D03*
X175600Y95900D03*
X178500D03*
X182200Y94500D03*
X186234Y96734D03*
X180000Y127646D03*
Y130512D03*
X176900Y200800D03*
X186900D03*
X189800Y-10700D03*
X189700Y117300D03*
X188400Y144830D03*
X195700Y185000D03*
X196900Y200800D03*
X199800Y-10700D03*
X209800D03*
X201408Y153708D03*
X210100Y167830D03*
X206900Y200800D03*
X219800Y-10700D03*
X216232Y15370D03*
X213098Y38170D03*
X214598Y39870D03*
Y38270D03*
X213130Y39870D03*
X216098D03*
Y38270D03*
X211756Y128800D03*
X213700Y136789D03*
X214300Y151000D03*
X211500Y166610D03*
X213080Y167570D03*
X216900Y200800D03*
X229800Y-10700D03*
X227271Y47471D03*
X229071D03*
X227504Y128786D03*
X225535D03*
X223566Y136489D03*
X234309Y157258D03*
X232509D03*
X226900Y200800D03*
X245000Y-9100D03*
X243700Y156400D03*
X243800Y199300D03*
X252300Y-5500D03*
X257500Y-2300D03*
X252700Y-100D03*
X250033Y23197D03*
X251521Y27534D03*
X246999Y45281D03*
X247038Y43405D03*
X252700Y189100D03*
X252100Y195600D03*
X262300Y1100D03*
X269500Y25600D03*
X268000D03*
X266900Y24400D03*
X270200Y35900D03*
Y37300D03*
X269725Y63088D03*
Y61288D03*
Y68993D03*
Y67193D03*
X259199Y78583D03*
Y76615D03*
X269400Y170700D03*
X261500Y189200D03*
X272100Y35900D03*
Y37300D03*
X278535Y79004D03*
Y80804D03*
X271600Y177700D03*
G54D21*
G01X-49500Y37300D02*
X-49833Y37633D01*
G01X-9500Y4500D02*
X-5000Y0D01*
X0D01*
G54D12*
X-42500Y-4500D03*
X-12500Y-8496D03*
Y-504D03*
G54D22*
G01X-54385Y10316D02*
X-49833Y7339D01*
G01X-54385Y38220D02*
X-49833Y41197D01*
G01X-54385Y44174D02*
X-49833Y41197D01*
G01Y7339D02*
X-45281Y10316D01*
G01X-49833Y7339D02*
X-45281Y4362D01*
G01X-49833Y41197D02*
X-45281Y38220D01*
G01X-7379Y-7379D02*
X0Y0D01*
G01X-7389Y197359D02*
X-10Y189980D01*
G01X0Y0D02*
X7379Y-7379D01*
G01X-10Y189980D02*
X7369Y197359D01*
G01X252621Y5121D02*
X260000Y12500D01*
G01X252621Y184879D02*
X260000Y177500D01*
G01Y12500D02*
X267379Y5121D01*
G01X260000Y177500D02*
X267379Y184879D01*
G01X260000Y177500D02*
X267379Y170121D01*
G54D13*
X-35463Y12890D03*
Y35646D03*
G54D23*
G01X-35700Y-6100D02*
Y-900D01*
X-18800Y16000D01*
X-7300D01*
X-2630Y20670D01*
X9800D01*
X13500Y24370D01*
Y30370D01*
X11190Y32680D01*
Y37450D01*
X13500Y39760D01*
Y64520D01*
X26480Y77500D01*
X41964D01*
X42464Y77000D01*
X43520D01*
X47958Y72562D01*
X83362D01*
X84200Y73400D01*
G01X88418Y69718D02*
X87062Y68362D01*
X46218D01*
X41780Y72800D01*
X40724D01*
X40224Y73300D01*
X28220D01*
X17700Y62780D01*
Y18280D01*
X14970Y15550D01*
X10780D01*
X9860Y16470D01*
X-890D01*
X-5560Y11800D01*
X-16660D01*
X-26600Y1860D01*
Y-1500D01*
X-28748Y-3648D01*
X-32500D01*
G01X87000Y71000D02*
X85762Y69762D01*
X46798D01*
X42360Y74200D01*
X41304D01*
X40804Y74700D01*
X27640D01*
X16300Y63360D01*
Y38600D01*
X13990Y36290D01*
Y33840D01*
X16300Y31530D01*
Y18860D01*
X14390Y16950D01*
X11360D01*
X10440Y17870D01*
X-1470D01*
X-6140Y13200D01*
X-17240D01*
X-28000Y2440D01*
Y-660D01*
X-29400Y-2060D01*
G01X85600Y72200D02*
X84562Y71162D01*
X47378D01*
X42940Y75600D01*
X41884D01*
X41384Y76100D01*
X27060D01*
X14900Y63940D01*
Y39180D01*
X12590Y36870D01*
Y33260D01*
X14900Y30950D01*
Y23790D01*
X10380Y19270D01*
X-2050D01*
X-6720Y14600D01*
X-18000D01*
X-29400Y3200D01*
Y1400D01*
G01X89818Y68318D02*
X88462Y66962D01*
X45638D01*
X41200Y71400D01*
X40144D01*
X39644Y71900D01*
X28800D01*
X19100Y62200D01*
Y17700D01*
X15550Y14150D01*
X10200D01*
X9280Y15070D01*
X-310D01*
X-4980Y10400D01*
X-16080D01*
X-24890Y1590D01*
Y-390D01*
G01X-3700Y26200D02*
X-14050D01*
X-22074Y18176D01*
X-24421D01*
G01Y30450D02*
X-16660D01*
X-14310Y28100D01*
X-3700D01*
G01X138100Y125700D02*
X136520Y127280D01*
X118576D01*
X117700Y126404D01*
Y124600D01*
X117300Y124200D01*
X115341D01*
X114362Y123221D01*
Y122061D01*
X113451Y121150D01*
X106026D01*
X105100Y120224D01*
Y118100D01*
X103570Y116570D01*
X79070D01*
X74190Y121450D01*
X65390D01*
X61741Y125099D01*
X37741D01*
X11640Y151200D01*
X-14400D01*
X-20400Y157200D01*
Y163900D01*
G01X-15700Y180550D02*
Y155900D01*
X-14680Y154880D01*
X-5379D01*
X-3099Y152600D01*
X12220D01*
X38320Y126500D01*
X62320D01*
X65970Y122850D01*
X74770D01*
X79650Y117970D01*
X102294D01*
X103524Y119200D01*
G01X-16000Y191400D02*
Y186800D01*
X-14700Y185500D01*
X-10900D01*
X-5300Y179900D01*
X29100D01*
X30000Y180800D01*
Y185000D01*
G01X86700Y130203D02*
X60797D01*
X48100Y142900D01*
X25880D01*
X12980Y155800D01*
X-2700D01*
X-5700Y158800D01*
X-14100D01*
G01X-12100Y174700D02*
X-8296D01*
X-6696Y176300D01*
X39700D01*
X45000Y181600D01*
Y190000D01*
X40000Y195000D01*
G01X-12100Y171100D02*
X-10660D01*
X-8530Y173230D01*
X3280D01*
X5150Y175100D01*
X44800D01*
X50000Y180300D01*
Y185000D01*
G01X-12100Y167500D02*
X-7770Y171830D01*
X3610D01*
X5680Y173900D01*
X50100D01*
X54900Y178700D01*
Y190100D01*
X50000Y195000D01*
G01X-12100Y181900D02*
X-8998D01*
X-5798Y178700D01*
X32301D01*
X35000Y181399D01*
Y190000D01*
X30000Y195000D01*
G01X-12100Y178300D02*
X-7096D01*
X-6296Y177500D01*
X36900D01*
X40000Y180600D01*
Y185000D01*
G01X3508Y154400D02*
X12400D01*
X38900Y127900D01*
X62900D01*
X66550Y124250D01*
X75350D01*
X80230Y119370D01*
X100420D01*
X105350Y124300D01*
X112300D01*
X115429Y127429D01*
X116745D01*
X117623Y128307D01*
Y129551D01*
X118501Y130429D01*
X129829D01*
X130471Y131071D01*
Y133829D01*
X131871Y135229D01*
G01X122422Y138378D02*
X120800Y140000D01*
Y142000D01*
X119623Y143177D01*
X115302D01*
X114473Y144006D01*
Y145299D01*
X113472Y146300D01*
X105700D01*
X103022Y148978D01*
X92522D01*
X75300Y166200D01*
X20160D01*
X16308Y162348D01*
Y158420D01*
X15088Y157200D01*
X-1100D01*
X-1200Y157300D01*
G01X12100Y40620D02*
Y65100D01*
X25900Y78900D01*
X40600D01*
X41800Y80100D01*
X44200D01*
X45500Y78800D01*
Y77000D01*
X48538Y73962D01*
X82162D01*
X82800Y74600D01*
G01X141318Y103734D02*
Y104782D01*
X140616Y105484D01*
X137588D01*
X136600Y106472D01*
Y107600D01*
X135667Y108533D01*
X110733D01*
X109500Y107300D01*
X106380D01*
X105780Y106700D01*
X85700D01*
X80700Y101700D01*
X71600D01*
X69600Y103700D01*
X55460D01*
X47960Y111200D01*
X38756D01*
X37652Y112304D01*
Y114408D01*
X20160Y131900D01*
X18900D01*
G01X122422Y141528D02*
Y142554D01*
X120922Y144055D01*
Y145008D01*
X119730Y146200D01*
X118702D01*
X117700Y147202D01*
Y148230D01*
X116703Y149227D01*
X115675D01*
X114473Y150429D01*
Y151599D01*
X113472Y152600D01*
X104900D01*
X104078Y151778D01*
X93682D01*
X76460Y169000D01*
X19000D01*
X13508Y163508D01*
Y160308D01*
G01X119272Y144677D02*
X118245D01*
X116745Y146177D01*
X115575D01*
X114723Y147029D01*
Y148199D01*
X113595Y149327D01*
X107623D01*
X107322Y149026D01*
X104954D01*
X103602Y150378D01*
X93102D01*
X75880Y167600D01*
X19580D01*
X14908Y162928D01*
Y159000D01*
X14508Y158600D01*
X8908D01*
X8508Y159000D01*
Y160308D01*
G01X150767Y100585D02*
X149152Y102200D01*
X144100D01*
X142900Y103400D01*
Y107500D01*
X142000Y108400D01*
X140969D01*
X137589Y111781D01*
X137588D01*
X136768Y112601D01*
Y112602D01*
X136600Y112770D01*
Y114200D01*
X136000Y114800D01*
X115600D01*
X113872Y113072D01*
X108192D01*
X104620Y109500D01*
X84540D01*
X79540Y104500D01*
X75379D01*
X73379Y106500D01*
X56620D01*
X49120Y114000D01*
X42020D01*
X21800Y134220D01*
Y135300D01*
X21700Y135400D01*
G01X23200Y136800D02*
Y134800D01*
X42600Y115400D01*
X49700D01*
X57199Y107901D01*
X73598D01*
X73599Y107900D01*
X73959D01*
X75959Y105900D01*
X78960D01*
X83960Y110900D01*
X104040D01*
X107612Y114472D01*
X113292D01*
X115020Y116200D01*
X116800D01*
X118500Y117900D01*
X136200D01*
X136600Y118300D01*
Y121000D01*
X138200Y122600D01*
G01X20300Y133700D02*
X20340D01*
X41440Y112600D01*
X48540D01*
X56040Y105100D01*
X72799D01*
X74799Y103100D01*
X80120D01*
X85120Y108100D01*
X105200D01*
X108772Y111672D01*
X135529D01*
X140317Y106884D01*
X141318D01*
G01X109823Y138378D02*
X102694D01*
X97716Y133400D01*
X93337D01*
X93040Y133103D01*
X61857D01*
X52719Y142241D01*
X50739D01*
X48680Y144300D01*
X30400D01*
X25900Y148800D01*
Y160100D01*
X30100Y164300D01*
X33200D01*
G01X109823Y141528D02*
X101884D01*
X96556Y136200D01*
X92177D01*
X91880Y135903D01*
X63017D01*
X53879Y145041D01*
X51899D01*
X49840Y147100D01*
X31560D01*
X30415Y148245D01*
Y151770D01*
G01X119272Y141528D02*
X117644Y139900D01*
X102236D01*
X97136Y134800D01*
X92757D01*
X92460Y134503D01*
X62437D01*
X53299Y143641D01*
X51319D01*
X49260Y145700D01*
X30980D01*
X29000Y147680D01*
Y156505D01*
X30175Y157680D01*
G01X30195Y159650D02*
X32650D01*
X39130Y153170D01*
X45750D01*
X52479Y146441D01*
X54459D01*
X63597Y137303D01*
X91300D01*
Y137403D01*
G01X116123Y141528D02*
X114971D01*
X113570Y142929D01*
X101305D01*
X96976Y138600D01*
X95700D01*
X94097Y140203D01*
X64657D01*
X55619Y149241D01*
X53639D01*
X46910Y155970D01*
X41430D01*
X39445Y157955D01*
Y164305D01*
G01X97400Y144700D02*
X95803Y143103D01*
X65717D01*
X61195Y147625D01*
Y148191D01*
X62778Y149774D01*
Y150340D01*
X62212Y150906D01*
X61646D01*
X60063Y149323D01*
X59497D01*
X58931Y149889D01*
Y150455D01*
X60514Y152038D01*
Y152604D01*
X59948Y153170D01*
X59382D01*
X57799Y151587D01*
X57233D01*
X56100Y152720D01*
Y158600D01*
X55200Y159500D01*
X44800D01*
X43385Y160915D01*
Y164305D01*
G01X37475D02*
Y157325D01*
X40230Y154570D01*
X46330D01*
X53059Y147841D01*
X55039D01*
X64077Y138803D01*
X91880D01*
X91980Y138703D01*
X92800D01*
G01X47400Y81084D02*
Y77200D01*
X49238Y75362D01*
X80962D01*
X81400Y75800D01*
G01X112973Y138378D02*
X111395Y136800D01*
X109000D01*
X105229Y133029D01*
X103559D01*
X98580Y128050D01*
X89450D01*
X88300Y129200D01*
Y130803D01*
X87400Y131703D01*
X61277D01*
X52140Y140840D01*
G01X54600Y157680D02*
X53000Y156080D01*
Y151860D01*
X54219Y150641D01*
X56199D01*
X65237Y141603D01*
X94600D01*
G01X47325Y164305D02*
X55200D01*
X56905Y162600D01*
X66500D01*
X67900Y161200D01*
Y147878D01*
X68300Y147478D01*
X99109D01*
X101800Y144787D01*
G01X94800Y144678D02*
X67140D01*
X65100Y146718D01*
Y150000D01*
X60558Y154542D01*
Y155108D01*
X62692Y157242D01*
Y157808D01*
X62126Y158374D01*
X61560D01*
X59426Y156240D01*
X58860D01*
X57500Y157600D01*
Y159180D01*
X55780Y160900D01*
X53800D01*
X53400Y161300D01*
Y162505D01*
X53000Y162905D01*
X52200D01*
X51800Y162505D01*
Y161300D01*
X51400Y160900D01*
X50600D01*
X50200Y161300D01*
Y162505D01*
X49800Y162905D01*
X49000D01*
X48600Y162505D01*
Y161300D01*
X48200Y160900D01*
X46600D01*
X45355Y162145D01*
Y164305D01*
G01X60000Y-5000D02*
X65720Y720D01*
X162710D01*
X164620Y2630D01*
Y8620D01*
X167800Y11800D01*
X235787D01*
X251521Y27534D01*
G01X61652Y160455D02*
X62397Y161200D01*
X65000D01*
X66500Y159700D01*
Y147298D01*
X67720Y146078D01*
X98422D01*
X99100Y145400D01*
Y144000D01*
X96200Y141100D01*
Y140103D01*
G01X82800Y9900D02*
X74900D01*
X70000Y5000D01*
G01X78350Y99450D02*
X96550D01*
X102400Y105300D01*
X135433D01*
X136419Y104314D01*
Y103361D01*
X137546Y102234D01*
X138765D01*
X140414Y100585D01*
X141318D01*
G01X80000Y-5000D02*
X84320Y-680D01*
X163290D01*
X166020Y2050D01*
Y8020D01*
X168400Y10400D01*
X238300D01*
X250033Y22133D01*
Y23197D01*
G01X91070Y123931D02*
Y126071D01*
X91649Y126650D01*
X99160D01*
X104139Y131629D01*
X106349D01*
X108199Y133479D01*
X111573D01*
X112972Y132080D01*
G01X118983Y23149D02*
X114633Y18799D01*
X104910D01*
X94570Y29139D01*
Y91440D01*
X102180Y99050D01*
X104200D01*
X105130Y98120D01*
Y97059D01*
X103674Y95603D01*
Y94434D01*
X103524Y94284D01*
G01X116424Y23149D02*
X114805Y21530D01*
X104660D01*
X96170Y30020D01*
Y72439D01*
X96570Y72839D01*
X97770D01*
X98170Y73239D01*
Y74039D01*
X97770Y74439D01*
X96570D01*
X96170Y74839D01*
Y75639D01*
X96570Y76039D01*
X97770D01*
X98170Y76439D01*
Y77239D01*
X97770Y77639D01*
X96570D01*
X96170Y78039D01*
Y78839D01*
X96570Y79239D01*
X97770D01*
X98170Y79639D01*
Y80439D01*
X97770Y80839D01*
X96570D01*
X96170Y81239D01*
Y82039D01*
X96570Y82439D01*
X97770D01*
X98170Y82839D01*
Y83639D01*
X97770Y84039D01*
X96570D01*
X96170Y84439D01*
Y85239D01*
X96570Y85639D01*
X97770D01*
X98170Y86039D01*
Y86839D01*
X97770Y87239D01*
X96570D01*
X96170Y87639D01*
Y90750D01*
X96767Y91347D01*
X97329D01*
X97614Y91062D01*
X98176D01*
X98746Y91632D01*
Y92194D01*
X98461Y92479D01*
Y93041D01*
X99031Y93611D01*
X99593D01*
X99878Y93326D01*
X100440D01*
X101010Y93896D01*
Y94458D01*
X100725Y94743D01*
Y95305D01*
X102853Y97433D01*
X103524D01*
G01X108747Y23149D02*
X105342D01*
X97770Y30721D01*
Y69259D01*
X99770Y71259D01*
Y72847D01*
X100170Y73247D01*
X102970D01*
X103370Y73647D01*
Y74447D01*
X102970Y74847D01*
X100170D01*
X99770Y75247D01*
Y76047D01*
X100170Y76447D01*
X102970D01*
X103370Y76847D01*
Y77647D01*
X102970Y78047D01*
X100170D01*
X99770Y78447D01*
Y79247D01*
X100170Y79647D01*
X103128D01*
X103528Y80047D01*
Y80847D01*
X103128Y81247D01*
X100170D01*
X99770Y81647D01*
Y82447D01*
X100170Y82847D01*
X103355D01*
X103755Y83247D01*
Y84047D01*
X103355Y84447D01*
X100170D01*
X99770Y84847D01*
Y87361D01*
X101098Y88689D01*
Y89251D01*
X100247Y90102D01*
Y90664D01*
X100817Y91234D01*
X101379D01*
X102230Y90383D01*
X102792D01*
X105274Y92865D01*
Y94940D01*
X106367Y96033D01*
X109423D01*
X109823Y96433D01*
Y97433D01*
G01X96700Y120775D02*
X99225D01*
X105879Y127429D01*
X113429D01*
X114500Y128500D01*
Y133702D01*
X112973Y135229D01*
G01X95796Y124290D02*
X96289D01*
X97249Y125250D01*
X99740D01*
X104719Y130229D01*
X106929D01*
X108779Y132079D01*
X109823D01*
G01X95806Y122338D02*
X98808D01*
X105299Y128829D01*
X107529D01*
X109200Y130500D01*
X111402D01*
X112973Y128929D01*
G01X112972Y87985D02*
Y86843D01*
X121022Y78793D01*
Y75218D01*
X121422Y74818D01*
X124642D01*
X125042Y74418D01*
Y73628D01*
X124632Y73218D01*
X121422D01*
X121022Y72818D01*
Y72018D01*
X121422Y71618D01*
X124112D01*
X124512Y71218D01*
Y70418D01*
X124112Y70018D01*
X121422D01*
X121022Y69618D01*
Y68818D01*
X121422Y68418D01*
X123822D01*
X124222Y68018D01*
Y67218D01*
X123822Y66818D01*
X121422D01*
X121022Y66418D01*
Y63973D01*
X115161Y58112D01*
Y39665D01*
X115561Y39265D01*
X123634D01*
X124161Y38738D01*
Y38065D01*
X123761Y37665D01*
X115254D01*
X114854Y37265D01*
Y36465D01*
X115254Y36065D01*
X122361D01*
X122761Y35665D01*
Y34865D01*
X122361Y34465D01*
X115561D01*
X115161Y34065D01*
Y31441D01*
X113496Y29776D01*
X112226D01*
X111306Y28856D01*
G01Y32006D02*
X110106Y33206D01*
Y35891D01*
X112621Y38406D01*
Y41590D01*
X109947Y44264D01*
Y54713D01*
X111237Y56003D01*
X111804D01*
X112622Y56821D01*
Y59577D01*
X114222Y61177D01*
Y62019D01*
X114622Y62419D01*
X116605D01*
X117005Y62819D01*
Y63619D01*
X116605Y64019D01*
X114289D01*
X113889Y64419D01*
Y65219D01*
X114289Y65619D01*
X119022D01*
X119422Y66019D01*
Y66819D01*
X119022Y67219D01*
X114622D01*
X114222Y67619D01*
Y68419D01*
X114622Y68819D01*
X119022D01*
X119422Y69219D01*
Y70019D01*
X119022Y70419D01*
X114622D01*
X114222Y70819D01*
Y71619D01*
X114622Y72019D01*
X119022D01*
X119422Y72419D01*
Y73219D01*
X119022Y73619D01*
X114622D01*
X114222Y74019D01*
Y74819D01*
X114622Y75219D01*
X119022D01*
X119422Y75619D01*
Y76419D01*
X119022Y76819D01*
X114533D01*
X114133Y77219D01*
Y78019D01*
X114533Y78419D01*
X117253D01*
X117653Y78819D01*
Y79579D01*
X117213Y80019D01*
X114622D01*
X114222Y80419D01*
Y82787D01*
X109822Y87187D01*
Y87986D01*
G01X109823Y91134D02*
X108222Y89533D01*
Y84498D01*
X108622Y84098D01*
X110048D01*
X110448Y83698D01*
Y82898D01*
X110048Y82498D01*
X108622D01*
X108222Y82098D01*
Y81298D01*
X108622Y80898D01*
X111956D01*
X112356Y80498D01*
Y79698D01*
X111956Y79298D01*
X108622D01*
X108222Y78898D01*
Y78098D01*
X108622Y77698D01*
X111822D01*
X112222Y77298D01*
Y76498D01*
X111822Y76098D01*
X108622D01*
X108222Y75698D01*
Y74898D01*
X108622Y74498D01*
X111822D01*
X112222Y74098D01*
Y73298D01*
X111822Y72898D01*
X108622D01*
X108222Y72498D01*
Y71698D01*
X108622Y71298D01*
X111822D01*
X112222Y70898D01*
Y70098D01*
X111822Y69698D01*
X108622D01*
X108222Y69298D01*
Y68498D01*
X108622Y68098D01*
X111822D01*
X112222Y67698D01*
Y66898D01*
X111822Y66498D01*
X108622D01*
X108222Y66098D01*
Y65220D01*
X107468Y64466D01*
Y63179D01*
X107868Y62779D01*
X110910D01*
X111310Y62379D01*
Y61579D01*
X110910Y61179D01*
X107868D01*
X107468Y60779D01*
Y41142D01*
X107868Y40742D01*
X110494D01*
X110894Y40342D01*
Y39542D01*
X110494Y39142D01*
X107868D01*
X107468Y38742D01*
Y30727D01*
X108747Y29448D01*
G01X112973Y94285D02*
X114373Y95685D01*
X119852D01*
X121000Y94537D01*
Y86903D01*
X122096Y85807D01*
X122658D01*
X123226Y86375D01*
X123788D01*
X124358Y85805D01*
Y85243D01*
X123790Y84675D01*
Y84113D01*
X134030Y73873D01*
Y28959D01*
X131881Y26810D01*
Y26248D01*
X135312Y22817D01*
Y22255D01*
X134742Y21685D01*
X134180D01*
X130849Y25016D01*
X130087D01*
X129476Y24405D01*
X112562D01*
X111306Y23149D01*
G01X116123Y91136D02*
X114698Y89711D01*
Y87431D01*
X128456Y73673D01*
Y72472D01*
X128056Y72072D01*
X126712D01*
X126312Y71672D01*
Y70872D01*
X126712Y70472D01*
X128056D01*
X128456Y70072D01*
Y68347D01*
X127606Y67497D01*
Y66931D01*
X128738Y65799D01*
Y65233D01*
X128172Y64667D01*
X127606D01*
X126195Y66078D01*
X125629D01*
X125063Y65512D01*
Y64946D01*
X126474Y63535D01*
Y62969D01*
X125908Y62403D01*
X125342D01*
X123967Y63778D01*
X123401D01*
X122835Y63212D01*
Y62646D01*
X123361Y62120D01*
Y61554D01*
X122795Y60988D01*
X122229D01*
X121946Y61271D01*
X121380D01*
X120341Y60232D01*
Y53555D01*
X121043Y52853D01*
X121057D01*
X121432Y52478D01*
X127215D01*
X127940Y51753D01*
Y50486D01*
X127074Y49620D01*
X119035D01*
X117704Y48289D01*
Y44063D01*
X120442Y41325D01*
X123837D01*
X126088Y39074D01*
Y37873D01*
X126588Y37373D01*
X128188D01*
X128588Y36973D01*
Y36173D01*
X128188Y35773D01*
X126488D01*
X126088Y35373D01*
Y32851D01*
X124387Y31150D01*
X118126D01*
X116424Y29448D01*
G01X125000Y193650D02*
X123050D01*
X121450Y192050D01*
X115030D01*
X112580Y189600D01*
X107600D01*
X105600Y187600D01*
Y165500D01*
X111600Y159500D01*
G01X119272Y147827D02*
Y148827D01*
X117623Y150476D01*
Y151673D01*
X116670Y152626D01*
X115501D01*
X114623Y153504D01*
Y154674D01*
X113100Y156197D01*
Y162560D01*
X110200Y165460D01*
Y179700D01*
X112900Y182400D01*
Y187940D01*
X115610Y190650D01*
X122030D01*
X123430Y192050D01*
X217050D01*
X220000Y195000D01*
G01X125571Y147827D02*
X124244Y146500D01*
X121600D01*
X120772Y147328D01*
Y151599D01*
X119745Y152626D01*
X118650D01*
X117772Y153504D01*
Y154600D01*
X116596Y155776D01*
X115501D01*
X114500Y156777D01*
Y163140D01*
X111600Y166040D01*
Y179120D01*
X114300Y181820D01*
Y187360D01*
X116190Y189250D01*
X122610D01*
X124010Y190650D01*
X225650D01*
X230000Y195000D01*
G01X119200Y160276D02*
Y162460D01*
X115000Y166660D01*
Y178040D01*
X117360Y180400D01*
X121680D01*
X124000Y182720D01*
Y186500D01*
X125350Y187850D01*
X192850D01*
X195700Y185000D01*
G01X122422Y147827D02*
X124171Y149576D01*
Y151350D01*
X119745Y155776D01*
X118576D01*
X117623Y156729D01*
Y161997D01*
X113000Y166620D01*
Y178540D01*
X115700Y181240D01*
Y186780D01*
X116770Y187850D01*
X123190D01*
X124590Y189250D01*
X225750D01*
X230000Y185000D01*
G01X118983Y29448D02*
X120558Y27873D01*
X130176D01*
X132430Y30127D01*
Y31242D01*
X132030Y31642D01*
X131630D01*
X131230Y32042D01*
Y32842D01*
X131630Y33242D01*
X132030D01*
X132430Y33642D01*
Y34442D01*
X132030Y34842D01*
X131630D01*
X131230Y35242D01*
Y36042D01*
X131630Y36442D01*
X132030D01*
X132430Y36842D01*
Y37642D01*
X132030Y38042D01*
X131630D01*
X131230Y38442D01*
Y39242D01*
X131630Y39642D01*
X132030D01*
X132430Y40042D01*
Y41146D01*
X130236Y43340D01*
X121077D01*
X120277Y44140D01*
Y45272D01*
X121485Y46480D01*
X130142D01*
X132350Y48688D01*
Y51292D01*
X131950Y51692D01*
X131550D01*
X131150Y52092D01*
Y52892D01*
X131550Y53292D01*
X131950D01*
X132350Y53692D01*
Y54492D01*
X131950Y54892D01*
X131550D01*
X131150Y55292D01*
Y56092D01*
X131550Y56492D01*
X131950D01*
X132350Y56892D01*
Y61769D01*
X131950Y62169D01*
X131550D01*
X131150Y62569D01*
Y63369D01*
X131550Y63769D01*
X131950D01*
X132350Y64169D01*
Y64969D01*
X131950Y65369D01*
X131550D01*
X131150Y65769D01*
Y66569D01*
X131550Y66969D01*
X131950D01*
X132350Y67369D01*
Y68169D01*
X131950Y68569D01*
X131550D01*
X131150Y68969D01*
Y69769D01*
X131550Y70169D01*
X131950D01*
X132350Y70569D01*
Y72837D01*
X117848Y87339D01*
Y92560D01*
X116123Y94285D01*
G01X128721D02*
X127120Y92684D01*
Y83046D01*
X135630Y74536D01*
Y58443D01*
X136030Y58043D01*
X137630D01*
X138030Y57643D01*
Y56543D01*
X137630Y56143D01*
X136030D01*
X135630Y55743D01*
Y54643D01*
X136030Y54243D01*
X137295D01*
X137695Y53843D01*
Y52743D01*
X137295Y52343D01*
X136030D01*
X135630Y51943D01*
Y50843D01*
X136030Y50443D01*
X136800D01*
X137200Y50043D01*
Y48943D01*
X136800Y48543D01*
X136030D01*
X135630Y48143D01*
Y26459D01*
X138256Y23833D01*
Y19501D01*
X138958Y18799D01*
X155308D01*
X157369Y20860D01*
Y23149D01*
G01X201408Y153708D02*
X160908D01*
X158600Y151400D01*
Y150600D01*
X156800Y148800D01*
Y147600D01*
X146000Y136800D01*
X117694D01*
X116123Y135229D01*
G01X128721Y147827D02*
X126971Y149577D01*
Y151557D01*
X125902Y152626D01*
X124875D01*
X120772Y156729D01*
Y162868D01*
X116400Y167240D01*
Y177460D01*
X117940Y179000D01*
X122260D01*
X125360Y182100D01*
X217840D01*
X218840Y181100D01*
X236100D01*
X240000Y185000D01*
G01X211500Y166610D02*
Y168000D01*
X214080Y170580D01*
X215260D01*
X217500Y172820D01*
Y177580D01*
X215780Y179300D01*
X126520D01*
X124900Y177680D01*
Y171520D01*
X122600Y169220D01*
Y165000D01*
X124000Y163600D01*
G01X213080Y167570D02*
X214690Y169180D01*
X215840D01*
X218900Y172240D01*
Y178160D01*
X216360Y180700D01*
X125940D01*
X123500Y178260D01*
Y172100D01*
X121200Y169800D01*
Y164420D01*
X123421Y162199D01*
X123501D01*
X123900Y161800D01*
G01X210100Y167830D02*
Y168700D01*
X213700Y172300D01*
X215000D01*
X216100Y173400D01*
Y177000D01*
X215200Y177900D01*
X127100D01*
X126300Y177100D01*
Y170940D01*
X124000Y168640D01*
Y165500D01*
G01X149692Y23149D02*
X148492Y21949D01*
X141489D01*
X140656Y22782D01*
Y34168D01*
X138256Y36568D01*
Y37518D01*
X138656Y37918D01*
X142109D01*
X142509Y38318D01*
Y39418D01*
X142109Y39818D01*
X138297D01*
X137897Y40218D01*
Y41318D01*
X138297Y41718D01*
X140702D01*
X141102Y42118D01*
Y43218D01*
X140702Y43618D01*
X138656D01*
X138256Y44018D01*
Y46050D01*
X140550Y48344D01*
Y50305D01*
X140656Y50411D01*
Y60864D01*
X140256Y61264D01*
X137630D01*
X137230Y61664D01*
Y62764D01*
X137630Y63164D01*
X142314D01*
X142714Y63564D01*
Y64664D01*
X142314Y65064D01*
X137630D01*
X137230Y65464D01*
Y66564D01*
X137630Y66964D01*
X140256D01*
X140656Y67364D01*
Y68378D01*
X137279Y71755D01*
Y75150D01*
X128720Y83709D01*
Y87985D01*
G01X138168Y100585D02*
X136816D01*
X135091Y102310D01*
X131614D01*
X130469Y101165D01*
Y99047D01*
X131834Y97682D01*
Y89667D01*
X131990Y89511D01*
Y84965D01*
X142660Y74295D01*
X147751D01*
X148305Y73741D01*
Y73179D01*
X146587Y71461D01*
Y70899D01*
X147319Y70167D01*
X147981D01*
X149649Y71835D01*
X150211D01*
X150993Y71053D01*
Y70491D01*
X150425Y69923D01*
Y69361D01*
X151207Y68579D01*
X151769D01*
X152337Y69147D01*
X152899D01*
X153456Y68590D01*
Y66464D01*
X153056Y66064D01*
X149989D01*
X149589Y65664D01*
Y64764D01*
X150189Y64164D01*
X153056D01*
X153456Y63764D01*
Y62750D01*
X151297Y60591D01*
X150731D01*
X150294Y61028D01*
X149728D01*
X149162Y60462D01*
Y59896D01*
X149599Y59459D01*
Y58893D01*
X148466Y57760D01*
Y56839D01*
X147227Y55600D01*
X146660D01*
X145856Y54796D01*
Y41604D01*
X146656Y40804D01*
Y36772D01*
X145774Y35890D01*
Y33365D01*
X147133Y32006D01*
G01X149692D02*
X148400Y33298D01*
Y35587D01*
X148332Y35655D01*
Y49031D01*
X148921Y49620D01*
X150981D01*
X151381Y49220D01*
Y48669D01*
X151781Y48269D01*
X152581D01*
X152981Y48669D01*
Y49220D01*
X153381Y49620D01*
X154181D01*
X154581Y49220D01*
Y48769D01*
X154981Y48369D01*
X155781D01*
X156181Y48769D01*
Y49220D01*
X156581Y49620D01*
X157782D01*
X158568Y50406D01*
Y51791D01*
X157649Y52710D01*
X148891D01*
X148491Y53110D01*
Y54601D01*
X149340Y55450D01*
X152949D01*
X153582Y56083D01*
Y59440D01*
X155410Y61268D01*
Y68919D01*
X151131Y73198D01*
Y73764D01*
X151548Y74181D01*
Y74746D01*
X150980Y75314D01*
X150416D01*
X149998Y74895D01*
X149434D01*
X148299Y76030D01*
X143188D01*
X133590Y85628D01*
Y90174D01*
X133434Y90330D01*
Y99000D01*
X135019Y100585D01*
G01X128720Y97434D02*
X130234Y95920D01*
Y89004D01*
X130320Y88918D01*
Y84372D01*
X141266Y73426D01*
Y72864D01*
X140147Y71745D01*
Y71183D01*
X140929Y70401D01*
X141491D01*
X143362Y72272D01*
X143924D01*
X144706Y71490D01*
Y70928D01*
X142679Y68901D01*
Y68339D01*
X143461Y67557D01*
X144023D01*
X145298Y68832D01*
X145860D01*
X147056Y67636D01*
Y65963D01*
X146656Y65563D01*
X144914D01*
X144514Y65163D01*
Y64063D01*
X144914Y63663D01*
X146656D01*
X147056Y63263D01*
Y61587D01*
X143350Y57881D01*
Y48706D01*
X142950Y48306D01*
X142550D01*
X142150Y47906D01*
Y46806D01*
X142550Y46406D01*
X142950D01*
X143350Y46006D01*
Y41079D01*
X145056Y39373D01*
Y38002D01*
X143350Y36296D01*
Y27792D01*
X144162Y26980D01*
X144724D01*
X145241Y27497D01*
X145803D01*
X146585Y26715D01*
Y26153D01*
X146068Y25636D01*
Y25074D01*
X146635Y24507D01*
X153452D01*
X154810Y23149D01*
G01X135019Y87986D02*
X135195Y87810D01*
Y86325D01*
X143785Y77735D01*
X150824D01*
X154237Y74322D01*
X154799D01*
X156704Y76227D01*
X157266D01*
X157836Y75657D01*
Y75095D01*
X154831Y72090D01*
Y71761D01*
X155584Y71008D01*
X156013D01*
X159185Y74180D01*
X159747D01*
X160317Y73610D01*
Y73048D01*
X157145Y69876D01*
Y59355D01*
X161286Y55214D01*
Y48326D01*
X160886Y47926D01*
X159686D01*
X159286Y47526D01*
Y46726D01*
X159686Y46326D01*
X160886D01*
X161286Y45926D01*
Y44097D01*
X160627Y43438D01*
X157305D01*
X156306Y44437D01*
Y45569D01*
X155275Y46600D01*
X152108D01*
X150970Y45462D01*
Y41628D01*
X151932Y40666D01*
Y39867D01*
X151532Y39467D01*
X150332D01*
X149932Y39067D01*
Y38267D01*
X150332Y37867D01*
X151532D01*
X151932Y37467D01*
Y36666D01*
X150940Y35674D01*
Y26956D01*
X149691Y25707D01*
G01X157368Y28856D02*
X158824Y27400D01*
X162980D01*
X171290Y35710D01*
Y38340D01*
X173100Y40150D01*
Y71879D01*
X159628Y85351D01*
X151650D01*
X149200Y87801D01*
Y94900D01*
X148066Y96034D01*
X143866D01*
X142900Y97000D01*
Y97899D01*
X141964Y98835D01*
X137234D01*
X136460Y98061D01*
Y95726D01*
X135019Y94285D01*
G01X138168D02*
X139653Y92800D01*
X140601D01*
X143100Y90301D01*
Y89500D01*
X142600Y89000D01*
X141800D01*
X141500Y88700D01*
Y87700D01*
X141900Y87300D01*
X143498D01*
X145083Y85715D01*
Y84592D01*
X144724Y84233D01*
Y83501D01*
X145124Y83101D01*
X145856D01*
X146465Y83710D01*
X147031D01*
X148591Y82150D01*
X158303D01*
X166765Y73688D01*
Y70199D01*
X167165Y69799D01*
X168100D01*
X168500Y69399D01*
Y68599D01*
X168100Y68199D01*
X166500D01*
X166100Y67799D01*
Y66999D01*
X166500Y66599D01*
X167700D01*
X168100Y66199D01*
Y65399D01*
X167700Y64999D01*
X166500D01*
X166100Y64599D01*
Y63799D01*
X166500Y63399D01*
X167734D01*
X168134Y62999D01*
Y62199D01*
X167734Y61799D01*
X166534D01*
X166134Y61399D01*
Y60599D01*
X166534Y60199D01*
X167817D01*
X168217Y59799D01*
Y58999D01*
X167817Y58599D01*
X166625D01*
X166225Y58199D01*
Y57399D01*
X166625Y56999D01*
X167817D01*
X168217Y56599D01*
Y55799D01*
X167817Y55399D01*
X167165D01*
X166765Y54999D01*
Y54199D01*
X167165Y53799D01*
X168300D01*
X168700Y53399D01*
Y52599D01*
X168300Y52199D01*
X167165D01*
X166765Y51799D01*
Y50359D01*
X169810Y47314D01*
Y42682D01*
X165839Y38711D01*
Y38149D01*
X166323Y37665D01*
Y37103D01*
X162951Y33731D01*
X159093D01*
X157368Y32006D01*
G01X159927D02*
X161233Y30700D01*
X163935D01*
X165811Y32576D01*
Y33138D01*
X165526Y33423D01*
Y33985D01*
X166308Y34767D01*
X166870D01*
X167174Y34463D01*
X167736D01*
X168518Y35245D01*
Y35807D01*
X168214Y36111D01*
Y37115D01*
X169690Y38591D01*
Y39400D01*
X171500Y41210D01*
Y48902D01*
X171100Y49302D01*
X170100D01*
X169700Y49702D01*
Y50802D01*
X170100Y51202D01*
X171100D01*
X171500Y51602D01*
Y52702D01*
X171100Y53102D01*
X170700D01*
X170300Y53502D01*
Y54602D01*
X170700Y55002D01*
X171100D01*
X171500Y55402D01*
Y56502D01*
X171100Y56902D01*
X170417D01*
X170017Y57302D01*
Y58402D01*
X170417Y58802D01*
X171100D01*
X171500Y59202D01*
Y60302D01*
X171100Y60702D01*
X170300D01*
X169900Y61102D01*
Y62202D01*
X170300Y62602D01*
X171100D01*
X171500Y63002D01*
Y64102D01*
X171100Y64502D01*
X170300D01*
X169900Y64902D01*
Y66002D01*
X170300Y66402D01*
X171100D01*
X171500Y66802D01*
Y67902D01*
X171100Y68302D01*
X170700D01*
X170300Y68702D01*
Y69802D01*
X170700Y70202D01*
X171100D01*
X171500Y70602D01*
Y71216D01*
X158965Y83751D01*
X149310D01*
X146300Y86761D01*
Y87600D01*
X145700Y88200D01*
X145100D01*
X144933Y88367D01*
Y89733D01*
X145200Y90000D01*
X145900D01*
X146200Y90300D01*
Y91900D01*
X145479Y92621D01*
X143770D01*
X142892Y93499D01*
Y94708D01*
X141740Y95860D01*
X139743D01*
X138168Y97435D01*
G01X227504Y128786D02*
Y130300D01*
X225804Y132000D01*
X216980D01*
X215480Y133500D01*
X190680D01*
X188200Y131020D01*
Y124140D01*
X183460Y119400D01*
X168700D01*
X167100Y121000D01*
X146901D01*
X146100Y120199D01*
Y105367D01*
X144467Y103734D01*
G01X225535Y128786D02*
Y130066D01*
X225001Y130600D01*
X216400D01*
X214900Y132100D01*
X191260D01*
X189600Y130440D01*
Y123560D01*
X184040Y118000D01*
X160855D01*
X160837Y117982D01*
X150082D01*
X149150Y117050D01*
Y105260D01*
X147624Y103734D01*
X147617D01*
G01X182200Y94500D02*
X181000Y93300D01*
X179400D01*
X178400Y94300D01*
X171900D01*
X170500Y95700D01*
X166270D01*
X165065Y96905D01*
Y97857D01*
X163987Y98935D01*
X145967D01*
X144467Y97435D01*
G01Y106884D02*
Y107932D01*
X142900Y109499D01*
Y120999D01*
X144301Y122400D01*
X167680D01*
X169280Y120800D01*
X182880D01*
X186799Y124719D01*
Y131599D01*
X190100Y134900D01*
X212900D01*
X213700Y135700D01*
Y136789D01*
G01X211756Y128800D02*
Y130300D01*
X211356Y130700D01*
X191840D01*
X191000Y129860D01*
Y122980D01*
X184520Y116500D01*
X177100D01*
X175300Y114700D01*
X153201D01*
X152400Y113899D01*
Y108517D01*
X150767Y106884D01*
G01X141318Y110033D02*
X139700Y111651D01*
Y119844D01*
X139818Y119962D01*
Y120104D01*
X143514Y123800D01*
X166380D01*
X168680Y126100D01*
X177700D01*
X180000Y123800D01*
X183900D01*
X185300Y125200D01*
Y132080D01*
X189520Y136300D01*
X210720D01*
X212520Y138100D01*
X221955D01*
X223566Y136489D01*
G01X155400Y172700D02*
Y162880D01*
X146100Y153580D01*
Y149346D01*
X147618Y147828D01*
G01X174400Y172853D02*
Y169200D01*
X171500Y166300D01*
X160800D01*
X154100Y159600D01*
Y157300D01*
X150767Y153967D01*
Y150977D01*
G01X152300Y157800D02*
X147617Y153117D01*
Y150977D01*
G01X186234Y96734D02*
Y99666D01*
X180600Y105300D01*
X166119D01*
X165115Y106304D01*
Y107185D01*
X163800Y108500D01*
X155532D01*
X153916Y106884D01*
G01X189700Y117300D02*
X187300D01*
X185100Y115100D01*
X178100D01*
X174682Y111682D01*
X159594D01*
X159576Y111700D01*
X155583D01*
X153916Y110033D01*
G01X214300Y151000D02*
X209200D01*
X205090Y146890D01*
X188480D01*
X178468Y136878D01*
X162322D01*
X161800Y137400D01*
Y143112D01*
X163365Y144677D01*
G01X155600Y157800D02*
Y152443D01*
X157066Y150977D01*
G01X240000Y195000D02*
X246600Y188400D01*
Y181720D01*
X244000Y179120D01*
Y163700D01*
X243029Y162729D01*
X213111D01*
X202682Y152300D01*
X185320D01*
X180847Y147827D01*
X166073D01*
X164500Y149400D01*
X161788D01*
X160215Y147827D01*
G01X163365Y100585D02*
X164515D01*
X166200Y98900D01*
X169099D01*
X170740Y97259D01*
X173221D01*
X174580Y95900D01*
X175600D01*
G01X166470Y100530D02*
X169449D01*
X171320Y98659D01*
X173841D01*
X175200Y97300D01*
X176200D01*
X177600Y95900D01*
X178500D01*
G01X188400Y144830D02*
X177370Y133800D01*
X164794D01*
X163365Y135229D01*
G01X243700Y156400D02*
Y160500D01*
X242871Y161329D01*
X213691D01*
X203262Y150900D01*
X185900D01*
X181327Y146327D01*
X164865D01*
X163365Y147827D01*
G01X175000Y5450D02*
Y0D01*
X180000Y-5000D01*
G54D14*
X-25000Y84290D03*
Y129290D03*
G54D24*
G01X-32500Y-12500D02*
X232500D01*
G03X282500Y37500I0J50000D01*
G01Y152500D01*
G03X232500Y202500I-50000J0D01*
G01X-32500D01*
G03X-57500Y177500I0J-25000D01*
G01Y12500D01*
G03X-32500Y-12500I25000J0D01*
G54D15*
X-12992Y75786D03*
Y137794D03*
G54D25*
G01X78545Y109270D02*
Y110480D01*
X78265Y110760D01*
Y113365D01*
X78860Y113960D01*
X104914D01*
X109014Y118060D01*
X116360D01*
X117570Y119270D01*
X120057D01*
X122105Y121318D01*
X123019D01*
X123524Y121823D01*
Y122737D01*
X124617Y123830D01*
Y124826D01*
X125571Y125780D01*
G01X122422D02*
X123377Y124825D01*
Y124344D01*
X119543Y120510D01*
X117056D01*
X115846Y119300D01*
X108500D01*
X104400Y115200D01*
X78346D01*
X77025Y113879D01*
Y110760D01*
X76745Y110480D01*
Y109270D01*
G01X113865Y26298D02*
X110717D01*
X109547Y25128D01*
X105703D01*
X104493Y26338D01*
Y26343D01*
X99340Y31496D01*
Y34670D01*
X100406Y35736D01*
X103360D01*
X103700Y36076D01*
Y36936D01*
X103360Y37276D01*
X100406D01*
X99340Y38342D01*
Y40230D01*
X100406Y41296D01*
X103360D01*
X103700Y41636D01*
Y42496D01*
X103360Y42836D01*
X100406D01*
X99340Y43902D01*
Y45790D01*
X100406Y46856D01*
X103360D01*
X103700Y47196D01*
Y48056D01*
X103360Y48396D01*
X100406D01*
X99340Y49462D01*
Y51350D01*
X100406Y52416D01*
X103360D01*
X103700Y52756D01*
Y53616D01*
X103360Y53956D01*
X100406D01*
X99340Y55022D01*
Y57590D01*
X100656Y58906D01*
X102362D01*
X102830Y59374D01*
Y62896D01*
X100230Y65496D01*
Y68150D01*
X105412Y73332D01*
Y90698D01*
X107629Y92915D01*
Y93329D01*
X106674Y94284D01*
G01X116424Y26298D02*
X115142Y27580D01*
X105010D01*
X100580Y32010D01*
Y34156D01*
X100920Y34496D01*
X103874D01*
X104940Y35562D01*
Y37450D01*
X103874Y38516D01*
X100920D01*
X100580Y38856D01*
Y39716D01*
X100920Y40056D01*
X103874D01*
X104940Y41122D01*
Y43010D01*
X103874Y44076D01*
X100920D01*
X100580Y44416D01*
Y45276D01*
X100920Y45616D01*
X103874D01*
X104940Y46682D01*
Y48570D01*
X103874Y49636D01*
X100920D01*
X100580Y49976D01*
Y50836D01*
X100920Y51176D01*
X103874D01*
X104940Y52242D01*
Y54130D01*
X103874Y55196D01*
X100920D01*
X100580Y55536D01*
Y57076D01*
X101170Y57666D01*
X102876D01*
X104070Y58860D01*
Y63410D01*
X101470Y66010D01*
Y67636D01*
X106652Y72818D01*
Y90184D01*
X108869Y92401D01*
Y93330D01*
X109823Y94284D01*
G01X138168Y91136D02*
Y89961D01*
X139460Y88669D01*
Y88653D01*
X139553Y88560D01*
Y85942D01*
X140645Y84850D01*
X141125D01*
X141547Y85272D01*
X142028D01*
X142536Y84764D01*
Y84083D01*
X142214Y83761D01*
Y83281D01*
X144920Y80575D01*
X157650D01*
X164900Y73325D01*
Y71366D01*
X163134Y69600D01*
X160900D01*
X160350Y69050D01*
Y68127D01*
X160690Y67787D01*
X163434D01*
X164500Y66721D01*
Y63923D01*
X163434Y62857D01*
X160310D01*
X159955Y62502D01*
Y61042D01*
X160300Y60697D01*
X163104D01*
X164170Y59631D01*
Y56094D01*
X165110Y55154D01*
Y47233D01*
X165450Y46893D01*
X167104D01*
X168170Y45827D01*
Y43471D01*
X167072Y42373D01*
X165450D01*
X165110Y42033D01*
Y40276D01*
X164044Y39210D01*
X161809D01*
X161469Y38870D01*
Y37556D01*
X160403Y36490D01*
X158495D01*
X157429Y37556D01*
Y39020D01*
X157089Y39360D01*
X155149D01*
X154809Y39020D01*
Y28856D01*
G01X152250D02*
X153569Y30175D01*
Y39534D01*
X154635Y40600D01*
X157603D01*
X158669Y39534D01*
Y38070D01*
X159009Y37730D01*
X159889D01*
X160229Y38070D01*
Y39384D01*
X161295Y40450D01*
X163530D01*
X163870Y40790D01*
Y42547D01*
X164936Y43613D01*
X166558D01*
X166930Y43985D01*
Y45313D01*
X166590Y45653D01*
X164936D01*
X163870Y46719D01*
Y54640D01*
X162930Y55580D01*
Y59117D01*
X162590Y59457D01*
X159786D01*
X158715Y60528D01*
Y63016D01*
X159796Y64097D01*
X162920D01*
X163260Y64437D01*
Y66207D01*
X162920Y66547D01*
X160176D01*
X159110Y67613D01*
Y69564D01*
X160386Y70840D01*
X162620D01*
X163660Y71880D01*
Y72811D01*
X157136Y79335D01*
X144406D01*
X136780Y86961D01*
Y89230D01*
X135019Y90988D01*
Y91136D01*
G01X157066D02*
X158021Y90181D01*
X159091D01*
X159709Y89563D01*
X164737D01*
X173960Y80340D01*
X242310D01*
X244650Y78000D01*
Y75750D01*
X245350Y75050D01*
X247950D01*
X256340Y83440D01*
X259960D01*
X262850Y80550D01*
Y65750D01*
X265792Y62808D01*
X268235D01*
X268515Y63088D01*
X269725D01*
G01X157066Y87986D02*
X158021Y88941D01*
X158577D01*
X159195Y88323D01*
X164223D01*
X173446Y79100D01*
X241796D01*
X243410Y77486D01*
Y75236D01*
X244836Y73810D01*
X248464D01*
X256854Y82200D01*
X259446D01*
X261610Y80036D01*
Y65236D01*
X265278Y61568D01*
X268235D01*
X268515Y61288D01*
X269725D01*
G01X153916Y91136D02*
X155535Y92755D01*
X167015D01*
X168210Y91560D01*
X172640D01*
X174784Y89416D01*
Y88816D01*
X175446Y88154D01*
X176046D01*
X176708Y87492D01*
Y86892D01*
X177370Y86230D01*
X177970D01*
X181900Y82300D01*
X237100D01*
X244610Y89810D01*
X247386D01*
X251046Y86150D01*
X259850D01*
X264610Y81390D01*
Y69336D01*
X266473Y67473D01*
X268235D01*
X268515Y67193D01*
X269725D01*
G01X153916Y94285D02*
X155431Y95800D01*
X163969D01*
X165774Y93995D01*
X167529D01*
X168724Y92800D01*
X173154D01*
X182414Y83540D01*
X236586D01*
X244096Y91050D01*
X247900D01*
X251560Y87390D01*
X260364D01*
X265850Y81904D01*
Y69850D01*
X266987Y68713D01*
X268235D01*
X268515Y68993D01*
X269725D01*
G01X157066Y106884D02*
Y106066D01*
X155500Y104500D01*
Y102900D01*
X156136Y102264D01*
X165164D01*
X165500Y102600D01*
X169446D01*
X171386Y100660D01*
X178707D01*
X180177Y99190D01*
X181356D01*
X183160Y97386D01*
Y95686D01*
X187686Y91160D01*
X239514D01*
X241704Y93350D01*
X249200D01*
X253370Y89180D01*
X268100D01*
X272000Y85280D01*
Y60854D01*
X269646Y58500D01*
X266396D01*
X263380Y55484D01*
Y50630D01*
X262250Y49500D01*
X255550D01*
X251013Y44963D01*
X247378D01*
X247060Y45281D01*
X246999D01*
G01X157066Y103734D02*
X158553Y105221D01*
X164260D01*
X165641Y103840D01*
X169960D01*
X171900Y101900D01*
X175583D01*
X175923Y102240D01*
Y102760D01*
X176263Y103100D01*
X176943D01*
X177283Y102760D01*
Y102240D01*
X177623Y101900D01*
X179221D01*
X180691Y100430D01*
X181870D01*
X184400Y97900D01*
Y96200D01*
X188200Y92400D01*
X239000D01*
X241190Y94590D01*
X249714D01*
X253884Y90420D01*
X268614D01*
X273240Y85794D01*
Y60340D01*
X270160Y57260D01*
X266910D01*
X264620Y54970D01*
Y50116D01*
X262764Y48260D01*
X256064D01*
X251527Y43723D01*
X247378D01*
X247060Y43405D01*
X247038D01*
G01X163365Y110033D02*
X164436D01*
X166215Y108254D01*
X167491D01*
X168985Y106760D01*
X181886D01*
X188546Y100100D01*
X234400D01*
X235740Y98760D01*
X264350D01*
X275400Y87710D01*
Y80500D01*
X276616Y79284D01*
X278255D01*
X278535Y79004D01*
G01X166515Y110033D02*
X167466D01*
X169499Y108000D01*
X182400D01*
X189060Y101340D01*
X234914D01*
X236254Y100000D01*
X264864D01*
X276640Y88224D01*
Y87314D01*
X276980Y86974D01*
X277710D01*
X278050Y86634D01*
Y85954D01*
X277710Y85614D01*
X276980D01*
X276640Y85274D01*
Y84594D01*
X276980Y84254D01*
X277710D01*
X278050Y83914D01*
Y83234D01*
X277710Y82894D01*
X276980D01*
X276640Y82554D01*
Y81014D01*
X277130Y80524D01*
X278255D01*
X278535Y80804D01*
G01X180000Y127646D02*
X179187Y128459D01*
X177419D01*
X177079Y128119D01*
Y127810D01*
X176739Y127470D01*
X176059D01*
X175719Y127810D01*
Y128119D01*
X175379Y128459D01*
X174699D01*
X174359Y128119D01*
Y127810D01*
X174019Y127470D01*
X173339D01*
X172999Y127810D01*
Y128119D01*
X172659Y128459D01*
X171979D01*
X171639Y128119D01*
Y127810D01*
X171299Y127470D01*
X170619D01*
X170279Y127810D01*
Y128119D01*
X169939Y128459D01*
X167983D01*
X167083Y127559D01*
X165903D01*
X165560Y127216D01*
Y126735D01*
X166515Y125780D01*
G01X180000Y130512D02*
X179187Y129699D01*
X167683D01*
X167083Y130299D01*
X165947D01*
X165145Y129497D01*
Y128555D01*
X164320Y127730D01*
Y126735D01*
X163365Y125780D01*
G01X234309Y157258D02*
X234029Y157538D01*
Y158893D01*
X232963Y159959D01*
X214259D01*
X203800Y149500D01*
X187246D01*
X179886Y142140D01*
X167841D01*
X167083Y142898D01*
X165947D01*
X165145Y142096D01*
Y141153D01*
X164320Y140328D01*
Y139333D01*
X163365Y138378D01*
G01X232509Y157258D02*
X232789Y157538D01*
Y158379D01*
X232449Y158719D01*
X214773D01*
X204314Y148260D01*
X187760D01*
X180400Y140900D01*
X178152D01*
X177812Y140560D01*
Y139940D01*
X177472Y139600D01*
X176792D01*
X176452Y139940D01*
Y140560D01*
X176112Y140900D01*
X175432D01*
X175092Y140560D01*
Y139940D01*
X174752Y139600D01*
X174072D01*
X173732Y139940D01*
Y140560D01*
X173392Y140900D01*
X172712D01*
X172372Y140560D01*
Y139940D01*
X172032Y139600D01*
X171352D01*
X171012Y139940D01*
Y140560D01*
X170672Y140900D01*
X167825D01*
X167083Y140158D01*
X165947D01*
X165926Y140179D01*
X165925D01*
X165560Y139814D01*
Y139333D01*
X166515Y138378D01*
G01X227271Y47471D02*
Y48681D01*
X227551Y48961D01*
Y52850D01*
X229401Y54700D01*
X246046D01*
X249660Y58314D01*
Y72038D01*
X255841Y78219D01*
X258835D01*
X259199Y78583D01*
G01X229071Y47471D02*
Y48681D01*
X228791Y48961D01*
Y52336D01*
X229915Y53460D01*
X230971D01*
X231311Y53120D01*
Y52390D01*
X231651Y52050D01*
X232331D01*
X232671Y52390D01*
Y53120D01*
X233011Y53460D01*
X246560D01*
X250900Y57800D01*
Y71524D01*
X256355Y76979D01*
X258835D01*
X259199Y76615D01*
G54D16*
X0Y0D03*
X-10Y189980D03*
X260000Y12500D03*
Y177500D03*
G54D26*
G01X35217Y70416D02*
X39148D01*
X39564Y70000D01*
X40620D01*
X45058Y65562D01*
X89862D01*
X91218Y66918D01*
G54D17*
X30000Y185000D03*
Y195000D03*
X40000Y185000D03*
Y195000D03*
X50000Y185000D03*
Y195000D03*
X60000Y-5000D03*
X70000Y5000D03*
X80000Y-5000D03*
X180000D03*
X220000Y195000D03*
X230000Y185000D03*
Y195000D03*
X240000Y185000D03*
Y195000D03*
G54D27*
G01X-37183Y25598D02*
X-36315Y24730D01*
X-34036D01*
X-29806Y28960D01*
X-23874D01*
X-22120Y27206D01*
Y24774D01*
X-23154Y23740D01*
X-24140D01*
X-25000Y22880D01*
G01X-37183Y22881D02*
X-36314Y23750D01*
X-33630D01*
X-32511Y24869D01*
X-31973D01*
X-31086Y23982D01*
X-30498D01*
X-29986Y24494D01*
Y25032D01*
X-30898Y25944D01*
Y26482D01*
X-29400Y27980D01*
X-24280D01*
X-23100Y26800D01*
Y25180D01*
X-23560Y24720D01*
X-24140D01*
X-25000Y25580D01*
G54D18*
X190102Y141546D03*
G54D19*
X268843D03*
M02*
