G04 ================== begin FILE IDENTIFICATION RECORD ==================*
G04 Layout Name:  BEAGLEV FIRE_REV A_230911.brd*
G04 Film Name:    LAY5*
G04 File Format:  Gerber RS274X*
G04 File Origin:  Cadence Allegro 17.4-S031*
G04 Origin Date:  Tue Sep 26 15:21:01 2023*
G04 *
G04 Layer:  VIA CLASS/L5_SIG2*
G04 Layer:  PIN/L5_SIG2*
G04 Layer:  ETCH/L5_SIG2*
G04 Layer:  BOARD GEOMETRY/OUTLINE*
G04 *
G04 Offset:    (0.00 0.00)*
G04 Mirror:    No*
G04 Mode:      Positive*
G04 Rotation:  0*
G04 FullContactRelief:  No*
G04 UndefLineWidth:     5.00*
G04 ================== end FILE IDENTIFICATION RECORD ====================*
%FSLAX25Y25*MOIN*%
%IR0*IPPOS*OFA0.00000B0.00000*MIA0B0*SFA1.00000B1.00000*%
%ADD11C,.014*%
%ADD17C,.06*%
%ADD18C,.04331*%
%ADD13C,.02362*%
%ADD12C,.04724*%
%ADD19C,.06299*%
%ADD16C,.175*%
%ADD14C,.12795*%
%ADD10O,.06299X.0315*%
%ADD15O,.07874X.04331*%
%ADD20C,.01*%
%ADD21C,.02*%
%ADD22C,.024*%
%ADD23C,.004*%
%ADD24C,.005*%
%ADD25C,.0034*%
%ADD26C,.008*%
%ADD27C,.0038*%
G75*
%LPD*%
G75*
G36*
G01X-35500Y201500D02*
X233000D01*
X239500Y201000D01*
X244500Y200000D01*
X250500Y198000D01*
X255000Y196000D01*
X261500Y192000D01*
X268500Y185500D01*
X271000Y182500D01*
X273500Y178500D01*
Y172500D01*
X270000Y169000D01*
X266446D01*
G02X266197Y169713I0J400D01*
G03X269952Y177500I-6197J7787D01*
G03X260000Y187452I-9952J0D01*
G03X252213Y183697I0J-9952D01*
G02X251500Y183946I-313J249D01*
G01Y193000D01*
X249500Y195000D01*
X244500Y198000D01*
X244250Y198250D01*
X242000Y199000D01*
X238500Y199500D01*
X237000Y200000D01*
X10500D01*
X8500Y198000D01*
Y196414D01*
G02X7787Y196165I-400J0D01*
G03X-10Y199932I-7797J-6186D01*
G03X-7787Y196189I0J-9951D01*
G02X-8500Y196439I-313J249D01*
G01Y197500D01*
X-11000Y200000D01*
X-33500D01*
X-35500Y199500D01*
X-39000Y198000D01*
X-39500D01*
X-42500Y197000D01*
X-51000Y188500D01*
X-53000Y184500D01*
Y144910D01*
X-49620Y141530D01*
X-15960D01*
X-12700Y138270D01*
Y136870D01*
X-13070Y136500D01*
X-16470D01*
X-18040Y138070D01*
X-49430D01*
X-53000Y134500D01*
Y78040D01*
X-50420Y75460D01*
X-18120D01*
X-16080Y77500D01*
X-10500D01*
X-9455Y76455D01*
X-12300Y73610D01*
X-50240D01*
X-53000Y70850D01*
Y47500D01*
X-50156Y44656D01*
G02X-50439Y43974I-283J-282D01*
G01X-51408D01*
G03Y38420I0J-2777D01*
G01X-48258D01*
G03X-45685Y42240I0J2777D01*
G02X-45315Y42790I371J150D01*
G01X-32150D01*
X-30840Y41480D01*
Y40810D01*
X-32030Y39620D01*
X-41270D01*
X-44500Y36390D01*
Y12500D01*
X-40910Y8910D01*
X-32110D01*
X-30525Y7325D01*
Y6975D01*
X-31710Y5790D01*
X-42000D01*
X-44500Y3290D01*
Y-1194D01*
G03X-46364Y-4500I2000J-3306D01*
G03X-42500Y-8364I3864J0D01*
G03X-41936Y-8323I3J3864D01*
G01X-41873Y-8313D01*
X-40500Y-9000D01*
X-34500Y-10500D01*
X-20000D01*
X-17500Y-8000D01*
Y1000D01*
X-12500Y6000D01*
X-8706D01*
G02X-8370Y5384I-1J-400D01*
G03X-9553Y2791I8370J-5385D01*
G02X-10177Y2584I-384J112D01*
G03X-12500Y3360I-2323J-3089D01*
G03X-16364Y-504I0J-3864D01*
G03X-13848Y-4125I3864J0D01*
G02Y-4875I-140J-375D01*
G03X-16364Y-8496I1348J-3621D01*
G03X-15560Y-10856I3864J-1D01*
G02X-15876Y-11500I-317J-244D01*
G01X-35500D01*
X-37500Y-11000D01*
X-40000Y-10500D01*
X-43000Y-9500D01*
X-46000Y-7500D01*
X-47500Y-6000D01*
X-51500Y-1500D01*
X-53500Y2000D01*
X-55000Y5000D01*
X-56000Y9000D01*
X-56500Y10500D01*
Y180500D01*
X-55500Y184500D01*
X-54000Y188500D01*
X-52000Y191500D01*
X-49000Y195000D01*
X-46000Y197500D01*
X-43000Y199000D01*
X-40500Y200000D01*
X-37500Y201000D01*
X-35500Y201500D01*
G37*
G36*
G01X251500Y6054D02*
G02X252213Y6303I400J0D01*
G03X260000Y2548I7787J6197D01*
G03X267306Y5743I0J9951D01*
G02X268000Y5471I294J-271D01*
G01Y4000D01*
X264000Y500D01*
X261500Y-1500D01*
X255500Y-5500D01*
X251000Y-7500D01*
X247500Y-9000D01*
X245000Y-10000D01*
X241500Y-10500D01*
X239500Y-11000D01*
X238500D01*
X237000Y-11500D01*
X-9124D01*
G02X-9440Y-10856I1J400D01*
G03X-8636Y-8496I-3060J2359D01*
G03X-11152Y-4875I-3864J0D01*
G02Y-4125I140J375D01*
G03X-9936Y-3395I-1347J3622D01*
G02X-9297Y-3551I266J-299D01*
G03X0Y-9952I9297J3551D01*
G03X7787Y-6197I0J9952D01*
G02X8500Y-6446I313J-249D01*
G01Y-9500D01*
X9000Y-10000D01*
X237500D01*
X243500Y-9000D01*
X245000Y-8000D01*
X251500Y-1500D01*
Y6054D01*
G37*
G36*
G01X31100Y108800D02*
X31500Y109200D01*
X35400D01*
X36300Y108300D01*
Y88800D01*
X35300Y87800D01*
X31800D01*
X30900Y88700D01*
Y91400D01*
X33900Y94400D01*
Y104000D01*
X31100Y106800D01*
Y108800D01*
G37*
%LPC*%
G75*
G36*
G01X-51408Y10116D02*
X-48258D01*
G02Y4562I0J-2777D01*
G01X-51408D01*
G02Y10116I0J2777D01*
G37*
%LPD*%
G75*
G54D10*
X-49833Y7339D03*
Y41197D03*
X-33297Y7339D03*
Y41197D03*
G54D20*
G01X-2580Y24620D02*
Y21080D01*
X4980Y13520D01*
G01X-2580Y24620D02*
X2400Y29600D01*
X10060D01*
X11300Y30840D01*
Y38530D01*
X10080Y39750D01*
Y44750D01*
G01X28450Y64265D02*
Y57031D01*
X19500Y48081D01*
Y25900D01*
X21100Y24300D01*
G01X10080Y44750D02*
Y48055D01*
X25600Y63575D01*
Y117395D01*
X40936Y132731D01*
X50200D01*
G01X30950Y64265D02*
X28450D01*
G01X43222Y78422D02*
X43900Y79100D01*
X56800D01*
X57800Y80100D01*
Y98400D01*
X58800Y99400D01*
X60100D01*
G01X61500D02*
X60100D01*
G54D11*
X-52100Y2800D03*
X-55400Y13700D03*
X-52400Y17503D03*
Y19396D03*
Y21403D03*
Y29707D03*
Y31600D03*
Y33607D03*
X-55500Y45200D03*
X-55400Y53700D03*
Y63700D03*
Y73700D03*
Y93700D03*
Y83700D03*
Y103700D03*
Y113700D03*
Y123700D03*
Y133700D03*
X-48500Y-1500D03*
X-46000Y2700D03*
X-49170Y74420D03*
X-39170D03*
X-29170D03*
X-17900Y-10700D03*
X-25000Y22880D03*
Y25580D03*
X-19170Y74420D03*
X-7500Y-10700D03*
X-12000Y153350D03*
X-11980Y145900D03*
X-12100Y164300D03*
Y160300D03*
Y156700D03*
X800Y-10700D03*
X4980Y13520D03*
X-2580Y24620D03*
X8900Y35600D03*
X-1410Y174700D03*
X9800Y-10700D03*
X19800D03*
X10080Y44750D03*
X19400Y77360D03*
X20300Y133700D03*
X18900Y131900D03*
X16900Y200800D03*
X29800Y-10700D03*
X21100Y24300D03*
X32645Y48334D03*
X30950Y64265D03*
X28450D03*
X32047Y90731D03*
Y108053D03*
X21700Y135400D03*
X23200Y136800D03*
X26900Y200800D03*
X39800Y-10700D03*
X37900Y80400D03*
X43222Y78422D03*
X39700Y84500D03*
X33000Y89100D03*
X35505Y140805D03*
X39445Y140755D03*
X37475D03*
X36900Y200800D03*
X49800Y-10700D03*
X52500Y58300D03*
X49600D03*
X51100Y59700D03*
X54000Y59900D03*
X52140Y140840D03*
X50200Y132731D03*
X47325Y140675D03*
X54600Y153740D03*
X53410Y170531D03*
X55379D03*
X46900Y200800D03*
X59800Y-10700D03*
X65930Y29600D03*
Y48000D03*
X60100Y99400D03*
X61500D03*
X60800Y117610D03*
X59600Y119000D03*
X67700Y126900D03*
X65800Y128700D03*
X56900Y200800D03*
X66900D03*
X69800Y-10700D03*
X79800D03*
X80000Y38500D03*
X79669Y56694D03*
X72900Y92700D03*
X75084Y126716D03*
X69600Y128300D03*
X72000Y126900D03*
X73684Y128600D03*
X78000Y126800D03*
X79500Y128500D03*
X70053Y156902D03*
X73363Y170531D03*
X75332D03*
X76900Y200800D03*
X89800Y-10700D03*
X82800Y9900D03*
X88418Y69718D03*
X89818Y68318D03*
X81400Y75800D03*
X82800Y74600D03*
X84200Y73400D03*
X87000Y71000D03*
X85600Y72200D03*
X82500Y128500D03*
X80900Y126700D03*
X90000Y130000D03*
X91900D03*
X86700Y130203D03*
X86900Y200800D03*
X99800Y-10700D03*
X100390Y60390D03*
X97750Y112400D03*
X95950D03*
X95700Y130050D03*
X96900Y200800D03*
X109800Y-10700D03*
X112973Y103734D03*
X109752Y122702D03*
X106450Y122592D03*
X109823Y128929D03*
X112962Y122641D03*
X106780Y125830D03*
X112973Y147827D03*
X111600Y157578D03*
X106900Y200800D03*
X119800Y-10700D03*
X116123Y103734D03*
X125570Y103733D03*
X119272Y100585D03*
X116123Y106884D03*
X119272D03*
Y110033D03*
X116123D03*
Y128929D03*
X122422Y132079D03*
X119272D03*
Y135229D03*
X122422D03*
X125571Y144677D03*
Y154126D03*
Y157276D03*
X122400Y160300D03*
X126000Y161800D03*
X127700Y165500D03*
X125900D03*
X116900Y200800D03*
X126900D03*
X129800Y-10700D03*
X139800D03*
X139456Y32006D03*
Y23149D03*
Y45196D03*
X138100Y125700D03*
X138200Y122600D03*
X138170Y150977D03*
X135020Y147827D03*
Y150977D03*
X128721D03*
X131871D03*
X138170Y154126D03*
X133445Y165400D03*
X136594Y164100D03*
X136900Y200800D03*
X149800Y-10700D03*
X144574Y23149D03*
X142015Y32006D03*
Y23149D03*
X142014Y44604D03*
X144573Y45196D03*
Y50904D03*
Y54053D03*
X142014D03*
X150767Y91136D03*
Y103734D03*
X141318Y97435D03*
X150767Y94285D03*
X147618Y97434D03*
X147617Y94285D03*
Y100585D03*
X144392Y94121D03*
X147617Y110033D03*
X150767D03*
X147617Y144677D03*
X150767D03*
X146250Y159300D03*
X146900Y200800D03*
X159800Y-10700D03*
X160215Y94285D03*
X163366Y97434D03*
X163365Y103734D03*
X157066Y97435D03*
X153916D03*
X157066Y100585D03*
X163365Y116333D03*
X157066Y141528D03*
X153916D03*
X163366Y132080D03*
X160215Y144677D03*
X156900Y200800D03*
X169800Y-10700D03*
X166615Y91076D03*
X169764Y87926D03*
X166515Y116333D03*
Y132079D03*
X166900Y200800D03*
X179800Y-10700D03*
X184300Y86000D03*
X186700D03*
X176900Y200800D03*
X186900D03*
X189800Y-10700D03*
X188600Y94870D03*
X193069Y174323D03*
X195037D03*
X197006D03*
X191269D03*
X196900Y200800D03*
X199800Y-10700D03*
X209800D03*
X203700Y174323D03*
X206900Y200800D03*
X219800Y-10700D03*
X220970Y88909D03*
X219170D03*
X219075Y96620D03*
X216900Y200800D03*
X229800Y-10700D03*
X232000Y146400D03*
X230600Y147800D03*
X229200Y149300D03*
X234800Y153610D03*
X233400Y155010D03*
X226900Y200800D03*
X245000Y-9100D03*
X245100Y101590D03*
X240400Y139400D03*
X237600Y140800D03*
X239000Y152210D03*
X236200Y150810D03*
X241800Y142200D03*
X243200Y145000D03*
X244600Y143600D03*
X246204Y158196D03*
X243800Y199300D03*
X252300Y-5500D03*
X257500Y-2300D03*
X252700Y-100D03*
X258250Y52992D03*
Y54961D03*
Y58898D03*
Y60866D03*
X247127Y68993D03*
Y67193D03*
Y63087D03*
Y61287D03*
X258350Y72677D03*
Y70709D03*
X257840Y94340D03*
X253094Y136294D03*
X252700Y189100D03*
X252100Y195600D03*
X262300Y1100D03*
X269725Y45371D03*
Y43571D03*
Y74899D03*
Y73099D03*
X268440Y102740D03*
X260776Y102824D03*
X269400Y170700D03*
X261500Y189200D03*
X275600Y96200D03*
X274100Y97800D03*
X271600Y177700D03*
G54D21*
G01X-9500Y4500D02*
X-5000Y0D01*
X0D01*
G54D12*
X-42500Y-4500D03*
X-12500Y-8496D03*
Y-504D03*
G54D22*
G01X-54385Y10316D02*
X-49833Y7339D01*
G01X-54385Y38220D02*
X-49833Y41197D01*
G01X-54385Y44174D02*
X-49833Y41197D01*
G01Y7339D02*
X-45281Y10316D01*
G01X-49833Y7339D02*
X-45281Y4362D01*
G01X-49833Y41197D02*
X-45281Y38220D01*
G01X-7379Y-7379D02*
X0Y0D01*
G01X-7389Y197359D02*
X-10Y189980D01*
G01X0Y0D02*
X7379Y-7379D01*
G01X-10Y189980D02*
X7369Y197359D01*
G01X252621Y5121D02*
X260000Y12500D01*
G01X252621Y184879D02*
X260000Y177500D01*
G01Y12500D02*
X267379Y5121D01*
G01X260000Y177500D02*
X267379Y184879D01*
G01X260000Y177500D02*
X267379Y170121D01*
G54D13*
X-35463Y12890D03*
Y35646D03*
G54D23*
G01X80000Y195000D02*
X85000Y190000D01*
Y182000D01*
X76900Y173900D01*
X5680D01*
X3610Y171830D01*
X-2290D01*
X-4000Y170120D01*
Y153000D01*
X-11100Y145900D01*
X-11980D01*
G01X-12100Y164300D02*
X-10000Y166400D01*
Y174900D01*
X-5000Y179900D01*
X59000D01*
X60000Y180900D01*
Y185000D01*
G01X-12100Y160300D02*
X-8800Y163600D01*
Y174402D01*
X-4502Y178700D01*
X62100D01*
X65000Y181600D01*
Y190000D01*
X60000Y195000D01*
G01X-12100Y156700D02*
X-7600Y161200D01*
Y173904D01*
X-4004Y177500D01*
X67100D01*
X70000Y180400D01*
Y185000D01*
G01X-12000Y153350D02*
X-6400Y158950D01*
Y173406D01*
X-3506Y176300D01*
X69800D01*
X75000Y181500D01*
Y190000D01*
X70000Y195000D01*
G01X8900Y35600D02*
Y38460D01*
X8030Y39330D01*
Y48410D01*
X23900Y64280D01*
Y118100D01*
X40231Y134431D01*
X43931D01*
X47325Y137825D01*
Y140675D01*
G01X-1410Y174700D02*
X1000D01*
X1400Y175100D01*
X74200D01*
X80000Y180900D01*
Y185000D01*
G01X19400Y77360D02*
Y121800D01*
X31036Y133436D01*
Y133502D01*
X34600Y137066D01*
Y139900D01*
X35505Y140805D01*
G01X75332Y170531D02*
Y166232D01*
X74200Y165100D01*
X60180D01*
X56480Y161400D01*
X27340D01*
X26000Y160060D01*
Y133454D01*
X24446Y131900D01*
X18900D01*
G01X39700Y84500D02*
X33400D01*
X27300Y90600D01*
Y116690D01*
X41010Y130400D01*
X50274D01*
X53540Y133666D01*
Y150140D01*
X60400Y157000D01*
X66600D01*
X70000Y160400D01*
X107000D01*
X109822Y157578D01*
X111600D01*
G01X21700Y135400D02*
Y161700D01*
X27800Y167800D01*
X52500D01*
X53410Y168710D01*
Y170531D01*
G01X23200Y136800D02*
Y161220D01*
X28280Y166300D01*
X54300D01*
X55379Y167379D01*
Y170531D01*
G01X73363D02*
Y167563D01*
X72300Y166500D01*
X59600D01*
X55900Y162800D01*
X26760D01*
X24600Y160640D01*
Y134600D01*
X23700Y133700D01*
X20300D01*
G01X60800Y117610D02*
X61784Y116626D01*
Y108904D01*
X63399Y107289D01*
Y90999D01*
X63060Y90660D01*
Y77940D01*
X58320Y73200D01*
X40100D01*
X37900Y75400D01*
Y80400D01*
G01X125571Y154126D02*
X123922Y155775D01*
X115675D01*
X115526Y155626D01*
X115501D01*
X113753Y153878D01*
X105950D01*
X102872Y150800D01*
X94640D01*
X82543Y138703D01*
X68143D01*
X61600Y132160D01*
Y122240D01*
X64600Y119240D01*
Y112429D01*
X67099Y109930D01*
Y90739D01*
X65860Y89500D01*
Y76780D01*
X51100Y62020D01*
Y59700D01*
G01X125571Y157276D02*
X126900Y155947D01*
Y153000D01*
X126378Y152478D01*
X106530D01*
X103452Y149400D01*
X95220D01*
X83123Y137303D01*
X68723D01*
X63000Y131580D01*
Y122820D01*
X66000Y119820D01*
Y113009D01*
X68499Y110510D01*
Y90159D01*
X67260Y88920D01*
Y76200D01*
X52500Y61440D01*
Y58300D01*
G01X128721Y150977D02*
Y156106D01*
X126150Y158677D01*
X126123D01*
X126024Y158776D01*
X115501D01*
X114623Y157898D01*
Y156728D01*
X113173Y155278D01*
X105370D01*
X102292Y152200D01*
X94060D01*
X81963Y140103D01*
X67563D01*
X60200Y132740D01*
Y121660D01*
X63200Y118660D01*
Y111849D01*
X65699Y109350D01*
Y91319D01*
X64460Y90080D01*
Y77360D01*
X49600Y62500D01*
Y58300D01*
G01X131871Y150977D02*
X130371Y149477D01*
X108877D01*
X107400Y148000D01*
X95800D01*
X83703Y135903D01*
X69303D01*
X64400Y131000D01*
Y123400D01*
X67400Y120400D01*
Y113589D01*
X69899Y111090D01*
Y89579D01*
X68660Y88340D01*
Y75620D01*
X54000Y60960D01*
Y59900D01*
G01X52140Y140840D02*
Y151280D01*
X54600Y153740D01*
G01X72900Y92700D02*
Y71340D01*
X78600Y65640D01*
Y59585D01*
X76869Y57854D01*
Y41849D01*
X75169Y40149D01*
Y37191D01*
X76700Y35660D01*
Y12080D01*
X73520Y8900D01*
X63900D01*
X60000Y5000D01*
G01X59600Y119000D02*
X58400D01*
X57300Y120100D01*
Y127100D01*
X58799Y128599D01*
Y133319D01*
X67900Y142420D01*
Y154749D01*
X70053Y156902D01*
G01X65800Y128700D02*
Y123980D01*
X68800Y120980D01*
Y114169D01*
X71299Y111670D01*
Y106081D01*
X72278Y105102D01*
X73518D01*
X74400Y104220D01*
Y71820D01*
X80000Y66220D01*
Y59005D01*
X78269Y57274D01*
Y41269D01*
X76569Y39569D01*
Y37771D01*
X78100Y36240D01*
Y11500D01*
X75000Y8400D01*
Y0D01*
X70000Y-5000D01*
G01X67700Y126900D02*
Y124060D01*
X70200Y121560D01*
Y114749D01*
X72699Y112250D01*
Y108925D01*
X74400Y107224D01*
Y106200D01*
X75800Y104800D01*
Y72400D01*
X81400Y66800D01*
Y11800D01*
X80000Y10400D01*
Y5000D01*
G01X82800Y9900D02*
Y67380D01*
X77200Y72980D01*
Y80430D01*
X81350Y84580D01*
Y112390D01*
X69600Y124140D01*
Y128300D01*
G01X90000Y-5000D02*
X86100Y-1100D01*
Y11320D01*
X84200Y13220D01*
Y67960D01*
X78600Y73560D01*
Y79850D01*
X82750Y84000D01*
Y112970D01*
X72000Y123720D01*
Y126900D01*
G01X81400Y75800D02*
Y78090D01*
X87050Y83740D01*
Y106740D01*
X86150Y107640D01*
Y113530D01*
X75084Y124596D01*
Y126716D01*
G01X82800Y74600D02*
Y77510D01*
X88450Y83160D01*
Y107320D01*
X87550Y108220D01*
Y114110D01*
X76600Y125060D01*
Y132060D01*
X79043Y134503D01*
X84283D01*
X92930Y143150D01*
X103150D01*
X106327Y146327D01*
X111473D01*
X112973Y147827D01*
G01X90000Y5000D02*
Y9400D01*
X85600Y13800D01*
Y68540D01*
X80000Y74140D01*
Y79270D01*
X84150Y83420D01*
Y113550D01*
X73684Y124016D01*
Y128600D01*
G01X84200Y73400D02*
Y76930D01*
X89850Y82580D01*
Y107900D01*
X88950Y108800D01*
Y114690D01*
X78000Y125640D01*
Y126800D01*
G01X85600Y72200D02*
Y76350D01*
X91250Y82000D01*
Y108480D01*
X90350Y109380D01*
Y115270D01*
X79500Y126120D01*
Y128500D01*
G01X80000Y38500D02*
Y56363D01*
X79669Y56694D01*
G01X89818Y68318D02*
Y74628D01*
X97250Y82060D01*
Y108420D01*
X94550Y111120D01*
Y117250D01*
X85050Y126750D01*
Y130950D01*
X89900Y135800D01*
X95150D01*
X101100Y141750D01*
X103730D01*
X105080Y143100D01*
X123994D01*
X125571Y144677D01*
G01X88418Y69718D02*
Y75208D01*
X95850Y82640D01*
Y107840D01*
X93150Y110540D01*
Y116670D01*
X82500Y127320D01*
Y128500D01*
G01X87000Y71000D02*
Y75770D01*
X94450Y83220D01*
Y107260D01*
X91750Y109960D01*
Y115850D01*
X80900Y126700D01*
G01X90000Y130000D02*
Y129900D01*
X90100Y129800D01*
Y128499D01*
X91299Y127300D01*
X98804D01*
X102004Y130500D01*
X120843D01*
X122422Y132079D01*
G01X86700Y130203D02*
X90897Y134400D01*
X95730D01*
X101234Y139904D01*
X119918D01*
X120922Y138900D01*
Y136729D01*
X122422Y135229D01*
G01X106450Y122592D02*
X105000Y121142D01*
Y113900D01*
X102120Y111020D01*
Y27880D01*
X111201Y18799D01*
X140224D01*
X144574Y23149D01*
G01X109752Y122702D02*
X108337D01*
X106847Y124192D01*
X105005D01*
X101900Y121087D01*
Y113210D01*
X100390Y111700D01*
Y60390D01*
G01X116123Y128929D02*
X114623Y127429D01*
X105979D01*
X100300Y121750D01*
Y115820D01*
X97750Y113270D01*
Y112400D01*
G01X95950D02*
Y113450D01*
X98900Y116400D01*
Y122330D01*
X105499Y128929D01*
X109823D01*
G01X91900Y130000D02*
Y129103D01*
X92303Y128700D01*
X98224D01*
X103224Y133700D01*
X117651D01*
X119272Y132079D01*
G01X95700Y130050D02*
Y130820D01*
X96150Y131270D01*
Y132840D01*
X98714Y135404D01*
X103680D01*
X105076Y136800D01*
X117701D01*
X119272Y135229D01*
G01X110000Y-5000D02*
X114400Y-600D01*
X242400D01*
X244200Y1200D01*
Y25520D01*
X251080Y32400D01*
X275400D01*
X276620Y33620D01*
Y94060D01*
X275600Y95080D01*
Y96200D01*
G01X274100Y97800D02*
Y94600D01*
X275220Y93480D01*
Y35030D01*
X273990Y33800D01*
X250500D01*
X242800Y26100D01*
Y1900D01*
X241700Y800D01*
X114200D01*
X110000Y5000D01*
G01X142015Y23149D02*
X141349D01*
X139624Y21424D01*
X132627D01*
X130570Y23481D01*
Y30270D01*
X130040Y30800D01*
X111939D01*
X111933Y30806D01*
X110808D01*
X110106Y31508D01*
Y33093D01*
X103915Y39284D01*
Y56758D01*
X104315Y57158D01*
X105400D01*
X105800Y57558D01*
Y58358D01*
X105400Y58758D01*
X104315D01*
X103915Y59158D01*
Y59958D01*
X104315Y60358D01*
X105400D01*
X105800Y60758D01*
Y61558D01*
X105400Y61958D01*
X104315D01*
X103915Y62358D01*
Y63158D01*
X104315Y63558D01*
X105400D01*
X105800Y63958D01*
Y64758D01*
X105400Y65158D01*
X104315D01*
X103915Y65558D01*
Y66358D01*
X104315Y66758D01*
X105400D01*
X105800Y67158D01*
Y67958D01*
X105400Y68358D01*
X104315D01*
X103915Y68758D01*
Y69558D01*
X104315Y69958D01*
X105400D01*
X105800Y70358D01*
Y71158D01*
X105400Y71558D01*
X104315D01*
X103915Y71958D01*
Y72758D01*
X104315Y73158D01*
X105400D01*
X105800Y73558D01*
Y74358D01*
X105400Y74758D01*
X104315D01*
X103915Y75158D01*
Y75958D01*
X104315Y76358D01*
X105400D01*
X105800Y76758D01*
Y77558D01*
X105400Y77958D01*
X104315D01*
X103915Y78358D01*
Y85805D01*
X104980Y86870D01*
Y104840D01*
X103915Y105905D01*
Y110246D01*
X105939Y112270D01*
X109819D01*
X115205Y106884D01*
X116123D01*
G01X139456Y23149D02*
X138595D01*
X137770Y23974D01*
Y24536D01*
X139501Y26267D01*
Y26829D01*
X138931Y27399D01*
X138369D01*
X136638Y25668D01*
X136076D01*
X135330Y26414D01*
Y27893D01*
X134372Y28851D01*
Y29413D01*
X135659Y30700D01*
Y31262D01*
X135089Y31832D01*
X134527D01*
X133240Y30545D01*
X132678D01*
X126853Y36370D01*
X125068D01*
X124668Y35970D01*
Y35100D01*
X124268Y34700D01*
X123468D01*
X123068Y35100D01*
Y35970D01*
X122668Y36370D01*
X121868D01*
X121468Y35970D01*
Y35100D01*
X121068Y34700D01*
X120268D01*
X119868Y35100D01*
Y35970D01*
X119468Y36370D01*
X118668D01*
X118268Y35970D01*
Y35100D01*
X117868Y34700D01*
X117068D01*
X116668Y35100D01*
Y35970D01*
X116268Y36370D01*
X109740D01*
X107547Y38563D01*
Y39785D01*
X107947Y40185D01*
X109547D01*
X109947Y40585D01*
Y41385D01*
X109547Y41785D01*
X107947D01*
X107547Y42185D01*
Y43171D01*
X107147Y43571D01*
X105947D01*
X105547Y43971D01*
Y44771D01*
X105947Y45171D01*
X107147D01*
X107547Y45571D01*
Y52111D01*
X107147Y52511D01*
X105947D01*
X105547Y52911D01*
Y53711D01*
X105947Y54111D01*
X107147D01*
X107547Y54511D01*
Y55480D01*
X107947Y55880D01*
X109506D01*
X109906Y56280D01*
Y57080D01*
X109506Y57480D01*
X107947D01*
X107547Y57880D01*
Y71785D01*
X107947Y72185D01*
X108900D01*
X109300Y72585D01*
Y73385D01*
X108900Y73785D01*
X107947D01*
X107547Y74185D01*
Y74985D01*
X107947Y75385D01*
X108900D01*
X109300Y75785D01*
Y76585D01*
X108900Y76985D01*
X107947D01*
X107547Y77385D01*
Y80043D01*
X107147Y80443D01*
X106416D01*
X106016Y80843D01*
Y81643D01*
X106416Y82043D01*
X107147D01*
X107547Y82443D01*
Y83243D01*
X107147Y83643D01*
X106416D01*
X106016Y84043D01*
Y84843D01*
X106416Y85243D01*
X107147D01*
X107547Y85643D01*
Y93177D01*
X108074Y93704D01*
Y101234D01*
X109712Y102872D01*
Y103434D01*
X108821Y104325D01*
Y104887D01*
X109391Y105457D01*
X109953D01*
X110844Y104566D01*
X111406D01*
X112124Y105284D01*
X117672D01*
X119272Y106884D01*
G01X144573Y50904D02*
Y50988D01*
X143233Y52328D01*
X138070D01*
Y52300D01*
X136005Y50235D01*
X134435D01*
X133775Y50895D01*
Y53468D01*
X134175Y53868D01*
X136150D01*
X136550Y54268D01*
Y55068D01*
X136150Y55468D01*
X134175D01*
X133775Y55868D01*
Y56668D01*
X134175Y57068D01*
X136150D01*
X136550Y57468D01*
Y58268D01*
X136150Y58668D01*
X134175D01*
X131408Y61435D01*
X125700D01*
X125300Y61835D01*
Y64170D01*
X124900Y64570D01*
X124100D01*
X123700Y64170D01*
Y61835D01*
X123300Y61435D01*
X122500D01*
X122100Y61835D01*
Y64170D01*
X121700Y64570D01*
X120900D01*
X120500Y64170D01*
Y61835D01*
X120100Y61435D01*
X112545D01*
X112265Y61715D01*
Y63595D01*
X112665Y63995D01*
X117680D01*
X118200Y64515D01*
Y65195D01*
X117800Y65595D01*
X112665D01*
X112265Y65995D01*
Y66795D01*
X112665Y67195D01*
X117680D01*
X118200Y67715D01*
Y68515D01*
X117800Y68915D01*
X114565D01*
X114165Y69315D01*
Y70115D01*
X114565Y70515D01*
X117800D01*
X118200Y70915D01*
Y71715D01*
X117800Y72115D01*
X114565D01*
X114165Y72515D01*
Y73315D01*
X114565Y73715D01*
X117800D01*
X118200Y74115D01*
Y74915D01*
X117800Y75315D01*
X114565D01*
X114165Y75715D01*
Y76515D01*
X114565Y76915D01*
X117800D01*
X118200Y77315D01*
Y78115D01*
X117800Y78515D01*
X114565D01*
X114165Y78915D01*
Y79715D01*
X114565Y80115D01*
X117800D01*
X118200Y80515D01*
Y81315D01*
X117800Y81715D01*
X114565D01*
X114165Y82115D01*
Y83568D01*
X117698Y87101D01*
Y98798D01*
X116500Y99996D01*
Y100630D01*
X117522Y101652D01*
X118088D01*
X119155Y100585D01*
X119272D01*
G01X112962Y122641D02*
X114703Y120900D01*
X133046D01*
X133446Y120500D01*
Y87115D01*
X164090Y56471D01*
Y30832D01*
X163689Y30431D01*
X143590D01*
X142015Y32006D01*
G01X106780Y125830D02*
X106818Y125792D01*
X107510D01*
X108946Y124356D01*
X110554D01*
X111353Y123557D01*
Y121877D01*
X118330Y114900D01*
X125834D01*
X126152Y114582D01*
X129300D01*
X130120Y113762D01*
Y109680D01*
X130121Y109679D01*
Y87589D01*
X157610Y60100D01*
Y59990D01*
X161240Y56360D01*
Y40840D01*
X154210Y33810D01*
X141260D01*
X139456Y32006D01*
G01X142014Y54053D02*
X140734Y55333D01*
Y58106D01*
X138196Y60644D01*
Y61210D01*
X140177Y63191D01*
Y63757D01*
X139611Y64323D01*
X139045D01*
X135366Y60644D01*
X134800D01*
X134234Y61210D01*
Y61776D01*
X137913Y65455D01*
Y66021D01*
X137347Y66587D01*
X136781D01*
X133075Y62881D01*
X132509D01*
X131943Y63447D01*
Y64013D01*
X134985Y67055D01*
Y67621D01*
X134419Y68187D01*
X133853D01*
X129989Y64323D01*
X129423D01*
X128857Y64889D01*
Y65455D01*
X132536Y69134D01*
Y69700D01*
X131970Y70266D01*
X131404D01*
X127725Y66587D01*
X127159D01*
X126593Y67153D01*
Y67719D01*
X130272Y71398D01*
Y71964D01*
X129706Y72530D01*
X129140D01*
X125461Y68851D01*
X124895D01*
X124329Y69417D01*
Y69983D01*
X128008Y73662D01*
Y74228D01*
X127442Y74794D01*
X126876D01*
X122132Y70050D01*
X121566D01*
X121000Y70616D01*
Y71182D01*
X125744Y75926D01*
Y76492D01*
X125178Y77058D01*
X124612D01*
X121357Y73803D01*
X120791D01*
X120225Y74369D01*
Y74935D01*
X123480Y78190D01*
Y78756D01*
X122914Y79322D01*
X122348D01*
X121216Y78190D01*
X120650D01*
X119800Y79040D01*
Y82933D01*
X120200Y83333D01*
X121800D01*
X122200Y83733D01*
Y84533D01*
X121800Y84933D01*
X120200D01*
X119800Y85333D01*
Y86534D01*
X120847Y87581D01*
Y89006D01*
X120447Y89406D01*
X119800D01*
X119400Y89806D01*
Y90606D01*
X119800Y91006D01*
X120447D01*
X120847Y91406D01*
Y107653D01*
X120068Y108432D01*
X117724D01*
X116123Y110033D01*
G01X119272D02*
X120672Y111433D01*
X123002D01*
X123996Y110439D01*
Y108965D01*
X124396Y108565D01*
X126496D01*
X126896Y108165D01*
Y107365D01*
X126496Y106965D01*
X123047D01*
X122647Y106565D01*
Y105765D01*
X123047Y105365D01*
X123596D01*
X123996Y104965D01*
Y104165D01*
X123596Y103765D01*
X123047D01*
X122647Y103365D01*
Y102565D01*
X123047Y102165D01*
X123596D01*
X123996Y101765D01*
Y83994D01*
X124846Y83144D01*
Y82578D01*
X123714Y81446D01*
Y80880D01*
X124280Y80314D01*
X124846D01*
X125978Y81446D01*
X126544D01*
X127110Y80880D01*
Y80314D01*
X125978Y79182D01*
Y78616D01*
X126544Y78050D01*
X127110D01*
X128242Y79182D01*
X128808D01*
X129374Y78616D01*
Y78050D01*
X128242Y76918D01*
Y76352D01*
X128808Y75786D01*
X129374D01*
X130506Y76918D01*
X131072D01*
X131638Y76352D01*
Y75786D01*
X130506Y74654D01*
Y74088D01*
X131072Y73522D01*
X131638D01*
X132770Y74654D01*
X133336D01*
X133902Y74088D01*
Y73522D01*
X132770Y72390D01*
Y71824D01*
X133336Y71258D01*
X133902D01*
X135034Y72390D01*
X135600D01*
X136166Y71824D01*
Y71258D01*
X135314Y70406D01*
Y69840D01*
X135880Y69274D01*
X136446D01*
X137298Y70126D01*
X137864D01*
X138430Y69560D01*
Y68994D01*
X138147Y68711D01*
Y68145D01*
X138713Y67579D01*
X139279D01*
X139562Y67862D01*
X140128D01*
X140694Y67296D01*
Y66730D01*
X140411Y66447D01*
Y65881D01*
X140977Y65315D01*
X141543D01*
X141826Y65598D01*
X142392D01*
X145015Y62975D01*
Y60030D01*
X143230Y58245D01*
Y56242D01*
X143694Y55778D01*
X152292D01*
X153530Y54540D01*
Y48339D01*
X151207Y46016D01*
Y44405D01*
X151859Y43753D01*
X154850D01*
X156168Y42435D01*
Y41481D01*
X154977Y40290D01*
X149590D01*
X148412Y41468D01*
Y45869D01*
X148012Y46269D01*
X147612D01*
X147212Y46669D01*
Y47469D01*
X147612Y47869D01*
X149212D01*
X149612Y48269D01*
Y49069D01*
X149212Y49469D01*
X148812D01*
X148412Y49869D01*
Y51332D01*
X147266Y52478D01*
X146148D01*
X144573Y54053D01*
G01Y45196D02*
X145852Y43917D01*
Y41628D01*
X146474Y41006D01*
Y40444D01*
X145623Y39593D01*
Y39031D01*
X146193Y38461D01*
X146755D01*
X147606Y39312D01*
X148168D01*
X148790Y38690D01*
X149887D01*
X150287Y38290D01*
Y37090D01*
X150687Y36690D01*
X151487D01*
X151887Y37090D01*
Y38290D01*
X152287Y38690D01*
X153087D01*
X153487Y38290D01*
Y37090D01*
X153887Y36690D01*
X154687D01*
X155087Y37090D01*
Y38290D01*
X155487Y38690D01*
X156577D01*
X158688Y40801D01*
Y42752D01*
X157888Y43552D01*
X157321D01*
X156088Y44785D01*
Y46637D01*
X156488Y47037D01*
X157506D01*
X157906Y47437D01*
Y48237D01*
X157506Y48637D01*
X156488D01*
X156088Y49037D01*
Y57748D01*
X152910Y60926D01*
X152348D01*
X151335Y59913D01*
X150773D01*
X150203Y60483D01*
Y61045D01*
X151216Y62058D01*
Y62620D01*
X150646Y63190D01*
X150084D01*
X148170Y61276D01*
X147608D01*
X147038Y61846D01*
Y62408D01*
X148952Y64322D01*
Y64884D01*
X148382Y65454D01*
X147820D01*
X146733Y64367D01*
X146171D01*
X145601Y64937D01*
Y65499D01*
X146688Y66586D01*
Y67148D01*
X146118Y67718D01*
X145556D01*
X144327Y66489D01*
X143765D01*
X143195Y67059D01*
Y67621D01*
X144424Y68850D01*
Y69412D01*
X143854Y69982D01*
X143292D01*
X142063Y68753D01*
X141501D01*
X140931Y69323D01*
Y69885D01*
X142160Y71114D01*
Y71676D01*
X141590Y72246D01*
X141028D01*
X139799Y71017D01*
X139237D01*
X138667Y71587D01*
Y72149D01*
X139896Y73378D01*
Y73940D01*
X139326Y74510D01*
X138764D01*
X137535Y73281D01*
X136973D01*
X136403Y73851D01*
Y74413D01*
X137632Y75642D01*
Y76204D01*
X137062Y76774D01*
X136500D01*
X135271Y75545D01*
X134709D01*
X134139Y76115D01*
Y76677D01*
X135368Y77906D01*
Y78468D01*
X134798Y79038D01*
X134236D01*
X133007Y77809D01*
X132445D01*
X131875Y78379D01*
Y78941D01*
X133104Y80170D01*
Y80732D01*
X132534Y81302D01*
X131972D01*
X130743Y80073D01*
X130181D01*
X129611Y80643D01*
Y81205D01*
X130840Y82434D01*
Y82996D01*
X130270Y83566D01*
X129708D01*
X128479Y82337D01*
X127917D01*
X127347Y82907D01*
Y83469D01*
X128576Y84698D01*
Y85260D01*
X127145Y86691D01*
Y98715D01*
X127545Y99115D01*
X127945D01*
X128345Y99515D01*
Y100315D01*
X127945Y100715D01*
X127545D01*
X127145Y101115D01*
Y102158D01*
X125570Y103733D01*
G01X125900Y165500D02*
Y165200D01*
X129800Y161300D01*
X138360D01*
X144060Y167000D01*
X180460D01*
X184260Y163200D01*
X205760D01*
X208860Y160100D01*
X254900D01*
X256400Y158600D01*
Y121520D01*
X262300Y115620D01*
Y104348D01*
X260776Y102824D01*
G01X234800Y153610D02*
X220290D01*
X216600Y157300D01*
X207700D01*
X204600Y160400D01*
X183100D01*
X179300Y164200D01*
X145220D01*
X139520Y158500D01*
X128420D01*
X126620Y160300D01*
X122400D01*
G01X233400Y155010D02*
X220870D01*
X217180Y158700D01*
X208280D01*
X205180Y161800D01*
X183680D01*
X179880Y165600D01*
X144640D01*
X138940Y159900D01*
X129000D01*
X127100Y161800D01*
X126000D01*
G01X193069Y174323D02*
Y175831D01*
X192700Y176200D01*
X187380D01*
X184300Y179280D01*
Y187080D01*
X182030Y189350D01*
X124350D01*
X120000Y185000D01*
G01Y195000D02*
X124250Y190750D01*
X182610D01*
X185700Y187660D01*
Y179860D01*
X187960Y177600D01*
X193300D01*
X195037Y175863D01*
Y174323D01*
G01X138100Y125700D02*
X136500Y124100D01*
Y121600D01*
X136900Y121200D01*
X138900D01*
X139800Y120300D01*
Y98953D01*
X141318Y97435D01*
G01X138200Y122600D02*
X144834D01*
X146117Y121317D01*
Y102085D01*
X147617Y100585D01*
G01X232000Y146400D02*
X217600D01*
X215900Y148100D01*
X200700D01*
X195400Y153400D01*
X164900D01*
X164057Y154243D01*
X156143D01*
X154600Y152700D01*
X139893D01*
X138170Y150977D01*
G01X239000Y152210D02*
X219710D01*
X216020Y155900D01*
X207400D01*
X204300Y159000D01*
X182520D01*
X178720Y162800D01*
X145800D01*
X140100Y157100D01*
X135000D01*
X133520Y155620D01*
Y149327D01*
X135020Y147827D01*
G01X236200Y150810D02*
X219130D01*
X215440Y154500D01*
X207200D01*
X204100Y157600D01*
X181940D01*
X178140Y161400D01*
X146380D01*
X140680Y155700D01*
X137700D01*
X136420Y154420D01*
Y152377D01*
X135020Y150977D01*
G01X268440Y102740D02*
X265360D01*
X263700Y104400D01*
Y116200D01*
X257800Y122100D01*
Y159180D01*
X255480Y161500D01*
X209440D01*
X206340Y164600D01*
X184840D01*
X181039Y168401D01*
X169141D01*
X169140Y168400D01*
X143480D01*
X137780Y162700D01*
X130500D01*
X127700Y165500D01*
G01X138170Y154126D02*
X141086D01*
X142603Y155643D01*
X164637D01*
X165480Y154800D01*
X195980D01*
X201280Y149500D01*
X216480D01*
X218180Y147800D01*
X230600D01*
G01X274100Y97800D02*
Y151020D01*
X262220Y162900D01*
X210020D01*
X206920Y166000D01*
X185420D01*
X181619Y169801D01*
X168561D01*
X168560Y169800D01*
X142900D01*
X137200Y164100D01*
X136594D01*
G01X275600Y96200D02*
Y151500D01*
X262800Y164300D01*
X210600D01*
X207500Y167400D01*
X186000D01*
X182199Y171201D01*
X167981D01*
X167980Y171200D01*
X142320D01*
X136620Y165500D01*
X133545D01*
X133445Y165400D01*
G01X203700Y174323D02*
X200024D01*
X198506Y172805D01*
Y169763D01*
X197628Y168885D01*
X190115D01*
X177700Y181300D01*
X133700D01*
X130000Y185000D01*
G01X197006Y174323D02*
Y175894D01*
X193900Y179000D01*
X188540D01*
X187100Y180440D01*
Y188240D01*
X183190Y192150D01*
X132850D01*
X130000Y195000D01*
G01X253094Y136294D02*
Y133494D01*
X252100Y132500D01*
X214800D01*
X213700Y133600D01*
X211520D01*
X209720Y135400D01*
X170600D01*
X168929Y133729D01*
X159593D01*
X159522Y133800D01*
X153400D01*
X152400Y132800D01*
Y112800D01*
X151383Y111783D01*
X150440D01*
X149100Y110443D01*
Y105401D01*
X150767Y103734D01*
G01X219075Y96620D02*
X215825Y93370D01*
X185452D01*
X182300Y96522D01*
Y98100D01*
X181400Y99000D01*
X179500D01*
X178000Y100500D01*
X172500D01*
X170985Y98985D01*
X143895D01*
X142900Y97990D01*
Y95613D01*
X144392Y94121D01*
G01X246204Y158196D02*
Y141004D01*
X243200Y138000D01*
X217500D01*
X214700Y135200D01*
X211900D01*
X210300Y136800D01*
X153366D01*
X149200Y132634D01*
Y112700D01*
X147617Y111117D01*
Y110033D01*
G01X245100Y101590D02*
X236790D01*
X235750Y102630D01*
X193678D01*
X174508Y121800D01*
X156200D01*
X155416Y121016D01*
Y112703D01*
X154246Y111533D01*
X153294D01*
X151794Y110033D01*
X150767D01*
G01X147617Y144677D02*
X149118Y146178D01*
Y148400D01*
X150045Y149327D01*
X153207D01*
X156480Y152600D01*
X162981D01*
X166081Y149500D01*
X174380D01*
X176880Y152000D01*
X194820D01*
X200120Y146700D01*
X215320D01*
X217020Y145000D01*
X243200D01*
G01X150767Y144677D02*
X155490Y149400D01*
X164201D01*
X165501Y148100D01*
X174960D01*
X177460Y150600D01*
X194240D01*
X199540Y145300D01*
X214740D01*
X216440Y143600D01*
X244600D01*
G01X229200Y149300D02*
X218660D01*
X215360Y152600D01*
X210500D01*
X208800Y150900D01*
X201860D01*
X196560Y156200D01*
X167078D01*
X163978Y159300D01*
X146250D01*
G01X191269Y174323D02*
X187277D01*
X182900Y178700D01*
Y186500D01*
X181450Y187950D01*
X142950D01*
X140000Y185000D01*
G01X184300Y86000D02*
X182100Y88200D01*
X179220D01*
X174420Y93000D01*
X171185D01*
X169500Y94685D01*
X165305D01*
X164090Y95900D01*
X161830D01*
X160215Y94285D01*
G01X157066Y100585D02*
X158566Y102085D01*
X178395D01*
X180080Y100400D01*
X181980D01*
X183701Y98679D01*
Y97101D01*
X185932Y94870D01*
X188600D01*
G01X157066Y141528D02*
X158594Y140000D01*
X172800D01*
X179200Y146400D01*
X192500D01*
X197800Y141100D01*
X213000D01*
X214700Y139400D01*
X240400D01*
G01X153916Y141528D02*
X155488Y143100D01*
X173920D01*
X178620Y147800D01*
X193080D01*
X198380Y142500D01*
X213580D01*
X215280Y140800D01*
X237600D01*
G01X160215Y144677D02*
X161538Y146000D01*
X162566D01*
X162743Y146177D01*
X163987D01*
X164087Y146077D01*
X174917D01*
X178040Y149200D01*
X193660D01*
X198960Y143900D01*
X214160D01*
X215860Y142200D01*
X241800D01*
G01X163366Y97434D02*
X164536D01*
X165885Y96085D01*
X170215D01*
X171900Y94400D01*
X175000D01*
X179800Y89600D01*
X183100D01*
X186700Y86000D01*
G01X163365Y103734D02*
X164931Y105300D01*
X185100D01*
X191770Y98630D01*
X233710D01*
X240480Y91860D01*
X257160D01*
X257840Y92540D01*
Y94340D01*
G54D14*
X-25000Y84290D03*
Y129290D03*
G54D24*
G01X-32500Y-12500D02*
X232500D01*
G03X282500Y37500I0J50000D01*
G01Y152500D01*
G03X232500Y202500I-50000J0D01*
G01X-32500D01*
G03X-57500Y177500I0J-25000D01*
G01Y12500D01*
G03X-32500Y-12500I25000J0D01*
G54D15*
X-12992Y75786D03*
Y137794D03*
G54D25*
G01X142014Y44604D02*
Y46796D01*
X141410Y47400D01*
Y47414D01*
X140284Y48540D01*
X136006D01*
X133790Y46324D01*
Y42326D01*
X137960Y38156D01*
Y36914D01*
X136266Y35220D01*
X132591D01*
X128271Y39540D01*
X113480D01*
X113140Y39880D01*
Y41270D01*
X113480Y41610D01*
X130109D01*
X132080Y43581D01*
Y58214D01*
X130434Y59860D01*
X111711D01*
X110395Y61176D01*
Y68905D01*
X112450Y70960D01*
Y85525D01*
X114342Y87417D01*
Y87472D01*
X114357Y87487D01*
Y94839D01*
X112460Y96736D01*
Y98891D01*
X115080Y101511D01*
Y102691D01*
X116123Y103734D01*
G01X139456Y45196D02*
X140170Y45910D01*
Y46900D01*
X139770Y47300D01*
X136520D01*
X135030Y45810D01*
Y42840D01*
X136121Y41749D01*
X136602Y41748D01*
X136838Y41982D01*
X137318Y41981D01*
X137799Y41500D01*
Y41020D01*
X137564Y40785D01*
Y40306D01*
X139200Y38670D01*
Y36400D01*
X136780Y33980D01*
X132077D01*
X127757Y38300D01*
X112966D01*
X111900Y39366D01*
Y41784D01*
X112966Y42850D01*
X129595D01*
X130840Y44095D01*
Y57700D01*
X129920Y58620D01*
X111197D01*
X109155Y60662D01*
Y69419D01*
X111210Y71474D01*
Y79894D01*
X110870Y80234D01*
X110840D01*
X110500Y80574D01*
Y81434D01*
X110840Y81774D01*
X110870D01*
X111210Y82114D01*
Y82974D01*
X110870Y83314D01*
X110840D01*
X110500Y83654D01*
Y84514D01*
X110840Y84854D01*
X110870D01*
X111210Y85194D01*
Y99395D01*
X113840Y102025D01*
Y102867D01*
X112973Y103734D01*
G01X147618Y97434D02*
X145862Y95678D01*
Y93117D01*
X145000Y92255D01*
Y80900D01*
X169426Y56474D01*
Y55000D01*
X174366Y50060D01*
X240386D01*
X243695Y46751D01*
X248295D01*
X249486Y45560D01*
X255214D01*
X256405Y46751D01*
X263074D01*
X265000Y48677D01*
Y70387D01*
X263074Y72313D01*
X259564D01*
X259200Y72677D01*
X258350D01*
G01X147617Y94285D02*
Y93118D01*
X146240Y91741D01*
Y81414D01*
X146988Y80666D01*
X147468D01*
X148161Y81359D01*
X148641D01*
X149123Y80877D01*
Y80397D01*
X148430Y79704D01*
Y79224D01*
X148912Y78742D01*
X149392D01*
X150085Y79435D01*
X150565D01*
X151047Y78953D01*
Y78473D01*
X150354Y77780D01*
Y77300D01*
X150836Y76818D01*
X151316D01*
X152009Y77511D01*
X152489D01*
X152971Y77029D01*
Y76549D01*
X152278Y75856D01*
Y75376D01*
X152760Y74894D01*
X153240D01*
X153933Y75587D01*
X154413D01*
X154895Y75105D01*
Y74625D01*
X154202Y73932D01*
Y73452D01*
X170666Y56988D01*
Y55514D01*
X174880Y51300D01*
X240900D01*
X244209Y47991D01*
X248809D01*
X250000Y46800D01*
X254700D01*
X255891Y47991D01*
X262560D01*
X263760Y49191D01*
Y69873D01*
X262560Y71073D01*
X259564D01*
X259200Y70709D01*
X258350D01*
G01X150767Y94285D02*
X149400Y92918D01*
Y84246D01*
X153094Y80552D01*
X154602D01*
X157658Y83608D01*
X158138D01*
X158622Y83124D01*
Y82644D01*
X155566Y79588D01*
Y78080D01*
X156774Y76872D01*
X158282D01*
X161288Y79878D01*
X161768D01*
X162252Y79394D01*
Y78914D01*
X159246Y75908D01*
Y74400D01*
X160454Y73192D01*
X161962D01*
X164968Y76198D01*
X165448D01*
X165932Y75714D01*
Y75234D01*
X162926Y72228D01*
Y70720D01*
X164134Y69512D01*
X165642D01*
X168648Y72518D01*
X169128D01*
X169612Y72034D01*
Y71554D01*
X166606Y68548D01*
Y67040D01*
X167814Y65832D01*
X169322D01*
X172328Y68838D01*
X172808D01*
X173292Y68354D01*
Y67874D01*
X170286Y64868D01*
Y63360D01*
X172428Y61218D01*
Y56386D01*
X175754Y53060D01*
X248114D01*
X254316Y59262D01*
X256536D01*
X256900Y58898D01*
X258250D01*
G01X150767Y91136D02*
X150640Y91009D01*
Y90440D01*
X150980Y90100D01*
X152000D01*
X152400Y89700D01*
Y89040D01*
X152060Y88700D01*
X150900D01*
X150658Y88458D01*
Y87940D01*
X150998Y87600D01*
X152250D01*
X152492Y87358D01*
Y86878D01*
X152214Y86600D01*
X150980D01*
X150640Y86260D01*
Y84760D01*
X153608Y81792D01*
X154088D01*
X157144Y84848D01*
X158652D01*
X159862Y83638D01*
Y82130D01*
X156806Y79074D01*
Y78594D01*
X157288Y78112D01*
X157768D01*
X160774Y81118D01*
X162282D01*
X163492Y79908D01*
Y78400D01*
X160486Y75394D01*
Y74914D01*
X160968Y74432D01*
X161448D01*
X164454Y77438D01*
X165962D01*
X167172Y76228D01*
Y74720D01*
X164166Y71714D01*
Y71234D01*
X164648Y70752D01*
X165128D01*
X168134Y73758D01*
X169642D01*
X170852Y72548D01*
Y71040D01*
X167846Y68034D01*
Y67554D01*
X168328Y67072D01*
X168808D01*
X171814Y70078D01*
X173322D01*
X174532Y68868D01*
Y67360D01*
X171526Y64354D01*
Y63874D01*
X173668Y61732D01*
Y56900D01*
X176268Y54300D01*
X247600D01*
X253802Y60502D01*
X256536D01*
X256900Y60866D01*
X258250D01*
G01X247127Y63087D02*
X245917D01*
X245637Y62807D01*
X237992D01*
X235640Y65159D01*
Y77914D01*
X233114Y80440D01*
X171670D01*
X169956Y82154D01*
Y83044D01*
X169439Y83561D01*
X168549D01*
X168032Y84078D01*
Y84968D01*
X167515Y85485D01*
X166625D01*
X166108Y86002D01*
Y86892D01*
X165591Y87409D01*
X164701D01*
X164184Y87926D01*
Y88816D01*
X163667Y89333D01*
X162777D01*
X161685Y90425D01*
Y91745D01*
X160824Y92606D01*
X159505D01*
X158436Y93675D01*
Y94853D01*
X157634Y95655D01*
X156498D01*
X156477Y95634D01*
X156476D01*
X156111Y95999D01*
Y96480D01*
X157066Y97435D01*
G01X153916D02*
X154871Y96480D01*
Y95485D01*
X155696Y94660D01*
Y93717D01*
X156498Y92915D01*
X157442D01*
X158628Y91729D01*
Y91728D01*
X158745Y91611D01*
Y90527D01*
X159606Y89666D01*
X160690D01*
X171156Y79200D01*
X232600D01*
X234400Y77400D01*
Y64645D01*
X237478Y61567D01*
X245637D01*
X245917Y61287D01*
X247127D01*
G01X166615Y91076D02*
X167511Y90180D01*
X167993D01*
X169153Y91340D01*
X173560D01*
X181100Y83800D01*
X235154D01*
X239500Y79454D01*
Y69054D01*
X239841Y68713D01*
X245637D01*
X245917Y68993D01*
X247127D01*
G01X169764Y87926D02*
X168869Y88821D01*
Y89302D01*
X169667Y90100D01*
X173046D01*
X175255Y87891D01*
Y87245D01*
X175894Y86606D01*
X176540D01*
X177179Y85967D01*
Y85321D01*
X177818Y84682D01*
X178464D01*
X180586Y82560D01*
X234640D01*
X238260Y78940D01*
Y68540D01*
X239327Y67473D01*
X245637D01*
X245917Y67193D01*
X247127D01*
G01X163365Y116333D02*
X165144Y118112D01*
X167083D01*
X168320Y119349D01*
X174855D01*
X192944Y101260D01*
X235054D01*
X238914Y97400D01*
X262020D01*
X265650Y93770D01*
Y75349D01*
X266380Y74619D01*
X268235D01*
X268515Y74899D01*
X269725D01*
G01X166515Y116333D02*
Y114921D01*
X166855Y114581D01*
X167541D01*
X168060Y115100D01*
Y117335D01*
X168834Y118109D01*
X174341D01*
X192430Y100020D01*
X234540D01*
X238400Y96160D01*
X261506D01*
X264410Y93256D01*
Y74835D01*
X265866Y73379D01*
X268235D01*
X268515Y73099D01*
X269725D01*
G01X163366Y132080D02*
X165147Y130299D01*
X167083D01*
X168922Y128460D01*
X174286D01*
X175560Y127186D01*
Y122686D01*
X194246Y104000D01*
X245300D01*
X250340Y98960D01*
X265050D01*
X272610Y91400D01*
Y45431D01*
X272270Y45091D01*
X271215D01*
X270935Y45371D01*
X269725D01*
G01X166515Y132079D02*
X167055Y131539D01*
X167597D01*
X169436Y129700D01*
X174800D01*
X176800Y127700D01*
Y123200D01*
X194760Y105240D01*
X245814D01*
X250854Y100200D01*
X265564D01*
X273850Y91914D01*
Y44917D01*
X272784Y43851D01*
X271215D01*
X270935Y43571D01*
X269725D01*
G01X220970Y88909D02*
Y87971D01*
X220690Y87691D01*
Y87200D01*
X221190Y86700D01*
X240800D01*
X244450Y83050D01*
Y76730D01*
X245990Y75190D01*
X254124D01*
X256200Y73114D01*
Y66814D01*
X256714Y66300D01*
X259900D01*
X261300Y64900D01*
Y54423D01*
X260234Y53357D01*
X258615D01*
X258250Y52992D01*
G01X219170Y88909D02*
Y88031D01*
X219450Y87751D01*
Y86686D01*
X220676Y85460D01*
X240286D01*
X243210Y82536D01*
Y76216D01*
X245476Y73950D01*
X253610D01*
X254960Y72600D01*
Y70853D01*
X254620Y70513D01*
X253880D01*
X253540Y70173D01*
Y69493D01*
X253880Y69153D01*
X254610D01*
X254960Y68803D01*
Y66300D01*
X256200Y65060D01*
X259386D01*
X260060Y64386D01*
Y54937D01*
X259720Y54597D01*
X258614D01*
X258250Y54961D01*
G54D16*
X0Y0D03*
X-10Y189980D03*
X260000Y12500D03*
Y177500D03*
G54D26*
G01X64980Y45550D02*
X33250D01*
X32645Y46155D01*
Y48334D01*
G01X65930Y44600D02*
Y29600D01*
G01Y45600D02*
Y44600D01*
G01Y45600D02*
X65880Y45550D01*
X64980D01*
G01D02*
X65930Y46500D01*
G01X64980Y45550D02*
X65930Y44600D01*
G01Y46500D02*
Y45600D01*
G01Y48000D02*
Y46500D01*
G54D17*
X70000Y-5000D03*
X60000Y5000D03*
Y185000D03*
X70000D03*
X60000Y195000D03*
X70000D03*
X80000Y5000D03*
Y185000D03*
Y195000D03*
X90000Y-5000D03*
Y5000D03*
X110000Y-5000D03*
Y5000D03*
X120000Y185000D03*
X130000D03*
X120000Y195000D03*
X130000D03*
X140000Y185000D03*
G54D27*
G01X-25000Y22880D02*
X-24140Y23740D01*
X-15294D01*
X3900Y42934D01*
Y48654D01*
X22080Y66834D01*
Y118794D01*
X38950Y135664D01*
Y139107D01*
X39445Y139602D01*
Y140755D01*
G01X-25000Y25580D02*
X-24140Y24720D01*
X-15700D01*
X2920Y43340D01*
Y49060D01*
X21100Y67240D01*
Y119200D01*
X30684Y128784D01*
Y129784D01*
X31259Y130359D01*
X32259D01*
X32834Y130934D01*
Y131934D01*
X33409Y132509D01*
X34409D01*
X34984Y133084D01*
Y134084D01*
X35559Y134659D01*
X36559D01*
X37970Y136070D01*
Y139107D01*
X37475Y139602D01*
Y140755D01*
G54D18*
X190102Y141546D03*
G54D19*
X268843D03*
M02*
