G04 ================== begin FILE IDENTIFICATION RECORD ==================*
G04 Layout Name:  BEAGLEV FIRE_REV A_230911.brd*
G04 Film Name:    LAY6_GND*
G04 File Format:  Gerber RS274X*
G04 File Origin:  Cadence Allegro 17.4-S031*
G04 Origin Date:  Tue Sep 26 15:21:00 2023*
G04 *
G04 Layer:  VIA CLASS/L6_GND3*
G04 Layer:  PIN/L6_GND3*
G04 Layer:  ETCH/L6_GND3*
G04 Layer:  BOARD GEOMETRY/OUTLINE*
G04 *
G04 Offset:    (0.00 0.00)*
G04 Mirror:    No*
G04 Mode:      Positive*
G04 Rotation:  0*
G04 FullContactRelief:  No*
G04 UndefLineWidth:     5.00*
G04 ================== end FILE IDENTIFICATION RECORD ====================*
%FSLAX25Y25*MOIN*%
%IR0*IPPOS*OFA0.00000B0.00000*MIA0B0*SFA1.00000B1.00000*%
%ADD11C,.014*%
%ADD20C,.06*%
%ADD22C,.04331*%
%ADD13C,.075*%
%ADD19R,.06X.06*%
%ADD14C,.02362*%
%ADD12C,.04724*%
%ADD21R,.065X.065*%
%ADD18C,.06299*%
%ADD17C,.175*%
%ADD23C,.22835*%
%ADD15C,.12795*%
%ADD10O,.06299X.0315*%
%ADD16O,.07874X.04331*%
%ADD24C,.02*%
%ADD25C,.03*%
%ADD26C,.024*%
%ADD27C,.005*%
%ADD31C,.02004*%
%ADD35C,.0602*%
%ADD28C,.02404*%
%ADD37C,.08302*%
%ADD30C,.05504*%
%ADD29C,.07404*%
%ADD38C,.06334*%
%ADD36C,.07702*%
%ADD34C,.06138*%
%ADD32C,.04366*%
%ADD33C,.05546*%
G75*
%LPD*%
G75*
G36*
G01X-35500Y201500D02*
X233000D01*
X239500Y201000D01*
X244500Y200000D01*
X250500Y198000D01*
X255000Y196000D01*
X261500Y192000D01*
X268500Y185500D01*
X271000Y182500D01*
X273500Y178500D01*
Y172500D01*
X270000Y169000D01*
X266446D01*
G02X266197Y169713I0J400D01*
G03X269952Y177500I-6197J7787D01*
G03X260000Y187452I-9952J0D01*
G03X252213Y183697I0J-9952D01*
G02X251500Y183946I-313J249D01*
G01Y193000D01*
X249500Y195000D01*
X244500Y198000D01*
X244250Y198250D01*
X242000Y199000D01*
X238500Y199500D01*
X237000Y200000D01*
X10500D01*
X8500Y198000D01*
Y196414D01*
G02X7787Y196165I-400J0D01*
G03X-10Y199932I-7797J-6186D01*
G03X-7787Y196189I0J-9951D01*
G02X-8500Y196439I-313J249D01*
G01Y197500D01*
X-11000Y200000D01*
X-33500D01*
X-35500Y199500D01*
X-39000Y198000D01*
X-39500D01*
X-42500Y197000D01*
X-51000Y188500D01*
X-53000Y184500D01*
Y144910D01*
X-49620Y141530D01*
X-15960D01*
X-12700Y138270D01*
Y137020D01*
X-13220Y136500D01*
X-16470D01*
X-18040Y138070D01*
X-49430D01*
X-53000Y134500D01*
Y78040D01*
X-50420Y75460D01*
X-18120D01*
X-16080Y77500D01*
X-10500D01*
X-9455Y76455D01*
X-12300Y73610D01*
X-50240D01*
X-53000Y70850D01*
Y47500D01*
X-50156Y44656D01*
G02X-50439Y43974I-283J-282D01*
G01X-51408D01*
G03Y38420I0J-2777D01*
G01X-48258D01*
G03X-45685Y42240I0J2777D01*
G02X-45315Y42790I371J150D01*
G01X-32150D01*
X-30840Y41480D01*
Y41160D01*
X-31500Y40500D01*
X-43000D01*
X-44500Y39000D01*
Y12500D01*
X-40910Y8910D01*
X-32110D01*
X-30525Y7325D01*
Y6975D01*
X-31710Y5790D01*
X-42000D01*
X-44500Y3290D01*
Y-1194D01*
G03X-46364Y-4500I2000J-3306D01*
G03X-42500Y-8364I3864J0D01*
G03X-41936Y-8323I3J3864D01*
G01X-41873Y-8313D01*
X-40500Y-9000D01*
X-34500Y-10500D01*
X-20000D01*
X-17500Y-8000D01*
Y1000D01*
X-12500Y6000D01*
X-8706D01*
G02X-8370Y5384I-1J-400D01*
G03X-9553Y2791I8370J-5385D01*
G02X-10177Y2584I-384J112D01*
G03X-12500Y3360I-2323J-3089D01*
G03X-16364Y-504I0J-3864D01*
G03X-13848Y-4125I3864J0D01*
G02Y-4875I-140J-375D01*
G03X-16364Y-8496I1348J-3621D01*
G03X-15560Y-10856I3864J-1D01*
G02X-15876Y-11500I-317J-244D01*
G01X-35500D01*
X-37500Y-11000D01*
X-40000Y-10500D01*
X-43000Y-9500D01*
X-46000Y-7500D01*
X-47500Y-6000D01*
X-51500Y-1500D01*
X-53500Y2000D01*
X-55000Y5000D01*
X-56000Y9000D01*
X-56500Y10500D01*
Y180500D01*
X-55500Y184500D01*
X-54000Y188500D01*
X-52000Y191500D01*
X-49000Y195000D01*
X-46000Y197500D01*
X-43000Y199000D01*
X-40500Y200000D01*
X-37500Y201000D01*
X-35500Y201500D01*
G37*
G36*
G01X231782Y198000D02*
X238218D01*
G02X238444Y197270I0J-400D01*
G03X237248Y195000I1556J-2270D01*
G03X240000Y192248I2752J0D01*
G03X242746Y194816I0J2752D01*
G02X243428Y195072I399J-27D01*
G01X247500Y191000D01*
Y181000D01*
X250000Y178500D01*
Y172500D01*
X252000Y170500D01*
X253500D01*
X256500Y167500D01*
X276000D01*
X280000Y163500D01*
Y82001D01*
G02X279334Y81702I-400J0D01*
G03X278535Y82006I-799J-898D01*
G03X277333Y80804I0J-1202D01*
G03X277613Y80032I1202J-1D01*
G02Y79776I-153J-128D01*
G03X277333Y79004I922J-771D01*
G03X278535Y77802I1202J0D01*
G03X279334Y78106I0J1202D01*
G02X280000Y77807I266J-299D01*
G01Y29000D01*
X274600Y23600D01*
X268451D01*
G02X268064Y24100I0J400D01*
G03X268102Y24402I-1164J300D01*
G03X268750Y24661I-103J1198D01*
G03X269500Y24398I750J938D01*
G03Y26802I0J1202D01*
G03X268750Y26539I0J-1201D01*
G03X268000Y26802I-750J-938D01*
G03X266798Y25598I0J-1202D01*
G03X265698Y24400I102J-1198D01*
G03X265736Y24100I1203J0D01*
G02X265349Y23600I-387J-100D01*
G01X256662D01*
G02X256266Y24059I0J400D01*
G03X256299Y24503I-2977J444D01*
G03X253289Y27513I-3010J0D01*
G03X252938Y27492I4J-3010D01*
G02X252715Y27669I-24J199D01*
G03X251521Y28736I-1194J-135D01*
G03X250319Y27534I0J-1202D01*
G03X250816Y26561I1201J0D01*
G02X250860Y26281I-118J-162D01*
G03X250280Y24592I2429J-1778D01*
G02X250074Y24398I-200J6D01*
G03X250033Y24399I-50J-1201D01*
G03Y21995I0J-1202D01*
G03X250893Y22357I0J1203D01*
G02X251176Y22359I142J-140D01*
G03X251466Y22108I2111J2146D01*
G02X251507Y21507I-242J-318D01*
G01X245000Y15000D01*
Y-4500D01*
X244381Y-5119D01*
G02X243699Y-4852I-282J283D01*
G03X240000Y-1298I-3699J-148D01*
G03X236298Y-5000I0J-3702D01*
G03X237137Y-7347I3702J0D01*
G02X236827Y-8000I-310J-253D01*
G01X233173D01*
G02X232863Y-7347I0J400D01*
G03X233702Y-5000I-2863J2347D01*
G03X226298I-3702J0D01*
G03X227137Y-7347I3702J0D01*
G02X226827Y-8000I-310J-253D01*
G01X221782D01*
G02X221556Y-7270I0J400D01*
G03X222752Y-5000I-1556J2270D01*
G03X217248I-2752J0D01*
G03X218444Y-7270I2752J0D01*
G02X218218Y-8000I-226J-330D01*
G01X211782D01*
G02X211556Y-7270I0J400D01*
G03X212752Y-5000I-1556J2270D01*
G03X207248I-2752J0D01*
G03X208444Y-7270I2752J0D01*
G02X208218Y-8000I-226J-330D01*
G01X201782D01*
G02X201556Y-7270I0J400D01*
G03X202752Y-5000I-1556J2270D01*
G03X197248I-2752J0D01*
G03X198444Y-7270I2752J0D01*
G02X198218Y-8000I-226J-330D01*
G01X191782D01*
G02X191556Y-7270I0J400D01*
G03X192752Y-5000I-1556J2270D01*
G03X187248I-2752J0D01*
G03X188444Y-7270I2752J0D01*
G02X188218Y-8000I-226J-330D01*
G01X181782D01*
G02X181556Y-7270I0J400D01*
G03X182752Y-5000I-1556J2270D01*
G03X177248I-2752J0D01*
G03X178444Y-7270I2752J0D01*
G02X178218Y-8000I-226J-330D01*
G01X171782D01*
G02X171556Y-7270I0J400D01*
G03X172752Y-5000I-1556J2270D01*
G03X167248I-2752J0D01*
G03X168444Y-7270I2752J0D01*
G02X168218Y-8000I-226J-330D01*
G01X161782D01*
G02X161556Y-7270I0J400D01*
G03X162752Y-5000I-1556J2270D01*
G03X157248I-2752J0D01*
G03X158444Y-7270I2752J0D01*
G02X158218Y-8000I-226J-330D01*
G01X151782D01*
G02X151556Y-7270I0J400D01*
G03X152752Y-5000I-1556J2270D01*
G03X147248I-2752J0D01*
G03X148444Y-7270I2752J0D01*
G02X148218Y-8000I-226J-330D01*
G01X141782D01*
G02X141556Y-7270I0J400D01*
G03X142752Y-5000I-1556J2270D01*
G03X137248I-2752J0D01*
G03X138444Y-7270I2752J0D01*
G02X138218Y-8000I-226J-330D01*
G01X131782D01*
G02X131556Y-7270I0J400D01*
G03X132752Y-5000I-1556J2270D01*
G03X127248I-2752J0D01*
G03X128444Y-7270I2752J0D01*
G02X128218Y-8000I-226J-330D01*
G01X121782D01*
G02X121556Y-7270I0J400D01*
G03X122752Y-5000I-1556J2270D01*
G03X117248I-2752J0D01*
G03X118444Y-7270I2752J0D01*
G02X118218Y-8000I-226J-330D01*
G01X111782D01*
G02X111556Y-7270I0J400D01*
G03X112752Y-5000I-1556J2270D01*
G03X107248I-2752J0D01*
G03X108444Y-7270I2752J0D01*
G02X108218Y-8000I-226J-330D01*
G01X101782D01*
G02X101556Y-7270I0J400D01*
G03X102752Y-5000I-1556J2270D01*
G03X97248I-2752J0D01*
G03X98444Y-7270I2752J0D01*
G02X98218Y-8000I-226J-330D01*
G01X91782D01*
G02X91556Y-7270I0J400D01*
G03X92752Y-5000I-1556J2270D01*
G03X87248I-2752J0D01*
G03X88444Y-7270I2752J0D01*
G02X88218Y-8000I-226J-330D01*
G01X81782D01*
G02X81556Y-7270I0J400D01*
G03X82752Y-5000I-1556J2270D01*
G03X77248I-2752J0D01*
G03X78444Y-7270I2752J0D01*
G02X78218Y-8000I-226J-330D01*
G01X71782D01*
G02X71556Y-7270I0J400D01*
G03X72752Y-5000I-1556J2270D01*
G03X67248I-2752J0D01*
G03X68444Y-7270I2752J0D01*
G02X68218Y-8000I-226J-330D01*
G01X61782D01*
G02X61556Y-7270I0J400D01*
G03X62752Y-5000I-1556J2270D01*
G03X57248I-2752J0D01*
G03X58444Y-7270I2752J0D01*
G02X58218Y-8000I-226J-330D01*
G01X51782D01*
G02X51556Y-7270I0J400D01*
G03X52752Y-5000I-1556J2270D01*
G03X47248I-2752J0D01*
G03X48444Y-7270I2752J0D01*
G02X48218Y-8000I-226J-330D01*
G01X41782D01*
G02X41556Y-7270I0J400D01*
G03X42752Y-5000I-1556J2270D01*
G03X37248I-2752J0D01*
G03X38444Y-7270I2752J0D01*
G02X38218Y-8000I-226J-330D01*
G01X31782D01*
G02X31556Y-7270I0J400D01*
G03X32752Y-5000I-1556J2270D01*
G03X27248I-2752J0D01*
G03X28444Y-7270I2752J0D01*
G02X28218Y-8000I-226J-330D01*
G01X23702D01*
Y-2000D01*
G03X23000Y-1298I-702J0D01*
G01X17000D01*
G03X16298Y-2000I0J-702D01*
G01Y-6333D01*
G02X15616Y-6616I-400J0D01*
G01X15000Y-6000D01*
Y8500D01*
X13500Y10000D01*
X-11500D01*
X-14844Y6656D01*
G02X-15440Y6689I-283J282D01*
G03X-16380Y7142I-940J-749D01*
G03X-17582Y5940I0J-1202D01*
G03X-17129Y5000I1202J0D01*
G02X-17096Y4404I-249J-313D01*
G01X-18639Y2861D01*
G02X-19264Y2935I-283J283D01*
G03X-20290Y3512I-1026J-624D01*
G03Y1108I0J-1202D01*
G03X-19997Y1144I1J1202D01*
G02X-19500Y756I97J-388D01*
G01Y-6500D01*
X-21500Y-8500D01*
X-38371D01*
X-38543Y-8457D01*
X-39500Y-7500D01*
Y-6023D01*
X-39480Y-5981D01*
G03X-39136Y-4500I-3020J1482D01*
G03X-39500Y-2978I-3364J0D01*
G01Y2000D01*
X-37500Y4000D01*
X-31000D01*
X-27500Y7500D01*
Y11000D01*
X-28500Y12000D01*
X-32927D01*
G02X-33320Y12476I0J400D01*
G03X-33280Y12890I-2143J416D01*
G03X-35463Y15073I-2183J0D01*
G03X-36970Y14470I-1J-2183D01*
G01X-38500Y16000D01*
Y21567D01*
G02X-37871Y21895I400J0D01*
G03X-37183Y21679I688J986D01*
G03X-35981Y22881I0J1202D01*
G03X-36546Y23900I-1201J0D01*
G02Y24579I212J340D01*
G03X-35981Y25598I-636J1019D01*
G03X-37183Y26800I-1202J0D01*
G03X-37871Y26584I0J-1202D01*
G02X-38500Y26912I-229J328D01*
G01Y37500D01*
X-37000Y39000D01*
X-35468D01*
X-35444Y38994D01*
G03X-34872Y38920I576J2203D01*
G01X-31722D01*
G03X-31150Y38994I-4J2277D01*
G01X-31126Y39000D01*
X-29000D01*
X-27500Y40500D01*
Y46000D01*
X-29500Y48000D01*
X-40117D01*
G02X-40388Y48695I-1J400D01*
G03X-38948Y51973I-3011J3278D01*
G03X-47852I-4452J0D01*
G03X-46412Y48695I4451J0D01*
G02X-46683Y48000I-270J-295D01*
G01X-47500D01*
X-49500Y50000D01*
Y69500D01*
X-48500Y70500D01*
X-30500D01*
X-26000Y66000D01*
X-16363D01*
X-16335Y65833D01*
G03X-13963I1186J196D01*
G01X-13935Y66000D01*
X-12327D01*
X-12322Y65806D01*
G03X-11120Y64638I1202J34D01*
G03X-10329Y64935I0J1202D01*
G03X-9550Y64648I779J914D01*
G03X-8781Y64926I0J1203D01*
G03X-8000Y64638I781J915D01*
G03X-6798Y65840I0J1202D01*
G03X-7099Y66636I-1203J0D01*
G01X-7223Y66777D01*
X-3000Y71000D01*
Y78500D01*
X-8820Y84320D01*
X-17478D01*
X-17484Y84514D01*
G03X-21969Y91172I-7516J-224D01*
G02X-22110Y91800I161J366D01*
G03X-21814Y92590I-906J790D01*
G03X-24218I-1202J0D01*
G03X-24181Y92296I1202J2D01*
G02X-24591Y91798I-388J-98D01*
G03X-25000Y91810I-425J-7508D01*
G03X-32520Y84290I0J-7520D01*
G03X-32337Y82644I7520J3D01*
G01X-32313Y82537D01*
X-36370Y78480D01*
X-38023D01*
G02X-38365Y79088I0J400D01*
G03X-37915Y80688I-2619J1600D01*
G03X-40984Y83757I-3069J0D01*
G03X-44043Y80935I0J-3069D01*
G02X-44725Y80685I-399J32D01*
G01X-45000Y80960D01*
Y132000D01*
X-44639Y132361D01*
G02X-43967Y132172I283J-283D01*
G03X-40984Y129823I2983J720D01*
G03X-37915Y132892I0J3069D01*
G01Y132943D01*
G02X-37233Y133233I400J7D01*
G01X-32380Y128380D01*
X-32371Y128313D01*
G03X-25000Y121854I7371J976D01*
G03X-17652Y128151I0J7436D01*
G01X-17626Y128320D01*
X-9180D01*
X-4070Y133430D01*
Y139270D01*
X-9300Y144500D01*
X-10729D01*
G02X-11041Y145150I0J400D01*
G03X-10778Y145900I-938J750D01*
G03X-13182I-1202J0D01*
G03X-12919Y145150I1201J0D01*
G02X-13231Y144500I-312J-250D01*
G01X-39349D01*
G02X-39661Y145150I0J400D01*
G03X-39398Y145900I-938J750D01*
G03X-41802I-1202J0D01*
G03X-41539Y145150I1201J0D01*
G02X-41851Y144500I-312J-250D01*
G01X-43349D01*
G02X-43661Y145150I0J400D01*
G03X-43398Y145900I-938J750D01*
G03X-45802I-1202J0D01*
G03X-45539Y145150I1201J0D01*
G02X-45851Y144500I-312J-250D01*
G01X-46980D01*
X-48500Y146020D01*
Y183000D01*
X-46353Y185147D01*
G02X-45703Y185023I283J-283D01*
G03X-44600Y184298I1103J477D01*
G03X-43398Y185500I0J1202D01*
G03X-44123Y186603I-1202J0D01*
G02X-44247Y187253I159J367D01*
G01X-34500Y197000D01*
X-14500D01*
X-13000Y195500D01*
Y184000D01*
X-12587Y183587D01*
G02X-12678Y182954I-283J-282D01*
G03X-13302Y181900I578J-1054D01*
G03X-12100Y180698I1202J0D01*
G03X-11046Y181322I0J1202D01*
G02X-10413Y181413I351J-192D01*
G01X-8000Y179000D01*
X8500D01*
X15000Y185500D01*
Y196000D01*
X17000Y198000D01*
X17482D01*
Y197715D01*
X17422Y197657D01*
G03X16298Y195000I2578J-2657D01*
G03X23702I3702J0D01*
G03X22863Y197347I-3702J0D01*
G02X23173Y198000I310J253D01*
G01X28218D01*
G02X28444Y197270I0J-400D01*
G03X27248Y195000I1556J-2270D01*
G03X32752I2752J0D01*
G03X31556Y197270I-2752J0D01*
G02X31782Y198000I226J330D01*
G01X38218D01*
G02X38444Y197270I0J-400D01*
G03X37248Y195000I1556J-2270D01*
G03X42752I2752J0D01*
G03X41556Y197270I-2752J0D01*
G02X41782Y198000I226J330D01*
G01X48218D01*
G02X48444Y197270I0J-400D01*
G03X47248Y195000I1556J-2270D01*
G03X52752I2752J0D01*
G03X51556Y197270I-2752J0D01*
G02X51782Y198000I226J330D01*
G01X58218D01*
G02X58444Y197270I0J-400D01*
G03X57248Y195000I1556J-2270D01*
G03X62752I2752J0D01*
G03X61556Y197270I-2752J0D01*
G02X61782Y198000I226J330D01*
G01X68218D01*
G02X68444Y197270I0J-400D01*
G03X67248Y195000I1556J-2270D01*
G03X72752I2752J0D01*
G03X71556Y197270I-2752J0D01*
G02X71782Y198000I226J330D01*
G01X78218D01*
G02X78444Y197270I0J-400D01*
G03X77248Y195000I1556J-2270D01*
G03X82752I2752J0D01*
G03X81556Y197270I-2752J0D01*
G02X81782Y198000I226J330D01*
G01X88218D01*
G02X88444Y197270I0J-400D01*
G03X87248Y195000I1556J-2270D01*
G03X92752I2752J0D01*
G03X91556Y197270I-2752J0D01*
G02X91782Y198000I226J330D01*
G01X98218D01*
G02X98444Y197270I0J-400D01*
G03X97248Y195000I1556J-2270D01*
G03X102752I2752J0D01*
G03X101556Y197270I-2752J0D01*
G02X101782Y198000I226J330D01*
G01X108218D01*
G02X108444Y197270I0J-400D01*
G03X107248Y195000I1556J-2270D01*
G03X112752I2752J0D01*
G03X111556Y197270I-2752J0D01*
G02X111782Y198000I226J330D01*
G01X118218D01*
G02X118444Y197270I0J-400D01*
G03X117248Y195000I1556J-2270D01*
G03X122752I2752J0D01*
G03X121556Y197270I-2752J0D01*
G02X121782Y198000I226J330D01*
G01X128218D01*
G02X128444Y197270I0J-400D01*
G03X127248Y195000I1556J-2270D01*
G03X132752I2752J0D01*
G03X131556Y197270I-2752J0D01*
G02X131782Y198000I226J330D01*
G01X138218D01*
G02X138444Y197270I0J-400D01*
G03X137248Y195000I1556J-2270D01*
G03X142752I2752J0D01*
G03X141556Y197270I-2752J0D01*
G02X141782Y198000I226J330D01*
G01X148218D01*
G02X148444Y197270I0J-400D01*
G03X147248Y195000I1556J-2270D01*
G03X152752I2752J0D01*
G03X151556Y197270I-2752J0D01*
G02X151782Y198000I226J330D01*
G01X158218D01*
G02X158444Y197270I0J-400D01*
G03X157248Y195000I1556J-2270D01*
G03X162752I2752J0D01*
G03X161556Y197270I-2752J0D01*
G02X161782Y198000I226J330D01*
G01X168218D01*
G02X168444Y197270I0J-400D01*
G03X167248Y195000I1556J-2270D01*
G03X172752I2752J0D01*
G03X171556Y197270I-2752J0D01*
G02X171782Y198000I226J330D01*
G01X178218D01*
G02X178444Y197270I0J-400D01*
G03X177248Y195000I1556J-2270D01*
G03X182752I2752J0D01*
G03X181556Y197270I-2752J0D01*
G02X181782Y198000I226J330D01*
G01X188218D01*
G02X188444Y197270I0J-400D01*
G03X187248Y195000I1556J-2270D01*
G03X192752I2752J0D01*
G03X191556Y197270I-2752J0D01*
G02X191782Y198000I226J330D01*
G01X198218D01*
G02X198444Y197270I0J-400D01*
G03X197248Y195000I1556J-2270D01*
G03X202752I2752J0D01*
G03X201556Y197270I-2752J0D01*
G02X201782Y198000I226J330D01*
G01X208218D01*
G02X208444Y197270I0J-400D01*
G03X207248Y195000I1556J-2270D01*
G03X212752I2752J0D01*
G03X211556Y197270I-2752J0D01*
G02X211782Y198000I226J330D01*
G01X218218D01*
G02X218444Y197270I0J-400D01*
G03X217248Y195000I1556J-2270D01*
G03X222752I2752J0D01*
G03X221556Y197270I-2752J0D01*
G02X221782Y198000I226J330D01*
G01X228218D01*
G02X228444Y197270I0J-400D01*
G03X227248Y195000I1556J-2270D01*
G03X232752I2752J0D01*
G03X231556Y197270I-2752J0D01*
G02X231782Y198000I226J330D01*
G37*
G36*
G01X251500Y6054D02*
G02X252213Y6303I400J0D01*
G03X260000Y2548I7787J6197D01*
G03X267306Y5743I0J9951D01*
G02X268000Y5471I294J-271D01*
G01Y4000D01*
X264000Y500D01*
X261500Y-1500D01*
X255500Y-5500D01*
X251000Y-7500D01*
X247500Y-9000D01*
X245000Y-10000D01*
X241500Y-10500D01*
X239500Y-11000D01*
X238500D01*
X237000Y-11500D01*
X-9124D01*
G02X-9440Y-10856I1J400D01*
G03X-8636Y-8496I-3060J2359D01*
G03X-11152Y-4875I-3864J0D01*
G02Y-4125I140J375D01*
G03X-9936Y-3395I-1347J3622D01*
G02X-9297Y-3551I266J-299D01*
G03X0Y-9952I9297J3551D01*
G03X7787Y-6197I0J9952D01*
G02X8500Y-6446I313J-249D01*
G01Y-9500D01*
X9000Y-10000D01*
X237500D01*
X243500Y-9000D01*
X245000Y-8000D01*
X251500Y-1500D01*
Y6054D01*
G37*
%LPC*%
G75*
G36*
G01X-51408Y10116D02*
X-48258D01*
G02Y4562I0J-2777D01*
G01X-51408D01*
G02Y10116I0J2777D01*
G37*
G36*
G01X16298Y182000D02*
Y188000D01*
G02X17000Y188702I702J0D01*
G01X23000D01*
G02X23702Y188000I0J-702D01*
G01Y182000D01*
G02X23000Y181298I-702J0D01*
G01X17000D01*
G02X16298Y182000I0J702D01*
G37*
G36*
G01X61400Y17877D02*
G02X62800I700J-976D01*
G02X63500Y18102I700J-976D01*
G02X64702Y16900I0J-1202D01*
G02X64477Y16200I-1201J0D01*
G02X64702Y15500I-976J-700D01*
G02X63500Y14298I-1202J0D01*
G02X62298Y15498I0J1202D01*
G03X62098Y15698I-200J0D01*
G02X61400Y15923I2J1202D01*
G02X60700Y15698I-700J976D01*
G02Y18102I0J1202D01*
G02X61400Y17877I0J-1201D01*
G37*
G36*
G01X86350Y17850D02*
G02X85998Y18700I850J850D01*
G02X87200Y19902I1202J0D01*
G02X88050Y19550I0J-1202D01*
G02X89750I850J-850D01*
G02X90600Y19902I850J-850D01*
G02X91802Y18700I0J-1202D01*
G02X91450Y17850I-1202J0D01*
G02Y16150I-850J-850D01*
G02X91802Y15300I-850J-850D01*
G02X90600Y14098I-1202J0D01*
G02X89750Y14450I0J1202D01*
G02X88050I-850J850D01*
G02X87200Y14098I-850J850D01*
G02X85998Y15300I0J1202D01*
G02X86350Y16150I1202J0D01*
G02Y17850I850J850D01*
G37*
G36*
G01X25150Y21461D02*
G02X24400Y21198I-750J938D01*
G02Y23602I0J1202D01*
G02X25150Y23339I0J-1201D01*
G02X26650I750J-938D01*
G02X27400Y23602I750J-938D01*
G02Y21198I0J-1202D01*
G02X26650Y21461I0J1201D01*
G02X25150I-750J938D01*
G37*
G36*
G01X43261Y21250D02*
G02Y22750I938J750D01*
G02X42998Y23500I938J750D01*
G02X45402I1202J0D01*
G02X45139Y22750I-1201J0D01*
G02Y21250I-938J-750D01*
G02X45402Y20500I-938J-750D01*
G02X42998I-1202J0D01*
G02X43261Y21250I1201J0D01*
G37*
G36*
G01X-4584Y27014D02*
G03Y27286I-147J136D01*
G02X-4902Y28100I883J814D01*
G02X-2498I1202J0D01*
G02X-2816Y27286I-1201J0D01*
G03Y27014I147J-136D01*
G02X-2498Y26200I-883J-814D01*
G02X-2511Y26025I-1202J1D01*
G03X-2351Y25800I198J-29D01*
G02X-1378Y24620I-229J-1180D01*
G02X-3782I-1202J0D01*
G02X-3769Y24795I1202J-1D01*
G03X-3929Y25020I-198J29D01*
G02X-4902Y26200I229J1180D01*
G02X-4584Y27014I1201J0D01*
G37*
G36*
G01X-26200Y36045D02*
G02X-24600I800J-897D01*
G02X-23000I800J-897D01*
G02X-22200Y36350I800J-897D01*
G02X-20998Y35148I0J-1202D01*
G02X-21261Y34398I-1201J0D01*
G02X-20998Y33648I-938J-750D01*
G02X-22200Y32446I-1202J0D01*
G02X-23000Y32751I0J1202D01*
G02X-24600I-800J897D01*
G02X-26200I-800J897D01*
G02X-27000Y32446I-800J897D01*
G02X-28202Y33648I0J1202D01*
G02X-27939Y34398I1201J0D01*
G02X-28202Y35148I938J750D01*
G02X-27000Y36350I1202J0D01*
G02X-26200Y36045I0J-1202D01*
G37*
G36*
G01X61400Y36177D02*
G02X62800I700J-976D01*
G02X63500Y36402I700J-976D01*
G02X64702Y35200I0J-1202D01*
G02X64477Y34500I-1201J0D01*
G02X64702Y33800I-976J-700D01*
G02X63500Y32598I-1202J0D01*
G02X62298Y33798I0J1202D01*
G03X62098Y33998I-200J0D01*
G02X61400Y34223I2J1202D01*
G02X60700Y33998I-700J976D01*
G02Y36402I0J1202D01*
G02X61400Y36177I0J-1201D01*
G37*
G36*
G01X252868Y36921D02*
G02X253618Y37184I750J-938D01*
G02X254318Y36959I0J-1201D01*
G02X255718I700J-976D01*
G02X256418Y37184I700J-976D01*
G02Y34780I0J-1202D01*
G02X255718Y35005I0J1201D01*
G02X254318I-700J976D01*
G02X253618Y34780I-700J976D01*
G02X252868Y35043I0J1201D01*
G02X252118Y34780I-750J938D01*
G02Y37184I0J1202D01*
G02X252868Y36921I0J-1201D01*
G37*
G36*
G01X86350Y36150D02*
G02X85998Y37000I850J850D01*
G02X87200Y38202I1202J0D01*
G02X88050Y37850I0J-1202D01*
G02X89750I850J-850D01*
G02X90600Y38202I850J-850D01*
G02X91802Y37000I0J-1202D01*
G02X91450Y36150I-1202J0D01*
G02Y34450I-850J-850D01*
G02X91802Y33600I-850J-850D01*
G02X90600Y32398I-1202J0D01*
G02X89750Y32750I0J1202D01*
G02X88050I-850J850D01*
G02X87200Y32398I-850J850D01*
G02X85998Y33600I0J1202D01*
G02X86350Y34450I1202J0D01*
G02Y36150I850J850D01*
G37*
G36*
G01X171991Y34975D02*
G02Y36425I960J725D01*
G02X171748Y37150I960J725D01*
G02X174152I1202J0D01*
G02X173909Y36425I-1203J0D01*
G02Y34975I-960J-725D01*
G02X174152Y34250I-960J-725D01*
G02X171748I-1202J0D01*
G02X171991Y34975I1203J0D01*
G37*
G36*
G01X271014Y35016D02*
G02X270200Y34698I-814J883D01*
G02X268998Y35900I0J1202D01*
G02X269223Y36600I1201J0D01*
G02X268998Y37300I976J700D01*
G02X270200Y38502I1202J0D01*
G02X271014Y38184I0J-1201D01*
G03X271286I136J147D01*
G02X272100Y38502I814J-883D01*
G02X273302Y37300I0J-1202D01*
G02X273077Y36600I-1201J0D01*
G02X273302Y35900I-976J-700D01*
G02X272100Y34698I-1202J0D01*
G02X271286Y35016I0J1201D01*
G03X271014I-136J-147D01*
G37*
G36*
G01X20378Y36372D02*
G03Y36628I-153J128D01*
G02X20098Y37400I922J771D01*
G02X21300Y38602I1202J0D01*
G02X22100Y38297I0J-1202D01*
G02X22900Y38602I800J-897D01*
G02X24102Y37400I0J-1202D01*
G02X23822Y36628I-1202J-1D01*
G03Y36372I153J-128D01*
G02X24102Y35600I-922J-771D01*
G02X23784Y34786I-1201J0D01*
G03Y34514I147J-136D01*
G02Y32886I-883J-814D01*
G03Y32614I147J-136D01*
G02X24102Y31800I-883J-814D01*
G02X22900Y30598I-1202J0D01*
G02X22100Y30903I0J1202D01*
G02X21300Y30598I-800J897D01*
G02X20098Y31800I0J1202D01*
G02X20416Y32614I1201J0D01*
G03Y32886I-147J136D01*
G02Y34514I883J814D01*
G03Y34786I-147J136D01*
G02X20098Y35600I883J814D01*
G02X20378Y36372I1202J1D01*
G37*
G36*
G01X47416Y36314D02*
G03Y36586I-147J136D01*
G02X47098Y37400I883J814D01*
G02X48300Y38602I1202J0D01*
G02X49100Y38297I0J-1202D01*
G02X49900Y38602I800J-897D01*
G02X51102Y37400I0J-1202D01*
G02X50784Y36586I-1201J0D01*
G03Y36314I147J-136D01*
G02Y34686I-883J-814D01*
G03Y34414I147J-136D01*
G02X51102Y33600I-883J-814D01*
G02X50822Y32828I-1202J-1D01*
G03Y32572I153J-128D01*
G02X51102Y31800I-922J-771D01*
G02X49900Y30598I-1202J0D01*
G02X49100Y30903I0J1202D01*
G02X48300Y30598I-800J897D01*
G02X47098Y31800I0J1202D01*
G02X47378Y32572I1202J1D01*
G03Y32828I-153J128D01*
G02X47098Y33600I922J771D01*
G02X47416Y34414I1201J0D01*
G03Y34686I-147J136D01*
G02Y36314I883J814D01*
G37*
G36*
G01X4281Y37500D02*
G02X4018Y38250I938J750D01*
G02X5220Y39452I1202J0D01*
G02X5970Y39189I0J-1201D01*
G02X6720Y39452I750J-938D01*
G02X7922Y38250I0J-1202D01*
G02X7659Y37500I-1201J0D01*
G02X7896Y36998I-939J-750D01*
G03X8440Y36711I391J83D01*
G02X8900Y36802I459J-1111D01*
G02Y34398I0J-1202D01*
G02X8083Y34718I0J1203D01*
G03X7772Y34668I-136J-146D01*
G02X7659Y34500I-1050J584D01*
G02X7922Y33750I-938J-750D01*
G02X6720Y32548I-1202J0D01*
G02X5970Y32811I0J1201D01*
G02X5220Y32548I-750J938D01*
G02X4018Y33750I0J1202D01*
G02X4281Y34500I1201J0D01*
G02Y36000I938J750D01*
G02Y37500I938J750D01*
G37*
G36*
G01X79220Y37586D02*
G03X78944Y37570I-130J-153D01*
G02X78069Y37192I-875J824D01*
G02Y39596I0J1202D01*
G02X78849Y39308I-1J-1202D01*
G03X79125Y39324I130J153D01*
G02X80000Y39702I875J-824D01*
G02Y37298I0J-1202D01*
G02X79220Y37586I1J1202D01*
G37*
G36*
G01X212264Y39036D02*
G02X211928Y39870I867J834D01*
G02X213130Y41072I1202J0D01*
G02X213864Y40822I0J-1203D01*
G02X214598Y41072I734J-953D01*
G02X215348Y40809I0J-1201D01*
G02X216098Y41072I750J-938D01*
G02X217300Y39870I0J-1202D01*
G02X216995Y39070I-1202J0D01*
G02X217300Y38270I-897J-800D01*
G02X216098Y37068I-1202J0D01*
G02X215348Y37331I0J1201D01*
G02X214598Y37068I-750J938D01*
G02X213910Y37284I0J1202D01*
G02X213098Y36968I-812J885D01*
G02X211896Y38170I0J1202D01*
G02X212264Y39036I1203J0D01*
G37*
G36*
G01X216810Y29992D02*
G03X217353Y30363I143J373D01*
G02X229472Y42420I12119J-62D01*
G02Y18182I0J-12119D01*
G02X217653Y27623I0J12118D01*
G03X217042Y27868I-390J-89D01*
G02X216378Y27668I-664J1002D01*
G02X215658Y27907I-1J1202D01*
G02X214298I-680J990D01*
G02X213578Y27668I-719J963D01*
G02Y30072I0J1202D01*
G02X214258Y29861I0J-1201D01*
G02X214978Y30100I719J-963D01*
G02X215698Y29861I1J-1202D01*
G02X216378Y30072I680J-990D01*
G02X216810Y29992I1J-1202D01*
G37*
G36*
G01X257494Y42025D02*
G03Y42306I-142J140D01*
G02X257148Y43150I856J844D01*
G02X259552I1202J0D01*
G02X259206Y42306I-1202J0D01*
G03Y42025I142J-140D01*
G02X259552Y41181I-856J-844D01*
G02X257148I-1202J0D01*
G02X257494Y42025I1202J0D01*
G37*
G36*
G01X246128Y44191D02*
G03X246123Y44458I-151J131D01*
G02X245797Y45281I876J823D01*
G02X248201I1202J0D01*
G02X247909Y44495I-1202J-1D01*
G03X247914Y44228I151J-131D01*
G02X248240Y43405I-876J-823D01*
G02X245836I-1202J0D01*
G02X246128Y44191I1202J1D01*
G37*
G36*
G01X268803Y44343D02*
G03Y44599I-153J128D01*
G02X268523Y45371I922J771D01*
G02X270927I1202J0D01*
G02X270647Y44599I-1202J-1D01*
G03Y44343I153J-128D01*
G02X270927Y43571I-922J-771D01*
G02X268523I-1202J0D01*
G02X268803Y44343I1202J1D01*
G37*
G36*
G01X225747Y47851D02*
G03X226214Y48043I116J383D01*
G02X227271Y48673I1057J-572D01*
G02X228043Y48393I1J-1202D01*
G03X228299I128J153D01*
G02X229071Y48673I771J-922D01*
G02Y46269I0J-1202D01*
G02X228299Y46549I-1J1202D01*
G03X228043I-128J-153D01*
G02X227271Y46269I-771J922D01*
G02X226924Y46320I-1J1202D01*
G03X226457Y46128I-116J-383D01*
G02X225970Y45642I-1057J572D01*
G03X225810Y45095I189J-352D01*
G02X225962Y44510I-1050J-585D01*
G02X223558I-1202J0D01*
G02X224190Y45568I1202J0D01*
G03X224350Y46115I-189J352D01*
G02X224198Y46700I1050J585D01*
G02X225400Y47902I1202J0D01*
G02X225747Y47851I1J-1202D01*
G37*
G36*
G01X268714Y50247D02*
G03Y50504I-153J128D01*
G02X268433Y51276I920J772D01*
G02X270837I1202J0D01*
G02X270557Y50505I-1202J0D01*
G03Y50248I153J-128D01*
G02X270838Y49476I-920J-772D01*
G02X268434I-1202J0D01*
G02X268714Y50247I1202J0D01*
G37*
G36*
G01X61400Y54477D02*
G02X62800I700J-976D01*
G02X63500Y54702I700J-976D01*
G02X64702Y53500I0J-1202D01*
G02X64477Y52800I-1201J0D01*
G02X64702Y52100I-976J-700D01*
G02X63500Y50898I-1202J0D01*
G02X62298Y52098I0J1202D01*
G03X62098Y52298I-200J0D01*
G02X61400Y52523I2J1202D01*
G02X60700Y52298I-700J976D01*
G02Y54702I0J1202D01*
G02X61400Y54477I0J-1201D01*
G37*
G36*
G01X257394Y53836D02*
G03Y54117I-142J140D01*
G02X257048Y54961I856J844D01*
G02X259452I1202J0D01*
G02X259106Y54117I-1202J0D01*
G03Y53836I142J-140D01*
G02X259452Y52992I-856J-844D01*
G02X257048I-1202J0D01*
G02X257394Y53836I1202J0D01*
G37*
G36*
G01X86350Y54450D02*
G02X85998Y55300I850J850D01*
G02X87200Y56502I1202J0D01*
G02X88050Y56150I0J-1202D01*
G02X89750I850J-850D01*
G02X90600Y56502I850J-850D01*
G02X91802Y55300I0J-1202D01*
G02X91450Y54450I-1202J0D01*
G02Y52750I-850J-850D01*
G02X91802Y51900I-850J-850D01*
G02X90600Y50698I-1202J0D01*
G02X89750Y51050I0J1202D01*
G02X88050I-850J850D01*
G02X87200Y50698I-850J850D01*
G02X85998Y51900I0J1202D01*
G02X86350Y52750I1202J0D01*
G02Y54450I850J850D01*
G37*
G36*
G01X52798Y59899D02*
Y59900D01*
G02X55202I1202J0D01*
G02X54077Y58700I-1202J0D01*
G03X53702Y58301I25J-399D01*
G01Y58300D01*
G02X51298I-1202J0D01*
G02X51312Y58481I1202J-2D01*
G03X50793Y58150I-122J-381D01*
G02X49600Y57098I-1193J150D01*
G02X48398Y58300I0J1202D01*
G02X49533Y59500I1202J0D01*
G03X49907Y59850I-23J399D01*
G02X51100Y60902I1193J-150D01*
G02X52302Y59700I0J-1202D01*
G02X52288Y59514I-1202J-3D01*
G03X52798Y59899I110J385D01*
G37*
G36*
G01X229803Y58907D02*
G03X229432Y59342I-399J36D01*
G02X228312Y60541I82J1199D01*
G02X230716I1202J0D01*
G02X230711Y60434I-1202J3D01*
G03X231082Y59999I399J-36D01*
G02X231750Y59739I-82J-1199D01*
G03X232250I250J313D01*
G02X233000Y60002I750J-938D01*
G02X234202Y58800I0J-1202D01*
G02X233939Y58050I-1201J0D01*
G03Y57550I313J-250D01*
G02X234202Y56800I-938J-750D01*
G02X233000Y55598I-1202J0D01*
G02X232250Y55861I0J1201D01*
G03X231750I-250J-313D01*
G02X231000Y55598I-750J938D01*
G02X229798Y56800I0J1202D01*
G02X230061Y57550I1201J0D01*
G03Y58050I-313J250D01*
G02X229798Y58800I938J750D01*
G02X229803Y58907I1202J-3D01*
G37*
G36*
G01X257394Y59742D02*
G03Y60022I-143J140D01*
G02X257048Y60866I856J844D01*
G02X259452I1202J0D01*
G02X259106Y60022I-1202J0D01*
G03Y59742I143J-140D01*
G02X259452Y58898I-856J-844D01*
G02X257048I-1202J0D01*
G02X257394Y59742I1202J0D01*
G37*
G36*
G01X-15708Y58522D02*
G02X-15991Y58488I-284J1168D01*
G02X-17193Y59690I0J1202D01*
G02X-16775Y60601I1202J0D01*
G02X-17022Y61330I955J730D01*
G02X-14618I1202J0D01*
G02X-15036Y60419I-1202J0D01*
G02X-14927Y60249I-954J-731D01*
G03X-14703Y60148I177J93D01*
G02X-14420Y60182I284J-1168D01*
G02Y57778I0J-1202D01*
G02X-15484Y58421I0J1202D01*
G03X-15708Y58522I-177J-93D01*
G37*
G36*
G01X246205Y62059D02*
G03Y62315I-153J128D01*
G02X245925Y63087I922J771D01*
G02X248329I1202J0D01*
G02X248049Y62315I-1202J-1D01*
G03Y62059I153J-128D01*
G02X248329Y61287I-922J-771D01*
G02X245925I-1202J0D01*
G02X246205Y62059I1202J1D01*
G37*
G36*
G01X268803Y62060D02*
G03Y62316I-153J128D01*
G02X268523Y63088I922J771D01*
G02X270927I1202J0D01*
G02X270647Y62316I-1202J-1D01*
G03Y62060I153J-128D01*
G02X270927Y61288I-922J-771D01*
G02X268523I-1202J0D01*
G02X268803Y62060I1202J1D01*
G37*
G36*
G01X-1059Y62950D02*
G02Y64450I938J750D01*
G02X-1322Y65200I938J750D01*
G02X-120Y66402I1202J0D01*
G02X630Y66139I0J-1201D01*
G02X1380Y66402I750J-938D01*
G02X2582Y65200I0J-1202D01*
G02X2319Y64450I-1201J0D01*
G02Y62950I-938J-750D01*
G02Y61450I-938J-750D01*
G02X2582Y60700I-938J-750D01*
G02X1380Y59498I-1202J0D01*
G02X630Y59761I0J1201D01*
G02X-120Y59498I-750J938D01*
G02X-1322Y60700I0J1202D01*
G02X-1059Y61450I1201J0D01*
G02Y62950I938J750D01*
G37*
G36*
G01X175478Y64328D02*
G02X175198Y65100I922J771D01*
G02X175550Y65950I1202J0D01*
G02X175198Y66800I850J850D01*
G02X177602I1202J0D01*
G02X177250Y65950I-1202J0D01*
G02X177602Y65100I-850J-850D01*
G02X177322Y64328I-1202J-1D01*
G03Y64072I153J-128D01*
G02X177602Y63300I-922J-771D01*
G02X175198I-1202J0D01*
G02X175478Y64072I1202J1D01*
G03Y64328I-153J128D01*
G37*
G36*
G01X-39622Y64871D02*
G03X-39969Y64798I-155J-127D01*
G02X-43400Y62192I-3431J956D01*
G02Y69314I0J3561D01*
G02X-40539Y67873I0J-3561D01*
G03X-39836Y67991I321J238D01*
G02X-38690Y68832I1146J-360D01*
G02X-37940Y68569I0J-1201D01*
G03X-37440I250J313D01*
G02X-35940I750J-938D01*
G03X-35440I250J313D01*
G02X-33940I750J-938D01*
G03X-33440I250J313D01*
G02X-32690Y68832I750J-938D01*
G02X-31488Y67630I0J-1202D01*
G02X-31751Y66880I-1201J0D01*
G03Y66380I313J-250D01*
G02Y64880I-938J-750D01*
G03Y64380I313J-250D01*
G02X-31488Y63630I-938J-750D01*
G02X-32690Y62428I-1202J0D01*
G02X-33440Y62691I0J1201D01*
G03X-33940I-250J-313D01*
G02X-35440I-750J938D01*
G03X-35940I-250J-313D01*
G02X-37440I-750J938D01*
G03X-37940I-250J-313D01*
G02X-38690Y62428I-750J938D01*
G02X-39892Y63630I0J1202D01*
G02X-39532Y64487I1202J-1D01*
G03Y64773I-141J143D01*
G02X-39622Y64871I839J861D01*
G37*
G36*
G01X246205Y67965D02*
G03Y68221I-153J128D01*
G02X245925Y68993I922J771D01*
G02X248329I1202J0D01*
G02X248049Y68221I-1202J-1D01*
G03Y67965I153J-128D01*
G02X248329Y67193I-922J-771D01*
G02X245925I-1202J0D01*
G02X246205Y67965I1202J1D01*
G37*
G36*
G01X268803D02*
G03Y68221I-153J128D01*
G02X268523Y68993I922J771D01*
G02X270927I1202J0D01*
G02X270647Y68221I-1202J-1D01*
G03Y67965I153J-128D01*
G02X270927Y67193I-922J-771D01*
G02X268523I-1202J0D01*
G02X268803Y67965I1202J1D01*
G37*
G36*
G01X11870Y73429D02*
G02X13370I750J-938D01*
G02X14870I750J-938D01*
G02X15620Y73692I750J-938D01*
G02X16822Y72490I0J-1202D01*
G02X16559Y71740I-1201J0D01*
G02X16822Y70990I-938J-750D01*
G02X15620Y69788I-1202J0D01*
G02X14870Y70051I0J1201D01*
G02X13370I-750J938D01*
G02X11870I-750J938D01*
G02X11120Y69788I-750J938D01*
G02X9918Y70990I0J1202D01*
G02X10181Y71740I1201J0D01*
G02X9918Y72490I938J750D01*
G02X11120Y73692I1202J0D01*
G02X11870Y73429I0J-1201D01*
G37*
G36*
G01X257494Y71553D02*
G03Y71833I-143J140D01*
G02X257148Y72677I856J844D01*
G02X259552I1202J0D01*
G02X259206Y71833I-1202J0D01*
G03Y71553I143J-140D01*
G02X259552Y70709I-856J-844D01*
G02X257148I-1202J0D01*
G02X257494Y71553I1202J0D01*
G37*
G36*
G01X240241Y73815D02*
G03X240242Y74086I-147J136D01*
G02X239925Y74899I884J813D01*
G02X242329I1202J0D01*
G02X242011Y74084I-1203J0D01*
G03X242010Y73813I147J-136D01*
G02X242327Y73000I-884J-813D01*
G02X239923I-1202J0D01*
G02X240241Y73815I1203J0D01*
G37*
G36*
G01X268803Y73871D02*
G03Y74127I-153J128D01*
G02X268523Y74899I922J771D01*
G02X270927I1202J0D01*
G02X270647Y74127I-1202J-1D01*
G03Y73871I153J-128D01*
G02X270927Y73099I-922J-771D01*
G02X268523I-1202J0D01*
G02X268803Y73871I1202J1D01*
G37*
G36*
G01X81611Y74427D02*
G03X81411Y74598I-198J-29D01*
G01X81400D01*
G02Y77002I0J1202D01*
G02X82589Y75973I0J-1201D01*
G03X82789Y75802I198J29D01*
G01X82800D01*
G02X83989Y74773I0J-1201D01*
G03X84189Y74602I198J29D01*
G01X84200D01*
G02X85389Y73573I0J-1201D01*
G03X85589Y73402I198J29D01*
G01X85600D01*
G02X86789Y72373I0J-1201D01*
G03X86989Y72202I198J29D01*
G01X87000D01*
G02X88198Y71103I0J-1202D01*
G03X88400Y70920I199J17D01*
G01X88418D01*
G02X89620Y69720I0J-1202D01*
G03X89820Y69520I200J0D01*
G02X91020Y68320I-2J-1202D01*
G03X91220Y68120I200J0D01*
G02X92420Y66918I-2J-1202D01*
G02X91218Y65716I-1202J0D01*
G02X90016Y66916I0J1202D01*
G03X89816Y67116I-200J0D01*
G02X88616Y68316I2J1202D01*
G03X88416Y68516I-200J0D01*
G02X87220Y69615I2J1202D01*
G03X87018Y69798I-199J-17D01*
G01X87000D01*
G02X85811Y70827I0J1201D01*
G03X85611Y70998I-198J-29D01*
G01X85600D01*
G02X84411Y72027I0J1201D01*
G03X84211Y72198I-198J-29D01*
G01X84200D01*
G02X83011Y73227I0J1201D01*
G03X82811Y73398I-198J-29D01*
G01X82800D01*
G02X81611Y74427I0J1201D01*
G37*
G36*
G01X258343Y77459D02*
G03Y77739I-143J140D01*
G02X257997Y78583I856J844D01*
G02X260401I1202J0D01*
G02X260055Y77739I-1202J0D01*
G03Y77459I143J-140D01*
G02X260401Y76615I-856J-844D01*
G02X257997I-1202J0D01*
G02X258343Y77459I1202J0D01*
G37*
G36*
G01X268587Y77871D02*
G03X268331I-128J-153D01*
G02X267559Y77591I-771J922D01*
G02Y79995I0J1202D01*
G02X268331Y79715I1J-1202D01*
G03X268587I128J153D01*
G02X269359Y79995I771J-922D01*
G02Y77591I0J-1202D01*
G02X268587Y77871I-1J1202D01*
G37*
G36*
G01X246205Y79776D02*
G03Y80032I-153J128D01*
G02X245925Y80804I922J771D01*
G02X248329I1202J0D01*
G02X248049Y80032I-1202J-1D01*
G03Y79776I153J-128D01*
G02X248329Y79004I-922J-771D01*
G02X245925I-1202J0D01*
G02X246205Y79776I1202J1D01*
G37*
G36*
G01X29160Y86477D02*
G02X29860Y86702I700J-976D01*
G02Y84298I0J-1202D01*
G02X29160Y84523I0J1201D01*
G02X28460Y84298I-700J976D01*
G02Y86702I0J1202D01*
G02X29160Y86477I0J-1201D01*
G37*
G36*
G01X185800Y85204D02*
G03X185200I-300J-265D01*
G02X184300Y84798I-901J796D01*
G02Y87202I0J1202D01*
G02X185200Y86796I-1J-1202D01*
G03X185800I300J265D01*
G02X186700Y87202I901J-796D01*
G02Y84798I0J-1202D01*
G02X185800Y85204I1J1202D01*
G37*
G36*
G01X246286Y85594D02*
G03X246274Y85862I-154J127D01*
G02X245925Y86709I853J847D01*
G02X248329I1202J0D01*
G02X248052Y85941I-1203J0D01*
G03X248064Y85673I154J-127D01*
G02X248413Y84826I-853J-847D01*
G02X246009I-1202J0D01*
G02X246286Y85594I1203J0D01*
G37*
G36*
G01X69361Y85150D02*
G02Y86650I938J750D01*
G02X69098Y87400I938J750D01*
G02X71502I1202J0D01*
G02X71239Y86650I-1201J0D01*
G02Y85150I-938J-750D01*
G02X71502Y84400I-938J-750D01*
G02X69098I-1202J0D01*
G02X69361Y85150I1201J0D01*
G37*
G36*
G01X220198Y87987D02*
G03X219942I-128J-153D01*
G02X219170Y87707I-771J922D01*
G02Y90111I0J1202D01*
G02X219942Y89831I1J-1202D01*
G03X220198I128J153D01*
G02X220970Y90111I771J-922D01*
G02Y87707I0J-1202D01*
G02X220198Y87987I-1J1202D01*
G37*
G36*
G01X92003Y86900D02*
G02Y88500I897J800D01*
G02X91698Y89300I897J800D01*
G02X94102I1202J0D01*
G02X93797Y88500I-1202J0D01*
G02Y86900I-897J-800D01*
G02Y85300I-897J-800D01*
G02X94102Y84500I-897J-800D01*
G02X91698I-1202J0D01*
G02X92003Y85300I1202J0D01*
G02Y86900I897J800D01*
G37*
G36*
G01X31825Y89351D02*
G03X31689Y89584I-196J42D01*
G02X30845Y90731I357J1147D01*
G02X33249I1202J0D01*
G02X33222Y90480I-1202J2D01*
G03X33358Y90247I196J-42D01*
G02X34202Y89100I-357J-1147D01*
G02X31798I-1202J0D01*
G02X31825Y89351I1202J-2D01*
G37*
G36*
G01X253865Y94621D02*
G02X254530Y94822I665J-1001D01*
G02X255230Y94597I0J-1201D01*
G02X255930Y94822I700J-976D01*
G02X256320Y94757I0J-1203D01*
G03X256797Y94937I130J378D01*
G02X257840Y95542I1043J-597D01*
G02Y93138I0J-1202D01*
G02X257450Y93203I0J1203D01*
G03X256973Y93023I-130J-378D01*
G02X255930Y92418I-1043J597D01*
G02X255230Y92643I0J1201D01*
G02X254530Y92418I-700J976D01*
G02X253795Y92669I0J1202D01*
G02X253130Y92468I-665J1001D01*
G02Y94872I0J1202D01*
G02X253865Y94621I0J-1202D01*
G37*
G36*
G01X200593Y95678D02*
G02X199846Y95418I-747J943D01*
G02Y97822I0J1202D01*
G02X200593Y97562I0J-1203D01*
G02X202087I747J-943D01*
G02X202834Y97822I747J-943D01*
G02Y95418I0J-1202D01*
G02X202087Y95678I0J1203D01*
G02X200593I-747J943D01*
G37*
G36*
G01X92003Y95500D02*
G02X91698Y96300I897J800D01*
G02X91961Y97050I1201J0D01*
G02X91698Y97800I938J750D01*
G02X94102I1202J0D01*
G02X93839Y97050I-1201J0D01*
G02X94102Y96300I-938J-750D01*
G02X93797Y95500I-1202J0D01*
G02X94102Y94700I-897J-800D01*
G02X93822Y93928I-1202J-1D01*
G03Y93672I153J-128D01*
G02X94102Y92900I-922J-771D01*
G02X91698I-1202J0D01*
G02X91978Y93672I1202J1D01*
G03Y93928I-153J128D01*
G02X91698Y94700I922J771D01*
G02X92003Y95500I1202J0D01*
G37*
G36*
G01X274398Y96201D02*
G03X274023Y96600I-400J0D01*
G02X272898Y97800I78J1200D01*
G02X275302I1202J0D01*
G01Y97799D01*
G03X275677Y97400I400J0D01*
G02X276802Y96200I-77J-1200D01*
G02X274398I-1202J0D01*
G01Y96201D01*
G37*
G36*
G01X180098Y101898D02*
G03X179898Y102098I-200J0D01*
G02X178698Y103300I2J1202D01*
G02X179900Y104502I1202J0D01*
G02X181102Y103302I0J-1202D01*
G03X181302Y103102I200J0D01*
G02X182502Y101900I-2J-1202D01*
G02X181300Y100698I-1202J0D01*
G02X180098Y101898I0J1202D01*
G37*
G36*
G01X91923Y101700D02*
G02Y103100I976J700D01*
G02X91698Y103800I976J700D01*
G02X94102I1202J0D01*
G02X93877Y103100I-1201J0D01*
G02Y101700I-976J-700D01*
G02X94102Y101000I-976J-700D01*
G02X91698I-1202J0D01*
G02X91923Y101700I1201J0D01*
G37*
G36*
G01X77773Y108348D02*
G03X77517I-128J-153D01*
G02X76745Y108068I-771J922D01*
G02Y110472I0J1202D01*
G02X77517Y110192I1J-1202D01*
G03X77773I128J153D01*
G02X78545Y110472I771J-922D01*
G02Y108068I0J-1202D01*
G02X77773Y108348I-1J1202D01*
G37*
G36*
G01X213999Y110431D02*
G02X214600Y110592I601J-1041D01*
G02Y108188I0J-1202D01*
G02X213920Y108399I0J1201D01*
G02X213319Y108238I-601J1041D01*
G02Y110642I0J1202D01*
G02X213999Y110431I0J-1201D01*
G37*
G36*
G01X237708Y108702D02*
G03Y108958I-153J128D01*
G02X237428Y109730I922J771D01*
G02X239832I1202J0D01*
G02X239552Y108958I-1202J-1D01*
G03Y108702I153J-128D01*
G02X239832Y107930I-922J-771D01*
G02X237428I-1202J0D01*
G02X237708Y108702I1202J1D01*
G37*
G36*
G01X96978Y111478D02*
G03X96722I-128J-153D01*
G02X95950Y111198I-771J922D01*
G02Y113602I0J1202D01*
G02X96722Y113322I1J-1202D01*
G03X96978I128J153D01*
G02X97750Y113602I771J-922D01*
G02Y111198I0J-1202D01*
G02X96978Y111478I-1J1202D01*
G37*
G36*
G01X30739Y112150D02*
G02X31002Y111400I-938J-750D01*
G02X28598I-1202J0D01*
G02X28861Y112150I1201J0D01*
G02X28598Y112900I938J750D01*
G02X31002I1202J0D01*
G02X30739Y112150I-1201J0D01*
G37*
G36*
G01X193800Y111523D02*
G02X193100Y111298I-700J976D01*
G02X191898Y112500I0J1202D01*
G02X192123Y113200I1201J0D01*
G02X191898Y113900I976J700D01*
G02X193100Y115102I1202J0D01*
G02X193836Y114850I0J-1201D01*
G02X194590Y115116I754J-936D01*
G02X195792Y113914I0J-1202D01*
G02X195514Y113145I-1203J0D01*
G02X195702Y112500I-1014J-645D01*
G02X194500Y111298I-1202J0D01*
G02X193800Y111523I0J1201D01*
G37*
G36*
G01X55698Y113820D02*
G03X55374Y114220I-400J7D01*
G02X54398Y115400I225J1180D01*
G02X56802I1202J0D01*
G01Y115380D01*
G03X57126Y114980I400J-7D01*
G02X58102Y113800I-225J-1180D01*
G02X57247Y112649I-1202J0D01*
G03X57112Y112405I58J-191D01*
G02X57155Y112086I-1159J-319D01*
G02X54751I-1202J0D01*
G02X55606Y113237I1202J0D01*
G03X55741Y113481I-58J191D01*
G02X55698Y113800I1159J319D01*
G01Y113820D01*
G37*
G36*
G01X231418Y114287D02*
G02X230998Y115200I782J913D01*
G02X231261Y115950I1201J0D01*
G02X230998Y116700I938J750D01*
G02X233402I1202J0D01*
G02X233139Y115950I-1201J0D01*
G02X233402Y115200I-938J-750D01*
G02X233057Y114357I-1202J0D01*
G03X233082Y113773I285J-280D01*
G02X233502Y112860I-782J-913D01*
G02X231098I-1202J0D01*
G02X231443Y113703I1202J0D01*
G03X231418Y114287I-285J280D01*
G37*
G36*
G01X57823Y121500D02*
G02Y122900I976J700D01*
G02X57598Y123600I976J700D01*
G02X60002I1202J0D01*
G02X59777Y122900I-1201J0D01*
G02Y121500I-976J-700D01*
G02X60002Y120800I-976J-700D01*
G02X59925Y120376I-1202J-1D01*
G03X60039Y120119I187J-71D01*
G02X60802Y118998I-439J-1119D01*
G03X60973Y118799I200J-1D01*
G02X62002Y117610I-172J-1189D01*
G02X60800Y116408I-1202J0D01*
G02X59598Y117612I0J1202D01*
G03X59427Y117811I-200J1D01*
G02X58398Y119000I172J1189D01*
G02X58475Y119424I1202J1D01*
G03X58361Y119681I-187J71D01*
G02X57598Y120800I439J1119D01*
G02X57823Y121500I1201J0D01*
G37*
G36*
G01X94939Y123170D02*
G03X94937Y123449I-144J138D01*
G02X94594Y124290I860J841D01*
G02X96998I1202J0D01*
G02X96663Y123458I-1201J0D01*
G03X96665Y123179I144J-138D01*
G02X97008Y122338I-860J-841D01*
G02X96989Y122125I-1202J0D01*
G03X97117Y121903I197J-34D01*
G02X97902Y120775I-418J-1128D01*
G02X95498I-1202J0D01*
G02X95517Y120988I1202J0D01*
G03X95389Y121210I-197J34D01*
G02X94604Y122338I418J1128D01*
G02X94939Y123170I1201J0D01*
G37*
G36*
G01X194000Y126023D02*
G02X193300Y125798I-700J976D01*
G02X192098Y127000I0J1202D01*
G02X192361Y127750I1201J0D01*
G02X192098Y128500I938J750D01*
G02X193300Y129702I1202J0D01*
G02X194000Y129477I0J-1201D01*
G02X194700Y129702I700J-976D01*
G02X195902Y128500I0J-1202D01*
G02X195639Y127750I-1201J0D01*
G02X195902Y127000I-938J-750D01*
G02X194700Y125798I-1202J0D01*
G02X194000Y126023I0J1201D01*
G37*
G36*
G01X226660Y127930D02*
G03X226379I-140J-142D01*
G02X225535Y127584I-844J856D01*
G02Y129988I0J1202D01*
G02X226379Y129642I0J-1202D01*
G03X226660I141J142D01*
G02X227504Y129988I844J-856D01*
G02Y127584I0J-1202D01*
G02X226660Y127930I0J1202D01*
G37*
G36*
G01X270300Y126903D02*
G02X269500Y126598I-800J897D01*
G02X268298Y127800I0J1202D01*
G02X268561Y128550I1201J0D01*
G02X268298Y129300I938J750D01*
G02X269500Y130502I1202J0D01*
G02X270300Y130197I0J-1202D01*
G02X271100Y130502I800J-897D01*
G02X272302Y129300I0J-1202D01*
G02X272039Y128550I-1201J0D01*
G02X272302Y127800I-938J-750D01*
G02X271100Y126598I-1202J0D01*
G02X270300Y126903I0J1202D01*
G37*
G36*
G01X90814Y130884D02*
G03X91086I136J147D01*
G02X91900Y131202I814J-883D01*
G02X92621Y130962I0J-1203D01*
G03X92892Y130991I120J160D01*
G02X93800Y131405I908J-789D01*
G02X94685Y131016I0J-1201D01*
G03X94956Y130994I147J135D01*
G02X95700Y131252I744J-944D01*
G02X96446Y130992I-1J-1202D01*
G03X96717Y131014I124J157D01*
G02X97602Y131402I885J-815D01*
G02Y128998I0J-1202D01*
G02X96856Y129258I1J1202D01*
G03X96585Y129236I-124J-157D01*
G02X95700Y128848I-885J815D01*
G02X94815Y129237I0J1201D01*
G03X94544Y129259I-147J-135D01*
G02X93800Y129001I-744J944D01*
G02X93079Y129241I0J1203D01*
G03X92808Y129212I-120J-160D01*
G02X91900Y128798I-908J789D01*
G02X91086Y129116I0J1201D01*
G03X90814I-136J-147D01*
G02X90000Y128798I-814J883D01*
G02Y131202I0J1202D01*
G02X90814Y130884I0J-1201D01*
G37*
G36*
G01X220736Y133072D02*
G03X220485Y133075I-127J-154D01*
G02X219740Y132816I-745J942D01*
G02Y135220I0J1202D01*
G02X220504Y134946I0J-1202D01*
G03X220755Y134943I127J154D01*
G02X221500Y135202I745J-942D01*
G02Y132798I0J-1202D01*
G02X220736Y133072I0J1202D01*
G37*
G36*
G01X249994Y137120D02*
G03X250275Y137122I139J143D01*
G02X251126Y137476I852J-848D01*
G02X251961Y137139I0J-1203D01*
G03X252242Y137142I139J144D01*
G02X253094Y137496I852J-848D01*
G02Y135092I0J-1202D01*
G02X252259Y135429I0J1203D01*
G03X251978Y135426I-139J-144D01*
G02X251126Y135072I-852J848D01*
G02X250289Y135411I0J1203D01*
G03X250008Y135409I-139J-143D01*
G02X249157Y135055I-852J848D01*
G02Y137459I0J1202D01*
G02X249994Y137120I0J-1203D01*
G37*
G36*
G01X21633Y136600D02*
G03X22007Y136950I-23J399D01*
G02X23200Y138002I1193J-150D01*
G02X24402Y136800I0J-1202D01*
G02X23267Y135600I-1202J0D01*
G03X22893Y135250I23J-399D01*
G02X21849Y134207I-1193J150D01*
G03X21499Y133783I49J-397D01*
G02X21502Y133700I-1199J-85D01*
G02X20441Y132506I-1202J0D01*
G03X20092Y132057I47J-397D01*
G02X20102Y131900I-1192J-155D01*
G02X17698I-1202J0D01*
G02X18759Y133094I1202J0D01*
G03X19108Y133543I-47J397D01*
G02X19098Y133700I1192J155D01*
G02X20151Y134893I1202J0D01*
G03X20501Y135317I-49J397D01*
G02X20498Y135400I1199J85D01*
G02X21633Y136600I1202J0D01*
G37*
G36*
G01X91387Y138602D02*
G03X91601Y138787I15J199D01*
G02X92800Y139905I1199J-84D01*
G02Y137501I0J-1202D01*
G02X92713Y137504I-2J1202D01*
G03X92499Y137319I-15J-199D01*
G02X91300Y136201I-1199J84D01*
G02Y138605I0J1202D01*
G02X91387Y138602I2J-1202D01*
G37*
G36*
G01X38319Y141610D02*
G03X38601I141J143D01*
G02X39445Y141957I845J-855D01*
G02X40263Y141635I-1J-1202D01*
G03X40544Y141644I136J147D01*
G02X41415Y142017I870J-829D01*
G02X42279Y141651I0J-1203D01*
G03X42560Y141644I144J139D01*
G02X43385Y141972I825J-874D01*
G02Y139568I0J-1202D01*
G02X42521Y139934I0J1203D01*
G03X42240Y139941I-144J-139D01*
G02X41415Y139613I-825J874D01*
G02X40597Y139935I1J1202D01*
G03X40316Y139926I-136J-147D01*
G02X39445Y139553I-870J829D01*
G02X38601Y139900I1J1202D01*
G03X38319I-141J-143D01*
G02X37475Y139553I-845J855D01*
G02X36609Y139922I0J1201D01*
G03X36328Y139929I-144J-139D01*
G02X35505Y139603I-823J876D01*
G02Y142007I0J1202D01*
G02X36371Y141638I0J-1201D01*
G03X36652Y141631I144J139D01*
G02X37475Y141957I823J-876D01*
G02X38319Y141610I-1J-1202D01*
G37*
G36*
G01X94602Y140401D02*
X94600D01*
G02Y142805I0J1202D01*
G02X95800Y141680I0J-1202D01*
G03X96198Y141305I399J25D01*
G01X96200D01*
G02Y138901I0J-1202D01*
G02X95000Y140026I0J1202D01*
G03X94602Y140401I-399J-25D01*
G37*
G36*
G01X187580Y143461D02*
G03X187546Y143985I-319J242D01*
G02X187198Y144830I854J846D01*
G02X188400Y146032I1202J0D01*
G02X189583Y145041I0J-1202D01*
G03X189991Y144711I394J70D01*
G02X190102Y144713I113J-3165D01*
G02X186935Y141546I0J-3167D01*
G02X187580Y143461I3167J-1D01*
G37*
G36*
G01X243398Y143598D02*
G03X243198Y143798I-200J0D01*
G02X241998Y145000I2J1202D01*
G02X243200Y146202I1202J0D01*
G02X244402Y145002I0J-1202D01*
G03X244602Y144802I200J0D01*
G02X245802Y143600I-2J-1202D01*
G02X244600Y142398I-1202J0D01*
G02X243398Y143598I0J1202D01*
G37*
G36*
G01X229400Y147733D02*
G03X229050Y148107I-399J-23D01*
G02X227998Y149300I150J1193D01*
G02X229200Y150502I1202J0D01*
G02X230400Y149367I0J-1202D01*
G03X230750Y148993I399J23D01*
G02X231802Y147802I-150J-1193D01*
G03X232002Y147602I200J0D01*
G02X233202Y146400I-2J-1202D01*
G02X232000Y145198I-1202J0D01*
G02X230798Y146398I0J1202D01*
G03X230598Y146598I-200J0D01*
G02X229400Y147733I2J1202D01*
G37*
G36*
G01X81742Y154933D02*
G02X82500Y155202I758J-933D01*
G02Y152798I0J-1202D01*
G02X81808Y153017I0J1203D01*
G02X81050Y152748I-758J933D01*
G02Y155152I0J1202D01*
G02X81742Y154933I0J-1203D01*
G37*
G36*
G01X200529Y154528D02*
G03X200503Y155101I-292J274D01*
G02X200098Y156000I797J900D01*
G02X201300Y157202I1202J0D01*
G02X202500Y156067I0J-1202D01*
G03X202953Y155693I399J22D01*
G02X203086Y155702I134J-993D01*
G02Y153698I0J-1002D01*
G02X202995Y153702I-2J1002D01*
G03X202571Y153405I-37J-398D01*
G02X201408Y152506I-1163J303D01*
G02X200206Y153708I0J1202D01*
G02X200529Y154528I1202J0D01*
G37*
G36*
G01X228018Y156255D02*
G03X227762I-128J-153D01*
G02X226990Y155975I-771J922D01*
G02Y158379I0J1202D01*
G02X227762Y158099I1J-1202D01*
G03X228018I128J153D01*
G02X228790Y158379I771J-922D01*
G02Y155975I0J-1202D01*
G02X228018Y156255I-1J1202D01*
G37*
G36*
G01X162536Y158533D02*
G02X163264Y158779I729J-956D01*
G02Y156375I0J-1202D01*
G02X162519Y156634I0J1201D01*
G02X161791Y156388I-729J956D01*
G02Y158792I0J1202D01*
G02X162536Y158533I0J-1201D01*
G37*
G36*
G01X167614Y158338D02*
G02X166864Y158075I-750J938D01*
G02Y160479I0J1202D01*
G02X167614Y160216I0J-1201D01*
G02X169114I750J-938D01*
G02X169864Y160479I750J-938D01*
G02Y158075I0J-1202D01*
G02X169114Y158338I0J1201D01*
G02X167614I-750J938D01*
G37*
G36*
G01X110725Y158402D02*
G03Y158676I-146J137D01*
G02X110398Y159500I875J824D01*
G02X112802I1202J0D01*
G02X112475Y158676I-1202J0D01*
G03Y158402I146J-137D01*
G02X112802Y157578I-875J-824D01*
G02X110398I-1202J0D01*
G02X110725Y158402I1202J0D01*
G37*
G36*
G01X29328Y158533D02*
G03X29331Y158814I-141J142D01*
G02X28993Y159650I865J836D01*
G02X31397I1202J0D01*
G02X31042Y158797I-1202J0D01*
G03X31039Y158516I141J-142D01*
G02X31377Y157680I-865J-836D01*
G02X28973I-1202J0D01*
G02X29328Y158533I1202J0D01*
G37*
G36*
G01X38601Y163450D02*
G03X38319I-141J-143D01*
G02X37475Y163103I-845J855D01*
G02Y165507I0J1202D01*
G02X38319Y165160I-1J-1202D01*
G03X38601I141J143D01*
G02X39445Y165507I845J-855D01*
G02Y163103I0J-1202D01*
G02X38601Y163450I1J1202D01*
G37*
G36*
G01X44229Y165160D02*
G03X44511I141J143D01*
G02X45355Y165507I845J-855D01*
G02X46199Y165160I-1J-1202D01*
G03X46481I141J143D01*
G02X47325Y165507I845J-855D01*
G02Y163103I0J-1202D01*
G02X46481Y163450I1J1202D01*
G03X46199I-141J-143D01*
G02X45355Y163103I-845J855D01*
G02X44511Y163450I1J1202D01*
G03X44229I-141J-143D01*
G02X43385Y163103I-845J855D01*
G02Y165507I0J1202D01*
G02X44229Y165160I-1J-1202D01*
G37*
G36*
G01X124814Y166384D02*
G03X125086I136J147D01*
G02X125900Y166702I814J-883D01*
G02X126672Y166422I1J-1202D01*
G03X126928I128J153D01*
G02X127700Y166702I771J-922D01*
G02Y164298I0J-1202D01*
G02X126928Y164578I-1J1202D01*
G03X126672I-128J-153D01*
G02X125900Y164298I-771J922D01*
G02X125650Y164324I-1J1202D01*
G03X125176Y163850I-83J-391D01*
G02X125202Y163600I-1176J-249D01*
G02X125187Y163410I-1202J-1D01*
G03X125686Y162960I395J-64D01*
G02X126000Y163002I315J-1160D01*
G02Y160598I0J-1202D01*
G02X125212Y160892I0J1203D01*
G03X124688I-262J-302D01*
G02X123974Y160600I-788J908D01*
G03X123600Y160226I25J-399D01*
G02X122400Y159098I-1200J74D01*
G02X121198Y160300I0J1202D01*
G02X122326Y161500I1202J0D01*
G03X122700Y161874I-25J399D01*
G02X123024Y162623I1200J-74D01*
G03X123038Y162879I-146J136D01*
G02X122798Y163600I963J721D01*
G02X123116Y164414I1201J0D01*
G03Y164686I-147J136D01*
G02X122798Y165500I883J814D01*
G02X124000Y166702I1202J0D01*
G02X124814Y166384I0J-1201D01*
G37*
G36*
G01X42175Y173356D02*
G03X42456I140J142D01*
G02X43300Y173702I844J-856D01*
G02X44502Y172500I0J-1202D01*
G02X44156Y171656I-1202J0D01*
G03Y171375I142J-141D01*
G02X44502Y170531I-856J-844D01*
G02X43300Y169329I-1202J0D01*
G02X42456Y169675I0J1202D01*
G03X42175I-140J-142D01*
G02X40487I-844J856D01*
G03X40207I-140J-143D01*
G02X38519I-844J856D01*
G03X38238I-140J-142D01*
G02X37394Y169329I-844J856D01*
G02Y171733I0J1202D01*
G02X37712Y171690I-1J-1202D01*
G03X38204Y172182I106J386D01*
G02X38161Y172500I1159J319D01*
G02X39363Y173702I1202J0D01*
G02X40207Y173356I0J-1202D01*
G03X40487I140J143D01*
G02X42175I844J-856D01*
G37*
G36*
G01X58191D02*
G03X58472I141J142D01*
G02X59316Y173702I844J-856D01*
G02X60518Y172500I0J-1202D01*
G02X60172Y171656I-1202J0D01*
G03Y171375I142J-141D01*
G02X60518Y170531I-856J-844D01*
G02X59316Y169329I-1202J0D01*
G02X58472Y169675I0J1202D01*
G03X58191I-140J-142D01*
G02X56503I-844J856D01*
G03X56223I-140J-143D01*
G02X54535I-844J856D01*
G03X54254I-140J-142D01*
G02X53410Y169329I-844J856D01*
G02Y171733I0J1202D01*
G02X53728Y171690I-1J-1202D01*
G03X54220Y172182I106J386D01*
G02X54177Y172500I1159J319D01*
G02X55379Y173702I1202J0D01*
G02X56223Y173356I0J-1202D01*
G03X56503I140J143D01*
G02X58191I844J-856D01*
G37*
G36*
G01X74207D02*
G03X74488I140J142D01*
G02X75332Y173702I844J-856D01*
G02X76534Y172500I0J-1202D01*
G02X76188Y171656I-1202J0D01*
G03Y171375I142J-141D01*
G02X76534Y170531I-856J-844D01*
G02X75332Y169329I-1202J0D01*
G02X74488Y169675I0J1202D01*
G03X74207I-140J-142D01*
G02X72519I-844J856D01*
G03X72239I-140J-143D01*
G02X70551I-844J856D01*
G03X70270I-140J-142D01*
G02X69426Y169329I-844J856D01*
G02Y171733I0J1202D01*
G02X69744Y171690I-1J-1202D01*
G03X70236Y172182I106J386D01*
G02X70193Y172500I1159J319D01*
G02X71395Y173702I1202J0D01*
G02X72239Y173356I0J-1202D01*
G03X72519I140J143D01*
G02X74207I844J-856D01*
G37*
G36*
G01X90223D02*
G03X90504I140J142D01*
G02X91348Y173702I844J-856D01*
G02X92550Y172500I0J-1202D01*
G02X92204Y171656I-1202J0D01*
G03Y171375I142J-141D01*
G02X92550Y170531I-856J-844D01*
G02X91348Y169329I-1202J0D01*
G02X90504Y169675I0J1202D01*
G03X90223I-140J-142D01*
G02X88535I-844J856D01*
G03X88255I-140J-143D01*
G02X86567I-844J856D01*
G03X86286I-140J-142D01*
G02X85442Y169329I-844J856D01*
G02Y171733I0J1202D01*
G02X85760Y171690I-1J-1202D01*
G03X86252Y172182I106J386D01*
G02X86209Y172500I1159J319D01*
G02X87411Y173702I1202J0D01*
G02X88255Y173356I0J-1202D01*
G03X88535I140J143D01*
G02X90223I844J-856D01*
G37*
G36*
G01X195881Y175179D02*
G03X196162I141J142D01*
G02X197006Y175525I844J-856D01*
G02Y173121I0J-1202D01*
G02X196688Y173164I1J1202D01*
G03X196196Y172672I-106J-386D01*
G02X196239Y172354I-1159J-319D01*
G02X196196Y172036I-1202J1D01*
G03X196688Y171544I386J-106D01*
G02X197006Y171587I319J-1159D01*
G02Y169183I0J-1202D01*
G02X196162Y169529I0J1202D01*
G03X195881I-140J-142D01*
G02X194193I-844J856D01*
G03X193913I-140J-143D01*
G02X192225I-844J856D01*
G03X191944I-140J-142D01*
G02X191100Y169183I-844J856D01*
G02Y171587I0J1202D01*
G02X191418Y171544I-1J-1202D01*
G03X191910Y172036I106J386D01*
G02X191867Y172354I1159J319D01*
G02X191902Y172644I1202J2D01*
G03X191453Y173135I-388J96D01*
G02X191269Y173121I-183J1188D01*
G02Y175525I0J1202D01*
G02X192041Y175245I1J-1202D01*
G03X192297I128J153D01*
G02X193069Y175525I771J-922D01*
G02X193913Y175179I0J-1202D01*
G03X194193I140J143D01*
G02X195881I844J-856D01*
G37*
G36*
G01X200528Y175433D02*
G03X200029Y175444I-256J-307D01*
G02X199300Y175198I-729J957D01*
G02Y177602I0J1202D01*
G02X200072Y177321I0J-1201D01*
G03X200571Y177310I256J307D01*
G02X201300Y177556I729J-957D01*
G02Y175152I0J-1202D01*
G02X200528Y175433I0J1201D01*
G37*
G36*
G01X165888Y171280D02*
Y177780D01*
G02X166589Y178482I701J1D01*
G01X173089D01*
G02X173790Y177780I-1J-702D01*
G01Y174441D01*
G03X174243Y174045I400J1D01*
G02X174400Y174055I155J-1192D01*
G02Y171651I0J-1202D01*
G02X174243Y171661I-2J1202D01*
G03X173790Y171270I-53J-396D01*
G02X173089Y170578I-701J9D01*
G01X166589D01*
G02X165888Y171280I1J702D01*
G37*
G36*
G01X-25351Y17414D02*
G02X-25623Y18176I931J762D01*
G02X-23219I1202J0D01*
G02X-24226Y16990I-1202J0D01*
G03X-24470Y16342I65J-395D01*
G02X-24198Y15580I-931J-762D01*
G02X-24461Y14830I-1201J0D01*
G02X-24198Y14080I-938J-750D01*
G02X-25400Y12878I-1202J0D01*
G02X-26200Y13183I0J1202D01*
G02X-27000Y12878I-800J897D01*
G02X-28202Y14080I0J1202D01*
G02X-27939Y14830I1201J0D01*
G02X-28202Y15580I938J750D01*
G02X-27000Y16782I1202J0D01*
G02X-26200Y16477I0J-1202D01*
G02X-25595Y16766I800J-897D01*
G03X-25351Y17414I-65J395D01*
G37*
G36*
G01X95714Y23957D02*
G02X95568Y24530I1056J574D01*
G02X97972I1202J0D01*
G02X97801Y23912I-1202J0D01*
G03X98008Y23331I343J-205D01*
G02X98802Y22200I-409J-1131D01*
G02X98586Y21512I-1202J0D01*
G02X98902Y20700I-885J-812D01*
G02X97700Y19498I-1202J0D01*
G02X96950Y19761I0J1201D01*
G03X96450I-250J-313D01*
G02X95700Y19498I-750J938D01*
G02X94498Y20700I0J1202D01*
G02X94761Y21450I1201J0D01*
G02X94498Y22200I938J750D01*
G02X95446Y23375I1202J0D01*
G03X95714Y23957I-84J391D01*
G37*
G36*
G01X-25647Y24567D02*
G02X-26202Y25580I647J1013D01*
G02X-23798I1202J0D01*
G02X-24353Y24567I-1202J0D01*
G03Y23893I215J-337D01*
G02X-23798Y22880I-647J-1013D01*
G02X-26202I-1202J0D01*
G02X-25647Y23893I1202J0D01*
G03Y24567I-215J337D01*
G37*
G36*
G01X184463Y29437D02*
G03X185037I287J278D01*
G02X185900Y29802I863J-838D01*
G02Y27398I0J-1202D01*
G02X185037Y27763I0J1203D01*
G03X184463I-287J-278D01*
G02X184302Y27625I-860J840D01*
G03Y26975I234J-325D01*
G02X184802Y26000I-701J-975D01*
G02X183600Y24798I-1202J0D01*
G02X182647Y25267I0J1203D01*
G03X182023Y25280I-317J-243D01*
G02X181100Y24848I-923J770D01*
G02X179898Y26050I0J1202D01*
G02X180372Y27007I1203J0D01*
G03Y27643I-242J318D01*
G02X179898Y28600I729J957D01*
G02X181100Y29802I1202J0D01*
G02X182038Y29352I0J-1203D01*
G03X182662I312J250D01*
G02X183600Y29802I938J-753D01*
G02X184463Y29437I0J-1203D01*
G37*
G36*
G01X158619Y44187D02*
G02X157803Y43766I-816J580D01*
G02Y45770I0J1002D01*
G02X158586Y45394I0J-1003D01*
G03X159224Y45411I313J249D01*
G02X160040Y45832I816J-580D01*
G02Y43828I0J-1002D01*
G02X159257Y44204I0J1003D01*
G03X158619Y44187I-313J-249D01*
G37*
G36*
G01X35012Y55237D02*
G02X36888I938J-753D01*
G03X37512I312J250D01*
G02X38450Y55687I938J-753D01*
G02X39652Y54485I0J-1202D01*
G02X39389Y53735I-1201J0D01*
G03Y53235I313J-250D01*
G02Y51735I-938J-750D01*
G03Y51235I313J-250D01*
G02X39652Y50485I-938J-750D01*
G02X38450Y49283I-1202J0D01*
G02X37512Y49733I0J1203D01*
G03X36888I-312J-250D01*
G02X35012I-938J753D01*
G03X34388I-312J-250D01*
G02X33933Y49384I-938J752D01*
G03X33732Y48847I161J-366D01*
G02X33797Y48678I-1086J-515D01*
G03X34289Y48407I383J114D01*
G02X34615Y48452I326J-1158D01*
G02X35459Y48105I-1J-1202D01*
G03X35741I141J143D01*
G02X36585Y48452I845J-855D01*
G02X37429Y48105I-1J-1202D01*
G03X37711I141J143D01*
G02X38555Y48452I845J-855D01*
G02X39339Y48161I0J-1202D01*
G03X39874Y48174I260J303D01*
G02X40700Y48502I825J-874D01*
G02X41450Y48239I0J-1201D01*
G02X42200Y48502I750J-938D01*
G02X42965Y48227I0J-1202D01*
G02X43730Y48502I765J-927D01*
G02Y46098I0J-1202D01*
G02X42965Y46373I0J1202D01*
G02X42200Y46098I-765J927D01*
G02X41450Y46361I0J1201D01*
G02X40700Y46098I-750J938D01*
G02X39916Y46389I0J1202D01*
G03X39381Y46376I-260J-303D01*
G02X38555Y46048I-825J874D01*
G02X37711Y46395I1J1202D01*
G03X37429I-141J-143D01*
G02X36585Y46048I-845J855D01*
G02X35741Y46395I1J1202D01*
G03X35459I-141J-143D01*
G02X34615Y46048I-845J855D01*
G02X33463Y46906I0J1202D01*
G03X32971Y47177I-383J-114D01*
G02X32645Y47132I-326J1158D01*
G02X32189Y47222I0J1202D01*
G03X31654Y46963I-151J-370D01*
G02X30500Y46098I-1154J337D01*
G02X29750Y46361I0J1201D01*
G02X29000Y46098I-750J938D01*
G02X28235Y46373I0J1202D01*
G02X27470Y46098I-765J927D01*
G02Y48502I0J1202D01*
G02X28235Y48227I0J-1202D01*
G02X29000Y48502I765J-927D01*
G02X29750Y48239I0J-1201D01*
G02X30500Y48502I750J-938D01*
G02X30956Y48412I0J-1202D01*
G03X31491Y48671I151J370D01*
G02X31519Y48755I1154J-338D01*
G03X31096Y49292I-375J140D01*
G02X30950Y49283I-147J1193D01*
G02X29748Y50485I0J1202D01*
G02X30011Y51235I1201J0D01*
G03Y51735I-313J250D01*
G02X29878Y51941I938J752D01*
G03X29522I-178J-91D01*
G02X28450Y51283I-1072J544D01*
G02X27248Y52485I0J1202D01*
G02X27511Y53235I1201J0D01*
G03Y53735I-313J250D01*
G02X27248Y54485I938J750D01*
G02X28450Y55687I1202J0D01*
G02X29388Y55237I0J-1203D01*
G03X30012I312J250D01*
G02X31888I938J-753D01*
G03X32512I312J250D01*
G02X34388I938J-753D01*
G03X35012I312J250D01*
G37*
G36*
G01X34164Y69836D02*
G02X34015Y70416I1054J580D01*
G02X36419I1202J0D01*
G02X35830Y69382I-1202J0D01*
G03X35988Y68640I203J-345D01*
G02X37130Y69467I1142J-375D01*
G02X38068Y69017I0J-1203D01*
G03X38692I312J250D01*
G02X39630Y69467I938J-753D01*
G02X40832Y68265I0J-1202D01*
G02X39901Y67094I-1202J0D01*
G03X39606Y66595I90J-390D01*
G02X39652Y66265I-1156J-329D01*
G02X39389Y65515I-1201J0D01*
G03Y65015I313J-250D01*
G02X39652Y64265I-938J-750D01*
G02X38450Y63063I-1202J0D01*
G02X37512Y63513I0J1203D01*
G03X36888I-312J-250D01*
G02X35012I-938J753D01*
G03X34388I-312J-250D01*
G02X32512I-938J753D01*
G03X31888I-312J-250D01*
G02X30012I-938J753D01*
G03X29388I-312J-250D01*
G02X28450Y63063I-938J753D01*
G02X27248Y64265I0J1202D01*
G02X27511Y65015I1201J0D01*
G03Y65515I-313J250D01*
G02X27248Y66265I938J750D01*
G02X28179Y67436I1202J0D01*
G03X28474Y67935I-90J390D01*
G02X28428Y68265I1156J329D01*
G02X29630Y69467I1202J0D01*
G02X30568Y69017I0J-1203D01*
G03X31192I312J250D01*
G02X33068I938J-753D01*
G03X33692I312J250D01*
G02X34017Y69299I938J-752D01*
G03X34164Y69836I-203J344D01*
G37*
G36*
G01X215568Y97541D02*
G02X216340Y97822I772J-920D01*
G02X217366Y97246I0J-1202D01*
G03X218049I341J208D01*
G02X219075Y97822I1026J-626D01*
G02Y95418I0J-1202D01*
G02X218049Y95994I0J1202D01*
G03X217366I-341J-208D01*
G02X216340Y95418I-1026J626D01*
G02X215568Y95699I0J1201D01*
G02X214795Y95418I-772J921D01*
G02X214068Y95663I0J1201D01*
G02X213340Y95418I-727J957D01*
G02Y97822I0J1202D01*
G02X214068Y97577I1J-1202D01*
G02X214795Y97822I727J-956D01*
G02X215568Y97541I1J-1202D01*
G37*
G36*
G01X178500Y97102D02*
X178501D01*
G03X178900Y97477I0J400D01*
G02X180100Y98602I1200J-77D01*
G02X181302Y97400I0J-1202D01*
G02X180826Y96442I-1202J0D01*
G03X180840Y95794I242J-319D01*
G02X181059Y95600I-682J-990D01*
G03X181569Y95523I301J264D01*
G02X182200Y95702I631J-1023D01*
G02X183402Y94500I0J-1202D01*
G02X182784Y93450I-1201J0D01*
G03Y92750I195J-350D01*
G02X183402Y91700I-583J-1050D01*
G02X182200Y90498I-1202J0D01*
G02X181355Y90845I0J1202D01*
G03X180781Y90832I-281J-285D01*
G02X179900Y90448I-881J819D01*
G02Y92852I0J1202D01*
G02X180745Y92505I0J-1202D01*
G03X181319Y92518I281J285D01*
G02X181616Y92750I879J-819D01*
G03Y93450I-195J350D01*
G02X181297Y93706I582J1052D01*
G03X180787Y93783I-301J-264D01*
G02X180156Y93604I-631J1023D01*
G02X178978Y94567I0J1202D01*
G03X178742Y94723I-196J-40D01*
G02X178500Y94698I-244J1177D01*
G02Y97102I0J1202D01*
G37*
G36*
G01X59159Y98652D02*
G02X58898Y99400I941J748D01*
G02X60100Y100602I1202J0D01*
G02X60800Y100377I0J-1201D01*
G02X61500Y100602I700J-976D01*
G02Y98198I0J-1202D01*
G02X60800Y98423I0J1201D01*
G02X60521Y98274I-701J977D01*
G03X60460Y97936I70J-187D01*
G02X60872Y97030I-790J-906D01*
G02X60835Y96735I-1202J1D01*
G03X60971Y96494I194J-49D01*
G02X61827Y95343I-346J-1151D01*
G02X61526Y94547I-1203J0D01*
G03X61527Y94282I150J-132D01*
G02X61833Y93480I-896J-801D01*
G02X59429I-1202J0D01*
G02X59730Y94276I1203J0D01*
G03X59729Y94541I-150J132D01*
G02X59423Y95343I896J801D01*
G02X59460Y95638I1202J-1D01*
G03X59324Y95879I-194J49D01*
G02X58468Y97030I346J1151D01*
G02X59051Y98061I1203J0D01*
G03X59159Y98652I-205J343D01*
G37*
G36*
G01X31632Y109769D02*
G02X31298Y110600I867J831D01*
G02X32500Y111802I1202J0D01*
G02X33212Y111568I-1J-1202D01*
G02X33929Y111805I717J-966D01*
G02Y109401I0J-1202D01*
G02X33217Y109635I1J1202D01*
G02X33028Y109520I-717J965D01*
G03X32915Y108884I176J-359D01*
G02X33249Y108053I-867J-831D01*
G02X30845I-1202J0D01*
G02X31519Y109133I1202J0D01*
G03X31632Y109769I-176J359D01*
G37*
G36*
G01X265949Y115887D02*
G02X265494Y115798I-454J1113D01*
G02Y118202I0J1202D01*
G02X266694Y117062I0J-1202D01*
G03X267245Y116713I399J21D01*
G02X267700Y116802I454J-1113D01*
G02Y114398I0J-1202D01*
G02X266500Y115538I0J1202D01*
G03X265949Y115887I-399J-21D01*
G37*
G36*
G01X52214Y121602D02*
G02X54164I975J-701D01*
G03X54814I325J234D01*
G02X55789Y122102I975J-701D01*
G02Y119698I0J-1202D01*
G02X54814Y120198I0J1201D01*
G03X54164I-325J-234D01*
G02X52214I-975J701D01*
G03X51564I-325J-234D01*
G02X49614I-975J701D01*
G03X48964I-325J-234D01*
G02X47989Y119698I-975J701D01*
G02Y122102I0J1202D01*
G02X48964Y121602I0J-1201D01*
G03X49614I325J234D01*
G02X51564I975J-701D01*
G03X52214I325J234D01*
G37*
G36*
G01X81354Y128137D02*
G02X81298Y128500I1146J363D01*
G02X82500Y127298I1202J0D01*
G01X82492D01*
G03X82093Y126849I-2J-400D01*
G02X82102Y126700I-1193J-147D01*
G02X79698I-1202J0D01*
G02X79748Y127042I1202J-1D01*
G03X79548Y127299I-192J57D01*
G02X79500Y127298I-49J1201D01*
G02X79387Y127303I-3J1202D01*
G03X79173Y127061I-19J-199D01*
G02X79202Y126800I-1173J-262D01*
G02X76798I-1202J0D01*
G02X77926Y128000I1202J0D01*
G03X78300Y128424I-25J399D01*
G02X78298Y128500I1200J70D01*
G02X80702I1202J0D01*
G02X80692Y128343I-1202J-2D01*
G03X81041Y127894I396J-52D01*
G02X81126Y127881I-139J-1194D01*
G03X81354Y128137I37J196D01*
G37*
G36*
G01X66036Y127521D02*
G02X65800Y127498I-234J1179D01*
G02X67002Y128700I0J1202D01*
G02X66990Y128528I-1202J-3D01*
G03X67464Y128079I396J-57D01*
G02X67700Y128102I234J-1179D01*
G02X67931Y128080I2J-1202D01*
G03X68405Y128429I77J392D01*
G02X69600Y129502I1195J-129D01*
G02X70802Y128300I0J-1202D01*
G01Y128292D01*
G03X71401Y127942I400J-3D01*
G02X72000Y128102I599J-1041D01*
G02X72064Y128100I-6J-1202D01*
G03X72484Y128525I21J399D01*
G02X72482Y128600I1200J70D01*
G02X74886I1202J0D01*
G02X74866Y128381I-1202J-1D01*
G03X75215Y127911I393J-73D01*
G02X76286Y126716I-131J-1195D01*
G02X73882I-1202J0D01*
G02X73902Y126935I1202J1D01*
G03X73553Y127405I-393J73D01*
G02X73407Y127430I130J1195D01*
G03X73167Y127188I-46J-195D01*
G02X73202Y126900I-1167J-288D01*
G02X70798I-1202J0D01*
G01Y126908D01*
G03X70199Y127258I-400J3D01*
G02X69600Y127098I-599J1041D01*
G02X69369Y127120I-2J1202D01*
G03X68895Y126771I-77J-392D01*
G02X67700Y125698I-1195J129D01*
G02X66498Y126900I0J1202D01*
G02X66510Y127072I1202J3D01*
G03X66036Y127521I-396J57D01*
G37*
G36*
G01X95781Y143984D02*
G02X94800Y143476I-981J693D01*
G02Y145880I0J1202D01*
G02X95769Y145389I0J-1202D01*
G03X96419Y145394I323J236D01*
G02X97400Y145902I981J-693D01*
G02Y143498I0J-1202D01*
G02X96431Y143989I0J1202D01*
G03X95781Y143984I-323J-236D01*
G37*
G36*
G01X232110Y156124D02*
G02X231307Y157258I399J1134D01*
G02X232509Y158460I1202J0D01*
G02X233281Y158180I1J-1202D01*
G03X233537I128J153D01*
G02X234309Y158460I771J-922D01*
G02X235511Y157258I0J-1202D01*
G02X234696Y156120I-1202J0D01*
G03X234469Y155559I129J-379D01*
G02X234602Y155012I-1069J-550D01*
G03X234802Y154812I200J0D01*
G02X236002Y153610I-2J-1202D01*
G02X234800Y152408I-1202J0D01*
G02X233598Y153608I0J1202D01*
G03X233398Y153808I-200J0D01*
G02X232198Y155010I2J1202D01*
G02X232333Y155563I1202J0D01*
G03X232110Y156124I-355J184D01*
G37*
G36*
G01X-13301Y160339D02*
G02X-12100Y161502I1201J-39D01*
G02Y159098I0J-1202D01*
G02X-12399Y159136I1J1202D01*
G03X-12899Y158761I-100J-387D01*
G02X-14100Y157598I-1201J39D01*
G02Y160002I0J1202D01*
G02X-13801Y159964I-1J-1202D01*
G03X-13301Y160339I100J387D01*
G37*
G36*
G01X231158Y171527D02*
G02X230160Y170995I-998J670D01*
G02Y173399I0J1202D01*
G02X231158Y172867I0J-1202D01*
G03X231822I332J223D01*
G02X232820Y173399I998J-670D01*
G02Y170995I0J-1202D01*
G02X231822Y171527I0J1202D01*
G03X231158I-332J-223D01*
G37*
G36*
G01X-13801Y175136D02*
G02X-14100Y175098I-300J1164D01*
G02X-12898Y176300I0J1202D01*
G02X-12899Y176264I-1202J15D01*
G03X-12399Y175864I400J-13D01*
G02X-12100Y175902I300J-1164D01*
G02X-13302Y174700I0J-1202D01*
G02X-13301Y174736I1202J-15D01*
G03X-13801Y175136I-400J13D01*
G37*
G36*
G01X212563Y177137D02*
G03X213137I287J278D01*
G02X214000Y177502I863J-838D01*
G02Y175098I0J-1202D01*
G02X213137Y175463I0J1203D01*
G03X212563I-287J-278D01*
G02X211700Y175098I-863J838D01*
G02X211037Y175298I1J1202D01*
G03X210514Y175226I-221J-334D01*
G02X209606Y174812I-908J789D01*
G02X209326Y174845I0J1202D01*
G03X208835Y174423I-92J-389D01*
G02X208839Y174323I-1198J-98D01*
G02X208493Y173479I-1202J0D01*
G03Y173198I142J-141D01*
G02X208839Y172354I-856J-844D01*
G02X208796Y172036I-1202J1D01*
G03X209288Y171544I386J-106D01*
G02X209606Y171587I319J-1159D01*
G02X210808Y170385I0J-1202D01*
G02X210480Y169560I-1202J0D01*
G03X210603Y168922I291J-275D01*
G02X211292Y167986I-503J-1092D01*
G03X211492Y167812I198J26D01*
G01X211500D01*
G02X211708Y167794I1J-1202D01*
G03X211933Y167931I34J197D01*
G02X213080Y168772I1147J-362D01*
G02Y166368I0J-1202D01*
G02X212872Y166386I-1J1202D01*
G03X212647Y166249I-34J-197D01*
G02X211500Y165408I-1147J362D01*
G02X210308Y166454I0J1202D01*
G03X210108Y166628I-198J-26D01*
G01X210100D01*
G02X208898Y167830I0J1202D01*
G02X209226Y168655I1202J0D01*
G03X209103Y169293I-291J275D01*
G02X208762Y169529I503J1092D01*
G03X208481I-140J-142D01*
G02X206793I-844J856D01*
G03X206513I-140J-143D01*
G02X204825I-844J856D01*
G03X204544I-140J-142D01*
G02X203700Y169183I-844J856D01*
G02Y171587I0J1202D01*
G02X204018Y171544I-1J-1202D01*
G03X204510Y172036I106J386D01*
G02X204467Y172354I1159J319D01*
G02X204510Y172672I1202J-1D01*
G03X204018Y173164I-386J106D01*
G02X203700Y173121I-319J1159D01*
G02X204902Y174323I0J1202D01*
G02X204859Y174005I-1202J1D01*
G03X205351Y173513I386J-106D01*
G02X205669Y173556I319J-1159D01*
G02X205986Y173513I-2J-1202D01*
G03X206478Y174005I106J386D01*
G02X206435Y174323I1159J319D01*
G02X207637Y175525I1202J0D01*
G02X207917Y175492I0J-1202D01*
G03X208408Y175914I92J389D01*
G02X208404Y176014I1198J98D01*
G02X209606Y177216I1202J0D01*
G02X210269Y177016I-1J-1202D01*
G03X210792Y177088I221J334D01*
G02X211700Y177502I908J-789D01*
G02X212563Y177137I0J-1203D01*
G37*
G36*
G01X124907Y184795D02*
G02X124598Y185600I894J805D01*
G02X125800Y186802I1202J0D01*
G02X126837Y186209I0J-1203D01*
G03X127539Y186232I345J202D01*
G02X130000Y187752I2461J-1232D01*
G02Y182248I0J-2752D01*
G02X127248Y184964I0J2752D01*
G03X126870Y185053I-200J-2D01*
G02X126722Y184829I-1070J546D01*
G03X126732Y184305I307J-256D01*
G02X127041Y183500I-894J-805D01*
G02X124637I-1202J0D01*
G02X124917Y184271I1202J0D01*
G03X124907Y184795I-307J256D01*
G37*
G36*
G01X196670Y184291D02*
G02X195700Y183798I-970J708D01*
G02Y186202I0J1202D01*
G02X196670Y185709I0J-1201D01*
G03X197375Y185826I323J236D01*
G02X200000Y187752I2625J-826D01*
G02Y182248I0J-2752D01*
G02X197375Y184174I0J2752D01*
G03X196670Y184291I-382J-119D01*
G37*
G54D31*
X113600Y17470D03*
X118983Y19999D03*
X124101D03*
X136897D03*
X129219D03*
X147133D03*
X142300Y17500D03*
X152251Y19999D03*
X111306Y28856D03*
X108747Y26298D03*
X106188Y29448D03*
X108747Y32598D03*
X111306Y32006D03*
X108747Y23149D03*
Y29448D03*
X111306Y23149D03*
X113865Y26298D03*
X121542Y29448D03*
Y23149D03*
X124101Y29448D03*
X126660D03*
X118983Y32598D03*
Y26298D03*
X124101Y32598D03*
X116424Y23149D03*
X118983D03*
Y29448D03*
X116424D03*
Y26298D03*
X124101Y23149D03*
X126660D03*
X139456Y32006D03*
X129219Y26298D03*
X136897Y28856D03*
X139456Y23149D03*
X144574Y32006D03*
Y23149D03*
X142015Y32006D03*
X147133Y28856D03*
Y32006D03*
X149692D03*
X149691Y25707D03*
X149692Y23149D03*
X142015D03*
X157368Y28856D03*
X159927D03*
X162486Y32006D03*
X157369Y23149D03*
X154810D03*
X157368Y32006D03*
X159927D03*
X154809Y28856D03*
X152250D03*
X108747Y44604D03*
X113865D03*
Y35156D03*
X126660Y44604D03*
X118983D03*
X124101D03*
X129218Y45196D03*
X139456D03*
X142014Y44604D03*
X142015Y35156D03*
X147133D03*
X144573Y42046D03*
X149691D03*
Y45196D03*
X144573D03*
X152251Y35156D03*
X159927D03*
X154809Y42046D03*
X159927D03*
X162682Y44860D03*
X152493Y44953D03*
X111306Y50904D03*
X113865Y57203D03*
X106188Y47754D03*
X108747Y50904D03*
Y47754D03*
X111306D03*
Y54053D03*
X108747D03*
X118983Y57203D03*
X121542Y47754D03*
X124101Y57203D03*
X121541Y50904D03*
X116424Y47754D03*
X118983D03*
X121541Y54053D03*
X116424D03*
X116423Y50904D03*
X118982D03*
X124101Y47754D03*
X126659Y50904D03*
X124101Y54053D03*
X126660D03*
X129219Y50904D03*
Y57203D03*
X139455Y50904D03*
Y57203D03*
X147132Y54053D03*
X149691Y57203D03*
X144574Y47754D03*
X144573Y57203D03*
X149691Y50904D03*
Y54053D03*
X144573Y50904D03*
Y54053D03*
X142014D03*
X157368Y50904D03*
X159927D03*
X154809Y57203D03*
X157368Y54053D03*
X152250D03*
X159927D03*
X154809Y50904D03*
X152250D03*
G54D35*
X253289Y103767D03*
G54D28*
X-35700Y-6100D03*
X-32500Y-3648D03*
X-29400Y-2060D03*
X-25600Y-6300D03*
X-29400Y1400D03*
X-24890Y-390D03*
X82800Y9900D03*
X175000Y5450D03*
X224980Y8469D03*
X-7300Y19196D03*
X4980Y13520D03*
X13100Y19109D03*
X32645Y22300D03*
X36585D03*
X79870Y16910D03*
X185175Y19360D03*
X206690Y21780D03*
X216232Y15370D03*
X214840Y20860D03*
X-24421Y30450D03*
X8904Y31500D03*
X-962D03*
X9500Y27400D03*
Y23300D03*
X21100Y24300D03*
X65930Y29600D03*
X69730Y27400D03*
X164940Y26420D03*
X178500Y30350D03*
X199000Y31230D03*
X199400Y23100D03*
X199800Y34500D03*
X200600Y27800D03*
X-25610Y41630D03*
X12100Y40620D03*
X15600Y35600D03*
X10080Y44750D03*
X69730Y45700D03*
X176320Y41320D03*
X184460D03*
X180390D03*
X188530D03*
X196100Y41400D03*
X192600Y41320D03*
X220960Y45200D03*
X-7897Y58351D03*
X-3391Y54170D03*
X65930Y48000D03*
X79669Y56694D03*
X200783Y56687D03*
X219100Y48200D03*
X7090Y67521D03*
X69730Y62200D03*
X100390Y60390D03*
X184175Y59000D03*
X176125D03*
X180150D03*
X188200D03*
X208510Y66300D03*
X206480Y59290D03*
X215310Y62660D03*
X223100Y63236D03*
X211300Y63200D03*
X212135Y66335D03*
X220240Y62970D03*
X215975Y66175D03*
X218400Y68200D03*
X228195Y65205D03*
X253200Y64990D03*
X19400Y77360D03*
X37900Y80400D03*
X43222Y78422D03*
X47400Y81084D03*
X49584Y77284D03*
X56100Y81084D03*
X51900D03*
X180225Y70700D03*
X176200D03*
X184250D03*
X188275D03*
X222000Y73800D03*
X218246D03*
X39700Y84500D03*
X51651Y86049D03*
X61500Y84300D03*
X60600Y90400D03*
X72900Y92700D03*
X112972Y87985D03*
X109822Y87986D03*
X109823Y91134D03*
X122420Y87986D03*
X125571D03*
X125570Y91134D03*
X116123Y91136D03*
X122420D03*
X116123Y87986D03*
X128721Y91136D03*
X135019Y87986D03*
X128720Y87985D03*
X138168Y91136D03*
X135019D03*
X147800Y88000D03*
X150767Y91136D03*
X163201Y91300D03*
X153916Y87986D03*
X160215Y91136D03*
X161351Y86850D03*
X157066Y91136D03*
Y87986D03*
X153916Y91136D03*
X166615Y91076D03*
X169764Y87926D03*
X-12162Y100708D03*
X32047Y103329D03*
Y95455D03*
X78350Y99450D03*
X72400Y103329D03*
X103524Y103734D03*
Y97433D03*
Y94284D03*
X112973Y103734D03*
X106674Y97433D03*
X109823D03*
X112973Y94285D03*
X106674Y94284D03*
X109823D03*
X122422D03*
X116123Y103734D03*
Y97435D03*
X125571Y94284D03*
Y97433D03*
X122422Y100583D03*
X116123Y94285D03*
X125571Y100583D03*
X119272Y94285D03*
Y97435D03*
X125570Y103733D03*
X119272Y100585D03*
X135019Y94285D03*
X138168Y103734D03*
X128719Y103733D03*
X138168Y100585D03*
X128721Y94285D03*
X135019Y100585D03*
Y103734D03*
X128720Y97434D03*
X138168Y94285D03*
Y97435D03*
X131869Y103734D03*
Y100585D03*
X141318Y94285D03*
X150751Y97451D03*
X144467Y103734D03*
X147617D03*
X150767D03*
X141318Y100585D03*
Y97435D03*
X150767Y94285D03*
X147618Y97434D03*
X147617Y94285D03*
X150767Y100585D03*
X147617D03*
X141318Y103734D03*
X144467Y97435D03*
X144392Y94121D03*
X160215Y100585D03*
X163465Y94225D03*
X160215Y94285D03*
X163366Y97434D03*
X160215Y103734D03*
X163365D03*
X153916Y94285D03*
X157066Y97435D03*
X153916D03*
X163365Y100585D03*
X160215Y97435D03*
X157066Y100585D03*
Y103734D03*
X153916Y100585D03*
X172641Y95859D03*
X174300Y103600D03*
X166470Y100530D03*
X175700Y99000D03*
X175600Y95900D03*
X186234Y96734D03*
X188600Y94870D03*
X245100Y101590D03*
X268440Y102740D03*
X260776Y102824D03*
X-23016Y108826D03*
X-12180Y116944D03*
Y112885D03*
X39052Y112884D03*
X63184Y109484D03*
X59500Y110900D03*
X73650Y113724D03*
X112973Y106884D03*
X109823Y116333D03*
X122422D03*
X119272D03*
X125571D03*
X122422Y110033D03*
X125571Y113183D03*
Y110033D03*
X116123Y106884D03*
X119272D03*
Y110033D03*
X116123D03*
X135019Y116331D03*
Y106884D03*
X128721Y116333D03*
X131869Y113181D03*
X128719Y110032D03*
X138168Y113181D03*
Y106884D03*
X128719Y106882D03*
X135019Y113181D03*
X147618Y113182D03*
X141318Y113183D03*
X144467Y110033D03*
X147617Y106884D03*
X144467Y116333D03*
X150767D03*
X144467Y106884D03*
X150767D03*
X147617Y110033D03*
X141318D03*
X150767D03*
X141318Y106884D03*
X153916Y113183D03*
X157066Y116333D03*
X163365Y110033D03*
Y116333D03*
X157066Y110033D03*
X160215Y113183D03*
X163366Y113182D03*
X157066Y106884D03*
X153916D03*
Y110033D03*
X166515Y116333D03*
Y110033D03*
X169664D03*
Y116333D03*
X189700Y117300D03*
X199200Y115000D03*
X223800Y110500D03*
X247000Y110200D03*
X266540Y109740D03*
X259610Y109870D03*
X-11393Y121003D03*
X40300Y120400D03*
X71600Y118000D03*
X91070Y123931D03*
X103524Y119200D03*
X109752Y122702D03*
X109987Y125929D03*
X106450Y122592D03*
X112973Y128929D03*
X109823D03*
X112962Y122641D03*
X106780Y125830D03*
X119272Y125780D03*
X116123D03*
X119009Y122848D03*
X125571Y119482D03*
Y128929D03*
X122422Y119482D03*
Y128929D03*
X119272D03*
X116123D03*
X125571Y125780D03*
X122422D03*
X135020D03*
X138168Y119481D03*
X131871Y128929D03*
X128721Y125780D03*
X131871Y119482D03*
X138100Y125700D03*
X138200Y122600D03*
X141318Y119482D03*
X147617D03*
X144467Y125780D03*
X147617Y128929D03*
X141318D03*
X150767Y125780D03*
X153916Y119482D03*
X157066Y125780D03*
X153916Y128929D03*
X163365Y125780D03*
X160215Y119482D03*
Y128929D03*
X163365D03*
X166515Y125780D03*
X169180Y123800D03*
X180000Y127646D03*
X208700Y127500D03*
X211600Y118440D03*
X211756Y128800D03*
X252513Y125087D03*
X262287D03*
X52140Y140840D03*
X50200Y132731D03*
X47325Y140675D03*
X86700Y130203D03*
X103100Y136804D03*
X112973Y135229D03*
X109823Y132079D03*
X112972Y132080D03*
X112973Y138378D03*
X112972Y141529D03*
X109823Y138378D03*
Y141528D03*
X116123Y132079D03*
X122422D03*
X119272D03*
Y135229D03*
X122422Y138378D03*
Y135229D03*
X116123Y141528D03*
Y138378D03*
X125571Y135229D03*
Y138378D03*
Y141528D03*
X119272D03*
X122422D03*
X116123Y135229D03*
X131871Y138378D03*
X128721Y135229D03*
X135020D03*
X131871D03*
X128720Y132080D03*
X135020Y132079D03*
Y138378D03*
X128721D03*
X150767Y132079D03*
X144467D03*
X147617Y135229D03*
Y141528D03*
X163365Y138378D03*
X153916Y135229D03*
X157066Y132079D03*
X160215D03*
X157066Y141528D03*
X153916D03*
X160215Y135229D03*
X163365D03*
X163366Y132080D03*
X166515Y138378D03*
X169664Y132079D03*
Y138378D03*
X166515Y132079D03*
X180000Y130512D03*
X195300Y138200D03*
X210100Y139400D03*
X213700Y136789D03*
X223566Y136489D03*
X240400Y139400D03*
X237600Y140800D03*
X247700Y138900D03*
X-40600Y149500D03*
X-44600D03*
Y153100D03*
X-40600D03*
X-12000Y153350D03*
X3508Y145808D03*
X-1500Y143600D03*
X8508Y145808D03*
X11276Y148940D03*
X30415Y151770D03*
X27500Y149800D03*
X69512Y151107D03*
X77700Y149000D03*
X101800Y144787D03*
X109823Y144677D03*
X112973Y147827D03*
Y144677D03*
X109822Y150978D03*
X112973Y150977D03*
X109823Y147827D03*
X106700Y150526D03*
X116123Y144677D03*
X122422D03*
X119272Y147827D03*
X122422D03*
X125571D03*
X116123Y150977D03*
X119272D03*
X125571Y144677D03*
X119272D03*
X122422Y150977D03*
X131871Y147827D03*
X138000Y147800D03*
X128721Y147827D03*
Y144677D03*
X138170Y150977D03*
X135020Y147827D03*
Y150977D03*
X128721D03*
X131871D03*
X144467D03*
X147618Y147828D03*
X150767Y150977D03*
X147617D03*
Y144677D03*
X150767D03*
X163365D03*
X157066D03*
Y150977D03*
X160215Y147827D03*
Y144677D03*
X163365Y147827D03*
X169664Y150977D03*
X166764D03*
X214300Y151000D03*
X239000Y152210D03*
X236200Y150810D03*
X241800Y142200D03*
X-44600Y160300D03*
Y163900D03*
X-40600Y160300D03*
Y163900D03*
Y156700D03*
X-44600D03*
X-20400Y163900D03*
X-12100Y164300D03*
Y156700D03*
X-1492Y154278D03*
X3508Y154400D03*
X-1200Y157300D03*
X8508Y160308D03*
X20000Y154255D03*
X13508Y160308D03*
X27500Y158734D03*
Y154300D03*
X33200Y164300D03*
X54600Y157680D03*
Y153740D03*
X58955Y158255D03*
X61652Y160455D03*
X70053Y156902D03*
X96170Y153631D03*
X119272Y154126D03*
X119200Y160276D03*
X116123Y157276D03*
X119272D03*
X125571Y154126D03*
Y157276D03*
X116123Y154126D03*
X130295Y157050D03*
X138170Y154126D03*
X133445Y165400D03*
X136594Y164100D03*
X146250Y159300D03*
X153916Y154126D03*
X152300Y157800D03*
X155600D03*
X246204Y158196D03*
X243700Y156400D03*
X-44600Y171100D03*
X-40600D03*
Y167500D03*
X-44600D03*
X-40600Y174700D03*
X-44600D03*
X-12100Y171100D03*
Y167500D03*
X-1410Y174700D03*
X8500Y166800D03*
X3508Y166792D03*
X-1500Y166900D03*
X13500D03*
X78100Y169631D03*
X155400Y172700D03*
X241700Y175670D03*
X236100Y176410D03*
X-40600Y178300D03*
X-44600Y181900D03*
X-40600Y185500D03*
X-44600Y178300D03*
X-40600Y181900D03*
X-38400Y189000D03*
X-15700Y180550D03*
X-12100Y178300D03*
X-16000Y191400D03*
X125000Y193650D03*
X144800D03*
X165200Y194100D03*
G54D37*
X268843Y141546D03*
G54D30*
X30000Y5000D03*
X40000D03*
X50000D03*
X60000D03*
X70000D03*
X80000D03*
X90000D03*
X100000D03*
X110000D03*
X120000D03*
X130000D03*
X140000D03*
X150000D03*
X160000D03*
X170000D03*
X180000D03*
X190000D03*
X200000D03*
X210000D03*
X220000D03*
X30000Y185000D03*
X40000D03*
X50000D03*
X60000D03*
X70000D03*
X80000D03*
X90000D03*
X100000D03*
X110000D03*
X120000D03*
X140000D03*
X150000D03*
X160000D03*
X170000D03*
X180000D03*
X190000D03*
X210000D03*
X220000D03*
X230000D03*
X240000D03*
G54D29*
X20000Y5000D03*
X230000D03*
X240000D03*
G54D38*
X119839Y174530D03*
X129839D03*
X139839D03*
X149839D03*
X159839D03*
G54D36*
X10000Y129290D03*
G54D34*
X-40984Y90688D03*
Y122892D03*
G54D32*
X-35463Y35646D03*
G54D33*
X0Y84290D03*
Y94290D03*
X10000Y89290D03*
X0Y104290D03*
X10000Y99290D03*
X0Y114290D03*
X10000Y109290D03*
Y119290D03*
X0Y124290D03*
%LPD*%
G75*
G54D10*
X-49833Y7339D03*
Y41197D03*
X-33297Y7339D03*
Y41197D03*
G54D20*
X20000Y5000D03*
Y195000D03*
X230000Y-5000D03*
Y5000D03*
X240000Y-5000D03*
Y5000D03*
G54D11*
X-52100Y2800D03*
X-55400Y13700D03*
X-52400Y17503D03*
Y19396D03*
Y21403D03*
Y29707D03*
Y31600D03*
Y33607D03*
X-55500Y45200D03*
X-55400Y53700D03*
Y63700D03*
Y73700D03*
Y93700D03*
Y83700D03*
Y103700D03*
Y113700D03*
Y123700D03*
Y133700D03*
X-48500Y-1500D03*
X-46000Y2700D03*
X-49170Y74420D03*
X-39170D03*
X-31700Y-7000D03*
X-37500Y1400D03*
X-35600D03*
X-35700Y21580D03*
X-27000Y22380D03*
X-37600Y16287D03*
Y18287D03*
Y20287D03*
X-35600Y17180D03*
Y19280D03*
X-34400Y16180D03*
Y18280D03*
X-34500Y20480D03*
X-35700Y26880D03*
X-26900Y26480D03*
X-37600Y28587D03*
Y30480D03*
Y32487D03*
X-35700Y31480D03*
Y29480D03*
X-34300Y32380D03*
X-34400Y30380D03*
Y28180D03*
X-30935Y37063D03*
X-32500Y37080D03*
X-29400D03*
X-32300Y48830D03*
Y50830D03*
Y52830D03*
X-38300Y48830D03*
Y50830D03*
Y52830D03*
X-36300Y48830D03*
Y50830D03*
Y52830D03*
X-34300D03*
Y50830D03*
Y48830D03*
X-29170Y74420D03*
X-33700Y96990D03*
X-26700D03*
X-33700Y114990D03*
X-26700D03*
Y106990D03*
X-33700D03*
X-35718Y151132D03*
X-30074Y148100D03*
X-35718Y158332D03*
X-29250Y162550D03*
X-35718Y172732D03*
Y165532D03*
Y179932D03*
X-31000Y196000D03*
X-29000D03*
X-20290Y-5100D03*
X-17900Y-10700D03*
X-19200Y4700D03*
X-20621Y22243D03*
X-16570Y18378D03*
Y19878D03*
X-14970Y18378D03*
Y19878D03*
X-20621Y26293D03*
X-19170Y74420D03*
X-21139Y96649D03*
X-20857Y104767D03*
X-20634Y116944D03*
X-16800Y147410D03*
X-15100D03*
X-18432Y161932D03*
X-21878Y154962D03*
X-17500Y169078D03*
X-17537Y176303D03*
X-25500Y176200D03*
X-17532Y183499D03*
X-17200Y195800D03*
X-15200D03*
X-7500Y-10700D03*
X-4730Y22600D03*
X-11770Y18378D03*
X-13370D03*
X-11770Y19878D03*
X-13370D03*
X-6760Y24060D03*
X-7700Y93490D03*
Y99990D03*
Y104990D03*
X-6700Y113490D03*
Y116990D03*
X-6100Y145500D03*
X800Y-10700D03*
X920Y12220D03*
X-1800Y11500D03*
X2187Y31470D03*
X1503Y50490D03*
X8460Y51130D03*
X7445Y49935D03*
X-980Y50490D03*
X8200Y72610D03*
X1850Y72060D03*
Y70400D03*
X8200Y71180D03*
X3300Y136200D03*
Y132990D03*
X-1492Y160308D03*
X930Y168010D03*
X9800Y-10700D03*
X19800D03*
X9040Y11440D03*
X10230Y52950D03*
X10300Y80200D03*
X17860Y81760D03*
X17890Y86230D03*
X17860Y83260D03*
X17890Y84730D03*
X16300Y126990D03*
X10300Y136200D03*
X16300D03*
Y131200D03*
X13500Y144500D03*
X16300Y142200D03*
X20010Y151510D03*
X19934Y158734D03*
X20300Y163200D03*
X18300Y161200D03*
Y157200D03*
Y171200D03*
X16900Y200800D03*
X29800Y-10700D03*
X22900Y26500D03*
Y29500D03*
Y28000D03*
X31200Y29100D03*
Y34400D03*
X22900Y42700D03*
Y39700D03*
Y41200D03*
X31200Y38500D03*
X23600Y56890D03*
X25600D03*
Y58790D03*
X23600D03*
X27700Y80700D03*
X28710Y94023D03*
Y104823D03*
X29734Y140934D03*
X32734D03*
Y138434D03*
X27934Y132634D03*
X22300Y171200D03*
X26300D03*
X30300D03*
X26900Y200800D03*
X39800Y-10700D03*
X35900Y34300D03*
X40300Y34200D03*
Y29000D03*
X35900Y29100D03*
Y38500D03*
X40300D03*
X41279Y93800D03*
Y105800D03*
Y101800D03*
Y97800D03*
X40900Y122700D03*
X44000D03*
X44500Y119700D03*
X36100Y138800D03*
X40800Y138900D03*
X40734Y136434D03*
X42734Y150934D03*
Y148934D03*
X39734Y150934D03*
X36734D03*
X42734Y157934D03*
X37394Y172500D03*
X34300Y171200D03*
X36900Y200800D03*
X49800Y-10700D03*
X53100Y22000D03*
Y18500D03*
Y15000D03*
X49600D03*
X46100D03*
Y12000D03*
X49600D03*
X48300Y28000D03*
Y29500D03*
Y26500D03*
X53100Y32500D03*
Y29000D03*
Y25500D03*
X48300Y42700D03*
Y39700D03*
Y41200D03*
X53100Y43000D03*
Y39500D03*
Y36000D03*
X45400Y56900D03*
X47400D03*
X53010Y47510D03*
Y49510D03*
X47400Y58800D03*
X45400D03*
X45279Y93800D03*
X49279D03*
X53279D03*
Y97800D03*
Y101800D03*
X49279D03*
Y97800D03*
X45279D03*
Y101800D03*
Y105800D03*
X49279D03*
X47299Y122800D03*
X51279D03*
X53200D03*
X55800D03*
X54000Y129900D03*
X55500D03*
X45234Y150934D03*
Y148934D03*
X45334Y157934D03*
X47834D03*
X50255Y172500D03*
X46900Y200800D03*
X59800Y-10700D03*
X68300Y63700D03*
X65300D03*
X57000Y129900D03*
X63800Y159200D03*
X63790Y154110D03*
X66271Y172500D03*
X56900Y200800D03*
X66900D03*
X69800Y-10700D03*
X79800D03*
X69600Y15000D03*
Y18200D03*
X73800Y15000D03*
X71700D03*
Y18200D03*
X73861Y18250D03*
X69600Y33300D03*
X71700D03*
X73800D03*
Y23100D03*
X69200Y30300D03*
X71700D03*
X74200D03*
X73861Y36550D03*
X73800Y41400D03*
X71700Y36500D03*
X69600D03*
Y51600D03*
Y54800D03*
X73800Y51600D03*
X71700D03*
Y54800D03*
X73861Y54850D03*
X69200Y48800D03*
X71700D03*
X74200D03*
X73800Y59700D03*
X71300Y63700D03*
X77500Y83700D03*
Y85700D03*
X71400Y100100D03*
Y98600D03*
X72800Y100100D03*
Y98500D03*
X76700Y107300D03*
X78200Y107400D03*
X70000Y148900D03*
X71500D03*
X73000D03*
X76900Y200800D03*
X89800Y-10700D03*
X90300Y26200D03*
Y28200D03*
Y30200D03*
Y44200D03*
Y46200D03*
Y48200D03*
X85600Y93076D03*
Y84668D03*
Y87768D03*
Y86168D03*
Y89368D03*
Y101300D03*
Y102800D03*
Y104400D03*
Y96176D03*
Y94576D03*
Y97776D03*
X90950Y131653D03*
X82300Y150200D03*
X85670Y153590D03*
X82287Y172500D03*
Y170630D03*
X86900Y200800D03*
X99800Y-10700D03*
X101300Y10200D03*
Y14200D03*
X96660Y13160D03*
X93010Y59510D03*
Y61510D03*
Y63510D03*
X103574Y88225D03*
X98000Y123800D03*
X93000Y124390D03*
X94750Y131850D03*
X98600Y132050D03*
X94550Y137600D03*
X103500Y157500D03*
Y156000D03*
X94150Y153700D03*
X96087Y177900D03*
X96900Y200800D03*
X109800Y-10700D03*
X111300Y10200D03*
X106300D03*
X111400Y17470D03*
X106300Y14200D03*
X111300D03*
X106188Y26298D03*
X113865Y23149D03*
Y32006D03*
X111306Y44604D03*
Y35156D03*
Y57203D03*
X113865Y54053D03*
Y47754D03*
X106188Y50904D03*
X112973Y91136D03*
X109823Y100585D03*
X109583Y110272D03*
X106606Y119750D03*
X109823Y135229D03*
X106673Y144678D03*
X105066Y157590D03*
X115900Y161150D03*
X106900Y200800D03*
X119800Y-10700D03*
X126300Y10200D03*
X121300D03*
X116300D03*
X121542Y19999D03*
X126660D03*
X116740Y17470D03*
X116300Y14200D03*
X121300D03*
X126300D03*
X121542Y32598D03*
X116424D03*
X121542Y26298D03*
X126660D03*
X116424Y44604D03*
X121542D03*
X116424Y57203D03*
X121542D03*
X126660D03*
Y48346D03*
X124100Y50904D03*
X119272Y103734D03*
X122422Y97433D03*
X116123Y113183D03*
X116126Y122627D03*
X125571Y132079D03*
X119296Y138404D03*
X125571Y150977D03*
X116123Y147827D03*
X116900Y200800D03*
X126900D03*
X129800Y-10700D03*
X139800D03*
X139456Y19999D03*
X129219Y23149D03*
Y29448D03*
X136897Y32006D03*
Y23149D03*
X139456Y28856D03*
X136897Y45196D03*
X129219Y54053D03*
X139455D03*
X129219Y47754D03*
X138168Y87986D03*
X135019Y97435D03*
X128720Y113182D03*
X131871Y116333D03*
X131869Y106884D03*
X138168Y116331D03*
X135020Y128929D03*
Y119482D03*
X128721D03*
X131871Y125780D03*
X128721Y128929D03*
X131871Y132079D03*
X128721Y141528D03*
X135020Y154126D03*
X136900Y200800D03*
X149800Y-10700D03*
X144574Y19999D03*
X149692D03*
X144574Y28856D03*
X149692Y35156D03*
X144574D03*
X147132Y42046D03*
X142014Y50904D03*
Y57203D03*
X147132Y50904D03*
Y57203D03*
X147617Y91136D03*
X144467Y100585D03*
X150767Y113183D03*
X147617Y116333D03*
X141318D03*
X144467Y113183D03*
Y119482D03*
X150767D03*
X147617Y125780D03*
X150767Y128929D03*
X141318Y125780D03*
X144467Y128929D03*
X141318Y132079D03*
X147618Y132080D03*
X141318Y144677D03*
X150767Y147827D03*
X146043Y157043D03*
X146900Y200800D03*
X159800Y-10700D03*
X154810Y19999D03*
X160450Y16650D03*
Y18710D03*
X158320Y18820D03*
X158300Y16700D03*
X152251Y32006D03*
X162486Y28856D03*
X152251Y23149D03*
X157368Y35156D03*
X162486D03*
X152250Y42046D03*
X157368D03*
X162486D03*
X154809Y45196D03*
X162486Y50904D03*
X152250Y57203D03*
X154809Y54053D03*
X157368Y57203D03*
X153916Y103734D03*
X157066Y94285D03*
X160215Y106884D03*
X163365D03*
X160215Y110033D03*
X157066Y113183D03*
X160215Y116333D03*
X153916D03*
X163365Y119482D03*
X157066D03*
X160215Y125780D03*
X153916D03*
X157066Y128929D03*
X160215Y138378D03*
Y141528D03*
X163365D03*
X153916Y132079D03*
Y138378D03*
X160215Y150977D03*
X156900Y200800D03*
X169800Y-10700D03*
X172300Y87900D03*
X166465Y97485D03*
X166515Y106884D03*
X172814Y110033D03*
X166515Y113183D03*
X172814Y116333D03*
X166515Y119482D03*
Y128929D03*
X172480Y124206D03*
X172815Y132080D03*
X166515Y135229D03*
X172814Y138378D03*
X166515Y141528D03*
Y144677D03*
X169664D03*
X172814D03*
X172746Y159954D03*
Y158454D03*
X166900Y200800D03*
X179800Y-10700D03*
X176200Y33300D03*
Y31700D03*
Y34900D03*
X186502Y56960D03*
X178202Y60860D03*
X182102D03*
X178202Y68960D03*
X182302D03*
X185702Y73060D03*
X180200Y125700D03*
X180000Y132700D03*
X176900Y200800D03*
X186900D03*
X189800Y-10700D03*
X188700Y31700D03*
X193800Y31000D03*
X191275Y28575D03*
X193000Y34900D03*
X196000Y86970D03*
Y85170D03*
X195985Y121345D03*
X195970Y119760D03*
X195942Y118218D03*
X196900Y200800D03*
X199800Y-10700D03*
X209800D03*
X205880Y15370D03*
X208030Y33010D03*
X208480Y28300D03*
Y26800D03*
X208030Y31610D03*
X208480Y24900D03*
X208700Y69300D03*
X206480Y63580D03*
X208200Y73800D03*
X200500Y75400D03*
X200485Y71900D03*
X200500Y73600D03*
X210605Y89300D03*
X205205D03*
X207005D03*
X208805D03*
X201870Y109790D03*
X200280Y119870D03*
X200234Y118185D03*
X199946Y168854D03*
X201446D03*
X206900Y200800D03*
X219800Y-10700D03*
X222850Y44940D03*
X221100Y48230D03*
X212900Y69300D03*
X216500Y69500D03*
X222200D03*
X218246Y66300D03*
X215700Y73800D03*
X213200D03*
X217440Y87860D03*
X222690Y88090D03*
X221090Y96620D03*
X222690D03*
X219308Y106653D03*
X221070Y106720D03*
X219070Y110880D03*
X220730Y110930D03*
X222800Y157349D03*
X220930Y157340D03*
X216810Y166710D03*
X216900Y200800D03*
X229800Y-10700D03*
X227240Y45510D03*
X229160D03*
X226600Y59700D03*
X229300Y63400D03*
X230900Y63900D03*
X232500Y67200D03*
Y69200D03*
X230500Y67200D03*
Y69200D03*
X232500Y71700D03*
Y73700D03*
X230500Y71700D03*
Y73700D03*
Y75700D03*
X232200Y125400D03*
Y123800D03*
Y122200D03*
Y120600D03*
X224551Y157349D03*
X230660Y156510D03*
X226900Y200800D03*
X245000Y-9100D03*
Y45300D03*
Y43405D03*
Y51300D03*
Y49500D03*
X245400Y64500D03*
Y60000D03*
X241100Y71100D03*
X241300Y76900D03*
X245750Y88150D03*
X245000Y116000D03*
Y113700D03*
Y111600D03*
X240430Y111200D03*
X240530Y106759D03*
X245000Y118400D03*
X241600Y150700D03*
X241400Y147900D03*
X242267Y157900D03*
X236362Y158114D03*
X236400Y156300D03*
X239000Y156260D03*
X241330Y156210D03*
X243800Y199300D03*
X252300Y-5500D03*
X257500Y-2300D03*
X252700Y-100D03*
X258100Y45118D03*
Y56929D03*
X255541Y53647D03*
X247100Y65100D03*
X258100Y62835D03*
Y68740D03*
X247200Y71000D03*
X247300Y77100D03*
X258100Y74646D03*
Y80551D03*
X247100Y82800D03*
X252600Y110400D03*
X255200Y110500D03*
Y107800D03*
X252600Y107700D03*
X251755Y121355D03*
X249300Y141200D03*
X253950Y141190D03*
X254150Y151690D03*
X249500Y151700D03*
X249300Y148200D03*
X253950Y148190D03*
Y145190D03*
X249300Y145200D03*
X254078Y158114D03*
X248173D03*
X249500Y154700D03*
X254150Y154690D03*
X247500Y176700D03*
X249000Y168700D03*
X252500D03*
X247500Y179200D03*
X252700Y189100D03*
X252100Y195600D03*
X262300Y1100D03*
X263800Y30600D03*
Y28700D03*
X269700Y41600D03*
Y53200D03*
Y47400D03*
X268350Y64478D03*
X268400Y59900D03*
X270000Y65200D03*
X266790Y65890D03*
X270000Y71000D03*
X267510Y76830D03*
X269480Y76850D03*
X267860Y70940D03*
X262755Y121355D03*
X260300Y141200D03*
X264500Y151700D03*
X260500D03*
X260300Y148200D03*
X264300D03*
Y145200D03*
X260300D03*
X268300Y148200D03*
X259984Y158114D03*
X260500Y154700D03*
X264500D03*
Y157700D03*
X269400Y170700D03*
X261500Y189200D03*
X274700Y30500D03*
X277000Y30400D03*
Y28300D03*
X274700D03*
X278580Y77020D03*
X279470Y82550D03*
X277500Y99150D03*
X272700Y96400D03*
X277400Y120300D03*
X279100D03*
Y118500D03*
X277400D03*
X279300Y127200D03*
Y140200D03*
Y136200D03*
Y131200D03*
X272300Y148200D03*
X279300D03*
Y144200D03*
X275500Y158300D03*
X278000D03*
Y155900D03*
X275500Y156000D03*
X271600Y177700D03*
G54D21*
X169839Y174530D03*
G54D12*
X-42500Y-4500D03*
X-12500Y-8496D03*
Y-504D03*
G54D13*
X-43400Y51973D03*
G54D22*
X190102Y141546D03*
G54D23*
X229472Y30301D03*
G54D14*
X-35463Y12890D03*
Y35646D03*
G54D24*
G01X-49500Y37300D02*
X-49833Y37633D01*
G01X-9500Y4500D02*
X-5000Y0D01*
X0D01*
G54D15*
X-25000Y84290D03*
Y129290D03*
G54D25*
G01X-46889Y48484D02*
X-43400Y51973D01*
G01D02*
X-39911Y55462D01*
G01X-46889D02*
X-43400Y51973D01*
G01D02*
X-39911Y48484D01*
G01X6935Y126225D02*
X10000Y129290D01*
G01D02*
X13065Y132355D01*
G01X6935D02*
X10000Y129290D01*
G01D02*
X13065Y126225D01*
G01X20000Y-5000D02*
X23902Y-1098D01*
G01X16098D02*
X20000Y-5000D01*
G01X17041Y2041D02*
X20000Y5000D01*
G01D02*
X22959Y7959D01*
G01X17041D02*
X20000Y5000D01*
G01D02*
X22959Y2041D01*
G01X16098Y181098D02*
X20000Y185000D01*
G01D02*
X23902Y188902D01*
G01X20000Y185000D02*
X23902Y181098D01*
G01X17041Y192041D02*
X20000Y195000D01*
G01D02*
X22959Y192041D01*
G01X165687Y170378D02*
X169839Y174530D01*
G01D02*
X173991Y178682D01*
G01X165687D02*
X169839Y174530D01*
G01X220560Y21389D02*
X229472Y30301D01*
G01X220560Y39213D02*
X229472Y30301D01*
G01X230000Y-5000D02*
X232959Y-2041D01*
G01X227041D02*
X230000Y-5000D01*
G01X227041Y2041D02*
X230000Y5000D01*
G01D02*
X232959Y7959D01*
G01X230000Y5000D02*
X232959Y2041D01*
G01X229472Y30301D02*
X238384Y39213D01*
G01X229472Y30301D02*
X238384Y21389D01*
G01X240000Y-5000D02*
X242959Y-2041D01*
G01X237041D02*
X240000Y-5000D01*
G01X237041Y2041D02*
X240000Y5000D01*
G01D02*
X242959Y7959D01*
G01X237041D02*
X240000Y5000D01*
G01D02*
X242959Y2041D01*
G54D16*
X-12992Y75786D03*
Y137794D03*
G54D26*
G01X-54385Y10316D02*
X-49833Y7339D01*
G01X-54385Y38220D02*
X-49833Y41197D01*
G01X-54385Y44174D02*
X-49833Y41197D01*
G01Y7339D02*
X-45281Y10316D01*
G01X-49833Y7339D02*
X-45281Y4362D01*
G01X-7379Y-7379D02*
X0Y0D01*
G01X-7389Y197359D02*
X-10Y189980D01*
G01X0Y0D02*
X7379Y-7379D01*
G01X-10Y189980D02*
X7369Y197359D01*
G01X252621Y5121D02*
X260000Y12500D01*
G01X252621Y184879D02*
X260000Y177500D01*
G01Y12500D02*
X267379Y5121D01*
G01X260000Y177500D02*
X267379Y184879D01*
G01X260000Y177500D02*
X267379Y170121D01*
G54D17*
X0Y0D03*
X-10Y189980D03*
X260000Y12500D03*
Y177500D03*
G54D27*
G01X-32500Y-12500D02*
X232500D01*
G03X282500Y37500I0J50000D01*
G01Y152500D01*
G03X232500Y202500I-50000J0D01*
G01X-32500D01*
G03X-57500Y177500I0J-25000D01*
G01Y12500D01*
G03X-32500Y-12500I25000J0D01*
G54D18*
X10000Y129290D03*
X268843Y141546D03*
G54D19*
X20000Y-5000D03*
Y185000D03*
M02*
