G04 ================== begin FILE IDENTIFICATION RECORD ==================*
G04 Layout Name:  BEAGLEV FIRE_REV A_230911.brd*
G04 Film Name:    LAY8_PWR*
G04 File Format:  Gerber RS274X*
G04 File Origin:  Cadence Allegro 17.4-S031*
G04 Origin Date:  Tue Sep 26 15:21:01 2023*
G04 *
G04 Layer:  VIA CLASS/L8_PWR2*
G04 Layer:  PIN/L8_PWR2*
G04 Layer:  ETCH/L8_PWR2*
G04 Layer:  BOARD GEOMETRY/OUTLINE*
G04 *
G04 Offset:    (0.00 0.00)*
G04 Mirror:    No*
G04 Mode:      Positive*
G04 Rotation:  0*
G04 FullContactRelief:  No*
G04 UndefLineWidth:     5.00*
G04 ================== end FILE IDENTIFICATION RECORD ====================*
%FSLAX25Y25*MOIN*%
%IR0*IPPOS*OFA0.00000B0.00000*MIA0B0*SFA1.00000B1.00000*%
%ADD11C,.014*%
%ADD17C,.06*%
%ADD18C,.04331*%
%ADD13C,.02362*%
%ADD12C,.04724*%
%ADD19C,.06299*%
%ADD16C,.175*%
%ADD14C,.12795*%
%ADD10O,.06299X.0315*%
%ADD15O,.07874X.04331*%
%ADD20C,.02*%
%ADD21C,.024*%
%ADD22C,.004*%
%ADD23C,.005*%
%ADD24C,.0034*%
%ADD29C,.02004*%
%ADD25C,.02404*%
%ADD26C,.06504*%
%ADD27C,.07334*%
%ADD28C,.19538*%
G75*
%LPD*%
G75*
G36*
G01X-35500Y201500D02*
X233000D01*
X239500Y201000D01*
X244500Y200000D01*
X250500Y198000D01*
X255000Y196000D01*
X261500Y192000D01*
X268500Y185500D01*
X271000Y182500D01*
X273500Y178500D01*
Y172500D01*
X270000Y169000D01*
X266446D01*
G02X266197Y169713I0J400D01*
G03X269952Y177500I-6197J7787D01*
G03X260000Y187452I-9952J0D01*
G03X252213Y183697I0J-9952D01*
G02X251500Y183946I-313J249D01*
G01Y193000D01*
X249500Y195000D01*
X244500Y198000D01*
X244250Y198250D01*
X242000Y199000D01*
X238500Y199500D01*
X237000Y200000D01*
X10500D01*
X8500Y198000D01*
Y196414D01*
G02X7787Y196165I-400J0D01*
G03X-10Y199932I-7797J-6186D01*
G03X-7787Y196189I0J-9951D01*
G02X-8500Y196439I-313J249D01*
G01Y197500D01*
X-11000Y200000D01*
X-33500D01*
X-35500Y199500D01*
X-39000Y198000D01*
X-39500D01*
X-42500Y197000D01*
X-51000Y188500D01*
X-53000Y184500D01*
Y144910D01*
X-49620Y141530D01*
X-15960D01*
X-12700Y138270D01*
Y137050D01*
X-13250Y136500D01*
X-16470D01*
X-18040Y138070D01*
X-49430D01*
X-53000Y134500D01*
Y78040D01*
X-50420Y75460D01*
X-18120D01*
X-16080Y77500D01*
X-10500D01*
X-9455Y76455D01*
X-12300Y73610D01*
X-50240D01*
X-53000Y70850D01*
Y47500D01*
X-50156Y44656D01*
G02X-50439Y43974I-283J-282D01*
G01X-51408D01*
G03Y38420I0J-2777D01*
G01X-48258D01*
G03X-45685Y42240I0J2777D01*
G02X-45315Y42790I371J150D01*
G01X-32150D01*
X-30840Y41480D01*
Y40810D01*
X-32030Y39620D01*
X-41270D01*
X-44500Y36390D01*
Y12500D01*
X-40910Y8910D01*
X-32110D01*
X-30525Y7325D01*
Y6975D01*
X-31710Y5790D01*
X-42000D01*
X-44500Y3290D01*
Y-1194D01*
G03X-46364Y-4500I2000J-3306D01*
G03X-42500Y-8364I3864J0D01*
G03X-41936Y-8323I3J3864D01*
G01X-41873Y-8313D01*
X-40500Y-9000D01*
X-34500Y-10500D01*
X-20000D01*
X-17500Y-8000D01*
Y1000D01*
X-12500Y6000D01*
X-8706D01*
G02X-8370Y5384I-1J-400D01*
G03X-9553Y2791I8370J-5385D01*
G02X-10177Y2584I-384J112D01*
G03X-12500Y3360I-2323J-3089D01*
G03X-16364Y-504I0J-3864D01*
G03X-13848Y-4125I3864J0D01*
G02Y-4875I-140J-375D01*
G03X-16364Y-8496I1348J-3621D01*
G03X-15560Y-10856I3864J-1D01*
G02X-15876Y-11500I-317J-244D01*
G01X-35500D01*
X-37500Y-11000D01*
X-40000Y-10500D01*
X-43000Y-9500D01*
X-46000Y-7500D01*
X-47500Y-6000D01*
X-51500Y-1500D01*
X-53500Y2000D01*
X-55000Y5000D01*
X-56000Y9000D01*
X-56500Y10500D01*
Y180500D01*
X-55500Y184500D01*
X-54000Y188500D01*
X-52000Y191500D01*
X-49000Y195000D01*
X-46000Y197500D01*
X-43000Y199000D01*
X-40500Y200000D01*
X-37500Y201000D01*
X-35500Y201500D01*
G37*
G36*
G01X233232Y197100D02*
X236768D01*
G02X237122Y196514I0J-400D01*
G03X236748Y195000I2877J-1514D01*
G03X240000Y191748I3252J0D01*
G01X240001D01*
G03X242565Y193000I0J3252D01*
G02X243163Y193037I315J-246D01*
G01X246500Y189700D01*
Y179867D01*
G03Y178533I1000J-667D01*
G01Y177367D01*
G03Y176033I1000J-667D01*
G01Y171000D01*
X248049Y169451D01*
X247969Y169317D01*
G03X247798Y168700I1031J-618D01*
G03X249000Y167498I1202J0D01*
G03X249617Y167669I-1J1202D01*
G01X249751Y167749D01*
X257400Y160100D01*
X268700D01*
X275500Y153300D01*
Y99051D01*
G02X274850Y98739I-400J0D01*
G03X274100Y99002I-750J-938D01*
G03X272898Y97802I0J-1202D01*
G02X272698Y97602I-200J0D01*
G03X271498Y96400I2J-1202D01*
G03X273902I1202J0D01*
G03X273888Y96586I-1202J3D01*
G02X274398Y96201I110J-385D01*
G01Y96200D01*
G03X275343Y95026I1202J0D01*
G01X275500Y94991D01*
Y44400D01*
X258600Y27500D01*
X255116D01*
G03X253289Y28013I-1827J-2997D01*
G01X253287D01*
G03X252647Y27954I1J-3510D01*
G03X251521Y28736I-1126J-420D01*
G03X250319Y27534I0J-1202D01*
G03X250601Y26760I1203J0D01*
G03X249781Y24372I2687J-2258D01*
G03X248831Y23197I252J-1175D01*
G03X249221Y22311I1201J0D01*
G02X249233Y21733I-270J-295D01*
G01X233644Y6144D01*
G02X232993Y6271I-283J283D01*
G03X230000Y8252I-2993J-1270D01*
G03X226748Y5000I0J-3252D01*
G03X228729Y2007I3251J0D01*
G02X228856Y1356I-156J-368D01*
G01X223644Y-3856D01*
G02X222993Y-3729I-283J283D01*
G03X220000Y-1748I-2993J-1270D01*
G03X216748Y-5000I0J-3252D01*
G03X217035Y-6336I3253J0D01*
G02X216671Y-6900I-365J-164D01*
G01X213329D01*
G02X212965Y-6336I1J400D01*
G03X213252Y-5000I-2966J1336D01*
G03X206748I-3252J0D01*
G03X207035Y-6336I3253J0D01*
G02X206671Y-6900I-365J-164D01*
G01X203329D01*
G02X202965Y-6336I1J400D01*
G03X203252Y-5000I-2966J1336D01*
G03X196748I-3252J0D01*
G03X197035Y-6336I3253J0D01*
G02X196671Y-6900I-365J-164D01*
G01X193329D01*
G02X192965Y-6336I1J400D01*
G03X193252Y-5000I-2966J1336D01*
G03X186748I-3252J0D01*
G03X187035Y-6336I3253J0D01*
G02X186671Y-6900I-365J-164D01*
G01X183329D01*
G02X182965Y-6336I1J400D01*
G03X183252Y-5000I-2966J1336D01*
G03X176748I-3252J0D01*
G03X177035Y-6336I3253J0D01*
G02X176671Y-6900I-365J-164D01*
G01X173329D01*
G02X172965Y-6336I1J400D01*
G03X173252Y-5000I-2966J1336D01*
G03X166748I-3252J0D01*
G03X167035Y-6336I3253J0D01*
G02X166671Y-6900I-365J-164D01*
G01X163329D01*
G02X162965Y-6336I1J400D01*
G03X163252Y-5000I-2966J1336D01*
G03X156748I-3252J0D01*
G03X157035Y-6336I3253J0D01*
G02X156671Y-6900I-365J-164D01*
G01X153329D01*
G02X152965Y-6336I1J400D01*
G03X153252Y-5000I-2966J1336D01*
G03X146748I-3252J0D01*
G03X147035Y-6336I3253J0D01*
G02X146671Y-6900I-365J-164D01*
G01X143329D01*
G02X142965Y-6336I1J400D01*
G03X143252Y-5000I-2966J1336D01*
G03X136748I-3252J0D01*
G03X137035Y-6336I3253J0D01*
G02X136671Y-6900I-365J-164D01*
G01X133329D01*
G02X132965Y-6336I1J400D01*
G03X133252Y-5000I-2966J1336D01*
G03X126748I-3252J0D01*
G03X127035Y-6336I3253J0D01*
G02X126671Y-6900I-365J-164D01*
G01X123329D01*
G02X122965Y-6336I1J400D01*
G03X123252Y-5000I-2966J1336D01*
G03X116748I-3252J0D01*
G03X117035Y-6336I3253J0D01*
G02X116671Y-6900I-365J-164D01*
G01X113329D01*
G02X112965Y-6336I1J400D01*
G03X113252Y-5000I-2966J1336D01*
G03X106748I-3252J0D01*
G03X107035Y-6336I3253J0D01*
G02X106671Y-6900I-365J-164D01*
G01X103329D01*
G02X102965Y-6336I1J400D01*
G03X103252Y-5000I-2966J1336D01*
G03X96748I-3252J0D01*
G03X97035Y-6336I3253J0D01*
G02X96671Y-6900I-365J-164D01*
G01X93329D01*
G02X92965Y-6336I1J400D01*
G03X93252Y-5000I-2966J1336D01*
G03X86748I-3252J0D01*
G03X87035Y-6336I3253J0D01*
G02X86671Y-6900I-365J-164D01*
G01X83329D01*
G02X82965Y-6336I1J400D01*
G03X83252Y-5000I-2966J1336D01*
G03X76748I-3252J0D01*
G03X77035Y-6336I3253J0D01*
G02X76671Y-6900I-365J-164D01*
G01X73329D01*
G02X72965Y-6336I1J400D01*
G03X73252Y-5000I-2966J1336D01*
G03X66748I-3252J0D01*
G03X67035Y-6336I3253J0D01*
G02X66671Y-6900I-365J-164D01*
G01X63329D01*
G02X62965Y-6336I1J400D01*
G03X63252Y-5000I-2966J1336D01*
G03X56748I-3252J0D01*
G03X57035Y-6336I3253J0D01*
G02X56671Y-6900I-365J-164D01*
G01X53329D01*
G02X52965Y-6336I1J400D01*
G03X53252Y-5000I-2966J1336D01*
G03X46748I-3252J0D01*
G03X47035Y-6336I3253J0D01*
G02X46671Y-6900I-365J-164D01*
G01X43329D01*
G02X42965Y-6336I1J400D01*
G03X43252Y-5000I-2966J1336D01*
G03X36748I-3252J0D01*
G03X37035Y-6336I3253J0D01*
G02X36671Y-6900I-365J-164D01*
G01X23329D01*
G02X22965Y-6336I1J400D01*
G03X23252Y-5000I-2966J1336D01*
G03X20000Y-1748I-3252J0D01*
G03X16753Y-4812I0J-3252D01*
G02X16071Y-5071I-399J24D01*
G01X15800Y-4800D01*
Y8000D01*
X10700Y13100D01*
X6582D01*
G02X6182Y13505I0J400D01*
G01Y13520D01*
G03X3778I-1202J0D01*
G01Y13505D01*
G02X3378Y13100I-400J-5D01*
G01X1739D01*
G03X101I-819J-881D01*
G01X-8100D01*
X-17200Y4000D01*
X-17626D01*
G02X-18019Y4475I0J400D01*
G03X-17998Y4697I-1181J224D01*
G01Y4700D01*
G03X-20402I-1202J0D01*
G01Y4697D01*
G03X-20381Y4475I1202J2D01*
G02X-20774Y4000I-393J-75D01*
G01X-21900D01*
X-23900Y6000D01*
Y17087D01*
X-23803Y17145D01*
G03Y19207I-618J1031D01*
G01X-23900Y19265D01*
Y22387D01*
X-23885Y22423D01*
G03X-23798Y22873I-1116J449D01*
G01Y22887D01*
G03X-23885Y23337I-1203J1D01*
G01X-23900Y23373D01*
Y25087D01*
X-23885Y25123D01*
G03X-23798Y25573I-1116J449D01*
G01Y25587D01*
G03X-23885Y26037I-1203J1D01*
G01X-23900Y26073D01*
Y29361D01*
X-23803Y29419D01*
G03Y31481I-618J1031D01*
G01X-23900Y31539D01*
Y32250D01*
X-23716Y32447D01*
X-23645Y32456D01*
G03X-23000Y32751I-155J1192D01*
G03X-22200Y32446I800J897D01*
G03X-20998Y33648I0J1202D01*
G03X-21261Y34398I-1201J0D01*
G03X-20998Y35148I-938J750D01*
G03X-22200Y36350I-1202J0D01*
G03X-23000Y36045I0J-1202D01*
G03X-23645Y36340I-800J-897D01*
G01X-23716Y36349D01*
X-23900Y36546D01*
Y44700D01*
X-27100Y47900D01*
Y60900D01*
X-23000Y65000D01*
X-15773D01*
X-15728Y64975D01*
G03X-14570I579J1055D01*
G01X-14525Y65000D01*
X-11980D01*
G03X-11120Y64638I860J841D01*
G03X-10329Y64935I0J1202D01*
G03X-9550Y64648I779J914D01*
G03X-8781Y64926I0J1203D01*
G03X-8000Y64638I781J915D01*
G03X-6884Y65393I0J1202D01*
G01X-6869Y65431D01*
X-33Y72267D01*
G02X649Y72003I283J-283D01*
G03X981Y71230I1201J58D01*
G03X648Y70400I868J-830D01*
G03X3052I1202J0D01*
G03X2719Y71230I-1201J0D01*
G03X3052Y72060I-868J830D01*
G03X1907Y73261I-1202J0D01*
G02X1643Y73943I19J399D01*
G01X13400Y85700D01*
Y141400D01*
X9571Y145229D01*
X9621Y145352D01*
G03X9710Y145806I-1113J454D01*
G01Y145808D01*
G03X8508Y147010I-1202J0D01*
G03X7354Y146144I0J-1202D01*
G01X7312Y146000D01*
X4704D01*
X4662Y146144D01*
G03X2354I-1154J-336D01*
G01X2312Y146000D01*
X-5001D01*
X-5059Y146100D01*
G03X-7141I-1041J-599D01*
G01X-7199Y146000D01*
X-10771D01*
X-10806Y146157D01*
G03X-13154I-1174J-257D01*
G01X-13189Y146000D01*
X-13857D01*
G02X-14167Y146652I0J400D01*
G03X-13898Y147410I-933J758D01*
G03X-15100Y148612I-1202J0D01*
G03X-15950Y148260I0J-1202D01*
G03X-16800Y148612I-850J-850D01*
G03X-18002Y147410I0J-1202D01*
G03X-17733Y146652I1202J0D01*
G02X-18043Y146000I-310J-252D01*
G01X-37500D01*
X-39670Y148170D01*
G02X-39690Y148714I283J283D01*
G03X-39398Y149499I-910J785D01*
G01Y149500D01*
G03X-40600Y150702I-1202J0D01*
G03X-40750Y150693I-3J-1202D01*
G02X-41200Y151089I-50J397D01*
G01Y151511D01*
G02X-40750Y151907I400J-1D01*
G03X-40600Y151898I147J1193D01*
G03Y154302I0J1202D01*
G03X-40750Y154293I-3J-1202D01*
G02X-41200Y154689I-50J397D01*
G01Y155111D01*
G02X-40750Y155507I400J-1D01*
G03X-40600Y155498I147J1193D01*
G03Y157902I0J1202D01*
G03X-40750Y157893I-3J-1202D01*
G02X-41200Y158289I-50J397D01*
G01Y158711D01*
G02X-40750Y159107I400J-1D01*
G03X-40600Y159098I147J1193D01*
G03Y161502I0J1202D01*
G03X-40750Y161493I-3J-1202D01*
G02X-41200Y161889I-50J397D01*
G01Y162311D01*
G02X-40750Y162707I400J-1D01*
G03X-40600Y162698I147J1193D01*
G03Y165102I0J1202D01*
G03X-40750Y165093I-3J-1202D01*
G02X-41200Y165489I-50J397D01*
G01Y165911D01*
G02X-40750Y166307I400J-1D01*
G03X-40600Y166298I147J1193D01*
G03Y168702I0J1202D01*
G03X-40750Y168693I-3J-1202D01*
G02X-41200Y169089I-50J397D01*
G01Y169511D01*
G02X-40750Y169907I400J-1D01*
G03X-40600Y169898I147J1193D01*
G03Y172302I0J1202D01*
G03X-40750Y172293I-3J-1202D01*
G02X-41200Y172689I-50J397D01*
G01Y173111D01*
G02X-40750Y173507I400J-1D01*
G03X-40600Y173498I147J1193D01*
G03Y175902I0J1202D01*
G03X-40750Y175893I-3J-1202D01*
G02X-41200Y176289I-50J397D01*
G01Y176711D01*
G02X-40750Y177107I400J-1D01*
G03X-40600Y177098I147J1193D01*
G03Y179502I0J1202D01*
G03X-40750Y179493I-3J-1202D01*
G02X-41200Y179889I-50J397D01*
G01Y180311D01*
G02X-40750Y180707I400J-1D01*
G03X-40600Y180698I147J1193D01*
G03Y183102I0J1202D01*
G03X-40750Y183093I-3J-1202D01*
G02X-41200Y183489I-50J397D01*
G01Y183911D01*
G02X-40750Y184307I400J-1D01*
G03X-40600Y184298I147J1193D01*
G03Y186702I0J1202D01*
G03X-40750Y186693I-3J-1202D01*
G02X-41200Y187089I-50J397D01*
G01Y188300D01*
X-38700Y190800D01*
X-17042D01*
G03X-14958I1042J601D01*
G01X-10800D01*
X-10500Y190500D01*
Y182961D01*
G02X-11200Y182696I-400J0D01*
G03X-12100Y183102I-901J-796D01*
G03Y180698I0J-1202D01*
G03X-11200Y181104I-1J1202D01*
G02X-10500Y180839I300J-265D01*
G01Y180700D01*
X-6850Y177050D01*
X20150D01*
X26555Y183455D01*
G02X27184Y183373I283J-283D01*
G03X30000Y181748I2816J1627D01*
G03X33252Y185000I0J3252D01*
G03X31627Y187816I-3252J0D01*
G02X31545Y188445I201J346D01*
G01X36555Y193455D01*
G02X37184Y193373I283J-283D01*
G03X40000Y191748I2816J1627D01*
G03X43252Y195000I0J3252D01*
G03X42878Y196514I-3251J0D01*
G02X43232Y197100I354J186D01*
G01X46768D01*
G02X47122Y196514I0J-400D01*
G03X46748Y195000I2877J-1514D01*
G03X53252I3252J0D01*
G03X52878Y196514I-3251J0D01*
G02X53232Y197100I354J186D01*
G01X56768D01*
G02X57122Y196514I0J-400D01*
G03X56748Y195000I2877J-1514D01*
G03X63252I3252J0D01*
G03X62878Y196514I-3251J0D01*
G02X63232Y197100I354J186D01*
G01X66768D01*
G02X67122Y196514I0J-400D01*
G03X66748Y195000I2877J-1514D01*
G03X73252I3252J0D01*
G03X72878Y196514I-3251J0D01*
G02X73232Y197100I354J186D01*
G01X76768D01*
G02X77122Y196514I0J-400D01*
G03X76748Y195000I2877J-1514D01*
G03X83252I3252J0D01*
G03X82878Y196514I-3251J0D01*
G02X83232Y197100I354J186D01*
G01X86768D01*
G02X87122Y196514I0J-400D01*
G03X86748Y195000I2877J-1514D01*
G03X93252I3252J0D01*
G03X92878Y196514I-3251J0D01*
G02X93232Y197100I354J186D01*
G01X96768D01*
G02X97122Y196514I0J-400D01*
G03X96748Y195000I2877J-1514D01*
G03X103252I3252J0D01*
G03X102878Y196514I-3251J0D01*
G02X103232Y197100I354J186D01*
G01X106768D01*
G02X107122Y196514I0J-400D01*
G03X106748Y195000I2877J-1514D01*
G03X113252I3252J0D01*
G03X112878Y196514I-3251J0D01*
G02X113232Y197100I354J186D01*
G01X116768D01*
G02X117122Y196514I0J-400D01*
G03X116748Y195000I2877J-1514D01*
G03X123252I3252J0D01*
G03X122878Y196514I-3251J0D01*
G02X123232Y197100I354J186D01*
G01X126768D01*
G02X127122Y196514I0J-400D01*
G03X126748Y195000I2877J-1514D01*
G03X133252I3252J0D01*
G03X132878Y196514I-3251J0D01*
G02X133232Y197100I354J186D01*
G01X136768D01*
G02X137122Y196514I0J-400D01*
G03X136748Y195000I2877J-1514D01*
G03X143252I3252J0D01*
G03X142878Y196514I-3251J0D01*
G02X143232Y197100I354J186D01*
G01X146768D01*
G02X147122Y196514I0J-400D01*
G03X146748Y195000I2877J-1514D01*
G03X153252I3252J0D01*
G03X152878Y196514I-3251J0D01*
G02X153232Y197100I354J186D01*
G01X156768D01*
G02X157122Y196514I0J-400D01*
G03X156748Y195000I2877J-1514D01*
G03X163252I3252J0D01*
G03X162878Y196514I-3251J0D01*
G02X163232Y197100I354J186D01*
G01X166768D01*
G02X167122Y196514I0J-400D01*
G03X166748Y195000I2877J-1514D01*
G03X173252I3252J0D01*
G03X172878Y196514I-3251J0D01*
G02X173232Y197100I354J186D01*
G01X176768D01*
G02X177122Y196514I0J-400D01*
G03X176748Y195000I2877J-1514D01*
G03X183252I3252J0D01*
G03X182878Y196514I-3251J0D01*
G02X183232Y197100I354J186D01*
G01X186768D01*
G02X187122Y196514I0J-400D01*
G03X186748Y195000I2877J-1514D01*
G03X193252I3252J0D01*
G03X192878Y196514I-3251J0D01*
G02X193232Y197100I354J186D01*
G01X196768D01*
G02X197122Y196514I0J-400D01*
G03X196748Y195000I2877J-1514D01*
G03X203252I3252J0D01*
G03X202878Y196514I-3251J0D01*
G02X203232Y197100I354J186D01*
G01X206768D01*
G02X207122Y196514I0J-400D01*
G03X206748Y195000I2877J-1514D01*
G03X213252I3252J0D01*
G03X212878Y196514I-3251J0D01*
G02X213232Y197100I354J186D01*
G01X216768D01*
G02X217122Y196514I0J-400D01*
G03X216748Y195000I2877J-1514D01*
G03X223252I3252J0D01*
G03X222878Y196514I-3251J0D01*
G02X223232Y197100I354J186D01*
G01X226768D01*
G02X227122Y196514I0J-400D01*
G03X226748Y195000I2877J-1514D01*
G03X233252I3252J0D01*
G03X232878Y196514I-3251J0D01*
G02X233232Y197100I354J186D01*
G37*
G36*
G01X251500Y6054D02*
G02X252213Y6303I400J0D01*
G03X260000Y2548I7787J6197D01*
G03X267306Y5743I0J9951D01*
G02X268000Y5471I294J-271D01*
G01Y4000D01*
X264000Y500D01*
X261500Y-1500D01*
X255500Y-5500D01*
X251000Y-7500D01*
X247500Y-9000D01*
X245000Y-10000D01*
X241500Y-10500D01*
X239500Y-11000D01*
X238500D01*
X237000Y-11500D01*
X-9124D01*
G02X-9440Y-10856I1J400D01*
G03X-8636Y-8496I-3060J2359D01*
G03X-11152Y-4875I-3864J0D01*
G02Y-4125I140J375D01*
G03X-9936Y-3395I-1347J3622D01*
G02X-9297Y-3551I266J-299D01*
G03X0Y-9952I9297J3551D01*
G03X7787Y-6197I0J9952D01*
G02X8500Y-6446I313J-249D01*
G01Y-9500D01*
X9000Y-10000D01*
X237500D01*
X243500Y-9000D01*
X245000Y-8000D01*
X251500Y-1500D01*
Y6054D01*
G37*
%LPC*%
G75*
G36*
G01X-51408Y10116D02*
X-48258D01*
G02Y4562I0J-2777D01*
G01X-51408D01*
G02Y10116I0J2777D01*
G37*
G36*
G01X-13801Y175136D02*
G02X-14100Y175098I-300J1164D01*
G02X-12898Y176300I0J1202D01*
G02X-12899Y176264I-1202J15D01*
G03X-12399Y175864I400J-13D01*
G02X-12100Y175902I300J-1164D01*
G02X-13302Y174700I0J-1202D01*
G02X-13301Y174736I1202J-15D01*
G03X-13801Y175136I-400J13D01*
G37*
G36*
G01X208408Y175914D02*
G02X208404Y176014I1198J98D01*
G02X209606Y174812I1202J0D01*
G02X209326Y174845I0J1202D01*
G03X208835Y174423I-92J-389D01*
G02X208839Y174323I-1198J-98D01*
G02X208493Y173479I-1202J0D01*
G03Y173198I142J-141D01*
G02X208839Y172354I-856J-844D01*
G02X208796Y172036I-1202J1D01*
G03X209288Y171544I386J-106D01*
G02X209606Y171587I319J-1159D01*
G02X210808Y170385I0J-1202D01*
G02X210480Y169560I-1202J0D01*
G03X210603Y168922I291J-275D01*
G02X211292Y167986I-503J-1092D01*
G03X211492Y167812I198J26D01*
G01X211500D01*
G02X211708Y167794I1J-1202D01*
G03X211933Y167931I34J197D01*
G02X213080Y168772I1147J-362D01*
G02Y166368I0J-1202D01*
G02X212872Y166386I-1J1202D01*
G03X212647Y166249I-34J-197D01*
G02X211500Y165408I-1147J362D01*
G02X210308Y166454I0J1202D01*
G03X210108Y166628I-198J-26D01*
G01X210100D01*
G02X208898Y167830I0J1202D01*
G02X209226Y168655I1202J0D01*
G03X209103Y169293I-291J275D01*
G02X208762Y169529I503J1092D01*
G03X208481I-140J-142D01*
G02X206793I-844J856D01*
G03X206513I-140J-143D01*
G02X204825I-844J856D01*
G03X204544I-140J-142D01*
G02X203700Y169183I-844J856D01*
G02X203210Y169288I1J1202D01*
G03X202647Y168905I-163J-365D01*
G02X202648Y168854I-1201J-49D01*
G02X201446Y167652I-1202J0D01*
G02X200696Y167915I0J1201D01*
G02X199946Y167652I-750J938D01*
G02Y170056I0J1202D01*
G02X200696Y169793I0J-1201D01*
G02X201446Y170056I750J-938D01*
G02X201936Y169951I-1J-1202D01*
G03X202499Y170334I163J365D01*
G02X202498Y170385I1201J49D01*
G02X203700Y171587I1202J0D01*
G02X204018Y171544I-1J-1202D01*
G03X204510Y172036I106J386D01*
G02X204467Y172354I1159J319D01*
G02X204510Y172672I1202J-1D01*
G03X204018Y173164I-386J106D01*
G02X203700Y173121I-319J1159D01*
G02X204902Y174323I0J1202D01*
G02X204859Y174005I-1202J1D01*
G03X205351Y173513I386J-106D01*
G02X205669Y173556I319J-1159D01*
G02X205986Y173513I-2J-1202D01*
G03X206478Y174005I106J386D01*
G02X206435Y174323I1159J319D01*
G02X207637Y175525I1202J0D01*
G02X207917Y175492I0J-1202D01*
G03X208408Y175914I92J389D01*
G37*
G36*
G01X231158Y171527D02*
G02X230160Y170995I-998J670D01*
G02Y173399I0J1202D01*
G02X231158Y172867I0J-1202D01*
G03X231822I332J223D01*
G02X232820Y173399I998J-670D01*
G02Y170995I0J-1202D01*
G02X231822Y171527I0J1202D01*
G03X231158I-332J-223D01*
G37*
G36*
G01X-20083Y162741D02*
G02X-20400Y162698I-319J1159D01*
G02X-19198Y163900I0J1202D01*
G02X-19241Y163583I-1202J2D01*
G03X-18749Y163091I386J-106D01*
G02X-18432Y163134I319J-1159D01*
G02X-19634Y161932I0J-1202D01*
G02X-19591Y162249I1202J-2D01*
G03X-20083Y162741I-386J106D01*
G37*
G36*
G01X62076Y159330D02*
G02X61652Y159253I-423J1125D01*
G02Y161657I0J1202D01*
G02X62840Y160638I0J-1202D01*
G03X63376Y160325I395J61D01*
G02X63800Y160402I423J-1125D01*
G02Y157998I0J-1202D01*
G02X62612Y159017I0J1202D01*
G03X62076Y159330I-395J-61D01*
G37*
G36*
G01X-13301Y160339D02*
G02X-12100Y161502I1201J-39D01*
G02Y159098I0J-1202D01*
G02X-12399Y159136I1J1202D01*
G03X-12899Y158761I-100J-387D01*
G02X-14100Y157598I-1201J39D01*
G02Y160002I0J1202D01*
G02X-13801Y159964I-1J-1202D01*
G03X-13301Y160339I100J387D01*
G37*
G36*
G01X234746Y158378D02*
G03X235259Y158591I146J372D01*
G02X236362Y159316I1103J-477D01*
G02X237564Y158114I0J-1202D01*
G02X237295Y157356I-1202J0D01*
G03X237300Y157097I155J-127D01*
G02X237386Y156987I-902J-794D01*
G03X238035Y156977I328J229D01*
G02X239000Y157462I965J-718D01*
G02X239892Y157066I0J-1203D01*
G03X240474Y157053I297J268D01*
G02X240970Y157357I857J-842D01*
G03X241104Y157598I-60J191D01*
G02X241065Y157900I1163J304D01*
G02X242267Y159102I1202J0D01*
G02X243467Y157970I0J-1202D01*
G03X243825Y157596I399J24D01*
G02X244902Y156400I-126J-1196D01*
G02X243700Y155198I-1202J0D01*
G02X242875Y155526I0J1202D01*
G03X242284Y155478I-274J-291D01*
G02X241330Y155008I-954J733D01*
G02X240438Y155404I0J1203D01*
G03X239856Y155417I-297J-268D01*
G02X239000Y155058I-857J843D01*
G02X238014Y155573I0J1201D01*
G03X237365Y155583I-328J-229D01*
G02X236400Y155098I-965J718D01*
G02X235267Y155899I0J1202D01*
G03X234745Y156138I-377J-134D01*
G02X234696Y156120I-439J1119D01*
G03X234469Y155559I129J-379D01*
G02X234602Y155012I-1069J-550D01*
G03X234802Y154812I200J0D01*
G02X236002Y153610I-2J-1202D01*
G02X234800Y152408I-1202J0D01*
G02X233598Y153608I0J1202D01*
G03X233398Y153808I-200J0D01*
G02X232198Y155010I2J1202D01*
G02X232333Y155563I1202J0D01*
G03X232110Y156124I-355J184D01*
G02X232033Y156154I398J1134D01*
G03X231769Y156047I-79J-184D01*
G02X230660Y155308I-1109J463D01*
G02X229573Y155996I0J1203D01*
G03X229306Y156092I-181J-85D01*
G02X228790Y155975I-517J1085D01*
G02X228018Y156255I-1J1202D01*
G03X227762I-128J-153D01*
G02X226990Y155975I-771J922D01*
G02X226020Y156467I0J1202D01*
G03X225411Y156510I-323J-237D01*
G02X224551Y156147I-861J839D01*
G02X223800Y156410I-1J1202D01*
G03X223551I-124J-156D01*
G02X222800Y156147I-750J939D01*
G02X222003Y156450I1J1202D01*
G03X221736Y156448I-132J-150D01*
G02X220930Y156138I-806J893D01*
G02Y158542I0J1202D01*
G02X221727Y158239I-1J-1202D01*
G03X221994Y158241I132J150D01*
G02X222800Y158551I806J-893D01*
G02X223551Y158288I1J-1202D01*
G03X223800I124J156D01*
G02X224551Y158551I750J-939D01*
G02X225521Y158059I0J-1202D01*
G03X226130Y158016I323J237D01*
G02X226990Y158379I861J-839D01*
G02X227762Y158099I1J-1202D01*
G03X228018I128J153D01*
G02X228790Y158379I771J-922D01*
G02X229877Y157691I0J-1203D01*
G03X230144Y157595I181J85D01*
G02X230660Y157712I517J-1085D01*
G02X231136Y157614I1J-1202D01*
G03X231400Y157721I79J184D01*
G02X232509Y158460I1109J-463D01*
G02X233281Y158180I1J-1202D01*
G03X233537I128J153D01*
G02X234309Y158460I771J-922D01*
G02X234746Y158378I1J-1202D01*
G37*
G36*
G01X44359Y158636D02*
G02X45334Y159136I975J-701D01*
G02X46272Y158686I0J-1203D01*
G03X46896I312J250D01*
G02X47834Y159136I938J-753D01*
G02Y156732I0J-1202D01*
G02X46896Y157182I0J1203D01*
G03X46272I-312J-250D01*
G02X45334Y156732I-938J753D01*
G02X44359Y157232I0J1201D01*
G03X43709I-325J-234D01*
G02X42734Y156732I-975J701D01*
G02Y159136I0J1202D01*
G02X43709Y158636I0J-1201D01*
G03X44359I325J234D01*
G37*
G36*
G01X41795Y150184D02*
G02X41532Y150934I938J750D01*
G02X42734Y152136I1202J0D01*
G02X43672Y151686I0J-1203D01*
G03X44296I312J250D01*
G02X45234Y152136I938J-753D01*
G02X46436Y150934I0J-1202D01*
G02X46173Y150184I-1201J0D01*
G03Y149684I313J-250D01*
G02X46436Y148934I-938J-750D01*
G02X45234Y147732I-1202J0D01*
G02X44296Y148182I0J1203D01*
G03X43672I-312J-250D01*
G02X42734Y147732I-938J753D01*
G02X41532Y148934I0J1202D01*
G02X41795Y149684I1201J0D01*
G03Y150184I-313J250D01*
G37*
G36*
G01X95781Y143984D02*
G02X94800Y143476I-981J693D01*
G02Y145880I0J1202D01*
G02X95769Y145389I0J-1202D01*
G03X96419Y145394I323J236D01*
G02X97400Y145902I981J-693D01*
G02Y143498I0J-1202D01*
G02X96431Y143989I0J1202D01*
G03X95781Y143984I-323J-236D01*
G37*
G36*
G01X165485Y140908D02*
G02X165313Y141528I1030J620D01*
G02X167717I1202J0D01*
G02X167545Y140908I-1202J0D01*
G03X167887Y140302I342J-206D01*
G01X185415D01*
X190102Y135615D01*
Y118440D01*
X190216Y118386D01*
G02Y116214I-517J-1086D01*
G01X190102Y116160D01*
Y106915D01*
X193215Y103802D01*
X202515D01*
X204902Y101415D01*
Y92185D01*
X202301Y89584D01*
G03X202583Y88902I283J-282D01*
G01X203115D01*
X209702Y82315D01*
Y69965D01*
G02X209902Y69300I-1002J-664D01*
G02X209702Y68635I-1202J-1D01*
G01Y60715D01*
X210115Y60302D01*
X215785D01*
X222885Y67402D01*
X229306D01*
X229348Y67544D01*
G02X229561Y67950I1151J-345D01*
G03Y68450I-313J250D01*
G02X229298Y69200I938J750D01*
G02X229748Y70138I1203J0D01*
G03Y70762I-250J312D01*
G02X229298Y71700I753J938D01*
G02X229561Y72450I1201J0D01*
G03Y72950I-313J250D01*
G02Y74450I938J750D01*
G03Y74950I-313J250D01*
G02X229298Y75700I938J750D01*
G02X231702I1202J0D01*
G02X231342Y74843I-1202J1D01*
G03Y74557I141J-143D01*
G02X231357Y74542I-842J-857D01*
G03X231643I143J141D01*
G02X232500Y74902I858J-842D01*
G02X233702Y73700I0J-1202D01*
G02X233439Y72950I-1201J0D01*
G03Y72450I313J-250D01*
G02X233702Y71700I-938J-750D01*
G02X233252Y70762I-1203J0D01*
G03Y70138I250J-312D01*
G02X233702Y69200I-753J-938D01*
G02X233439Y68450I-1201J0D01*
G03Y67950I313J-250D01*
G02X233702Y67200I-938J-750D01*
G02X232500Y65998I-1202J0D01*
G02X231750Y66261I0J1201D01*
G03X231250I-250J-313D01*
G02X231211Y66231I-752J937D01*
G01X231199Y66222D01*
X231047Y66070D01*
X234602Y62515D01*
Y54485D01*
X229365Y49248D01*
G03X229504Y48592I283J-283D01*
G02X230273Y47471I-433J-1121D01*
G02X229967Y46669I-1202J-1D01*
G03X229979Y46390I149J-133D01*
G02X230362Y45510I-819J-880D01*
G02X229160Y44308I-1202J0D01*
G02X228337Y44634I0J1202D01*
G03X228063I-137J-146D01*
G02X227240Y44308I-823J876D01*
G02X226557Y44521I0J1202D01*
G03X225938Y44271I-227J-329D01*
G02X224760Y43308I-1178J239D01*
G02X223752Y43855I0J1202D01*
G03X223480Y43916I-167J-109D01*
G02X222850Y43738I-630J1024D01*
G02X221920Y44179I0J1201D01*
G03X221650Y44216I-155J-127D01*
G02X220960Y43998I-690J983D01*
G02Y46402I0J1202D01*
G02X221890Y45961I0J-1201D01*
G03X222160Y45924I155J127D01*
G02X222850Y46142I690J-983D01*
G02X223858Y45595I0J-1202D01*
G03X224130Y45534I167J109D01*
G02X224190Y45568I622J-1028D01*
G03X224350Y46115I-189J352D01*
G02X224198Y46700I1050J585D01*
G02X225400Y47902I1202J0D01*
G02X225747Y47851I1J-1202D01*
G03X226214Y48043I116J383D01*
G02X226291Y48167I1058J-571D01*
G03X225965Y48798I-326J231D01*
G01X222693D01*
G03X222295Y48356I0J-400D01*
G02X222302Y48230I-1195J-130D01*
G02X221100Y47028I-1202J0D01*
G02X220364Y47280I0J1201D01*
G03X219864Y47272I-245J-316D01*
G02X219100Y46998I-764J928D01*
G02X217898Y48200I0J1202D01*
G02X217907Y48349I1202J2D01*
G03X217510Y48798I-397J49D01*
G01X214915D01*
X201865Y35748D01*
X201159D01*
G03X200820Y35137I0J-400D01*
G02X201002Y34500I-1020J-636D01*
G02X198598I-1202J0D01*
G02X198780Y35137I1202J1D01*
G03X198441Y35748I-339J211D01*
G01X194538D01*
G03X194154Y35237I0J-400D01*
G02X194202Y34900I-1154J-336D01*
G02X191798I-1202J0D01*
G02X191846Y35237I1202J1D01*
G03X191462Y35748I-384J111D01*
G01X190865D01*
X188680Y33563D01*
G03X188897Y32886I283J-283D01*
G02X189902Y31700I-197J-1186D01*
G02X188700Y30498I-1202J0D01*
G02X188326Y30558I1J1202D01*
G03X187802Y30178I-124J-380D01*
G01Y21685D01*
X186169Y20052D01*
X186238Y19922D01*
G02X186377Y19360I-1063J-561D01*
G02X185175Y18158I-1202J0D01*
G02X184613Y18297I-1J1202D01*
G01X184483Y18366D01*
X181515Y15398D01*
X147085D01*
X147084Y15400D01*
X127688D01*
G03X127341Y14800I0J-400D01*
G02X127502Y14200I-1041J-601D01*
G02X125098I-1202J0D01*
G02X125259Y14800I1202J-1D01*
G03X124912Y15400I-347J200D01*
G01X122688D01*
G03X122341Y14800I0J-400D01*
G02X122502Y14200I-1041J-601D01*
G02X120098I-1202J0D01*
G02X120259Y14800I1202J-1D01*
G03X119912Y15400I-347J200D01*
G01X117716D01*
X117715Y15398D01*
X117689D01*
G03X117342Y14799I0J-400D01*
G02X117502Y14200I-1041J-599D01*
G02X115098I-1202J0D01*
G02X115258Y14799I1201J0D01*
G03X114911Y15398I-347J199D01*
G01X112689D01*
G03X112342Y14799I0J-400D01*
G02X112502Y14200I-1041J-599D01*
G02X110098I-1202J0D01*
G02X110258Y14799I1201J0D01*
G03X109911Y15398I-347J199D01*
G01X107689D01*
G03X107342Y14799I0J-400D01*
G02X107502Y14200I-1041J-599D01*
G02X105098I-1202J0D01*
G02X105258Y14799I1201J0D01*
G03X104911Y15398I-347J199D01*
G01X102689D01*
G03X102342Y14799I0J-400D01*
G02X102502Y14200I-1041J-599D01*
G02X100098I-1202J0D01*
G02X100258Y14799I1201J0D01*
G03X99994Y15390I-347J200D01*
G01X95876Y19507D01*
X95785Y19501D01*
G02X95700Y19498I-85J1199D01*
G02X94498Y20700I0J1202D01*
G02X94501Y20785I1202J0D01*
G01X94507Y20876D01*
X90385Y24998D01*
X90302D01*
G02X89098Y26202I-2J1202D01*
G01Y26285D01*
X78189Y37195D01*
X78103Y37192D01*
X78069D01*
G02X76867Y38394I0J1202D01*
G02X77398Y39392I1203J0D01*
G01Y82492D01*
X77242Y82526D01*
G02X76298Y83700I258J1174D01*
G02X76561Y84450I1201J0D01*
G03Y84950I-313J250D01*
G02X76298Y85700I938J750D01*
G02X78702I1202J0D01*
G02X78439Y84950I-1201J0D01*
G03Y84450I313J-250D01*
G02X78522Y84333I-937J-753D01*
G03X79145Y84261I340J211D01*
G01X83098Y88215D01*
Y126910D01*
G03X82649Y127307I-400J0D01*
G02X82500Y127298I-147J1193D01*
G01X82492D01*
G03X82093Y126849I-2J-400D01*
G02X82102Y126700I-1193J-147D01*
G02X79698I-1202J0D01*
G02X79748Y127042I1202J-1D01*
G03X79548Y127299I-192J57D01*
G02X79500Y127298I-49J1201D01*
G02X79387Y127303I-3J1202D01*
G03X79173Y127061I-19J-199D01*
G02X79202Y126800I-1173J-262D01*
G02X76798I-1202J0D01*
G02X77926Y128000I1202J0D01*
G03X78300Y128424I-25J399D01*
G02X78298Y128500I1200J70D01*
G02X80702I1202J0D01*
G02X80692Y128343I-1202J-2D01*
G03X81041Y127894I396J-52D01*
G02X81126Y127881I-139J-1194D01*
G03X81354Y128137I37J196D01*
G02X81298Y128500I1146J363D01*
G02X82500Y129702I1202J0D01*
G02X82649Y129693I2J-1202D01*
G03X83098Y130090I49J397D01*
G01Y134615D01*
X85085Y136602D01*
X89749D01*
G03X90136Y137102I0J400D01*
G02X90098Y137403I1164J300D01*
G02X91300Y138605I1202J0D01*
G02X91387Y138602I2J-1202D01*
G03X91601Y138787I15J199D01*
G02X92800Y139905I1199J-84D01*
G02X93946Y139066I0J-1202D01*
G03X94383Y138790I382J120D01*
G02X94550Y138802I169J-1190D01*
G02X95752Y137600I0J-1202D01*
G02X95665Y137151I-1202J0D01*
G03X96036Y136602I371J-149D01*
G01X114515D01*
X115014Y136102D01*
G03X115294Y136099I142J142D01*
G02X116123Y136431I829J-869D01*
G02X117325Y135229I0J-1202D01*
G02X116993Y134400I-1201J0D01*
G01X116858Y134258D01*
X118302Y132815D01*
X118443Y132949D01*
G02X119272Y133281I829J-869D01*
G02Y130877I0J-1202D01*
G02X118844Y130956I1J1202D01*
G03X118302Y130582I-142J-374D01*
G01Y130426D01*
G03X118844Y130052I400J0D01*
G02X119272Y130131I429J-1123D01*
G02Y127727I0J-1202D01*
G02X118844Y127806I1J1202D01*
G03X118302Y127432I-142J-374D01*
G01Y127277D01*
G03X118844Y126903I400J0D01*
G02X119272Y126982I429J-1123D01*
G02Y124578I0J-1202D01*
G02X118844Y124657I1J1202D01*
G03X118302Y124283I-142J-374D01*
G01Y119715D01*
X119615Y118402D01*
X120972D01*
G03X121334Y118971I0J400D01*
G02X121220Y119482I1088J511D01*
G02X123624I1202J0D01*
G02X123510Y118971I-1202J0D01*
G03X123872Y118402I362J-169D01*
G01X127271D01*
G03X127633Y118971I0J400D01*
G02X127519Y119482I1088J511D01*
G02X129923I1202J0D01*
G02X129809Y118971I-1202J0D01*
G03X130171Y118402I362J-169D01*
G01X130421D01*
G03X130783Y118971I0J400D01*
G02X130669Y119482I1088J511D01*
G02X133073I1202J0D01*
G02X132959Y118971I-1202J0D01*
G03X133321Y118402I362J-169D01*
G01X133570D01*
G03X133932Y118971I0J400D01*
G02X133818Y119482I1088J511D01*
G02X136222I1202J0D01*
G02X136108Y118971I-1202J0D01*
G03X136470Y118402I362J-169D01*
G01X136717D01*
G03X137079Y118971I0J400D01*
G02X136966Y119481I1089J509D01*
G02X139370I1202J0D01*
G02X139257Y118971I-1202J-1D01*
G03X139619Y118402I362J-169D01*
G01X140115D01*
X141015Y117501D01*
X141117Y117518D01*
G02X141318Y117535I201J-1185D01*
G02X142520Y116333I0J-1202D01*
G02X142503Y116132I-1202J0D01*
G01X142486Y116030D01*
X142815Y115702D01*
X143333D01*
Y115933D01*
X143323Y115963D01*
G02X143265Y116333I1144J369D01*
G02X145669I1202J0D01*
G02X145656Y116159I-1202J2D01*
G03X146052Y115702I396J-57D01*
G01X146483D01*
Y115933D01*
X146473Y115963D01*
G02X146415Y116333I1144J369D01*
G02X148819I1202J0D01*
G02X148806Y116159I-1202J2D01*
G03X149202Y115702I396J-57D01*
G01X149633D01*
Y115933D01*
X149623Y115963D01*
G02X149565Y116333I1144J369D01*
G02X151969I1202J0D01*
G02X151956Y116159I-1202J2D01*
G03X152352Y115702I396J-57D01*
G01X152782D01*
Y115933D01*
X152772Y115963D01*
G02X152714Y116333I1144J369D01*
G02X155118I1202J0D01*
G02X155105Y116159I-1202J2D01*
G03X155501Y115702I396J-57D01*
G01X155932D01*
Y115933D01*
X155922Y115963D01*
G02X155864Y116333I1144J369D01*
G02X158268I1202J0D01*
G02X157128Y115133I-1202J0D01*
G03X156866Y114450I21J-400D01*
G01X156935Y114381D01*
X157022Y114384D01*
G02X157066Y114385I49J-1201D01*
G02X158268Y113183I0J-1202D01*
G02X158263Y113077I-1202J4D01*
G03X159015Y113246I352J190D01*
G02X159398Y114065I1200J-62D01*
G01Y115451D01*
G02Y117215I818J882D01*
G01Y118600D01*
G02Y120364I818J882D01*
G01Y124898D01*
G02Y126662I818J882D01*
G01Y128047D01*
G02Y129811I818J882D01*
G01Y131197D01*
G02Y132961I818J882D01*
G01Y134347D01*
G02X159013Y135229I818J882D01*
G02X159670Y136300I1201J0D01*
G01X159699Y136315D01*
X159967Y136584D01*
G03X159817Y137244I-283J283D01*
G02X159013Y138378I398J1134D01*
G02X160215Y139580I1202J0D01*
G02X161349Y138776I0J-1202D01*
G03X162009Y138626I377J133D01*
G01X162280Y138896D01*
X162294Y138925D01*
G02X162818Y139449I1071J-547D01*
G01X162847Y139463D01*
X163117Y139734D01*
G03X162967Y140394I-283J283D01*
G02X162163Y141528I398J1134D01*
G02X164567I1202J0D01*
G02X164395Y140908I-1202J0D01*
G03X164737Y140302I342J-206D01*
G01X165143D01*
G03X165485Y140908I0J400D01*
G37*
G36*
G01X248221Y140670D02*
G02X248098Y141200I1080J530D01*
G02X249300Y139998I1202J0D01*
G02X249178Y140004I-2J1202D01*
G03X248779Y139430I-40J-398D01*
G02X248902Y138900I-1080J-530D01*
G02X247700Y140102I-1202J0D01*
G02X247822Y140096I2J-1202D01*
G03X248221Y140670I40J398D01*
G37*
G36*
G01X31982Y139996D02*
G02X31532Y140934I753J938D01*
G02X32734Y142136I1202J0D01*
G02X33802Y141486I0J-1202D01*
G03X34493Y141454I355J184D01*
G02X35505Y142007I1012J-649D01*
G02X36371Y141638I0J-1201D01*
G03X36652Y141631I144J139D01*
G02X37475Y141957I823J-876D01*
G02X38319Y141610I-1J-1202D01*
G03X38601I141J143D01*
G02X39445Y141957I845J-855D01*
G02X40263Y141635I-1J-1202D01*
G03X40544Y141644I136J147D01*
G02X41415Y142017I870J-829D01*
G02X42279Y141651I0J-1203D01*
G03X42560Y141644I144J139D01*
G02X43385Y141972I825J-874D01*
G02Y139568I0J-1202D01*
G02X42521Y139934I0J1203D01*
G03X42240Y139941I-144J-139D01*
G02X42075Y139810I-827J872D01*
G03X41922Y139332I220J-334D01*
G02X42002Y138900I-1122J-431D01*
G02X41542Y137954I-1203J0D01*
G03X41525Y137339I247J-315D01*
G02X41936Y136434I-791J-905D01*
G02X39532I-1202J0D01*
G02X39992Y137380I1203J0D01*
G03X40009Y137995I-247J315D01*
G02X39598Y138900I791J905D01*
G02X39615Y139102I1202J1D01*
G03X39277Y139565I-394J67D01*
G02X38601Y139900I169J1190D01*
G03X38319I-141J-143D01*
G02X37614Y139561I-845J855D01*
G03X37271Y139073I46J-397D01*
G02X37302Y138800I-1171J-271D01*
G02X34898I-1202J0D01*
G02X35004Y139293I1202J-1D01*
G03X34855Y139794I-365J164D01*
G02X34437Y140253I650J1011D01*
G03X33746Y140285I-355J-184D01*
G02X33486Y139996I-1012J649D01*
G03Y139372I250J-312D01*
G02X33936Y138434I-753J-938D01*
G02X31532I-1202J0D01*
G02X31982Y139372I1203J0D01*
G03Y139996I-250J312D01*
G37*
G36*
G01X21633Y136600D02*
G03X22007Y136950I-23J399D01*
G02X23200Y138002I1193J-150D01*
G02X24402Y136800I0J-1202D01*
G02X23267Y135600I-1202J0D01*
G03X22893Y135250I23J-399D01*
G02X21849Y134207I-1193J150D01*
G03X21499Y133783I49J-397D01*
G02X21502Y133700I-1199J-85D01*
G02X20441Y132506I-1202J0D01*
G03X20092Y132057I47J-397D01*
G02X20102Y131900I-1192J-155D01*
G02X18900Y130698I-1202J0D01*
G02X18094Y131008I0J1203D01*
G03X17445Y130834I-268J-296D01*
G02X16300Y129998I-1145J366D01*
G02Y132402I0J1202D01*
G02X17106Y132092I0J-1203D01*
G03X17755Y132266I268J296D01*
G02X18759Y133094I1145J-366D01*
G03X19108Y133543I-47J397D01*
G02X19098Y133700I1192J155D01*
G02X20151Y134893I1202J0D01*
G03X20501Y135317I-49J397D01*
G02X20498Y135400I1199J85D01*
G02X21633Y136600I1202J0D01*
G37*
G36*
G01X66036Y127521D02*
G02X65800Y127498I-234J1179D01*
G02X67002Y128700I0J1202D01*
G02X66990Y128528I-1202J-3D01*
G03X67464Y128079I396J-57D01*
G02X67700Y128102I234J-1179D01*
G02X67931Y128080I2J-1202D01*
G03X68405Y128429I77J392D01*
G02X69600Y129502I1195J-129D01*
G02X70802Y128300I0J-1202D01*
G01Y128292D01*
G03X71401Y127942I400J-3D01*
G02X72000Y128102I599J-1041D01*
G02X72064Y128100I-6J-1202D01*
G03X72484Y128525I21J399D01*
G02X72482Y128600I1200J70D01*
G02X74886I1202J0D01*
G02X74866Y128381I-1202J-1D01*
G03X75215Y127911I393J-73D01*
G02X76286Y126716I-131J-1195D01*
G02X73882I-1202J0D01*
G02X73902Y126935I1202J1D01*
G03X73553Y127405I-393J73D01*
G02X73407Y127430I130J1195D01*
G03X73167Y127188I-46J-195D01*
G02X73202Y126900I-1167J-288D01*
G02X70798I-1202J0D01*
G01Y126908D01*
G03X70199Y127258I-400J3D01*
G02X69600Y127098I-599J1041D01*
G02X69369Y127120I-2J1202D01*
G03X68895Y126771I-77J-392D01*
G02X67700Y125698I-1195J129D01*
G02X66498Y126900I0J1202D01*
G02X66510Y127072I1202J3D01*
G03X66036Y127521I-396J57D01*
G37*
G36*
G01X52377Y123676D02*
G02X53200Y124002I823J-876D01*
G02X54175Y123502I0J-1201D01*
G03X54825I325J234D01*
G02X55800Y124002I975J-701D01*
G02X57002Y122800I0J-1202D01*
G02X56679Y121980I-1202J0D01*
G03X56678Y121709I147J-136D01*
G02X56991Y120900I-889J-809D01*
G02X55789Y119698I-1202J0D01*
G02X54814Y120198I0J1201D01*
G03X54164I-325J-234D01*
G02X52214I-975J701D01*
G03X51564I-325J-234D01*
G02X49614I-975J701D01*
G03X48964I-325J-234D01*
G02X47989Y119698I-975J701D01*
G02X46787Y120900I0J1202D01*
G02X46854Y121294I1202J-2D01*
G03X46681Y121769I-378J131D01*
G02X46097Y122800I618J1031D01*
G02X48501I1202J0D01*
G02X48434Y122406I-1202J2D01*
G03X48607Y121931I378J-131D01*
G02X48964Y121602I-619J-1030D01*
G03X49614I325J234D01*
G02X49971Y121931I976J-701D01*
G03X50144Y122406I-205J344D01*
G02X50077Y122800I1135J396D01*
G02X51279Y124002I1202J0D01*
G02X52102Y123676I0J-1202D01*
G03X52377I137J145D01*
G37*
G36*
G01X244204Y117500D02*
G02X243798Y118400I796J901D01*
G02X246202I1202J0D01*
G02X245796Y117500I-1202J1D01*
G03Y116900I265J-300D01*
G02X246202Y116000I-796J-901D01*
G02X245837Y115137I-1203J0D01*
G03Y114563I278J-287D01*
G02X246202Y113700I-838J-863D01*
G02X245908Y112912I-1203J0D01*
G03Y112388I302J-262D01*
G02X246197Y111712I-908J-788D01*
G03X246696Y111363I398J38D01*
G02X247000Y111402I304J-1163D01*
G02Y108998I0J-1202D01*
G02X245803Y110088I0J1202D01*
G03X245304Y110437I-398J-38D01*
G02X245000Y110398I-304J1163D01*
G02X243798Y111600I0J1202D01*
G02X244092Y112388I1203J0D01*
G03Y112912I-302J262D01*
G02X243798Y113700I909J788D01*
G02X244163Y114563I1203J0D01*
G03Y115137I-278J287D01*
G02X243798Y116000I838J863D01*
G02X244204Y116900I1202J-1D01*
G03Y117500I-265J300D01*
G37*
G36*
G01X31632Y109769D02*
G02X31298Y110600I867J831D01*
G02X32500Y111802I1202J0D01*
G02X33212Y111568I-1J-1202D01*
G02X33929Y111805I717J-966D01*
G02Y109401I0J-1202D01*
G02X33217Y109635I1J1202D01*
G02X33028Y109520I-717J965D01*
G03X32915Y108884I176J-359D01*
G02X33249Y108053I-867J-831D01*
G02X30845I-1202J0D01*
G02X31519Y109133I1202J0D01*
G03X31632Y109769I-176J359D01*
G37*
G36*
G01X251953Y109387D02*
G02X251398Y110400I647J1013D01*
G02X252600Y111602I1202J0D01*
G02X253548Y111138I-1J-1202D01*
G03X254198Y111163I316J246D01*
G02X255200Y111702I1002J-662D01*
G02X256402Y110500I0J-1202D01*
G02X255847Y109487I-1202J0D01*
G03Y108813I215J-337D01*
G02X256402Y107800I-647J-1013D01*
G02X255880Y106809I-1202J0D01*
G03X255818Y106201I226J-330D01*
G02X256799Y103767I-2529J-2434D01*
G02X249779I-3510J0D01*
G02X251362Y106701I3511J0D01*
G03X251506Y107201I-220J334D01*
G02X251398Y107700I1094J498D01*
G02X251953Y108713I1202J0D01*
G03Y109387I-215J337D01*
G37*
G36*
G01X59159Y98652D02*
G02X58898Y99400I941J748D01*
G02X60100Y100602I1202J0D01*
G02X60800Y100377I0J-1201D01*
G02X61500Y100602I700J-976D01*
G02Y98198I0J-1202D01*
G02X60800Y98423I0J1201D01*
G02X60521Y98274I-701J977D01*
G03X60460Y97936I70J-187D01*
G02X60872Y97030I-790J-906D01*
G02X60835Y96735I-1202J1D01*
G03X60971Y96494I194J-49D01*
G02X61827Y95343I-346J-1151D01*
G02X61526Y94547I-1203J0D01*
G03X61527Y94282I150J-132D01*
G02X61833Y93480I-896J-801D01*
G02X59429I-1202J0D01*
G02X59730Y94276I1203J0D01*
G03X59729Y94541I-150J132D01*
G02X59423Y95343I896J801D01*
G02X59460Y95638I1202J-1D01*
G03X59324Y95879I-194J49D01*
G02X58468Y97030I346J1151D01*
G02X59051Y98061I1203J0D01*
G03X59159Y98652I-205J343D01*
G37*
G36*
G01X214138Y73048D02*
G02X213200Y72598I-938J753D01*
G02Y75002I0J1202D01*
G02X214138Y74552I0J-1203D01*
G03X214762I312J250D01*
G02X215700Y75002I938J-753D01*
G02Y72598I0J-1202D01*
G02X214762Y73048I0J1203D01*
G03X214138I-312J-250D01*
G37*
G36*
G01X34164Y69836D02*
G02X34015Y70416I1054J580D01*
G02X36419I1202J0D01*
G02X35830Y69382I-1202J0D01*
G03X35988Y68640I203J-345D01*
G02X37130Y69467I1142J-375D01*
G02X38068Y69017I0J-1203D01*
G03X38692I312J250D01*
G02X39630Y69467I938J-753D01*
G02X40832Y68265I0J-1202D01*
G02X39901Y67094I-1202J0D01*
G03X39606Y66595I90J-390D01*
G02X39652Y66265I-1156J-329D01*
G02X39389Y65515I-1201J0D01*
G03Y65015I313J-250D01*
G02X39652Y64265I-938J-750D01*
G02X38450Y63063I-1202J0D01*
G02X37512Y63513I0J1203D01*
G03X36888I-312J-250D01*
G02X35012I-938J753D01*
G03X34388I-312J-250D01*
G02X32512I-938J753D01*
G03X31888I-312J-250D01*
G02X30012I-938J753D01*
G03X29388I-312J-250D01*
G02X28450Y63063I-938J753D01*
G02X27248Y64265I0J1202D01*
G02X27511Y65015I1201J0D01*
G03Y65515I-313J250D01*
G02X27248Y66265I938J750D01*
G02X28179Y67436I1202J0D01*
G03X28474Y67935I-90J390D01*
G02X28428Y68265I1156J329D01*
G02X29630Y69467I1202J0D01*
G02X30568Y69017I0J-1203D01*
G03X31192I312J250D01*
G02X33068I938J-753D01*
G03X33692I312J250D01*
G02X34017Y69299I938J-752D01*
G03X34164Y69836I-203J344D01*
G37*
G36*
G01X257313Y61926D02*
G02X256898Y62835I788J909D01*
G02X259302I1202J0D01*
G02X259015Y62056I-1201J0D01*
G03X259037Y61775I152J-129D01*
G02X259452Y60866I-788J-909D01*
G02X259106Y60022I-1202J0D01*
G03Y59742I143J-140D01*
G02X259452Y58898I-856J-844D01*
G02X259037Y57989I-1203J0D01*
G03X259015Y57708I130J-152D01*
G02X259302Y56929I-914J-779D01*
G02X259016Y56150I-1202J-1D01*
G03X259037Y55870I152J-129D01*
G02X259452Y54961I-788J-909D01*
G02X259106Y54117I-1202J0D01*
G03Y53836I142J-140D01*
G02X259452Y52992I-856J-844D01*
G02X258250Y51790I-1202J0D01*
G02X257094Y52661I0J1203D01*
G03X256418Y52825I-384J-110D01*
G02X255541Y52445I-877J822D01*
G02Y54849I0J1202D01*
G02X256697Y53978I0J-1203D01*
G03X257373Y53814I384J110D01*
G02X257394Y53836I880J-819D01*
G03Y54117I-142J140D01*
G02X257048Y54961I856J844D01*
G02X257334Y55740I1202J1D01*
G03X257313Y56020I-152J129D01*
G02Y57838I788J909D01*
G03X257335Y58119I-130J152D01*
G02X257048Y58898I914J779D01*
G02X257394Y59742I1202J0D01*
G03Y60022I-143J140D01*
G02X257048Y60866I856J844D01*
G02X257335Y61645I1201J0D01*
G03X257313Y61926I-152J129D01*
G37*
G36*
G01X35012Y55237D02*
G02X36888I938J-753D01*
G03X37512I312J250D01*
G02X38450Y55687I938J-753D01*
G02X39652Y54485I0J-1202D01*
G02X39389Y53735I-1201J0D01*
G03Y53235I313J-250D01*
G02Y51735I-938J-750D01*
G03Y51235I313J-250D01*
G02X39652Y50485I-938J-750D01*
G02X38450Y49283I-1202J0D01*
G02X37512Y49733I0J1203D01*
G03X36888I-312J-250D01*
G02X35012I-938J753D01*
G03X34388I-312J-250D01*
G02X33933Y49384I-938J752D01*
G03X33732Y48847I161J-366D01*
G02X33797Y48678I-1086J-515D01*
G03X34289Y48407I383J114D01*
G02X34615Y48452I326J-1158D01*
G02X35459Y48105I-1J-1202D01*
G03X35741I141J143D01*
G02X36585Y48452I845J-855D01*
G02X37429Y48105I-1J-1202D01*
G03X37711I141J143D01*
G02X38555Y48452I845J-855D01*
G02X39339Y48161I0J-1202D01*
G03X39874Y48174I260J303D01*
G02X40700Y48502I825J-874D01*
G02X41450Y48239I0J-1201D01*
G02X42200Y48502I750J-938D01*
G02X42965Y48227I0J-1202D01*
G02X43730Y48502I765J-927D01*
G02Y46098I0J-1202D01*
G02X42965Y46373I0J1202D01*
G02X42200Y46098I-765J927D01*
G02X41450Y46361I0J1201D01*
G02X40700Y46098I-750J938D01*
G02X39916Y46389I0J1202D01*
G03X39381Y46376I-260J-303D01*
G02X38555Y46048I-825J874D01*
G02X37711Y46395I1J1202D01*
G03X37429I-141J-143D01*
G02X36585Y46048I-845J855D01*
G02X35741Y46395I1J1202D01*
G03X35459I-141J-143D01*
G02X34615Y46048I-845J855D01*
G02X33463Y46906I0J1202D01*
G03X32971Y47177I-383J-114D01*
G02X32645Y47132I-326J1158D01*
G02X32189Y47222I0J1202D01*
G03X31654Y46963I-151J-370D01*
G02X30500Y46098I-1154J337D01*
G02X29750Y46361I0J1201D01*
G02X29000Y46098I-750J938D01*
G02X28235Y46373I0J1202D01*
G02X27470Y46098I-765J927D01*
G02Y48502I0J1202D01*
G02X28235Y48227I0J-1202D01*
G02X29000Y48502I765J-927D01*
G02X29750Y48239I0J-1201D01*
G02X30500Y48502I750J-938D01*
G02X30956Y48412I0J-1202D01*
G03X31491Y48671I151J370D01*
G02X31519Y48755I1154J-338D01*
G03X31096Y49292I-375J140D01*
G02X30950Y49283I-147J1193D01*
G02X29748Y50485I0J1202D01*
G02X30011Y51235I1201J0D01*
G03Y51735I-313J250D01*
G02X29878Y51941I938J752D01*
G03X29522I-178J-91D01*
G02X28450Y51283I-1072J544D01*
G02X27248Y52485I0J1202D01*
G02X27511Y53235I1201J0D01*
G03Y53735I-313J250D01*
G02X27248Y54485I938J750D01*
G02X28450Y55687I1202J0D01*
G02X29388Y55237I0J-1203D01*
G03X30012I312J250D01*
G02X31888I938J-753D01*
G03X32512I312J250D01*
G02X34388I938J-753D01*
G03X35012I312J250D01*
G37*
G36*
G01X9040Y52778D02*
G02X9028Y52950I1190J169D01*
G02X10230Y51748I1202J0D01*
G02X10092Y51756I0J1202D01*
G03X9650Y51302I-46J-397D01*
G02X9662Y51130I-1190J-169D01*
G02X8647Y49943I-1202J0D01*
G01Y49935D01*
G02X6243I-1202J0D01*
G02X7258Y51122I1202J0D01*
G01Y51130D01*
G02X8460Y52332I1202J0D01*
G02X8598Y52324I0J-1202D01*
G03X9040Y52778I46J397D01*
G37*
G36*
G01X72488Y52508D02*
G03X73012I262J302D01*
G02X73800Y52802I788J-909D01*
G02Y50398I0J-1202D01*
G02X73012Y50692I0J1203D01*
G03X72488I-262J-302D01*
G02X72284Y50550I-785J910D01*
G03Y49850I195J-350D01*
G02X72638Y49552I-583J-1051D01*
G03X73262I312J250D01*
G02X74200Y50002I938J-753D01*
G02Y47598I0J-1202D01*
G02X73262Y48048I0J1203D01*
G03X72638I-312J-250D01*
G02X70762I-938J753D01*
G03X70138I-312J-250D01*
G02X69200Y47598I-938J753D01*
G02Y50002I0J1202D01*
G02X70138Y49552I0J-1203D01*
G03X70762I312J250D01*
G02X71116Y49850I937J-753D01*
G03Y50550I-195J350D01*
G02X70912Y50692I581J1052D01*
G03X70388I-262J-302D01*
G02X69600Y50398I-788J909D01*
G02Y52802I0J1202D01*
G02X70388Y52508I0J-1203D01*
G03X70912I262J302D01*
G02X72488I788J-909D01*
G37*
G36*
G01X-48Y49730D02*
G02X-980Y49288I-931J760D01*
G02Y51692I0J1202D01*
G02X-48Y51250I1J-1202D01*
G03X571I310J252D01*
G02X1503Y51692I931J-760D01*
G02Y49288I0J-1202D01*
G02X571Y49730I-1J1202D01*
G03X-48I-309J-252D01*
G37*
G36*
G01X70762Y31052D02*
G02X72638I938J-753D01*
G03X73262I312J250D01*
G02X74200Y31502I938J-753D01*
G02Y29098I0J-1202D01*
G02X73262Y29548I0J1203D01*
G03X72638I-312J-250D01*
G02X70762I-938J753D01*
G03X70138I-312J-250D01*
G02X69200Y29098I-938J753D01*
G02Y31502I0J1202D01*
G02X70138Y31052I0J-1203D01*
G03X70762I312J250D01*
G37*
G36*
G01X-6437Y22902D02*
G02X-6760Y22858I-322J1158D01*
G02Y25262I0J1202D01*
G02X-5560Y24122I0J-1202D01*
G03X-5053Y23758I399J21D01*
G02X-4730Y23802I322J-1158D01*
G02Y21398I0J-1202D01*
G02X-5930Y22538I0J1202D01*
G03X-6437Y22902I-399J-21D01*
G37*
G36*
G01X196970Y183818D02*
G03X196373Y184004I-373J-145D01*
G02X195700Y183798I-673J996D01*
G02Y186202I0J1202D01*
G02X196373Y185996I0J-1202D01*
G03X196970Y186182I224J331D01*
G02X200000Y188252I3030J-1183D01*
G02Y181748I0J-3252D01*
G02X196970Y183818I0J3253D01*
G37*
G36*
G01X124917Y184271D02*
G03X124907Y184795I-307J256D01*
G02X124598Y185600I894J805D01*
G02X125800Y186802I1202J0D01*
G02X126577Y186517I0J-1202D01*
G03X127182Y186623I258J305D01*
G02X130000Y188252I2818J-1623D01*
G02Y181748I0J-3252D01*
G02X127507Y182912I0J3252D01*
G03X126860Y182866I-307J-257D01*
G02X125839Y182298I-1021J634D01*
G02X124637Y183500I0J1202D01*
G02X124917Y184271I1202J0D01*
G37*
G36*
G01X173376Y172224D02*
G03X172721Y172262I-341J-209D01*
G02X169839Y170863I-2882J2269D01*
G02X173506Y174530I0J3667D01*
G02X173503Y174391I-3667J10D01*
G03X174027Y173996I400J-15D01*
G02X174400Y174055I372J-1143D01*
G02Y171651I0J-1202D01*
G02X173376Y172224I0J1201D01*
G37*
G36*
G01X155686Y173867D02*
G03X156180Y174283I95J389D01*
G02X156172Y174530I3659J242D01*
G02X159839Y170863I3667J0D01*
G02X157069Y172127I0J3667D01*
G03X156426Y172073I-302J-262D01*
G02X155400Y171498I-1026J628D01*
G02Y173902I0J1202D01*
G02X155686Y173867I-2J-1202D01*
G37*
G36*
G01X195881Y175179D02*
G03X196162I141J142D01*
G02X197006Y175525I844J-856D01*
G02Y173121I0J-1202D01*
G02X196688Y173164I1J1202D01*
G03X196196Y172672I-106J-386D01*
G02X196239Y172354I-1159J-319D01*
G02X196196Y172036I-1202J1D01*
G03X196688Y171544I386J-106D01*
G02X197006Y171587I319J-1159D01*
G02Y169183I0J-1202D01*
G02X196162Y169529I0J1202D01*
G03X195881I-140J-142D01*
G02X194193I-844J856D01*
G03X193913I-140J-143D01*
G02X192225I-844J856D01*
G03X191944I-140J-142D01*
G02X191100Y169183I-844J856D01*
G02Y171587I0J1202D01*
G02X191418Y171544I-1J-1202D01*
G03X191910Y172036I106J386D01*
G02X191867Y172354I1159J319D01*
G02X191902Y172644I1202J2D01*
G03X191453Y173135I-388J96D01*
G02X191269Y173121I-183J1188D01*
G02Y175525I0J1202D01*
G02X192041Y175245I1J-1202D01*
G03X192297I128J153D01*
G02X193069Y175525I771J-922D01*
G02X193913Y175179I0J-1202D01*
G03X194193I140J143D01*
G02X195881I844J-856D01*
G37*
G36*
G01X88255Y173356D02*
G03X88535I140J143D01*
G02X89379Y173702I844J-856D01*
G02X90581Y172500I0J-1202D01*
G02X90538Y172182I-1202J1D01*
G03X91030Y171690I386J-106D01*
G02X91348Y171733I319J-1159D01*
G02Y169329I0J-1202D01*
G02X90504Y169675I0J1202D01*
G03X90223I-140J-142D01*
G02X88535I-844J856D01*
G03X88255I-140J-143D01*
G02X86567I-844J856D01*
G03X86286I-140J-142D01*
G02X85442Y169329I-844J856D01*
G02Y171733I0J1202D01*
G02X85760Y171690I-1J-1202D01*
G03X86252Y172182I106J386D01*
G02X86209Y172500I1159J319D01*
G02X87411Y173702I1202J0D01*
G02X88255Y173356I0J-1202D01*
G37*
G36*
G01X81391Y171432D02*
G03Y171698I-149J133D01*
G02X81085Y172500I896J801D01*
G02X83489I1202J0D01*
G02X83183Y171698I-1202J-1D01*
G03Y171432I149J-133D01*
G02X83489Y170630I-896J-801D01*
G02X81085I-1202J0D01*
G02X81391Y171432I1202J1D01*
G37*
G36*
G01X72239Y173356D02*
G03X72519I140J143D01*
G02X73363Y173702I844J-856D01*
G02X74565Y172500I0J-1202D01*
G02X74522Y172182I-1202J1D01*
G03X75014Y171690I386J-106D01*
G02X75332Y171733I319J-1159D01*
G02Y169329I0J-1202D01*
G02X74488Y169675I0J1202D01*
G03X74207I-140J-142D01*
G02X72519I-844J856D01*
G03X72239I-140J-143D01*
G02X70551I-844J856D01*
G03X70270I-140J-142D01*
G02X69426Y169329I-844J856D01*
G02Y171733I0J1202D01*
G02X69744Y171690I-1J-1202D01*
G03X70236Y172182I106J386D01*
G02X70193Y172500I1159J319D01*
G02X71395Y173702I1202J0D01*
G02X72239Y173356I0J-1202D01*
G37*
G36*
G01X56223D02*
G03X56503I140J143D01*
G02X57347Y173702I844J-856D01*
G02X58549Y172500I0J-1202D01*
G02X58506Y172182I-1202J1D01*
G03X58998Y171690I386J-106D01*
G02X59316Y171733I319J-1159D01*
G02Y169329I0J-1202D01*
G02X58472Y169675I0J1202D01*
G03X58191I-140J-142D01*
G02X56503I-844J856D01*
G03X56223I-140J-143D01*
G02X54535I-844J856D01*
G03X54254I-140J-142D01*
G02X53410Y169329I-844J856D01*
G02Y171733I0J1202D01*
G02X53728Y171690I-1J-1202D01*
G03X54220Y172182I106J386D01*
G02X54177Y172500I1159J319D01*
G02X55379Y173702I1202J0D01*
G02X56223Y173356I0J-1202D01*
G37*
G36*
G01X40207D02*
G03X40487I140J143D01*
G02X41331Y173702I844J-856D01*
G02X42533Y172500I0J-1202D01*
G02X42490Y172182I-1202J1D01*
G03X42982Y171690I386J-106D01*
G02X43300Y171733I319J-1159D01*
G02Y169329I0J-1202D01*
G02X42456Y169675I0J1202D01*
G03X42175I-140J-142D01*
G02X40487I-844J856D01*
G03X40207I-140J-143D01*
G02X38519I-844J856D01*
G03X38238I-140J-142D01*
G02X37394Y169329I-844J856D01*
G02X36192Y170531I0J1202D01*
G02X36538Y171375I1202J0D01*
G03Y171656I-142J140D01*
G02X36192Y172500I856J844D01*
G02X37394Y173702I1202J0D01*
G02X38238Y173356I0J-1202D01*
G03X38519I141J142D01*
G02X40207I844J-856D01*
G37*
G36*
G01X124814Y166384D02*
G03X125086I136J147D01*
G02X125900Y166702I814J-883D01*
G02X126672Y166422I1J-1202D01*
G03X126928I128J153D01*
G02X127700Y166702I771J-922D01*
G02Y164298I0J-1202D01*
G02X126928Y164578I-1J1202D01*
G03X126672I-128J-153D01*
G02X125900Y164298I-771J922D01*
G02X125650Y164324I-1J1202D01*
G03X125176Y163850I-83J-391D01*
G02X125202Y163600I-1176J-249D01*
G02X125187Y163410I-1202J-1D01*
G03X125686Y162960I395J-64D01*
G02X126000Y163002I315J-1160D01*
G02Y160598I0J-1202D01*
G02X125212Y160892I0J1203D01*
G03X124688I-262J-302D01*
G02X123974Y160600I-788J908D01*
G03X123600Y160226I25J-399D01*
G02X122400Y159098I-1200J74D01*
G02X121198Y160300I0J1202D01*
G02X122326Y161500I1202J0D01*
G03X122700Y161874I-25J399D01*
G02X123024Y162623I1200J-74D01*
G03X123038Y162879I-146J136D01*
G02X122798Y163600I963J721D01*
G02X123116Y164414I1201J0D01*
G03Y164686I-147J136D01*
G02X122798Y165500I883J814D01*
G02X124000Y166702I1202J0D01*
G02X124814Y166384I0J-1201D01*
G37*
G36*
G01X44229Y165160D02*
G03X44511I141J143D01*
G02X45355Y165507I845J-855D01*
G02X46199Y165160I-1J-1202D01*
G03X46481I141J143D01*
G02X47325Y165507I845J-855D01*
G02Y163103I0J-1202D01*
G02X46481Y163450I1J1202D01*
G03X46199I-141J-143D01*
G02X45355Y163103I-845J855D01*
G02X44511Y163450I1J1202D01*
G03X44229I-141J-143D01*
G02X43385Y163103I-845J855D01*
G02Y165507I0J1202D01*
G02X44229Y165160I-1J-1202D01*
G37*
G36*
G01X38601Y163450D02*
G03X38319I-141J-143D01*
G02X37475Y163103I-845J855D01*
G02Y165507I0J1202D01*
G02X38319Y165160I-1J-1202D01*
G03X38601I141J143D01*
G02X39445Y165507I845J-855D01*
G02Y163103I0J-1202D01*
G02X38601Y163450I1J1202D01*
G37*
G36*
G01X173685Y159204D02*
G02X173948Y158454I-938J-750D01*
G02X171544I-1202J0D01*
G02X171807Y159204I1201J0D01*
G02X171544Y159954I938J750D01*
G02X173948I1202J0D01*
G02X173685Y159204I-1201J0D01*
G37*
G36*
G01X29328Y158533D02*
G03X29331Y158814I-141J142D01*
G02X28993Y159650I865J836D01*
G02X31397I1202J0D01*
G02X31042Y158797I-1202J0D01*
G03X31039Y158516I141J-142D01*
G02X31377Y157680I-865J-836D01*
G02X28973I-1202J0D01*
G02X29328Y158533I1202J0D01*
G37*
G36*
G01X110725Y158402D02*
G03Y158676I-146J137D01*
G02X110398Y159500I875J824D01*
G02X112802I1202J0D01*
G02X112475Y158676I-1202J0D01*
G03Y158402I146J-137D01*
G02X112802Y157578I-875J-824D01*
G02X110398I-1202J0D01*
G02X110725Y158402I1202J0D01*
G37*
G36*
G01X145275Y157967D02*
G03X145326Y158531I-256J307D01*
G02X145048Y159300I925J769D01*
G02X147452I1202J0D01*
G02X147018Y158376I-1201J0D01*
G03X146967Y157812I256J-307D01*
G02X147245Y157043I-925J-769D01*
G02X144841I-1202J0D01*
G02X145275Y157967I1201J0D01*
G37*
G36*
G01X167614Y158338D02*
G02X166864Y158075I-750J938D01*
G02Y160479I0J1202D01*
G02X167614Y160216I0J-1201D01*
G02X169114I750J-938D01*
G02X169864Y160479I750J-938D01*
G02Y158075I0J-1202D01*
G02X169114Y158338I0J1201D01*
G02X167614I-750J938D01*
G37*
G36*
G01X18325Y158402D02*
G03X18733Y158785I8J400D01*
G02X19934Y159936I1201J-51D01*
G02Y157532I0J-1202D01*
G01X19909D01*
G03X19501Y157149I-8J-400D01*
G02X18300Y155998I-1201J51D01*
G02Y158402I0J1202D01*
G01X18325D01*
G37*
G36*
G01X247293Y157295D02*
G03X247012Y157307I-147J-136D01*
G02X246204Y156994I-809J889D01*
G02Y159398I0J1202D01*
G02X247084Y159015I0J-1202D01*
G03X247365Y159003I147J136D01*
G02X248173Y159316I809J-889D01*
G02Y156912I0J-1202D01*
G02X247293Y157295I0J1202D01*
G37*
G36*
G01X104702Y155991D02*
G02X103500Y154798I-1202J9D01*
G02X102298Y156000I0J1202D01*
G02X102561Y156750I1201J0D01*
G02X102298Y157500I938J750D01*
G02X103500Y158702I1202J0D01*
G02X104231Y158454I0J-1201D01*
G02X105066Y158792I836J-864D01*
G02X106268Y157590I0J-1202D01*
G02X105093Y156388I-1202J0D01*
G03X104702Y155991I9J-400D01*
G37*
G36*
G01X200529Y154528D02*
G03X200503Y155101I-292J274D01*
G02X200098Y156000I797J900D01*
G02X201300Y157202I1202J0D01*
G02X202500Y156067I0J-1202D01*
G03X202953Y155693I399J22D01*
G02X203086Y155702I134J-993D01*
G02Y153698I0J-1002D01*
G02X202995Y153702I-2J1002D01*
G03X202571Y153405I-37J-398D01*
G02X201408Y152506I-1163J303D01*
G02X200206Y153708I0J1202D01*
G02X200529Y154528I1202J0D01*
G37*
G36*
G01X229400Y147733D02*
G03X229050Y148107I-399J-23D01*
G02X227998Y149300I150J1193D01*
G02X229200Y150502I1202J0D01*
G02X230400Y149367I0J-1202D01*
G03X230750Y148993I399J23D01*
G02X231802Y147802I-150J-1193D01*
G03X232002Y147602I200J0D01*
G02X233202Y146400I-2J-1202D01*
G02X232000Y145198I-1202J0D01*
G02X230798Y146398I0J1202D01*
G03X230598Y146598I-200J0D01*
G02X229400Y147733I2J1202D01*
G37*
G36*
G01X70750Y147961D02*
G02X70000Y147698I-750J938D01*
G02Y150102I0J1202D01*
G02X70750Y149839I0J-1201D01*
G02X72250I750J-938D01*
G02X73000Y150102I750J-938D01*
G02Y147698I0J-1202D01*
G02X72250Y147961I0J1201D01*
G02X70750I-750J938D01*
G37*
G36*
G01X264594Y143437D02*
G03X264246Y143999I-366J162D01*
G02X263098Y145200I54J1201D01*
G02X264300Y146402I1202J0D01*
G02X265461Y145510I0J-1202D01*
G03X266085Y145291I387J103D01*
G02X268843Y146197I2758J-3745D01*
G02X264192Y141546I0J-4651D01*
G02X264594Y143437I4651J0D01*
G37*
G36*
G01X243398Y143598D02*
G03X243198Y143798I-200J0D01*
G02X241998Y145000I2J1202D01*
G02X243200Y146202I1202J0D01*
G02X244402Y145002I0J-1202D01*
G03X244602Y144802I200J0D01*
G02X245802Y143600I-2J-1202D01*
G02X244600Y142398I-1202J0D01*
G02X243398Y143598I0J1202D01*
G37*
G36*
G01X189552Y145172D02*
G02X190102Y145213I547J-3626D01*
G02X186435Y141546I0J-3667D01*
G02X187456Y144085I3667J0D01*
G02X187198Y144830I944J744D01*
G02X188400Y146032I1202J0D01*
G02X189552Y145172I0J-1202D01*
G37*
G36*
G01X94602Y140401D02*
X94600D01*
G02Y142805I0J1202D01*
G02X95800Y141680I0J-1202D01*
G03X96198Y141305I399J25D01*
G01X96200D01*
G02Y138901I0J-1202D01*
G02X95000Y140026I0J1202D01*
G03X94602Y140401I-399J-25D01*
G37*
G36*
G01X249994Y137120D02*
G03X250275Y137122I139J143D01*
G02X251126Y137476I852J-848D01*
G02X251961Y137139I0J-1203D01*
G03X252242Y137142I139J144D01*
G02X253094Y137496I852J-848D01*
G02Y135092I0J-1202D01*
G02X252259Y135429I0J1203D01*
G03X251978Y135426I-139J-144D01*
G02X251126Y135072I-852J848D01*
G02X250289Y135411I0J1203D01*
G03X250008Y135409I-139J-143D01*
G02X249157Y135055I-852J848D01*
G02Y137459I0J1202D01*
G02X249994Y137120I0J-1203D01*
G37*
G36*
G01X220736Y133072D02*
G03X220485Y133075I-127J-154D01*
G02X219740Y132816I-745J942D01*
G02Y135220I0J1202D01*
G02X220504Y134946I0J-1202D01*
G03X220755Y134943I127J154D01*
G02X221500Y135202I745J-942D01*
G02Y132798I0J-1202D01*
G02X220736Y133072I0J1202D01*
G37*
G36*
G01X54750Y128961D02*
G02X54000Y128698I-750J938D01*
G02Y131102I0J1202D01*
G02X54750Y130839I0J-1201D01*
G02X56250I750J-938D01*
G02X57000Y131102I750J-938D01*
G02Y128698I0J-1202D01*
G02X56250Y128961I0J1201D01*
G02X54750I-750J938D01*
G37*
G36*
G01X226660Y127930D02*
G03X226379I-140J-142D01*
G02X225535Y127584I-844J856D01*
G02Y129988I0J1202D01*
G02X226379Y129642I0J-1202D01*
G03X226660I141J142D01*
G02X227504Y129988I844J-856D01*
G02Y127584I0J-1202D01*
G02X226660Y127930I0J1202D01*
G37*
G36*
G01X231303Y123000D02*
G02Y124600I897J800D01*
G02X230998Y125400I897J800D01*
G02X233402I1202J0D01*
G02X233097Y124600I-1202J0D01*
G02Y123000I-897J-800D01*
G02Y121400I-897J-800D01*
G02X233402Y120600I-897J-800D01*
G02X230998I-1202J0D01*
G02X231303Y121400I1202J0D01*
G02Y123000I897J800D01*
G37*
G36*
G01X39745Y121466D02*
G03X39895Y122041I-184J355D01*
G02X39698Y122700I1004J659D01*
G02X42102I1202J0D01*
G02X41455Y121634I-1202J0D01*
G03X41305Y121059I184J-355D01*
G02X41502Y120400I-1004J-659D01*
G02X39098I-1202J0D01*
G02X39745Y121466I1202J0D01*
G37*
G36*
G01X195034Y119006D02*
G02X194768Y119760I936J754D01*
G02X195074Y120561I1201J0D01*
G02X194783Y121345I911J784D01*
G02X197187I1202J0D01*
G02X196881Y120544I-1201J0D01*
G02X197172Y119760I-911J-784D01*
G02X196878Y118972I-1203J0D01*
G02X197144Y118218I-936J-754D01*
G02X194740I-1202J0D01*
G02X195034Y119006I1203J0D01*
G37*
G36*
G01X201114Y119004D02*
G02X201436Y118185I-881J-819D01*
G02X199032I-1202J0D01*
G02X199400Y119051I1203J0D01*
G02X199078Y119870I881J819D01*
G02X201482I1202J0D01*
G02X201114Y119004I-1203J0D01*
G37*
G36*
G01X59598Y117612D02*
G03X59427Y117811I-200J1D01*
G02X58398Y119000I172J1189D01*
G02X59600Y120202I1202J0D01*
G02X60802Y118998I0J-1202D01*
G03X60973Y118799I200J-1D01*
G02X62002Y117610I-172J-1189D01*
G02X60800Y116408I-1202J0D01*
G02X59598Y117612I0J1202D01*
G37*
G36*
G01X55698Y113820D02*
G03X55374Y114220I-400J7D01*
G02X54398Y115400I225J1180D01*
G02X56802I1202J0D01*
G01Y115380D01*
G03X57126Y114980I400J-7D01*
G02X58102Y113800I-225J-1180D01*
G02X57247Y112649I-1202J0D01*
G03X57112Y112405I58J-191D01*
G02X57155Y112086I-1159J-319D01*
G02X54751I-1202J0D01*
G02X55606Y113237I1202J0D01*
G03X55741Y113481I-58J191D01*
G02X55698Y113800I1159J319D01*
G01Y113820D01*
G37*
G36*
G01X193800Y111523D02*
G02X193100Y111298I-700J976D01*
G02X191898Y112500I0J1202D01*
G02X192123Y113200I1201J0D01*
G02X191898Y113900I976J700D01*
G02X193100Y115102I1202J0D01*
G02X193836Y114850I0J-1201D01*
G02X194590Y115116I754J-936D01*
G02X195792Y113914I0J-1202D01*
G02X195514Y113145I-1203J0D01*
G02X195702Y112500I-1014J-645D01*
G02X194500Y111298I-1202J0D01*
G02X193800Y111523I0J1201D01*
G37*
G36*
G01X30739Y112150D02*
G02X31002Y111400I-938J-750D01*
G02X28598I-1202J0D01*
G02X28861Y112150I1201J0D01*
G02X28598Y112900I938J750D01*
G02X31002I1202J0D01*
G02X30739Y112150I-1201J0D01*
G37*
G36*
G01X238782Y110922D02*
G03X239231Y111289I50J397D01*
G02X240430Y112402I1199J-89D01*
G02Y109998I0J-1202D01*
G02X240278Y110008I3J1202D01*
G03X239829Y109641I-50J-397D01*
G02X239552Y108958I-1199J89D01*
G03Y108702I153J-128D01*
G02X239795Y108225I-923J-770D01*
G03X240270Y107932I388J98D01*
G02X240530Y107961I262J-1173D01*
G02Y105557I0J-1202D01*
G02X239365Y106464I0J1202D01*
G03X238890Y106757I-388J-98D01*
G02X238630Y106728I-262J1173D01*
G02X237428Y107930I0J1202D01*
G02X237708Y108702I1202J1D01*
G03Y108958I-153J128D01*
G02X237428Y109730I922J771D01*
G02X238630Y110932I1202J0D01*
G02X238782Y110922I-3J-1202D01*
G37*
G36*
G01X219874Y111774D02*
G02X220730Y112132I856J-844D01*
G02Y109728I0J-1202D01*
G02X219926Y110036I0J1203D01*
G02X219070Y109678I-856J844D01*
G02Y112082I0J1202D01*
G02X219874Y111774I0J-1203D01*
G37*
G36*
G01X75864Y108164D02*
G03X75871Y108445I-139J144D01*
G02X75543Y109270I874J825D01*
G02X76745Y110472I1202J0D01*
G02X77517Y110192I1J-1202D01*
G03X77773I128J153D01*
G02X78545Y110472I771J-922D01*
G02X79747Y109270I0J-1202D01*
G02X79266Y108308I-1203J0D01*
G03X79217Y108041I120J-160D01*
G02X79402Y107400I-1018J-641D01*
G02X78200Y106198I-1202J0D01*
G02X77512Y106414I0J1202D01*
G02X76700Y106098I-812J885D01*
G02X75498Y107300I0J1202D01*
G02X75864Y108164I1203J0D01*
G37*
G36*
G01X220350Y105757D02*
G03X220099Y105748I-120J-160D01*
G02X219308Y105451I-791J905D01*
G02Y107855I0J1202D01*
G02X220028Y107616I1J-1202D01*
G03X220279Y107625I120J160D01*
G02X221070Y107922I791J-905D01*
G02Y105518I0J-1202D01*
G02X220350Y105757I-1J1202D01*
G37*
G36*
G01X72030Y97577D02*
G02X71400Y97398I-631J1023D01*
G02X70198Y98600I0J1202D01*
G02X70461Y99350I1201J0D01*
G02X70198Y100100I938J750D01*
G02X71400Y101302I1202J0D01*
G02X72100Y101077I0J-1201D01*
G02X72800Y101302I700J-976D01*
G02X74002Y100100I0J-1202D01*
G02X73697Y99300I-1202J0D01*
G02X74002Y98500I-897J-800D01*
G02X72800Y97298I-1202J0D01*
G02X72030Y97577I0J1202D01*
G37*
G36*
G01X219831Y97555D02*
G03X220334I251J310D01*
G02X221090Y97822I755J-935D01*
G02X221890Y97517I0J-1202D01*
G02X222690Y97822I800J-897D01*
G02Y95418I0J-1202D01*
G02X221890Y95723I0J1202D01*
G02X221090Y95418I-800J897D01*
G02X220334Y95685I-1J1202D01*
G03X219831I-252J-310D01*
G02X219075Y95418I-755J935D01*
G02Y97822I0J1202D01*
G02X219831Y97555I1J-1202D01*
G37*
G36*
G01X253865Y94621D02*
G02X254530Y94822I665J-1001D01*
G02X255230Y94597I0J-1201D01*
G02X255930Y94822I700J-976D01*
G02X256320Y94757I0J-1203D01*
G03X256797Y94937I130J378D01*
G02X257840Y95542I1043J-597D01*
G02Y93138I0J-1202D01*
G02X257450Y93203I0J1203D01*
G03X256973Y93023I-130J-378D01*
G02X255930Y92418I-1043J597D01*
G02X255230Y92643I0J1201D01*
G02X254530Y92418I-700J976D01*
G02X253795Y92669I0J1202D01*
G02X253130Y92468I-665J1001D01*
G02Y94872I0J1202D01*
G02X253865Y94621I0J-1202D01*
G37*
G36*
G01X31825Y89351D02*
G03X31689Y89584I-196J42D01*
G02X30845Y90731I357J1147D01*
G02X33249I1202J0D01*
G02X33222Y90480I-1202J2D01*
G03X33358Y90247I196J-42D01*
G02X34202Y89100I-357J-1147D01*
G02X31798I-1202J0D01*
G02X31825Y89351I1202J-2D01*
G37*
G36*
G01X207777Y90222D02*
G03X208033I128J153D01*
G02X208805Y90502I771J-922D01*
G02X209577Y90222I1J-1202D01*
G03X209833I128J153D01*
G02X210605Y90502I771J-922D01*
G02Y88098I0J-1202D01*
G02X209833Y88378I-1J1202D01*
G03X209577I-128J-153D01*
G02X208805Y88098I-771J922D01*
G02X208033Y88378I-1J1202D01*
G03X207777I-128J-153D01*
G02X207005Y88098I-771J922D01*
G02X206233Y88378I-1J1202D01*
G03X205977I-128J-153D01*
G02X205205Y88098I-771J922D01*
G02Y90502I0J1202D01*
G02X205977Y90222I1J-1202D01*
G03X206233I128J153D01*
G02X207005Y90502I771J-922D01*
G02X207777Y90222I1J-1202D01*
G37*
G36*
G01X217606Y89051D02*
G03X218038Y89312I56J396D01*
G02X219170Y90111I1132J-402D01*
G02X219942Y89831I1J-1202D01*
G03X220198I128J153D01*
G02X220970Y90111I771J-922D01*
G02X222087Y89354I0J-1203D01*
G03X222332Y89237I186J74D01*
G02X222690Y89292I359J-1147D01*
G02Y86888I0J-1202D01*
G02X221573Y87645I0J1203D01*
G03X221328Y87762I-186J-74D01*
G02X220970Y87707I-359J1147D01*
G02X220198Y87987I-1J1202D01*
G03X219942I-128J-153D01*
G02X219170Y87707I-771J922D01*
G02X219004Y87718I-4J1202D01*
G03X218572Y87457I-56J-396D01*
G02X217440Y86658I-1132J402D01*
G02Y89062I0J1202D01*
G02X217606Y89051I4J-1202D01*
G37*
G36*
G01X245925Y86743D02*
G03X245729Y86948I-200J5D01*
G02X244548Y88150I21J1202D01*
G02X246952I1202J0D01*
G01Y88116D01*
G03X247148Y87911I200J-5D01*
G02X248329Y86709I-21J-1202D01*
G02X248052Y85941I-1203J0D01*
G03X248064Y85673I154J-127D01*
G02X248413Y84826I-853J-847D01*
G02X248098Y84015I-1202J0D01*
G03X248070Y83509I295J-270D01*
G02X248302Y82800I-970J-710D01*
G02X247956Y81956I-1202J0D01*
G03X247959Y81671I142J-141D01*
G02X248329Y80804I-831J-867D01*
G02X248049Y80032I-1202J-1D01*
G03Y79776I153J-128D01*
G02X248329Y79004I-922J-771D01*
G02X248077Y78267I-1202J-1D01*
G03X248102Y77996I158J-122D01*
G02X248502Y77100I-802J-895D01*
G02X246098I-1202J0D01*
G02X246350Y77837I1202J1D01*
G03X246325Y78108I-158J122D01*
G02X245925Y79004I802J895D01*
G02X246205Y79776I1202J1D01*
G03Y80032I-153J128D01*
G02X245925Y80804I922J771D01*
G02X246271Y81648I1202J0D01*
G03X246268Y81933I-142J141D01*
G02X245898Y82800I831J867D01*
G02X246213Y83611I1202J0D01*
G03X246241Y84117I-295J270D01*
G02X246009Y84826I970J710D01*
G02X246286Y85594I1203J0D01*
G03X246274Y85862I-154J127D01*
G02X245925Y86709I853J847D01*
G01Y86743D01*
G37*
G36*
G01X69361Y85150D02*
G02Y86650I938J750D01*
G02X69098Y87400I938J750D01*
G02X71502I1202J0D01*
G02X71239Y86650I-1201J0D01*
G02Y85150I-938J-750D01*
G02X71502Y84400I-938J-750D01*
G02X69098I-1202J0D01*
G02X69361Y85150I1201J0D01*
G37*
G36*
G01X16924Y84014D02*
G02X16688Y84730I966J715D01*
G02X16951Y85480I1201J0D01*
G02X16688Y86230I938J750D01*
G02X19092I1202J0D01*
G02X18829Y85480I-1201J0D01*
G02X19092Y84730I-938J-750D01*
G02X18826Y83976I-1202J0D01*
G02X19062Y83260I-966J-715D01*
G02X18799Y82510I-1201J0D01*
G02X19062Y81760I-938J-750D01*
G02X16658I-1202J0D01*
G02X16921Y82510I1201J0D01*
G02X16658Y83260I938J750D01*
G02X16924Y84014I1202J0D01*
G37*
G36*
G01X258041Y78905D02*
G03X257766Y79396I-385J107D01*
G02X256898Y80551I334J1155D01*
G02X259302I1202J0D01*
G02X259258Y80229I-1202J0D01*
G03X259533Y79738I385J-107D01*
G02X260401Y78583I-334J-1155D01*
G02X260055Y77739I-1202J0D01*
G03Y77459I143J-140D01*
G02X260401Y76615I-856J-844D01*
G02X259532Y75460I-1202J0D01*
G03X259258Y74969I111J-384D01*
G02X259302Y74646I-1158J-322D01*
G02X259049Y73909I-1202J1D01*
G03X259085Y73628I158J-123D01*
G02X259552Y72677I-735J-951D01*
G02X259206Y71833I-1202J0D01*
G03Y71553I143J-140D01*
G02X259552Y70709I-856J-844D01*
G02X259085Y69758I-1202J0D01*
G03X259049Y69477I122J-158D01*
G02X259302Y68740I-949J-738D01*
G02X256898I-1202J0D01*
G02X257365Y69691I1202J0D01*
G03X257401Y69972I-122J158D01*
G02X257148Y70709I949J738D01*
G02X257494Y71553I1202J0D01*
G03Y71833I-143J140D01*
G02X257148Y72677I856J844D01*
G02X257401Y73414I1202J-1D01*
G03X257365Y73695I-158J123D01*
G02X256898Y74646I735J951D01*
G02X257767Y75801I1202J0D01*
G03X258041Y76292I-111J384D01*
G02X257997Y76615I1158J322D01*
G02X258343Y77459I1202J0D01*
G03Y77739I-143J140D01*
G02X257997Y78583I856J844D01*
G02X258041Y78905I1202J0D01*
G37*
G36*
G01X268331Y79715D02*
G03X268587I128J153D01*
G02X269359Y79995I771J-922D01*
G02X270561Y78793I0J-1202D01*
G02X270274Y78014I-1201J0D01*
G03X270292Y77737I153J-129D01*
G02X270682Y76850I-812J-886D01*
G02X270435Y76120I-1202J0D01*
G03X270470Y75842I159J-121D01*
G02X270927Y74899I-744J-943D01*
G02X270647Y74127I-1202J-1D01*
G03Y73871I153J-128D01*
G02X270927Y73099I-922J-771D01*
G02X270723Y72429I-1202J0D01*
G03X270791Y71905I332J-223D01*
G02X271202Y71000I-791J-905D01*
G02X270819Y70121I-1202J1D01*
G03X270751Y69620I273J-292D01*
G02X270927Y68993I-1026J-626D01*
G02X270647Y68221I-1202J-1D01*
G03Y67965I153J-128D01*
G02X270927Y67193I-922J-771D01*
G02X270755Y66573I-1202J0D01*
G03X270824Y66076I343J-206D01*
G02X271202Y65200I-824J-875D01*
G02X270787Y64292I-1201J0D01*
G03X270719Y63764I262J-302D01*
G02X270927Y63088I-994J-676D01*
G02X270647Y62316I-1202J-1D01*
G03Y62060I153J-128D01*
G02X270927Y61288I-922J-771D01*
G02X269791Y60088I-1202J0D01*
G03X269602Y59890I11J-200D01*
G02X268400Y58698I-1202J10D01*
G02X267198Y59900I0J1202D01*
G02X268334Y61100I1202J0D01*
G03X268523Y61298I-11J200D01*
G02X268803Y62060I1202J-9D01*
G03Y62316I-153J128D01*
G02X268523Y63078I922J771D01*
G03X268327Y63276I-200J-2D01*
G02X267156Y64336I23J1202D01*
G03X266767Y64688I-397J-48D01*
G02X265588Y65890I23J1202D01*
G02X266790Y67092I1202J0D01*
G02X267984Y66032I0J-1202D01*
G03X268373Y65680I397J48D01*
G02X268688Y65631I-26J-1202D01*
G03X268923Y65734I56J192D01*
G02X268970Y65820I1077J-533D01*
G03X268901Y66317I-343J206D01*
G02X268523Y67193I824J875D01*
G02X268803Y67965I1202J1D01*
G03Y68221I-153J128D01*
G02X268523Y68993I922J771D01*
G02X268556Y69274I1202J1D01*
G03X268091Y69760I-389J94D01*
G02X267860Y69738I-229J1180D01*
G02Y72142I0J1202D01*
G02X268756Y71742I1J-1202D01*
G03X269061Y71750I149J133D01*
G02X269101Y71797I935J-755D01*
G03X269061Y72097I-150J133D01*
G02X268523Y73099I664J1002D01*
G02X268803Y73871I1202J1D01*
G03Y74127I-153J128D01*
G02X268523Y74899I922J771D01*
G02X268770Y75629I1202J0D01*
G03X268735Y75907I-159J121D01*
G02X268644Y75986I742J946D01*
G03X268363Y75983I-139J-144D01*
G02X267510Y75628I-853J847D01*
G02X266308Y76830I0J1202D01*
G02X266673Y77693I1203J0D01*
G03X266680Y77973I-139J144D01*
G02X266357Y78793I879J820D01*
G02X267559Y79995I1202J0D01*
G02X268331Y79715I1J-1202D01*
G37*
G36*
G01X240259Y75730D02*
G03X240302Y76230I-289J277D01*
G02X240098Y76900I998J670D01*
G02X242502I1202J0D01*
G02X242168Y76069I-1201J0D01*
G03X242125Y75569I289J-277D01*
G02X242329Y74899I-998J-670D01*
G02X242011Y74084I-1203J0D01*
G03X242010Y73813I147J-136D01*
G02X242327Y73000I-884J-813D01*
G02X241998Y72174I-1201J0D01*
G03X241995Y71903I145J-137D01*
G02X242302Y71100I-895J-802D01*
G02X239898I-1202J0D01*
G02X240227Y71926I1201J0D01*
G03X240230Y72197I-145J137D01*
G02X239923Y73000I895J802D01*
G02X240241Y73815I1203J0D01*
G03X240242Y74086I-147J136D01*
G02X239925Y74899I884J813D01*
G02X240259Y75730I1201J0D01*
G37*
G36*
G01X9166Y71895D02*
G02X9402Y71180I-965J-715D01*
G02X6998I-1202J0D01*
G02X7234Y71895I1201J0D01*
G02X6998Y72610I965J715D01*
G02X9402I1202J0D01*
G02X9166Y71895I-1201J0D01*
G37*
G36*
G01X11870Y73429D02*
G02X13370I750J-938D01*
G02X14870I750J-938D01*
G02X15620Y73692I750J-938D01*
G02X16822Y72490I0J-1202D01*
G02X16559Y71740I-1201J0D01*
G02X16822Y70990I-938J-750D01*
G02X15620Y69788I-1202J0D01*
G02X14870Y70051I0J1201D01*
G02X13370I-750J938D01*
G02X11870I-750J938D01*
G02X11120Y69788I-750J938D01*
G02X9918Y70990I0J1202D01*
G02X10181Y71740I1201J0D01*
G02X9918Y72490I938J750D01*
G02X11120Y73692I1202J0D01*
G02X11870Y73429I0J-1201D01*
G37*
G36*
G01X246218Y69780D02*
G03X246237Y70281I-302J262D01*
G02X245998Y71000I962J719D01*
G02X248402I1202J0D01*
G02X248109Y70213I-1202J0D01*
G03X248090Y69712I302J-262D01*
G02X248329Y68993I-962J-719D01*
G02X248049Y68221I-1202J-1D01*
G03Y67965I153J-128D01*
G02X248329Y67193I-922J-771D01*
G02X248027Y66396I-1203J0D01*
G03X248020Y65873I299J-266D01*
G02X248302Y65100I-920J-773D01*
G02X248045Y64357I-1203J0D01*
G03X248052Y63855I315J-247D01*
G02X248329Y63087I-926J-768D01*
G02X248049Y62315I-1202J-1D01*
G03Y62059I153J-128D01*
G02X248329Y61287I-922J-771D01*
G02X247127Y60085I-1202J0D01*
G02X247011Y60091I4J1202D01*
G03X246580Y59769I-38J-398D01*
G02X245400Y58798I-1180J231D01*
G02Y61202I0J1202D01*
G02X245516Y61196I-4J-1202D01*
G03X245947Y61518I38J398D01*
G02X246205Y62059I1180J-231D01*
G03Y62315I-153J128D01*
G02X245933Y62950I922J771D01*
G03X245502Y63302I-397J-46D01*
G02X245400Y63298I-98J1198D01*
G02Y65702I0J1202D01*
G02X245822Y65625I-1J-1202D01*
G03X246065Y65711I70J187D01*
G02X246200Y65897I1036J-610D01*
G03X246207Y66420I-299J266D01*
G02X245925Y67193I920J773D01*
G02X246205Y67965I1202J1D01*
G03Y68221I-153J128D01*
G02X245925Y68993I922J771D01*
G02X246218Y69780I1202J0D01*
G37*
G36*
G01X217215Y67998D02*
G03X216741Y68322I-394J-68D01*
G02X216500Y68298I-239J1178D01*
G02Y70702I0J1202D01*
G02X217685Y69702I0J-1202D01*
G03X218159Y69378I394J68D01*
G02X218400Y69402I239J-1178D01*
G02X219602Y68200I0J-1202D01*
G02X219213Y67314I-1202J-1D01*
G03X219191Y67043I135J-147D01*
G02X219448Y66300I-946J-743D01*
G02X218246Y65098I-1202J0D01*
G02X217441Y65408I1J1202D01*
G03X216874Y65377I-268J-297D01*
G02X215975Y64973I-899J798D01*
G02Y67377I0J1202D01*
G02X216780Y67067I-1J-1202D01*
G03X217347Y67098I268J297D01*
G02X217433Y67186I902J-795D01*
G03X217455Y67457I-135J147D01*
G02X217215Y67998I945J743D01*
G37*
G36*
G01X-1059Y62950D02*
G02Y64450I938J750D01*
G02X-1322Y65200I938J750D01*
G02X-120Y66402I1202J0D01*
G02X630Y66139I0J-1201D01*
G02X1380Y66402I750J-938D01*
G02X2582Y65200I0J-1202D01*
G02X2319Y64450I-1201J0D01*
G02Y62950I-938J-750D01*
G02Y61450I-938J-750D01*
G02X2582Y60700I-938J-750D01*
G02X1380Y59498I-1202J0D01*
G02X630Y59761I0J1201D01*
G02X-120Y59498I-750J938D01*
G02X-1322Y60700I0J1202D01*
G02X-1059Y61450I1201J0D01*
G02Y62950I938J750D01*
G37*
G36*
G01X69878Y63393D02*
G03X70102Y63607I25J199D01*
G02X70098Y63700I1198J98D01*
G02X72502I1202J0D01*
G02X71322Y62498I-1202J0D01*
G03X70930Y62124I7J-400D01*
G02X69730Y60998I-1200J76D01*
G02X68530Y62130I0J1202D01*
G03X68173Y62505I-399J-23D01*
G02X67098Y63700I127J1195D01*
G02X68300Y64902I1202J0D01*
G02X69500Y63770I0J-1202D01*
G03X69857Y63395I399J23D01*
G02X69878Y63393I-103J-1197D01*
G37*
G36*
G01X-15708Y58522D02*
G02X-15991Y58488I-284J1168D01*
G02X-17193Y59690I0J1202D01*
G02X-16775Y60601I1202J0D01*
G02X-17022Y61330I955J730D01*
G02X-14618I1202J0D01*
G02X-15036Y60419I-1202J0D01*
G02X-14927Y60249I-954J-731D01*
G03X-14703Y60148I177J93D01*
G02X-14420Y60182I284J-1168D01*
G02Y57778I0J-1202D01*
G02X-15484Y58421I0J1202D01*
G03X-15708Y58522I-177J-93D01*
G37*
G36*
G01X52798Y59899D02*
Y59900D01*
G02X55202I1202J0D01*
G02X54077Y58700I-1202J0D01*
G03X53702Y58301I25J-399D01*
G01Y58300D01*
G02X51298I-1202J0D01*
G02X51312Y58481I1202J-2D01*
G03X50793Y58150I-122J-381D01*
G02X49600Y57098I-1193J150D01*
G02X49150Y57186I1J1202D01*
G03X48600Y56836I-150J-371D01*
G02X47400Y55698I-1200J64D01*
G02X46650Y55961I0J1201D01*
G03X46150I-250J-313D01*
G02X45400Y55698I-750J938D01*
G02X44198Y56900I0J1202D01*
G02X44516Y57714I1201J0D01*
G03Y57986I-147J136D01*
G02X44198Y58800I883J814D01*
G02X45400Y60002I1202J0D01*
G02X46150Y59739I0J-1201D01*
G03X46650I250J313D01*
G02X47400Y60002I750J-938D01*
G02X48415Y59445I0J-1203D01*
G03X48964Y59320I338J214D01*
G02X49533Y59500I636J-1020D01*
G03X49907Y59850I-23J399D01*
G02X51100Y60902I1193J-150D01*
G02X52302Y59700I0J-1202D01*
G02X52288Y59514I-1202J-3D01*
G03X52798Y59899I110J385D01*
G37*
G36*
G01X22716Y57704D02*
G03Y57976I-147J136D01*
G02X22398Y58790I883J814D01*
G02X23600Y59992I1202J0D01*
G02X24350Y59729I0J-1201D01*
G03X24850I250J313D01*
G02X25600Y59992I750J-938D01*
G02X26802Y58790I0J-1202D01*
G02X26484Y57976I-1201J0D01*
G03Y57704I147J-136D01*
G02X26802Y56890I-883J-814D01*
G02X25600Y55688I-1202J0D01*
G02X24850Y55951I0J1201D01*
G03X24350I-250J-313D01*
G02X23600Y55688I-750J938D01*
G02X22398Y56890I0J1202D01*
G02X22716Y57704I1201J0D01*
G37*
G36*
G01X70388Y55708D02*
G03X70912I262J302D01*
G02X71700Y56002I788J-909D01*
G02X72490Y55706I0J-1202D01*
G03X73030Y55718I263J301D01*
G02X73861Y56052I831J-867D01*
G02Y53648I0J-1202D01*
G02X73071Y53944I0J1202D01*
G03X72531Y53932I-263J-301D01*
G02X71700Y53598I-831J867D01*
G02X70912Y53892I0J1203D01*
G03X70388I-262J-302D01*
G02X69600Y53598I-788J909D01*
G02Y56002I0J1202D01*
G02X70388Y55708I0J-1203D01*
G37*
G36*
G01X61400Y54477D02*
G02X62800I700J-976D01*
G02X63500Y54702I700J-976D01*
G02X64702Y53500I0J-1202D01*
G02X64477Y52800I-1201J0D01*
G02X64702Y52100I-976J-700D01*
G02X63500Y50898I-1202J0D01*
G02X62298Y52098I0J1202D01*
G03X62098Y52298I-200J0D01*
G02X61400Y52523I2J1202D01*
G02X60700Y52298I-700J976D01*
G02Y54702I0J1202D01*
G02X61400Y54477I0J-1201D01*
G37*
G36*
G01X268789Y52130D02*
G03X268799Y52405I-140J143D01*
G02X268498Y53200I901J796D01*
G02X270902I1202J0D01*
G02X270546Y52346I-1202J0D01*
G03X270536Y52071I140J-143D01*
G02X270837Y51276I-901J-796D01*
G02X270557Y50505I-1202J0D01*
G03Y50248I153J-128D01*
G02X270838Y49476I-920J-772D01*
G02X270575Y48725I-1202J-1D01*
G03X270591Y48207I312J-250D01*
G02X270902Y47400I-892J-807D01*
G02X270640Y46650I-1202J-1D01*
G03X270646Y46144I312J-249D01*
G02X270927Y45371I-921J-772D01*
G02X270647Y44599I-1202J-1D01*
G03Y44343I153J-128D01*
G02X270927Y43571I-922J-771D01*
G02X270569Y42715I-1202J0D01*
G03X270566Y42434I141J-142D01*
G02X270902Y41600I-867J-834D01*
G02X268498I-1202J0D01*
G02X268856Y42456I1202J0D01*
G03X268859Y42737I-141J142D01*
G02X268523Y43571I867J834D01*
G02X268803Y44343I1202J1D01*
G03Y44599I-153J128D01*
G02X268523Y45371I922J771D01*
G02X268785Y46121I1202J1D01*
G03X268779Y46627I-312J249D01*
G02X268498Y47400I921J772D01*
G02X268761Y48151I1202J1D01*
G03X268745Y48669I-312J250D01*
G02X268434Y49476I892J807D01*
G02X268714Y50247I1202J0D01*
G03Y50504I-153J128D01*
G02X268433Y51276I920J772D01*
G02X268789Y52130I1202J0D01*
G37*
G36*
G01X244078Y50272D02*
G03Y50528I-153J128D01*
G02X243798Y51300I922J771D01*
G02X246202I1202J0D01*
G02X245922Y50528I-1202J-1D01*
G03Y50272I153J-128D01*
G02X246202Y49500I-922J-771D01*
G02X243798I-1202J0D01*
G02X244078Y50272I1202J1D01*
G37*
G36*
G01X52071Y48260D02*
G03Y48760I-313J250D01*
G02X51808Y49510I938J750D01*
G02X54212I1202J0D01*
G02X53949Y48760I-1201J0D01*
G03Y48260I313J-250D01*
G02X54212Y47510I-938J-750D01*
G02X51808I-1202J0D01*
G02X52071Y48260I1201J0D01*
G37*
G36*
G01X244114Y44217D02*
G03Y44488I-147J135D01*
G02X243798Y45300I885J812D01*
G02X245000Y46502I1202J0D01*
G02X245865Y46135I0J-1203D01*
G03X246150Y46132I144J139D01*
G02X246999Y46483I849J-851D01*
G02X248201Y45281I0J-1202D01*
G02X247909Y44495I-1202J-1D01*
G03X247914Y44228I151J-131D01*
G02X248240Y43405I-876J-823D01*
G02X247038Y42203I-1202J0D01*
G02X246273Y42478I0J1202D01*
G03X245765I-254J-309D01*
G02X245000Y42203I-765J927D01*
G02X243798Y43405I0J1202D01*
G02X244114Y44217I1201J0D01*
G37*
G36*
G01X257400Y43887D02*
G03X257364Y44167I-158J122D01*
G02X256898Y45118I737J951D01*
G02X259302I1202J0D01*
G02X259050Y44381I-1202J-1D01*
G03X259086Y44101I158J-122D01*
G02X259552Y43150I-737J-951D01*
G02X259206Y42306I-1202J0D01*
G03Y42025I142J-140D01*
G02X259552Y41181I-856J-844D01*
G02X257148I-1202J0D01*
G02X257494Y42025I1202J0D01*
G03Y42306I-142J140D01*
G02X257148Y43150I856J844D01*
G02X257400Y43887I1202J1D01*
G37*
G36*
G01X47361Y40450D02*
G02Y41950I938J750D01*
G02X47098Y42700I938J750D01*
G02X49502I1202J0D01*
G02X49239Y41950I-1201J0D01*
G02Y40450I-938J-750D01*
G02X49502Y39700I-938J-750D01*
G02X49379Y39170I-1203J0D01*
G03X49778Y38596I359J-176D01*
G02X49900Y38602I120J-1196D01*
G02X51102Y37400I0J-1202D01*
G02X50784Y36586I-1201J0D01*
G03Y36314I147J-136D01*
G02Y34686I-883J-814D01*
G03Y34414I147J-136D01*
G02X51102Y33600I-883J-814D01*
G02X50822Y32828I-1202J-1D01*
G03Y32572I153J-128D01*
G02X51102Y31800I-922J-771D01*
G02X49900Y30598I-1202J0D01*
G02X49778Y30604I-2J1202D01*
G03X49379Y30030I-40J-398D01*
G02X49502Y29500I-1080J-530D01*
G02X49239Y28750I-1201J0D01*
G02Y27250I-938J-750D01*
G02X49502Y26500I-938J-750D01*
G02X47098I-1202J0D01*
G02X47361Y27250I1201J0D01*
G02Y28750I938J750D01*
G02X47098Y29500I938J750D01*
G02X47463Y30363I1203J0D01*
G03Y30937I-278J287D01*
G02X47098Y31800I838J863D01*
G02X47378Y32572I1202J1D01*
G03Y32828I-153J128D01*
G02X47098Y33600I922J771D01*
G02X47416Y34414I1201J0D01*
G03Y34686I-147J136D01*
G02Y36314I883J814D01*
G03Y36586I-147J136D01*
G02X47098Y37400I883J814D01*
G02X47463Y38263I1203J0D01*
G03Y38837I-278J287D01*
G02X47098Y39700I838J863D01*
G02X47361Y40450I1201J0D01*
G37*
G36*
G01X21961D02*
G02Y41950I938J750D01*
G02X21698Y42700I938J750D01*
G02X24102I1202J0D01*
G02X23839Y41950I-1201J0D01*
G02Y40450I-938J-750D01*
G02X24102Y39700I-938J-750D01*
G02X23737Y38837I-1203J0D01*
G03Y38263I278J-287D01*
G02X24102Y37400I-838J-863D01*
G02X23822Y36628I-1202J-1D01*
G03Y36372I153J-128D01*
G02X24102Y35600I-922J-771D01*
G02X23784Y34786I-1201J0D01*
G03Y34514I147J-136D01*
G02Y32886I-883J-814D01*
G03Y32614I147J-136D01*
G02X24102Y31800I-883J-814D01*
G02X23737Y30937I-1203J0D01*
G03Y30363I278J-287D01*
G02X24102Y29500I-838J-863D01*
G02X23839Y28750I-1201J0D01*
G02Y27250I-938J-750D01*
G02X24102Y26500I-938J-750D01*
G02X21698I-1202J0D01*
G02X21961Y27250I1201J0D01*
G02Y28750I938J750D01*
G02X21698Y29500I938J750D01*
G02X21821Y30030I1203J0D01*
G03X21422Y30604I-359J176D01*
G02X21300Y30598I-120J1196D01*
G02X20098Y31800I0J1202D01*
G02X20416Y32614I1201J0D01*
G03Y32886I-147J136D01*
G02Y34514I883J814D01*
G03Y34786I-147J136D01*
G02X20098Y35600I883J814D01*
G02X20378Y36372I1202J1D01*
G03Y36628I-153J128D01*
G02X20098Y37400I922J771D01*
G02X21300Y38602I1202J0D01*
G02X21422Y38596I2J-1202D01*
G03X21821Y39170I40J398D01*
G02X21698Y39700I1080J530D01*
G02X21961Y40450I1201J0D01*
G37*
G36*
G01X212264Y39036D02*
G02X211928Y39870I867J834D01*
G02X213130Y41072I1202J0D01*
G02X213864Y40822I0J-1203D01*
G02X214598Y41072I734J-953D01*
G02X215348Y40809I0J-1201D01*
G02X216098Y41072I750J-938D01*
G02X217300Y39870I0J-1202D01*
G02X216995Y39070I-1202J0D01*
G02X217300Y38270I-897J-800D01*
G02X216098Y37068I-1202J0D01*
G02X215348Y37331I0J1201D01*
G02X214598Y37068I-750J938D01*
G02X213910Y37284I0J1202D01*
G02X213098Y36968I-812J885D01*
G02X211896Y38170I0J1202D01*
G02X212264Y39036I1203J0D01*
G37*
G36*
G01X4281Y37500D02*
G02X4018Y38250I938J750D01*
G02X5220Y39452I1202J0D01*
G02X5970Y39189I0J-1201D01*
G02X6720Y39452I750J-938D01*
G02X7922Y38250I0J-1202D01*
G02X7659Y37500I-1201J0D01*
G02X7896Y36998I-939J-750D01*
G03X8440Y36711I391J83D01*
G02X8900Y36802I459J-1111D01*
G02Y34398I0J-1202D01*
G02X8083Y34718I0J1203D01*
G03X7772Y34668I-136J-146D01*
G02X7659Y34500I-1050J584D01*
G02X7922Y33750I-938J-750D01*
G02X6720Y32548I-1202J0D01*
G02X5970Y32811I0J1201D01*
G02X5220Y32548I-750J938D01*
G02X4018Y33750I0J1202D01*
G02X4281Y34500I1201J0D01*
G02Y36000I938J750D01*
G02Y37500I938J750D01*
G37*
G36*
G01X70388Y37408D02*
G03X70912I262J302D01*
G02X71700Y37702I788J-909D01*
G02X72490Y37406I0J-1202D01*
G03X73030Y37418I263J301D01*
G02X73861Y37752I831J-867D01*
G02Y35348I0J-1202D01*
G02X73071Y35644I0J1202D01*
G03X72531Y35632I-263J-301D01*
G02X71700Y35298I-831J867D01*
G02X70912Y35592I0J1203D01*
G03X70388I-262J-302D01*
G02X69600Y35298I-788J909D01*
G02Y37702I0J1202D01*
G02X70388Y37408I0J-1203D01*
G37*
G36*
G01X61400Y36177D02*
G02X62800I700J-976D01*
G02X63500Y36402I700J-976D01*
G02X64702Y35200I0J-1202D01*
G02X64477Y34500I-1201J0D01*
G02X64702Y33800I-976J-700D01*
G02X63500Y32598I-1202J0D01*
G02X62298Y33798I0J1202D01*
G03X62098Y33998I-200J0D01*
G02X61400Y34223I2J1202D01*
G02X60700Y33998I-700J976D01*
G02Y36402I0J1202D01*
G02X61400Y36177I0J-1201D01*
G37*
G36*
G01X70388Y34208D02*
G03X70912I262J302D01*
G02X72488I788J-909D01*
G03X73012I262J302D01*
G02X73800Y34502I788J-909D01*
G02Y32098I0J-1202D01*
G02X73012Y32392I0J1203D01*
G03X72488I-262J-302D01*
G02X70912I-788J909D01*
G03X70388I-262J-302D01*
G02X69600Y32098I-788J909D01*
G02Y34502I0J1202D01*
G02X70388Y34208I0J-1203D01*
G37*
G36*
G01X209007Y32310D02*
G02X209232Y31610I-976J-700D01*
G02X206828I-1202J0D01*
G02X207053Y32310I1201J0D01*
G02X206828Y33010I976J700D01*
G02X209232I1202J0D01*
G02X209007Y32310I-1201J0D01*
G37*
G36*
G01X215658Y27907D02*
G02X214298I-680J990D01*
G02X213578Y27668I-719J963D01*
G02Y30072I0J1202D01*
G02X214258Y29861I0J-1201D01*
G02X214978Y30100I719J-963D01*
G02X215698Y29861I1J-1202D01*
G02X216378Y30072I680J-990D01*
G02Y27668I0J-1202D01*
G02X215658Y27907I-1J1202D01*
G37*
G36*
G01X207596Y25986D02*
G02X207278Y26800I883J814D01*
G02X207541Y27550I1201J0D01*
G02X207278Y28300I938J750D01*
G02X209682I1202J0D01*
G02X209419Y27550I-1201J0D01*
G02X209682Y26800I-938J-750D01*
G02X209364Y25986I-1201J0D01*
G03Y25714I147J-136D01*
G02X209682Y24900I-883J-814D01*
G02X207278I-1202J0D01*
G02X207596Y25714I1201J0D01*
G03Y25986I-147J136D01*
G37*
G36*
G01X-4584Y27014D02*
G03Y27286I-147J136D01*
G02X-4902Y28100I883J814D01*
G02X-2498I1202J0D01*
G02X-2816Y27286I-1201J0D01*
G03Y27014I147J-136D01*
G02X-2498Y26200I-883J-814D01*
G02X-2511Y26025I-1202J1D01*
G03X-2351Y25800I198J-29D01*
G02X-1378Y24620I-229J-1180D01*
G02X-3782I-1202J0D01*
G02X-3769Y24795I1202J-1D01*
G03X-3929Y25020I-198J29D01*
G02X-4902Y26200I229J1180D01*
G02X-4584Y27014I1201J0D01*
G37*
G36*
G01X43261Y21250D02*
G02Y22750I938J750D01*
G02X42998Y23500I938J750D01*
G02X45402I1202J0D01*
G02X45139Y22750I-1201J0D01*
G02Y21250I-938J-750D01*
G02X45402Y20500I-938J-750D01*
G02X42998I-1202J0D01*
G02X43261Y21250I1201J0D01*
G37*
G36*
G01X25150Y21461D02*
G02X24400Y21198I-750J938D01*
G02Y23602I0J1202D01*
G02X25150Y23339I0J-1201D01*
G02X26650I750J-938D01*
G02X27400Y23602I750J-938D01*
G02Y21198I0J-1202D01*
G02X26650Y21461I0J1201D01*
G02X25150I-750J938D01*
G37*
G36*
G01X-15770Y20775D02*
G02X-14170I800J-897D01*
G02X-12570I800J-897D01*
G02X-11770Y21080I800J-897D01*
G02X-10568Y19878I0J-1202D01*
G02X-10831Y19128I-1201J0D01*
G02X-10568Y18378I-938J-750D01*
G02X-11770Y17176I-1202J0D01*
G02X-12570Y17481I0J1202D01*
G02X-14170I-800J897D01*
G02X-15770I-800J897D01*
G02X-16570Y17176I-800J897D01*
G02X-17772Y18378I0J1202D01*
G02X-17509Y19128I1201J0D01*
G02X-17772Y19878I938J750D01*
G02X-16570Y21080I1202J0D01*
G02X-15770Y20775I0J-1202D01*
G37*
G36*
G01X70388Y19108D02*
G03X70912I262J302D01*
G02X71700Y19402I788J-909D01*
G02X72490Y19106I0J-1202D01*
G03X73030Y19118I263J301D01*
G02X73861Y19452I831J-867D01*
G02Y17048I0J-1202D01*
G02X73071Y17344I0J1202D01*
G03X72531Y17332I-263J-301D01*
G02X71700Y16998I-831J867D01*
G02X70912Y17292I0J1203D01*
G03X70388I-262J-302D01*
G02X69600Y16998I-788J909D01*
G02Y19402I0J1202D01*
G02X70388Y19108I0J-1203D01*
G37*
G36*
G01X61400Y17877D02*
G02X62800I700J-976D01*
G02X63500Y18102I700J-976D01*
G02X64702Y16900I0J-1202D01*
G02X64477Y16200I-1201J0D01*
G02X64702Y15500I-976J-700D01*
G02X63500Y14298I-1202J0D01*
G02X62298Y15498I0J1202D01*
G03X62098Y15698I-200J0D01*
G02X61400Y15923I2J1202D01*
G02X60700Y15698I-700J976D01*
G02Y18102I0J1202D01*
G02X61400Y17877I0J-1201D01*
G37*
G36*
G01X70388Y15908D02*
G03X70912I262J302D01*
G02X72488I788J-909D01*
G03X73012I262J302D01*
G02X73800Y16202I788J-909D01*
G02Y13798I0J-1202D01*
G02X73012Y14092I0J1203D01*
G03X72488I-262J-302D01*
G02X70912I-788J909D01*
G03X70388I-262J-302D01*
G02X69600Y13798I-788J909D01*
G02Y16202I0J1202D01*
G02X70388Y15908I0J-1203D01*
G37*
G54D25*
X3508Y166792D03*
X930Y168010D03*
X165200Y194100D03*
X144800Y193650D03*
X125000D03*
X96087Y177900D03*
X-12100Y178300D03*
X-15700Y180550D03*
X-17532Y183499D03*
X-35718Y179932D03*
X236100Y176410D03*
X214000Y176300D03*
X216810Y166710D03*
X199300Y176400D03*
X78100Y169631D03*
X66271Y172500D03*
X50255D03*
X34300Y171200D03*
X30300D03*
X26300D03*
X22300D03*
X13500Y166900D03*
X18300Y171200D03*
X8500Y166800D03*
X-12100Y167500D03*
Y171100D03*
X-25500Y176200D03*
X-17537Y176303D03*
X-17500Y169078D03*
X-35718Y165532D03*
Y172732D03*
X264500Y157700D03*
Y154700D03*
X260500D03*
X259984Y158114D03*
X254150Y154690D03*
X249500Y154700D03*
X254078Y158114D03*
X155600Y157800D03*
X152300D03*
X136594Y164100D03*
X133445Y165400D03*
X138170Y154126D03*
X135020D03*
X116123D03*
X125571Y157276D03*
Y154126D03*
X119272Y157276D03*
X116123D03*
X119200Y160276D03*
X115900Y161150D03*
X94150Y153700D03*
X85670Y153590D03*
X70053Y156902D03*
X63790Y154110D03*
X54600Y153740D03*
Y157680D03*
X33200Y164300D03*
X27500Y154300D03*
Y158734D03*
X13508Y160308D03*
X18300Y161200D03*
X20300Y163200D03*
X8508Y160308D03*
X3508Y154400D03*
X-12100Y156700D03*
Y164300D03*
X-29250Y162550D03*
X-35718Y158332D03*
X272300Y148200D03*
X268300D03*
X260300Y145200D03*
X264300Y148200D03*
X260300D03*
X260500Y151700D03*
X264500D03*
X249300Y145200D03*
X253950Y145190D03*
Y148190D03*
X249300Y148200D03*
X249500Y151700D03*
X254150Y151690D03*
X241800Y142200D03*
X236200Y150810D03*
X239000Y152210D03*
X241400Y147900D03*
X241600Y150700D03*
X214300Y151000D03*
X172814Y144677D03*
X169664D03*
X166515D03*
X163365Y147827D03*
X160215Y144677D03*
Y147827D03*
X157066Y150977D03*
X163365Y144677D03*
X160215Y150977D03*
X150767Y144677D03*
X147617D03*
Y150977D03*
X150767D03*
X147618Y147828D03*
X150767Y147827D03*
X141318Y144677D03*
X131871Y150977D03*
X128721D03*
X135020D03*
Y147827D03*
X138170Y150977D03*
X128721Y144677D03*
Y147827D03*
X122422Y150977D03*
X119272Y144677D03*
X125571D03*
X119272Y150977D03*
X116123D03*
X125571Y147827D03*
X122422D03*
X119272D03*
X116123Y144677D03*
Y147827D03*
X125571Y150977D03*
X106700Y150526D03*
X109823Y147827D03*
X112973Y150977D03*
Y144677D03*
Y147827D03*
X109823Y144677D03*
X106673Y144678D03*
X101800Y144787D03*
X82300Y150200D03*
X77700Y149000D03*
X36734Y150934D03*
X39734D03*
X27500Y149800D03*
X30415Y151770D03*
X20010Y151510D03*
X16300Y142200D03*
X13500Y144500D03*
X-12000Y153350D03*
X-30074Y148100D03*
X-35718Y151132D03*
X260300Y141200D03*
X253950Y141190D03*
X237600Y140800D03*
X240400Y139400D03*
X223566Y136489D03*
X213700Y136789D03*
X210100Y139400D03*
X195300Y138200D03*
X153916Y141528D03*
X157066D03*
Y132079D03*
X153916Y138378D03*
Y132079D03*
X160215Y141528D03*
X150767Y132079D03*
X147618Y132080D03*
X141318Y132079D03*
X128721Y138378D03*
X131871Y135229D03*
X135020D03*
X128721D03*
X131871Y138378D03*
X128721Y141528D03*
X131871Y132079D03*
X122422Y141528D03*
X119272D03*
X125571D03*
Y138378D03*
Y135229D03*
X116123Y138378D03*
Y141528D03*
X122422Y135229D03*
Y138378D03*
X119272Y135229D03*
X122422Y132079D03*
X119296Y138404D03*
X125571Y132079D03*
X109823Y141528D03*
Y138378D03*
X112973D03*
X47325Y140675D03*
X50200Y132731D03*
X52140Y140840D03*
X27934Y132634D03*
X29734Y140934D03*
X16300Y136200D03*
X262755Y121355D03*
X251755D03*
X211756Y128800D03*
X211600Y118440D03*
X208700Y127500D03*
X153916Y128929D03*
X157066Y125780D03*
X153916Y119482D03*
X157066Y128929D03*
X153916Y125780D03*
X157066Y119482D03*
X150767Y125780D03*
X141318Y128929D03*
X147617D03*
X144467Y125780D03*
X147617Y119482D03*
X141318D03*
X144467Y128929D03*
X141318Y125780D03*
X150767Y128929D03*
X147617Y125780D03*
X150767Y119482D03*
X144467D03*
X138200Y122600D03*
X138100Y125700D03*
X135020Y125780D03*
X128721Y128929D03*
X131871Y125780D03*
X135020Y128929D03*
X122422Y125780D03*
X125571D03*
X122422Y128929D03*
X44500Y119700D03*
X44000Y122700D03*
X16300Y126990D03*
X259610Y109870D03*
X266540Y109740D03*
X265494Y117000D03*
X223800Y110500D03*
X232300Y112860D03*
X201870Y109790D03*
X199200Y115000D03*
X73650Y113724D03*
X59500Y110900D03*
X63184Y109484D03*
X39052Y112884D03*
X260776Y102824D03*
X268440Y102740D03*
X245100Y101590D03*
X72400Y103329D03*
X78350Y99450D03*
X49279Y105800D03*
X45279D03*
Y101800D03*
Y97800D03*
X49279D03*
Y101800D03*
X53279D03*
Y97800D03*
X41279D03*
Y101800D03*
Y105800D03*
X32047Y95455D03*
Y103329D03*
X28710Y104823D03*
X72900Y92700D03*
X60600Y90400D03*
X61500Y84300D03*
X51651Y86049D03*
X53279Y93800D03*
X49279D03*
X45279D03*
X39700Y84500D03*
X41279Y93800D03*
X28710Y94023D03*
X51900Y81084D03*
X56100D03*
X49584Y77284D03*
X47400Y81084D03*
X43222Y78422D03*
X37900Y80400D03*
X27700Y80700D03*
X19400Y77360D03*
X10300Y80200D03*
X253200Y64990D03*
X215310Y62660D03*
X222200Y69500D03*
X212900Y69300D03*
X73800Y59700D03*
X65300Y63700D03*
X7090Y67521D03*
X65930Y48000D03*
X-3391Y54170D03*
X-7897Y58351D03*
X69730Y45700D03*
X73800Y41400D03*
X53100Y36000D03*
Y39500D03*
Y43000D03*
X40300Y38500D03*
X35900D03*
X31200D03*
X10080Y44750D03*
X12100Y40620D03*
X200600Y27800D03*
X199400Y23100D03*
X193800Y31000D03*
X191275Y28575D03*
X69730Y27400D03*
X73800Y23100D03*
X65930Y29600D03*
X53100Y25500D03*
Y29000D03*
Y32500D03*
X35900Y29100D03*
X40300Y29000D03*
Y34200D03*
X35900Y34300D03*
X21100Y24300D03*
X31200Y34400D03*
Y29100D03*
X9500Y23300D03*
Y27400D03*
X8904Y31500D03*
X2187Y31470D03*
X-20621Y26293D03*
X214840Y20860D03*
X216232Y15370D03*
X206690Y21780D03*
X205880Y15370D03*
X96660Y13160D03*
X79870Y16910D03*
X49600Y12000D03*
X46100D03*
Y15000D03*
X49600D03*
X53100D03*
Y18500D03*
Y22000D03*
X36585Y22300D03*
X32645D03*
X13100Y19109D03*
X-20621Y22243D03*
X224980Y8469D03*
X175000Y5450D03*
X116300Y10200D03*
X121300D03*
X126300D03*
X106300D03*
X111300D03*
X101300D03*
X82800Y9900D03*
X-21878Y154962D03*
X-1492Y160308D03*
X-1200Y157300D03*
X-1410Y174700D03*
G54D26*
X240000Y185000D03*
X230000D03*
X220000D03*
X210000D03*
X190000D03*
X180000D03*
X170000D03*
X160000D03*
X150000D03*
X140000D03*
X120000D03*
X110000D03*
X100000D03*
X90000D03*
X80000D03*
X70000D03*
X60000D03*
X50000D03*
X40000D03*
X220000Y5000D03*
X210000D03*
X200000D03*
X190000D03*
X180000D03*
X170000D03*
X160000D03*
X150000D03*
X140000D03*
X130000D03*
X120000D03*
X110000D03*
X100000D03*
X90000D03*
X80000D03*
X70000D03*
X60000D03*
X50000D03*
X40000D03*
X20000D03*
G54D27*
X149839Y174530D03*
X139839D03*
X129839D03*
X119839D03*
G54D28*
X229472Y30301D03*
%LPD*%
G75*
G36*
G01X117300Y127181D02*
G02X116706Y126831I-400J0D01*
G03X116123Y126982I-583J-1050D01*
G03Y124578I0J-1202D01*
G03X116706Y124729I0J1201D01*
G02X117300Y124379I194J-350D01*
G01Y124029D01*
G02X116707Y123679I-400J0D01*
G03X116126Y123829I-581J-1052D01*
G03Y121425I0J-1202D01*
G03X116707Y121575I0J1202D01*
G02X117300Y121225I193J-350D01*
G01Y119300D01*
X118657Y117943D01*
G02X118599Y117329I-283J-283D01*
G03X118070Y116333I673J-996D01*
G03X120474I1202J0D01*
G03X120365Y116833I-1201J0D01*
G02X120728Y117400I363J167D01*
G01X120966D01*
G02X121329Y116833I0J-400D01*
G03X121220Y116333I1092J-500D01*
G03X123624I1202J0D01*
G03X123515Y116833I-1201J0D01*
G02X123878Y117400I363J167D01*
G01X124115D01*
G02X124478Y116833I0J-400D01*
G03X124369Y116333I1092J-500D01*
G03X126773I1202J0D01*
G03X126664Y116833I-1201J0D01*
G02X127027Y117400I363J167D01*
G01X127265D01*
G02X127628Y116833I0J-400D01*
G03X127519Y116333I1092J-500D01*
G03X129923I1202J0D01*
G03X129814Y116833I-1201J0D01*
G02X130177Y117400I363J167D01*
G01X130415D01*
G02X130778Y116833I0J-400D01*
G03X130669Y116333I1092J-500D01*
G03X133073I1202J0D01*
G03X132964Y116833I-1201J0D01*
G02X133327Y117400I363J167D01*
G01X136713D01*
G02X137076Y116833I0J-400D01*
G03X136966Y116331I1092J-502D01*
G03X139370I1202J0D01*
G03X139111Y117076I-1201J0D01*
G01X139001Y117215D01*
X139185Y117400D01*
X139700D01*
X140233Y116867D01*
X140189Y116747D01*
G03X140116Y116336I1129J-413D01*
G01Y116333D01*
G03X141318Y115131I1202J0D01*
G01X141321D01*
G03X141732Y115204I-2J1202D01*
G01X141852Y115248D01*
X142400Y114700D01*
X143319D01*
G02X143605Y114021I0J-400D01*
G03X143265Y113183I863J-838D01*
G03X145669I1202J0D01*
G03X145329Y114021I-1203J0D01*
G02X145615Y114700I286J279D01*
G01X149619D01*
G02X149905Y114021I0J-400D01*
G03X149565Y113183I863J-838D01*
G03X151969I1202J0D01*
G03X151629Y114021I-1203J0D01*
G02X151915Y114700I286J279D01*
G01X155200D01*
X156053Y113847D01*
X155990Y113718D01*
Y113717D01*
G03X155864Y113183I1076J-536D01*
G03X157066Y111981I1202J0D01*
G03X157601Y112107I-1J1202D01*
G01X157730Y112170D01*
X159203Y110697D01*
X159139Y110568D01*
G03X159013Y110033I1076J-536D01*
G03X160215Y108831I1202J0D01*
G03X160750Y108957I-1J1202D01*
G01X160879Y109021D01*
X162352Y107548D01*
X162289Y107419D01*
Y107418D01*
G03X162163Y106884I1076J-536D01*
G03X163365Y105682I1202J0D01*
G03X163900Y105808I-1J1202D01*
G01X164029Y105871D01*
X174512Y95388D01*
X174527Y95359D01*
Y95358D01*
G03X175059Y94827I1072J542D01*
G01X175088Y94812D01*
X178871Y91029D01*
G03X179261Y90632I1029J621D01*
G01X179280Y90620D01*
X182000Y87900D01*
X194489D01*
G02X194866Y87368I-1J-400D01*
G03X194798Y86970I1134J-399D01*
G01Y86969D01*
G03X195058Y86222I1202J0D01*
G01X195078Y86197D01*
X195124Y86070D01*
X195078Y85943D01*
X195058Y85918D01*
G03X194798Y85171I942J-747D01*
G01Y85170D01*
G03X197202I1202J0D01*
G01Y85171D01*
G03X196942Y85918I-1202J0D01*
G01X196922Y85943D01*
X196876Y86070D01*
X196922Y86197D01*
X196942Y86222D01*
G03X197202Y86969I-942J747D01*
G01Y86970D01*
G03X197134Y87368I-1202J-1D01*
G02X197511Y87900I378J132D01*
G01X202700D01*
X208700Y81900D01*
Y75399D01*
G02X208275Y75000I-400J0D01*
G03X208200Y75002I-70J-1200D01*
G03Y72598I0J-1202D01*
G03X208275Y72600I5J1202D01*
G02X208700Y72201I25J-399D01*
G01Y70515D01*
X208529Y70490D01*
G03Y68110I171J-1190D01*
G01X208700Y68085D01*
Y60300D01*
X209700Y59300D01*
X216200D01*
X218926Y62026D01*
G02X219467Y62050I284J-282D01*
G03X220240Y61768I773J920D01*
G03X221442Y62970I0J1202D01*
G03X221160Y63743I-1202J0D01*
G02X221184Y64284I306J257D01*
G01X223300Y66400D01*
X229300D01*
X230230Y65470D01*
G02X230185Y64866I-283J-283D01*
G03X229843Y64472I715J-966D01*
G03X229300Y64602I-544J-1072D01*
G03Y62198I0J-1202D01*
G03X230357Y62828I0J1202D01*
G03X230900Y62698I544J1072D01*
G03X231866Y63185I0J1202D01*
G02X232470Y63230I321J-238D01*
G01X233600Y62100D01*
Y54900D01*
X228500Y49800D01*
X214500D01*
X201450Y36750D01*
X190450D01*
X186800Y33100D01*
Y30122D01*
G02X186275Y29742I-400J0D01*
G03X185900Y29802I-375J-1142D01*
G03X185037Y29437I0J-1203D01*
G02X184463I-287J278D01*
G03X183600Y29802I-863J-838D01*
G03X182662Y29352I0J-1203D01*
G02X182038I-312J250D01*
G03X181100Y29802I-938J-753D01*
G03X179898Y28600I0J-1202D01*
G03X180372Y27643I1203J0D01*
G02Y27007I-242J-318D01*
G03X179898Y26050I729J-957D01*
G03X181100Y24848I1202J0D01*
G03X182023Y25280I0J1202D01*
G02X182647Y25267I307J-256D01*
G03X183600Y24798I953J734D01*
G03X184802Y26000I0J1202D01*
G03X184302Y26975I-1201J0D01*
G02Y27625I234J325D01*
G03X184463Y27763I-699J978D01*
G02X185037I287J-278D01*
G03X185900Y27398I863J838D01*
G03X186275Y27458I0J1202D01*
G02X186800Y27078I125J-380D01*
G01Y22100D01*
X185262Y20562D01*
X185179D01*
G03X183973Y19356I-4J-1202D01*
G01Y19273D01*
X181100Y16400D01*
X162045D01*
G02X161647Y16763I0J400D01*
G03X161266Y17532I-1197J-114D01*
G02X161228Y18078I272J293D01*
G03X161452Y18709I-778J632D01*
G01Y18710D01*
G03X160450Y19712I-1002J0D01*
G03X159722Y19399I0J-1003D01*
G02X159115Y19430I-290J275D01*
G03X158320Y19822I-795J-610D01*
G03X157318Y18820I0J-1002D01*
G03X157557Y18171I1001J0D01*
G02X157514Y17609I-305J-259D01*
G03X157100Y16775I786J-910D01*
G02X156701Y16400I-399J25D01*
G01X147500D01*
X146300Y17600D01*
Y24200D01*
X143500Y27000D01*
Y27627D01*
G02X144092Y27977I400J-1D01*
G03X144572Y27854I481J879D01*
G01X144574D01*
G03Y29858I0J1002D01*
G01X144572D01*
G03X144092Y29735I1J-1002D01*
G02X143500Y30085I-192J351D01*
G01Y33900D01*
X143954Y34354D01*
X144086Y34281D01*
G03X144574Y34154I488J874D01*
G03X145576Y35156I0J1002D01*
G03X145449Y35644I-1001J0D01*
G01X145376Y35776D01*
X145800Y36200D01*
Y40999D01*
G02X146466Y41297I400J0D01*
G03X147132Y41044I666J750D01*
G03Y43048I0J1002D01*
G03X146466Y42795I0J-1003D01*
G02X145800Y43093I-266J298D01*
G01Y46400D01*
X145000Y47200D01*
X144732D01*
X144681Y47235D01*
G03X144173Y47392I-508J-745D01*
G01X143908D01*
X143800Y47500D01*
Y48400D01*
X144000Y48600D01*
X147100D01*
X148839Y50339D01*
X148981Y50197D01*
G03X149691Y49902I710J707D01*
G03Y51906I0J1002D01*
G03X149340Y51843I-1J-1002D01*
G02X148800Y52217I-140J374D01*
G01Y52740D01*
G02X149340Y53114I400J0D01*
G03X149691Y53051I350J939D01*
G03Y55055I0J1002D01*
G03X149340Y54992I-1J-1002D01*
G02X148800Y55366I-140J374D01*
G01Y57400D01*
X144500Y61700D01*
X99700D01*
X98900Y60900D01*
Y59400D01*
X100100Y58200D01*
X110038D01*
G02X110399Y57630I-1J-400D01*
G03X110304Y57205I907J-426D01*
G01Y57203D01*
G03X112308I1002J0D01*
G01Y57205D01*
G03X112213Y57630I-1002J-1D01*
G02X112574Y58200I362J170D01*
G01X112597D01*
G02X112958Y57630I-1J-400D01*
G03X112863Y57205I907J-426D01*
G01Y57203D01*
G03X114867I1002J0D01*
G01Y57205D01*
G03X114772Y57630I-1002J-1D01*
G02X115133Y58200I362J170D01*
G01X115156D01*
G02X115517Y57630I-1J-400D01*
G03X115422Y57205I907J-426D01*
G01Y57203D01*
G03X117426I1002J0D01*
G01Y57205D01*
G03X117331Y57630I-1002J-1D01*
G02X117692Y58200I362J170D01*
G01X120274D01*
G02X120635Y57630I-1J-400D01*
G03X120540Y57205I907J-426D01*
G01Y57203D01*
G03X121542Y56201I1002J0D01*
G01X121544D01*
G03X121798Y56234I-1J1002D01*
G02X122300Y55848I102J-387D01*
G01Y55408D01*
G02X121798Y55022I-400J1D01*
G03X121541Y55055I-255J-969D01*
G03Y53051I0J-1002D01*
G03X121798Y53084I2J1002D01*
G02X122300Y52698I102J-387D01*
G01Y52259D01*
G02X121798Y51873I-400J1D01*
G03X121541Y51906I-255J-969D01*
G03Y49902I0J-1002D01*
G03X121798Y49935I2J1002D01*
G02X122300Y49549I102J-387D01*
G01Y45959D01*
G02X121798Y45573I-400J1D01*
G03X121544Y45606I-255J-969D01*
G01X121542D01*
G03Y43602I0J-1002D01*
G01X121544D01*
G03X121798Y43635I-1J1002D01*
G02X122300Y43249I102J-387D01*
G01Y33953D01*
G02X121798Y33567I-400J1D01*
G03X121544Y33600I-255J-969D01*
G01X121542D01*
G03Y31596I0J-1002D01*
G01X121544D01*
G03X121798Y31629I-1J1002D01*
G02X122300Y31243I102J-387D01*
G01Y29000D01*
X120282Y26982D01*
G02X119709Y26989I-283J282D01*
G03X118983Y27300I-726J-692D01*
G03Y25296I0J-1002D01*
G03X119210Y25322I0J1002D01*
G02X119700Y24933I90J-390D01*
G01Y24514D01*
G02X119210Y24125I-400J1D01*
G03X118983Y24151I-227J-976D01*
G03Y22147I0J-1002D01*
G03X119210Y22173I0J1002D01*
G02X119700Y21784I90J-390D01*
G01Y18800D01*
X118391Y17491D01*
G02X117718Y17687I-283J283D01*
G03X116740Y18472I-978J-217D01*
G03X115738Y17470I0J-1002D01*
G03X115860Y16991I1001J0D01*
G02X115509Y16400I-351J-191D01*
G01X114831D01*
G02X114480Y16991I0J400D01*
G03X114602Y17470I-879J479D01*
G03X113600Y18472I-1002J0D01*
G03X112814Y18091I0J-1001D01*
G02X112186I-314J248D01*
G03X111400Y18472I-786J-620D01*
G03X110398Y17470I0J-1002D01*
G03X110520Y16991I1001J0D01*
G02X110169Y16400I-351J-191D01*
G01X100400D01*
X97908Y18892D01*
G02X98068Y19556I283J283D01*
G03X98902Y20700I-368J1144D01*
G03X98586Y21512I-1201J0D01*
G03X98802Y22199I-986J688D01*
G01Y22200D01*
G03X98008Y23331I-1203J0D01*
G02X97801Y23912I136J376D01*
G03X97972Y24530I-1031J618D01*
G03X95568I-1202J0D01*
G03X95714Y23957I1202J1D01*
G02X95446Y23375I-352J-191D01*
G03X94674Y22825I255J-1175D01*
G02X94049Y22751I-342J209D01*
G01X91293Y25507D01*
X91362Y25637D01*
G03X91502Y26200I-1062J563D01*
G03X91239Y26950I-1201J0D01*
G02Y27450I313J250D01*
G03Y28950I-938J750D01*
G02Y29450I313J250D01*
G03X91502Y30200I-938J750D01*
G03X89098I-1202J0D01*
G03X89361Y29450I1201J0D01*
G02Y28950I-313J-250D01*
G03X89139Y28510I939J-750D01*
G02X88469Y28331I-387J103D01*
G01X80131Y36669D01*
G02X80310Y37339I282J283D01*
G03X81202Y38500I-310J1161D01*
G03X80000Y39702I-1202J0D01*
G03X79125Y39324I0J-1202D01*
G02X78849Y39308I-146J137D01*
G03X78524Y39506I-780J-914D01*
G01X78400Y39557D01*
Y55348D01*
G02X79017Y55684I400J0D01*
G03X79669Y55492I652J1011D01*
G03Y57896I0J1202D01*
G03X79017Y57704I0J-1203D01*
G02X78400Y58040I-217J336D01*
G01Y82100D01*
X83809Y87509D01*
G02X84469Y87362I283J-282D01*
G03X84703Y86968I1131J405D01*
G03X84398Y86168I897J-800D01*
G03X84661Y85418I1201J0D01*
G03X84398Y84668I938J-750D01*
G03X86802I1202J0D01*
G03X86539Y85418I-1201J0D01*
G03X86802Y86168I-938J750D01*
G03X86497Y86968I-1202J0D01*
G03Y88568I-897J800D01*
G03X86802Y89368I-897J800D01*
G03X85600Y90570I-1202J0D01*
G03X84775Y90242I0J-1202D01*
G02X84100Y90532I-275J290D01*
G01Y91912D01*
G02X84775Y92202I400J0D01*
G03X85600Y91874I825J874D01*
G03X86802Y93076I0J1202D01*
G03X86539Y93826I-1201J0D01*
G03X86802Y94576I-938J750D01*
G03X86497Y95376I-1202J0D01*
G03Y96976I-897J800D01*
G03X86802Y97776I-897J800D01*
G03X85600Y98978I-1202J0D01*
G03X84775Y98650I0J-1202D01*
G02X84100Y98940I-275J290D01*
G01Y100136D01*
G02X84775Y100426I400J0D01*
G03X85600Y100098I825J874D01*
G03X86802Y101300I0J1202D01*
G03X86539Y102050I-1201J0D01*
G03X86802Y102800I-938J750D01*
G03X86497Y103600I-1202J0D01*
G03X86802Y104400I-897J800D01*
G03X85600Y105602I-1202J0D01*
G03X84775Y105274I0J-1202D01*
G02X84100Y105564I-275J290D01*
G01Y134200D01*
X85500Y135600D01*
X108221D01*
G02X108621Y135207I0J-400D01*
G03X109823Y134027I1202J22D01*
G03X111025Y135229I0J1202D01*
G03X111016Y135372I-1202J-4D01*
G01X111015Y135384D01*
Y135600D01*
X111371D01*
G02X111771Y135207I0J-400D01*
G03X112973Y134027I1202J22D01*
G03X114097Y134804I0J1201D01*
G02X114754Y134946I374J-141D01*
G01X115096Y134604D01*
X115108Y134585D01*
G03X115497Y134203I1015J644D01*
G01X117300Y132400D01*
Y130330D01*
G02X116706Y129980I-400J0D01*
G03X116123Y130131I-583J-1050D01*
G03Y127727I0J-1202D01*
G03X116706Y127878I0J1201D01*
G02X117300Y127528I194J-350D01*
G01Y127181D01*
G37*
G36*
G01X178501Y97102D02*
X178500D01*
G03X177298Y95900I0J-1202D01*
G03X177339Y95589I1202J0D01*
G01X177369Y95477D01*
X177146Y95254D01*
X176775Y95625D01*
X176789Y95725D01*
G03X176802Y95900I-1189J176D01*
G03X175600Y97102I-1202J0D01*
G03X175425Y97089I1J-1202D01*
G01X175325Y97075D01*
X167127Y105273D01*
G02X167187Y105887I283J282D01*
G03X167717Y106884I-673J997D01*
G03X166515Y108086I-1202J0D01*
G03X165518Y107556I0J-1203D01*
G02X164904Y107496I-332J223D01*
G01X163978Y108422D01*
G02X164037Y109036I283J283D01*
G03X164567Y110033I-673J997D01*
G03X163365Y111235I-1202J0D01*
G03X162368Y110705I0J-1203D01*
G02X161754Y110646I-331J224D01*
G01X160828Y111572D01*
G02X160887Y112186I283J283D01*
G03X161417Y113183I-673J997D01*
G03X160545Y114339I-1202J0D01*
G01X160400Y114380D01*
Y115136D01*
X160545Y115177D01*
G03Y117489I-330J1156D01*
G01X160400Y117530D01*
Y118285D01*
X160545Y118326D01*
G03Y120638I-330J1156D01*
G01X160400Y120679D01*
Y124583D01*
X160545Y124624D01*
G03Y126936I-330J1156D01*
G01X160400Y126977D01*
Y127732D01*
X160545Y127773D01*
G03Y130085I-330J1156D01*
G01X160400Y130126D01*
Y130882D01*
X160545Y130923D01*
G03Y133235I-330J1156D01*
G01X160400Y133276D01*
Y134032D01*
X160545Y134073D01*
G03X161417Y135229I-330J1156D01*
G03X161105Y136036I-1202J-1D01*
G01X160978Y136178D01*
X162416Y137616D01*
X162557Y137488D01*
G03X163365Y137176I808J890D01*
G03X164567Y138378I0J1202D01*
G03X164501Y138770I-1202J-1D01*
G02X164880Y139300I378J130D01*
G01X165000D01*
G02X165379Y138770I1J-400D01*
G03X165313Y138378I1136J-393D01*
G03X167717I1202J0D01*
G03X167651Y138770I-1202J-1D01*
G02X168030Y139300I378J130D01*
G01X171299D01*
G02X171678Y138770I1J-400D01*
G03X171612Y138378I1136J-393D01*
G03X174016I1202J0D01*
G03X173950Y138770I-1202J-1D01*
G02X174329Y139300I378J130D01*
G01X185000D01*
X189100Y135200D01*
Y118342D01*
G03Y116258I601J-1042D01*
G01Y106500D01*
X192800Y102800D01*
X202100D01*
X203900Y101000D01*
Y92600D01*
X201100Y89800D01*
X182600D01*
X182482Y89918D01*
G02X182624Y90575I283J283D01*
G03X183402Y91700I-424J1125D01*
G03X182784Y92750I-1201J0D01*
G02Y93450I195J350D01*
G03X183402Y94500I-583J1050D01*
G03X182200Y95702I-1202J0D01*
G03X181569Y95523I0J-1202D01*
G02X181059Y95600I-209J341D01*
G03X180840Y95794I-901J-796D01*
G02X180826Y96442I228J329D01*
G03X181302Y97400I-726J958D01*
G03X180100Y98602I-1202J0D01*
G03X178900Y97477I0J-1202D01*
G02X178501Y97102I-399J25D01*
G37*
%LPC*%
G75*
G36*
G01X92094Y123301D02*
G02X91070Y122729I-1024J631D01*
G02Y125133I0J1202D01*
G02X91701Y124954I0J-1202D01*
G03X91976Y125020I105J170D01*
G02X93000Y125592I1024J-631D01*
G02X94070Y124938I0J-1202D01*
G03X94768Y124913I356J182D01*
G02X95796Y125492I1028J-623D01*
G02X96808Y124939I0J-1202D01*
G03X97358Y124816I337J215D01*
G02X98000Y125002I642J-1015D01*
G02Y122598I0J-1202D01*
G02X97556Y122683I0J1202D01*
G03X97008Y122318I-148J-371D01*
G02X96989Y122125I-1202J21D01*
G03X97117Y121903I197J-34D01*
G02X97902Y120775I-418J-1128D01*
G02X95498I-1202J0D01*
G02X95517Y120988I1202J0D01*
G03X95389Y121210I-197J34D01*
G02X94604Y122338I418J1128D01*
G02X94939Y123170I1201J0D01*
G03X94937Y123449I-144J138D01*
G02X94726Y123742I859J841D01*
G03X94028Y123767I-356J-182D01*
G02X93000Y123188I-1028J623D01*
G02X92369Y123367I0J1202D01*
G03X92094Y123301I-105J-170D01*
G37*
G36*
G01X170708Y87182D02*
G02X169764Y86724I-944J744D01*
G02Y89128I0J1202D01*
G02X170723Y88651I0J-1203D01*
G03X171356Y88644I319J241D01*
G02X172300Y89102I944J-744D01*
G02Y86698I0J-1202D01*
G02X171341Y87175I0J1203D01*
G03X170708Y87182I-319J-241D01*
G37*
G36*
G01X184643Y72491D02*
G02X184500Y73060I1059J569D01*
G02X185702Y71858I1202J0D01*
G01X185671D01*
G03X185309Y71269I-10J-400D01*
G02X185452Y70700I-1059J-569D01*
G02X184250Y69498I-1202J0D01*
G02X183983Y69528I0J1203D01*
G03X183497Y69094I-89J-390D01*
G02X183504Y68960I-1195J-130D01*
G02X181100I-1202J0D01*
G02X181111Y69121I1202J-1D01*
G03X180592Y69555I-396J53D01*
G02X180225Y69498I-366J1145D01*
G02X179900Y69543I1J1202D01*
G03X179395Y69108I-108J-385D01*
G02X179404Y68960I-1193J-147D01*
G02X177000I-1202J0D01*
G02X177009Y69104I1202J-3D01*
G03X176509Y69538I-397J48D01*
G02X176200Y69498I-308J1162D01*
G02X177402Y70700I0J1202D01*
G02X177393Y70556I-1202J3D01*
G03X177893Y70122I397J-48D01*
G02X178202Y70162I308J-1162D01*
G02X178527Y70117I-1J-1202D01*
G03X179032Y70552I108J385D01*
G02X179023Y70700I1193J147D01*
G02X181427I1202J0D01*
G02X181416Y70539I-1202J1D01*
G03X181935Y70105I396J-53D01*
G02X182302Y70162I366J-1145D01*
G02X182569Y70132I0J-1203D01*
G03X183055Y70566I89J390D01*
G02X183048Y70700I1195J130D01*
G02X184250Y71902I1202J0D01*
G01X184281D01*
G03X184643Y72491I10J400D01*
G37*
G36*
G01X180922Y60632D02*
G02X180900Y60860I1180J229D01*
G02X183304I1202J0D01*
G02X183277Y60604I-1202J-3D01*
G03X183794Y60140I391J-85D01*
G02X184175Y60202I381J-1140D01*
G02X182973Y59000I0J-1202D01*
G02X183000Y59256I1202J3D01*
G03X182483Y59720I-391J85D01*
G02X182102Y59658I-381J1140D01*
G02X181818Y59692I0J1203D01*
G03X181330Y59228I-95J-389D01*
G02X181352Y59000I-1180J-229D01*
G02X178948I-1202J0D01*
G02X178970Y59227I1202J-2D01*
G03X178483Y59691I-393J75D01*
G02X178202Y59658I-280J1169D01*
G02X177818Y59721I0J1202D01*
G03X177299Y59257I-128J-379D01*
G02X177327Y59000I-1174J-258D01*
G02X176125Y60202I-1202J0D01*
G02X176509Y60139I0J-1202D01*
G03X177028Y60603I128J379D01*
G02X177000Y60860I1174J258D01*
G02X179404I1202J0D01*
G02X179382Y60633I-1202J2D01*
G03X179869Y60169I393J-75D01*
G02X180150Y60202I280J-1169D01*
G02X180434Y60168I0J-1203D01*
G03X180922Y60632I95J389D01*
G37*
G36*
G01X187046Y58665D02*
G02X186998Y59000I1154J336D01*
G02X188200Y57798I1202J0D01*
G02X188080Y57804I0J1203D01*
G03X187656Y57295I-40J-398D01*
G02X187704Y56960I-1154J-336D01*
G02X186502Y58162I-1202J0D01*
G02X186622Y58156I0J-1203D01*
G03X187046Y58665I40J398D01*
G37*
G36*
G01X153379Y44485D02*
G02X152493Y43951I-886J468D01*
G02Y45955I0J1002D01*
G02X153262Y45595I0J-1001D01*
G03X153923Y45664I307J256D01*
G02X154809Y46198I886J-468D01*
G02Y44194I0J-1002D01*
G02X154040Y44554I0J1001D01*
G03X153379Y44485I-307J-256D01*
G37*
G36*
G01X158619Y44187D02*
G02X157803Y43766I-816J580D01*
G02Y45770I0J1002D01*
G02X158586Y45394I0J-1003D01*
G03X159224Y45411I313J249D01*
G02X160040Y45832I816J-580D01*
G02Y43828I0J-1002D01*
G02X159257Y44204I0J1003D01*
G03X158619Y44187I-313J-249D01*
G37*
G36*
G01X175303Y34100D02*
G02X174998Y34900I897J800D01*
G02X177402I1202J0D01*
G02X177097Y34100I-1202J0D01*
G02X177402Y33300I-897J-800D01*
G02X177097Y32500I-1202J0D01*
G02X177400Y31768I-897J-800D01*
G03X177974Y31431I399J23D01*
G02X178500Y31552I526J-1081D01*
G02Y29148I0J-1202D01*
G02X177300Y30282I0J1202D01*
G03X176726Y30619I-399J-23D01*
G02X176200Y30498I-526J1081D01*
G02X174998Y31700I0J1202D01*
G02X175303Y32500I1202J0D01*
G02X174998Y33300I897J800D01*
G02X175303Y34100I1202J0D01*
G37*
G36*
G01X97178Y131325D02*
G03X97427Y131787I-141J374D01*
G02X97398Y132050I1173J262D01*
G02X99802I1202J0D01*
G02X99024Y130925I-1202J0D01*
G03X98775Y130463I141J-374D01*
G02X98804Y130200I-1173J-262D01*
G02X97602Y128998I-1202J0D01*
G02X96856Y129258I1J1202D01*
G03X96585Y129236I-124J-157D01*
G02X95700Y128848I-885J815D01*
G02X94815Y129237I0J1201D01*
G03X94544Y129259I-147J-135D01*
G02X93800Y129001I-744J944D01*
G02X93079Y129241I0J1203D01*
G03X92808Y129212I-120J-160D01*
G02X91900Y128798I-908J789D01*
G02X91086Y129116I0J1201D01*
G03X90814I-136J-147D01*
G02X90000Y128798I-814J883D01*
G02X88798Y130000I0J1202D01*
G02X89643Y131148I1202J0D01*
G03X89779Y131384I-59J191D01*
G02X89748Y131653I1171J271D01*
G02X92152I1202J0D01*
G02X92121Y131384I-1202J2D01*
G03X92257Y131148I195J-45D01*
G02X92621Y130962I-357J-1148D01*
G03X92892Y130991I120J160D01*
G02X93442Y131350I907J-789D01*
G03X93577Y131585I-60J191D01*
G02X93548Y131850I1173J262D01*
G02X95952I1202J0D01*
G02X95927Y131608I-1202J2D01*
G03X96165Y131159I392J-80D01*
G02X96446Y130992I-468J-1107D01*
G03X96717Y131014I124J157D01*
G02X97178Y131325I885J-814D01*
G37*
G36*
G01X96978Y111478D02*
G03X96722I-128J-153D01*
G02X95950Y111198I-771J922D01*
G02Y113602I0J1202D01*
G02X96722Y113322I1J-1202D01*
G03X96978I128J153D01*
G02X97750Y113602I771J-922D01*
G02Y111198I0J-1202D01*
G02X96978Y111478I-1J1202D01*
G37*
G36*
G01X91923Y101700D02*
G02Y103100I976J700D01*
G02X91698Y103800I976J700D01*
G02X94102I1202J0D01*
G02X93877Y103100I-1201J0D01*
G02Y101700I-976J-700D01*
G02X94102Y101000I-976J-700D01*
G02X91698I-1202J0D01*
G02X91923Y101700I1201J0D01*
G37*
G36*
G01X92003Y95500D02*
G02X91698Y96300I897J800D01*
G02X91961Y97050I1201J0D01*
G02X91698Y97800I938J750D01*
G02X94102I1202J0D01*
G02X93839Y97050I-1201J0D01*
G02X94102Y96300I-938J-750D01*
G02X93797Y95500I-1202J0D01*
G02X94102Y94700I-897J-800D01*
G02X93822Y93928I-1202J-1D01*
G03Y93672I153J-128D01*
G02X94102Y92900I-922J-771D01*
G02X91698I-1202J0D01*
G02X91978Y93672I1202J1D01*
G03Y93928I-153J128D01*
G02X91698Y94700I922J771D01*
G02X92003Y95500I1202J0D01*
G37*
G36*
G01X185800Y85204D02*
G03X185200I-300J-265D01*
G02X184300Y84798I-901J796D01*
G02Y87202I0J1202D01*
G02X185200Y86796I-1J-1202D01*
G03X185800I300J265D01*
G02X186700Y87202I901J-796D01*
G02Y84798I0J-1202D01*
G02X185800Y85204I1J1202D01*
G37*
G36*
G01X81611Y74427D02*
G03X81411Y74598I-198J-29D01*
G01X81400D01*
G02Y77002I0J1202D01*
G02X82589Y75973I0J-1201D01*
G03X82789Y75802I198J29D01*
G01X82800D01*
G02X83989Y74773I0J-1201D01*
G03X84189Y74602I198J29D01*
G01X84200D01*
G02X85389Y73573I0J-1201D01*
G03X85589Y73402I198J29D01*
G01X85600D01*
G02X86789Y72373I0J-1201D01*
G03X86989Y72202I198J29D01*
G01X87000D01*
G02X88198Y71103I0J-1202D01*
G03X88400Y70920I199J17D01*
G01X88418D01*
G02X89620Y69720I0J-1202D01*
G03X89820Y69520I200J0D01*
G02X91020Y68318I-2J-1202D01*
G02X89818Y67116I-1202J0D01*
G02X88616Y68316I0J1202D01*
G03X88416Y68516I-200J0D01*
G02X87220Y69615I2J1202D01*
G03X87018Y69798I-199J-17D01*
G01X87000D01*
G02X85811Y70827I0J1201D01*
G03X85611Y70998I-198J-29D01*
G01X85600D01*
G02X84411Y72027I0J1201D01*
G03X84211Y72198I-198J-29D01*
G01X84200D01*
G02X83011Y73227I0J1201D01*
G03X82811Y73398I-198J-29D01*
G01X82800D01*
G02X81611Y74427I0J1201D01*
G37*
G36*
G01X199578Y74372D02*
G03Y74628I-153J128D01*
G02X199298Y75400I922J771D01*
G02X201702I1202J0D01*
G02X201422Y74628I-1202J-1D01*
G03Y74372I153J-128D01*
G02X201702Y73600I-922J-771D01*
G02X201342Y72743I-1202J1D01*
G02X201687Y71900I-857J-843D01*
G02X199283I-1202J0D01*
G02X199643Y72757I1202J-1D01*
G02X199298Y73600I857J843D01*
G02X199578Y74372I1202J1D01*
G37*
G36*
G01X92071Y62260D02*
G03Y62760I-313J250D01*
G02X91808Y63510I938J750D01*
G02X94212I1202J0D01*
G02X93949Y62760I-1201J0D01*
G03Y62260I313J-250D01*
G02Y60760I-938J-750D01*
G03Y60260I313J-250D01*
G02X94212Y59510I-938J-750D01*
G02X91808I-1202J0D01*
G02X92071Y60260I1201J0D01*
G03Y60760I-313J250D01*
G02Y62260I938J750D01*
G37*
G36*
G01X86350Y54450D02*
G02X85998Y55300I850J850D01*
G02X87200Y56502I1202J0D01*
G02X88050Y56150I0J-1202D01*
G02X89750I850J-850D01*
G02X90600Y56502I850J-850D01*
G02X91802Y55300I0J-1202D01*
G02X91450Y54450I-1202J0D01*
G02Y52750I-850J-850D01*
G02X91802Y51900I-850J-850D01*
G02X90600Y50698I-1202J0D01*
G02X89750Y51050I0J1202D01*
G02X88050I-850J850D01*
G02X87200Y50698I-850J850D01*
G02X85998Y51900I0J1202D01*
G02X86350Y52750I1202J0D01*
G02Y54450I850J850D01*
G37*
G36*
G01X89361Y46950D02*
G03Y47450I-313J250D01*
G02X89098Y48200I938J750D01*
G02X91502I1202J0D01*
G02X91239Y47450I-1201J0D01*
G03Y46950I313J-250D01*
G02Y45450I-938J-750D01*
G03Y44950I313J-250D01*
G02X91502Y44200I-938J-750D01*
G02X89098I-1202J0D01*
G02X89361Y44950I1201J0D01*
G03Y45450I-313J250D01*
G02Y46950I938J750D01*
G37*
G36*
G01X180098Y101898D02*
G03X179898Y102098I-200J0D01*
G02X178698Y103300I2J1202D01*
G02X179900Y104502I1202J0D01*
G02X181102Y103302I0J-1202D01*
G03X181302Y103102I200J0D01*
G02X182502Y101900I-2J-1202D01*
G02X181300Y100698I-1202J0D01*
G02X180098Y101898I0J1202D01*
G37*
G36*
G01X179258Y126446D02*
G03X179229Y126724I-157J124D01*
G02X178798Y127646I771J922D01*
G02X181202I1202J0D01*
G02X180942Y126900I-1202J1D01*
G03X180971Y126622I157J-124D01*
G02X181402Y125700I-771J-922D01*
G02X178998I-1202J0D01*
G02X179258Y126446I1202J-1D01*
G37*
G36*
G01X179122Y131333D02*
G03Y131879I-292J273D01*
G02X178798Y132700I878J821D01*
G02X181202I1202J0D01*
G02X180878Y131879I-1202J0D01*
G03Y131333I292J-273D01*
G02X181202Y130512I-878J-821D01*
G02X178798I-1202J0D01*
G02X179122Y131333I1202J0D01*
G37*
G54D29*
X152250Y50904D03*
X154809D03*
X159927Y54053D03*
X152250D03*
X157368D03*
X154809Y57203D03*
X159927Y50904D03*
X157368D03*
Y57203D03*
X154809Y54053D03*
X152250Y57203D03*
X162486Y50904D03*
X118982D03*
X116423D03*
X116424Y54053D03*
X118983Y47754D03*
X116424D03*
X108747Y54053D03*
X111306D03*
Y47754D03*
X108747D03*
Y50904D03*
X106188Y47754D03*
X111306Y50904D03*
X106188D03*
X113865Y47754D03*
Y54053D03*
X162682Y44860D03*
X159927Y42046D03*
X154809D03*
X159927Y35156D03*
X152251D03*
X162486Y42046D03*
X157368D03*
X152250D03*
X162486Y35156D03*
X157368D03*
X149691Y45196D03*
Y42046D03*
X147133Y35156D03*
X149692D03*
X118983Y44604D03*
X116424D03*
X113865Y35156D03*
Y44604D03*
X108747D03*
X111306Y35156D03*
Y44604D03*
X152250Y28856D03*
X154809D03*
X159927Y32006D03*
X157368D03*
X154810Y23149D03*
X157369D03*
X162486Y32006D03*
X159927Y28856D03*
X157368D03*
X152251Y23149D03*
X162486Y28856D03*
X152251Y32006D03*
X149692Y23149D03*
X149691Y25707D03*
X149692Y32006D03*
X147133D03*
Y28856D03*
X116424Y26298D03*
Y29448D03*
X118983D03*
X116424Y23149D03*
X118983Y32598D03*
X116424D03*
X113865Y26298D03*
X111306Y23149D03*
X108747Y29448D03*
Y23149D03*
X111306Y32006D03*
X108747Y32598D03*
X106188Y29448D03*
X108747Y26298D03*
X111306Y28856D03*
X113865Y32006D03*
Y23149D03*
X106188Y26298D03*
X152251Y19999D03*
X154810D03*
X149692D03*
G54D25*
X112972Y132080D03*
X109823Y132079D03*
X86700Y130203D03*
X106780Y125830D03*
X112962Y122641D03*
X109823Y128929D03*
X112973D03*
X106450Y122592D03*
X109752Y122702D03*
X106606Y119750D03*
X103524Y119200D03*
X153916Y110033D03*
Y106884D03*
X157066D03*
Y110033D03*
X160215Y106884D03*
X141318D03*
X150767Y110033D03*
X141318D03*
X147617D03*
X150767Y106884D03*
X144467D03*
X135019Y113181D03*
X128719Y106882D03*
X138168Y106884D03*
Y113181D03*
X128719Y110032D03*
X131869Y113181D03*
X135019Y106884D03*
X131869D03*
X128720Y113182D03*
X116123Y110033D03*
X119272D03*
Y106884D03*
X116123D03*
X125571Y110033D03*
Y113183D03*
X122422Y110033D03*
X116123Y113183D03*
X109823Y116333D03*
X112973Y106884D03*
X109583Y110272D03*
X166470Y100530D03*
X166465Y97485D03*
X153916Y100585D03*
X157066Y103734D03*
Y100585D03*
X160215Y97435D03*
X163365Y100585D03*
X153916Y97435D03*
X157066D03*
X153916Y94285D03*
X163365Y103734D03*
X160215D03*
X163366Y97434D03*
X160215Y94285D03*
X163465Y94225D03*
X157066Y94285D03*
X153916Y103734D03*
X144392Y94121D03*
X144467Y97435D03*
X141318Y103734D03*
X147617Y100585D03*
X150767D03*
X147617Y94285D03*
X147618Y97434D03*
X150767Y94285D03*
X141318Y97435D03*
Y100585D03*
X150767Y103734D03*
X147617D03*
X144467D03*
Y100585D03*
X131869D03*
Y103734D03*
X138168Y97435D03*
Y94285D03*
X128720Y97434D03*
X135019Y103734D03*
Y100585D03*
X128721Y94285D03*
X138168Y100585D03*
X128719Y103733D03*
X138168Y103734D03*
X135019Y94285D03*
Y97435D03*
X119272Y100585D03*
X125570Y103733D03*
X119272Y97435D03*
Y94285D03*
X125571Y100583D03*
X116123Y94285D03*
X122422Y100583D03*
X125571Y97433D03*
Y94284D03*
X116123Y97435D03*
Y103734D03*
X122422Y94284D03*
Y97433D03*
X119272Y103734D03*
X109823Y94284D03*
X106674D03*
X112973Y94285D03*
X109823Y97433D03*
X106674D03*
X112973Y103734D03*
X109823Y100585D03*
X103524Y94284D03*
Y97433D03*
Y103734D03*
X166615Y91076D03*
X153916Y91136D03*
X157066Y87986D03*
Y91136D03*
X161351Y86850D03*
X160215Y91136D03*
X150767D03*
X147617D03*
X135019D03*
X138168D03*
X128720Y87985D03*
X135019Y87986D03*
X128721Y91136D03*
X138168Y87986D03*
X116123D03*
X122420Y91136D03*
X116123D03*
X125570Y91134D03*
X125571Y87986D03*
X122420D03*
X109823Y91134D03*
X109822Y87986D03*
X112972Y87985D03*
X112973Y91136D03*
X103574Y88225D03*
X188275Y70700D03*
X226600Y59700D03*
X206480Y59290D03*
Y63580D03*
X192600Y41320D03*
X196100Y41400D03*
X188530Y41320D03*
X180390D03*
X184460D03*
X176320D03*
X164940Y26420D03*
X200783Y56687D03*
X174300Y103600D03*
X175700Y99000D03*
X186234Y96734D03*
X188600Y94870D03*
X163365Y116333D03*
X172814Y110033D03*
X166515Y113183D03*
X172814Y116333D03*
X166515D03*
Y110033D03*
X163365Y119482D03*
Y125780D03*
X166515Y119482D03*
Y128929D03*
X172480Y124206D03*
X166515Y125780D03*
X163365Y135229D03*
X163366Y132080D03*
X172815D03*
X166515Y135229D03*
Y132079D03*
%LPD*%
G75*
G54D10*
X-49833Y7339D03*
Y41197D03*
X-33297Y7339D03*
Y41197D03*
G54D20*
G01X-49500Y37300D02*
X-49833Y37633D01*
G01X-9500Y4500D02*
X-5000Y0D01*
X0D01*
G54D11*
X-52100Y2800D03*
X-55400Y13700D03*
X-52400Y17503D03*
Y19396D03*
Y21403D03*
Y29707D03*
Y31600D03*
Y33607D03*
X-55500Y45200D03*
X-55400Y53700D03*
Y63700D03*
Y73700D03*
Y93700D03*
Y83700D03*
Y103700D03*
Y113700D03*
Y123700D03*
Y133700D03*
X-48500Y-1500D03*
X-46000Y2700D03*
X-49170Y74420D03*
X-39170D03*
X-29170D03*
X-38400Y189000D03*
X-17900Y-10700D03*
X-16380Y5940D03*
X-19170Y74420D03*
X-7500Y-10700D03*
X-7300Y19196D03*
X800Y-10700D03*
X-962Y31500D03*
X-1492Y154278D03*
X-1500Y166900D03*
X9800Y-10700D03*
X19800D03*
X15600Y35600D03*
X11276Y148940D03*
X20000Y154255D03*
X16900Y200800D03*
X29800Y-10700D03*
X28460Y85500D03*
X29860D03*
X26900Y200800D03*
X39800Y-10700D03*
X43300Y172500D03*
X36900Y200800D03*
X49800Y-10700D03*
X46900Y200800D03*
X59800Y-10700D03*
X58800Y123600D03*
Y122200D03*
Y120800D03*
X58955Y158255D03*
X59316Y172500D03*
X56900Y200800D03*
X66900D03*
X69800Y-10700D03*
X79800D03*
X71600Y118000D03*
X69512Y151107D03*
X75332Y172500D03*
X76900Y200800D03*
X89800Y-10700D03*
X90600Y17000D03*
Y15300D03*
X88900D03*
X87200D03*
X88900Y17000D03*
X87200D03*
Y18700D03*
X88900D03*
X90600D03*
X87200Y33600D03*
X88900D03*
X90600D03*
X88900Y37000D03*
X87200Y35300D03*
X88900D03*
X90600D03*
Y37000D03*
X87200D03*
X91218Y66918D03*
X82500Y154000D03*
X81050Y153950D03*
X91348Y172500D03*
X86900Y200800D03*
X99800Y-10700D03*
X100390Y60390D03*
X92900Y89300D03*
Y87700D03*
Y86100D03*
Y84500D03*
X103100Y136804D03*
X96170Y153631D03*
X96900Y200800D03*
X109800Y-10700D03*
X109987Y125929D03*
X112972Y141529D03*
X109822Y150978D03*
X106900Y200800D03*
X119800Y-10700D03*
X118983Y19999D03*
X121542Y29448D03*
Y23149D03*
X124101Y29448D03*
X126660D03*
X124101Y23149D03*
X126660D03*
Y44604D03*
X118983Y57203D03*
X121542Y47754D03*
X124101D03*
X126659Y50904D03*
X124101Y54053D03*
X126660D03*
X119009Y122848D03*
X125571Y119482D03*
Y128929D03*
X116123Y132079D03*
X122422Y144677D03*
X119272Y154126D03*
X116900Y200800D03*
X126900D03*
X129800Y-10700D03*
X139800D03*
X139456Y32006D03*
Y23149D03*
X129218Y45196D03*
X139456D03*
X135019Y116331D03*
X131871Y128929D03*
X128721Y125780D03*
X128720Y132080D03*
X135020Y132079D03*
Y138378D03*
X131871Y147827D03*
X138000Y147800D03*
X130295Y157050D03*
X136900Y200800D03*
X149800Y-10700D03*
X147133Y19999D03*
X144574Y32006D03*
Y23149D03*
X142015Y32006D03*
Y23149D03*
X142014Y44604D03*
X144573Y45196D03*
X147132Y54053D03*
X149691Y57203D03*
X144574Y47754D03*
X144573Y50904D03*
Y54053D03*
X142014D03*
X147800Y88000D03*
X141318Y94285D03*
X150751Y97451D03*
X147618Y113182D03*
X141318Y113183D03*
X144467Y110033D03*
X147617Y106884D03*
X144467Y132079D03*
X147617Y135229D03*
Y141528D03*
X144467Y150977D03*
X146900Y200800D03*
X159800Y-10700D03*
X163201Y91300D03*
X153916Y87986D03*
X160215Y100585D03*
X153916Y113183D03*
X163366Y113182D03*
X163365Y128929D03*
X153916Y135229D03*
X157066Y144677D03*
X153916Y154126D03*
X161791Y157590D03*
X163264Y157577D03*
X156900Y200800D03*
X169800Y-10700D03*
X172950Y34250D03*
Y35700D03*
Y37150D03*
X172641Y95859D03*
X169664Y110033D03*
Y116333D03*
X169180Y123800D03*
X169664Y132079D03*
Y138378D03*
Y150977D03*
X166764D03*
X166900Y200800D03*
X179800Y-10700D03*
X176400Y66800D03*
Y65100D03*
Y63300D03*
X176900Y200800D03*
X186900D03*
X189800Y-10700D03*
X199000Y31230D03*
X194700Y128500D03*
Y127000D03*
X193300D03*
Y128500D03*
X196900Y200800D03*
X199800Y-10700D03*
X209800D03*
X208510Y66300D03*
X201340Y96620D03*
X202834D03*
X199846D03*
X201300Y176354D03*
X206900Y200800D03*
X219800Y-10700D03*
X223100Y63236D03*
X211300Y63200D03*
X212135Y66335D03*
X222000Y73800D03*
X218246D03*
X213340Y96620D03*
X214795D03*
X216340D03*
X214600Y109390D03*
X213319Y109440D03*
X211700Y176300D03*
X216900Y200800D03*
X229800Y-10700D03*
X231000Y56800D03*
X233000D03*
X228195Y65205D03*
X233000Y58800D03*
X229514Y60541D03*
X231000Y58800D03*
X232200Y116700D03*
Y115200D03*
X226900Y200800D03*
X245000Y-9100D03*
X241700Y175670D03*
X243800Y199300D03*
X252300Y-5500D03*
X257500Y-2300D03*
X252700Y-100D03*
X255018Y35982D03*
X252118D03*
X256418D03*
X253618D03*
X252513Y125087D03*
X252700Y189100D03*
X252100Y195600D03*
X262300Y1100D03*
X267700Y115600D03*
X269500Y127800D03*
Y129300D03*
X262287Y125087D03*
X269400Y170700D03*
X261500Y189200D03*
X271100Y127800D03*
Y129300D03*
X271600Y177700D03*
G54D21*
G01X-54385Y10316D02*
X-49833Y7339D01*
G01X-54385Y38220D02*
X-49833Y41197D01*
G01X-54385Y44174D02*
X-49833Y41197D01*
G01Y7339D02*
X-45281Y10316D01*
G01X-49833Y7339D02*
X-45281Y4362D01*
G01X-49833Y41197D02*
X-45281Y38220D01*
G01X-7379Y-7379D02*
X0Y0D01*
G01X-7389Y197359D02*
X-10Y189980D01*
G01X0Y0D02*
X7379Y-7379D01*
G01X-10Y189980D02*
X7369Y197359D01*
G01X252621Y5121D02*
X260000Y12500D01*
G01X252621Y184879D02*
X260000Y177500D01*
G01Y12500D02*
X267379Y5121D01*
G01X260000Y177500D02*
X267379Y184879D01*
G01X260000Y177500D02*
X267379Y170121D01*
G54D12*
X-42500Y-4500D03*
X-12500Y-8496D03*
Y-504D03*
G54D22*
G01X147132Y54053D02*
Y54559D01*
X145852Y55839D01*
Y58158D01*
X143600Y60410D01*
X100410D01*
X100390Y60390D01*
G01X121542Y23149D02*
Y23194D01*
X125868Y27520D01*
X140203D01*
X144574Y23149D01*
G01X142015Y32006D02*
Y32512D01*
X139232Y35295D01*
X132323D01*
X130078Y37540D01*
X126540D01*
X125940Y36940D01*
Y31287D01*
X124101Y29448D01*
G01X126660D02*
Y29744D01*
X127540Y30624D01*
Y34479D01*
X128321Y35260D01*
X130095D01*
X132580Y32775D01*
Y29859D01*
X132980Y29459D01*
X134210D01*
X134610Y29859D01*
Y33295D01*
X135010Y33695D01*
X137767D01*
X139456Y32006D01*
G01X124101Y23149D02*
X126050Y25098D01*
X130338D01*
X130738Y24698D01*
Y23290D01*
X131138Y22890D01*
X131938D01*
X132338Y23290D01*
Y24698D01*
X132738Y25098D01*
X133538D01*
X133938Y24698D01*
Y23290D01*
X134338Y22890D01*
X135138D01*
X135538Y23290D01*
Y24698D01*
X135938Y25098D01*
X140066D01*
X142015Y23149D01*
G01X126660D02*
Y22854D01*
X127940Y21574D01*
Y18770D01*
X128680Y18030D01*
X132054D01*
X132454Y18430D01*
Y20670D01*
X132854Y21070D01*
X133654D01*
X134054Y20670D01*
Y18430D01*
X134454Y18030D01*
X137490D01*
X138176Y18716D01*
Y21173D01*
X138577Y21574D01*
X139229D01*
X139629Y21974D01*
Y22976D01*
X139456Y23149D01*
G01X124101Y47754D02*
Y46958D01*
X124569Y46490D01*
X132608D01*
X133077Y46021D01*
Y44413D01*
X133648Y43842D01*
X134215D01*
X134737Y44364D01*
Y46081D01*
X135146Y46490D01*
X144173D01*
X144573Y46090D01*
Y45196D01*
G01X126659Y50904D02*
X127859Y49704D01*
X129717D01*
X130186Y49235D01*
Y48559D01*
X130655Y48090D01*
X131317D01*
X131786Y48559D01*
Y49235D01*
X132255Y49704D01*
X132917D01*
X133386Y49235D01*
Y48559D01*
X133855Y48090D01*
X134517D01*
X134986Y48559D01*
Y49235D01*
X135455Y49704D01*
X136117D01*
X136586Y49235D01*
Y48559D01*
X137055Y48090D01*
X137717D01*
X138186Y48559D01*
Y49235D01*
X138655Y49704D01*
X140255D01*
X140724Y49235D01*
Y48779D01*
X141193Y48310D01*
X141855D01*
X142324Y48779D01*
Y49235D01*
X142793Y49704D01*
X143937D01*
X144573Y50340D01*
Y50904D01*
G01X124101Y54053D02*
X125334Y52820D01*
X129938D01*
X130407Y52351D01*
Y52099D01*
X130876Y51630D01*
X131538D01*
X132007Y52099D01*
Y52671D01*
X132486Y53150D01*
X133148D01*
X133607Y52691D01*
Y52099D01*
X134076Y51630D01*
X134738D01*
X135207Y52099D01*
Y52671D01*
X135686Y53150D01*
X136348D01*
X136807Y52691D01*
Y52099D01*
X137276Y51630D01*
X137938D01*
X138407Y52099D01*
Y52351D01*
X138876Y52820D01*
X143340D01*
X144573Y54053D01*
G01X142014D02*
X140439Y55628D01*
X136879D01*
X136479Y56028D01*
Y58200D01*
X136079Y58600D01*
X135279D01*
X134879Y58200D01*
Y56028D01*
X134479Y55628D01*
X133679D01*
X133279Y56028D01*
Y58200D01*
X132879Y58600D01*
X132079D01*
X131679Y58200D01*
Y56028D01*
X131279Y55628D01*
X128235D01*
X126660Y54053D01*
G54D13*
X-35463Y12890D03*
Y35646D03*
G54D23*
G01X-32500Y-12500D02*
X232500D01*
G03X282500Y37500I0J50000D01*
G01Y152500D01*
G03X232500Y202500I-50000J0D01*
G01X-32500D01*
G03X-57500Y177500I0J-25000D01*
G01Y12500D01*
G03X-32500Y-12500I25000J0D01*
G54D14*
X-25000Y84290D03*
Y129290D03*
G54D24*
G01X142014Y44604D02*
Y37946D01*
X140948Y36880D01*
X133540D01*
X131900Y38520D01*
Y41190D01*
X131560Y41530D01*
X129734D01*
X126660Y44604D01*
G01X129218Y45196D02*
Y43800D01*
X130248Y42770D01*
X132074D01*
X133140Y41704D01*
Y39034D01*
X134054Y38120D01*
X140434D01*
X140774Y38460D01*
Y40166D01*
X140234Y40706D01*
X139240D01*
X138900Y41046D01*
Y41906D01*
X139240Y42246D01*
X140434D01*
X140774Y42586D01*
Y43878D01*
X139456Y45196D01*
G54D15*
X-12992Y75786D03*
Y137794D03*
G54D16*
X0Y0D03*
X-10Y189980D03*
X260000Y12500D03*
Y177500D03*
G54D17*
X30000Y-5000D03*
Y5000D03*
G54D18*
X190102Y141546D03*
G54D19*
X268843D03*
M02*
