G04 ================== begin FILE IDENTIFICATION RECORD ==================*
G04 Layout Name:  BEAGLEV FIRE_REV A_230911.brd*
G04 Film Name:    MASK_TOP*
G04 File Format:  Gerber RS274X*
G04 File Origin:  Cadence Allegro 17.4-S031*
G04 Origin Date:  Tue Sep 26 15:21:01 2023*
G04 *
G04 Layer:  VIA CLASS/SOLDERMASK_TOP*
G04 Layer:  PIN/SOLDERMASK_TOP*
G04 Layer:  PACKAGE GEOMETRY/SOLDERMASK_TOP*
G04 Layer:  BOARD GEOMETRY/OUTLINE*
G04 Layer:  BOARD GEOMETRY/SOLDERMASK_TOP*
G04 *
G04 Offset:    (0.00 0.00)*
G04 Mirror:    No*
G04 Mode:      Positive*
G04 Rotation:  0*
G04 FullContactRelief:  No*
G04 UndefLineWidth:     5.00*
G04 ================== end FILE IDENTIFICATION RECORD ====================*
%FSLAX25Y25*MOIN*%
%IR0*IPPOS*OFA0.00000B0.00000*MIA0B0*SFA1.00000B1.00000*%
%AMMACRO22*
4,1,40,-.02447,.01803,
-.02447,-.01803,
-.02441,-.018714,
-.024232,-.019378,
-.023942,-.02,
-.023548,-.020563,
-.023063,-.021048,
-.0225,-.021442,
-.021878,-.021732,
-.021214,-.02191,
-.02053,-.02197,
.02053,-.02197,
.021214,-.02191,
.021878,-.021732,
.0225,-.021442,
.023063,-.021048,
.023548,-.020563,
.023942,-.02,
.024232,-.019378,
.02441,-.018714,
.02447,-.01803,
.02447,.01803,
.02441,.018714,
.024232,.019378,
.023942,.02,
.023548,.020563,
.023063,.021048,
.0225,.021442,
.021878,.021732,
.021214,.02191,
.02053,.02197,
-.02053,.02197,
-.021214,.02191,
-.021878,.021732,
-.0225,.021442,
-.023063,.021048,
-.023548,.020563,
-.023942,.02,
-.024232,.019378,
-.02441,.018714,
-.02447,.01803,
0.0*
%
%ADD22MACRO22*%
%AMMACRO65*
4,1,40,.00787,.01378,
-.00787,.01378,
-.008212,.01375,
-.008544,.013661,
-.008855,.013516,
-.009136,.013319,
-.009379,.013076,
-.009576,.012795,
-.009721,.012484,
-.00981,.012152,
-.00984,.01181,
-.00984,-.01181,
-.00981,-.012152,
-.009721,-.012484,
-.009576,-.012795,
-.009379,-.013076,
-.009136,-.013319,
-.008855,-.013516,
-.008544,-.013661,
-.008212,-.01375,
-.00787,-.01378,
.00787,-.01378,
.008212,-.01375,
.008544,-.013661,
.008855,-.013516,
.009136,-.013319,
.009379,-.013076,
.009576,-.012795,
.009721,-.012484,
.00981,-.012152,
.00984,-.01181,
.00984,.01181,
.00981,.012152,
.009721,.012484,
.009576,.012795,
.009379,.013076,
.009136,.013319,
.008855,.013516,
.008544,.013661,
.008212,.01375,
.00787,.01378,
0.0*
%
%ADD65MACRO65*%
%AMMACRO75*
4,1,40,.01803,.02947,
-.01803,.02947,
-.018714,.02941,
-.019378,.029232,
-.02,.028942,
-.020563,.028548,
-.021048,.028063,
-.021442,.0275,
-.021732,.026878,
-.02191,.026214,
-.02197,.02553,
-.02197,-.02553,
-.02191,-.026214,
-.021732,-.026878,
-.021442,-.0275,
-.021048,-.028063,
-.020563,-.028548,
-.02,-.028942,
-.019378,-.029232,
-.018714,-.02941,
-.01803,-.02947,
.01803,-.02947,
.018714,-.02941,
.019378,-.029232,
.02,-.028942,
.020563,-.028548,
.021048,-.028063,
.021442,-.0275,
.021732,-.026878,
.02191,-.026214,
.02197,-.02553,
.02197,.02553,
.02191,.026214,
.021732,.026878,
.021442,.0275,
.021048,.028063,
.020563,.028548,
.02,.028942,
.019378,.029232,
.018714,.02941,
.01803,.02947,
0.0*
%
%ADD75MACRO75*%
%AMMACRO61*
4,1,40,.00825,-.0055,
.00825,.0055,
.00822,.005847,
.008129,.006184,
.007982,.0065,
.007782,.006786,
.007536,.007032,
.00725,.007232,
.006934,.007379,
.006597,.00747,
.00625,.0075,
-.00625,.0075,
-.006597,.00747,
-.006934,.007379,
-.00725,.007232,
-.007536,.007032,
-.007782,.006786,
-.007982,.0065,
-.008129,.006184,
-.00822,.005847,
-.00825,.0055,
-.00825,-.0055,
-.00822,-.005847,
-.008129,-.006184,
-.007982,-.0065,
-.007782,-.006786,
-.007536,-.007032,
-.00725,-.007232,
-.006934,-.007379,
-.006597,-.00747,
-.00625,-.0075,
.00625,-.0075,
.006597,-.00747,
.006934,-.007379,
.00725,-.007232,
.007536,-.007032,
.007782,-.006786,
.007982,-.0065,
.008129,-.006184,
.00822,-.005847,
.00825,-.0055,
0.0*
%
%ADD61MACRO61*%
%AMMACRO11*
4,1,40,-.04134,.03347,
-.04134,-.03347,
-.04122,-.034837,
-.040865,-.036162,
-.040286,-.037405,
-.039499,-.038529,
-.038529,-.039499,
-.037405,-.040286,
-.036162,-.040865,
-.034837,-.04122,
-.03347,-.04134,
.03347,-.04134,
.034837,-.04122,
.036162,-.040865,
.037405,-.040286,
.038529,-.039499,
.039499,-.038529,
.040286,-.037405,
.040865,-.036162,
.04122,-.034837,
.04134,-.03347,
.04134,.03347,
.04122,.034837,
.040865,.036162,
.040286,.037405,
.039499,.038529,
.038529,.039499,
.037405,.040286,
.036162,.040865,
.034837,.04122,
.03347,.04134,
-.03347,.04134,
-.034837,.04122,
-.036162,.040865,
-.037405,.040286,
-.038529,.039499,
-.039499,.038529,
-.040286,.037405,
-.040865,.036162,
-.04122,.034837,
-.04134,.03347,
0.0*
%
%ADD11MACRO11*%
%AMMACRO43*
4,1,40,-.04697,.0166,
-.04697,-.0166,
-.04685,-.017967,
-.046495,-.019292,
-.045916,-.020535,
-.045129,-.021659,
-.044159,-.022629,
-.043035,-.023416,
-.041792,-.023995,
-.040467,-.02435,
-.0391,-.02447,
.0391,-.02447,
.040467,-.02435,
.041792,-.023995,
.043035,-.023416,
.044159,-.022629,
.045129,-.021659,
.045916,-.020535,
.046495,-.019292,
.04685,-.017967,
.04697,-.0166,
.04697,.0166,
.04685,.017967,
.046495,.019292,
.045916,.020535,
.045129,.021659,
.044159,.022629,
.043035,.023416,
.041792,.023995,
.040467,.02435,
.0391,.02447,
-.0391,.02447,
-.040467,.02435,
-.041792,.023995,
-.043035,.023416,
-.044159,.022629,
-.045129,.021659,
-.045916,.020535,
-.046495,.019292,
-.04685,.017967,
-.04697,.0166,
0.0*
%
%ADD43MACRO43*%
%ADD79R,.054X.115*%
%ADD85C,.015*%
%ADD83C,.04331*%
%ADD42C,.066*%
%ADD77C,.01543*%
%AMMACRO33*
4,1,44,.02145,-.01161,
.02145,.01161,
.021395,.012294,
.021217,.012958,
.020927,.01358,
.020533,.014143,
.020048,.014628,
.019485,.015022,
.018863,.015312,
.018199,.01549,
.017515,.01555,
.01751,.01555,
-.01751,.01555,
-.018194,.015491,
-.018858,.015314,
-.019481,.015025,
-.020044,.014631,
-.02053,.014146,
-.020925,.013584,
-.021216,.012962,
-.021394,.012299,
-.021455,.011615,
-.02145,.01161,
-.02145,-.01161,
-.021395,-.012294,
-.021217,-.012958,
-.020927,-.01358,
-.020533,-.014143,
-.020048,-.014628,
-.019485,-.015022,
-.018863,-.015312,
-.018199,-.01549,
-.017515,-.01555,
-.01751,-.01555,
.01751,-.01555,
.018194,-.015491,
.018858,-.015314,
.019481,-.015025,
.020044,-.014631,
.02053,-.014146,
.020925,-.013584,
.021216,-.012962,
.021394,-.012299,
.021455,-.011615,
.02145,-.01161,
0.0*
%
%ADD33MACRO33*%
%ADD18C,.02362*%
%ADD13C,.079*%
%ADD12C,.04724*%
%ADD59C,.01575*%
%ADD41R,.066X.066*%
%ADD15C,.0748*%
%ADD78C,.01975*%
%ADD57R,.00787X.0315*%
%ADD56R,.0315X.00787*%
%AMMACRO34*
4,1,28,.02715,.04823,
.02715,.04626,
.0488,.04626,
.0488,.03051,
.02715,.03051,
.02715,.02067,
.0488,.02067,
.0488,.00492,
.02715,.00492,
.02715,-.00492,
.0488,-.00492,
.0488,-.02067,
.02715,-.02067,
.02715,-.03051,
.0488,-.03051,
.0488,-.04626,
.02715,-.04626,
.02715,-.04823,
-.01616,-.04823,
-.01616,-.0689,
-.0386,-.0689,
-.0386,-.04823,
-.0488,-.04823,
-.0488,.04823,
-.0386,.04823,
-.0386,.0689,
-.01616,.0689,
-.01616,.04823,
.02715,.04823,
0.0*
%
%ADD34MACRO34*%
%ADD14R,.079X.079*%
%ADD39C,.06693*%
%ADD90C,.06299*%
%AMMACRO67*
4,1,40,.01378,-.00984,
.01378,.00984,
.01375,.010182,
.013661,.010514,
.013516,.010825,
.013319,.011106,
.013076,.011349,
.012795,.011546,
.012484,.011691,
.012152,.01178,
.01181,.01181,
-.01181,.01181,
-.012152,.01178,
-.012484,.011691,
-.012795,.011546,
-.013076,.011349,
-.013319,.011106,
-.013516,.010825,
-.013661,.010514,
-.01375,.010182,
-.01378,.00984,
-.01378,-.00984,
-.01375,-.010182,
-.013661,-.010514,
-.013516,-.010825,
-.013319,-.011106,
-.013076,-.011349,
-.012795,-.011546,
-.012484,-.011691,
-.012152,-.01178,
-.01181,-.01181,
.01181,-.01181,
.012152,-.01178,
.012484,-.011691,
.012795,-.011546,
.013076,-.011349,
.013319,-.011106,
.013516,-.010825,
.013661,-.010514,
.01375,-.010182,
.01378,-.00984,
0.0*
%
%ADD67MACRO67*%
%AMMACRO55*
4,1,40,-.00984,-.01378,
.00984,-.01378,
.010182,-.01375,
.010514,-.013661,
.010825,-.013516,
.011106,-.013319,
.011349,-.013076,
.011546,-.012795,
.011691,-.012484,
.01178,-.012152,
.01181,-.01181,
.01181,.01181,
.01178,.012152,
.011691,.012484,
.011546,.012795,
.011349,.013076,
.011106,.013319,
.010825,.013516,
.010514,.013661,
.010182,.01375,
.00984,.01378,
-.00984,.01378,
-.010182,.01375,
-.010514,.013661,
-.010825,.013516,
-.011106,.013319,
-.011349,.013076,
-.011546,.012795,
-.011691,.012484,
-.01178,.012152,
-.01181,.01181,
-.01181,-.01181,
-.01178,-.012152,
-.011691,-.012484,
-.011546,-.012795,
-.011349,-.013076,
-.011106,-.013319,
-.010825,-.013516,
-.010514,-.013661,
-.010182,-.01375,
-.00984,-.01378,
0.0*
%
%ADD55MACRO55*%
%ADD17C,.03898*%
%AMMACRO63*
4,1,44,.01496,-.00452,
.01496,.00452,
.014931,.004862,
.014843,.005194,
.014699,.005506,
.014502,.005787,
.01426,.006031,
.013979,.006229,
.013668,.006374,
.013337,.006464,
.012995,.006495,
.01299,.00649,
-.01299,.00649,
-.013332,.006465,
-.013664,.006376,
-.013975,.006231,
-.014256,.006034,
-.014499,.005791,
-.014696,.00551,
-.014841,.005199,
-.01493,.004867,
-.01496,.004525,
-.01496,.00452,
-.01496,-.00452,
-.014931,-.004862,
-.014843,-.005194,
-.014699,-.005506,
-.014502,-.005787,
-.01426,-.006031,
-.013979,-.006229,
-.013668,-.006374,
-.013337,-.006464,
-.012995,-.006495,
-.01299,-.00649,
.01299,-.00649,
.013332,-.006465,
.013664,-.006376,
.013975,-.006231,
.014256,-.006034,
.014499,-.005791,
.014696,-.00551,
.014841,-.005199,
.01493,-.004867,
.01496,-.004525,
.01496,-.00452,
0.0*
%
%ADD63MACRO63*%
%AMMACRO74*
4,1,40,.01378,-.00787,
.01378,.00787,
.01375,.008212,
.013661,.008544,
.013516,.008855,
.013319,.009136,
.013076,.009379,
.012795,.009576,
.012484,.009721,
.012152,.00981,
.01181,.00984,
-.01181,.00984,
-.012152,.00981,
-.012484,.009721,
-.012795,.009576,
-.013076,.009379,
-.013319,.009136,
-.013516,.008855,
-.013661,.008544,
-.01375,.008212,
-.01378,.00787,
-.01378,-.00787,
-.01375,-.008212,
-.013661,-.008544,
-.013516,-.008855,
-.013319,-.009136,
-.013076,-.009379,
-.012795,-.009576,
-.012484,-.009721,
-.012152,-.00981,
-.01181,-.00984,
.01181,-.00984,
.012152,-.00981,
.012484,-.009721,
.012795,-.009576,
.013076,-.009379,
.013319,-.009136,
.013516,-.008855,
.013661,-.008544,
.01375,-.008212,
.01378,-.00787,
0.0*
%
%ADD74MACRO74*%
%AMMACRO54*
4,1,40,-.00787,-.01378,
.00787,-.01378,
.008212,-.01375,
.008544,-.013661,
.008855,-.013516,
.009136,-.013319,
.009379,-.013076,
.009576,-.012795,
.009721,-.012484,
.00981,-.012152,
.00984,-.01181,
.00984,.01181,
.00981,.012152,
.009721,.012484,
.009576,.012795,
.009379,.013076,
.009136,.013319,
.008855,.013516,
.008544,.013661,
.008212,.01375,
.00787,.01378,
-.00787,.01378,
-.008212,.01375,
-.008544,.013661,
-.008855,.013516,
-.009136,.013319,
-.009379,.013076,
-.009576,.012795,
-.009721,.012484,
-.00981,.012152,
-.00984,.01181,
-.00984,-.01181,
-.00981,-.012152,
-.009721,-.012484,
-.009576,-.012795,
-.009379,-.013076,
-.009136,-.013319,
-.008855,-.013516,
-.008544,-.013661,
-.008212,-.01375,
-.00787,-.01378,
0.0*
%
%ADD54MACRO54*%
%AMMACRO81*
4,1,44,-.02952,-.04134,
.02952,-.04134,
.029862,-.041311,
.030194,-.041223,
.030506,-.041079,
.030787,-.040882,
.031031,-.04064,
.031229,-.040359,
.031374,-.040048,
.031464,-.039717,
.031495,-.039375,
.03149,-.03937,
.03149,.03937,
.031465,.039712,
.031376,.040044,
.031231,.040355,
.031034,.040636,
.030791,.040879,
.03051,.041076,
.030199,.041221,
.029867,.04131,
.029525,.04134,
.02952,.04134,
-.02952,.04134,
-.029862,.041311,
-.030194,.041223,
-.030506,.041079,
-.030787,.040882,
-.031031,.04064,
-.031229,.040359,
-.031374,.040048,
-.031464,.039717,
-.031495,.039375,
-.03149,.03937,
-.03149,-.03937,
-.031465,-.039712,
-.031376,-.040044,
-.031231,-.040355,
-.031034,-.040636,
-.030791,-.040879,
-.03051,-.041076,
-.030199,-.041221,
-.029867,-.04131,
-.029525,-.04134,
-.02952,-.04134,
0.0*
%
%ADD81MACRO81*%
%AMMACRO60*
4,1,40,.04697,-.0166,
.04697,.0166,
.04685,.017967,
.046495,.019292,
.045916,.020535,
.045129,.021659,
.044159,.022629,
.043035,.023416,
.041792,.023995,
.040467,.02435,
.0391,.02447,
-.0391,.02447,
-.040467,.02435,
-.041792,.023995,
-.043035,.023416,
-.044159,.022629,
-.045129,.021659,
-.045916,.020535,
-.046495,.019292,
-.04685,.017967,
-.04697,.0166,
-.04697,-.0166,
-.04685,-.017967,
-.046495,-.019292,
-.045916,-.020535,
-.045129,-.021659,
-.044159,-.022629,
-.043035,-.023416,
-.041792,-.023995,
-.040467,-.02435,
-.0391,-.02447,
.0391,-.02447,
.040467,-.02435,
.041792,-.023995,
.043035,-.023416,
.044159,-.022629,
.045129,-.021659,
.045916,-.020535,
.046495,-.019292,
.04685,-.017967,
.04697,-.0166,
0.0*
%
%ADD60MACRO60*%
%AMMACRO49*
4,1,40,-.06299,.02461,
-.06299,-.02461,
-.06287,-.025977,
-.062515,-.027302,
-.061936,-.028545,
-.061149,-.029669,
-.060179,-.030639,
-.059055,-.031426,
-.057812,-.032005,
-.056487,-.03236,
-.05512,-.03248,
.05512,-.03248,
.056487,-.03236,
.057812,-.032005,
.059055,-.031426,
.060179,-.030639,
.061149,-.029669,
.061936,-.028545,
.062515,-.027302,
.06287,-.025977,
.06299,-.02461,
.06299,.02461,
.06287,.025977,
.062515,.027302,
.061936,.028545,
.061149,.029669,
.060179,.030639,
.059055,.031426,
.057812,.032005,
.056487,.03236,
.05512,.03248,
-.05512,.03248,
-.056487,.03236,
-.057812,.032005,
-.059055,.031426,
-.060179,.030639,
-.061149,.029669,
-.061936,.028545,
-.062515,.027302,
-.06287,.025977,
-.06299,.02461,
0.0*
%
%ADD49MACRO49*%
%AMMACRO72*
4,1,40,-.00825,.0055,
-.00825,-.0055,
-.00822,-.005847,
-.008129,-.006184,
-.007982,-.0065,
-.007782,-.006786,
-.007536,-.007032,
-.00725,-.007232,
-.006934,-.007379,
-.006597,-.00747,
-.00625,-.0075,
.00625,-.0075,
.006597,-.00747,
.006934,-.007379,
.00725,-.007232,
.007536,-.007032,
.007782,-.006786,
.007982,-.0065,
.008129,-.006184,
.00822,-.005847,
.00825,-.0055,
.00825,.0055,
.00822,.005847,
.008129,.006184,
.007982,.0065,
.007782,.006786,
.007536,.007032,
.00725,.007232,
.006934,.007379,
.006597,.00747,
.00625,.0075,
-.00625,.0075,
-.006597,.00747,
-.006934,.007379,
-.00725,.007232,
-.007536,.007032,
-.007782,.006786,
-.007982,.0065,
-.008129,.006184,
-.00822,.005847,
-.00825,.0055,
0.0*
%
%ADD72MACRO72*%
%ADD25R,.024X.022*%
%ADD26R,.022X.024*%
%ADD47O,.037X.014*%
%ADD46O,.014X.037*%
%ADD86R,.042X.052*%
%ADD73R,.046X.031*%
%ADD64R,.081X.051*%
%ADD48R,.037X.014*%
%ADD24R,.06X.036*%
%ADD45R,.014X.037*%
%ADD50O,.0315X.01181*%
%ADD76R,.044X.063*%
%ADD16R,.029X.024*%
%ADD53R,.039X.034*%
%ADD84R,.016X.066*%
%ADD62R,.034X.039*%
%ADD27R,.064X.055*%
%ADD32C,.185*%
%ADD36R,.03543X.0126*%
%ADD87C,.23228*%
%ADD58R,.17323X.17323*%
%AMMACRO80*
4,1,44,.01161,.02145,
-.01161,.02145,
-.012294,.021395,
-.012958,.021217,
-.01358,.020927,
-.014143,.020533,
-.014628,.020048,
-.015022,.019485,
-.015312,.018863,
-.01549,.018199,
-.01555,.017515,
-.01555,.01751,
-.01555,-.01751,
-.015491,-.018194,
-.015314,-.018858,
-.015025,-.019481,
-.014631,-.020044,
-.014146,-.02053,
-.013584,-.020925,
-.012962,-.021216,
-.012299,-.021394,
-.011615,-.021455,
-.01161,-.02145,
.01161,-.02145,
.012294,-.021395,
.012958,-.021217,
.01358,-.020927,
.014143,-.020533,
.014628,-.020048,
.015022,-.019485,
.015312,-.018863,
.01549,-.018199,
.01555,-.017515,
.01555,-.01751,
.01555,.01751,
.015491,.018194,
.015314,.018858,
.015025,.019481,
.014631,.020044,
.014146,.02053,
.013584,.020925,
.012962,.021216,
.012299,.021394,
.011615,.021455,
.01161,.02145,
0.0*
%
%ADD80MACRO80*%
%ADD44R,.138X.138*%
%AMMACRO37*
4,1,28,.04823,-.02715,
.04626,-.02715,
.04626,-.0488,
.03051,-.0488,
.03051,-.02715,
.02067,-.02715,
.02067,-.0488,
.00492,-.0488,
.00492,-.02715,
-.00492,-.02715,
-.00492,-.0488,
-.02067,-.0488,
-.02067,-.02715,
-.03051,-.02715,
-.03051,-.0488,
-.04626,-.0488,
-.04626,-.02715,
-.04823,-.02715,
-.04823,.01616,
-.0689,.01616,
-.0689,.0386,
-.04823,.0386,
-.04823,.0488,
.04823,.0488,
.04823,.0386,
.0689,.0386,
.0689,.01616,
.04823,.01616,
.04823,-.02715,
0.0*
%
%ADD37MACRO37*%
%ADD35R,.0126X.02559*%
%AMMACRO21*
4,1,28,-.02715,-.04823,
-.02715,-.04626,
-.0488,-.04626,
-.0488,-.03051,
-.02715,-.03051,
-.02715,-.02067,
-.0488,-.02067,
-.0488,-.00492,
-.02715,-.00492,
-.02715,.00492,
-.0488,.00492,
-.0488,.02067,
-.02715,.02067,
-.02715,.03051,
-.0488,.03051,
-.0488,.04626,
-.02715,.04626,
-.02715,.04823,
.01616,.04823,
.01616,.0689,
.0386,.0689,
.0386,.04823,
.0488,.04823,
.0488,-.04823,
.0386,-.04823,
.0386,-.0689,
.01616,-.0689,
.01616,-.04823,
-.02715,-.04823,
0.0*
%
%ADD21MACRO21*%
%AMMACRO68*
4,1,44,-.03149,-.05315,
.03149,-.05315,
.032174,-.053091,
.032838,-.052914,
.033461,-.052625,
.034024,-.052231,
.03451,-.051746,
.034905,-.051184,
.035196,-.050562,
.035374,-.049899,
.035435,-.049215,
.03543,-.04921,
.03543,.04921,
.035375,.049894,
.035197,.050558,
.034907,.05118,
.034513,.051743,
.034028,.052228,
.033465,.052622,
.032843,.052912,
.032179,.05309,
.031495,.05315,
.03149,.05315,
-.03149,.05315,
-.032174,.053091,
-.032838,.052914,
-.033461,.052625,
-.034024,.052231,
-.03451,.051746,
-.034905,.051184,
-.035196,.050562,
-.035374,.049899,
-.035435,.049215,
-.03543,.04921,
-.03543,-.04921,
-.035375,-.049894,
-.035197,-.050558,
-.034907,-.05118,
-.034513,-.051743,
-.034028,-.052228,
-.033465,-.052622,
-.032843,-.052912,
-.032179,-.05309,
-.031495,-.05315,
-.03149,-.05315,
0.0*
%
%ADD68MACRO68*%
%ADD66R,.03937X.04331*%
%ADD23C,.12795*%
%ADD52R,.04331X.03937*%
%AMMACRO31*
4,1,40,-.01575,.015,
-.01575,-.015,
-.01572,-.015342,
-.015631,-.015674,
-.015486,-.015985,
-.015289,-.016266,
-.015046,-.016509,
-.014765,-.016706,
-.014454,-.016851,
-.014122,-.01694,
-.01378,-.01697,
.01378,-.01697,
.014122,-.01694,
.014454,-.016851,
.014765,-.016706,
.015046,-.016509,
.015289,-.016266,
.015486,-.015985,
.015631,-.015674,
.01572,-.015342,
.01575,-.015,
.01575,.015,
.01572,.015342,
.015631,.015674,
.015486,.015985,
.015289,.016266,
.015046,.016509,
.014765,.016706,
.014454,.016851,
.014122,.01694,
.01378,.01697,
-.01378,.01697,
-.014122,.01694,
-.014454,.016851,
-.014765,.016706,
-.015046,.016509,
-.015289,.016266,
-.015486,.015985,
-.015631,.015674,
-.01572,.015342,
-.01575,.015,
0.0*
%
%ADD31MACRO31*%
%ADD10O,.07874X.04331*%
%AMMACRO30*
4,1,40,.015,.01575,
-.015,.01575,
-.015342,.01572,
-.015674,.015631,
-.015985,.015486,
-.016266,.015289,
-.016509,.015046,
-.016706,.014765,
-.016851,.014454,
-.01694,.014122,
-.01697,.01378,
-.01697,-.01378,
-.01694,-.014122,
-.016851,-.014454,
-.016706,-.014765,
-.016509,-.015046,
-.016266,-.015289,
-.015985,-.015486,
-.015674,-.015631,
-.015342,-.01572,
-.015,-.01575,
.015,-.01575,
.015342,-.01572,
.015674,-.015631,
.015985,-.015486,
.016266,-.015289,
.016509,-.015046,
.016706,-.014765,
.016851,-.014454,
.01694,-.014122,
.01697,-.01378,
.01697,.01378,
.01694,.014122,
.016851,.014454,
.016706,.014765,
.016509,.015046,
.016266,.015289,
.015985,.015486,
.015674,.015631,
.015342,.01572,
.015,.01575,
0.0*
%
%ADD30MACRO30*%
%ADD71R,.04337X.03746*%
%ADD70R,.02762X.03746*%
%ADD89R,.09055X.0748*%
%AMMACRO88*
4,1,44,-.02756,.0059,
-.02756,-.0059,
-.027531,-.006242,
-.027443,-.006574,
-.027299,-.006886,
-.027102,-.007167,
-.02686,-.007411,
-.026579,-.007609,
-.026268,-.007754,
-.025937,-.007844,
-.025595,-.007875,
-.02559,-.00787,
.02559,-.00787,
.025932,-.007845,
.026264,-.007756,
.026575,-.007611,
.026856,-.007414,
.027099,-.007171,
.027296,-.00689,
.027441,-.006579,
.02753,-.006247,
.02756,-.005905,
.02756,-.0059,
.02756,.0059,
.027531,.006242,
.027443,.006574,
.027299,.006886,
.027102,.007167,
.02686,.007411,
.026579,.007609,
.026268,.007754,
.025937,.007844,
.025595,.007875,
.02559,.00787,
-.02559,.00787,
-.025932,.007845,
-.026264,.007756,
-.026575,.007611,
-.026856,.007414,
-.027099,.007171,
-.027296,.00689,
-.027441,.006579,
-.02753,.006247,
-.02756,.005905,
-.02756,.0059,
0.0*
%
%ADD88MACRO88*%
%ADD38R,.01929X.04724*%
%ADD29O,.08268X.04724*%
%ADD28R,.04724X.01929*%
%AMMACRO51*
4,1,40,-.01575,.00787,
-.01575,-.00787,
-.01572,-.008212,
-.015631,-.008544,
-.015486,-.008855,
-.015289,-.009136,
-.015046,-.009379,
-.014765,-.009576,
-.014454,-.009721,
-.014122,-.00981,
-.01378,-.00984,
.01378,-.00984,
.014122,-.00981,
.014454,-.009721,
.014765,-.009576,
.015046,-.009379,
.015289,-.009136,
.015486,-.008855,
.015631,-.008544,
.01572,-.008212,
.01575,-.00787,
.01575,.00787,
.01572,.008212,
.015631,.008544,
.015486,.008855,
.015289,.009136,
.015046,.009379,
.014765,.009576,
.014454,.009721,
.014122,.00981,
.01378,.00984,
-.01378,.00984,
-.014122,.00981,
-.014454,.009721,
-.014765,.009576,
-.015046,.009379,
-.015289,.009136,
-.015486,.008855,
-.015631,.008544,
-.01572,.008212,
-.01575,.00787,
0.0*
%
%ADD51MACRO51*%
%AMMACRO19*
4,1,44,-.02559,.0059,
-.02559,-.0059,
-.025561,-.006242,
-.025473,-.006574,
-.025329,-.006886,
-.025132,-.007167,
-.02489,-.007411,
-.024609,-.007609,
-.024298,-.007754,
-.023967,-.007844,
-.023625,-.007875,
-.02362,-.00787,
.02362,-.00787,
.023962,-.007845,
.024294,-.007756,
.024605,-.007611,
.024886,-.007414,
.025129,-.007171,
.025326,-.00689,
.025471,-.006579,
.02556,-.006247,
.02559,-.005905,
.02559,-.0059,
.02559,.0059,
.025561,.006242,
.025473,.006574,
.025329,.006886,
.025132,.007167,
.02489,.007411,
.024609,.007609,
.024298,.007754,
.023967,.007844,
.023625,.007875,
.02362,.00787,
-.02362,.00787,
-.023962,.007845,
-.024294,.007756,
-.024605,.007611,
-.024886,.007414,
-.025129,.007171,
-.025326,.00689,
-.025471,.006579,
-.02556,.006247,
-.02559,.005905,
-.02559,.0059,
0.0*
%
%ADD19MACRO19*%
%AMMACRO69*
4,1,40,.00984,.01378,
-.00984,.01378,
-.010182,.01375,
-.010514,.013661,
-.010825,.013516,
-.011106,.013319,
-.011349,.013076,
-.011546,.012795,
-.011691,.012484,
-.01178,.012152,
-.01181,.01181,
-.01181,-.01181,
-.01178,-.012152,
-.011691,-.012484,
-.011546,-.012795,
-.011349,-.013076,
-.011106,-.013319,
-.010825,-.013516,
-.010514,-.013661,
-.010182,-.01375,
-.00984,-.01378,
.00984,-.01378,
.010182,-.01375,
.010514,-.013661,
.010825,-.013516,
.011106,-.013319,
.011349,-.013076,
.011546,-.012795,
.011691,-.012484,
.01178,-.012152,
.01181,-.01181,
.01181,.01181,
.01178,.012152,
.011691,.012484,
.011546,.012795,
.011349,.013076,
.011106,.013319,
.010825,.013516,
.010514,.013661,
.010182,.01375,
.00984,.01378,
0.0*
%
%ADD69MACRO69*%
%AMMACRO82*
4,1,40,-.01378,.00492,
-.01378,-.00492,
-.01375,-.005262,
-.013661,-.005594,
-.013516,-.005905,
-.013319,-.006186,
-.013076,-.006429,
-.012795,-.006626,
-.012484,-.006771,
-.012152,-.00686,
-.01181,-.00689,
.01181,-.00689,
.012152,-.00686,
.012484,-.006771,
.012795,-.006626,
.013076,-.006429,
.013319,-.006186,
.013516,-.005905,
.013661,-.005594,
.01375,-.005262,
.01378,-.00492,
.01378,.00492,
.01375,.005262,
.013661,.005594,
.013516,.005905,
.013319,.006186,
.013076,.006429,
.012795,.006626,
.012484,.006771,
.012152,.00686,
.01181,.00689,
-.01181,.00689,
-.012152,.00686,
-.012484,.006771,
-.012795,.006626,
-.013076,.006429,
-.013319,.006186,
-.013516,.005905,
-.013661,.005594,
-.01375,.005262,
-.01378,.00492,
0.0*
%
%ADD82MACRO82*%
%AMMACRO20*
4,1,40,-.02559,.00591,
-.02559,-.00591,
-.02547,-.007277,
-.025115,-.008602,
-.024536,-.009845,
-.023749,-.010969,
-.022779,-.011939,
-.021655,-.012726,
-.020412,-.013305,
-.019087,-.01366,
-.01772,-.01378,
.01772,-.01378,
.019087,-.01366,
.020412,-.013305,
.021655,-.012726,
.022779,-.011939,
.023749,-.010969,
.024536,-.009845,
.025115,-.008602,
.02547,-.007277,
.02559,-.00591,
.02559,.00591,
.02547,.007277,
.025115,.008602,
.024536,.009845,
.023749,.010969,
.022779,.011939,
.021655,.012726,
.020412,.013305,
.019087,.01366,
.01772,.01378,
-.01772,.01378,
-.019087,.01366,
-.020412,.013305,
-.021655,.012726,
-.022779,.011939,
-.023749,.010969,
-.024536,.009845,
-.025115,.008602,
-.02547,.007277,
-.02559,.00591,
0.0*
%
%ADD20MACRO20*%
%AMMACRO40*
4,1,44,.01082,.02197,
-.01082,.02197,
-.011162,.021941,
-.011494,.021853,
-.011806,.021709,
-.012087,.021512,
-.012331,.02127,
-.012529,.020989,
-.012674,.020678,
-.012764,.020347,
-.012795,.020005,
-.01279,.02,
-.01279,-.02,
-.012765,-.020342,
-.012676,-.020674,
-.012531,-.020985,
-.012334,-.021266,
-.012091,-.021509,
-.01181,-.021706,
-.011499,-.021851,
-.011167,-.02194,
-.010825,-.02197,
-.01082,-.02197,
.01082,-.02197,
.011162,-.021941,
.011494,-.021853,
.011806,-.021709,
.012087,-.021512,
.012331,-.02127,
.012529,-.020989,
.012674,-.020678,
.012764,-.020347,
.012795,-.020005,
.01279,-.02,
.01279,.02,
.012765,.020342,
.012676,.020674,
.012531,.020985,
.012334,.021266,
.012091,.021509,
.01181,.021706,
.011499,.021851,
.011167,.02194,
.010825,.02197,
.01082,.02197,
0.0*
%
%ADD40MACRO40*%
%ADD91C,.005*%
G75*
%LPD*%
G75*
G36*
G01X-28161Y57466D02*
Y59237D01*
X-25795D01*
Y57466D01*
X-28161D01*
G37*
G36*
G01Y60025D02*
Y61796D01*
X-25795D01*
Y60025D01*
X-28161D01*
G37*
G36*
G01Y62584D02*
Y64359D01*
X-25795D01*
Y62584D01*
X-28161D01*
G37*
G36*
G01Y65143D02*
Y66918D01*
X-25795D01*
Y65143D01*
X-28161D01*
G37*
G36*
G01X-19417Y57387D02*
Y55497D01*
X-21267D01*
Y57387D01*
X-19417D01*
G37*
G36*
G01Y66993D02*
Y68883D01*
X-21267D01*
Y66993D01*
X-19417D01*
G37*
G36*
G01X-18669Y66214D02*
X-25086D01*
Y58166D01*
X-18669D01*
Y66214D01*
G37*
G36*
G01X-5102Y57387D02*
Y55497D01*
X-3252D01*
Y57387D01*
X-5102D01*
G37*
G36*
G01Y66993D02*
Y68883D01*
X-3252D01*
Y66993D01*
X-5102D01*
G37*
G36*
G01X-5850Y58166D02*
X567D01*
Y66214D01*
X-5850D01*
Y58166D01*
G37*
G36*
G01X9140Y54509D02*
X7365D01*
Y56875D01*
X9140D01*
Y54509D01*
G37*
G36*
G01X7290Y63253D02*
X5400D01*
Y61403D01*
X7290D01*
Y63253D01*
G37*
G36*
G01X3642Y66914D02*
Y65143D01*
X1276D01*
Y66914D01*
X3642D01*
G37*
G36*
G01Y64355D02*
Y62584D01*
X1276D01*
Y64355D01*
X3642D01*
G37*
G36*
G01Y61796D02*
Y60021D01*
X1276D01*
Y61796D01*
X3642D01*
G37*
G36*
G01Y59237D02*
Y57462D01*
X1276D01*
Y59237D01*
X3642D01*
G37*
G36*
G01X16817Y54509D02*
X15046D01*
Y56875D01*
X16817D01*
Y54509D01*
G37*
G36*
G01X14258D02*
X12487D01*
Y56875D01*
X14258D01*
Y54509D01*
G37*
G36*
G01X11699D02*
X9924D01*
Y56875D01*
X11699D01*
Y54509D01*
G37*
G36*
G01X16896Y63253D02*
X18786D01*
Y61403D01*
X16896D01*
Y63253D01*
G37*
G36*
G01X8069Y64001D02*
Y57584D01*
X16117D01*
Y64001D01*
X8069D01*
G37*
G54D10*
X-49833Y7339D03*
Y41197D03*
X-33297Y7339D03*
Y41197D03*
G54D20*
X-30935Y11670D03*
Y14819D03*
Y33717D03*
Y37063D03*
G54D11*
X-48848Y18362D03*
Y30174D03*
G54D30*
X-21350Y160025D03*
X-15050D03*
G54D21*
X-23080Y62190D03*
G54D12*
X-42500Y-4500D03*
X-12500Y-8496D03*
Y-504D03*
G54D40*
X8500Y141348D03*
X3500D03*
X-1500D03*
Y170812D03*
X3500D03*
X8500D03*
X13500Y141348D03*
Y170812D03*
G54D31*
X-25100Y159750D03*
Y166050D03*
G54D13*
X-43400Y51973D03*
G54D22*
X-25610Y47750D03*
X-17610Y44250D03*
Y51250D03*
G54D23*
X-25000Y84290D03*
Y129290D03*
G54D32*
X0Y0D03*
X-10Y189980D03*
X260000Y12500D03*
Y177500D03*
G54D50*
X22688Y90086D03*
Y92055D03*
X26232D03*
Y90086D03*
X22688Y100886D03*
Y102855D03*
X26232D03*
Y100886D03*
X22688Y95991D03*
Y97960D03*
X26232D03*
Y95991D03*
X22688Y106791D03*
Y108760D03*
X26232D03*
Y106791D03*
G54D14*
X-43400Y65753D03*
G54D41*
X20000Y-5000D03*
Y185000D03*
X169839Y174530D03*
G54D51*
X22688Y104823D03*
X26232D03*
X22688Y94023D03*
X26232D03*
G54D24*
X-30074Y146982D03*
Y154384D03*
X-30100Y188536D03*
Y195938D03*
X-15900Y146982D03*
Y154384D03*
X-15926Y188536D03*
Y195938D03*
G54D60*
X49210Y53111D03*
Y64611D03*
G54D15*
X-40984Y80688D03*
Y90688D03*
Y122892D03*
Y132892D03*
G54D33*
X-7200Y44010D03*
Y51490D03*
X2996Y47750D03*
G54D42*
X20000Y5000D03*
Y195000D03*
X30000Y-5000D03*
Y5000D03*
Y185000D03*
Y195000D03*
X40000Y-5000D03*
Y5000D03*
Y185000D03*
Y195000D03*
X50000Y-5000D03*
Y5000D03*
Y185000D03*
Y195000D03*
X60000Y-5000D03*
X70000D03*
X60000Y5000D03*
X70000D03*
X60000Y185000D03*
X70000D03*
X60000Y195000D03*
X70000D03*
X80000Y-5000D03*
Y5000D03*
Y185000D03*
Y195000D03*
X90000Y-5000D03*
Y5000D03*
Y185000D03*
Y195000D03*
X100000Y-5000D03*
Y5000D03*
Y185000D03*
Y195000D03*
X110000Y-5000D03*
Y5000D03*
Y185000D03*
Y195000D03*
X120000Y-5000D03*
X130000D03*
X120000Y5000D03*
X130000D03*
X119839Y174530D03*
X129839D03*
X120000Y185000D03*
X130000D03*
X120000Y195000D03*
X130000D03*
X140000Y-5000D03*
Y5000D03*
X139839Y174530D03*
X140000Y185000D03*
Y195000D03*
X150000Y-5000D03*
Y5000D03*
X149839Y174530D03*
X150000Y185000D03*
Y195000D03*
X160000Y-5000D03*
Y5000D03*
X159839Y174530D03*
X160000Y185000D03*
Y195000D03*
X170000Y-5000D03*
Y5000D03*
Y185000D03*
Y195000D03*
X180000Y-5000D03*
Y5000D03*
Y185000D03*
Y195000D03*
X190000Y-5000D03*
X200000D03*
X190000Y5000D03*
X200000D03*
X190000Y185000D03*
X200000D03*
X190000Y195000D03*
X200000D03*
X210000Y-5000D03*
Y5000D03*
Y185000D03*
Y195000D03*
X220000Y-5000D03*
Y5000D03*
Y185000D03*
Y195000D03*
X230000Y-5000D03*
Y5000D03*
Y185000D03*
Y195000D03*
X240000Y-5000D03*
Y5000D03*
Y185000D03*
Y195000D03*
G54D70*
X79462Y116497D03*
Y122797D03*
G54D52*
X26125Y129143D03*
X32523D03*
X26125Y124321D03*
X32523D03*
G54D16*
X-40600Y153100D03*
X-44600D03*
X-40600Y149500D03*
X-44600D03*
X-40600Y145900D03*
X-44600D03*
X-40600Y160300D03*
X-44600D03*
X-40600Y156700D03*
X-44600D03*
X-40600Y163900D03*
X-44600D03*
X-40600Y174700D03*
X-44600D03*
X-40600Y171100D03*
X-44600D03*
X-40600Y167500D03*
X-44600D03*
X-40600Y181900D03*
X-44600D03*
X-40600Y178300D03*
X-44600D03*
X-40600Y185500D03*
X-44600D03*
X-19200Y6200D03*
X-23200D03*
G54D25*
X-29250Y159900D03*
Y163700D03*
X-25500Y181900D03*
Y178100D03*
X-21000D03*
Y181900D03*
X-3140Y19109D03*
Y15309D03*
X-7300Y19196D03*
Y15396D03*
X-12210Y44520D03*
Y40720D03*
Y52460D03*
Y48660D03*
X920Y15309D03*
Y19109D03*
X9040D03*
Y15309D03*
X4980Y19109D03*
Y15309D03*
X13100D03*
Y19109D03*
X31000Y77284D03*
Y81084D03*
X34639Y15130D03*
Y18930D03*
X38639D03*
Y15130D03*
X43222Y77284D03*
Y81084D03*
X37159Y128632D03*
Y124832D03*
X56100Y81084D03*
Y77284D03*
X51900Y81084D03*
Y77284D03*
X47400D03*
Y81084D03*
X45224Y137731D03*
Y133931D03*
X61691Y19280D03*
X57191D03*
X61691Y23080D03*
X57191D03*
Y41380D03*
Y37580D03*
X61691Y41380D03*
Y37580D03*
Y55880D03*
X57191D03*
X61691Y59680D03*
X57191D03*
X64072Y81009D03*
Y84809D03*
X63184Y105684D03*
Y109484D03*
X61700Y141364D03*
Y137564D03*
X57500Y141364D03*
Y137564D03*
X69884Y117747D03*
Y121547D03*
X82691Y27540D03*
Y23740D03*
X87191D03*
Y27540D03*
X82691Y45840D03*
Y42040D03*
X87220D03*
Y45840D03*
X82691Y64140D03*
Y60340D03*
X87220D03*
Y64140D03*
X88772Y116047D03*
Y119847D03*
X96770Y32850D03*
Y29050D03*
X92967Y116047D03*
Y119847D03*
X208078Y19170D03*
Y15370D03*
X204001Y19170D03*
Y15370D03*
X200346Y170454D03*
Y174254D03*
X216232Y19170D03*
Y15370D03*
X212155D03*
Y19170D03*
X220990Y116980D03*
Y113180D03*
Y121340D03*
Y125140D03*
X212953Y170347D03*
Y174147D03*
X245076Y121410D03*
Y125210D03*
X245800Y173500D03*
Y169700D03*
X241700Y173500D03*
Y169700D03*
X237600D03*
Y173500D03*
X253200Y52100D03*
Y55900D03*
X269650Y121410D03*
Y125210D03*
X265494Y121410D03*
Y125210D03*
X274470Y103000D03*
X278500D03*
X274470Y106800D03*
X278500D03*
G54D34*
X-1439Y62190D03*
G54D43*
X22480Y73280D03*
Y84780D03*
G54D61*
X55789Y118700D03*
Y120900D03*
X53189Y118700D03*
Y120900D03*
X50589Y118700D03*
Y120900D03*
X47989Y118700D03*
Y120900D03*
G54D71*
X75328Y116497D03*
Y122797D03*
X83596Y116497D03*
Y122797D03*
G54D35*
X-962Y30054D03*
X613D03*
X2187D03*
X3762D03*
Y24346D03*
X2187D03*
X613D03*
X-962D03*
G54D44*
X35600Y34600D03*
X42400Y152755D03*
G54D80*
X192760Y23402D03*
X196500Y33598D03*
X200240Y23402D03*
G54D62*
X50200Y132731D03*
X55800D03*
X91500Y111084D03*
X85900D03*
X169810Y23500D03*
X175410D03*
X169810Y17960D03*
X175410D03*
X169810Y29140D03*
X175410D03*
X186800Y23500D03*
X181200D03*
X253987Y34770D03*
X248387D03*
X269851Y23747D03*
X261813Y95608D03*
X267413D03*
X275451Y23747D03*
G54D53*
X43480Y19830D03*
Y14230D03*
X69185Y78209D03*
Y83809D03*
X96660Y21470D03*
Y15870D03*
X96690Y54910D03*
Y60510D03*
X274670Y124310D03*
Y118710D03*
G54D26*
X-19300Y10200D03*
X-23100D03*
X-24421Y18176D03*
X-20621D03*
X-24421Y22243D03*
X-20621D03*
X-24421Y30380D03*
X-20621D03*
X-24421Y26293D03*
X-20621D03*
X-16300Y164800D03*
X-20100D03*
X-4180Y39180D03*
X3090Y34616D03*
X-710D03*
X-380Y39180D03*
X8150Y51800D03*
X4350D03*
X13300Y27400D03*
X9500D03*
X13300Y31500D03*
X9500D03*
X13300Y23300D03*
X9500D03*
X13300Y35600D03*
X9500D03*
X30630Y19039D03*
X26830D03*
Y15039D03*
X30630D03*
X29560Y115500D03*
X25760D03*
Y119800D03*
X29560D03*
X27300Y149800D03*
X23500D03*
X27300Y154255D03*
X23500D03*
X27300Y158734D03*
X23500D03*
X35217Y75123D03*
X39017D03*
X37659Y115500D03*
X33859D03*
X37659Y119800D03*
X33859D03*
X49364Y137624D03*
X53164D03*
X50255Y172500D03*
X46455D03*
X61300Y14771D03*
X57500D03*
Y27400D03*
X61300D03*
Y33071D03*
X57500D03*
X65930Y27400D03*
X57500Y45700D03*
X61300D03*
X65930D03*
X61300Y51371D03*
X57500D03*
Y64000D03*
X61300D03*
X66984Y113803D03*
X66252Y134424D03*
X61652Y145630D03*
X57852D03*
X65712Y151107D03*
X61652Y149800D03*
X57852D03*
X61652Y158255D03*
X57852D03*
X61652Y154110D03*
X57852D03*
X61652Y162448D03*
X57852D03*
X65712D03*
X66271Y172500D03*
X62471D03*
X69730Y27400D03*
X78260D03*
X74460D03*
X69730Y45700D03*
X77940D03*
X74140D03*
X77940Y64000D03*
X74140D03*
X70784Y113803D03*
X70052Y134424D03*
X69512Y151107D03*
Y162448D03*
X78487Y172500D03*
X82287D03*
X98303D03*
X94503D03*
X181700Y18505D03*
X185500D03*
X182550Y31640D03*
X186350D03*
X194600Y18505D03*
X198400D03*
X194770Y38150D03*
X198570D03*
X210742Y41570D03*
X203770Y111560D03*
X199970D03*
X214542Y41570D03*
X227300Y116600D03*
X231100D03*
Y125100D03*
X227300D03*
X231100Y120790D03*
X227300D03*
X229420Y175850D03*
X233220D03*
X239890Y113741D03*
X236090D03*
X249800Y39582D03*
X253600D03*
X249800Y43700D03*
X253600D03*
X249800Y47700D03*
X253600D03*
X257209Y113759D03*
X249109D03*
X252909D03*
Y125087D03*
X249109D03*
X257209D03*
X270340Y109122D03*
X266540D03*
X262676D03*
X258876D03*
X261009Y113759D03*
Y125087D03*
G54D17*
X-27500Y-2000D03*
X-32500D03*
X-37500D03*
X-27500Y-7000D03*
X-32500D03*
X-37500D03*
X-17500Y-2000D03*
X-22500D03*
X-17500Y-7000D03*
X-22500D03*
G54D36*
X3762Y27987D03*
Y26413D03*
X-962D03*
Y27987D03*
G54D27*
X-14200Y19446D03*
Y30546D03*
G54D45*
X30675Y24700D03*
Y44500D03*
X40525Y24700D03*
X38555D03*
X36585D03*
X34615D03*
X32645D03*
Y44500D03*
X34615D03*
X36585D03*
X38555D03*
X40525D03*
X43385Y142855D03*
X41415D03*
X39445D03*
X37475D03*
Y162655D03*
X39445D03*
X41415D03*
X43385D03*
X47325Y142855D03*
X45355D03*
Y162655D03*
X47325D03*
G54D72*
X76345Y113160D03*
Y110960D03*
X78945Y113160D03*
Y110960D03*
X184822Y125030D03*
Y122830D03*
X187464Y125030D03*
Y122830D03*
X222400Y174100D03*
Y171900D03*
X232820Y172197D03*
Y169997D03*
X230160Y172197D03*
Y169997D03*
X225000Y174100D03*
Y171900D03*
G54D81*
X198000Y120486D03*
G54D54*
X39085Y78843D03*
X35149D03*
G54D63*
X66010Y14189D03*
Y16157D03*
Y18126D03*
Y20094D03*
Y22063D03*
Y32489D03*
Y24031D03*
Y34457D03*
Y36426D03*
Y38394D03*
Y40363D03*
Y42331D03*
Y50789D03*
Y52757D03*
Y54726D03*
Y56694D03*
Y58663D03*
Y60631D03*
X77270Y22063D03*
Y20094D03*
Y18126D03*
Y16157D03*
Y14189D03*
Y32489D03*
Y24031D03*
Y42331D03*
Y40363D03*
Y38394D03*
Y36426D03*
Y34457D03*
Y56694D03*
Y54726D03*
Y52757D03*
Y50789D03*
Y60631D03*
Y58663D03*
G54D90*
X268843Y141546D03*
G54D18*
X-35463Y12890D03*
Y35646D03*
G54D91*
G01X-32500Y-12500D02*
X232500D01*
G03X282500Y37500I0J50000D01*
G01Y152500D01*
G03X232500Y202500I-50000J0D01*
G01X-32500D01*
G03X-57500Y177500I0J-25000D01*
G01Y12500D01*
G03X-32500Y-12500I25000J0D01*
G54D82*
X192094Y116549D03*
Y124423D03*
Y122455D03*
Y120486D03*
Y118517D03*
X203906Y116549D03*
Y124423D03*
Y122455D03*
Y120486D03*
Y118517D03*
G54D19*
X-30935Y17378D03*
Y19347D03*
Y21315D03*
Y23284D03*
Y25252D03*
Y27221D03*
Y29189D03*
Y31158D03*
G54D28*
X-15149Y58351D03*
Y60910D03*
Y63470D03*
Y66029D03*
X-9370D03*
Y63470D03*
Y60910D03*
Y58351D03*
G54D37*
X12093Y59590D03*
G54D64*
X66384Y90892D03*
Y99892D03*
G54D73*
X79000Y147850D03*
Y155350D03*
X89200Y147850D03*
Y151600D03*
Y155350D03*
G54D46*
X28705Y24700D03*
Y44500D03*
X42495Y24700D03*
Y44500D03*
X35505Y142855D03*
Y162655D03*
X49295Y142855D03*
Y162655D03*
G54D55*
X37117Y83725D03*
G54D29*
X-12992Y75786D03*
Y137794D03*
G54D38*
X8254Y67521D03*
X15932D03*
X13373D03*
X10813D03*
G54D47*
X25700Y27705D03*
Y41495D03*
X32500Y145860D03*
Y159650D03*
X45500Y27705D03*
Y41495D03*
X52300Y145860D03*
Y159650D03*
G54D74*
X70053Y158850D03*
Y154914D03*
X253450Y117419D03*
Y121355D03*
X261550Y117419D03*
Y121355D03*
G54D56*
X34722Y92305D03*
Y90731D03*
Y104904D03*
Y103329D03*
Y101754D03*
Y100179D03*
Y98605D03*
Y97030D03*
Y95455D03*
Y93880D03*
Y108053D03*
Y106479D03*
X57556Y90731D03*
Y92305D03*
Y93880D03*
Y95455D03*
Y97030D03*
Y98605D03*
Y100179D03*
Y101754D03*
Y103329D03*
Y104904D03*
Y106479D03*
Y108053D03*
G54D83*
X190102Y141546D03*
G54D65*
X66916Y110141D03*
X70852D03*
X266472Y105482D03*
X270408D03*
X258808D03*
X262744D03*
G54D66*
X65741Y138994D03*
Y145392D03*
X70563Y138994D03*
Y145392D03*
X235579Y118472D03*
Y124870D03*
X240401Y118472D03*
Y124870D03*
G54D84*
X194039Y132589D03*
X196008D03*
X197976D03*
X193055Y162314D03*
X195023D03*
X196992D03*
X198960D03*
X199944Y132589D03*
X201913D03*
X203882D03*
X205850D03*
X207818D03*
X209787D03*
X200929Y162314D03*
X202897D03*
X204866D03*
X206834D03*
X208803D03*
X210771D03*
X211756Y132589D03*
X213724D03*
X212740Y162314D03*
X214708D03*
X223566Y132589D03*
X225535D03*
X227504D03*
X229472D03*
X231440D03*
X233409D03*
X224551Y162314D03*
X226519D03*
X228488D03*
X230456D03*
X232425D03*
X234393D03*
X235378Y132589D03*
X237346D03*
X239314D03*
X241283D03*
X243252D03*
X245220D03*
X236362Y162314D03*
X238330D03*
X240299D03*
X242267D03*
X244236D03*
X246204D03*
X247188Y132589D03*
X249157D03*
X251126D03*
X253094D03*
X255062D03*
X257031D03*
X248173Y162314D03*
X250141D03*
X252110D03*
X254078D03*
X256047D03*
X258015D03*
X259000Y132589D03*
X260968D03*
X262936D03*
X264905D03*
X259984Y162314D03*
X261952D03*
X263921D03*
X265889D03*
G54D48*
X25700Y29675D03*
Y31645D03*
Y33615D03*
Y35585D03*
Y37555D03*
Y39525D03*
X32500Y147830D03*
Y149800D03*
Y151770D03*
Y153740D03*
Y155710D03*
Y157680D03*
X45500Y33615D03*
Y31645D03*
Y29675D03*
Y39525D03*
Y37555D03*
Y35585D03*
X52300Y151770D03*
Y149800D03*
Y147830D03*
Y157680D03*
Y155710D03*
Y153740D03*
G54D39*
X0Y84290D03*
Y94290D03*
X10000Y89290D03*
X0Y104290D03*
X10000Y99290D03*
X0Y114290D03*
X10000Y109290D03*
Y119290D03*
X0Y124290D03*
X10000Y129290D03*
G54D57*
X37478Y87975D03*
X39052D03*
X40627D03*
X42202D03*
X43777D03*
Y110809D03*
X42202D03*
X40627D03*
X39052D03*
X37478D03*
X45352Y87975D03*
X46926D03*
X48501D03*
X50076D03*
X51651D03*
X53226D03*
X54800D03*
Y110809D03*
X53226D03*
X51651D03*
X50076D03*
X48501D03*
X46926D03*
X45352D03*
G54D75*
X90181Y16610D03*
X83181D03*
X89491Y34910D03*
X82491D03*
X89491Y53210D03*
X82491D03*
G54D58*
X46139Y99392D03*
G54D76*
X91300Y86984D03*
X84300D03*
X91300Y95392D03*
X84300D03*
X91300Y103616D03*
X84300D03*
X170110Y36050D03*
X177110D03*
X206398Y26870D03*
Y35170D03*
X213398Y26870D03*
Y35170D03*
G54D49*
X33450Y52485D03*
Y66265D03*
G54D67*
X65171Y156882D03*
X248568Y119387D03*
X256668D03*
G54D85*
X202498Y57331D03*
X204466D03*
X206435D03*
X208403D03*
X210372D03*
X202498Y59299D03*
Y61268D03*
Y63236D03*
Y65205D03*
Y67173D03*
Y69142D03*
X204466Y59299D03*
Y61268D03*
Y63236D03*
Y65205D03*
Y67173D03*
Y69142D03*
X206435Y59299D03*
Y61268D03*
Y63236D03*
Y65205D03*
Y67173D03*
Y69142D03*
X208403Y59299D03*
Y61268D03*
Y63236D03*
X210372Y59299D03*
Y61268D03*
Y65205D03*
Y67173D03*
Y69142D03*
X202498Y71110D03*
Y73079D03*
Y75047D03*
Y77016D03*
Y78984D03*
Y80953D03*
X204466Y71110D03*
Y73079D03*
Y75047D03*
Y77016D03*
Y78984D03*
Y80953D03*
X206435Y71110D03*
Y73079D03*
Y75047D03*
Y77016D03*
Y78984D03*
Y80953D03*
X208403Y78984D03*
Y80953D03*
X210372Y71110D03*
Y73079D03*
Y75047D03*
Y78984D03*
Y80953D03*
X202498Y82921D03*
X204466D03*
X206435D03*
X208403D03*
X210372D03*
X212340Y57331D03*
X214309D03*
X216277D03*
X218246D03*
X220214D03*
X222183D03*
X212340Y59299D03*
Y61268D03*
Y65205D03*
X214309Y59299D03*
Y61268D03*
Y65205D03*
X216277Y59299D03*
Y61268D03*
Y65205D03*
X218246Y59299D03*
Y61268D03*
Y65205D03*
X220214Y59299D03*
Y61268D03*
Y65205D03*
Y67173D03*
Y69142D03*
X222183Y59299D03*
Y61268D03*
X212340Y75047D03*
Y78984D03*
Y80953D03*
X214309Y75047D03*
Y78984D03*
Y80953D03*
X216277Y75047D03*
Y78984D03*
Y80953D03*
X218246Y75047D03*
Y78984D03*
Y80953D03*
X220214Y71110D03*
Y73079D03*
Y75047D03*
Y78984D03*
Y80953D03*
X222183Y78984D03*
Y80953D03*
X212340Y82921D03*
X214309D03*
X216277D03*
X218246D03*
X220214D03*
X222183D03*
X224151Y57331D03*
X226120D03*
X228088D03*
X224151Y59299D03*
Y61268D03*
Y63236D03*
Y65205D03*
Y67173D03*
Y69142D03*
X226120Y59299D03*
Y61268D03*
Y63236D03*
Y65205D03*
Y67173D03*
Y69142D03*
X228088Y59299D03*
Y61268D03*
Y63236D03*
Y65205D03*
Y67173D03*
Y69142D03*
X224151Y71110D03*
Y73079D03*
Y75047D03*
Y77016D03*
Y78984D03*
Y80953D03*
X226120Y71110D03*
Y73079D03*
Y75047D03*
Y77016D03*
Y78984D03*
Y80953D03*
X228088Y71110D03*
Y73079D03*
Y75047D03*
Y77016D03*
Y78984D03*
Y80953D03*
X224151Y82921D03*
X226120D03*
X228088D03*
G54D68*
X71640Y19110D03*
Y37410D03*
Y55710D03*
G54D86*
X209218Y114712D03*
Y123768D03*
X216502Y114712D03*
Y123768D03*
G54D59*
X37394Y174469D03*
Y172500D03*
Y170531D03*
X39363Y174469D03*
Y172500D03*
Y170531D03*
X41331Y174469D03*
Y172500D03*
Y170531D03*
X43300Y174469D03*
Y172500D03*
Y170531D03*
X53410Y174469D03*
Y172500D03*
Y170531D03*
X55379Y174469D03*
Y172500D03*
Y170531D03*
X57347Y174469D03*
Y172500D03*
Y170531D03*
X59316Y174469D03*
Y172500D03*
Y170531D03*
X69426Y174469D03*
Y172500D03*
Y170531D03*
X71395Y174469D03*
Y172500D03*
Y170531D03*
X73363Y174469D03*
Y172500D03*
Y170531D03*
X75332Y174469D03*
Y172500D03*
Y170531D03*
X85442Y174469D03*
Y172500D03*
Y170531D03*
X87411Y174469D03*
Y172500D03*
Y170531D03*
X89379Y174469D03*
Y172500D03*
Y170531D03*
X91348Y174469D03*
Y172500D03*
Y170531D03*
X191100Y174323D03*
Y172354D03*
Y170385D03*
X193069Y174323D03*
Y172354D03*
Y170385D03*
X195037Y174323D03*
Y172354D03*
Y170385D03*
X197006Y174323D03*
Y172354D03*
Y170385D03*
X203700Y174323D03*
Y172354D03*
Y170385D03*
X205669Y174323D03*
Y172354D03*
Y170385D03*
X207637Y174323D03*
Y172354D03*
Y170385D03*
X209606Y174323D03*
Y172354D03*
Y170385D03*
G54D77*
X107467Y21278D03*
X110026D03*
X112585D03*
X115144D03*
X107467Y24428D03*
Y27577D03*
Y30727D03*
Y33877D03*
X110026Y24428D03*
Y27577D03*
Y30727D03*
Y33877D03*
X112585Y24428D03*
Y27577D03*
Y30727D03*
Y33877D03*
X115144Y24428D03*
Y27577D03*
Y30727D03*
Y33877D03*
X107467Y43325D03*
X110026D03*
X112585D03*
X115144D03*
X107467Y46475D03*
Y49625D03*
Y52774D03*
Y55924D03*
X110026Y46475D03*
Y49625D03*
Y52774D03*
Y55924D03*
X112585Y46475D03*
Y49625D03*
Y52774D03*
Y55924D03*
X115144Y46475D03*
Y49625D03*
Y52774D03*
Y55924D03*
X117703Y21278D03*
X120262D03*
X122821D03*
X125380D03*
X117703Y24428D03*
Y27577D03*
Y30727D03*
Y33877D03*
X120262Y24428D03*
Y27577D03*
Y30727D03*
Y33877D03*
X122821Y24428D03*
Y27577D03*
Y30727D03*
Y33877D03*
X125380Y24428D03*
Y27577D03*
Y30727D03*
Y33877D03*
X117703Y43325D03*
X120262D03*
X122821D03*
X125380D03*
X117703Y46475D03*
Y49625D03*
Y52774D03*
Y55924D03*
X120262Y46475D03*
Y49625D03*
Y52774D03*
Y55924D03*
X122821Y46475D03*
Y49625D03*
Y52774D03*
Y55924D03*
X125380Y46475D03*
Y49625D03*
Y52774D03*
Y55924D03*
X127939Y21278D03*
X130498D03*
X138176D03*
X127939Y24428D03*
Y27577D03*
Y30727D03*
Y33877D03*
X130498Y24428D03*
Y27577D03*
Y30727D03*
Y33877D03*
X138176Y24428D03*
Y27577D03*
Y30727D03*
Y33877D03*
X127939Y43325D03*
X130498D03*
X138176D03*
X127939Y46475D03*
Y49625D03*
Y52774D03*
Y55924D03*
X130498Y46475D03*
Y49625D03*
Y52774D03*
Y55924D03*
X138176Y46475D03*
Y49625D03*
Y52774D03*
Y55924D03*
X140735Y21278D03*
X143294D03*
X145853D03*
X148412D03*
X150971D03*
X140735Y24428D03*
Y27577D03*
Y30727D03*
Y33877D03*
X143294Y24428D03*
Y27577D03*
Y30727D03*
Y33877D03*
X145853Y24428D03*
Y27577D03*
Y30727D03*
Y33877D03*
X148412Y24428D03*
Y27577D03*
Y30727D03*
Y33877D03*
X150971Y24428D03*
Y27577D03*
Y30727D03*
Y33877D03*
X140735Y43325D03*
X143294D03*
X145853D03*
X148412D03*
X150971D03*
X140735Y46475D03*
Y49625D03*
Y52774D03*
Y55924D03*
X143294Y46475D03*
Y49625D03*
Y52774D03*
Y55924D03*
X145853Y46475D03*
Y49625D03*
Y52774D03*
Y55924D03*
X148412Y46475D03*
Y49625D03*
Y52774D03*
Y55924D03*
X150971Y46475D03*
Y49625D03*
Y52774D03*
Y55924D03*
X153530Y21278D03*
X156089D03*
X158648D03*
X161207D03*
X153530Y24428D03*
Y27577D03*
Y30727D03*
Y33877D03*
X156089Y24428D03*
Y27577D03*
Y30727D03*
Y33877D03*
X158648Y24428D03*
Y27577D03*
Y30727D03*
Y33877D03*
X161207Y24428D03*
Y27577D03*
Y30727D03*
Y33877D03*
X153530Y43325D03*
X156089D03*
X158648D03*
X161207D03*
X153530Y46475D03*
Y49625D03*
Y52774D03*
Y55924D03*
X156089Y46475D03*
Y49625D03*
Y52774D03*
Y55924D03*
X158648Y46475D03*
Y49625D03*
Y52774D03*
Y55924D03*
X161207Y46475D03*
Y49625D03*
Y52774D03*
Y55924D03*
G54D69*
X68884Y105259D03*
X268440Y100600D03*
X260776D03*
G54D87*
X229472Y30301D03*
G54D78*
X114547Y89560D03*
X111397D03*
X108248D03*
X105098D03*
X114547Y92710D03*
X111397D03*
X108248D03*
X105098D03*
X114547Y95859D03*
X111397D03*
X108248D03*
X105098D03*
X114547Y99009D03*
X111397D03*
X108248D03*
X105098D03*
X114547Y102159D03*
X111397D03*
X108248D03*
X105098D03*
X114547Y105308D03*
X111397D03*
X108248D03*
X105098D03*
X114547Y108458D03*
X111397D03*
X108248D03*
X105098D03*
X114547Y111607D03*
X111397D03*
X108248D03*
X105098D03*
X114547Y114757D03*
X111397D03*
X108248D03*
X105098D03*
X114547Y117907D03*
X111397D03*
X108248D03*
X105098D03*
X114547Y121056D03*
X111397D03*
X108248D03*
X105098D03*
X114547Y124206D03*
X111397D03*
X108248D03*
X105098D03*
X114547Y127355D03*
X111397D03*
X108248D03*
X105098D03*
X114547Y130505D03*
X111397D03*
X108248D03*
X105098D03*
X114547Y133655D03*
X111397D03*
X108248D03*
X105098D03*
X114547Y136804D03*
X111397D03*
X108248D03*
X105098D03*
X114547Y139954D03*
X111397D03*
X108248D03*
X105098D03*
X114547Y143103D03*
X111397D03*
X108248D03*
X105098D03*
X114547Y146253D03*
X111397D03*
X108248D03*
X105098D03*
X114547Y149403D03*
X111397D03*
X108248D03*
X105098D03*
X114547Y152552D03*
X111397D03*
X108248D03*
X105098D03*
X114547Y155702D03*
X111397D03*
X108248D03*
X105098D03*
X127145Y89560D03*
X123996D03*
X120846D03*
X117697D03*
X127145Y92710D03*
X123996D03*
X120846D03*
X117697D03*
X127145Y95859D03*
X123996D03*
X120846D03*
X117697D03*
X127145Y99009D03*
X123996D03*
X120846D03*
X117697D03*
X127145Y102159D03*
X123996D03*
X120846D03*
X117697D03*
X127145Y105308D03*
X123996D03*
X120846D03*
X117697D03*
X127145Y108458D03*
X123996D03*
X120846D03*
X117697D03*
X127145Y111607D03*
X123996D03*
X120846D03*
X117697D03*
X127145Y114757D03*
X123996D03*
X120846D03*
X117697D03*
X127145Y117907D03*
X123996D03*
X120846D03*
X117697D03*
X127145Y121056D03*
X123996D03*
X120846D03*
X117697D03*
X127145Y124206D03*
X123996D03*
X120846D03*
X117697D03*
X127145Y127355D03*
X123996D03*
X120846D03*
X117697D03*
X127145Y130505D03*
X123996D03*
X120846D03*
X117697D03*
X127145Y133655D03*
X123996D03*
X120846D03*
X117697D03*
X127145Y136804D03*
X123996D03*
X120846D03*
X117697D03*
X127145Y139954D03*
X123996D03*
X120846D03*
X117697D03*
X127145Y143103D03*
X123996D03*
X120846D03*
X117697D03*
X127145Y146253D03*
X123996D03*
X120846D03*
X117697D03*
X127145Y149403D03*
X123996D03*
X120846D03*
X117697D03*
X127145Y152552D03*
X123996D03*
X120846D03*
X117697D03*
X127145Y155702D03*
X123996D03*
X120846D03*
X117697D03*
X136594Y89560D03*
X133445D03*
X130295D03*
X136594Y92710D03*
X133445D03*
X130295D03*
X136594Y95859D03*
X133445D03*
X130295D03*
X136594Y99009D03*
X133445D03*
X130295D03*
X136594Y102159D03*
X133445D03*
X130295D03*
X136594Y105308D03*
X133445D03*
X130295D03*
X136594Y108458D03*
X133445D03*
X130295D03*
X136594Y111607D03*
X133445D03*
X130295D03*
X136594Y114757D03*
X133445D03*
X130295D03*
X136594Y117907D03*
X133445D03*
X130295D03*
X136594Y121056D03*
X133445D03*
X130295D03*
X136594Y124206D03*
X133445D03*
X130295D03*
X136594Y127355D03*
X133445D03*
X130295D03*
X136594Y130505D03*
X133445D03*
X130295D03*
X136594Y133655D03*
X133445D03*
X130295D03*
X136594Y136804D03*
X133445D03*
X130295D03*
X136594Y139954D03*
X133445D03*
X130295D03*
X136594Y143103D03*
X133445D03*
X130295D03*
X136594Y146253D03*
X133445D03*
X130295D03*
X136594Y149403D03*
X133445D03*
X130295D03*
X136594Y152552D03*
X133445D03*
X130295D03*
X136594Y155702D03*
X133445D03*
X130295D03*
X149193Y89560D03*
X146043D03*
X142893D03*
X139744D03*
X149193Y92710D03*
X146043D03*
X142893D03*
X139744D03*
X149193Y95859D03*
X146043D03*
X142893D03*
X139744D03*
X149193Y99009D03*
X146043D03*
X142893D03*
X139744D03*
X149193Y102159D03*
X146043D03*
X142893D03*
X139744D03*
X149193Y105308D03*
X146043D03*
X142893D03*
X139744D03*
X149193Y108458D03*
X146043D03*
X142893D03*
X139744D03*
X149193Y111607D03*
X146043D03*
X142893D03*
X139744D03*
X149193Y114757D03*
X146043D03*
X142893D03*
X139744D03*
X149193Y117907D03*
X146043D03*
X142893D03*
X139744D03*
X149193Y121056D03*
X146043D03*
X142893D03*
X139744D03*
X149193Y124206D03*
X146043D03*
X142893D03*
X139744D03*
X149193Y127355D03*
X146043D03*
X142893D03*
X139744D03*
X149193Y130505D03*
X146043D03*
X142893D03*
X139744D03*
X149193Y133655D03*
X146043D03*
X142893D03*
X139744D03*
X149193Y136804D03*
X146043D03*
X142893D03*
X139744D03*
X149193Y139954D03*
X146043D03*
X142893D03*
X139744D03*
X149193Y143103D03*
X146043D03*
X142893D03*
X139744D03*
X149193Y146253D03*
X146043D03*
X142893D03*
X139744D03*
X149193Y149403D03*
X146043D03*
X142893D03*
X139744D03*
X149193Y152552D03*
X146043D03*
X142893D03*
X139744D03*
X149193Y155702D03*
X146043D03*
X142893D03*
X139744D03*
X161791Y89560D03*
X158641D03*
X155492D03*
X152342D03*
X161791Y92710D03*
X158641D03*
X155492D03*
X152342D03*
X161791Y95859D03*
X158641D03*
X155492D03*
X152342D03*
X161791Y99009D03*
X158641D03*
X155492D03*
X152342D03*
X161791Y102159D03*
X158641D03*
X155492D03*
X152342D03*
X161791Y105308D03*
X158641D03*
X155492D03*
X152342D03*
X161791Y108458D03*
X158641D03*
X155492D03*
X152342D03*
X161791Y111607D03*
X158641D03*
X155492D03*
X152342D03*
X161791Y114757D03*
X158641D03*
X155492D03*
X152342D03*
X161791Y117907D03*
X158641D03*
X155492D03*
X152342D03*
X161791Y121056D03*
X158641D03*
X155492D03*
X152342D03*
X161791Y124206D03*
X158641D03*
X155492D03*
X152342D03*
X161791Y127355D03*
X158641D03*
X155492D03*
X152342D03*
X161791Y130505D03*
X158641D03*
X155492D03*
X152342D03*
X161791Y133655D03*
X158641D03*
X155492D03*
X152342D03*
X161791Y136804D03*
X158641D03*
X155492D03*
X152342D03*
X161791Y139954D03*
X158641D03*
X155492D03*
X152342D03*
X161791Y143103D03*
X158641D03*
X155492D03*
X152342D03*
X161791Y146253D03*
X158641D03*
X155492D03*
X152342D03*
X161791Y149403D03*
X158641D03*
X155492D03*
X152342D03*
X161791Y152552D03*
X158641D03*
X155492D03*
X152342D03*
X161791Y155702D03*
X158641D03*
X155492D03*
X152342D03*
X171240Y89560D03*
X168090D03*
X164941D03*
X171240Y92710D03*
X168090D03*
X164941D03*
X171240Y95859D03*
X168090D03*
X164941D03*
X171240Y99009D03*
X168090D03*
X164941D03*
X171240Y102159D03*
X168090D03*
X164941D03*
X171240Y105308D03*
X168090D03*
X164941D03*
X171240Y108458D03*
X168090D03*
X164941D03*
X171240Y111607D03*
X168090D03*
X164941D03*
X171240Y114757D03*
X168090D03*
X164941D03*
X171240Y117907D03*
X168090D03*
X164941D03*
X171240Y121056D03*
X168090D03*
X164941D03*
X171240Y124206D03*
X168090D03*
X164941D03*
X171240Y127355D03*
X168090D03*
X164941D03*
X171240Y130505D03*
X168090D03*
X164941D03*
X171240Y133655D03*
X168090D03*
X164941D03*
X171240Y136804D03*
X168090D03*
X164941D03*
X171240Y139954D03*
X168090D03*
X164941D03*
X171240Y143103D03*
X168090D03*
X164941D03*
X171240Y146253D03*
X168090D03*
X164941D03*
X171240Y149403D03*
X168090D03*
X164941D03*
X171240Y152552D03*
X168090D03*
X164941D03*
X171240Y155702D03*
X168090D03*
X164941D03*
G54D88*
X259199Y39213D03*
Y41181D03*
Y43150D03*
Y45118D03*
Y47087D03*
Y49055D03*
Y51024D03*
Y52992D03*
Y54961D03*
Y56929D03*
Y58898D03*
Y60866D03*
Y62835D03*
Y64803D03*
Y66772D03*
Y68740D03*
Y70709D03*
Y72677D03*
Y74646D03*
Y76614D03*
Y78583D03*
Y80551D03*
G54D79*
X188724Y159263D03*
X270220D03*
G54D89*
X271590Y31142D03*
X271589Y88622D03*
M02*
