G04 ================== begin FILE IDENTIFICATION RECORD ==================*
G04 Layout Name:  BEAGLEV FIRE_REV A_230911.brd*
G04 Film Name:    PAST_BOT*
G04 File Format:  Gerber RS274X*
G04 File Origin:  Cadence Allegro 17.4-S031*
G04 Origin Date:  Tue Sep 26 15:21:01 2023*
G04 *
G04 Layer:  PIN/PASTEMASK_BOTTOM*
G04 Layer:  PACKAGE GEOMETRY/PASTEMASK_BOTTOM*
G04 Layer:  BOARD GEOMETRY/OUTLINE*
G04 *
G04 Offset:    (0.00 0.00)*
G04 Mirror:    No*
G04 Mode:      Positive*
G04 Rotation:  0*
G04 FullContactRelief:  No*
G04 UndefLineWidth:     5.00*
G04 ================== end FILE IDENTIFICATION RECORD ====================*
%FSLAX25Y25*MOIN*%
%IR0*IPPOS*OFA0.00000B0.00000*MIA0B0*SFA1.00000B1.00000*%
%AMMACRO34*
4,1,44,.00689,-.00194,
.00194,-.00689,
.001677,-.007118,
.001375,-.007293,
.001048,-.007412,
.000704,-.007472,
.000356,-.007472,
.000013,-.007412,
-.000315,-.007293,
-.000617,-.007118,
-.000884,-.006894,
-.00088,-.00689,
-.00689,-.00088,
-.007118,-.000617,
-.007293,-.000315,
-.007412,.000012,
-.007472,.000356,
-.007472,.000704,
-.007412,.001048,
-.007293,.001375,
-.007119,.001677,
-.006894,.001944,
-.00689,.00194,
-.00194,.00689,
-.001677,.007118,
-.001375,.007293,
-.001048,.007412,
-.000704,.007472,
-.000356,.007472,
-.000013,.007412,
.000315,.007293,
.000617,.007118,
.000884,.006894,
.00088,.00689,
.00689,.00088,
.007118,.000617,
.007293,.000315,
.007412,-.000012,
.007472,-.000356,
.007472,-.000704,
.007412,-.001048,
.007293,-.001375,
.007119,-.001677,
.006894,-.001944,
.00689,-.00194,
0.0*
%
%ADD34MACRO34*%
%AMMACRO32*
4,1,40,.0035,-.00625,
-.0035,-.00625,
-.003847,-.00622,
-.004184,-.006129,
-.0045,-.005982,
-.004786,-.005782,
-.005032,-.005536,
-.005232,-.00525,
-.005379,-.004934,
-.00547,-.004597,
-.0055,-.00425,
-.0055,.00425,
-.00547,.004597,
-.005379,.004934,
-.005232,.00525,
-.005032,.005536,
-.004786,.005782,
-.0045,.005982,
-.004184,.006129,
-.003847,.00622,
-.0035,.00625,
.0035,.00625,
.003847,.00622,
.004184,.006129,
.0045,.005982,
.004786,.005782,
.005032,.005536,
.005232,.00525,
.005379,.004934,
.00547,.004597,
.0055,.00425,
.0055,-.00425,
.00547,-.004597,
.005379,-.004934,
.005232,-.00525,
.005032,-.005536,
.004786,-.005782,
.0045,-.005982,
.004184,-.006129,
.003847,-.00622,
.0035,-.00625,
0.0*
%
%ADD32MACRO32*%
%AMMACRO30*
4,1,40,.00625,.0035,
.00625,-.0035,
.00622,-.003847,
.006129,-.004184,
.005982,-.0045,
.005782,-.004786,
.005536,-.005032,
.00525,-.005232,
.004934,-.005379,
.004597,-.00547,
.00425,-.0055,
-.00425,-.0055,
-.004597,-.00547,
-.004934,-.005379,
-.00525,-.005232,
-.005536,-.005032,
-.005782,-.004786,
-.005982,-.0045,
-.006129,-.004184,
-.00622,-.003847,
-.00625,-.0035,
-.00625,.0035,
-.00622,.003847,
-.006129,.004184,
-.005982,.0045,
-.005782,.004786,
-.005536,.005032,
-.00525,.005232,
-.004934,.005379,
-.004597,.00547,
-.00425,.0055,
.00425,.0055,
.004597,.00547,
.004934,.005379,
.00525,.005232,
.005536,.005032,
.005782,.004786,
.005982,.0045,
.006129,.004184,
.00622,.003847,
.00625,.0035,
0.0*
%
%ADD30MACRO30*%
%AMMACRO40*
4,1,40,-.02953,.03445,
.02953,.03445,
.030897,.03433,
.032222,.033975,
.033465,.033396,
.034589,.032609,
.035559,.031639,
.036346,.030515,
.036925,.029272,
.03728,.027947,
.0374,.02658,
.0374,-.02658,
.03728,-.027947,
.036925,-.029272,
.036346,-.030515,
.035559,-.031639,
.034589,-.032609,
.033465,-.033396,
.032222,-.033975,
.030897,-.03433,
.02953,-.03445,
-.02953,-.03445,
-.030897,-.03433,
-.032222,-.033975,
-.033465,-.033396,
-.034589,-.032609,
-.035559,-.031639,
-.036346,-.030515,
-.036925,-.029272,
-.03728,-.027947,
-.0374,-.02658,
-.0374,.02658,
-.03728,.027947,
-.036925,.029272,
-.036346,.030515,
-.035559,.031639,
-.034589,.032609,
-.033465,.033396,
-.032222,.033975,
-.030897,.03433,
-.02953,.03445,
0.0*
%
%ADD40MACRO40*%
%ADD50R,.01693X.1*%
%ADD23R,.08X.08*%
%AMMACRO14*
4,1,40,.045,.03213,
.045,-.03213,
.04488,-.033497,
.044525,-.034822,
.043946,-.036065,
.043159,-.037189,
.042189,-.038159,
.041065,-.038946,
.039822,-.039525,
.038497,-.03988,
.03713,-.04,
-.03713,-.04,
-.038497,-.03988,
-.039822,-.039525,
-.041065,-.038946,
-.042189,-.038159,
-.043159,-.037189,
-.043946,-.036065,
-.044525,-.034822,
-.04488,-.033497,
-.045,-.03213,
-.045,.03213,
-.04488,.033497,
-.044525,.034822,
-.043946,.036065,
-.043159,.037189,
-.042189,.038159,
-.041065,.038946,
-.039822,.039525,
-.038497,.03988,
-.03713,.04,
.03713,.04,
.038497,.03988,
.039822,.039525,
.041065,.038946,
.042189,.038159,
.043159,.037189,
.043946,.036065,
.044525,.034822,
.04488,.033497,
.045,.03213,
0.0*
%
%ADD14MACRO14*%
%AMMACRO44*
4,1,40,.03307,-.01181,
-.03307,-.01181,
-.033754,-.01175,
-.034418,-.011572,
-.03504,-.011282,
-.035603,-.010888,
-.036088,-.010403,
-.036482,-.00984,
-.036772,-.009218,
-.03695,-.008554,
-.03701,-.00787,
-.03701,.00787,
-.03695,.008554,
-.036772,.009218,
-.036482,.00984,
-.036088,.010403,
-.035603,.010888,
-.03504,.011282,
-.034418,.011572,
-.033754,.01175,
-.03307,.01181,
.03307,.01181,
.033754,.01175,
.034418,.011572,
.03504,.011282,
.035603,.010888,
.036088,.010403,
.036482,.00984,
.036772,.009218,
.03695,.008554,
.03701,.00787,
.03701,-.00787,
.03695,-.008554,
.036772,-.009218,
.036482,-.00984,
.036088,-.010403,
.035603,-.010888,
.03504,-.011282,
.034418,-.011572,
.033754,-.01175,
.03307,-.01181,
0.0*
%
%ADD44MACRO44*%
%ADD51R,.01693X.18504*%
%AMMACRO15*
4,1,44,.01181,.0059,
.01181,-.0059,
.011781,-.006242,
.011693,-.006574,
.011549,-.006886,
.011352,-.007167,
.01111,-.007411,
.010829,-.007609,
.010518,-.007754,
.010187,-.007844,
.009845,-.007875,
.00984,-.00787,
-.00984,-.00787,
-.010182,-.007845,
-.010514,-.007756,
-.010825,-.007611,
-.011106,-.007414,
-.011349,-.007171,
-.011546,-.00689,
-.011691,-.006579,
-.01178,-.006247,
-.01181,-.005905,
-.01181,-.0059,
-.01181,.0059,
-.011781,.006242,
-.011693,.006574,
-.011549,.006886,
-.011352,.007167,
-.01111,.007411,
-.010829,.007609,
-.010518,.007754,
-.010187,.007844,
-.009845,.007875,
-.00984,.00787,
.00984,.00787,
.010182,.007845,
.010514,.007756,
.010825,.007611,
.011106,.007414,
.011349,.007171,
.011546,.00689,
.011691,.006579,
.01178,.006247,
.01181,.005905,
.01181,.0059,
0.0*
%
%ADD15MACRO15*%
%AMMACRO49*
4,1,40,.02756,.01772,
.02756,-.01772,
.02744,-.019087,
.027085,-.020412,
.026506,-.021655,
.025719,-.022779,
.024749,-.023749,
.023625,-.024536,
.022382,-.025115,
.021057,-.02547,
.01969,-.02559,
-.01969,-.02559,
-.021057,-.02547,
-.022382,-.025115,
-.023625,-.024536,
-.024749,-.023749,
-.025719,-.022779,
-.026506,-.021655,
-.027085,-.020412,
-.02744,-.019087,
-.02756,-.01772,
-.02756,.01772,
-.02744,.019087,
-.027085,.020412,
-.026506,.021655,
-.025719,.022779,
-.024749,.023749,
-.023625,.024536,
-.022382,.025115,
-.021057,.02547,
-.01969,.02559,
.01969,.02559,
.021057,.02547,
.022382,.025115,
.023625,.024536,
.024749,.023749,
.025719,.022779,
.026506,.021655,
.027085,.020412,
.02744,.019087,
.02756,.01772,
0.0*
%
%ADD49MACRO49*%
%AMMACRO47*
4,1,40,.02559,.01772,
.02559,-.01772,
.02547,-.019087,
.025115,-.020412,
.024536,-.021655,
.023749,-.022779,
.022779,-.023749,
.021655,-.024536,
.020412,-.025115,
.019087,-.02547,
.01772,-.02559,
-.01772,-.02559,
-.019087,-.02547,
-.020412,-.025115,
-.021655,-.024536,
-.022779,-.023749,
-.023749,-.022779,
-.024536,-.021655,
-.025115,-.020412,
-.02547,-.019087,
-.02559,-.01772,
-.02559,.01772,
-.02547,.019087,
-.025115,.020412,
-.024536,.021655,
-.023749,.022779,
-.022779,.023749,
-.021655,.024536,
-.020412,.025115,
-.019087,.02547,
-.01772,.02559,
.01772,.02559,
.019087,.02547,
.020412,.025115,
.021655,.024536,
.022779,.023749,
.023749,.022779,
.024536,.021655,
.025115,.020412,
.02547,.019087,
.02559,.01772,
0.0*
%
%ADD47MACRO47*%
%AMMACRO11*
4,1,40,.01181,.00787,
.01181,-.00787,
.01178,-.008212,
.011691,-.008544,
.011546,-.008855,
.011349,-.009136,
.011106,-.009379,
.010825,-.009576,
.010514,-.009721,
.010182,-.00981,
.00984,-.00984,
-.00984,-.00984,
-.010182,-.00981,
-.010514,-.009721,
-.010825,-.009576,
-.011106,-.009379,
-.011349,-.009136,
-.011546,-.008855,
-.011691,-.008544,
-.01178,-.008212,
-.01181,-.00787,
-.01181,.00787,
-.01178,.008212,
-.011691,.008544,
-.011546,.008855,
-.011349,.009136,
-.011106,.009379,
-.010825,.009576,
-.010514,.009721,
-.010182,.00981,
-.00984,.00984,
.00984,.00984,
.010182,.00981,
.010514,.009721,
.010825,.009576,
.011106,.009379,
.011349,.009136,
.011546,.008855,
.011691,.008544,
.01178,.008212,
.01181,.00787,
0.0*
%
%ADD11MACRO11*%
%AMMACRO41*
4,1,40,-.01378,-.00295,
-.01378,.00295,
-.01375,.003292,
-.013661,.003624,
-.013516,.003935,
-.013319,.004216,
-.013076,.004459,
-.012795,.004656,
-.012484,.004801,
-.012152,.00489,
-.01181,.00492,
.01181,.00492,
.012152,.00489,
.012484,.004801,
.012795,.004656,
.013076,.004459,
.013319,.004216,
.013516,.003935,
.013661,.003624,
.01375,.003292,
.01378,.00295,
.01378,-.00295,
.01375,-.003292,
.013661,-.003624,
.013516,-.003935,
.013319,-.004216,
.013076,-.004459,
.012795,-.004656,
.012484,-.004801,
.012152,-.00489,
.01181,-.00492,
-.01181,-.00492,
-.012152,-.00489,
-.012484,-.004801,
-.012795,-.004656,
-.013076,-.004459,
-.013319,-.004216,
-.013516,-.003935,
-.013661,-.003624,
-.01375,-.003292,
-.01378,-.00295,
0.0*
%
%ADD41MACRO41*%
%AMMACRO33*
4,1,40,-.00625,-.0035,
-.00625,.0035,
-.00622,.003847,
-.006129,.004184,
-.005982,.0045,
-.005782,.004786,
-.005536,.005032,
-.00525,.005232,
-.004934,.005379,
-.004597,.00547,
-.00425,.0055,
.00425,.0055,
.004597,.00547,
.004934,.005379,
.00525,.005232,
.005536,.005032,
.005782,.004786,
.005982,.0045,
.006129,.004184,
.00622,.003847,
.00625,.0035,
.00625,-.0035,
.00622,-.003847,
.006129,-.004184,
.005982,-.0045,
.005782,-.004786,
.005536,-.005032,
.00525,-.005232,
.004934,-.005379,
.004597,-.00547,
.00425,-.0055,
-.00425,-.0055,
-.004597,-.00547,
-.004934,-.005379,
-.00525,-.005232,
-.005536,-.005032,
-.005782,-.004786,
-.005982,-.0045,
-.006129,-.004184,
-.00622,-.003847,
-.00625,-.0035,
0.0*
%
%ADD33MACRO33*%
%AMMACRO52*
4,1,44,.02559,-.02953,
-.02559,-.02953,
-.026957,-.029411,
-.028282,-.029057,
-.029526,-.028478,
-.03065,-.027692,
-.031621,-.026723,
-.032408,-.025599,
-.032989,-.024356,
-.033345,-.023032,
-.033465,-.021665,
-.03346,-.02166,
-.03346,.02166,
-.033345,.023027,
-.03299,.024352,
-.032411,.025595,
-.031624,.026719,
-.030654,.027689,
-.02953,.028476,
-.028287,.029055,
-.026962,.02941,
-.025595,.02953,
-.02559,.02953,
.02559,.02953,
.026957,.029411,
.028282,.029057,
.029526,.028478,
.03065,.027692,
.031621,.026723,
.032408,.025599,
.032989,.024356,
.033345,.023032,
.033465,.021665,
.03346,.02166,
.03346,-.02166,
.033345,-.023027,
.03299,-.024352,
.032411,-.025595,
.031624,-.026719,
.030654,-.027689,
.02953,-.028476,
.028287,-.029055,
.026962,-.02941,
.025595,-.02953,
.02559,-.02953,
0.0*
%
%ADD52MACRO52*%
%AMMACRO46*
4,1,44,.02953,.02559,
.02953,-.02559,
.029411,-.026957,
.029057,-.028282,
.028478,-.029526,
.027692,-.03065,
.026723,-.031621,
.025599,-.032408,
.024356,-.032989,
.023032,-.033345,
.021665,-.033465,
.02166,-.03346,
-.02166,-.03346,
-.023027,-.033345,
-.024352,-.03299,
-.025595,-.032411,
-.026719,-.031624,
-.027689,-.030654,
-.028476,-.02953,
-.029055,-.028287,
-.02941,-.026962,
-.02953,-.025595,
-.02953,-.02559,
-.02953,.02559,
-.029411,.026957,
-.029057,.028282,
-.028478,.029526,
-.027692,.03065,
-.026723,.031621,
-.025599,.032408,
-.024356,.032989,
-.023032,.033345,
-.021665,.033465,
-.02166,.03346,
.02166,.03346,
.023027,.033345,
.024352,.03299,
.025595,.032411,
.026719,.031624,
.027689,.030654,
.028476,.02953,
.029055,.028287,
.02941,.026962,
.02953,.025595,
.02953,.02559,
0.0*
%
%ADD46MACRO46*%
%AMMACRO36*
4,1,44,.03543,.02756,
.03543,-.02756,
.035316,-.028927,
.034962,-.030252,
.034383,-.031496,
.033597,-.03262,
.032628,-.033591,
.031504,-.034378,
.030261,-.034959,
.028937,-.035315,
.02757,-.035435,
.02756,-.03543,
-.02756,-.03543,
-.028927,-.035316,
-.030252,-.034962,
-.031496,-.034383,
-.03262,-.033597,
-.033591,-.032628,
-.034378,-.031504,
-.034959,-.030261,
-.035315,-.028937,
-.035435,-.02757,
-.03543,-.02756,
-.03543,.02756,
-.035316,.028927,
-.034962,.030252,
-.034383,.031496,
-.033597,.03262,
-.032628,.033591,
-.031504,.034378,
-.030261,.034959,
-.028937,.035315,
-.02757,.035435,
-.02756,.03543,
.02756,.03543,
.028927,.035316,
.030252,.034962,
.031496,.034383,
.03262,.033597,
.033591,.032628,
.034378,.031504,
.034959,.030261,
.035315,.028937,
.035435,.02757,
.03543,.02756,
0.0*
%
%ADD36MACRO36*%
%AMMACRO31*
4,1,40,-.0035,.00625,
.0035,.00625,
.003847,.00622,
.004184,.006129,
.0045,.005982,
.004786,.005782,
.005032,.005536,
.005232,.00525,
.005379,.004934,
.00547,.004597,
.0055,.00425,
.0055,-.00425,
.00547,-.004597,
.005379,-.004934,
.005232,-.00525,
.005032,-.005536,
.004786,-.005782,
.0045,-.005982,
.004184,-.006129,
.003847,-.00622,
.0035,-.00625,
-.0035,-.00625,
-.003847,-.00622,
-.004184,-.006129,
-.0045,-.005982,
-.004786,-.005782,
-.005032,-.005536,
-.005232,-.00525,
-.005379,-.004934,
-.00547,-.004597,
-.0055,-.00425,
-.0055,.00425,
-.00547,.004597,
-.005379,.004934,
-.005232,.00525,
-.005032,.005536,
-.004786,.005782,
-.0045,.005982,
-.004184,.006129,
-.003847,.00622,
-.0035,.00625,
0.0*
%
%ADD31MACRO31*%
%ADD13R,.022X.02*%
%ADD29R,.01X.05*%
%ADD12R,.02X.022*%
%AMMACRO45*
4,1,44,.02953,.02362,
.02953,-.02362,
.029411,-.024987,
.029057,-.026312,
.028478,-.027556,
.027692,-.02868,
.026723,-.029651,
.025599,-.030438,
.024356,-.031019,
.023032,-.031375,
.021665,-.031495,
.02166,-.03149,
-.02166,-.03149,
-.023027,-.031375,
-.024352,-.03102,
-.025595,-.030441,
-.026719,-.029654,
-.027689,-.028684,
-.028476,-.02756,
-.029055,-.026317,
-.02941,-.024992,
-.02953,-.023625,
-.02953,-.02362,
-.02953,.02362,
-.029411,.024987,
-.029057,.026312,
-.028478,.027556,
-.027692,.02868,
-.026723,.029651,
-.025599,.030438,
-.024356,.031019,
-.023032,.031375,
-.021665,.031495,
-.02166,.03149,
.02166,.03149,
.023027,.031375,
.024352,.03102,
.025595,.030441,
.026719,.029654,
.027689,.028684,
.028476,.02756,
.029055,.026317,
.02941,.024992,
.02953,.023625,
.02953,.02362,
0.0*
%
%ADD45MACRO45*%
%AMMACRO39*
4,1,40,.02166,-.04429,
-.02166,-.04429,
-.023027,-.04417,
-.024352,-.043815,
-.025595,-.043236,
-.026719,-.042449,
-.027689,-.041479,
-.028476,-.040355,
-.029055,-.039112,
-.02941,-.037787,
-.02953,-.03642,
-.02953,.03642,
-.02941,.037787,
-.029055,.039112,
-.028476,.040355,
-.027689,.041479,
-.026719,.042449,
-.025595,.043236,
-.024352,.043815,
-.023027,.04417,
-.02166,.04429,
.02166,.04429,
.023027,.04417,
.024352,.043815,
.025595,.043236,
.026719,.042449,
.027689,.041479,
.028476,.040355,
.029055,.039112,
.02941,.037787,
.02953,.03642,
.02953,-.03642,
.02941,-.037787,
.029055,-.039112,
.028476,-.040355,
.027689,-.041479,
.026719,-.042449,
.025595,-.043236,
.024352,-.043815,
.023027,-.04417,
.02166,-.04429,
0.0*
%
%ADD39MACRO39*%
%ADD38R,.04X.025*%
%ADD27R,.035X.03*%
%ADD22O,.016X.06*%
%ADD25R,.03X.035*%
%ADD21R,.012X.0374*%
%ADD24R,.059X.04*%
%ADD20R,.0374X.012*%
%ADD26R,.04X.059*%
%ADD10R,.055X.064*%
%ADD48R,.08937X.01102*%
%AMMACRO28*
4,1,40,-.01378,-.01303,
-.01378,.01303,
-.01375,.013372,
-.013661,.013704,
-.013516,.014015,
-.013319,.014296,
-.013076,.014539,
-.012795,.014736,
-.012484,.014881,
-.012152,.01497,
-.01181,.015,
.01181,.015,
.012152,.01497,
.012484,.014881,
.012795,.014736,
.013076,.014539,
.013319,.014296,
.013516,.014015,
.013661,.013704,
.01375,.013372,
.01378,.01303,
.01378,-.01303,
.01375,-.013372,
.013661,-.013704,
.013516,-.014015,
.013319,-.014296,
.013076,-.014539,
.012795,-.014736,
.012484,-.014881,
.012152,-.01497,
.01181,-.015,
-.01181,-.015,
-.012152,-.01497,
-.012484,-.014881,
-.012795,-.014736,
-.013076,-.014539,
-.013319,-.014296,
-.013516,-.014015,
-.013661,-.013704,
-.01375,-.013372,
-.01378,-.01303,
0.0*
%
%ADD28MACRO28*%
%AMMACRO17*
4,1,28,.04823,.02715,
.04626,.02715,
.04626,.0488,
.03051,.0488,
.03051,.02715,
.02067,.02715,
.02067,.0488,
.00492,.0488,
.00492,.02715,
-.00492,.02715,
-.00492,.0488,
-.02067,.0488,
-.02067,.02715,
-.03051,.02715,
-.03051,.0488,
-.04626,.0488,
-.04626,.02715,
-.04823,.02715,
-.04823,-.01616,
-.0689,-.01616,
-.0689,-.0386,
-.04823,-.0386,
-.04823,-.0488,
.04823,-.0488,
.04823,-.0386,
.0689,-.0386,
.0689,-.01616,
.04823,-.01616,
.04823,.02715,
0.0*
%
%ADD17MACRO17*%
%ADD16R,.01535X.03858*%
%AMMACRO43*
4,1,44,-.01181,-.0059,
-.01181,.0059,
-.011781,.006242,
-.011693,.006574,
-.011549,.006886,
-.011352,.007167,
-.01111,.007411,
-.010829,.007609,
-.010518,.007754,
-.010187,.007844,
-.009845,.007875,
-.00984,.00787,
.00984,.00787,
.010182,.007845,
.010514,.007756,
.010825,.007611,
.011106,.007414,
.011349,.007171,
.011546,.00689,
.011691,.006579,
.01178,.006247,
.01181,.005905,
.01181,.0059,
.01181,-.0059,
.011781,-.006242,
.011693,-.006574,
.011549,-.006886,
.011352,-.007167,
.01111,-.007411,
.010829,-.007609,
.010518,-.007754,
.010187,-.007844,
.009845,-.007875,
.00984,-.00787,
-.00984,-.00787,
-.010182,-.007845,
-.010514,-.007756,
-.010825,-.007611,
-.011106,-.007414,
-.011349,-.007171,
-.011546,-.00689,
-.011691,-.006579,
-.01178,-.006247,
-.01181,-.005905,
-.01181,-.0059,
0.0*
%
%ADD43MACRO43*%
%AMMACRO19*
4,1,44,-.0059,.01181,
.0059,.01181,
.006242,.011781,
.006574,.011693,
.006886,.011549,
.007167,.011352,
.007411,.01111,
.007609,.010829,
.007754,.010518,
.007844,.010187,
.007875,.009845,
.00787,.00984,
.00787,-.00984,
.007845,-.010182,
.007756,-.010514,
.007611,-.010825,
.007414,-.011106,
.007171,-.011349,
.00689,-.011546,
.006579,-.011691,
.006247,-.01178,
.005905,-.01181,
.0059,-.01181,
-.0059,-.01181,
-.006242,-.011781,
-.006574,-.011693,
-.006886,-.011549,
-.007167,-.011352,
-.007411,-.01111,
-.007609,-.010829,
-.007754,-.010518,
-.007844,-.010187,
-.007875,-.009845,
-.00787,-.00984,
-.00787,.00984,
-.007845,.010182,
-.007756,.010514,
-.007611,.010825,
-.007414,.011106,
-.007171,.011349,
-.00689,.011546,
-.006579,.011691,
-.006247,.01178,
-.005905,.01181,
-.0059,.01181,
0.0*
%
%ADD19MACRO19*%
%AMMACRO37*
4,1,44,.01181,.00196,
.01181,-.00196,
.011781,-.002302,
.011693,-.002634,
.011549,-.002946,
.011352,-.003227,
.01111,-.003471,
.010829,-.003669,
.010518,-.003814,
.010187,-.003904,
.009845,-.003935,
.00984,-.00393,
-.00984,-.00393,
-.010182,-.003905,
-.010514,-.003816,
-.010825,-.003671,
-.011106,-.003474,
-.011349,-.003231,
-.011546,-.00295,
-.011691,-.002639,
-.01178,-.002307,
-.01181,-.001965,
-.01181,-.00196,
-.01181,.00196,
-.011781,.002302,
-.011693,.002634,
-.011549,.002946,
-.011352,.003227,
-.01111,.003471,
-.010829,.003669,
-.010518,.003814,
-.010187,.003904,
-.009845,.003935,
-.00984,.00393,
.00984,.00393,
.010182,.003905,
.010514,.003816,
.010825,.003671,
.011106,.003474,
.011349,.003231,
.011546,.00295,
.011691,.002639,
.01178,.002307,
.01181,.001965,
.01181,.00196,
0.0*
%
%ADD37MACRO37*%
%AMMACRO35*
4,1,44,.00196,-.01181,
-.00196,-.01181,
-.002302,-.011781,
-.002634,-.011693,
-.002946,-.011549,
-.003227,-.011352,
-.003471,-.01111,
-.003669,-.010829,
-.003814,-.010518,
-.003904,-.010187,
-.003935,-.009845,
-.00393,-.00984,
-.00393,.00984,
-.003905,.010182,
-.003816,.010514,
-.003671,.010825,
-.003474,.011106,
-.003231,.011349,
-.00295,.011546,
-.002639,.011691,
-.002307,.01178,
-.001965,.01181,
-.00196,.01181,
.00196,.01181,
.002302,.011781,
.002634,.011693,
.002946,.011549,
.003227,.011352,
.003471,.01111,
.003669,.010829,
.003814,.010518,
.003904,.010187,
.003935,.009845,
.00393,.00984,
.00393,-.00984,
.003905,-.010182,
.003816,-.010514,
.003671,-.010825,
.003474,-.011106,
.003231,-.011349,
.00295,-.011546,
.002639,-.011691,
.002307,-.01178,
.001965,-.01181,
.00196,-.01181,
0.0*
%
%ADD35MACRO35*%
%AMMACRO42*
4,1,40,-.01181,-.00787,
-.01181,.00787,
-.01178,.008212,
-.011691,.008544,
-.011546,.008855,
-.011349,.009136,
-.011106,.009379,
-.010825,.009576,
-.010514,.009721,
-.010182,.00981,
-.00984,.00984,
.00984,.00984,
.010182,.00981,
.010514,.009721,
.010825,.009576,
.011106,.009379,
.011349,.009136,
.011546,.008855,
.011691,.008544,
.01178,.008212,
.01181,.00787,
.01181,-.00787,
.01178,-.008212,
.011691,-.008544,
.011546,-.008855,
.011349,-.009136,
.011106,-.009379,
.010825,-.009576,
.010514,-.009721,
.010182,-.00981,
.00984,-.00984,
-.00984,-.00984,
-.010182,-.00981,
-.010514,-.009721,
-.010825,-.009576,
-.011106,-.009379,
-.011349,-.009136,
-.011546,-.008855,
-.011691,-.008544,
-.01178,-.008212,
-.01181,-.00787,
0.0*
%
%ADD42MACRO42*%
%AMMACRO18*
4,1,40,-.00787,.01181,
.00787,.01181,
.008212,.01178,
.008544,.011691,
.008855,.011546,
.009136,.011349,
.009379,.011106,
.009576,.010825,
.009721,.010514,
.00981,.010182,
.00984,.00984,
.00984,-.00984,
.00981,-.010182,
.009721,-.010514,
.009576,-.010825,
.009379,-.011106,
.009136,-.011349,
.008855,-.011546,
.008544,-.011691,
.008212,-.01178,
.00787,-.01181,
-.00787,-.01181,
-.008212,-.01178,
-.008544,-.011691,
-.008855,-.011546,
-.009136,-.011349,
-.009379,-.011106,
-.009576,-.010825,
-.009721,-.010514,
-.00981,-.010182,
-.00984,-.00984,
-.00984,.00984,
-.00981,.010182,
-.009721,.010514,
-.009576,.010825,
-.009379,.011106,
-.009136,.011349,
-.008855,.011546,
-.008544,.011691,
-.008212,.01178,
-.00787,.01181,
0.0*
%
%ADD18MACRO18*%
%ADD53C,.005*%
G75*
%LPD*%
G75*
G36*
G01X-5490Y42616D02*
Y45026D01*
X-2265D01*
Y42616D01*
X-5490D01*
G37*
G36*
G01Y39010D02*
Y41415D01*
X-2265D01*
Y39010D01*
X-5490D01*
G37*
G36*
G01X-8360Y39557D02*
Y41407D01*
X-6470D01*
Y39557D01*
X-8360D01*
G37*
G36*
G01X-6195Y46136D02*
Y47608D01*
X-4817D01*
Y46136D01*
X-6195D01*
G37*
G36*
G01X-1069Y42616D02*
Y45026D01*
X2156D01*
Y42616D01*
X-1069D01*
G37*
G36*
G01Y39010D02*
Y41415D01*
X2156D01*
Y39010D01*
X-1069D01*
G37*
G36*
G01X3136Y39557D02*
Y41407D01*
X5026D01*
Y39557D01*
X3136D01*
G37*
G36*
G01X1483Y46136D02*
Y47608D01*
X2861D01*
Y46136D01*
X1483D01*
G37*
G36*
G01X-1076D02*
Y47608D01*
X301D01*
Y46136D01*
X-1076D01*
G37*
G36*
G01X-3635D02*
Y47608D01*
X-2258D01*
Y46136D01*
X-3635D01*
G37*
G54D10*
X-50550Y18176D03*
Y30380D03*
X-39450Y18176D03*
Y30380D03*
G54D20*
X-270Y27179D03*
Y24620D03*
Y29738D03*
X5636D03*
Y24620D03*
Y27179D03*
G54D11*
X-38510Y145900D03*
X-40600Y153100D03*
Y160300D03*
Y174700D03*
Y167500D03*
Y181900D03*
X-24700Y156930D03*
Y163900D03*
Y171100D03*
Y178300D03*
Y185500D03*
G54D21*
X5962Y55473D03*
X844D03*
X3403D03*
Y61379D03*
X844D03*
X5962D03*
G54D12*
X-48400Y153100D03*
X-44600D03*
X-48400Y145900D03*
X-44600D03*
X-48400Y149500D03*
X-44600D03*
X-48400Y160300D03*
X-44600D03*
X-48400Y156700D03*
X-44600D03*
X-48400Y163900D03*
X-44600D03*
X-48400Y167500D03*
X-44600D03*
X-48400Y171100D03*
X-44600D03*
X-48400Y174700D03*
X-44600D03*
X-48400Y181900D03*
X-44600D03*
X-48400Y185500D03*
X-44600D03*
X-48400Y178300D03*
X-44600D03*
X-29570Y145900D03*
X-27850Y153100D03*
X-31650D03*
X-27850Y160300D03*
X-31650D03*
X-27850Y167500D03*
X-31650D03*
X-27850Y174700D03*
X-31650D03*
X-27850Y181900D03*
X-31650D03*
X-15820Y61330D03*
X-18380Y92590D03*
Y96649D03*
Y104767D03*
Y100708D03*
Y108826D03*
Y116944D03*
Y112885D03*
Y121003D03*
X-25770Y145900D03*
X-15900Y156700D03*
Y164300D03*
Y171100D03*
Y178300D03*
X-16000Y191400D03*
X-19800D03*
X-3840Y55831D03*
X-7640D03*
Y50490D03*
X-3840D03*
X-12020Y61330D03*
X-7640D03*
X-3840D03*
X-14580Y92590D03*
Y96649D03*
Y104767D03*
Y100708D03*
Y108826D03*
Y116944D03*
Y112885D03*
Y121003D03*
X-12100Y156700D03*
Y164300D03*
X-3592Y176700D03*
X-7392D03*
X-12100Y171100D03*
Y178300D03*
X4583Y20550D03*
X783D03*
X5303Y50490D03*
X1503D03*
X5650Y68470D03*
X1850D03*
X9620D03*
X13420D03*
X23500Y149800D03*
X27300D03*
X23500Y158734D03*
X27300D03*
X23500Y154255D03*
X27300D03*
X30050Y168231D03*
X38422Y93200D03*
X34622D03*
X38422Y97355D03*
X34622D03*
X38422Y101529D03*
X34622D03*
X38422Y105837D03*
X34622D03*
X42089Y168231D03*
X38289D03*
X33850D03*
X54039Y89550D03*
Y93616D03*
Y85484D03*
X49400D03*
X45600D03*
X54100Y97700D03*
X48289Y116071D03*
X52089D03*
X48183Y111971D03*
X51983D03*
X48183Y107837D03*
X51983D03*
X56000Y107584D03*
X54545Y164000D03*
X46355Y168231D03*
X50155D03*
X54545D03*
X62010Y27400D03*
X65810D03*
X65930Y45700D03*
Y41600D03*
Y59900D03*
X57839Y89550D03*
Y93616D03*
X67539Y89550D03*
X63739D03*
X67539Y85484D03*
X63739D03*
X57839D03*
X67539Y93616D03*
X63739D03*
X67539Y103350D03*
X63739D03*
X67539Y99216D03*
X63739D03*
X57900Y97700D03*
X67539Y107584D03*
X63739D03*
X59800D03*
X58345Y164000D03*
X62500Y168231D03*
X66300D03*
X58345D03*
X73530Y27400D03*
X69730D03*
Y45700D03*
Y41600D03*
Y59900D03*
X78487Y164000D03*
X70513D03*
X74313D03*
X78487Y168231D03*
X74313D03*
X70513D03*
X82287Y164000D03*
X90305D03*
X86505D03*
X82287Y168231D03*
X86505D03*
X90305D03*
X103100Y57180D03*
X102390Y168231D03*
X98590D03*
X106900Y57180D03*
X137400Y141393D03*
X133600D03*
X137400Y145501D03*
X133600D03*
X139523Y160100D03*
X143323D03*
X184000Y148100D03*
X194285Y89700D03*
X198085D03*
Y94100D03*
X194285D03*
X198085Y98300D03*
X194285D03*
X198100Y126680D03*
X187800Y148100D03*
X191753Y162600D03*
X195553D03*
X191753Y166740D03*
X195553D03*
X205770Y98300D03*
X201970D03*
X209655D03*
X207100Y114800D03*
X210900D03*
X201900Y126680D03*
X210956Y118100D03*
X207156D03*
X206900Y143000D03*
X210700D03*
Y154400D03*
X206900D03*
Y158746D03*
X210700D03*
X223070Y74190D03*
X223080Y78270D03*
X213455Y98300D03*
X221500Y103693D03*
X226990Y58130D03*
X223190D03*
X227000Y62170D03*
X223200D03*
X226870Y74190D03*
X226880Y78270D03*
X225300Y103693D03*
X245400Y90731D03*
X241600D03*
G54D30*
X96170Y158161D03*
Y155961D03*
X108790Y32550D03*
Y34750D03*
X112990Y109070D03*
Y106870D03*
X107470Y128750D03*
Y130950D03*
X109750Y152903D03*
Y155103D03*
X121530Y32140D03*
Y29940D03*
X118990Y54820D03*
Y52620D03*
X120850Y92150D03*
Y89950D03*
X116230Y101740D03*
Y99540D03*
X125560Y128520D03*
Y130720D03*
X136870Y31520D03*
Y29320D03*
X131390Y53620D03*
Y51420D03*
X135000Y128400D03*
Y126200D03*
X144550Y32450D03*
Y34650D03*
X147630Y90520D03*
Y88320D03*
X144510Y112710D03*
Y110510D03*
X141300Y115070D03*
Y112870D03*
X144450Y116920D03*
X150750D03*
X144450Y119120D03*
X144410Y128410D03*
Y126210D03*
X150750Y119120D03*
X146040Y152970D03*
Y155170D03*
X162710Y44820D03*
Y47020D03*
X160120Y115790D03*
Y113590D03*
X157026Y116990D03*
Y119190D03*
X160200Y137890D03*
Y135690D03*
X153730Y138010D03*
Y135810D03*
G54D22*
X10213Y44878D03*
X12773D03*
X15333D03*
X17893D03*
Y63078D03*
X15333D03*
X12773D03*
X10213D03*
G54D13*
X-35010Y-5859D03*
Y-2059D03*
X-29990Y-2060D03*
Y-5860D03*
X-20290Y-5820D03*
Y-2020D03*
X-24890Y-5840D03*
Y-2040D03*
X-15991Y45590D03*
Y57073D03*
Y53273D03*
Y49390D03*
X-6760Y29650D03*
Y25850D03*
X-11791Y45623D03*
Y53273D03*
Y57073D03*
Y49423D03*
X3508Y147908D03*
Y151708D03*
X8508D03*
Y147908D03*
X-1492Y151708D03*
Y147908D03*
Y160308D03*
Y164108D03*
X3508Y160308D03*
Y164108D03*
X8508Y160308D03*
Y164108D03*
X16870Y35420D03*
Y39220D03*
X13508Y160308D03*
Y164108D03*
X31300Y20800D03*
Y24600D03*
Y41300D03*
Y45100D03*
X30200Y89300D03*
Y85500D03*
X35600Y20800D03*
X39900D03*
X35600Y24600D03*
X39900D03*
Y41300D03*
Y45100D03*
X35580Y41300D03*
Y45100D03*
X39074Y110071D03*
Y113871D03*
X43259Y110071D03*
Y113871D03*
X34759D03*
Y110071D03*
X36000Y151264D03*
Y147464D03*
X40100Y151264D03*
Y147464D03*
X51900Y77284D03*
Y81084D03*
X56100Y77284D03*
Y81084D03*
X50015Y93300D03*
Y89500D03*
X45839Y93300D03*
Y89500D03*
X63800Y117500D03*
Y121300D03*
X77500Y150200D03*
Y154000D03*
X82400Y136000D03*
Y132200D03*
X86700Y136000D03*
Y132200D03*
X81800Y150200D03*
Y154000D03*
X94490Y166870D03*
Y170670D03*
X108710Y162461D03*
Y158661D03*
X137315Y137300D03*
Y133500D03*
X180390Y41320D03*
Y37520D03*
X176320Y41320D03*
Y37520D03*
X184460Y41320D03*
Y37520D03*
X184250Y66900D03*
X180225D03*
X176200D03*
X180150Y62800D03*
Y59000D03*
X176125Y62800D03*
Y59000D03*
X184175Y62800D03*
Y59000D03*
X184250Y70700D03*
X180225D03*
X176200D03*
X192922Y19605D03*
Y23405D03*
X194122Y31230D03*
Y27430D03*
X198200Y31230D03*
Y27430D03*
X196670Y41320D03*
Y37520D03*
X192600Y41320D03*
Y37520D03*
X188530Y41320D03*
Y37520D03*
X188275Y66900D03*
X188200Y62800D03*
Y59000D03*
X188275Y70700D03*
X194085Y104840D03*
Y108640D03*
X206480Y58370D03*
X210680D03*
X206480Y62170D03*
X210680D03*
X210710Y70180D03*
Y66380D03*
X206500Y70180D03*
Y66380D03*
X203100Y114700D03*
X206600Y122323D03*
Y126123D03*
X203100Y118500D03*
X210800Y126123D03*
Y122323D03*
X206400Y138800D03*
Y135000D03*
X202200Y138800D03*
Y135000D03*
X210600D03*
Y138800D03*
X202613Y146768D03*
Y150568D03*
X200346Y172047D03*
Y168247D03*
X219150Y58260D03*
X214970Y58240D03*
X222850Y70030D03*
Y66230D03*
X214850Y66350D03*
Y70150D03*
X219150Y62060D03*
X214970Y62040D03*
X213500Y104840D03*
Y108640D03*
X215453Y171947D03*
Y168147D03*
X219660D03*
Y171947D03*
X227140Y70070D03*
Y66270D03*
X229560Y99870D03*
Y103670D03*
X233723Y99870D03*
Y103670D03*
X223800Y171947D03*
Y168147D03*
X237920Y99870D03*
Y103670D03*
G54D31*
X111400Y17470D03*
X113600D03*
X103960Y29480D03*
X106160D03*
X111500Y42470D03*
X113700D03*
X111560Y35050D03*
X113760D03*
X106490Y50780D03*
X108690D03*
X111480Y57180D03*
X113680D03*
X103900Y53600D03*
X106100D03*
X103880Y47720D03*
X106080D03*
X111898Y133679D03*
X114098D03*
X108750Y143040D03*
X110950D03*
X116740Y17470D03*
X118940D03*
X126980Y17490D03*
X121880Y17450D03*
X124080D03*
X116550Y32550D03*
X118750D03*
X116480Y42480D03*
X118680D03*
X121730Y42450D03*
X123930D03*
X126780Y57160D03*
X116783Y57203D03*
X118983D03*
X121901D03*
X124101D03*
X119940Y112610D03*
X122140D03*
X116330Y121633D03*
X118530D03*
X118240Y146240D03*
X120440D03*
X129180Y17490D03*
X128980Y57160D03*
X137030Y95870D03*
X139230D03*
X133020Y116320D03*
X135220D03*
X129170Y113150D03*
X131370D03*
X144780Y26580D03*
X146980D03*
X139690Y35130D03*
X141890D03*
X151150Y128890D03*
X141630Y132060D03*
X143830D03*
X159170Y92700D03*
X161370D03*
X155170Y125760D03*
X157370D03*
X153350Y128890D03*
X171300Y21920D03*
X173500D03*
X171300Y19120D03*
X173500D03*
X171300Y30320D03*
X173500D03*
X171300Y27520D03*
X173500D03*
X171300Y24720D03*
X173500D03*
X178420Y17450D03*
X180620D03*
G54D40*
X207905Y91900D03*
G54D41*
X202196Y92884D03*
Y90916D03*
Y88947D03*
Y94853D03*
X213614Y88947D03*
Y90916D03*
Y92884D03*
Y94853D03*
G54D14*
X-26140Y47090D03*
Y63090D03*
X-17030Y20050D03*
Y36050D03*
G54D23*
X14053Y53978D03*
G54D50*
X263801Y32424D03*
Y95928D03*
G54D32*
X111180Y26260D03*
X108980D03*
X112060Y116300D03*
X109860D03*
X126300Y32570D03*
X124100D03*
X121370Y26310D03*
X119170D03*
X125980Y119480D03*
X123500Y152480D03*
X121300D03*
X139260Y17780D03*
X137060D03*
X130620Y116360D03*
X128420D03*
X128180Y119480D03*
X131080Y124910D03*
X128880D03*
X134520Y119590D03*
X132320D03*
X131440Y132050D03*
X129240D03*
X132860Y155700D03*
X130660D03*
X144470Y17750D03*
X142270D03*
X149590Y17790D03*
X147390D03*
X149970Y39970D03*
X149560Y35150D03*
X147360D03*
X146928Y39818D03*
X144728D03*
X141720Y50880D03*
X139520D03*
X146870Y57240D03*
X144670D03*
X151110Y47820D03*
X149710Y57260D03*
X146680Y47730D03*
X144480D03*
X150540Y125800D03*
X151320Y132000D03*
X154700Y17780D03*
X152500D03*
X162490Y32000D03*
X152170Y39970D03*
X162480Y39950D03*
X160280D03*
X162330Y35120D03*
X160130D03*
X154410Y35130D03*
X152210D03*
X157310Y39950D03*
X155110D03*
X153310Y47820D03*
X157170Y57220D03*
X154970D03*
X151910Y57260D03*
X162230Y98950D03*
X159670Y110020D03*
X157470D03*
X152740Y125800D03*
X162920Y119470D03*
X160720D03*
X153520Y132000D03*
X164690Y32000D03*
X164430Y98950D03*
X172250Y116320D03*
X170050D03*
X172300Y110040D03*
X170100D03*
X166070Y128930D03*
X163870D03*
X172340Y125780D03*
X170140D03*
X166210Y135290D03*
X164010D03*
X172320Y132110D03*
X170120D03*
X172280Y138360D03*
X170080D03*
X185260Y17450D03*
X183060D03*
G54D42*
X211241Y148668D03*
G54D24*
X25130Y21200D03*
Y28200D03*
Y40900D03*
Y47900D03*
X30453Y57844D03*
Y64844D03*
X46130Y21200D03*
Y28200D03*
Y40900D03*
Y47900D03*
X39507Y57844D03*
Y64844D03*
X80540Y20071D03*
Y27071D03*
Y34700D03*
Y41700D03*
Y53000D03*
Y60000D03*
X88720Y20071D03*
Y34700D03*
Y27071D03*
Y41700D03*
Y53000D03*
Y60000D03*
X177770Y113540D03*
Y120540D03*
X177870Y136072D03*
Y143072D03*
X200385Y67200D03*
Y74200D03*
X191390Y113814D03*
Y120814D03*
G54D33*
X108700Y42180D03*
Y44380D03*
X109800Y100740D03*
Y102940D03*
X125620Y133200D03*
Y135400D03*
X137140Y23370D03*
Y25570D03*
X129370Y23850D03*
Y26050D03*
X139420Y54610D03*
Y56810D03*
X138220Y117010D03*
Y119210D03*
X147653Y117096D03*
X147610Y126260D03*
Y128460D03*
X147653Y119296D03*
X141340Y117590D03*
Y119790D03*
X141330Y126280D03*
Y128480D03*
X147650Y132580D03*
Y134780D03*
X159940Y26540D03*
Y28740D03*
X159920Y48630D03*
Y50830D03*
X153970Y117018D03*
X160180Y126400D03*
Y128600D03*
X157020Y128810D03*
X153970Y119218D03*
X157020Y131010D03*
X152340Y149800D03*
Y152000D03*
G54D15*
X-33628Y143932D03*
Y147868D03*
X-35718Y151132D03*
Y155068D03*
Y158332D03*
Y162268D03*
Y172732D03*
Y176668D03*
Y165532D03*
Y169468D03*
Y179932D03*
Y183868D03*
X-19818Y154962D03*
Y158898D03*
Y161932D03*
Y169132D03*
Y173068D03*
Y176332D03*
Y165868D03*
Y180268D03*
Y183532D03*
Y187468D03*
G54D51*
X263801Y51676D03*
Y76676D03*
G54D43*
X206359Y150636D03*
Y146700D03*
G54D16*
X-5506Y35525D03*
X2172D03*
X-387D03*
X-2947D03*
G54D25*
X35239Y87984D03*
X40839D03*
X56969Y102600D03*
X51369D03*
X54639Y126200D03*
X63739Y112500D03*
X60239Y126200D03*
X69339Y112500D03*
X128860Y160100D03*
X134460D03*
X162300Y154050D03*
X156700D03*
X187365Y126880D03*
X197980Y18860D03*
X192965Y126880D03*
X203580Y18860D03*
X218000Y77450D03*
X212400D03*
G54D52*
X276889Y109847D03*
Y162997D03*
G54D34*
X123387Y50284D03*
X121831Y48728D03*
X161939Y133645D03*
X160383Y132089D03*
G54D53*
G01X-32500Y-12500D02*
X232500D01*
G03X282500Y37500I0J50000D01*
G01Y152500D01*
G03X232500Y202500I-50000J0D01*
G01X-32500D01*
G03X-57500Y177500I0J-25000D01*
G01Y12500D01*
G03X-32500Y-12500I25000J0D01*
G54D35*
X180450Y21291D03*
X182025D03*
X183600D03*
X185175D03*
X186750D03*
Y32709D03*
X185175D03*
X183600D03*
X182025D03*
X180450D03*
G54D17*
X-1667Y43220D03*
G54D26*
X66130Y21190D03*
X66140Y35371D03*
Y53671D03*
X73130Y21190D03*
X73140Y35371D03*
Y53671D03*
X168500Y150331D03*
X175500D03*
X168500Y158460D03*
X175500D03*
X186665Y133790D03*
X193665D03*
G54D44*
X218661Y117131D03*
Y125792D03*
Y121461D03*
Y138784D03*
Y134454D03*
Y130123D03*
Y147446D03*
Y143115D03*
G54D18*
X-5492Y168070D03*
G54D27*
X91905Y151203D03*
Y156803D03*
X172300Y90500D03*
Y96100D03*
X184600Y113660D03*
Y119260D03*
X198300Y115600D03*
Y121200D03*
X232030Y58980D03*
Y64580D03*
G54D45*
X218700Y111520D03*
G54D36*
X183600Y27000D03*
G54D37*
X177891Y30150D03*
Y28575D03*
Y27000D03*
Y25425D03*
Y23850D03*
X189309D03*
Y25425D03*
Y27000D03*
Y28575D03*
Y30150D03*
G54D19*
X-3524Y172952D03*
X-7460D03*
G54D28*
X86870Y150853D03*
Y157153D03*
G54D46*
X218700Y161816D03*
G54D38*
X198770Y102990D03*
Y110490D03*
X204778Y23720D03*
Y27470D03*
Y31220D03*
X208970Y102990D03*
Y110490D03*
Y106740D03*
X214978Y31220D03*
Y23720D03*
G54D29*
X102965Y151261D03*
X101005D03*
X99035D03*
Y162861D03*
X101005D03*
X102965D03*
X104935Y151261D03*
Y162861D03*
G54D47*
X224920Y109454D03*
G54D48*
X252502Y37582D03*
Y39550D03*
Y43487D03*
Y45456D03*
Y49393D03*
Y51361D03*
Y55298D03*
Y57267D03*
Y61204D03*
Y63172D03*
Y67109D03*
Y69078D03*
Y73015D03*
Y74983D03*
Y78920D03*
Y80889D03*
Y84826D03*
Y86794D03*
Y90731D03*
Y92700D03*
X275100Y37582D03*
Y39550D03*
Y43487D03*
Y45456D03*
Y49393D03*
Y51361D03*
Y55298D03*
Y57267D03*
Y61204D03*
Y63172D03*
Y67109D03*
Y69078D03*
Y73015D03*
Y74983D03*
Y78920D03*
Y80889D03*
Y84826D03*
Y86794D03*
Y90731D03*
Y92700D03*
G54D39*
X202295Y42661D03*
X216861D03*
G54D49*
X254054Y109454D03*
M02*
