G04 ================== begin FILE IDENTIFICATION RECORD ==================*
G04 Layout Name:  BEAGLEV FIRE_REV A_230911.brd*
G04 Film Name:    PAST_TOP*
G04 File Format:  Gerber RS274X*
G04 File Origin:  Cadence Allegro 17.4-S031*
G04 Origin Date:  Tue Sep 26 15:21:01 2023*
G04 *
G04 Layer:  PIN/PASTEMASK_TOP*
G04 Layer:  PACKAGE GEOMETRY/PASTEMASK_TOP*
G04 Layer:  BOARD GEOMETRY/OUTLINE*
G04 *
G04 Offset:    (0.00 0.00)*
G04 Mirror:    No*
G04 Mode:      Positive*
G04 Rotation:  0*
G04 FullContactRelief:  No*
G04 UndefLineWidth:     5.00*
G04 ================== end FILE IDENTIFICATION RECORD ====================*
%FSLAX25Y25*MOIN*%
%IR0*IPPOS*OFA0.00000B0.00000*MIA0B0*SFA1.00000B1.00000*%
%AMMACRO69*
4,1,40,.00964,.01949,
-.00964,.01949,
-.010324,.01943,
-.010988,.019252,
-.01161,.018962,
-.012173,.018568,
-.012658,.018083,
-.013052,.01752,
-.013342,.016898,
-.01352,.016234,
-.01358,.01555,
-.01358,-.01555,
-.01352,-.016234,
-.013342,-.016898,
-.013052,-.01752,
-.012658,-.018083,
-.012173,-.018568,
-.01161,-.018962,
-.010988,-.019252,
-.010324,-.01943,
-.00964,-.01949,
.00964,-.01949,
.010324,-.01943,
.010988,-.019252,
.01161,-.018962,
.012173,-.018568,
.012658,-.018083,
.013052,-.01752,
.013342,-.016898,
.01352,-.016234,
.01358,-.01555,
.01358,.01555,
.01352,.016234,
.013342,.016898,
.013052,.01752,
.012658,.018083,
.012173,.018568,
.01161,.018962,
.010988,.019252,
.010324,.01943,
.00964,.01949,
0.0*
%
%ADD69MACRO69*%
%ADD73C,.01*%
%AMMACRO11*
4,1,40,-.03937,.0315,
-.03937,-.0315,
-.03925,-.032867,
-.038895,-.034192,
-.038316,-.035435,
-.037529,-.036559,
-.036559,-.037529,
-.035435,-.038316,
-.034192,-.038895,
-.032867,-.03925,
-.0315,-.03937,
.0315,-.03937,
.032867,-.03925,
.034192,-.038895,
.035435,-.038316,
.036559,-.037529,
.037529,-.036559,
.038316,-.035435,
.038895,-.034192,
.03925,-.032867,
.03937,-.0315,
.03937,.0315,
.03925,.032867,
.038895,.034192,
.038316,.035435,
.037529,.036559,
.036559,.037529,
.035435,.038316,
.034192,.038895,
.032867,.03925,
.0315,.03937,
-.0315,.03937,
-.032867,.03925,
-.034192,.038895,
-.035435,.038316,
-.036559,.037529,
-.037529,.036559,
-.038316,.035435,
-.038895,.034192,
-.03925,.032867,
-.03937,.0315,
0.0*
%
%ADD11MACRO11*%
%ADD68R,.048X.109*%
%ADD66C,.01143*%
%ADD48C,.01181*%
%ADD13C,.03504*%
%AMMACRO49*
4,1,40,.045,-.01463,
.045,.01463,
.04488,.015997,
.044525,.017322,
.043946,.018565,
.043159,.019689,
.042189,.020659,
.041065,.021446,
.039822,.022025,
.038497,.02238,
.03713,.0225,
-.03713,.0225,
-.038497,.02238,
-.039822,.022025,
-.041065,.021446,
-.042189,.020659,
-.043159,.019689,
-.043946,.018565,
-.044525,.017322,
-.04488,.015997,
-.045,.01463,
-.045,-.01463,
-.04488,-.015997,
-.044525,-.017322,
-.043946,-.018565,
-.043159,-.019689,
-.042189,-.020659,
-.041065,-.021446,
-.039822,-.022025,
-.038497,-.02238,
-.03713,-.0225,
.03713,-.0225,
.038497,-.02238,
.039822,-.022025,
.041065,-.021446,
.042189,-.020659,
.043159,-.019689,
.043946,-.018565,
.044525,-.017322,
.04488,-.015997,
.045,-.01463,
0.0*
%
%ADD49MACRO49*%
%AMMACRO38*
4,1,44,-.06102,.02264,
-.06102,-.02264,
-.060905,-.024007,
-.06055,-.025332,
-.059971,-.026575,
-.059184,-.027699,
-.058214,-.028669,
-.05709,-.029456,
-.055847,-.030035,
-.054522,-.03039,
-.053155,-.03051,
-.05315,-.03051,
.05315,-.03051,
.054517,-.030391,
.055842,-.030037,
.057086,-.029458,
.05821,-.028672,
.059181,-.027703,
.059968,-.026579,
.060549,-.025336,
.060905,-.024012,
.061025,-.022645,
.06102,-.02264,
.06102,.02264,
.060905,.024007,
.06055,.025332,
.059971,.026575,
.059184,.027699,
.058214,.028669,
.05709,.029456,
.055847,.030035,
.054522,.03039,
.053155,.03051,
.05315,.03051,
-.05315,.03051,
-.054517,.030391,
-.055842,.030037,
-.057086,.029458,
-.05821,.028672,
-.059181,.027703,
-.059968,.026579,
-.060549,.025336,
-.060905,.024012,
-.061025,.022645,
-.06102,.02264,
0.0*
%
%ADD38MACRO38*%
%ADD67C,.01575*%
%ADD28R,.0315X.00866*%
%ADD46R,.00787X.0315*%
%ADD45R,.0315X.00787*%
%AMMACRO26*
4,1,28,.02715,.04823,
.02715,.04626,
.0488,.04626,
.0488,.03051,
.02715,.03051,
.02715,.02067,
.0488,.02067,
.0488,.00492,
.02715,.00492,
.02715,-.00492,
.0488,-.00492,
.0488,-.02067,
.02715,-.02067,
.02715,-.03051,
.0488,-.03051,
.0488,-.04626,
.02715,-.04626,
.02715,-.04823,
-.01616,-.04823,
-.01616,-.0689,
-.0386,-.0689,
-.0386,-.04823,
-.0488,-.04823,
-.0488,.04823,
-.0386,.04823,
-.0386,.0689,
-.01616,.0689,
-.01616,.04823,
.02715,.04823,
0.0*
%
%ADD26MACRO26*%
%AMMACRO63*
4,1,44,.01181,-.0059,
.01181,.0059,
.011781,.006242,
.011693,.006574,
.011549,.006886,
.011352,.007167,
.01111,.007411,
.010829,.007609,
.010518,.007754,
.010187,.007844,
.009845,.007875,
.00984,.00787,
-.00984,.00787,
-.010182,.007845,
-.010514,.007756,
-.010825,.007611,
-.011106,.007414,
-.011349,.007171,
-.011546,.00689,
-.011691,.006579,
-.01178,.006247,
-.01181,.005905,
-.01181,.0059,
-.01181,-.0059,
-.011781,-.006242,
-.011693,-.006574,
-.011549,-.006886,
-.011352,-.007167,
-.01111,-.007411,
-.010829,-.007609,
-.010518,-.007754,
-.010187,-.007844,
-.009845,-.007875,
-.00984,-.00787,
.00984,-.00787,
.010182,-.007845,
.010514,-.007756,
.010825,-.007611,
.011106,-.007414,
.011349,-.007171,
.011546,-.00689,
.011691,-.006579,
.01178,-.006247,
.01181,-.005905,
.01181,-.0059,
0.0*
%
%ADD63MACRO63*%
%AMMACRO43*
4,1,44,-.0059,-.01181,
.0059,-.01181,
.006242,-.011781,
.006574,-.011693,
.006886,-.011549,
.007167,-.011352,
.007411,-.01111,
.007609,-.010829,
.007754,-.010518,
.007844,-.010187,
.007875,-.009845,
.00787,-.00984,
.00787,.00984,
.007845,.010182,
.007756,.010514,
.007611,.010825,
.007414,.011106,
.007171,.011349,
.00689,.011546,
.006579,.011691,
.006247,.01178,
.005905,.01181,
.0059,.01181,
-.0059,.01181,
-.006242,.011781,
-.006574,.011693,
-.006886,.011549,
-.007167,.011352,
-.007411,.01111,
-.007609,.010829,
-.007754,.010518,
-.007844,.010187,
-.007875,.009845,
-.00787,.00984,
-.00787,-.00984,
-.007845,-.010182,
-.007756,-.010514,
-.007611,-.010825,
-.007414,-.011106,
-.007171,-.011349,
-.00689,-.011546,
-.006579,-.011691,
-.006247,-.01178,
-.005905,-.01181,
-.0059,-.01181,
0.0*
%
%ADD43MACRO43*%
%ADD27R,.00866X.02165*%
%AMMACRO56*
4,1,40,.01181,-.00787,
.01181,.00787,
.01178,.008212,
.011691,.008544,
.011546,.008855,
.011349,.009136,
.011106,.009379,
.010825,.009576,
.010514,.009721,
.010182,.00981,
.00984,.00984,
-.00984,.00984,
-.010182,.00981,
-.010514,.009721,
-.010825,.009576,
-.011106,.009379,
-.011349,.009136,
-.011546,.008855,
-.011691,.008544,
-.01178,.008212,
-.01181,.00787,
-.01181,-.00787,
-.01178,-.008212,
-.011691,-.008544,
-.011546,-.008855,
-.011349,-.009136,
-.011106,-.009379,
-.010825,-.009576,
-.010514,-.009721,
-.010182,-.00981,
-.00984,-.00984,
.00984,-.00984,
.010182,-.00981,
.010514,-.009721,
.010825,-.009576,
.011106,-.009379,
.011349,-.009136,
.011546,-.008855,
.011691,-.008544,
.01178,-.008212,
.01181,-.00787,
0.0*
%
%ADD56MACRO56*%
%AMMACRO44*
4,1,40,-.00787,-.01181,
.00787,-.01181,
.008212,-.01178,
.008544,-.011691,
.008855,-.011546,
.009136,-.011349,
.009379,-.011106,
.009576,-.010825,
.009721,-.010514,
.00981,-.010182,
.00984,-.00984,
.00984,.00984,
.00981,.010182,
.009721,.010514,
.009576,.010825,
.009379,.011106,
.009136,.011349,
.008855,.011546,
.008544,.011691,
.008212,.01178,
.00787,.01181,
-.00787,.01181,
-.008212,.01178,
-.008544,.011691,
-.008855,.011546,
-.009136,.011349,
-.009379,.011106,
-.009576,.010825,
-.009721,.010514,
-.00981,.010182,
-.00984,.00984,
-.00984,-.00984,
-.00981,-.010182,
-.009721,-.010514,
-.009576,-.010825,
-.009379,-.011106,
-.009136,-.011349,
-.008855,-.011546,
-.008544,-.011691,
-.008212,-.01178,
-.00787,-.01181,
0.0*
%
%ADD44MACRO44*%
%ADD39O,.02756X.00787*%
%AMMACRO71*
4,1,40,-.01181,.00295,
-.01181,-.00295,
-.01178,-.003292,
-.011691,-.003624,
-.011546,-.003935,
-.011349,-.004216,
-.011106,-.004459,
-.010825,-.004656,
-.010514,-.004801,
-.010182,-.00489,
-.00984,-.00492,
.00984,-.00492,
.010182,-.00489,
.010514,-.004801,
.010825,-.004656,
.011106,-.004459,
.011349,-.004216,
.011546,-.003935,
.011691,-.003624,
.01178,-.003292,
.01181,-.00295,
.01181,.00295,
.01178,.003292,
.011691,.003624,
.011546,.003935,
.011349,.004216,
.011106,.004459,
.010825,.004656,
.010514,.004801,
.010182,.00489,
.00984,.00492,
-.00984,.00492,
-.010182,.00489,
-.010514,.004801,
-.010825,.004656,
-.011106,.004459,
-.011349,.004216,
-.011546,.003935,
-.011691,.003624,
-.01178,.003292,
-.01181,.00295,
0.0*
%
%ADD71MACRO71*%
%AMMACRO25*
4,1,40,.01949,-.00964,
.01949,.00964,
.01943,.010324,
.019252,.010988,
.018962,.01161,
.018568,.012173,
.018083,.012658,
.01752,.013052,
.016898,.013342,
.016234,.01352,
.01555,.01358,
-.01555,.01358,
-.016234,.01352,
-.016898,.013342,
-.01752,.013052,
-.018083,.012658,
-.018568,.012173,
-.018962,.01161,
-.019252,.010988,
-.01943,.010324,
-.01949,.00964,
-.01949,-.00964,
-.01943,-.010324,
-.019252,-.010988,
-.018962,-.01161,
-.018568,-.012173,
-.018083,-.012658,
-.01752,-.013052,
-.016898,-.013342,
-.016234,-.01352,
-.01555,-.01358,
.01555,-.01358,
.016234,-.01352,
.016898,-.013342,
.01752,-.013052,
.018083,-.012658,
.018568,-.012173,
.018962,-.01161,
.019252,-.010988,
.01943,-.010324,
.01949,-.00964,
0.0*
%
%ADD25MACRO25*%
%AMMACRO70*
4,1,40,-.02756,-.03937,
.02756,-.03937,
.027902,-.03934,
.028234,-.039251,
.028545,-.039106,
.028826,-.038909,
.029069,-.038666,
.029266,-.038385,
.029411,-.038074,
.0295,-.037742,
.02953,-.0374,
.02953,.0374,
.0295,.037742,
.029411,.038074,
.029266,.038385,
.029069,.038666,
.028826,.038909,
.028545,.039106,
.028234,.039251,
.027902,.03934,
.02756,.03937,
-.02756,.03937,
-.027902,.03934,
-.028234,.039251,
-.028545,.039106,
-.028826,.038909,
-.029069,.038666,
-.029266,.038385,
-.029411,.038074,
-.0295,.037742,
-.02953,.0374,
-.02953,-.0374,
-.0295,-.037742,
-.029411,-.038074,
-.029266,-.038385,
-.029069,-.038666,
-.028826,-.038909,
-.028545,-.039106,
-.028234,-.039251,
-.027902,-.03934,
-.02756,-.03937,
0.0*
%
%ADD70MACRO70*%
%AMMACRO61*
4,1,40,-.00625,.0035,
-.00625,-.0035,
-.00622,-.003847,
-.006129,-.004184,
-.005982,-.0045,
-.005782,-.004786,
-.005536,-.005032,
-.00525,-.005232,
-.004934,-.005379,
-.004597,-.00547,
-.00425,-.0055,
.00425,-.0055,
.004597,-.00547,
.004934,-.005379,
.00525,-.005232,
.005536,-.005032,
.005782,-.004786,
.005982,-.0045,
.006129,-.004184,
.00622,-.003847,
.00625,-.0035,
.00625,.0035,
.00622,.003847,
.006129,.004184,
.005982,.0045,
.005782,.004786,
.005536,.005032,
.00525,.005232,
.004934,.005379,
.004597,.00547,
.00425,.0055,
-.00425,.0055,
-.004597,.00547,
-.004934,.005379,
-.00525,.005232,
-.005536,.005032,
-.005782,.004786,
-.005982,.0045,
-.006129,.004184,
-.00622,.003847,
-.00625,.0035,
0.0*
%
%ADD61MACRO61*%
%ADD36O,.033X.01*%
%ADD35O,.01X.033*%
%ADD19R,.022X.02*%
%ADD37R,.033X.01*%
%ADD20R,.02X.022*%
%ADD34R,.01X.033*%
%ADD12R,.025X.02*%
%ADD62R,.04X.025*%
%ADD42R,.035X.03*%
%ADD72R,.012X.062*%
%ADD51R,.03X.035*%
%ADD74R,.042X.052*%
%ADD18R,.056X.032*%
%ADD65R,.04X.059*%
%AMMACRO17*
4,1,40,-.0225,.01606,
-.0225,-.01606,
-.02244,-.016744,
-.022262,-.017408,
-.021972,-.01803,
-.021578,-.018593,
-.021093,-.019078,
-.02053,-.019472,
-.019908,-.019762,
-.019244,-.01994,
-.01856,-.02,
.01856,-.02,
.019244,-.01994,
.019908,-.019762,
.02053,-.019472,
.021093,-.019078,
.021578,-.018593,
.021972,-.01803,
.022262,-.017408,
.02244,-.016744,
.0225,-.01606,
.0225,.01606,
.02244,.016744,
.022262,.017408,
.021972,.01803,
.021578,.018593,
.021093,.019078,
.02053,.019472,
.019908,.019762,
.019244,.01994,
.01856,.02,
-.01856,.02,
-.019244,.01994,
-.019908,.019762,
-.02053,.019472,
-.021093,.019078,
-.021578,.018593,
-.021972,.01803,
-.022262,.017408,
-.02244,.016744,
-.0225,.01606,
0.0*
%
%ADD17MACRO17*%
%AMMACRO64*
4,1,40,.01606,.0275,
-.01606,.0275,
-.016744,.02744,
-.017408,.027262,
-.01803,.026972,
-.018593,.026578,
-.019078,.026093,
-.019472,.02553,
-.019762,.024908,
-.01994,.024244,
-.02,.02356,
-.02,-.02356,
-.01994,-.024244,
-.019762,-.024908,
-.019472,-.02553,
-.019078,-.026093,
-.018593,-.026578,
-.01803,-.026972,
-.017408,-.027262,
-.016744,-.02744,
-.01606,-.0275,
.01606,-.0275,
.016744,-.02744,
.017408,-.027262,
.01803,-.026972,
.018593,-.026578,
.019078,-.026093,
.019472,-.02553,
.019762,-.024908,
.01994,-.024244,
.02,-.02356,
.02,.02356,
.01994,.024244,
.019762,.024908,
.019472,.02553,
.019078,.026093,
.018593,.026578,
.01803,.026972,
.017408,.027262,
.016744,.02744,
.01606,.0275,
0.0*
%
%ADD64MACRO64*%
%ADD53R,.075X.045*%
%ADD21R,.064X.055*%
%ADD33R,.134X.134*%
%AMMACRO31*
4,1,44,.00885,.02,
-.00885,.02,
-.009192,.019971,
-.009524,.019883,
-.009836,.019739,
-.010117,.019542,
-.010361,.0193,
-.010559,.019019,
-.010704,.018708,
-.010794,.018377,
-.010825,.018035,
-.01082,.01803,
-.01082,-.01803,
-.010795,-.018372,
-.010706,-.018704,
-.010561,-.019015,
-.010364,-.019296,
-.010121,-.019539,
-.00984,-.019736,
-.009529,-.019881,
-.009197,-.01997,
-.008855,-.02,
-.00885,-.02,
.00885,-.02,
.009192,-.019971,
.009524,-.019883,
.009836,-.019739,
.010117,-.019542,
.010361,-.0193,
.010559,-.019019,
.010704,-.018708,
.010794,-.018377,
.010825,-.018035,
.01082,-.01803,
.01082,.01803,
.010795,.018372,
.010706,.018704,
.010561,.019015,
.010364,.019296,
.010121,.019539,
.00984,.019736,
.009529,.019881,
.009197,.01997,
.008855,.02,
.00885,.02,
0.0*
%
%ADD31MACRO31*%
%ADD47R,.17323X.17323*%
%ADD75C,.22835*%
%ADD59R,.02362X.03346*%
%AMMACRO32*
4,1,40,-.045,.01463,
-.045,-.01463,
-.04488,-.015997,
-.044525,-.017322,
-.043946,-.018565,
-.043159,-.019689,
-.042189,-.020659,
-.041065,-.021446,
-.039822,-.022025,
-.038497,-.02238,
-.03713,-.0225,
.03713,-.0225,
.038497,-.02238,
.039822,-.022025,
.041065,-.021446,
.042189,-.020659,
.043159,-.019689,
.043946,-.018565,
.044525,-.017322,
.04488,-.015997,
.045,-.01463,
.045,.01463,
.04488,.015997,
.044525,.017322,
.043946,.018565,
.043159,.019689,
.042189,.020659,
.041065,.021446,
.039822,.022025,
.038497,.02238,
.03713,.0225,
-.03713,.0225,
-.038497,.02238,
-.039822,.022025,
-.041065,.021446,
-.042189,.020659,
-.043159,.019689,
-.043946,.018565,
-.044525,.017322,
-.04488,.015997,
-.045,.01463,
0.0*
%
%ADD32MACRO32*%
%AMMACRO24*
4,1,40,-.01378,.01303,
-.01378,-.01303,
-.01375,-.013372,
-.013661,-.013704,
-.013516,-.014015,
-.013319,-.014296,
-.013076,-.014539,
-.012795,-.014736,
-.012484,-.014881,
-.012152,-.01497,
-.01181,-.015,
.01181,-.015,
.012152,-.01497,
.012484,-.014881,
.012795,-.014736,
.013076,-.014539,
.013319,-.014296,
.013516,-.014015,
.013661,-.013704,
.01375,-.013372,
.01378,-.01303,
.01378,.01303,
.01375,.013372,
.013661,.013704,
.013516,.014015,
.013319,.014296,
.013076,.014539,
.012795,.014736,
.012484,.014881,
.012152,.01497,
.01181,.015,
-.01181,.015,
-.012152,.01497,
-.012484,.014881,
-.012795,.014736,
-.013076,.014539,
-.013319,.014296,
-.013516,.014015,
-.013661,.013704,
-.01375,.013372,
-.01378,.01303,
0.0*
%
%ADD24MACRO24*%
%AMMACRO29*
4,1,28,.04823,-.02715,
.04626,-.02715,
.04626,-.0488,
.03051,-.0488,
.03051,-.02715,
.02067,-.02715,
.02067,-.0488,
.00492,-.0488,
.00492,-.02715,
-.00492,-.02715,
-.00492,-.0488,
-.02067,-.0488,
-.02067,-.02715,
-.03051,-.02715,
-.03051,-.0488,
-.04626,-.0488,
-.04626,-.02715,
-.04823,-.02715,
-.04823,.01616,
-.0689,.01616,
-.0689,.0386,
-.04823,.0386,
-.04823,.0488,
.04823,.0488,
.04823,.0386,
.0689,.0386,
.0689,.01616,
.04823,.01616,
.04823,-.02715,
0.0*
%
%ADD29MACRO29*%
%AMMACRO23*
4,1,40,.01303,.01378,
-.01303,.01378,
-.013372,.01375,
-.013704,.013661,
-.014015,.013516,
-.014296,.013319,
-.014539,.013076,
-.014736,.012795,
-.014881,.012484,
-.01497,.012152,
-.015,.01181,
-.015,-.01181,
-.01497,-.012152,
-.014881,-.012484,
-.014736,-.012795,
-.014539,-.013076,
-.014296,-.013319,
-.014015,-.013516,
-.013704,-.013661,
-.013372,-.01375,
-.01303,-.01378,
.01303,-.01378,
.013372,-.01375,
.013704,-.013661,
.014015,-.013516,
.014296,-.013319,
.014539,-.013076,
.014736,-.012795,
.014881,-.012484,
.01497,-.012152,
.015,-.01181,
.015,.01181,
.01497,.012152,
.014881,.012484,
.014736,.012795,
.014539,.013076,
.014296,.013319,
.014015,.013516,
.013704,.013661,
.013372,.01375,
.01303,.01378,
0.0*
%
%ADD23MACRO23*%
%AMMACRO16*
4,1,28,-.02715,-.04823,
-.02715,-.04626,
-.0488,-.04626,
-.0488,-.03051,
-.02715,-.03051,
-.02715,-.02067,
-.0488,-.02067,
-.0488,-.00492,
-.02715,-.00492,
-.02715,.00492,
-.0488,.00492,
-.0488,.02067,
-.02715,.02067,
-.02715,.03051,
-.0488,.03051,
-.0488,.04626,
-.02715,.04626,
-.02715,.04823,
.01616,.04823,
.01616,.0689,
.0386,.0689,
.0386,.04823,
.0488,.04823,
.0488,-.04823,
.0386,-.04823,
.0386,-.0689,
.01616,-.0689,
.01616,-.04823,
-.02715,-.04823,
0.0*
%
%ADD16MACRO16*%
%AMMACRO76*
4,1,44,-.02559,.00393,
-.02559,-.00393,
-.025561,-.004272,
-.025473,-.004604,
-.025329,-.004916,
-.025132,-.005197,
-.02489,-.005441,
-.024609,-.005639,
-.024298,-.005784,
-.023967,-.005874,
-.023625,-.005905,
-.02362,-.0059,
.02362,-.0059,
.023962,-.005875,
.024294,-.005786,
.024605,-.005641,
.024886,-.005444,
.025129,-.005201,
.025326,-.00492,
.025471,-.004609,
.02556,-.004277,
.02559,-.003935,
.02559,-.00393,
.02559,.00393,
.025561,.004272,
.025473,.004604,
.025329,.004916,
.025132,.005197,
.02489,.005441,
.024609,.005639,
.024298,.005784,
.023967,.005874,
.023625,.005905,
.02362,.0059,
-.02362,.0059,
-.023962,.005875,
-.024294,.005786,
-.024605,.005641,
-.024886,.005444,
-.025129,.005201,
-.025326,.00492,
-.025471,.004609,
-.02556,.004277,
-.02559,.003935,
-.02559,.00393,
0.0*
%
%ADD76MACRO76*%
%AMMACRO14*
4,1,44,-.02362,.00393,
-.02362,-.00393,
-.023591,-.004272,
-.023503,-.004604,
-.023359,-.004916,
-.023162,-.005197,
-.02292,-.005441,
-.022639,-.005639,
-.022328,-.005784,
-.021997,-.005874,
-.021655,-.005905,
-.02165,-.0059,
.02165,-.0059,
.021992,-.005875,
.022324,-.005786,
.022635,-.005641,
.022916,-.005444,
.023159,-.005201,
.023356,-.00492,
.023501,-.004609,
.02359,-.004277,
.02362,-.003935,
.02362,-.00393,
.02362,.00393,
.023591,.004272,
.023503,.004604,
.023359,.004916,
.023162,.005197,
.02292,.005441,
.022639,.005639,
.022328,.005784,
.021997,.005874,
.021655,.005905,
.02165,.0059,
-.02165,.0059,
-.021992,.005875,
-.022324,.005786,
-.022635,.005641,
-.022916,.005444,
-.023159,.005201,
-.023356,.00492,
-.023501,.004609,
-.02359,.004277,
-.02362,.003935,
-.02362,.00393,
0.0*
%
%ADD14MACRO14*%
%AMMACRO57*
4,1,44,-.02952,-.05118,
.02952,-.05118,
.030204,-.051121,
.030868,-.050944,
.031491,-.050655,
.032054,-.050261,
.03254,-.049776,
.032935,-.049214,
.033226,-.048592,
.033404,-.047929,
.033465,-.047245,
.03346,-.04724,
.03346,.04724,
.033405,.047924,
.033227,.048588,
.032937,.04921,
.032543,.049773,
.032058,.050258,
.031495,.050652,
.030873,.050942,
.030209,.05112,
.029525,.05118,
.02952,.05118,
-.02952,.05118,
-.030204,.051121,
-.030868,.050944,
-.031491,.050655,
-.032054,.050261,
-.03254,.049776,
-.032935,.049214,
-.033226,.048592,
-.033404,.047929,
-.033465,.047245,
-.03346,.04724,
-.03346,-.04724,
-.033405,-.047924,
-.033227,-.048588,
-.032937,-.04921,
-.032543,-.049773,
-.032058,-.050258,
-.031495,-.050652,
-.030873,-.050942,
-.030209,-.05112,
-.029525,-.05118,
-.02952,-.05118,
0.0*
%
%ADD57MACRO57*%
%ADD55R,.03543X.03937*%
%ADD60R,.03937X.03346*%
%ADD41R,.03937X.03543*%
%ADD30R,.01535X.03858*%
%AMMACRO54*
4,1,44,.0059,.01181,
-.0059,.01181,
-.006242,.011781,
-.006574,.011693,
-.006886,.011549,
-.007167,.011352,
-.007411,.01111,
-.007609,.010829,
-.007754,.010518,
-.007844,.010187,
-.007875,.009845,
-.00787,.00984,
-.00787,-.00984,
-.007845,-.010182,
-.007756,-.010514,
-.007611,-.010825,
-.007414,-.011106,
-.007171,-.011349,
-.00689,-.011546,
-.006579,-.011691,
-.006247,-.01178,
-.005905,-.01181,
-.0059,-.01181,
.0059,-.01181,
.006242,-.011781,
.006574,-.011693,
.006886,-.011549,
.007167,-.011352,
.007411,-.01111,
.007609,-.010829,
.007754,-.010518,
.007844,-.010187,
.007875,-.009845,
.00787,-.00984,
.00787,.00984,
.007845,.010182,
.007756,.010514,
.007611,.010825,
.007414,.011106,
.007171,.011349,
.00689,.011546,
.006579,.011691,
.006247,.01178,
.005905,.01181,
.0059,.01181,
0.0*
%
%ADD54MACRO54*%
%ADD22R,.03858X.01535*%
%ADD10O,.0748X.03937*%
%AMMACRO15*
4,1,40,-.02362,.00394,
-.02362,-.00394,
-.0235,-.005307,
-.023145,-.006632,
-.022566,-.007875,
-.021779,-.008999,
-.020809,-.009969,
-.019685,-.010756,
-.018442,-.011335,
-.017117,-.01169,
-.01575,-.01181,
.01575,-.01181,
.017117,-.01169,
.018442,-.011335,
.019685,-.010756,
.020809,-.009969,
.021779,-.008999,
.022566,-.007875,
.023145,-.006632,
.0235,-.005307,
.02362,-.00394,
.02362,.00394,
.0235,.005307,
.023145,.006632,
.022566,.007875,
.021779,.008999,
.020809,.009969,
.019685,.010756,
.018442,.011335,
.017117,.01169,
.01575,.01181,
-.01575,.01181,
-.017117,.01169,
-.018442,.011335,
-.019685,.010756,
-.020809,.009969,
-.021779,.008999,
-.022566,.007875,
-.023145,.006632,
-.0235,.005307,
-.02362,.00394,
0.0*
%
%ADD15MACRO15*%
%ADD77R,.08661X.07087*%
%AMMACRO58*
4,1,40,.00787,.01181,
-.00787,.01181,
-.008212,.01178,
-.008544,.011691,
-.008855,.011546,
-.009136,.011349,
-.009379,.011106,
-.009576,.010825,
-.009721,.010514,
-.00981,.010182,
-.00984,.00984,
-.00984,-.00984,
-.00981,-.010182,
-.009721,-.010514,
-.009576,-.010825,
-.009379,-.011106,
-.009136,-.011349,
-.008855,-.011546,
-.008544,-.011691,
-.008212,-.01178,
-.00787,-.01181,
.00787,-.01181,
.008212,-.01178,
.008544,-.011691,
.008855,-.011546,
.009136,-.011349,
.009379,-.011106,
.009576,-.010825,
.009721,-.010514,
.00981,-.010182,
.00984,-.00984,
.00984,.00984,
.00981,.010182,
.009721,.010514,
.009576,.010825,
.009379,.011106,
.009136,.011349,
.008855,.011546,
.008544,.011691,
.008212,.01178,
.00787,.01181,
0.0*
%
%ADD58MACRO58*%
%AMMACRO40*
4,1,44,-.01378,.0059,
-.01378,-.0059,
-.013751,-.006242,
-.013663,-.006574,
-.013519,-.006886,
-.013322,-.007167,
-.01308,-.007411,
-.012799,-.007609,
-.012488,-.007754,
-.012157,-.007844,
-.011815,-.007875,
-.01181,-.00787,
.01181,-.00787,
.012152,-.007845,
.012484,-.007756,
.012795,-.007611,
.013076,-.007414,
.013319,-.007171,
.013516,-.00689,
.013661,-.006579,
.01375,-.006247,
.01378,-.005905,
.01378,-.0059,
.01378,.0059,
.013751,.006242,
.013663,.006574,
.013519,.006886,
.013322,.007167,
.01308,.007411,
.012799,.007609,
.012488,.007754,
.012157,.007844,
.011815,.007875,
.01181,.00787,
-.01181,.00787,
-.012152,.007845,
-.012484,.007756,
-.012795,.007611,
-.013076,.007414,
-.013319,.007171,
-.013516,.00689,
-.013661,.006579,
-.01375,.006247,
-.01378,.005905,
-.01378,.0059,
0.0*
%
%ADD40MACRO40*%
%AMMACRO52*
4,1,40,.01299,-.00256,
.01299,.00256,
.01296,.002902,
.012871,.003234,
.012726,.003545,
.012529,.003826,
.012286,.004069,
.012005,.004266,
.011694,.004411,
.011362,.0045,
.01102,.00453,
-.01102,.00453,
-.011362,.0045,
-.011694,.004411,
-.012005,.004266,
-.012286,.004069,
-.012529,.003826,
-.012726,.003545,
-.012871,.003234,
-.01296,.002902,
-.01299,.00256,
-.01299,-.00256,
-.01296,-.002902,
-.012871,-.003234,
-.012726,-.003545,
-.012529,-.003826,
-.012286,-.004069,
-.012005,-.004266,
-.011694,-.004411,
-.011362,-.0045,
-.01102,-.00453,
.01102,-.00453,
.011362,-.0045,
.011694,-.004411,
.012005,-.004266,
.012286,-.004069,
.012529,-.003826,
.012726,-.003545,
.012871,-.003234,
.01296,-.002902,
.01299,-.00256,
0.0*
%
%ADD52MACRO52*%
%AMMACRO50*
4,1,40,.00625,-.0035,
.00625,.0035,
.00622,.003847,
.006129,.004184,
.005982,.0045,
.005782,.004786,
.005536,.005032,
.00525,.005232,
.004934,.005379,
.004597,.00547,
.00425,.0055,
-.00425,.0055,
-.004597,.00547,
-.004934,.005379,
-.00525,.005232,
-.005536,.005032,
-.005782,.004786,
-.005982,.0045,
-.006129,.004184,
-.00622,.003847,
-.00625,.0035,
-.00625,-.0035,
-.00622,-.003847,
-.006129,-.004184,
-.005982,-.0045,
-.005782,-.004786,
-.005536,-.005032,
-.00525,-.005232,
-.004934,-.005379,
-.004597,-.00547,
-.00425,-.0055,
.00425,-.0055,
.004597,-.00547,
.004934,-.005379,
.00525,-.005232,
.005536,-.005032,
.005782,-.004786,
.005982,-.0045,
.006129,-.004184,
.00622,-.003847,
.00625,-.0035,
0.0*
%
%ADD50MACRO50*%
%ADD78C,.005*%
G75*
%LPD*%
G75*
G36*
G01X-19417Y57387D02*
X-21267D01*
Y55497D01*
X-19417D01*
Y57387D01*
G37*
G36*
G01X-22476Y61592D02*
X-24886D01*
Y58367D01*
X-22476D01*
Y61592D01*
G37*
G36*
G01Y66013D02*
X-24886D01*
Y62788D01*
X-22476D01*
Y66013D01*
G37*
G36*
G01X-18870D02*
X-21275D01*
Y62788D01*
X-18870D01*
Y66013D01*
G37*
G36*
G01Y61592D02*
X-21275D01*
Y58367D01*
X-18870D01*
Y61592D01*
G37*
G36*
G01X-19417Y68883D02*
X-21267D01*
Y66993D01*
X-19417D01*
Y68883D01*
G37*
G36*
G01X-25996Y59040D02*
X-27468D01*
Y57662D01*
X-25996D01*
Y59040D01*
G37*
G36*
G01Y61599D02*
X-27468D01*
Y60222D01*
X-25996D01*
Y61599D01*
G37*
G36*
G01Y64158D02*
X-27468D01*
Y62781D01*
X-25996D01*
Y64158D01*
G37*
G36*
G01Y66718D02*
X-27468D01*
Y65340D01*
X-25996D01*
Y66718D01*
G37*
G36*
G01X-5102Y55497D02*
X-3252D01*
Y57387D01*
X-5102D01*
Y55497D01*
G37*
G36*
G01X-5649Y58367D02*
X-3244D01*
Y61592D01*
X-5649D01*
Y58367D01*
G37*
G36*
G01Y62788D02*
X-3244D01*
Y66013D01*
X-5649D01*
Y62788D01*
G37*
G36*
G01X-5102Y66993D02*
X-3252D01*
Y68883D01*
X-5102D01*
Y66993D01*
G37*
G36*
G01X7565Y56674D02*
Y55202D01*
X8943D01*
Y56674D01*
X7565D01*
G37*
G36*
G01X5400Y63253D02*
Y61403D01*
X7290D01*
Y63253D01*
X5400D01*
G37*
G36*
G01X-2043Y62788D02*
X367D01*
Y66013D01*
X-2043D01*
Y62788D01*
G37*
G36*
G01Y58367D02*
X367D01*
Y61592D01*
X-2043D01*
Y58367D01*
G37*
G36*
G01X1477Y65340D02*
X2949D01*
Y66718D01*
X1477D01*
Y65340D01*
G37*
G36*
G01Y62781D02*
X2949D01*
Y64158D01*
X1477D01*
Y62781D01*
G37*
G36*
G01Y60222D02*
X2949D01*
Y61599D01*
X1477D01*
Y60222D01*
G37*
G36*
G01Y57662D02*
X2949D01*
Y59040D01*
X1477D01*
Y57662D01*
G37*
G36*
G01X15243Y56674D02*
Y55202D01*
X16621D01*
Y56674D01*
X15243D01*
G37*
G36*
G01X12684D02*
Y55202D01*
X14061D01*
Y56674D01*
X12684D01*
G37*
G36*
G01X10125D02*
Y55202D01*
X11502D01*
Y56674D01*
X10125D01*
G37*
G36*
G01X12691Y60194D02*
Y57784D01*
X15916D01*
Y60194D01*
X12691D01*
G37*
G36*
G01X8270D02*
Y57784D01*
X11495D01*
Y60194D01*
X8270D01*
G37*
G36*
G01Y63800D02*
Y61395D01*
X11495D01*
Y63800D01*
X8270D01*
G37*
G36*
G01X12691D02*
Y61395D01*
X15916D01*
Y63800D01*
X12691D01*
G37*
G36*
G01X16896Y63253D02*
Y61403D01*
X18786D01*
Y63253D01*
X16896D01*
G37*
G54D10*
X-49833Y7339D03*
Y41197D03*
X-33297Y7339D03*
Y41197D03*
G54D20*
X-19300Y10200D03*
X-23100D03*
X-24421Y18176D03*
X-20621D03*
X-24421Y22243D03*
X-20621D03*
X-24421Y30380D03*
X-20621D03*
X-24421Y26293D03*
X-20621D03*
X-16300Y164800D03*
X-20100D03*
X-4180Y39180D03*
X3090Y34616D03*
X-710D03*
X-380Y39180D03*
X8150Y51800D03*
X4350D03*
X13300Y27400D03*
X9500D03*
X13300Y31500D03*
X9500D03*
X13300Y23300D03*
X9500D03*
X13300Y35600D03*
X9500D03*
X30630Y19039D03*
X26830D03*
Y15039D03*
X30630D03*
X29560Y115500D03*
X25760D03*
Y119800D03*
X29560D03*
X27300Y149800D03*
X23500D03*
X27300Y154255D03*
X23500D03*
X27300Y158734D03*
X23500D03*
X35217Y75123D03*
X39017D03*
X37659Y115500D03*
X33859D03*
X37659Y119800D03*
X33859D03*
X49364Y137624D03*
X53164D03*
X50255Y172500D03*
X46455D03*
X61300Y14771D03*
X57500D03*
Y27400D03*
X61300D03*
Y33071D03*
X57500D03*
X65930Y27400D03*
X57500Y45700D03*
X61300D03*
X65930D03*
X61300Y51371D03*
X57500D03*
Y64000D03*
X61300D03*
X66984Y113803D03*
X66252Y134424D03*
X61652Y145630D03*
X57852D03*
X65712Y151107D03*
X61652Y149800D03*
X57852D03*
X61652Y158255D03*
X57852D03*
X61652Y154110D03*
X57852D03*
X61652Y162448D03*
X57852D03*
X65712D03*
X66271Y172500D03*
X62471D03*
X69730Y27400D03*
X78260D03*
X74460D03*
X69730Y45700D03*
X77940D03*
X74140D03*
X77940Y64000D03*
X74140D03*
X70784Y113803D03*
X70052Y134424D03*
X69512Y151107D03*
Y162448D03*
X78487Y172500D03*
X82287D03*
X98303D03*
X94503D03*
X181700Y18505D03*
X185500D03*
X182550Y31640D03*
X186350D03*
X194600Y18505D03*
X198400D03*
X194770Y38150D03*
X198570D03*
X210742Y41570D03*
X203770Y111560D03*
X199970D03*
X214542Y41570D03*
X227300Y116600D03*
X231100D03*
Y125100D03*
X227300D03*
X231100Y120790D03*
X227300D03*
X229420Y175850D03*
X233220D03*
X239890Y113741D03*
X236090D03*
X249800Y39582D03*
X253600D03*
X249800Y43700D03*
X253600D03*
X249800Y47700D03*
X253600D03*
X257209Y113759D03*
X249109D03*
X252909D03*
Y125087D03*
X249109D03*
X257209D03*
X270340Y109122D03*
X266540D03*
X262676D03*
X258876D03*
X261009Y113759D03*
Y125087D03*
G54D11*
X-48848Y18362D03*
Y30174D03*
G54D30*
X8254Y67285D03*
X15932D03*
X13373D03*
X10813D03*
G54D21*
X-14200Y19446D03*
Y30546D03*
G54D12*
X-40600Y153100D03*
X-44600D03*
X-40600Y149500D03*
X-44600D03*
X-40600Y145900D03*
X-44600D03*
X-40600Y160300D03*
X-44600D03*
X-40600Y156700D03*
X-44600D03*
X-40600Y163900D03*
X-44600D03*
X-40600Y174700D03*
X-44600D03*
X-40600Y171100D03*
X-44600D03*
X-40600Y167500D03*
X-44600D03*
X-40600Y181900D03*
X-44600D03*
X-40600Y178300D03*
X-44600D03*
X-40600Y185500D03*
X-44600D03*
X-19200Y6200D03*
X-23200D03*
G54D40*
X22688Y104823D03*
X26232D03*
X22688Y94023D03*
X26232D03*
G54D22*
X-15385Y58351D03*
Y60910D03*
Y63470D03*
Y66029D03*
X-9134D03*
Y63470D03*
Y60910D03*
Y58351D03*
G54D31*
X8500Y141348D03*
X3500D03*
X-1500D03*
Y170812D03*
X3500D03*
X8500D03*
X13500Y141348D03*
Y170812D03*
G54D13*
X-27500Y-2000D03*
X-32500D03*
X-37500D03*
X-27500Y-7000D03*
X-32500D03*
X-37500D03*
X-17500Y-2000D03*
X-22500D03*
X-17500Y-7000D03*
X-22500D03*
G54D50*
X55789Y118700D03*
Y120900D03*
X53189Y118700D03*
Y120900D03*
X50589Y118700D03*
Y120900D03*
X47989Y118700D03*
Y120900D03*
G54D41*
X26125Y129143D03*
X32523D03*
X26125Y124321D03*
X32523D03*
G54D14*
X-30935Y17378D03*
Y19347D03*
Y21315D03*
Y23284D03*
Y25252D03*
Y27221D03*
Y29189D03*
Y31158D03*
G54D23*
X-21350Y160025D03*
X-15050D03*
G54D32*
X22480Y73280D03*
Y84780D03*
G54D15*
X-30935Y11670D03*
Y14819D03*
Y33717D03*
Y37063D03*
G54D60*
X75328Y116497D03*
Y122797D03*
X83596Y116497D03*
Y122797D03*
G54D24*
X-25100Y159750D03*
Y166050D03*
G54D33*
X35600Y34600D03*
X42400Y152755D03*
G54D51*
X50200Y132731D03*
X55800D03*
X91500Y111084D03*
X85900D03*
X169810Y23500D03*
X175410D03*
X169810Y17960D03*
X175410D03*
X169810Y29140D03*
X175410D03*
X186800Y23500D03*
X181200D03*
X253987Y34770D03*
X248387D03*
X269851Y23747D03*
X261813Y95608D03*
X267413D03*
X275451Y23747D03*
G54D42*
X43480Y19830D03*
Y14230D03*
X69185Y78209D03*
Y83809D03*
X96660Y21470D03*
Y15870D03*
X96690Y54910D03*
Y60510D03*
X274670Y124310D03*
Y118710D03*
G54D52*
X66010Y14189D03*
Y16157D03*
Y18126D03*
Y20094D03*
Y22063D03*
Y32489D03*
Y24031D03*
Y34457D03*
Y36426D03*
Y38394D03*
Y40363D03*
Y42331D03*
Y50789D03*
Y52757D03*
Y54726D03*
Y56694D03*
Y58663D03*
Y60631D03*
X77270Y22063D03*
Y20094D03*
Y18126D03*
Y16157D03*
Y14189D03*
Y32489D03*
Y24031D03*
Y42331D03*
Y40363D03*
Y38394D03*
Y36426D03*
Y34457D03*
Y56694D03*
Y54726D03*
Y52757D03*
Y50789D03*
Y60631D03*
Y58663D03*
G54D16*
X-23080Y62190D03*
G54D34*
X30675Y24700D03*
Y44500D03*
X40525Y24700D03*
X38555D03*
X36585D03*
X34615D03*
X32645D03*
Y44500D03*
X34615D03*
X36585D03*
X38555D03*
X40525D03*
X43385Y142855D03*
X41415D03*
X39445D03*
X37475D03*
Y162655D03*
X39445D03*
X41415D03*
X43385D03*
X47325Y142855D03*
X45355D03*
Y162655D03*
X47325D03*
G54D61*
X76345Y113160D03*
Y110960D03*
X78945Y113160D03*
Y110960D03*
X184822Y125030D03*
Y122830D03*
X187464Y125030D03*
Y122830D03*
X222400Y174100D03*
Y171900D03*
X232820Y172197D03*
Y169997D03*
X230160Y172197D03*
Y169997D03*
X225000Y174100D03*
Y171900D03*
G54D70*
X198000Y120486D03*
G54D25*
X-7200Y44010D03*
Y51490D03*
X2996Y47750D03*
G54D43*
X39085Y78843D03*
X35149D03*
G54D53*
X66384Y90892D03*
Y99892D03*
G54D17*
X-25610Y47750D03*
X-17610Y44250D03*
Y51250D03*
G54D62*
X79000Y147850D03*
Y155350D03*
X89200Y147850D03*
Y151600D03*
Y155350D03*
G54D35*
X28705Y24700D03*
Y44500D03*
X42495Y24700D03*
Y44500D03*
X35505Y142855D03*
Y162655D03*
X49295Y142855D03*
Y162655D03*
G54D71*
X192094Y116549D03*
Y124423D03*
Y122455D03*
Y120486D03*
Y118517D03*
X203906Y116549D03*
Y124423D03*
Y122455D03*
Y120486D03*
Y118517D03*
G54D44*
X37117Y83725D03*
G54D26*
X-1439Y62190D03*
G54D54*
X66916Y110141D03*
X70852D03*
X266472Y105482D03*
X270408D03*
X258808D03*
X262744D03*
G54D18*
X-30074Y146982D03*
Y154384D03*
X-30100Y188536D03*
Y195938D03*
X-15900Y146982D03*
Y154384D03*
X-15926Y188536D03*
Y195938D03*
G54D72*
X194039Y132589D03*
X196008D03*
X197976D03*
X193055Y162314D03*
X195023D03*
X196992D03*
X198960D03*
X199944Y132589D03*
X201913D03*
X203882D03*
X205850D03*
X207818D03*
X209787D03*
X200929Y162314D03*
X202897D03*
X204866D03*
X206834D03*
X208803D03*
X210771D03*
X211756Y132589D03*
X213724D03*
X212740Y162314D03*
X214708D03*
X223566Y132589D03*
X225535D03*
X227504D03*
X229472D03*
X231440D03*
X233409D03*
X224551Y162314D03*
X226519D03*
X228488D03*
X230456D03*
X232425D03*
X234393D03*
X235378Y132589D03*
X237346D03*
X239314D03*
X241283D03*
X243252D03*
X245220D03*
X236362Y162314D03*
X238330D03*
X240299D03*
X242267D03*
X244236D03*
X246204D03*
X247188Y132589D03*
X249157D03*
X251126D03*
X253094D03*
X255062D03*
X257031D03*
X248173Y162314D03*
X250141D03*
X252110D03*
X254078D03*
X256047D03*
X258015D03*
X259000Y132589D03*
X260968D03*
X262936D03*
X264905D03*
X259984Y162314D03*
X261952D03*
X263921D03*
X265889D03*
G54D36*
X25700Y27705D03*
Y41495D03*
X32500Y145860D03*
Y159650D03*
X45500Y27705D03*
Y41495D03*
X52300Y145860D03*
Y159650D03*
G54D27*
X-962Y30054D03*
X613D03*
X2187D03*
X3762D03*
Y24346D03*
X2187D03*
X613D03*
X-962D03*
G54D63*
X70053Y158850D03*
Y154914D03*
X253450Y117419D03*
Y121355D03*
X261550Y117419D03*
Y121355D03*
G54D45*
X34722Y92305D03*
Y90731D03*
Y104904D03*
Y103329D03*
Y101754D03*
Y100179D03*
Y98605D03*
Y97030D03*
Y95455D03*
Y93880D03*
Y108053D03*
Y106479D03*
X57556Y90731D03*
Y92305D03*
Y93880D03*
Y95455D03*
Y97030D03*
Y98605D03*
Y100179D03*
Y101754D03*
Y103329D03*
Y104904D03*
Y106479D03*
Y108053D03*
G54D55*
X65741Y138994D03*
Y145392D03*
X70563Y138994D03*
Y145392D03*
X235579Y118472D03*
Y124870D03*
X240401Y118472D03*
Y124870D03*
G54D64*
X90181Y16610D03*
X83181D03*
X89491Y34910D03*
X82491D03*
X89491Y53210D03*
X82491D03*
G54D37*
X25700Y29675D03*
Y31645D03*
Y33615D03*
Y35585D03*
Y37555D03*
Y39525D03*
X32500Y147830D03*
Y149800D03*
Y151770D03*
Y153740D03*
Y155710D03*
Y157680D03*
X45500Y33615D03*
Y31645D03*
Y29675D03*
Y39525D03*
Y37555D03*
Y35585D03*
X52300Y151770D03*
Y149800D03*
Y147830D03*
Y157680D03*
Y155710D03*
Y153740D03*
G54D19*
X-29250Y159900D03*
Y163700D03*
X-25500Y181900D03*
Y178100D03*
X-21000D03*
Y181900D03*
X-3140Y19109D03*
Y15309D03*
X-7300Y19196D03*
Y15396D03*
X-12210Y44520D03*
Y40720D03*
Y52460D03*
Y48660D03*
X920Y15309D03*
Y19109D03*
X9040D03*
Y15309D03*
X4980Y19109D03*
Y15309D03*
X13100D03*
Y19109D03*
X31000Y77284D03*
Y81084D03*
X34639Y15130D03*
Y18930D03*
X38639D03*
Y15130D03*
X43222Y77284D03*
Y81084D03*
X37159Y128632D03*
Y124832D03*
X56100Y81084D03*
Y77284D03*
X51900Y81084D03*
Y77284D03*
X47400D03*
Y81084D03*
X45224Y137731D03*
Y133931D03*
X61691Y19280D03*
X57191D03*
X61691Y23080D03*
X57191D03*
Y41380D03*
Y37580D03*
X61691Y41380D03*
Y37580D03*
Y55880D03*
X57191D03*
X61691Y59680D03*
X57191D03*
X64072Y81009D03*
Y84809D03*
X63184Y105684D03*
Y109484D03*
X61700Y141364D03*
Y137564D03*
X57500Y141364D03*
Y137564D03*
X69884Y117747D03*
Y121547D03*
X82691Y27540D03*
Y23740D03*
X87191D03*
Y27540D03*
X82691Y45840D03*
Y42040D03*
X87220D03*
Y45840D03*
X82691Y64140D03*
Y60340D03*
X87220D03*
Y64140D03*
X88772Y116047D03*
Y119847D03*
X96770Y32850D03*
Y29050D03*
X92967Y116047D03*
Y119847D03*
X208078Y19170D03*
Y15370D03*
X204001Y19170D03*
Y15370D03*
X200346Y170454D03*
Y174254D03*
X216232Y19170D03*
Y15370D03*
X212155D03*
Y19170D03*
X220990Y116980D03*
Y113180D03*
Y121340D03*
Y125140D03*
X212953Y170347D03*
Y174147D03*
X245076Y121410D03*
Y125210D03*
X245800Y173500D03*
Y169700D03*
X241700Y173500D03*
Y169700D03*
X237600D03*
Y173500D03*
X253200Y52100D03*
Y55900D03*
X269650Y121410D03*
Y125210D03*
X265494Y121410D03*
Y125210D03*
X274470Y103000D03*
X278500D03*
X274470Y106800D03*
X278500D03*
G54D46*
X37478Y87975D03*
X39052D03*
X40627D03*
X42202D03*
X43777D03*
Y110809D03*
X42202D03*
X40627D03*
X39052D03*
X37478D03*
X45352Y87975D03*
X46926D03*
X48501D03*
X50076D03*
X51651D03*
X53226D03*
X54800D03*
Y110809D03*
X53226D03*
X51651D03*
X50076D03*
X48501D03*
X46926D03*
X45352D03*
G54D28*
X3762Y27987D03*
Y26413D03*
X-962D03*
Y27987D03*
G54D73*
X202498Y57331D03*
X204466D03*
X206435D03*
X208403D03*
X210372D03*
X202498Y59299D03*
Y61268D03*
Y63236D03*
Y65205D03*
Y67173D03*
Y69142D03*
X204466Y59299D03*
Y61268D03*
Y63236D03*
Y65205D03*
Y67173D03*
Y69142D03*
X206435Y59299D03*
Y61268D03*
Y63236D03*
Y65205D03*
Y67173D03*
Y69142D03*
X208403Y59299D03*
Y61268D03*
Y63236D03*
X210372Y59299D03*
Y61268D03*
Y65205D03*
Y67173D03*
Y69142D03*
X202498Y71110D03*
Y73079D03*
Y75047D03*
Y77016D03*
Y78984D03*
Y80953D03*
X204466Y71110D03*
Y73079D03*
Y75047D03*
Y77016D03*
Y78984D03*
Y80953D03*
X206435Y71110D03*
Y73079D03*
Y75047D03*
Y77016D03*
Y78984D03*
Y80953D03*
X208403Y78984D03*
Y80953D03*
X210372Y71110D03*
Y73079D03*
Y75047D03*
Y78984D03*
Y80953D03*
X202498Y82921D03*
X204466D03*
X206435D03*
X208403D03*
X210372D03*
X212340Y57331D03*
X214309D03*
X216277D03*
X218246D03*
X220214D03*
X222183D03*
X212340Y59299D03*
Y61268D03*
Y65205D03*
X214309Y59299D03*
Y61268D03*
Y65205D03*
X216277Y59299D03*
Y61268D03*
Y65205D03*
X218246Y59299D03*
Y61268D03*
Y65205D03*
X220214Y59299D03*
Y61268D03*
Y65205D03*
Y67173D03*
Y69142D03*
X222183Y59299D03*
Y61268D03*
X212340Y75047D03*
Y78984D03*
Y80953D03*
X214309Y75047D03*
Y78984D03*
Y80953D03*
X216277Y75047D03*
Y78984D03*
Y80953D03*
X218246Y75047D03*
Y78984D03*
Y80953D03*
X220214Y71110D03*
Y73079D03*
Y75047D03*
Y78984D03*
Y80953D03*
X222183Y78984D03*
Y80953D03*
X212340Y82921D03*
X214309D03*
X216277D03*
X218246D03*
X220214D03*
X222183D03*
X224151Y57331D03*
X226120D03*
X228088D03*
X224151Y59299D03*
Y61268D03*
Y63236D03*
Y65205D03*
Y67173D03*
Y69142D03*
X226120Y59299D03*
Y61268D03*
Y63236D03*
Y65205D03*
Y67173D03*
Y69142D03*
X228088Y59299D03*
Y61268D03*
Y63236D03*
Y65205D03*
Y67173D03*
Y69142D03*
X224151Y71110D03*
Y73079D03*
Y75047D03*
Y77016D03*
Y78984D03*
Y80953D03*
X226120Y71110D03*
Y73079D03*
Y75047D03*
Y77016D03*
Y78984D03*
Y80953D03*
X228088Y71110D03*
Y73079D03*
Y75047D03*
Y77016D03*
Y78984D03*
Y80953D03*
X224151Y82921D03*
X226120D03*
X228088D03*
G54D29*
X12093Y59590D03*
G54D47*
X46139Y99392D03*
G54D65*
X91300Y86984D03*
X84300D03*
X91300Y95392D03*
X84300D03*
X91300Y103616D03*
X84300D03*
X170110Y36050D03*
X177110D03*
X206398Y26870D03*
Y35170D03*
X213398Y26870D03*
Y35170D03*
G54D74*
X209218Y114712D03*
Y123768D03*
X216502Y114712D03*
Y123768D03*
G54D56*
X65171Y156882D03*
X248568Y119387D03*
X256668D03*
G54D38*
X33450Y52485D03*
Y66265D03*
G54D57*
X71640Y19110D03*
Y37410D03*
Y55710D03*
G54D75*
X229472Y30301D03*
G54D39*
X22688Y90086D03*
Y92055D03*
X26232D03*
Y90086D03*
X22688Y100886D03*
Y102855D03*
X26232D03*
Y100886D03*
X22688Y95991D03*
Y97960D03*
X26232D03*
Y95991D03*
X22688Y106791D03*
Y108760D03*
X26232D03*
Y106791D03*
G54D48*
X37394Y174469D03*
Y172500D03*
Y170531D03*
X39363Y174469D03*
Y172500D03*
Y170531D03*
X41331Y174469D03*
Y172500D03*
Y170531D03*
X43300Y174469D03*
Y172500D03*
Y170531D03*
X53410Y174469D03*
Y172500D03*
Y170531D03*
X55379Y174469D03*
Y172500D03*
Y170531D03*
X57347Y174469D03*
Y172500D03*
Y170531D03*
X59316Y174469D03*
Y172500D03*
Y170531D03*
X69426Y174469D03*
Y172500D03*
Y170531D03*
X71395Y174469D03*
Y172500D03*
Y170531D03*
X73363Y174469D03*
Y172500D03*
Y170531D03*
X75332Y174469D03*
Y172500D03*
Y170531D03*
X85442Y174469D03*
Y172500D03*
Y170531D03*
X87411Y174469D03*
Y172500D03*
Y170531D03*
X89379Y174469D03*
Y172500D03*
Y170531D03*
X91348Y174469D03*
Y172500D03*
Y170531D03*
X191100Y174323D03*
Y172354D03*
Y170385D03*
X193069Y174323D03*
Y172354D03*
Y170385D03*
X195037Y174323D03*
Y172354D03*
Y170385D03*
X197006Y174323D03*
Y172354D03*
Y170385D03*
X203700Y174323D03*
Y172354D03*
Y170385D03*
X205669Y174323D03*
Y172354D03*
Y170385D03*
X207637Y174323D03*
Y172354D03*
Y170385D03*
X209606Y174323D03*
Y172354D03*
Y170385D03*
G54D66*
X107467Y21278D03*
X110026D03*
X112585D03*
X115144D03*
X107467Y24428D03*
Y27577D03*
Y30727D03*
Y33877D03*
X110026Y24428D03*
Y27577D03*
Y30727D03*
Y33877D03*
X112585Y24428D03*
Y27577D03*
Y30727D03*
Y33877D03*
X115144Y24428D03*
Y27577D03*
Y30727D03*
Y33877D03*
X107467Y43325D03*
X110026D03*
X112585D03*
X115144D03*
X107467Y46475D03*
Y49625D03*
Y52774D03*
Y55924D03*
X110026Y46475D03*
Y49625D03*
Y52774D03*
Y55924D03*
X112585Y46475D03*
Y49625D03*
Y52774D03*
Y55924D03*
X115144Y46475D03*
Y49625D03*
Y52774D03*
Y55924D03*
X117703Y21278D03*
X120262D03*
X122821D03*
X125380D03*
X117703Y24428D03*
Y27577D03*
Y30727D03*
Y33877D03*
X120262Y24428D03*
Y27577D03*
Y30727D03*
Y33877D03*
X122821Y24428D03*
Y27577D03*
Y30727D03*
Y33877D03*
X125380Y24428D03*
Y27577D03*
Y30727D03*
Y33877D03*
X117703Y43325D03*
X120262D03*
X122821D03*
X125380D03*
X117703Y46475D03*
Y49625D03*
Y52774D03*
Y55924D03*
X120262Y46475D03*
Y49625D03*
Y52774D03*
Y55924D03*
X122821Y46475D03*
Y49625D03*
Y52774D03*
Y55924D03*
X125380Y46475D03*
Y49625D03*
Y52774D03*
Y55924D03*
X127939Y21278D03*
X130498D03*
X138176D03*
X127939Y24428D03*
Y27577D03*
Y30727D03*
Y33877D03*
X130498Y24428D03*
Y27577D03*
Y30727D03*
Y33877D03*
X138176Y24428D03*
Y27577D03*
Y30727D03*
Y33877D03*
X127939Y43325D03*
X130498D03*
X138176D03*
X127939Y46475D03*
Y49625D03*
Y52774D03*
Y55924D03*
X130498Y46475D03*
Y49625D03*
Y52774D03*
Y55924D03*
X138176Y46475D03*
Y49625D03*
Y52774D03*
Y55924D03*
X140735Y21278D03*
X143294D03*
X145853D03*
X148412D03*
X150971D03*
X140735Y24428D03*
Y27577D03*
Y30727D03*
Y33877D03*
X143294Y24428D03*
Y27577D03*
Y30727D03*
Y33877D03*
X145853Y24428D03*
Y27577D03*
Y30727D03*
Y33877D03*
X148412Y24428D03*
Y27577D03*
Y30727D03*
Y33877D03*
X150971Y24428D03*
Y27577D03*
Y30727D03*
Y33877D03*
X140735Y43325D03*
X143294D03*
X145853D03*
X148412D03*
X150971D03*
X140735Y46475D03*
Y49625D03*
Y52774D03*
Y55924D03*
X143294Y46475D03*
Y49625D03*
Y52774D03*
Y55924D03*
X145853Y46475D03*
Y49625D03*
Y52774D03*
Y55924D03*
X148412Y46475D03*
Y49625D03*
Y52774D03*
Y55924D03*
X150971Y46475D03*
Y49625D03*
Y52774D03*
Y55924D03*
X153530Y21278D03*
X156089D03*
X158648D03*
X161207D03*
X153530Y24428D03*
Y27577D03*
Y30727D03*
Y33877D03*
X156089Y24428D03*
Y27577D03*
Y30727D03*
Y33877D03*
X158648Y24428D03*
Y27577D03*
Y30727D03*
Y33877D03*
X161207Y24428D03*
Y27577D03*
Y30727D03*
Y33877D03*
X153530Y43325D03*
X156089D03*
X158648D03*
X161207D03*
X153530Y46475D03*
Y49625D03*
Y52774D03*
Y55924D03*
X156089Y46475D03*
Y49625D03*
Y52774D03*
Y55924D03*
X158648Y46475D03*
Y49625D03*
Y52774D03*
Y55924D03*
X161207Y46475D03*
Y49625D03*
Y52774D03*
Y55924D03*
G54D58*
X68884Y105259D03*
X268440Y100600D03*
X260776D03*
G54D76*
X259199Y39213D03*
Y41181D03*
Y43150D03*
Y45118D03*
Y47087D03*
Y49055D03*
Y51024D03*
Y52992D03*
Y54961D03*
Y56929D03*
Y58898D03*
Y60866D03*
Y62835D03*
Y64803D03*
Y66772D03*
Y68740D03*
Y70709D03*
Y72677D03*
Y74646D03*
Y76614D03*
Y78583D03*
Y80551D03*
G54D67*
X114547Y89560D03*
X111397D03*
X108248D03*
X105098D03*
X114547Y92710D03*
X111397D03*
X108248D03*
X105098D03*
X114547Y95859D03*
X111397D03*
X108248D03*
X105098D03*
X114547Y99009D03*
X111397D03*
X108248D03*
X105098D03*
X114547Y102159D03*
X111397D03*
X108248D03*
X105098D03*
X114547Y105308D03*
X111397D03*
X108248D03*
X105098D03*
X114547Y108458D03*
X111397D03*
X108248D03*
X105098D03*
X114547Y111607D03*
X111397D03*
X108248D03*
X105098D03*
X114547Y114757D03*
X111397D03*
X108248D03*
X105098D03*
X114547Y117907D03*
X111397D03*
X108248D03*
X105098D03*
X114547Y121056D03*
X111397D03*
X108248D03*
X105098D03*
X114547Y124206D03*
X111397D03*
X108248D03*
X105098D03*
X114547Y127355D03*
X111397D03*
X108248D03*
X105098D03*
X114547Y130505D03*
X111397D03*
X108248D03*
X105098D03*
X114547Y133655D03*
X111397D03*
X108248D03*
X105098D03*
X114547Y136804D03*
X111397D03*
X108248D03*
X105098D03*
X114547Y139954D03*
X111397D03*
X108248D03*
X105098D03*
X114547Y143103D03*
X111397D03*
X108248D03*
X105098D03*
X114547Y146253D03*
X111397D03*
X108248D03*
X105098D03*
X114547Y149403D03*
X111397D03*
X108248D03*
X105098D03*
X114547Y152552D03*
X111397D03*
X108248D03*
X105098D03*
X114547Y155702D03*
X111397D03*
X108248D03*
X105098D03*
X127145Y89560D03*
X123996D03*
X120846D03*
X117697D03*
X127145Y92710D03*
X123996D03*
X120846D03*
X117697D03*
X127145Y95859D03*
X123996D03*
X120846D03*
X117697D03*
X127145Y99009D03*
X123996D03*
X120846D03*
X117697D03*
X127145Y102159D03*
X123996D03*
X120846D03*
X117697D03*
X127145Y105308D03*
X123996D03*
X120846D03*
X117697D03*
X127145Y108458D03*
X123996D03*
X120846D03*
X117697D03*
X127145Y111607D03*
X123996D03*
X120846D03*
X117697D03*
X127145Y114757D03*
X123996D03*
X120846D03*
X117697D03*
X127145Y117907D03*
X123996D03*
X120846D03*
X117697D03*
X127145Y121056D03*
X123996D03*
X120846D03*
X117697D03*
X127145Y124206D03*
X123996D03*
X120846D03*
X117697D03*
X127145Y127355D03*
X123996D03*
X120846D03*
X117697D03*
X127145Y130505D03*
X123996D03*
X120846D03*
X117697D03*
X127145Y133655D03*
X123996D03*
X120846D03*
X117697D03*
X127145Y136804D03*
X123996D03*
X120846D03*
X117697D03*
X127145Y139954D03*
X123996D03*
X120846D03*
X117697D03*
X127145Y143103D03*
X123996D03*
X120846D03*
X117697D03*
X127145Y146253D03*
X123996D03*
X120846D03*
X117697D03*
X127145Y149403D03*
X123996D03*
X120846D03*
X117697D03*
X127145Y152552D03*
X123996D03*
X120846D03*
X117697D03*
X127145Y155702D03*
X123996D03*
X120846D03*
X117697D03*
X136594Y89560D03*
X133445D03*
X130295D03*
X136594Y92710D03*
X133445D03*
X130295D03*
X136594Y95859D03*
X133445D03*
X130295D03*
X136594Y99009D03*
X133445D03*
X130295D03*
X136594Y102159D03*
X133445D03*
X130295D03*
X136594Y105308D03*
X133445D03*
X130295D03*
X136594Y108458D03*
X133445D03*
X130295D03*
X136594Y111607D03*
X133445D03*
X130295D03*
X136594Y114757D03*
X133445D03*
X130295D03*
X136594Y117907D03*
X133445D03*
X130295D03*
X136594Y121056D03*
X133445D03*
X130295D03*
X136594Y124206D03*
X133445D03*
X130295D03*
X136594Y127355D03*
X133445D03*
X130295D03*
X136594Y130505D03*
X133445D03*
X130295D03*
X136594Y133655D03*
X133445D03*
X130295D03*
X136594Y136804D03*
X133445D03*
X130295D03*
X136594Y139954D03*
X133445D03*
X130295D03*
X136594Y143103D03*
X133445D03*
X130295D03*
X136594Y146253D03*
X133445D03*
X130295D03*
X136594Y149403D03*
X133445D03*
X130295D03*
X136594Y152552D03*
X133445D03*
X130295D03*
X136594Y155702D03*
X133445D03*
X130295D03*
X149193Y89560D03*
X146043D03*
X142893D03*
X139744D03*
X149193Y92710D03*
X146043D03*
X142893D03*
X139744D03*
X149193Y95859D03*
X146043D03*
X142893D03*
X139744D03*
X149193Y99009D03*
X146043D03*
X142893D03*
X139744D03*
X149193Y102159D03*
X146043D03*
X142893D03*
X139744D03*
X149193Y105308D03*
X146043D03*
X142893D03*
X139744D03*
X149193Y108458D03*
X146043D03*
X142893D03*
X139744D03*
X149193Y111607D03*
X146043D03*
X142893D03*
X139744D03*
X149193Y114757D03*
X146043D03*
X142893D03*
X139744D03*
X149193Y117907D03*
X146043D03*
X142893D03*
X139744D03*
X149193Y121056D03*
X146043D03*
X142893D03*
X139744D03*
X149193Y124206D03*
X146043D03*
X142893D03*
X139744D03*
X149193Y127355D03*
X146043D03*
X142893D03*
X139744D03*
X149193Y130505D03*
X146043D03*
X142893D03*
X139744D03*
X149193Y133655D03*
X146043D03*
X142893D03*
X139744D03*
X149193Y136804D03*
X146043D03*
X142893D03*
X139744D03*
X149193Y139954D03*
X146043D03*
X142893D03*
X139744D03*
X149193Y143103D03*
X146043D03*
X142893D03*
X139744D03*
X149193Y146253D03*
X146043D03*
X142893D03*
X139744D03*
X149193Y149403D03*
X146043D03*
X142893D03*
X139744D03*
X149193Y152552D03*
X146043D03*
X142893D03*
X139744D03*
X149193Y155702D03*
X146043D03*
X142893D03*
X139744D03*
X161791Y89560D03*
X158641D03*
X155492D03*
X152342D03*
X161791Y92710D03*
X158641D03*
X155492D03*
X152342D03*
X161791Y95859D03*
X158641D03*
X155492D03*
X152342D03*
X161791Y99009D03*
X158641D03*
X155492D03*
X152342D03*
X161791Y102159D03*
X158641D03*
X155492D03*
X152342D03*
X161791Y105308D03*
X158641D03*
X155492D03*
X152342D03*
X161791Y108458D03*
X158641D03*
X155492D03*
X152342D03*
X161791Y111607D03*
X158641D03*
X155492D03*
X152342D03*
X161791Y114757D03*
X158641D03*
X155492D03*
X152342D03*
X161791Y117907D03*
X158641D03*
X155492D03*
X152342D03*
X161791Y121056D03*
X158641D03*
X155492D03*
X152342D03*
X161791Y124206D03*
X158641D03*
X155492D03*
X152342D03*
X161791Y127355D03*
X158641D03*
X155492D03*
X152342D03*
X161791Y130505D03*
X158641D03*
X155492D03*
X152342D03*
X161791Y133655D03*
X158641D03*
X155492D03*
X152342D03*
X161791Y136804D03*
X158641D03*
X155492D03*
X152342D03*
X161791Y139954D03*
X158641D03*
X155492D03*
X152342D03*
X161791Y143103D03*
X158641D03*
X155492D03*
X152342D03*
X161791Y146253D03*
X158641D03*
X155492D03*
X152342D03*
X161791Y149403D03*
X158641D03*
X155492D03*
X152342D03*
X161791Y152552D03*
X158641D03*
X155492D03*
X152342D03*
X161791Y155702D03*
X158641D03*
X155492D03*
X152342D03*
X171240Y89560D03*
X168090D03*
X164941D03*
X171240Y92710D03*
X168090D03*
X164941D03*
X171240Y95859D03*
X168090D03*
X164941D03*
X171240Y99009D03*
X168090D03*
X164941D03*
X171240Y102159D03*
X168090D03*
X164941D03*
X171240Y105308D03*
X168090D03*
X164941D03*
X171240Y108458D03*
X168090D03*
X164941D03*
X171240Y111607D03*
X168090D03*
X164941D03*
X171240Y114757D03*
X168090D03*
X164941D03*
X171240Y117907D03*
X168090D03*
X164941D03*
X171240Y121056D03*
X168090D03*
X164941D03*
X171240Y124206D03*
X168090D03*
X164941D03*
X171240Y127355D03*
X168090D03*
X164941D03*
X171240Y130505D03*
X168090D03*
X164941D03*
X171240Y133655D03*
X168090D03*
X164941D03*
X171240Y136804D03*
X168090D03*
X164941D03*
X171240Y139954D03*
X168090D03*
X164941D03*
X171240Y143103D03*
X168090D03*
X164941D03*
X171240Y146253D03*
X168090D03*
X164941D03*
X171240Y149403D03*
X168090D03*
X164941D03*
X171240Y152552D03*
X168090D03*
X164941D03*
X171240Y155702D03*
X168090D03*
X164941D03*
G54D49*
X49210Y53111D03*
Y64611D03*
G54D77*
X271590Y31142D03*
X271589Y88622D03*
G54D59*
X79462Y116497D03*
Y122797D03*
G54D68*
X188724Y159263D03*
X270220D03*
G54D78*
G01X-32500Y-12500D02*
X232500D01*
G03X282500Y37500I0J50000D01*
G01Y152500D01*
G03X232500Y202500I-50000J0D01*
G01X-32500D01*
G03X-57500Y177500I0J-25000D01*
G01Y12500D01*
G03X-32500Y-12500I25000J0D01*
G54D69*
X192760Y23402D03*
X196500Y33598D03*
X200240Y23402D03*
M02*
