G04 ================== begin FILE IDENTIFICATION RECORD ==================*
G04 Layout Name:  BEAGLEV FIRE_REV A_230911.brd*
G04 Film Name:    SILK_TOP*
G04 File Format:  Gerber RS274X*
G04 File Origin:  Cadence Allegro 17.4-S031*
G04 Origin Date:  Tue Sep 26 15:21:01 2023*
G04 *
G04 Layer:  PACKAGE GEOMETRY/SILKSCREEN_TOP*
G04 Layer:  MANUFACTURING/PEN3*
G04 Layer:  BOARD GEOMETRY/OUTLINE*
G04 Layer:  BOARD GEOMETRY/SILKSCREEN_TOP*
G04 *
G04 Offset:    (0.00 0.00)*
G04 Mirror:    No*
G04 Mode:      Positive*
G04 Rotation:  0*
G04 FullContactRelief:  No*
G04 UndefLineWidth:     5.00*
G04 ================== end FILE IDENTIFICATION RECORD ====================*
%FSLAX25Y25*MOIN*%
%IR0*IPPOS*OFA0.00000B0.00000*MIA0B0*SFA1.00000B1.00000*%
%ADD10C,.01*%
%ADD11C,.004*%
%ADD12C,.005*%
%ADD13C,.006*%
%ADD14C,.0035*%
%ADD15C,.00394*%
%ADD16C,.00984*%
G75*
%LPD*%
G75*
G36*
G01X-17700Y159025D02*
Y161025D01*
X-18700Y160025D01*
X-17700Y159025D01*
G37*
G36*
G01X-24100Y163400D02*
X-26100D01*
X-25100Y162400D01*
X-24100Y163400D01*
G37*
G36*
G01X-14197Y54507D02*
X-13082Y55621D01*
X-11968Y54507D01*
X-14197D01*
G37*
G36*
G01X-8143Y70872D02*
X-9258Y69758D01*
X-10372Y70872D01*
X-8143D01*
G37*
G36*
G01X16420Y71593D02*
X15305Y70479D01*
X14191Y71593D01*
X16420D01*
G37*
G36*
G01X17000Y129790D02*
X19500Y132290D01*
Y127290D01*
X17000Y129790D01*
G37*
G54D10*
G01X-32987Y143183D02*
G03I-500J0D01*
G01X-2600Y31700D02*
G03I-500J0D01*
G01X-5000Y144580D02*
G03I-500J0D01*
G01X-12013Y199737D02*
G03I-500J0D01*
G01X29600Y90133D02*
G03I-500J0D01*
G01Y100933D02*
G03I-500J0D01*
G01X33639Y112392D02*
G03I-500J0D01*
G01X35824Y131732D02*
G03I-500J0D01*
G01X47100Y46100D02*
G03I-500J0D01*
G01X53900Y164255D02*
G03I-500J0D01*
G01X45847Y168500D02*
G03I-500J0D01*
G01X65102Y148633D02*
G03I-500J0D01*
G01X61863Y168500D02*
G03I-500J0D01*
G01X79140Y12110D02*
G03I-500J0D01*
G01Y30410D02*
G03I-500J0D01*
G01Y48710D02*
G03I-500J0D01*
G01X77879Y168500D02*
G03I-500J0D01*
G01X86963Y125647D02*
G03I-501J0D01*
G01X93100Y147600D02*
G03I-500J0D01*
G01X97669Y163631D02*
G03I-500J0D01*
G01X93895Y168500D02*
G03I-500J0D01*
G01X188793Y46126D02*
G03I-500J0D01*
G01X199553Y168354D02*
G03I-500J0D01*
G01X206370Y126790D02*
G03I-500J0D01*
G01X212153Y168354D02*
G03I-500J0D01*
G01X243490Y115671D02*
G03I-500J0D01*
G01X255380Y80413D02*
G03I-500J0D01*
G54D11*
G01X-53326Y139600D02*
X-54660D01*
Y142400D01*
X-53326D01*
G01X-53860Y141047D02*
X-54660D01*
G01X-51992Y142400D02*
Y139600D01*
G01X-52459Y141467D02*
X-51525D01*
G01X-50558Y139600D02*
Y142400D01*
G01Y141047D02*
X-50391Y141280D01*
X-50224Y141420D01*
X-49958Y141467D01*
X-49758Y141420D01*
X-49524Y141233D01*
X-49424Y140953D01*
Y139600D01*
G01X-48490Y140860D02*
X-47423D01*
X-47523Y141187D01*
X-47690Y141373D01*
X-47923Y141467D01*
X-48157Y141420D01*
X-48357Y141280D01*
X-48490Y140953D01*
X-48557Y140673D01*
Y140393D01*
X-48490Y140113D01*
X-48323Y139833D01*
X-48123Y139647D01*
X-47890Y139600D01*
X-47657Y139693D01*
X-47423Y139973D01*
G01X-46456Y139600D02*
Y141467D01*
G01Y141093D02*
X-46289Y141280D01*
X-46122Y141420D01*
X-45889Y141467D01*
X-45722Y141420D01*
X-45522Y141280D01*
G01X-44555Y139600D02*
Y141467D01*
G01Y141000D02*
X-44421Y141233D01*
X-44221Y141420D01*
X-43955Y141467D01*
X-43721Y141420D01*
X-43521Y141233D01*
X-43421Y140907D01*
Y139600D01*
G01X-42487Y140860D02*
X-41420D01*
X-41520Y141187D01*
X-41687Y141373D01*
X-41920Y141467D01*
X-42154Y141420D01*
X-42354Y141280D01*
X-42487Y140953D01*
X-42554Y140673D01*
Y140393D01*
X-42487Y140113D01*
X-42320Y139833D01*
X-42120Y139647D01*
X-41887Y139600D01*
X-41654Y139693D01*
X-41420Y139973D01*
G01X-39986Y142400D02*
Y139600D01*
G01X-40453Y141467D02*
X-39519D01*
G01X-53900Y155429D02*
X-51100D01*
Y156763D01*
G01Y158764D02*
Y157430D01*
X-53900D01*
Y158764D01*
G01X-52547Y158230D02*
Y157430D01*
G01X-51100Y159365D02*
X-53900D01*
Y160031D01*
X-53760Y160298D01*
X-53573Y160498D01*
X-53293Y160665D01*
X-52967Y160798D01*
X-52500Y160831D01*
X-52033Y160798D01*
X-51707Y160665D01*
X-51427Y160498D01*
X-51240Y160298D01*
X-51100Y160031D01*
Y159365D01*
G01X-50167Y161932D02*
X-50633Y161599D01*
X-51100Y161432D01*
X-52967D01*
X-53433Y161599D01*
X-53900Y161932D01*
G01X-51100Y164100D02*
X-53900D01*
X-53340Y163700D01*
G01X-51100D02*
Y164500D01*
G01Y166501D02*
X-53900D01*
X-51893Y165268D01*
Y166934D01*
G01X-52033Y167669D02*
Y168535D01*
G01X-51660Y169370D02*
X-51333Y169570D01*
X-51147Y169836D01*
X-51100Y170136D01*
X-51147Y170403D01*
X-51380Y170670D01*
X-51660Y170836D01*
X-51940Y170870D01*
X-52267Y170803D01*
X-52500Y170570D01*
X-52593Y170336D01*
Y170036D01*
G01Y170336D02*
X-52733Y170536D01*
X-52967Y170703D01*
X-53247Y170770D01*
X-53527Y170703D01*
X-53760Y170536D01*
X-53900Y170236D01*
X-53853Y169936D01*
X-53667Y169636D01*
G01X-50167Y172271D02*
X-50633Y172604D01*
X-51100Y172771D01*
X-52967D01*
X-53433Y172604D01*
X-53900Y172271D01*
G01X-50634Y3810D02*
Y1803D01*
X-50501Y1383D01*
X-50234Y1103D01*
X-49901Y1010D01*
X-49568Y1103D01*
X-49301Y1383D01*
X-49168Y1803D01*
Y3810D01*
G01X-48600Y1383D02*
X-48333Y1150D01*
X-48033Y1010D01*
X-47767D01*
X-47500Y1150D01*
X-47300Y1383D01*
X-47200Y1710D01*
X-47267Y2037D01*
X-47433Y2317D01*
X-47733Y2503D01*
X-48133Y2597D01*
X-48367Y2783D01*
X-48467Y3110D01*
X-48400Y3437D01*
X-48233Y3670D01*
X-48000Y3810D01*
X-47767D01*
X-47533Y3717D01*
X-47333Y3483D01*
G01X-45632Y2503D02*
X-45499Y2643D01*
X-45399Y2877D01*
X-45332Y3203D01*
X-45399Y3483D01*
X-45532Y3670D01*
X-45766Y3810D01*
X-46666D01*
Y1010D01*
X-45566D01*
X-45332Y1197D01*
X-45199Y1477D01*
X-45132Y1803D01*
X-45199Y2130D01*
X-45399Y2410D01*
X-45632Y2503D01*
X-46666D01*
G01X-31069Y1460D02*
X-30902Y1180D01*
X-30702Y993D01*
X-30469Y900D01*
X-30202Y993D01*
X-30002Y1180D01*
X-29802Y1460D01*
X-29735Y1833D01*
Y3700D01*
G01X-28401D02*
Y900D01*
G01X-29168Y3700D02*
X-27634D01*
G01X-27233Y900D02*
X-26400Y3700D01*
X-25567Y900D01*
G01X-25867Y1880D02*
X-26933D01*
G01X-24199Y2300D02*
X-23532D01*
Y1460D01*
X-23732Y1180D01*
X-23966Y993D01*
X-24299Y900D01*
X-24632Y993D01*
X-24866Y1180D01*
X-25066Y1460D01*
X-25199Y1787D01*
X-25266Y2160D01*
Y2487D01*
X-25199Y2767D01*
X-25066Y3093D01*
X-24866Y3373D01*
X-24666Y3560D01*
X-24399Y3700D01*
X-24166D01*
X-23899Y3607D01*
X-23699Y3420D01*
G01X-27875Y70590D02*
X-27675Y70357D01*
X-27442Y70217D01*
X-27142Y70170D01*
X-26842Y70263D01*
X-26609Y70450D01*
X-26442Y70777D01*
X-26409Y71150D01*
X-26475Y71523D01*
X-26642Y71757D01*
X-26875Y71943D01*
X-27109Y71990D01*
X-27342Y71943D01*
X-27642Y71757D01*
X-27542Y72970D01*
X-26642D01*
G01X-25974D02*
X-25141Y70170D01*
X-24308Y72970D01*
G01X-21872Y70170D02*
Y72970D01*
X-21206D01*
X-20939Y72830D01*
X-20739Y72643D01*
X-20572Y72363D01*
X-20439Y72037D01*
X-20406Y71570D01*
X-20439Y71103D01*
X-20572Y70777D01*
X-20739Y70497D01*
X-20939Y70310D01*
X-21206Y70170D01*
X-21872D01*
G01X-18405Y72737D02*
X-18605Y72877D01*
X-18838Y72970D01*
X-19105D01*
X-19405Y72830D01*
X-19638Y72597D01*
X-19805Y72317D01*
X-19938Y71850D01*
X-19971Y71430D01*
X-19905Y71010D01*
X-19805Y70730D01*
X-19605Y70450D01*
X-19371Y70263D01*
X-19138Y70170D01*
X-18905D01*
X-18671Y70263D01*
X-18471Y70403D01*
X-18305Y70590D01*
G01X-15536Y72970D02*
X-14736D01*
G01X-15136D02*
Y70170D01*
G01X-15536D02*
X-14736D01*
G01X-13902D02*
Y72970D01*
X-12368Y70170D01*
Y72970D01*
G01X-27569Y140300D02*
Y143100D01*
X-26735D01*
X-26469Y142960D01*
X-26302Y142773D01*
X-26235Y142400D01*
X-26302Y142027D01*
X-26502Y141793D01*
X-26735Y141653D01*
X-27569D01*
G01X-26735D02*
X-26235Y140300D01*
G01X-24234D02*
X-25568D01*
Y143100D01*
X-24234D01*
G01X-24768Y141747D02*
X-25568D01*
G01X-23600Y140673D02*
X-23333Y140440D01*
X-23033Y140300D01*
X-22767D01*
X-22500Y140440D01*
X-22300Y140673D01*
X-22200Y141000D01*
X-22267Y141327D01*
X-22433Y141607D01*
X-22733Y141793D01*
X-23133Y141887D01*
X-23367Y142073D01*
X-23467Y142400D01*
X-23400Y142727D01*
X-23233Y142960D01*
X-23000Y143100D01*
X-22767D01*
X-22533Y143007D01*
X-22333Y142773D01*
G01X-20232Y140300D02*
X-21566D01*
Y143100D01*
X-20232D01*
G01X-20766Y141747D02*
X-21566D01*
G01X-18898Y143100D02*
Y140300D01*
G01X-19665Y143100D02*
X-18131D01*
G01X-15568Y4900D02*
Y7700D01*
X-14768D01*
X-14501Y7560D01*
X-14301Y7233D01*
X-14234Y6860D01*
X-14301Y6487D01*
X-14468Y6207D01*
X-14768Y6067D01*
X-15568D01*
G01X-13900Y7700D02*
X-13433Y4900D01*
X-12900Y7700D01*
X-12367Y4900D01*
X-11900Y7700D01*
G01X-11566Y4900D02*
Y7700D01*
X-10732D01*
X-10466Y7560D01*
X-10299Y7373D01*
X-10232Y7000D01*
X-10299Y6627D01*
X-10499Y6393D01*
X-10732Y6253D01*
X-11566D01*
G01X-10732D02*
X-10232Y4900D01*
G01X-26435Y202000D02*
Y199993D01*
X-26302Y199573D01*
X-26035Y199293D01*
X-25702Y199200D01*
X-25369Y199293D01*
X-25102Y199573D01*
X-24969Y199993D01*
Y202000D01*
G01X-24401Y199573D02*
X-24134Y199340D01*
X-23834Y199200D01*
X-23568D01*
X-23301Y199340D01*
X-23101Y199573D01*
X-23001Y199900D01*
X-23068Y200227D01*
X-23234Y200507D01*
X-23534Y200693D01*
X-23934Y200787D01*
X-24168Y200973D01*
X-24268Y201300D01*
X-24201Y201627D01*
X-24034Y201860D01*
X-23801Y202000D01*
X-23568D01*
X-23334Y201907D01*
X-23134Y201673D01*
G01X-21033Y199200D02*
X-22367D01*
Y202000D01*
X-21033D01*
G01X-21567Y200647D02*
X-22367D01*
G01X-20366Y199200D02*
Y202000D01*
X-19532D01*
X-19266Y201860D01*
X-19099Y201673D01*
X-19032Y201300D01*
X-19099Y200927D01*
X-19299Y200693D01*
X-19532Y200553D01*
X-20366D01*
G01X-19532D02*
X-19032Y199200D01*
G01X102510Y20980D02*
X99710D01*
X100270Y20580D01*
G01X102510D02*
Y21380D01*
G01X102630Y56140D02*
X99830D01*
X100390Y55740D01*
G01X102630D02*
Y56540D01*
G01X100297Y57508D02*
X100017Y57708D01*
X99877Y57941D01*
X99830Y58208D01*
X99923Y58541D01*
X100157Y58774D01*
X100437Y58841D01*
X100717Y58808D01*
X100950Y58674D01*
X101417Y58008D01*
X101743Y57708D01*
X102210Y57508D01*
X102630Y57441D01*
Y58841D01*
G01X97690Y86667D02*
X94890Y87500D01*
X97690Y88333D01*
G01X96710Y88033D02*
Y86967D01*
G01X96197Y89768D02*
X96057Y89901D01*
X95823Y90001D01*
X95497Y90068D01*
X95217Y90001D01*
X95030Y89868D01*
X94890Y89634D01*
Y88734D01*
X97690D01*
Y89834D01*
X97503Y90068D01*
X97223Y90201D01*
X96897Y90268D01*
X96570Y90201D01*
X96290Y90001D01*
X96197Y89768D01*
Y88734D01*
G01X103120Y164160D02*
Y166960D01*
X102720Y166400D01*
G01Y164160D02*
X103520D01*
G01X97410Y154817D02*
X94610Y155650D01*
X97410Y156483D01*
G01X96430Y156183D02*
Y155117D01*
G01X108310Y12057D02*
X105510Y12890D01*
X108310Y13723D01*
G01X107330Y13423D02*
Y12357D01*
G01X104165Y173800D02*
Y176600D01*
X104831D01*
X105098Y176460D01*
X105298Y176273D01*
X105465Y175993D01*
X105598Y175667D01*
X105631Y175200D01*
X105598Y174733D01*
X105465Y174407D01*
X105298Y174127D01*
X105098Y173940D01*
X104831Y173800D01*
X104165D01*
G01X106399Y175060D02*
X107466D01*
X107366Y175387D01*
X107199Y175573D01*
X106966Y175667D01*
X106732Y175620D01*
X106532Y175480D01*
X106399Y175153D01*
X106332Y174873D01*
Y174593D01*
X106399Y174313D01*
X106566Y174033D01*
X106766Y173847D01*
X106999Y173800D01*
X107232Y173893D01*
X107466Y174173D01*
G01X108300Y173800D02*
Y176600D01*
G01Y175200D02*
X108467Y175480D01*
X108667Y175620D01*
X108867Y175667D01*
X109167Y175573D01*
X109367Y175387D01*
X109500Y175060D01*
Y174687D01*
X109433Y174313D01*
X109300Y174033D01*
X109067Y173847D01*
X108867Y173800D01*
X108667Y173847D01*
X108467Y173987D01*
X108300Y174220D01*
G01X110334Y175667D02*
Y174360D01*
X110468Y174033D01*
X110668Y173847D01*
X110901Y173800D01*
X111134Y173847D01*
X111334Y174033D01*
X111468Y174360D01*
G01Y173800D02*
Y175667D01*
G01X112435Y173100D02*
X112669Y172913D01*
X112935Y172867D01*
X113169Y172913D01*
X113369Y173147D01*
X113502Y173473D01*
Y175667D01*
G01Y175293D02*
X113369Y175480D01*
X113169Y175620D01*
X112935Y175667D01*
X112669Y175573D01*
X112502Y175387D01*
X112369Y175060D01*
X112302Y174733D01*
X112335Y174453D01*
X112469Y174127D01*
X112669Y173893D01*
X112935Y173800D01*
X113135Y173847D01*
X113369Y174033D01*
X113502Y174220D01*
G01X117992Y165190D02*
Y167990D01*
X119526Y165190D01*
Y167990D01*
G01X121493Y167757D02*
X121293Y167897D01*
X121060Y167990D01*
X120793D01*
X120493Y167850D01*
X120260Y167617D01*
X120093Y167337D01*
X119960Y166870D01*
X119927Y166450D01*
X119993Y166030D01*
X120093Y165750D01*
X120293Y165470D01*
X120527Y165283D01*
X120760Y165190D01*
X120993D01*
X121227Y165283D01*
X121427Y165423D01*
X121593Y165610D01*
G01X127759Y167990D02*
Y165190D01*
G01X126992Y167990D02*
X128526D01*
G01X129060Y165190D02*
X130460Y167990D01*
G01X129060D02*
X130460Y165190D01*
G01X131028D02*
Y167990D01*
X131694D01*
X131961Y167850D01*
X132161Y167663D01*
X132328Y167383D01*
X132461Y167057D01*
X132494Y166590D01*
X132461Y166123D01*
X132328Y165797D01*
X132161Y165517D01*
X131961Y165330D01*
X131694Y165190D01*
X131028D01*
G01X137092D02*
Y167990D01*
X137926D01*
X138192Y167850D01*
X138359Y167663D01*
X138426Y167290D01*
X138359Y166917D01*
X138159Y166683D01*
X137926Y166543D01*
X137092D01*
G01X137926D02*
X138426Y165190D01*
G01X139060D02*
X140460Y167990D01*
G01X139060D02*
X140460Y165190D01*
G01X141028D02*
Y167990D01*
X141694D01*
X141961Y167850D01*
X142161Y167663D01*
X142328Y167383D01*
X142461Y167057D01*
X142494Y166590D01*
X142461Y166123D01*
X142328Y165797D01*
X142161Y165517D01*
X141961Y165330D01*
X141694Y165190D01*
X141028D01*
G01X147992D02*
Y167990D01*
X149526Y165190D01*
Y167990D01*
G01X151493Y167757D02*
X151293Y167897D01*
X151060Y167990D01*
X150793D01*
X150493Y167850D01*
X150260Y167617D01*
X150093Y167337D01*
X149960Y166870D01*
X149927Y166450D01*
X149993Y166030D01*
X150093Y165750D01*
X150293Y165470D01*
X150527Y165283D01*
X150760Y165190D01*
X150993D01*
X151227Y165283D01*
X151427Y165423D01*
X151593Y165610D01*
G01X163370Y10867D02*
X160570Y11700D01*
X163370Y12533D01*
G01X162390Y12233D02*
Y11167D01*
G01X161877Y13968D02*
X161737Y14101D01*
X161503Y14201D01*
X161177Y14268D01*
X160897Y14201D01*
X160710Y14068D01*
X160570Y13834D01*
Y12934D01*
X163370D01*
Y14034D01*
X163183Y14268D01*
X162903Y14401D01*
X162577Y14468D01*
X162250Y14401D01*
X161970Y14201D01*
X161877Y13968D01*
Y12934D01*
G01X157992Y165190D02*
Y167990D01*
X159526Y165190D01*
Y167990D01*
G01X161493Y167757D02*
X161293Y167897D01*
X161060Y167990D01*
X160793D01*
X160493Y167850D01*
X160260Y167617D01*
X160093Y167337D01*
X159960Y166870D01*
X159927Y166450D01*
X159993Y166030D01*
X160093Y165750D01*
X160293Y165470D01*
X160527Y165283D01*
X160760Y165190D01*
X160993D01*
X161227Y165283D01*
X161427Y165423D01*
X161593Y165610D01*
G01X167959Y166590D02*
X168626D01*
Y165750D01*
X168426Y165470D01*
X168192Y165283D01*
X167859Y165190D01*
X167526Y165283D01*
X167292Y165470D01*
X167092Y165750D01*
X166959Y166077D01*
X166892Y166450D01*
Y166777D01*
X166959Y167057D01*
X167092Y167383D01*
X167292Y167663D01*
X167492Y167850D01*
X167759Y167990D01*
X167992D01*
X168259Y167897D01*
X168459Y167710D01*
G01X168993Y165190D02*
Y167990D01*
X170527Y165190D01*
Y167990D01*
G01X171028Y165190D02*
Y167990D01*
X171694D01*
X171961Y167850D01*
X172161Y167663D01*
X172328Y167383D01*
X172461Y167057D01*
X172494Y166590D01*
X172461Y166123D01*
X172328Y165797D01*
X172161Y165517D01*
X171961Y165330D01*
X171694Y165190D01*
X171028D01*
G01X174527Y165943D02*
X174727Y166223D01*
X174960Y166363D01*
X175227Y166410D01*
X175560Y166317D01*
X175793Y166083D01*
X175860Y165803D01*
X175827Y165523D01*
X175693Y165290D01*
X175027Y164823D01*
X174727Y164497D01*
X174527Y164030D01*
X174460Y163610D01*
X175860D01*
G01X176528Y165943D02*
X176728Y166223D01*
X176961Y166363D01*
X177228Y166410D01*
X177561Y166317D01*
X177794Y166083D01*
X177861Y165803D01*
X177828Y165523D01*
X177694Y165290D01*
X177028Y164823D01*
X176728Y164497D01*
X176528Y164030D01*
X176461Y163610D01*
X177861D01*
G01X262732Y28367D02*
X262532Y28507D01*
X262299Y28600D01*
X262032D01*
X261732Y28460D01*
X261499Y28227D01*
X261332Y27947D01*
X261199Y27480D01*
X261166Y27060D01*
X261232Y26640D01*
X261332Y26360D01*
X261532Y26080D01*
X261766Y25893D01*
X261999Y25800D01*
X262232D01*
X262466Y25893D01*
X262666Y26033D01*
X262832Y26220D01*
G01X263300Y26173D02*
X263567Y25940D01*
X263867Y25800D01*
X264133D01*
X264400Y25940D01*
X264600Y26173D01*
X264700Y26500D01*
X264633Y26827D01*
X264467Y27107D01*
X264167Y27293D01*
X263767Y27387D01*
X263533Y27573D01*
X263433Y27900D01*
X263500Y28227D01*
X263667Y28460D01*
X263900Y28600D01*
X264133D01*
X264367Y28507D01*
X264567Y28273D01*
G01X265601Y28600D02*
X266401D01*
G01X266001D02*
Y25800D01*
G01X265601D02*
X266401D01*
G01X279133Y138430D02*
X276333D01*
X278666Y139297D01*
X276333Y140164D01*
X279133D01*
G01X276800Y140665D02*
X276520Y140865D01*
X276380Y141098D01*
X276333Y141365D01*
X276426Y141698D01*
X276660Y141931D01*
X276940Y141998D01*
X277220Y141965D01*
X277453Y141831D01*
X277920Y141165D01*
X278246Y140865D01*
X278713Y140665D01*
X279133Y140598D01*
Y141998D01*
G01Y144567D02*
X276333D01*
G01Y145833D02*
X278060Y144567D01*
G01X279133Y146033D02*
X277266Y145133D01*
G01X277873Y146801D02*
Y147868D01*
X277546Y147768D01*
X277360Y147601D01*
X277266Y147368D01*
X277313Y147134D01*
X277453Y146934D01*
X277780Y146801D01*
X278060Y146734D01*
X278340D01*
X278620Y146801D01*
X278900Y146968D01*
X279086Y147168D01*
X279133Y147401D01*
X279040Y147634D01*
X278760Y147868D01*
G01X279973Y148602D02*
X280066Y148802D01*
X279973Y149069D01*
X279786Y149235D01*
X279553Y149369D01*
X278806Y149569D01*
X277266Y150002D01*
G01Y148935D02*
X278806Y149569D01*
G01X279133Y153971D02*
Y152637D01*
X276333D01*
Y153971D01*
G01X277686Y153437D02*
Y152637D01*
G54D12*
G01X-32500Y-12500D02*
X232500D01*
G03X282500Y37500I0J50000D01*
G01Y152500D01*
G03X232500Y202500I-50000J0D01*
G01X-32500D01*
G03X-57500Y177500I0J-25000D01*
G01Y12500D01*
G03X-32500Y-12500I25000J0D01*
G01X8750Y0D02*
G03I-8750J0D01*
G01D02*
G03I-8750J0D01*
G01Y190000D02*
G03I-8750J0D01*
G01D02*
G03I-8750J0D01*
G01X25000Y-10000D02*
X245000D01*
Y10000D01*
X25000D01*
X15000D01*
Y-10000D01*
X25000D01*
G01Y180000D02*
X245000D01*
Y200000D01*
X25000D01*
X15000D01*
Y180000D01*
X25000D01*
G01X174839Y169530D02*
Y179530D01*
X114839D01*
Y169530D01*
X174839D01*
G01X240884Y47488D02*
Y92764D01*
X189702D01*
Y47488D01*
X240884D01*
G01X268750Y12500D02*
G03I-8750J0D01*
G01D02*
G03I-8750J0D01*
G01Y177500D02*
G03I-8750J0D01*
G01D02*
G03I-8750J0D01*
G01X-67520Y138148D02*
Y75432D01*
X16142D01*
Y138148D01*
X-67520D01*
G01X-60069Y6552D02*
X-54754D01*
G01X-60069D02*
Y41985D01*
X-54754D01*
G01X-44518Y6552D02*
X-38613D01*
G01X-44518Y41985D02*
X-38613D01*
G01X-48100Y154100D02*
Y152100D01*
G01X-43600Y151600D02*
X-46600D01*
Y154600D01*
G01X-41600D02*
X-38600D01*
Y151600D01*
X-41600D01*
G01X-48100Y150500D02*
Y148500D01*
G01X-47100Y149500D02*
X-49100D01*
G01X-43600Y148000D02*
X-46600D01*
Y151000D01*
G01X-41600D02*
X-38600D01*
Y148000D01*
X-41600D01*
G01X-46600Y151000D02*
X-43600D01*
G01X-48100Y146900D02*
Y144900D01*
G01X-47100Y145900D02*
X-49100D01*
G01X-43600Y144400D02*
X-46600D01*
Y147400D01*
G01X-41600D02*
X-38600D01*
Y144400D01*
X-41600D01*
G01X-46600Y147400D02*
X-43600D01*
G01X-48100Y161300D02*
Y159300D01*
G01X-47100Y160300D02*
X-49100D01*
G01X-43600Y158800D02*
X-46600D01*
Y161800D01*
G01X-41600D02*
X-38600D01*
Y158800D01*
X-41600D01*
G01X-46600Y161800D02*
X-43600D01*
G01X-48100Y157700D02*
Y155700D01*
G01X-47100Y156700D02*
X-49100D01*
G01X-43600Y155200D02*
X-46600D01*
Y158200D01*
G01X-41600D02*
X-38600D01*
Y155200D01*
X-41600D01*
G01X-46600Y158200D02*
X-43600D01*
G01X-47100Y153100D02*
X-49100D01*
G01X-46600Y154600D02*
X-43600D01*
G01X-48100Y164900D02*
Y162900D01*
G01X-47100Y163900D02*
X-49100D01*
G01X-43600Y162400D02*
X-46600D01*
Y165400D01*
G01X-41600D02*
X-38600D01*
Y162400D01*
X-41600D01*
G01X-48100Y175700D02*
Y173700D01*
G01X-47100Y174700D02*
X-49100D01*
G01X-43600Y173200D02*
X-46600D01*
Y176200D01*
G01X-41600D02*
X-38600D01*
Y173200D01*
X-41600D01*
G01X-46600Y176200D02*
X-43600D01*
G01X-48100Y172100D02*
Y170100D01*
G01X-47100Y171100D02*
X-49100D01*
G01X-43600Y169600D02*
X-46600D01*
Y172600D01*
G01X-41600D02*
X-38600D01*
Y169600D01*
X-41600D01*
G01X-46600Y172600D02*
X-43600D01*
G01X-48100Y168500D02*
Y166500D01*
G01X-47100Y167500D02*
X-49100D01*
G01X-43600Y166000D02*
X-46600D01*
Y169000D01*
G01X-41600D02*
X-38600D01*
Y166000D01*
X-41600D01*
G01X-46600Y169000D02*
X-43600D01*
G01X-46600Y165400D02*
X-43600D01*
G01X-48100Y182900D02*
Y180900D01*
G01X-47100Y181900D02*
X-49100D01*
G01X-43600Y180400D02*
X-46600D01*
Y183400D01*
G01X-41600D02*
X-38600D01*
Y180400D01*
X-41600D01*
G01X-46600Y183400D02*
X-43600D01*
G01X-48100Y179300D02*
Y177300D01*
G01X-47100Y178300D02*
X-49100D01*
G01X-43600Y176800D02*
X-46600D01*
Y179800D01*
G01X-41600D02*
X-38600D01*
Y176800D01*
X-41600D01*
G01X-46600Y179800D02*
X-43600D01*
G01X-48100Y186500D02*
Y184500D01*
G01X-47100Y185500D02*
X-49100D01*
G01X-43600Y184000D02*
X-46600D01*
Y187000D01*
G01X-41600D02*
X-38600D01*
Y184000D01*
X-41600D01*
G01X-46600Y187000D02*
X-43600D01*
G01X-25700Y6200D02*
X-27700D01*
G01X-14129Y144384D02*
X-31845D01*
G01X-27500Y165350D02*
Y158250D01*
X-31000D01*
Y165350D01*
X-27550D01*
G01X-31845Y156982D02*
X-14129D01*
G01X-14155Y185938D02*
X-31871D01*
G01Y198536D02*
X-14155D01*
G01X-26700Y7200D02*
Y5200D01*
G01X-22200Y4700D02*
X-25200D01*
Y7700D01*
G01X-20200D02*
X-17200D01*
Y4700D01*
X-20200D01*
G01X-25200Y7700D02*
X-22200D01*
G01X-17650Y8450D02*
X-24750D01*
Y11950D01*
X-17650D01*
Y8500D01*
G01X-18971Y16426D02*
X-26071D01*
Y19926D01*
X-18971D01*
Y16476D01*
G01Y20493D02*
X-26071D01*
Y23993D01*
X-18971D01*
Y20543D01*
G01X-10200Y16496D02*
Y33496D01*
G03X-18200I-4000J-7375D01*
G01Y16496D01*
G01X-10200D02*
G02X-18200I-4000J7500D01*
G01X-18971Y28630D02*
X-26071D01*
Y32130D01*
X-18971D01*
Y28680D01*
G01Y24543D02*
X-26071D01*
Y28043D01*
X-18971D01*
Y24593D01*
G01X-24110Y41992D02*
X-20610D01*
G01X-24110Y42000D02*
Y45000D01*
G01X-13539Y56351D02*
Y55812D01*
X-14098Y55249D01*
X-17571D01*
G01X-23189D02*
X-27421D01*
Y56351D01*
G01X-24110Y50500D02*
Y53500D01*
X-20610D01*
G01X-27421Y68029D02*
Y69131D01*
X-23189D01*
G01X-17571D02*
X-13539D01*
Y68029D01*
G01X-14650Y163050D02*
X-21750D01*
Y166550D01*
X-14650D01*
Y163100D01*
G01X-19562Y161600D02*
X-16838D01*
G01Y158450D02*
X-19562D01*
G01X-26675Y161538D02*
Y164262D01*
G01X-23525D02*
Y161538D01*
G01X-27250Y176450D02*
Y183550D01*
X-23750D01*
Y176450D01*
X-27200D01*
G01X-22750D02*
Y183550D01*
X-19250D01*
Y176450D01*
X-22700D01*
G01X-1390Y20759D02*
Y13659D01*
X-4890D01*
Y20759D01*
X-1440D01*
G01X-5550Y20846D02*
Y13746D01*
X-9050D01*
Y20846D01*
X-5600D01*
G01X-5830Y40930D02*
X1270D01*
Y37430D01*
X-5830D01*
Y40880D01*
G01X-10460Y46170D02*
Y39070D01*
X-13960D01*
Y46170D01*
X-10510D01*
G01X1048Y53656D02*
Y41844D01*
X-5252D01*
Y53656D01*
X1048D01*
G01X-6948Y55249D02*
X-10980D01*
Y56351D01*
G01X-10460Y54110D02*
Y47010D01*
X-13960D01*
Y54110D01*
X-10510D01*
G01X-10980Y68029D02*
Y68568D01*
X-10421Y69131D01*
X-6948D01*
G01X16394Y166474D02*
X-4394D01*
Y147261D01*
X-2819Y145686D01*
X16394D01*
Y166474D01*
G01X2670Y20169D02*
Y18009D01*
Y16409D01*
Y14250D01*
G02X2079Y13659I-591J0D01*
G01X-240D01*
G02X-830Y14250I0J590D01*
G01Y20169D01*
G02X-240Y20759I590J0D01*
G01X2079D01*
G02X2670Y20169I0J-591D01*
G01X10790Y20759D02*
Y13659D01*
X7290D01*
Y20759D01*
X10740D01*
G01X6730D02*
Y13659D01*
X3230D01*
Y20759D01*
X6680D01*
G01X14950Y21550D02*
X7850D01*
Y25050D01*
X14950D01*
Y21600D01*
G01X-1770Y36366D02*
X390D01*
X1990D01*
X4149D01*
G02X4740Y35775I0J-591D01*
G01Y33456D01*
G02X4149Y32866I-591J1D01*
G01X-1770D01*
G02X-2360Y33456I1J591D01*
G01Y35775D01*
G02X-1770Y36366I591J0D01*
G01X-1750Y24050D02*
Y30350D01*
G01X4550D02*
Y24050D01*
G01X14950Y25650D02*
X7850D01*
Y29150D01*
X14950D01*
Y25700D01*
G01Y29750D02*
X7850D01*
Y33250D01*
X14950D01*
Y29800D01*
G01Y33850D02*
X7850D01*
Y37350D01*
X14950D01*
Y33900D01*
G01X3291Y53550D02*
X5450D01*
X7050D01*
X9209D01*
G02X9800Y52959I0J-591D01*
G01Y50641D01*
G02X9209Y50050I-591J0D01*
G01X3291D01*
G02X2700Y50641I0J591D01*
G01Y52959D01*
G02X3291Y53550I591J0D01*
G01X6254Y55249D02*
X5152D01*
Y59481D01*
G01X2902Y56351D02*
Y55249D01*
X-1330D01*
G01X5152Y65099D02*
Y69131D01*
X6254D01*
G01X-1330D02*
X2902D01*
Y68029D01*
G01X12000Y-10000D02*
Y-5000D01*
X11200Y-6000D01*
G01Y-10000D02*
X12800D01*
G01X16500Y10800D02*
Y14800D01*
X17820D01*
X18260Y14600D01*
X18590Y14133D01*
X18700Y13600D01*
X18590Y13067D01*
X18315Y12667D01*
X17820Y12467D01*
X16500D01*
G01X20665Y11267D02*
X21050Y10933D01*
X21490Y10800D01*
X21930Y10933D01*
X22315Y11333D01*
X22590Y11933D01*
X22700Y12533D01*
Y13267D01*
X22590Y13867D01*
X22315Y14400D01*
X21985Y14667D01*
X21600Y14800D01*
X21160Y14667D01*
X20830Y14400D01*
X20610Y14000D01*
X20500Y13467D01*
X20610Y13000D01*
X20885Y12533D01*
X21215Y12267D01*
X21600Y12200D01*
X22040Y12333D01*
X22370Y12667D01*
X22700Y13267D01*
G01X10733Y6667D02*
X11133Y7167D01*
X11600Y7417D01*
X12133Y7500D01*
X12800Y7333D01*
X13267Y6917D01*
X13400Y6417D01*
X13333Y5917D01*
X13067Y5500D01*
X11733Y4667D01*
X11133Y4083D01*
X10733Y3250D01*
X10600Y2500D01*
X13400D01*
G01X11350Y13659D02*
Y20759D01*
X14850D01*
Y13659D01*
X11400D01*
G01X19034Y59481D02*
Y55249D01*
X17932D01*
G01Y69131D02*
X18471D01*
X19034Y68572D01*
Y65099D01*
G01X16980Y70280D02*
Y87780D01*
X27980D01*
Y70280D01*
X16980D01*
G01X15600Y175000D02*
Y179000D01*
X16920D01*
X17360Y178800D01*
X17690Y178333D01*
X17800Y177800D01*
X17690Y177267D01*
X17415Y176867D01*
X16920Y176667D01*
X15600D01*
G01X20700Y175000D02*
X21085Y175067D01*
X21525Y175267D01*
X21800Y175600D01*
X21910Y176067D01*
X21800Y176533D01*
X21470Y176933D01*
X20975Y177133D01*
X20425D01*
X20095Y177267D01*
X19820Y177600D01*
X19710Y178067D01*
X19875Y178533D01*
X20260Y178867D01*
X20700Y179000D01*
X21140Y178867D01*
X21525Y178533D01*
X21690Y178067D01*
X21580Y177600D01*
X21305Y177267D01*
X20975Y177133D01*
X20425D01*
X19930Y176933D01*
X19600Y176533D01*
X19490Y176067D01*
X19600Y175600D01*
X19875Y175267D01*
X20315Y175067D01*
X20700Y175000D01*
G01X12000Y180000D02*
Y185000D01*
X11200Y184000D01*
G01Y180000D02*
X12800D01*
G01X10733Y196667D02*
X11133Y197167D01*
X11600Y197417D01*
X12133Y197500D01*
X12800Y197333D01*
X13267Y196917D01*
X13400Y196417D01*
X13333Y195917D01*
X13067Y195500D01*
X11733Y194667D01*
X11133Y194083D01*
X10733Y193250D01*
X10600Y192500D01*
X13400D01*
G01X25770Y20789D02*
X27930D01*
X29530D01*
X31689D01*
G02X32280Y20199I1J-590D01*
G01Y17880D01*
G02X31689Y17289I-591J0D01*
G01X25770D01*
G02X25180Y17880I1J591D01*
G01Y20199D01*
G02X25770Y20789I590J0D01*
G01X25180Y16789D02*
X32280D01*
Y13289D01*
X25180D01*
Y16739D01*
G01X25182Y67643D02*
Y51107D01*
X26450D01*
G01X22480Y67030D02*
Y69030D01*
G01X23480Y68030D02*
X21480D01*
G01X26450Y67643D02*
X25182D01*
G01X32750Y82143D02*
Y79984D01*
Y78384D01*
Y76225D01*
G02X32159Y75634I-591J0D01*
G01X29841D01*
G02X29250Y76225I0J591D01*
G01Y82143D01*
G02X29841Y82734I591J0D01*
G01X32159D01*
G02X32750Y82143I0J-591D01*
G01X22492Y89102D02*
X26428D01*
G01X22492Y99902D02*
X26428D01*
G01Y98944D02*
X22492D01*
G01X26428Y109744D02*
X22492D01*
G01X31210Y113750D02*
X24110D01*
Y117250D01*
X31210D01*
Y113800D01*
G01X30619Y118050D02*
X28460D01*
X26860D01*
X24701D01*
G02X24110Y118641I0J591D01*
G01Y120959D01*
G02X24701Y121550I591J0D01*
G01X30619D01*
G02X31210Y120959I0J-591D01*
G01Y118641D01*
G02X30619Y118050I-591J0D01*
G01X24403Y126929D02*
Y126535D01*
G01X28536Y122795D02*
X30112D01*
G01Y130669D02*
X28536D01*
G01X28950Y152505D02*
X21850D01*
Y156005D01*
X28950D01*
Y152555D01*
G01Y148050D02*
X21850D01*
Y151550D01*
X28950D01*
Y148100D01*
G01Y156984D02*
X21850D01*
Y160484D01*
X28950D01*
Y157034D01*
G01X36389Y19989D02*
Y17830D01*
Y16230D01*
Y14070D01*
G02X35799Y13480I-590J0D01*
G01X33480D01*
G02X32889Y14070I0J591D01*
G01Y19989D01*
G02X33480Y20580I591J0D01*
G01X35799D01*
G02X36389Y19989I0J-590D01*
G01X45980Y21643D02*
Y12417D01*
G02X45193Y11630I-787J0D01*
G01X41767D01*
G02X40980Y12417I0J787D01*
G01Y21643D01*
G02X41767Y22430I787J0D01*
G01X45193D01*
G02X45980Y21643I0J-787D01*
G01X40389Y20580D02*
Y13480D01*
X36889D01*
Y20580D01*
X40339D01*
G01X54710Y67611D02*
Y50111D01*
X43710D01*
Y67611D01*
X54710D01*
G01X40450Y51107D02*
X41717D01*
Y67643D01*
X40450D01*
G01X37904Y79709D02*
X36298D01*
G01X33967D02*
Y82859D01*
X35542D01*
G01X40267Y79709D02*
Y82859D01*
X38692D01*
G01X41472Y75634D02*
Y82734D01*
X44972D01*
Y75634D01*
X41522D01*
G01X33567Y76873D02*
X40667D01*
Y73373D01*
X33567D01*
Y76823D01*
G01X36296Y87384D02*
X34131D01*
Y89549D01*
G01X39309Y113750D02*
X32209D01*
Y117250D01*
X39309D01*
Y113800D01*
G01X34131Y109235D02*
Y111400D01*
X36296D01*
G01X35409Y123773D02*
Y125932D01*
Y127532D01*
X35410Y129692D01*
G02X35999Y130282I590J0D01*
G01X38318D01*
G02X38908Y129692I0J-590D01*
G01X38909Y123773D01*
G02X38318Y123182I-591J0D01*
G01X35999D01*
G02X35409Y123773I0J590D01*
G01X39309Y118050D02*
X32209D01*
Y121550D01*
X39309D01*
Y118100D01*
G01X34245Y126535D02*
Y126929D01*
G01X46974Y139381D02*
Y132281D01*
X43474D01*
Y139381D01*
X46924D01*
G01X36607Y169744D02*
X44087D01*
Y175256D01*
X36607D01*
Y169744D01*
G01X55441Y18221D02*
Y20380D01*
Y21980D01*
Y24140D01*
G02X56031Y24730I590J0D01*
G01X58350D01*
G02X58941Y24140I0J-591D01*
G01Y18221D01*
G02X58350Y17630I-591J0D01*
G01X56031D01*
G02X55441Y18221I0J590D01*
G01Y36521D02*
Y38680D01*
Y40280D01*
Y42440D01*
G02X56031Y43030I590J0D01*
G01X58350D01*
G02X58941Y42440I0J-591D01*
G01Y36521D01*
G02X58350Y35930I-591J0D01*
G01X56031D01*
G02X55441Y36521I0J590D01*
G01Y54821D02*
Y56980D01*
Y58580D01*
Y60740D01*
G02X56031Y61330I590J0D01*
G01X58350D01*
G02X58941Y60740I0J-591D01*
G01Y54821D01*
G02X58350Y54230I-591J0D01*
G01X56031D01*
G02X55441Y54821I0J590D01*
G01X49210Y70861D02*
Y68861D01*
G01X48210Y69861D02*
X50210D01*
G01X57850Y82734D02*
Y75634D01*
X54350D01*
Y82734D01*
X57800D01*
G01X53650D02*
Y75634D01*
X50150D01*
Y82734D01*
X53600D01*
G01X45650Y75634D02*
Y82734D01*
X49150D01*
Y75634D01*
X45700D01*
G01X56789Y118300D02*
Y121300D01*
G03X56289Y121800I-500J0D01*
G01X55289D01*
G03X54789Y121300I0J-500D01*
G01Y118300D01*
G03X55289Y117800I500J0D01*
G01X56289D01*
G03X56789Y118300I0J500D01*
G01X54189D02*
Y121300D01*
G03X53689Y121800I-500J0D01*
G01X52689D01*
G03X52189Y121300I0J-500D01*
G01Y118300D01*
G03X52689Y117800I500J0D01*
G01X53689D01*
G03X54189Y118300I0J500D01*
G01X51589D02*
Y121300D01*
G03X51089Y121800I-500J0D01*
G01X50089D01*
G03X49589Y121300I0J-500D01*
G01Y118300D01*
G03X50089Y117800I500J0D01*
G01X51089D01*
G03X51589Y118300I0J500D01*
G01X48989D02*
Y121300D01*
G03X48489Y121800I-500J0D01*
G01X47489D01*
G03X46989Y121300I0J-500D01*
G01Y118300D01*
G03X47489Y117800I500J0D01*
G01X48489D01*
G03X48989Y118300I0J500D01*
G01X48387Y135231D02*
X57613D01*
G02X58400Y134444I0J-787D01*
G01Y131018D01*
G02X57613Y130231I-787J0D01*
G01X48387D01*
G02X47600Y131018I0J787D01*
G01Y134444D01*
G02X48387Y135231I787J0D01*
G01X47714Y139374D02*
X54814D01*
Y135874D01*
X47714D01*
Y139324D01*
G01X59250Y143014D02*
Y135914D01*
X55750D01*
Y143014D01*
X59200D01*
G01X45396Y174250D02*
X47555D01*
X49155D01*
X51314D01*
G02X51905Y173659I0J-591D01*
G01Y171341D01*
G02X51314Y170750I-591J0D01*
G01X45396D01*
G02X44805Y171341I0J591D01*
G01Y173659D01*
G02X45396Y174250I591J0D01*
G01X52623Y169744D02*
X60103D01*
Y175256D01*
X52623D01*
Y169744D01*
G01X59941Y18221D02*
Y20380D01*
Y21980D01*
Y24140D01*
G02X60531Y24730I590J0D01*
G01X62850D01*
G02X63441Y24140I0J-591D01*
G01Y18221D01*
G02X62850Y17630I-591J0D01*
G01X60531D01*
G02X59941Y18221I0J590D01*
G01X65735Y13204D02*
X77546D01*
G01X62950Y13021D02*
X55850D01*
Y16521D01*
X62950D01*
Y13071D01*
G01X62359Y25650D02*
X60200D01*
X58600D01*
X56440D01*
G02X55850Y26240I0J590D01*
G01Y28559D01*
G02X56440Y29150I591J0D01*
G01X62359D01*
G02X62950Y28559I0J-591D01*
G01Y26240D01*
G02X62359Y25650I-590J0D01*
G01X65735Y31504D02*
X77546D01*
G01Y25016D02*
X65735D01*
G01X62950Y31321D02*
X55850D01*
Y34821D01*
X62950D01*
Y31371D01*
G01X64280Y29150D02*
X71380D01*
Y25650D01*
X64280D01*
Y29100D01*
G01X59941Y36521D02*
Y38680D01*
Y40280D01*
Y42440D01*
G02X60531Y43030I590J0D01*
G01X62850D01*
G02X63441Y42440I0J-591D01*
G01Y36521D01*
G02X62850Y35930I-591J0D01*
G01X60531D01*
G02X59941Y36521I0J590D01*
G01X62359Y43950D02*
X60200D01*
X58600D01*
X56440D01*
G02X55850Y44540I0J590D01*
G01Y46859D01*
G02X56440Y47450I591J0D01*
G01X62359D01*
G02X62950Y46859I0J-591D01*
G01Y44540D01*
G02X62359Y43950I-590J0D01*
G01X77546Y43316D02*
X65735D01*
G01X64280Y47450D02*
X71380D01*
Y43950D01*
X64280D01*
Y47400D01*
G01X59941Y54821D02*
Y56980D01*
Y58580D01*
Y60740D01*
G02X60531Y61330I590J0D01*
G01X62850D01*
G02X63441Y60740I0J-591D01*
G01Y54821D01*
G02X62850Y54230I-591J0D01*
G01X60531D01*
G02X59941Y54821I0J590D01*
G01X65735Y49804D02*
X77546D01*
G01X62950Y49621D02*
X55850D01*
Y53121D01*
X62950D01*
Y49671D01*
G01X62359Y62250D02*
X60200D01*
X58600D01*
X56440D01*
G02X55850Y62840I0J590D01*
G01Y65159D01*
G02X56440Y65750I591J0D01*
G01X62359D01*
G02X62950Y65159I0J-591D01*
G01Y62840D01*
G02X62359Y62250I-590J0D01*
G01X77546Y61616D02*
X65735D01*
G01X65822Y85868D02*
Y83709D01*
Y82109D01*
Y79950D01*
G02X65231Y79359I-591J0D01*
G01X62913D01*
G02X62322Y79950I0J591D01*
G01Y85868D01*
G02X62913Y86459I591J0D01*
G01X65231D01*
G02X65822Y85868I0J-591D01*
G01X71685Y85622D02*
Y76396D01*
G02X70898Y75609I-787J0D01*
G01X67472D01*
G02X66685Y76396I0J787D01*
G01Y85622D01*
G02X67472Y86409I787J0D01*
G01X70898D01*
G02X71685Y85622I0J-787D01*
G01X58147Y89549D02*
Y87384D01*
X55982D01*
G01X71384Y98392D02*
Y87392D01*
X61384D01*
Y103392D01*
X71384D01*
Y98392D01*
G01X64934Y111134D02*
Y104034D01*
X61434D01*
Y111134D01*
X64884D01*
G01X65384Y94892D02*
G03X64384Y95892I-1000J0D01*
G03X63384Y94892I0J-1000D01*
G01X67384D02*
G03X66384Y95892I-1000J0D01*
G03X65384Y94892I0J-1000D01*
G01X69384D02*
G03X68384Y95892I-1000J0D01*
G03X67384Y94892I0J-1000D01*
G01X65734Y109275D02*
Y106125D01*
X67309D01*
G01X72434Y112053D02*
X65334D01*
Y115553D01*
X72434D01*
Y112103D01*
G01X55982Y111400D02*
X58147D01*
Y109235D01*
G01X65193Y136174D02*
X67352D01*
X68952D01*
X71111D01*
G02X71702Y135583I0J-591D01*
G01Y133265D01*
G02X71111Y132674I-591J0D01*
G01X65193D01*
G02X64602Y133265I0J591D01*
G01Y135583D01*
G02X65193Y136174I591J0D01*
G01X63450Y143014D02*
Y135914D01*
X59950D01*
Y143014D01*
X63400D01*
G01X56793Y147380D02*
X58952D01*
X60552D01*
X62712D01*
G02X63302Y146790I-1J-591D01*
G01Y144471D01*
G02X62712Y143880I-591J0D01*
G01X56793D01*
G02X56202Y144471I0J591D01*
G01Y146790D01*
G02X56793Y147380I591J-1D01*
G01X56792Y155860D02*
X58952D01*
X60552D01*
X62711D01*
G02X63302Y155269I0J-591D01*
G01Y152951D01*
G02X62711Y152360I-591J0D01*
G01X56792D01*
G02X56202Y152951I0J590D01*
G01Y155269D01*
G02X56792Y155860I590J1D01*
G01X71162Y149357D02*
X64062D01*
Y152857D01*
X71162D01*
Y149407D01*
G01X63302Y148050D02*
X56202D01*
Y151550D01*
X63302D01*
Y148100D01*
G01X64215Y142981D02*
Y141405D01*
G01X56792Y160005D02*
X58952D01*
X60552D01*
X62711D01*
G02X63302Y159414I0J-591D01*
G01Y157096D01*
G02X62711Y156505I-591J0D01*
G01X56792D01*
G02X56202Y157096I0J590D01*
G01Y159414D01*
G02X56792Y160005I590J1D01*
G01X69187Y153732D02*
X66037D01*
Y155307D01*
G01X69187Y160032D02*
X66037D01*
Y158457D01*
G01X63302Y160698D02*
X56202D01*
Y164198D01*
X63302D01*
Y160748D01*
G01X71162Y160698D02*
X64062D01*
Y164198D01*
X71162D01*
Y160748D01*
G01X61412Y174250D02*
X63571D01*
X65171D01*
X67330D01*
G02X67921Y173659I0J-591D01*
G01Y171341D01*
G02X67330Y170750I-591J0D01*
G01X61412D01*
G02X60821Y171341I0J591D01*
G01Y173659D01*
G02X61412Y174250I591J0D01*
G01X92491Y38410D02*
Y31410D01*
X79491D01*
Y38410D01*
X92491D01*
G01X79910Y25650D02*
X72810D01*
Y29150D01*
X79910D01*
Y25700D01*
G01X79590Y43950D02*
X72490D01*
Y47450D01*
X79590D01*
Y44000D01*
G01X92491Y56710D02*
Y49710D01*
X79491D01*
Y56710D01*
X92491D01*
G01X79590Y62250D02*
X72490D01*
Y65750D01*
X79590D01*
Y62300D01*
G01X68134Y116688D02*
Y118847D01*
Y120447D01*
Y122607D01*
G02X68725Y123197I590J0D01*
G01X71044D01*
G02X71634Y122607I0J-590D01*
G01Y116688D01*
G02X71044Y116097I-591J0D01*
G01X68725D01*
G02X68134Y116688I0J591D01*
G01X75345Y114060D02*
X77345D01*
Y110060D01*
X75345D01*
Y114060D01*
G01X77945D02*
X79945D01*
Y110060D01*
X77945D01*
Y114060D01*
G01X68097Y109275D02*
X69703D01*
G01X72034D02*
Y106125D01*
X70459D01*
G01X67955Y137272D02*
X68349D01*
G01Y147114D02*
X67955D01*
G01X72089Y141405D02*
Y142981D01*
G01X69187Y157669D02*
Y156063D01*
G01X77428Y174250D02*
X79587D01*
X81187D01*
X83346D01*
G02X83937Y173659I0J-591D01*
G01Y171341D01*
G02X83346Y170750I-591J0D01*
G01X77428D01*
G02X76837Y171341I0J591D01*
G01Y173659D01*
G02X77428Y174250I591J0D01*
G01X68639Y169744D02*
X76119D01*
Y175256D01*
X68639D01*
Y169744D01*
G01X93181Y20110D02*
Y13110D01*
X80181D01*
Y20110D01*
X93181D01*
G01X80941Y22680D02*
Y24840D01*
Y26440D01*
Y28599D01*
G02X81531Y29190I590J1D01*
G01X83850D01*
G02X84441Y28599I0J-591D01*
G01Y22680D01*
G02X83850Y22090I-591J1D01*
G01X81531D01*
G02X80941Y22680I0J590D01*
G01X85441Y22090D02*
Y29190D01*
X88941D01*
Y22090D01*
X85491D01*
G01X80941Y40980D02*
Y43140D01*
Y44740D01*
Y46899D01*
G02X81531Y47490I590J1D01*
G01X83850D01*
G02X84441Y46899I0J-591D01*
G01Y40980D01*
G02X83850Y40390I-591J1D01*
G01X81531D01*
G02X80941Y40980I0J590D01*
G01X85470Y40390D02*
Y47490D01*
X88970D01*
Y40390D01*
X85520D01*
G01X80941Y59280D02*
Y61440D01*
Y63040D01*
Y65199D01*
G02X81531Y65790I590J1D01*
G01X83850D01*
G02X84441Y65199I0J-591D01*
G01Y59280D01*
G02X83850Y58690I-591J1D01*
G01X81531D01*
G02X80941Y59280I0J590D01*
G01X85470Y58690D02*
Y65790D01*
X88970D01*
Y58690D01*
X85520D01*
G01X93509Y83244D02*
X81501D01*
Y90724D01*
X94099D01*
Y83244D01*
X93509D01*
G01Y91652D02*
X81501D01*
Y99132D01*
X94099D01*
Y91652D01*
X93509D01*
G01Y99876D02*
X81501D01*
Y107356D01*
X94099D01*
Y99876D01*
X93509D01*
G01X93313Y108584D02*
X84087D01*
G02X83300Y109371I0J787D01*
G01Y112797D01*
G02X84087Y113584I787J0D01*
G01X93313D01*
G02X94100Y112797I0J-787D01*
G01Y109371D01*
G02X93313Y108584I-787J0D01*
G01X87022Y114397D02*
Y121497D01*
X90522D01*
Y114397D01*
X87072D01*
G01X94717Y121497D02*
Y114397D01*
X91217D01*
Y121497D01*
X94667D01*
G01X81100Y150100D02*
Y153100D01*
G01X87100Y146000D02*
X81100D01*
G01Y157200D02*
X87100D01*
G01X84655Y169744D02*
X92135D01*
Y175256D01*
X84655D01*
Y169744D01*
G01X165577Y16219D02*
X103097D01*
G01D02*
Y60983D01*
G01X106418Y16275D02*
X103109Y19056D01*
G01X105790Y16275D02*
X103091Y18545D01*
G01X105115Y16284D02*
X103100Y17962D01*
G01X104441Y16257D02*
X103128Y17342D01*
G01X103748Y16303D02*
X103109Y16850D01*
G01X99160Y23283D02*
Y14057D01*
G02X98373Y13270I-787J0D01*
G01X94947D01*
G02X94160Y14057I0J787D01*
G01Y23283D01*
G02X94947Y24070I787J0D01*
G01X98373D01*
G02X99160Y23283I0J-787D01*
G01X98520Y34500D02*
Y27400D01*
X95020D01*
Y34500D01*
X98470D01*
G01X94190Y53097D02*
Y62323D01*
G02X94977Y63110I787J0D01*
G01X98403D01*
G02X99190Y62323I0J-787D01*
G01Y53097D01*
G02X98403Y52310I-787J0D01*
G01X94977D01*
G02X94190Y53097I0J787D01*
G01X103097Y60983D02*
X165577D01*
G01X178071Y82729D02*
X98267D01*
G01D02*
Y162533D01*
G01X100767Y85229D02*
X175571D01*
G01X100767Y160033D02*
Y85229D01*
G01X98267Y162533D02*
X178071D01*
G01X175571Y160033D02*
X100767D01*
G01X93444Y174250D02*
X95603D01*
X97203D01*
X99362D01*
G02X99953Y173659I0J-591D01*
G01Y171341D01*
G02X99362Y170750I-591J0D01*
G01X93444D01*
G02X92853Y171341I0J591D01*
G01Y173659D01*
G02X93444Y174250I591J0D01*
G01X163077Y18719D02*
X105597D01*
G01D02*
Y58483D01*
G01D02*
X163077D01*
G01X165577Y60983D02*
Y16219D01*
G01X163077Y58483D02*
Y18719D01*
G01X167997Y26000D02*
X177223D01*
G02X178010Y25213I0J-787D01*
G01Y21787D01*
G02X177223Y21000I-787J0D01*
G01X167997D01*
G02X167210Y21787I0J787D01*
G01Y25213D01*
G02X167997Y26000I787J0D01*
G01Y20460D02*
X177223D01*
G02X178010Y19673I0J-787D01*
G01Y16247D01*
G02X177223Y15460I-787J0D01*
G01X167997D01*
G02X167210Y16247I0J787D01*
G01Y19673D01*
G02X167997Y20460I787J0D01*
G01X167901Y39790D02*
X179909D01*
Y32310D01*
X167311D01*
Y39790D01*
X167901D01*
G01X167997Y31640D02*
X177223D01*
G02X178010Y30853I0J-787D01*
G01Y27427D01*
G02X177223Y26640I-787J0D01*
G01X167997D01*
G02X167210Y27427I0J787D01*
G01Y30853D01*
G02X167997Y31640I787J0D01*
G01X186559Y16755D02*
X180640D01*
G02X180050Y17346I1J591D01*
G01Y19665D01*
G02X180640Y20255I590J0D01*
G01X186559D01*
G02X187150Y19665I0J-591D01*
G01Y17346D01*
G02X186559Y16755I-591J0D01*
G01X188613Y21000D02*
X179387D01*
G02X178600Y21787I0J787D01*
G01Y25213D01*
G02X179387Y26000I787J0D01*
G01X188613D01*
G02X189400Y25213I0J-787D01*
G01Y21787D01*
G02X188613Y21000I-787J0D01*
G01X180900Y33390D02*
X188000D01*
Y29890D01*
X180900D01*
Y33340D01*
G01X188287Y47531D02*
X185787D01*
X186287Y47211D01*
G01X188287D02*
Y47851D01*
G01X178071Y162533D02*
Y82729D01*
G01X175571Y85229D02*
Y160033D01*
G01X188287Y88431D02*
X185787D01*
X186287Y88111D01*
G01X188287D02*
Y88751D01*
G01Y90951D02*
X185787D01*
X187579Y89964D01*
Y91298D01*
G01X186464Y125930D02*
X188464D01*
Y121930D01*
X186464D01*
Y125930D01*
G01X183822D02*
X185822D01*
Y121930D01*
X183822D01*
Y125930D01*
G01X199459Y16755D02*
X197300D01*
X195700D01*
X193541D01*
G02X192950Y17346I0J591D01*
G01Y19664D01*
G02X193541Y20255I591J0D01*
G01X199459D01*
G02X200050Y19664I0J-591D01*
G01Y17346D01*
G02X199459Y16755I-591J0D01*
G01X190594Y31650D02*
X202406D01*
Y25350D01*
X190594D01*
Y31650D01*
G01X199629Y36400D02*
X197470D01*
X195870D01*
X193711D01*
G02X193120Y36991I0J591D01*
G01Y39309D01*
G02X193711Y39900I591J0D01*
G01X199629D01*
G02X200220Y39309I0J-591D01*
G01Y36991D01*
G02X199629Y36400I-591J0D01*
G01X193231Y44973D02*
X190731Y45640D01*
X193231Y46307D01*
G01X192356Y46067D02*
Y45213D01*
G01X205420Y109810D02*
X198320D01*
Y113310D01*
X205420D01*
Y109860D01*
G01X190313Y169598D02*
X197793D01*
Y175110D01*
X190313D01*
Y169598D01*
G01X209828Y20820D02*
Y13720D01*
X206328D01*
Y20820D01*
X209778D01*
G01X205751D02*
Y13720D01*
X202251D01*
Y20820D01*
X205701D01*
G01X215607Y23130D02*
X203599D01*
Y30610D01*
X216197D01*
Y23130D01*
X215607D01*
G01Y31430D02*
X203599D01*
Y38910D01*
X216197D01*
Y31430D01*
X215607D01*
G01X215601Y39820D02*
X213442D01*
X211842D01*
X209683D01*
G02X209092Y40411I0J591D01*
G01Y42729D01*
G02X209683Y43320I591J0D01*
G01X215601D01*
G02X216192Y42729I0J-591D01*
G01Y40411D01*
G02X215601Y39820I-591J0D01*
G01X207939Y120840D02*
Y117740D01*
G01X202096Y175313D02*
Y173154D01*
Y171554D01*
Y169395D01*
G02X201505Y168804I-591J0D01*
G01X199187D01*
G02X198596Y169395I0J591D01*
G01Y175313D01*
G02X199187Y175904I591J0D01*
G01X201505D01*
G02X202096Y175313I0J-591D01*
G01X202913Y169598D02*
X210393D01*
Y175110D01*
X202913D01*
Y169598D01*
G01X214482Y14311D02*
Y16470D01*
Y18070D01*
Y20229D01*
G02X215073Y20820I591J0D01*
G01X217391D01*
G02X217982Y20229I0J-591D01*
G01Y14311D01*
G02X217391Y13720I-591J0D01*
G01X215073D01*
G02X214482Y14311I0J591D01*
G01X210405Y13720D02*
Y20820D01*
X213905D01*
Y13720D01*
X210455D01*
G01X219240Y112121D02*
Y114280D01*
Y115880D01*
Y118039D01*
G02X219831Y118630I591J0D01*
G01X222149D01*
G02X222740Y118039I0J-591D01*
G01Y112121D01*
G02X222149Y111530I-591J0D01*
G01X219831D01*
G02X219240Y112121I0J591D01*
G01X211660Y112941D02*
X213960D01*
G01X222740Y126199D02*
Y124040D01*
Y122440D01*
Y120281D01*
G02X222149Y119690I-591J0D01*
G01X219831D01*
G02X219240Y120281I0J591D01*
G01Y126199D01*
G02X219831Y126790I591J0D01*
G01X222149D01*
G02X222740Y126199I0J-591D01*
G01X211760Y125539D02*
X213860Y125540D01*
G01X217781Y117740D02*
Y120840D01*
G01X214703Y175206D02*
Y173047D01*
Y171447D01*
Y169288D01*
G02X214112Y168697I-591J0D01*
G01X211794D01*
G02X211203Y169288I0J591D01*
G01Y175206D01*
G02X211794Y175797I591J0D01*
G01X214112D01*
G02X214703Y175206I0J-591D01*
G01X221400Y174500D02*
Y171500D01*
G03X221900Y171000I500J0D01*
G01X222900D01*
G03X223400Y171500I0J500D01*
G01Y174500D01*
G03X222900Y175000I-500J0D01*
G01X221900D01*
G03X221400Y174500I0J-500D01*
G01X232750Y114850D02*
X225650D01*
Y118350D01*
X232750D01*
Y114900D01*
G01X226241Y126850D02*
X228400D01*
X230000D01*
X232159D01*
G02X232750Y126259I0J-591D01*
G01Y123941D01*
G02X232159Y123350I-591J0D01*
G01X226241D01*
G02X225650Y123941I0J591D01*
G01Y126259D01*
G02X226241Y126850I591J0D01*
G01Y122540D02*
X228400D01*
X230000D01*
X232159D01*
G02X232750Y121949I0J-591D01*
G01Y119631D01*
G02X232159Y119040I-591J0D01*
G01X226241D01*
G02X225650Y119631I0J591D01*
G01Y121949D01*
G02X226241Y122540I591J0D01*
G01X234053Y122459D02*
Y120883D01*
G01X231820Y173097D02*
X233820D01*
Y169097D01*
X231820D01*
Y173097D01*
G01X229160D02*
X231160D01*
Y169097D01*
X229160D01*
Y173097D01*
G01X227770Y177600D02*
X234870D01*
Y174100D01*
X227770D01*
Y177550D01*
G01X224000Y174500D02*
Y171500D01*
G03X224500Y171000I500J0D01*
G01X225500D01*
G03X226000Y171500I0J500D01*
G01Y174500D01*
G03X225500Y175000I-500J0D01*
G01X224500D01*
G03X224000Y174500I0J-500D01*
G01X248300Y-6500D02*
Y-1500D01*
X245833Y-5083D01*
X249167D01*
G01X251033Y-5750D02*
X251433Y-6167D01*
X251900Y-6417D01*
X252500Y-6500D01*
X253100Y-6333D01*
X253567Y-6000D01*
X253900Y-5417D01*
X253967Y-4750D01*
X253833Y-4083D01*
X253500Y-3667D01*
X253033Y-3333D01*
X252567Y-3250D01*
X252100Y-3333D01*
X251500Y-3667D01*
X251700Y-1500D01*
X253500D01*
G01X248300Y0D02*
Y5000D01*
X245833Y1417D01*
X249167D01*
G01X251233Y2083D02*
X251700Y2667D01*
X252100Y3000D01*
X252633Y3167D01*
X253100Y3000D01*
X253433Y2667D01*
X253700Y2167D01*
X253767Y1583D01*
X253700Y1083D01*
X253433Y583D01*
X253033Y167D01*
X252567Y0D01*
X252033Y167D01*
X251567Y667D01*
X251300Y1417D01*
X251233Y2250D01*
X251367Y3333D01*
X251567Y3917D01*
X251900Y4500D01*
X252367Y4917D01*
X252833Y5000D01*
X253300Y4833D01*
X253633Y4417D01*
G01X255800Y32270D02*
X246574D01*
G02X245787Y33057I0J787D01*
G01Y36483D01*
G02X246574Y37270I787J0D01*
G01X255800D01*
G02X256587Y36483I0J-787D01*
G01Y33057D01*
G02X255800Y32270I-787J0D01*
G01X239966Y45047D02*
X237466D01*
Y45687D01*
X237591Y45900D01*
X237883Y46060D01*
X238216Y46113D01*
X238549Y46060D01*
X238799Y45927D01*
X238924Y45687D01*
Y45047D01*
G01X235030Y115491D02*
X237190D01*
X238790D01*
X240949D01*
G02X241540Y114900I0J-591D01*
G01Y112581D01*
G02X240949Y111991I-591J1D01*
G01X235030D01*
G02X234440Y112581I0J590D01*
G01Y114900D01*
G02X235030Y115491I590J1D01*
G01X237793Y116750D02*
X238187D01*
G01X243326Y119760D02*
Y126860D01*
X246826D01*
Y119760D01*
X243376D01*
G01X241927Y120883D02*
Y122459D01*
G01X238187Y126592D02*
X237793D01*
G01X247550Y175150D02*
Y168050D01*
X244050D01*
Y175150D01*
X247500D01*
G01X243450D02*
Y168050D01*
X239950D01*
Y175150D01*
X243400D01*
G01X235850Y168050D02*
Y175150D01*
X239350D01*
Y168050D01*
X235900D01*
G01X248300Y185000D02*
Y190000D01*
X245833Y186417D01*
X249167D01*
G01X251033Y185750D02*
X251433Y185333D01*
X251900Y185083D01*
X252500Y185000D01*
X253100Y185167D01*
X253567Y185500D01*
X253900Y186083D01*
X253967Y186750D01*
X253833Y187417D01*
X253500Y187833D01*
X253033Y188167D01*
X252567Y188250D01*
X252100Y188167D01*
X251500Y187833D01*
X251700Y190000D01*
X253500D01*
G01X248300Y191500D02*
Y196500D01*
X245833Y192917D01*
X249167D01*
G01X251233Y193583D02*
X251700Y194167D01*
X252100Y194500D01*
X252633Y194667D01*
X253100Y194500D01*
X253433Y194167D01*
X253700Y193667D01*
X253767Y193083D01*
X253700Y192583D01*
X253433Y192083D01*
X253033Y191667D01*
X252567Y191500D01*
X252033Y191667D01*
X251567Y192167D01*
X251300Y192917D01*
X251233Y193750D01*
X251367Y194833D01*
X251567Y195417D01*
X251900Y196000D01*
X252367Y196417D01*
X252833Y196500D01*
X253300Y196333D01*
X253633Y195917D01*
G01X254659Y37832D02*
X252500D01*
X250900D01*
X248741D01*
G02X248150Y38423I0J591D01*
G01Y40741D01*
G02X248741Y41332I591J0D01*
G01X254659D01*
G02X255250Y40741I0J-591D01*
G01Y38423D01*
G02X254659Y37832I-591J0D01*
G01X248150Y45450D02*
X255250D01*
Y41950D01*
X248150D01*
Y45400D01*
G01Y49450D02*
X255250D01*
Y45950D01*
X248150D01*
Y49400D01*
G01X251450Y50450D02*
Y57550D01*
X254950D01*
Y50450D01*
X251500D01*
G01X257626Y104616D02*
Y101466D01*
X259201D01*
G01X252584Y116237D02*
X249434D01*
Y117812D01*
G01X260684Y116237D02*
X257534D01*
Y117812D01*
G01X264326Y107372D02*
X257226D01*
Y110872D01*
X264326D01*
Y107422D01*
G01X255559Y115509D02*
X262659D01*
Y112009D01*
X255559D01*
Y115459D01*
G01X247459Y115509D02*
X254559D01*
Y112009D01*
X247459D01*
Y115459D01*
G01X252584Y120174D02*
Y118568D01*
G01Y122537D02*
X249434D01*
Y120962D01*
G01X260684Y122537D02*
X257534D01*
Y120962D01*
G01X254559Y123337D02*
X247459D01*
Y126837D01*
X254559D01*
Y123387D01*
G01X262659Y123337D02*
X255559D01*
Y126837D01*
X262659D01*
Y123387D01*
G01X268038Y26247D02*
X277264D01*
G02X278051Y25460I0J-787D01*
G01Y22034D01*
G02X277264Y21247I-787J0D01*
G01X268038D01*
G02X267251Y22034I0J787D01*
G01Y25460D01*
G02X268038Y26247I787J0D01*
G01X260380Y29599D02*
Y36939D01*
G01Y29599D02*
X266380D01*
G01X260380Y90165D02*
Y82625D01*
G01X260000Y98108D02*
X269226D01*
G02X270013Y97321I0J-787D01*
G01Y93895D01*
G02X269226Y93108I-787J0D01*
G01X260000D01*
G02X259213Y93895I0J787D01*
G01Y97321D01*
G02X260000Y98108I787J0D01*
G01X266380Y90165D02*
X260380D01*
G01X267653Y104616D02*
X269259D01*
G01X265290D02*
Y101466D01*
X266865D01*
G01X259989Y104616D02*
X261595D01*
G01X263926D02*
Y101466D01*
X262351D01*
G01X271990Y107372D02*
X264890D01*
Y110872D01*
X271990D01*
Y107422D01*
G01X271400Y126269D02*
Y124110D01*
Y122510D01*
Y120351D01*
G02X270809Y119760I-591J0D01*
G01X268491D01*
G02X267900Y120351I0J591D01*
G01Y126269D01*
G02X268491Y126860I591J0D01*
G01X270809D01*
G02X271400Y126269I0J-591D01*
G01X260684Y120174D02*
Y118568D01*
G01X263744Y119760D02*
Y126860D01*
X267244D01*
Y119760D01*
X263794D01*
G01X276380Y29599D02*
X281049D01*
Y90165D01*
X276880D01*
G01X271590Y104616D02*
Y101466D01*
X270015D01*
G01X276220Y108450D02*
Y101350D01*
X272720D01*
Y108450D01*
X276170D01*
G01X280250D02*
Y101350D01*
X276750D01*
Y108450D01*
X280200D01*
G01X277170Y126123D02*
Y116897D01*
G02X276383Y116110I-787J0D01*
G01X272957D01*
G02X272170Y116897I0J787D01*
G01Y126123D01*
G02X272957Y126910I787J0D01*
G01X276383D01*
G02X277170Y126123I0J-787D01*
G54D13*
G01X25471Y26500D02*
Y24471D01*
X27650D01*
G01X27550Y44729D02*
X25471D01*
Y42700D01*
G01X43550Y24471D02*
X45729D01*
Y26350D01*
G01Y44729D02*
X43650D01*
G01X32271Y144655D02*
Y142626D01*
X34450D01*
G01X34350Y162884D02*
X32271D01*
Y160855D01*
G01X45729Y42400D02*
Y44729D01*
G01X50350Y142626D02*
X52529D01*
Y144505D01*
G01Y160555D02*
Y162884D01*
G01D02*
X50450D01*
G01X72663Y120014D02*
Y119280D01*
G01X86261D02*
Y120014D01*
G01X184972Y166987D02*
Y127987D01*
X273972D01*
Y166987D01*
X184972D01*
G01X192972Y167487D02*
X193972Y168487D01*
X191972D01*
X192972Y167487D01*
G54D14*
G01X229736Y116412D02*
G02Y117261I-424J425D01*
G01Y115812D02*
G02Y116661I-424J425D01*
G54D15*
G01X-28833Y74020D02*
Y43706D01*
X-57967D01*
Y74020D01*
X-28833D01*
G01X-55483Y54000D02*
X-57967D01*
G01Y49946D02*
X-55483D01*
G01D02*
Y54000D01*
G01X-57967Y63726D02*
X-55483D01*
Y67780D01*
X-57967D01*
G01X191701Y115337D02*
Y114187D01*
G01D02*
X203118D01*
G01X191701Y125635D02*
Y126785D01*
G01X204299D02*
X191701D01*
G01X204299Y115337D02*
X203118Y114187D01*
G01X204299Y125635D02*
Y126785D01*
G54D16*
G01X206204Y114640D02*
G03I-493J0D01*
M02*
