G04 ================== begin FILE IDENTIFICATION RECORD ==================*
G04 Layout Name:  BEAGLEV FIRE_REV A_230911.brd*
G04 Film Name:    SILK_BOT*
G04 File Format:  Gerber RS274X*
G04 File Origin:  Cadence Allegro 17.4-S031*
G04 Origin Date:  Tue Sep 26 15:21:01 2023*
G04 *
G04 Layer:  PACKAGE GEOMETRY/SILKSCREEN_BOTTOM*
G04 Layer:  BOARD GEOMETRY/OUTLINE*
G04 Layer:  BOARD GEOMETRY/SILKSCREEN_BOTTOM*
G04 *
G04 Offset:    (0.00 0.00)*
G04 Mirror:    No*
G04 Mode:      Positive*
G04 Rotation:  0*
G04 FullContactRelief:  No*
G04 UndefLineWidth:     5.00*
G04 ================== end FILE IDENTIFICATION RECORD ====================*
%FSLAX25Y25*MOIN*%
%IR0*IPPOS*OFA0.00000B0.00000*MIA0B0*SFA1.00000B1.00000*%
%ADD10C,.01*%
%ADD11C,.004*%
%ADD12C,.005*%
%ADD13C,.0035*%
%ADD14C,.00394*%
%ADD15C,.00984*%
G75*
%LPD*%
G75*
G36*
G01X-23140Y54090D02*
X-26140Y57090D01*
X-29140Y54090D01*
X-29640Y53590D01*
X-22640D01*
X-23140Y54090D01*
G37*
G36*
G01X-14030Y27050D02*
X-17030Y30050D01*
X-20030Y27050D01*
X-20530Y26550D01*
X-13530D01*
X-14030Y27050D01*
G37*
G36*
G01X6253Y34080D02*
X5139Y32965D01*
X6253Y31851D01*
Y34080D01*
G37*
G36*
G01X87870Y153503D02*
X85870D01*
X86870Y154503D01*
X87870Y153503D01*
G37*
G36*
G01X128180Y77230D02*
X128280Y76970D01*
X128550Y76520D01*
X128670Y76320D01*
X128920Y75990D01*
X129260Y75620D01*
X129560Y75340D01*
X129970Y74960D01*
X130240Y74730D01*
X130580Y74440D01*
X130940Y74120D01*
X131180Y73940D01*
X131210Y73860D01*
X131160Y73790D01*
X130750Y73540D01*
X130470Y73380D01*
X130090Y73140D01*
X129590Y72860D01*
X129200Y72620D01*
X121070Y67730D01*
X126860Y77750D01*
X126920Y77860D01*
X126940D01*
X126980Y77850D01*
X127990Y77400D01*
X128100Y77340D01*
X128130Y77310D01*
X128180Y77230D01*
G37*
G36*
G01X133550Y71900D02*
X123020Y65590D01*
X149810D01*
X142970Y77550D01*
X142080Y76920D01*
X142090Y76890D01*
X142440Y76120D01*
X142680Y75680D01*
X143200Y74630D01*
X143240Y74420D01*
X143290Y74070D01*
Y73740D01*
X143210Y73210D01*
X143090Y72900D01*
X142910Y72390D01*
X142760Y71960D01*
X142600Y71490D01*
X142230Y69980D01*
X142070Y69670D01*
X142020Y69620D01*
X141770Y69500D01*
X141530Y69450D01*
X141230Y69330D01*
X141130Y69220D01*
X141100Y69030D01*
X141040Y68830D01*
X141000Y68700D01*
X140950Y68490D01*
X140850Y68130D01*
X140800Y67930D01*
X140690Y67400D01*
X140630Y67300D01*
X140570Y67330D01*
X140380Y67420D01*
X140090Y67670D01*
X139920Y67870D01*
X139830Y67970D01*
X139740Y68150D01*
X139720Y68270D01*
X139700Y68750D01*
X139740Y69270D01*
X139800Y69550D01*
X139860Y69840D01*
X139910Y70010D01*
X140010Y70410D01*
X140210Y70740D01*
X140370Y71050D01*
X140480Y71200D01*
X140520Y71270D01*
X140530Y71480D01*
X140480Y71680D01*
X140380Y72070D01*
X140340Y72250D01*
X140330Y72530D01*
Y72850D01*
X140350Y72960D01*
X140410Y73170D01*
X140470Y73360D01*
X140580Y73610D01*
X140630Y73900D01*
X140640Y74030D01*
X140580Y74130D01*
X140270Y74430D01*
X140040Y74670D01*
X139930Y74830D01*
X139840Y75020D01*
X139680Y75350D01*
X139580Y75440D01*
X139440Y75450D01*
X139150Y75230D01*
X139140Y75160D01*
X139710Y74230D01*
X139830Y74050D01*
X139890Y73930D01*
X139940Y73730D01*
Y73520D01*
X139810Y72450D01*
X139780Y72150D01*
X139790Y71880D01*
Y71260D01*
X139770Y71100D01*
X139750Y71040D01*
X139640Y70730D01*
X139560Y70580D01*
X139320Y70230D01*
X139300Y70200D01*
X139260D01*
X139240Y70210D01*
X139230Y70220D01*
X139170Y70320D01*
X139120Y70420D01*
X138970Y70730D01*
X138810Y71000D01*
X138760Y71170D01*
X138740Y71290D01*
Y71440D01*
X138810Y71640D01*
X138840Y71710D01*
X139110Y72170D01*
X139190Y72300D01*
X139270Y72410D01*
X139490Y72700D01*
X139520Y72790D01*
Y72910D01*
X139340Y73420D01*
X139310Y73560D01*
X139270Y73780D01*
X139230Y74130D01*
X139200Y74290D01*
X139120Y74540D01*
X138940Y74840D01*
X138840Y74940D01*
X138780Y74990D01*
X138690D01*
X138370Y74740D01*
X138350Y74710D01*
X138400Y74650D01*
X138440Y74620D01*
X138550Y74550D01*
X138600Y74510D01*
X138660Y74410D01*
X138670Y74370D01*
X138720Y74210D01*
X138780Y73740D01*
X138800Y73630D01*
X138840Y73470D01*
X138860Y73420D01*
X138990Y73170D01*
X139010Y73120D01*
X139020Y73080D01*
X139000Y72940D01*
X138940Y72830D01*
X138690Y72420D01*
X138600Y72290D01*
X138490Y72090D01*
X138440Y72020D01*
X138420Y72000D01*
X138390D01*
X138330Y72090D01*
X138280Y72170D01*
X138230Y72240D01*
X138140Y72360D01*
X138130Y72430D01*
X138150Y72490D01*
X138310Y72640D01*
X138370Y72720D01*
X138420Y72790D01*
X138470Y72870D01*
X138490Y73020D01*
Y73210D01*
X138480Y73450D01*
Y73660D01*
X138450Y73800D01*
X138390Y73950D01*
X138290Y74100D01*
X138260Y74150D01*
X138130Y74310D01*
X137930Y74490D01*
X137850D01*
X137730Y74370D01*
Y74290D01*
X137840Y74030D01*
X138000Y73720D01*
X138030Y73540D01*
X138040Y73450D01*
X138000Y73270D01*
X137790Y72890D01*
X137780Y72870D01*
X137750Y72860D01*
X137700D01*
X137610Y72950D01*
X137480Y73090D01*
X137460Y73150D01*
X137450Y73230D01*
Y73330D01*
X137460Y73350D01*
X137500Y73410D01*
X137570Y73470D01*
X137610Y73520D01*
X137630Y73640D01*
X137620Y73750D01*
X137580Y73870D01*
X137530Y74010D01*
X137490Y74170D01*
X137470Y74190D01*
X137290D01*
X137150Y74140D01*
X136280Y73540D01*
Y73480D01*
X136340Y73320D01*
X136400Y73230D01*
X136500Y73110D01*
X136620Y72980D01*
X136750Y72880D01*
X136930Y72750D01*
X137020Y72690D01*
X137160Y72590D01*
X137290Y72480D01*
X137480Y72300D01*
X137580Y72180D01*
X137690Y72020D01*
X137940Y71640D01*
X138350Y70890D01*
X138550Y70400D01*
X138760Y69750D01*
X138900Y69150D01*
X138950Y68610D01*
X138900Y68480D01*
X138860Y68330D01*
X138800Y68170D01*
X138730Y68100D01*
X138680Y68200D01*
X138580Y68500D01*
X138470Y68910D01*
X138340Y69210D01*
X138090Y69550D01*
X137740Y69850D01*
X137640Y69910D01*
X137450Y69930D01*
X137440D01*
X137280Y69940D01*
X137150Y69930D01*
X136990Y69910D01*
X136950Y69890D01*
X136610Y69730D01*
X136290Y69570D01*
X136030Y69260D01*
X135960Y69300D01*
X135880Y69450D01*
X135650Y69790D01*
X135380Y70330D01*
X135120Y70670D01*
X134110Y71690D01*
X133860Y71900D01*
X133550D01*
G37*
G36*
G01X139760Y80150D02*
X140550Y79290D01*
X141510Y79960D01*
X135010Y91370D01*
X134880Y91620D01*
X129880Y83020D01*
X130180Y82760D01*
X131060Y82020D01*
X131140Y81950D01*
X132320Y81540D01*
X132410Y81520D01*
X133710Y81300D01*
X134440Y81210D01*
X135320Y81140D01*
X135800Y81090D01*
X135970Y81070D01*
X136790Y81000D01*
X137660Y80860D01*
X138510Y80720D01*
X138730Y80660D01*
X139390Y80390D01*
X139760Y80150D01*
G37*
%LPC*%
G75*
G36*
G01X133680Y70080D02*
X133590Y69870D01*
X133570Y69670D01*
Y69360D01*
X133610Y69160D01*
X133670Y69030D01*
X133770Y68880D01*
X133910Y68730D01*
X134020Y68620D01*
X134090Y68600D01*
X134190D01*
X134280Y68660D01*
X134390Y68770D01*
X134530Y69010D01*
X134740Y69320D01*
X134840Y69480D01*
X134940Y69630D01*
X135030Y69810D01*
X135040Y70020D01*
X135000Y70100D01*
X134930Y70180D01*
X134920Y70190D01*
X134830Y70290D01*
X134790Y70320D01*
X134320Y70760D01*
X134270Y70790D01*
X134210D01*
X134170Y70760D01*
X134040Y70630D01*
X133980Y70560D01*
X133740Y70160D01*
X133680Y70080D01*
G37*
G36*
G01X141410Y69250D02*
X141190Y68700D01*
X141080Y67970D01*
Y67960D01*
X141070Y67670D01*
Y67630D01*
X141090Y67440D01*
X141100Y67420D01*
X141110Y67390D01*
X141220Y67180D01*
X141240Y67150D01*
X141340D01*
X141380Y67230D01*
X141550Y67680D01*
X141690Y68140D01*
Y68160D01*
X141720Y68370D01*
X141780Y69180D01*
X141760Y69210D01*
X141740Y69250D01*
X141410D01*
G37*
G36*
G01X135530Y67200D02*
X135820Y67190D01*
X135930Y67220D01*
X136090Y67340D01*
X136100Y67360D01*
X136190Y67490D01*
X136240Y67720D01*
Y67840D01*
X136190Y68020D01*
X136150Y68110D01*
X136080Y68260D01*
X136010Y68400D01*
X135940Y68510D01*
X135840Y68670D01*
X135490Y69220D01*
X135450Y69250D01*
X135260D01*
X135200Y69200D01*
X135120Y69070D01*
X134940Y68710D01*
X134860Y68570D01*
X134830Y68480D01*
X134780Y68240D01*
X134770Y67970D01*
X134790Y67850D01*
X134800Y67830D01*
X134840Y67660D01*
X134880Y67570D01*
X135010Y67440D01*
X135280Y67270D01*
X135340Y67240D01*
X135530Y67200D01*
G37*
G36*
G01X137390Y67160D02*
X138260D01*
X138320Y67170D01*
X138400Y67240D01*
X138510Y67380D01*
X138540Y67440D01*
Y67530D01*
X138510Y67730D01*
X138500Y67750D01*
X138360Y68330D01*
X138240Y68710D01*
X138090Y69000D01*
X138060Y69040D01*
X138000Y69150D01*
X137860Y69350D01*
X137590Y69660D01*
X137560Y69670D01*
X137450Y69680D01*
X137200Y69650D01*
X136890Y69580D01*
X136680Y69460D01*
X136600Y69380D01*
X136450Y69220D01*
X136350Y69030D01*
X136340Y68970D01*
X136320Y68880D01*
X136340Y68770D01*
X136360Y68710D01*
X136440Y68540D01*
Y68530D01*
X136450Y68520D01*
X136460Y68500D01*
X136570Y68260D01*
X136590Y68200D01*
X136640Y68080D01*
X136770Y67790D01*
X136810Y67730D01*
X136950Y67550D01*
X137130Y67330D01*
X137290Y67200D01*
X137390Y67160D01*
G37*
%LPD*%
G75*
G54D10*
G01X-52800Y54250D02*
Y50150D01*
G01Y68350D02*
Y64250D01*
G01X-54850Y66300D02*
X-50750D01*
G01X-2137Y22009D02*
G03I-500J0D01*
G01X8413Y64678D02*
G03I-500J0D01*
G01X1413Y64806D02*
G03I-500J0D01*
G01X96985Y163061D02*
G03I-500J0D01*
G01X190040Y20240D02*
G03I-500J0D01*
G01X201398Y24010D02*
G03I-500J0D01*
G01X217265Y96570D02*
G03I-500J0D01*
G01X213030Y111660D02*
G03I-500J0D01*
G54D11*
G01X266971Y165400D02*
Y168200D01*
X266104Y165867D01*
X265237Y168200D01*
Y165400D01*
G01X264103Y167267D02*
Y165400D01*
G01Y168013D02*
X264170Y168060D01*
Y168153D01*
X264103Y168200D01*
X264036Y168153D01*
Y168060D01*
X264103Y168013D01*
G01X261569Y167033D02*
X261802Y167220D01*
X262002Y167267D01*
X262269Y167173D01*
X262469Y166987D01*
X262602Y166660D01*
X262635Y166333D01*
X262602Y166007D01*
X262469Y165727D01*
X262269Y165493D01*
X262002Y165400D01*
X261769Y165493D01*
X261569Y165680D01*
G01X260568Y165400D02*
Y167267D01*
G01Y166893D02*
X260401Y167080D01*
X260234Y167220D01*
X260001Y167267D01*
X259834Y167220D01*
X259634Y167080D01*
G01X258100Y165400D02*
X258300Y165447D01*
X258500Y165633D01*
X258633Y165960D01*
X258700Y166333D01*
X258633Y166707D01*
X258500Y167033D01*
X258300Y167220D01*
X258100Y167267D01*
X257900Y167220D01*
X257700Y167033D01*
X257567Y166707D01*
X257533Y166333D01*
X257567Y165960D01*
X257700Y165633D01*
X257900Y165447D01*
X258100Y165400D01*
G01X254798Y165773D02*
X254531Y165540D01*
X254231Y165400D01*
X253965D01*
X253698Y165540D01*
X253498Y165773D01*
X253398Y166100D01*
X253465Y166427D01*
X253631Y166707D01*
X253931Y166893D01*
X254331Y166987D01*
X254565Y167173D01*
X254665Y167500D01*
X254598Y167827D01*
X254431Y168060D01*
X254198Y168200D01*
X253965D01*
X253731Y168107D01*
X253531Y167873D01*
G01X252830Y165400D02*
Y168200D01*
X252164D01*
X251897Y168060D01*
X251697Y167873D01*
X251530Y167593D01*
X251397Y167267D01*
X251364Y166800D01*
X251397Y166333D01*
X251530Y166007D01*
X251697Y165727D01*
X251897Y165540D01*
X252164Y165400D01*
X252830D01*
G54D12*
G01X-53500Y22176D02*
X-36500D01*
G02Y14176I-7375J-4000D01*
G01X-53500D01*
G01Y22176D02*
G03Y14176I7500J-4000D01*
G01Y26380D02*
X-36500D01*
G01Y34380D02*
X-53500D01*
G01X-51790Y77040D02*
X-51523Y76740D01*
X-51363Y76390D01*
X-51310Y75940D01*
X-51417Y75490D01*
X-51630Y75140D01*
X-52003Y74890D01*
X-52430Y74840D01*
X-52857Y74940D01*
X-53123Y75190D01*
X-53337Y75540D01*
X-53390Y75890D01*
X-53337Y76240D01*
X-53123Y76690D01*
X-54510Y76540D01*
Y75190D01*
G01Y73990D02*
X-51310Y72740D01*
X-54510Y71490D01*
G01X-36584Y149950D02*
X-39733D01*
Y151525D01*
G01X-50050Y151350D02*
X-42950D01*
Y154850D01*
X-50050D01*
Y151400D01*
G01Y144150D02*
X-42950D01*
Y147650D01*
X-50050D01*
Y144200D01*
G01Y147750D02*
X-42950D01*
Y151250D01*
X-50050D01*
Y147800D01*
G01X-36584Y156249D02*
X-39733D01*
Y154674D01*
G01X-36584Y163449D02*
X-39734D01*
Y161874D01*
G01X-36584Y157150D02*
X-39734D01*
Y158725D01*
G01X-36584Y164350D02*
X-39734D01*
Y165925D01*
G01X-50050Y158550D02*
X-42950D01*
Y162050D01*
X-50050D01*
Y158600D01*
G01Y154950D02*
X-42950D01*
Y158450D01*
X-50050D01*
Y155000D01*
G01Y162150D02*
X-42950D01*
Y165650D01*
X-50050D01*
Y162200D01*
G01X-36584Y177849D02*
X-39733D01*
Y176274D01*
G01X-36584Y171550D02*
X-39733D01*
Y173125D01*
G01X-36584Y170649D02*
X-39734D01*
Y169074D01*
G01X-50050Y165750D02*
X-42950D01*
Y169250D01*
X-50050D01*
Y165800D01*
G01Y169350D02*
X-42950D01*
Y172850D01*
X-50050D01*
Y169400D01*
G01Y172950D02*
X-42950D01*
Y176450D01*
X-50050D01*
Y173000D01*
G01X-36584Y185049D02*
X-39734D01*
Y183474D01*
G01X-36584Y178750D02*
X-39734D01*
Y180325D01*
G01X-50050Y180150D02*
X-42950D01*
Y183650D01*
X-50050D01*
Y180200D01*
G01Y183750D02*
X-42950D01*
Y187250D01*
X-50050D01*
Y183800D01*
G01Y176550D02*
X-42950D01*
Y180050D01*
X-50050D01*
Y176600D01*
G01X-33260Y-7509D02*
Y-409D01*
X-36760D01*
Y-7509D01*
X-33310D01*
G01X-31740Y-410D02*
Y-7510D01*
X-28240D01*
Y-410D01*
X-31690D01*
G01X-33640Y63590D02*
Y46590D01*
X-31140D01*
G01X-33640Y63590D02*
X-31140D01*
G01X-34494Y145112D02*
Y146718D01*
G01Y149049D02*
X-37644D01*
Y147474D01*
G01X-34494Y142750D02*
X-37644D01*
Y144325D01*
G01X-36584Y152312D02*
Y153918D01*
G01X-24120Y147650D02*
X-31220D01*
Y144150D01*
X-24120D01*
Y147600D01*
G01X-26200Y154850D02*
X-33300D01*
Y151350D01*
X-26200D01*
Y154800D01*
G01X-36584Y159512D02*
Y161118D01*
G01X-26200Y162050D02*
X-33300D01*
Y158550D01*
X-26200D01*
Y162000D01*
G01X-36584Y173912D02*
Y175518D01*
G01Y166712D02*
Y168318D01*
G01X-26200Y169250D02*
X-33300D01*
Y165750D01*
X-26200D01*
Y169200D01*
G01Y176450D02*
X-33300D01*
Y172950D01*
X-26200D01*
Y176400D01*
G01X-36584Y181112D02*
Y182718D01*
G01X-26200Y183650D02*
X-33300D01*
Y180150D01*
X-26200D01*
Y183600D01*
G01X-22040Y-961D02*
Y-3120D01*
Y-4720D01*
Y-6879D01*
G03X-21449Y-7470I591J0D01*
G01X-19131D01*
G03X-18540Y-6879I0J591D01*
G01Y-961D01*
G03X-19131Y-370I-591J0D01*
G01X-21449D01*
G03X-22040Y-961I0J-591D01*
G01X-23140Y-7490D02*
Y-390D01*
X-26640D01*
Y-7490D01*
X-23190D01*
G01X-24530Y36550D02*
Y19550D01*
X-22030D01*
G01X-24530Y36550D02*
X-22030D01*
G01X-17741Y51040D02*
Y43940D01*
X-14241D01*
Y51040D01*
X-17691D01*
G01X-21140Y46590D02*
X-18640D01*
G01D02*
Y63590D01*
G01X-17741Y58723D02*
Y51623D01*
X-14241D01*
Y58723D01*
X-17691D01*
G01X-16879Y59580D02*
X-14720D01*
X-13120D01*
X-10961D01*
G03X-10370Y60171I0J591D01*
G01Y62489D01*
G03X-10961Y63080I-591J0D01*
G01X-16879D01*
G03X-17470Y62489I0J-591D01*
G01Y60171D01*
G03X-16879Y59580I591J0D01*
G01X-21140Y63590D02*
X-18640D01*
G01X-20030Y90840D02*
X-12930D01*
Y94340D01*
X-20030D01*
Y90890D01*
G01X-12930Y98399D02*
X-20030D01*
Y94899D01*
X-12930D01*
Y98349D01*
G01Y106517D02*
X-20030D01*
Y103017D01*
X-12930D01*
Y106467D01*
G01Y102458D02*
X-20030D01*
Y98958D01*
X-12930D01*
Y102408D01*
G01X-20030Y107076D02*
X-12930D01*
Y110576D01*
X-20030D01*
Y107126D01*
G01X-12930Y118694D02*
X-20030D01*
Y115194D01*
X-12930D01*
Y118644D01*
G01Y114635D02*
X-20030D01*
Y111135D01*
X-12930D01*
Y114585D01*
G01Y122753D02*
X-20030D01*
Y119253D01*
X-12930D01*
Y122703D01*
G01X-20684Y156142D02*
Y157748D01*
G01Y160079D02*
X-23834D01*
Y158504D01*
G01X-20684Y153780D02*
X-23834D01*
Y155355D01*
G01X-20684Y163112D02*
Y164718D01*
G01Y160750D02*
X-23833D01*
Y162325D01*
G01X-10450Y158450D02*
X-17550D01*
Y154950D01*
X-10450D01*
Y158400D01*
G01Y166050D02*
X-17550D01*
Y162550D01*
X-10450D01*
Y166000D01*
G01X-20684Y170312D02*
Y171918D01*
G01Y174249D02*
X-23834D01*
Y172674D01*
G01X-20684Y167950D02*
X-23834D01*
Y169525D01*
G01X-20684Y175150D02*
X-23834D01*
Y176725D01*
G01X-20684Y167049D02*
X-23833D01*
Y165474D01*
G01X-10450Y172850D02*
X-17550D01*
Y169350D01*
X-10450D01*
Y172800D01*
G01X-20684Y177512D02*
Y179118D01*
G01Y181449D02*
X-23834D01*
Y179874D01*
G01X-20684Y184712D02*
Y186318D01*
G01Y188649D02*
X-23833D01*
Y187074D01*
G01X-20684Y182350D02*
X-23833D01*
Y183925D01*
G01X-10450Y180050D02*
X-17550D01*
Y176550D01*
X-10450D01*
Y180000D01*
G01X-14350Y193150D02*
X-21450D01*
Y189650D01*
X-14350D01*
Y193100D01*
G01X-12030Y19550D02*
X-9530D01*
G01D02*
Y36550D01*
G01X-8608Y37711D02*
Y33679D01*
X-7506D01*
G01X-8510Y31300D02*
Y24200D01*
X-5010D01*
Y31300D01*
X-8460D01*
G01X-12030Y36550D02*
X-9530D01*
G01X-7506Y47561D02*
X-8608D01*
Y43329D01*
G01X-10041Y43973D02*
Y51073D01*
X-13541D01*
Y43973D01*
X-10091D01*
G01X-13541Y58132D02*
Y55973D01*
Y54373D01*
Y52214D01*
G03X-12950Y51623I591J0D01*
G01X-10632D01*
G03X-10041Y52214I0J591D01*
G01Y58132D01*
G03X-10632Y58723I-591J0D01*
G01X-12950D01*
G03X-13541Y58132I0J-591D01*
G01X-2190Y57581D02*
X-9290D01*
Y54081D01*
X-2190D01*
Y57531D01*
G01X-9290Y48740D02*
X-2190D01*
Y52240D01*
X-9290D01*
Y48790D01*
G01Y59580D02*
X-2190D01*
Y63080D01*
X-9290D01*
Y59630D01*
G01X-4704Y172086D02*
X-6310D01*
G01X-8641D02*
Y168936D01*
X-7066D01*
G01X-2342Y172086D02*
Y168936D01*
X-3917D01*
G01X-1942Y178450D02*
X-9042D01*
Y174950D01*
X-1942D01*
Y178400D01*
G01X6233Y22300D02*
X-867D01*
Y18800D01*
X6233D01*
Y22250D01*
G01X5144Y23242D02*
X222D01*
G01Y31116D02*
X5144D01*
G01X4172Y33679D02*
X4711D01*
X5274Y34238D01*
Y37711D01*
G01Y43329D02*
Y47561D01*
X4172D01*
G01X8053Y59978D02*
Y55478D01*
G01Y52478D02*
Y47978D01*
X9053D01*
G01X8053Y55478D02*
G02Y52478I0J-1500D01*
G01X-534Y55965D02*
Y60887D01*
G01X7340D02*
Y55965D01*
G01X6953Y52240D02*
X-147D01*
Y48740D01*
X6953D01*
Y52190D01*
G01X14480Y70220D02*
X12320D01*
X10720D01*
X8561D01*
G03X7970Y69630I0J-591D01*
G01Y67311D01*
G03X8561Y66720I591J0D01*
G01X14480D01*
G03X15070Y67311I0J590D01*
G01Y69630D01*
G03X14480Y70220I-590J0D01*
G01X9053Y59978D02*
X8053D01*
G01X7300Y70220D02*
X200D01*
Y66720D01*
X7300D01*
Y70170D01*
G01X5258Y146258D02*
Y153358D01*
X1758D01*
Y146258D01*
X5208D01*
G01X6758Y153358D02*
Y146258D01*
X10258D01*
Y153358D01*
X6808D01*
G01X-3242D02*
Y146258D01*
X258D01*
Y153358D01*
X-3192D01*
G01X-3242Y165167D02*
Y163008D01*
Y161408D01*
Y159249D01*
G03X-2651Y158658I591J0D01*
G01X-333D01*
G03X258Y159249I0J591D01*
G01Y165167D01*
G03X-333Y165758I-591J0D01*
G01X-2651D01*
G03X-3242Y165167I0J-591D01*
G01X5258Y158658D02*
Y165758D01*
X1758D01*
Y158658D01*
X5208D01*
G01X10258D02*
Y165758D01*
X6758D01*
Y158658D01*
X10208D01*
G01X14000Y-7500D02*
Y-2500D01*
X14800Y-3500D01*
G01Y-7500D02*
X13200D01*
G01X15267Y6667D02*
X14867Y7167D01*
X14400Y7417D01*
X13867Y7500D01*
X13200Y7333D01*
X12733Y6917D01*
X12600Y6417D01*
X12667Y5917D01*
X12933Y5500D01*
X14267Y4667D01*
X14867Y4083D01*
X15267Y3250D01*
X15400Y2500D01*
X12600D01*
G01X18620Y33770D02*
Y40870D01*
X15120D01*
Y33770D01*
X18570D01*
G01X19553Y47978D02*
X20053D01*
Y59978D01*
X19553D01*
G01X15258Y158658D02*
Y165758D01*
X11758D01*
Y158658D01*
X15208D01*
G01X14000Y183000D02*
Y188000D01*
X14800Y187000D01*
G01Y183000D02*
X13200D01*
G01X15267Y196667D02*
X14867Y197167D01*
X14400Y197417D01*
X13867Y197500D01*
X13200Y197333D01*
X12733Y196917D01*
X12600Y196417D01*
X12667Y195917D01*
X12933Y195500D01*
X14267Y194667D01*
X14867Y194083D01*
X15267Y193250D01*
X15400Y192500D01*
X12600D01*
G01X33050Y19741D02*
Y21900D01*
Y23500D01*
Y25659D01*
G03X32459Y26250I-591J0D01*
G01X30141D01*
G03X29550Y25659I0J-591D01*
G01Y19741D01*
G03X30141Y19150I591J0D01*
G01X32459D01*
G03X33050Y19741I0J591D01*
G01X28871Y18991D02*
Y30999D01*
X21390D01*
Y18401D01*
X28871D01*
Y18991D01*
G01X29550Y46159D02*
Y44000D01*
Y42400D01*
Y40241D01*
G03X30141Y39650I591J0D01*
G01X32459D01*
G03X33050Y40241I0J591D01*
G01Y46159D01*
G03X32459Y46750I-591J0D01*
G01X30141D01*
G03X29550Y46159I0J-591D01*
G01X21389Y50109D02*
Y38101D01*
X28870D01*
Y50699D01*
X21389D01*
Y50109D01*
G01X26712Y67053D02*
Y55045D01*
X34193D01*
Y67643D01*
X26712D01*
Y67053D01*
G01X28450Y90950D02*
Y83850D01*
X31950D01*
Y90950D01*
X28500D01*
G01X21850Y152505D02*
X28950D01*
Y156005D01*
X21850D01*
Y152555D01*
G01Y148050D02*
X28950D01*
Y151550D01*
X21850D01*
Y148100D01*
G01Y156984D02*
X28950D01*
Y160484D01*
X21850D01*
Y157034D01*
G01X35500Y169981D02*
X28400D01*
Y166481D01*
X35500D01*
Y169931D01*
G01X37350Y19741D02*
Y21900D01*
Y23500D01*
Y25660D01*
G03X36760Y26250I-590J0D01*
G01X34441D01*
G03X33850Y25660I0J-591D01*
G01Y19741D01*
G03X34441Y19150I591J0D01*
G01X36760D01*
G03X37350Y19741I0J590D01*
G01X49871Y18991D02*
Y30999D01*
X42390D01*
Y18401D01*
X49871D01*
Y18991D01*
G01X38150Y26250D02*
Y19150D01*
X41650D01*
Y26250D01*
X38200D01*
G01X38150Y46159D02*
Y44000D01*
Y42400D01*
Y40241D01*
G03X38741Y39650I591J0D01*
G01X41059D01*
G03X41650Y40241I0J591D01*
G01Y46159D01*
G03X41059Y46750I-591J0D01*
G01X38741D01*
G03X38150Y46159I0J-591D01*
G01X33830D02*
Y44000D01*
Y42400D01*
Y40241D01*
G03X34421Y39650I591J0D01*
G01X36739D01*
G03X37330Y40241I0J591D01*
G01Y46159D01*
G03X36739Y46750I-591J0D01*
G01X34421D01*
G03X33830Y46159I0J-591D01*
G01X42389Y50109D02*
Y38101D01*
X49870D01*
Y50699D01*
X42389D01*
Y50109D01*
G01X35767Y67053D02*
Y55045D01*
X43247D01*
Y67643D01*
X35767D01*
Y67053D01*
G01X33563Y91450D02*
X35722D01*
X37322D01*
X39481D01*
G03X40072Y92041I0J591D01*
G01Y94359D01*
G03X39481Y94950I-591J0D01*
G01X33563D01*
G03X32972Y94359I0J-591D01*
G01Y92041D01*
G03X33563Y91450I591J0D01*
G01X33426Y85484D02*
X42652D01*
G03X43439Y86271I0J787D01*
G01Y89697D01*
G03X42652Y90484I-787J0D01*
G01X33426D01*
G03X32639Y89697I0J-787D01*
G01Y86271D01*
G03X33426Y85484I787J0D01*
G01X33563Y95605D02*
X35722D01*
X37322D01*
X39481D01*
G03X40072Y96196I0J591D01*
G01Y98514D01*
G03X39481Y99105I-591J0D01*
G01X33563D01*
G03X32972Y98514I0J-591D01*
G01Y96196D01*
G03X33563Y95605I591J0D01*
G01Y99779D02*
X35722D01*
X37322D01*
X39481D01*
G03X40072Y100370I0J591D01*
G01Y102688D01*
G03X39481Y103279I-591J0D01*
G01X33563D01*
G03X32972Y102688I0J-591D01*
G01Y100370D01*
G03X33563Y99779I591J0D01*
G01Y104087D02*
X35722D01*
X37322D01*
X39481D01*
G03X40072Y104678I0J591D01*
G01Y106996D01*
G03X39481Y107587I-591J0D01*
G01X33563D01*
G03X32972Y106996I0J-591D01*
G01Y104678D01*
G03X33563Y104087I591J0D01*
G01X37324Y114930D02*
Y112771D01*
Y111171D01*
Y109011D01*
G03X37915Y108421I591J1D01*
G01X40234D01*
G03X40824Y109011I0J590D01*
G01Y114930D01*
G03X40234Y115521I-590J1D01*
G01X37915D01*
G03X37324Y114930I0J-591D01*
G01X41509D02*
Y112771D01*
Y111171D01*
Y109012D01*
G03X42100Y108421I591J0D01*
G01X44418D01*
G03X45009Y109012I0J591D01*
G01Y114930D01*
G03X44418Y115521I-591J0D01*
G01X42100D01*
G03X41509Y114930I0J-591D01*
G01X33009Y115521D02*
Y108421D01*
X36509D01*
Y115521D01*
X33059D01*
G01X37750Y146405D02*
Y148564D01*
Y150164D01*
Y152323D01*
G03X37159Y152914I-591J0D01*
G01X34841D01*
G03X34250Y152323I0J-591D01*
G01Y146405D01*
G03X34841Y145814I591J0D01*
G01X37159D01*
G03X37750Y146405I0J591D01*
G01X41850D02*
Y148564D01*
Y150164D01*
Y152323D01*
G03X41259Y152914I-591J0D01*
G01X38941D01*
G03X38350Y152323I0J-591D01*
G01Y146405D01*
G03X38941Y145814I591J0D01*
G01X41259D01*
G03X41850Y146405I0J591D01*
G01X43739Y169981D02*
X36639D01*
Y166481D01*
X43739D01*
Y169931D01*
G01X53650Y75634D02*
Y82734D01*
X50150D01*
Y75634D01*
X53600D01*
G01X57850D02*
Y82734D01*
X54350D01*
Y75634D01*
X57800D01*
G01X51765Y88441D02*
Y90600D01*
Y92200D01*
Y94359D01*
G03X51174Y94950I-591J0D01*
G01X48856D01*
G03X48265Y94359I0J-591D01*
G01Y88441D01*
G03X48856Y87850I591J0D01*
G01X51174D01*
G03X51765Y88441I0J591D01*
G01X47589D02*
Y90600D01*
Y92200D01*
Y94359D01*
G03X46998Y94950I-591J0D01*
G01X44680D01*
G03X44089Y94359I0J-591D01*
G01Y88441D01*
G03X44680Y87850I591J0D01*
G01X46998D01*
G03X47589Y88441I0J591D01*
G01X59489Y91300D02*
X52389D01*
Y87800D01*
X59489D01*
Y91250D01*
G01Y95366D02*
X52389D01*
Y91866D01*
X59489D01*
Y95316D01*
G01Y87234D02*
X52389D01*
Y83734D01*
X59489D01*
Y87184D01*
G01X51050Y87234D02*
X43950D01*
Y83734D01*
X51050D01*
Y87184D01*
G01X58959Y99450D02*
X56800D01*
X55200D01*
X53041D01*
G03X52450Y98859I0J-591D01*
G01Y96541D01*
G03X53041Y95950I591J0D01*
G01X58959D01*
G03X59550Y96541I0J591D01*
G01Y98859D01*
G03X58959Y99450I-591J0D01*
G01X58782Y105100D02*
X49556D01*
G03X48769Y104313I0J-787D01*
G01Y100887D01*
G03X49556Y100100I787J0D01*
G01X58782D01*
G03X59569Y100887I0J787D01*
G01Y104313D01*
G03X58782Y105100I-787J0D01*
G01X53148Y117821D02*
X50989D01*
X49389D01*
X47230D01*
G03X46639Y117230I0J-591D01*
G01Y114912D01*
G03X47230Y114321I591J0D01*
G01X53148D01*
G03X53739Y114912I0J591D01*
G01Y117230D01*
G03X53148Y117821I-591J0D01*
G01X53042Y113721D02*
X50883D01*
X49283D01*
X47124D01*
G03X46533Y113130I0J-591D01*
G01Y110812D01*
G03X47124Y110221I591J0D01*
G01X53042D01*
G03X53633Y110812I0J591D01*
G01Y113130D01*
G03X53042Y113721I-591J0D01*
G01Y109587D02*
X50883D01*
X49283D01*
X47124D01*
G03X46533Y108996I0J-591D01*
G01Y106678D01*
G03X47124Y106087I591J0D01*
G01X53042D01*
G03X53633Y106678I0J591D01*
G01Y108996D01*
G03X53042Y109587I-591J0D01*
G01X54350Y105834D02*
X61450D01*
Y109334D01*
X54350D01*
Y105884D01*
G01X62052Y128700D02*
X52826D01*
G03X52039Y127913I0J-787D01*
G01Y124487D01*
G03X52826Y123700I787J0D01*
G01X62052D01*
G03X62839Y124487I0J787D01*
G01Y127913D01*
G03X62052Y128700I-787J0D01*
G01X52895Y162250D02*
X59995D01*
Y165750D01*
X52895D01*
Y162300D01*
G01X51214Y169981D02*
X49055D01*
X47455D01*
X45296D01*
G03X44705Y169390I0J-591D01*
G01Y167072D01*
G03X45296Y166481I591J0D01*
G01X51214D01*
G03X51805Y167072I0J591D01*
G01Y169390D01*
G03X51214Y169981I-591J0D01*
G01X59995D02*
X52895D01*
Y166481D01*
X59995D01*
Y169931D01*
G01X63921Y17449D02*
X75929D01*
Y24930D01*
X63331D01*
Y17449D01*
X63921D01*
G01X63931Y31630D02*
X75939D01*
Y39111D01*
X63341D01*
Y31630D01*
X63931D01*
G01X60360Y25650D02*
X67460D01*
Y29150D01*
X60360D01*
Y25700D01*
G01X70789Y47450D02*
X68630D01*
X67030D01*
X64871D01*
G03X64280Y46859I0J-591D01*
G01Y44541D01*
G03X64871Y43950I591J0D01*
G01X70789D01*
G03X71380Y44541I0J591D01*
G01Y46859D01*
G03X70789Y47450I-591J0D01*
G01X64280Y39850D02*
X71380D01*
Y43350D01*
X64280D01*
Y39900D01*
G01X63931Y49930D02*
X75939D01*
Y57411D01*
X63341D01*
Y49930D01*
X63931D01*
G01X64280Y58150D02*
X71380D01*
Y61650D01*
X64280D01*
Y58200D01*
G01X69189Y91300D02*
X62089D01*
Y87800D01*
X69189D01*
Y91250D01*
G01Y87234D02*
X62089D01*
Y83734D01*
X69189D01*
Y87184D01*
G01Y95366D02*
X62089D01*
Y91866D01*
X69189D01*
Y95316D01*
G01X62680Y101600D02*
X64839D01*
X66439D01*
X68598D01*
G03X69189Y102191I0J591D01*
G01Y104509D01*
G03X68598Y105100I-591J0D01*
G01X62680D01*
G03X62089Y104509I0J-591D01*
G01Y102191D01*
G03X62680Y101600I591J0D01*
G01Y97466D02*
X64839D01*
X66439D01*
X68598D01*
G03X69189Y98057I0J591D01*
G01Y100375D01*
G03X68598Y100966I-591J0D01*
G01X62680D01*
G03X62089Y100375I0J-591D01*
G01Y98057D01*
G03X62680Y97466I591J0D01*
G01Y105834D02*
X64839D01*
X66439D01*
X68598D01*
G03X69189Y106425I0J591D01*
G01Y108743D01*
G03X68598Y109334I-591J0D01*
G01X62680D01*
G03X62089Y108743I0J-591D01*
G01Y106425D01*
G03X62680Y105834I591J0D01*
G01X61926Y110000D02*
X71152D01*
G03X71939Y110787I0J787D01*
G01Y114213D01*
G03X71152Y115000I-787J0D01*
G01X61926D01*
G03X61139Y114213I0J-787D01*
G01Y110787D01*
G03X61926Y110000I787J0D01*
G01X62050Y122950D02*
Y115850D01*
X65550D01*
Y122950D01*
X62100D01*
G01X67359Y169981D02*
X65200D01*
X63600D01*
X61441D01*
G03X60850Y169390I0J-591D01*
G01Y167072D01*
G03X61441Y166481I591J0D01*
G01X67359D01*
G03X67950Y167072I0J591D01*
G01Y169390D01*
G03X67359Y169981I-591J0D01*
G01X84281Y17862D02*
Y29870D01*
X76800D01*
Y17272D01*
X84281D01*
Y17862D01*
G01X68671Y25650D02*
X70830D01*
X72430D01*
X74589D01*
G03X75180Y26241I0J591D01*
G01Y28559D01*
G03X74589Y29150I-591J0D01*
G01X68671D01*
G03X68080Y28559I0J-591D01*
G01Y26241D01*
G03X68671Y25650I591J0D01*
G01X84281Y32491D02*
Y44499D01*
X76800D01*
Y31901D01*
X84281D01*
Y32491D01*
G01Y50791D02*
Y62799D01*
X76800D01*
Y50201D01*
X84281D01*
Y50791D01*
G01X75750Y155650D02*
Y148550D01*
X79250D01*
Y155650D01*
X75800D01*
G01X83346Y165750D02*
X81187D01*
X79587D01*
X77428D01*
G03X76837Y165159I0J-591D01*
G01Y162841D01*
G03X77428Y162250I591J0D01*
G01X83346D01*
G03X83937Y162841I0J591D01*
G01Y165159D01*
G03X83346Y165750I-591J0D01*
G01X68863Y162250D02*
X75963D01*
Y165750D01*
X68863D01*
Y162300D01*
G01X83346Y169981D02*
X81187D01*
X79587D01*
X77428D01*
G03X76837Y169390I0J-591D01*
G01Y167072D01*
G03X77428Y166481I591J0D01*
G01X83346D01*
G03X83937Y167072I0J591D01*
G01Y169390D01*
G03X83346Y169981I-591J0D01*
G01X75963D02*
X68863D01*
Y166481D01*
X75963D01*
Y169931D01*
G01X92460Y17862D02*
Y29870D01*
X84980D01*
Y17272D01*
X92460D01*
Y17862D01*
G01Y32491D02*
Y44499D01*
X84980D01*
Y31901D01*
X92460D01*
Y32491D01*
G01Y50791D02*
Y62799D01*
X84980D01*
Y50201D01*
X92460D01*
Y50791D01*
G01X84150Y131141D02*
Y133300D01*
Y134900D01*
Y137059D01*
G03X83559Y137650I-591J0D01*
G01X81241D01*
G03X80650Y137059I0J-591D01*
G01Y131141D01*
G03X81241Y130550I591J0D01*
G01X83559D01*
G03X84150Y131141I0J591D01*
G01X84950Y137650D02*
Y130550D01*
X88450D01*
Y137650D01*
X85000D01*
G01X80050Y155059D02*
Y152900D01*
Y151300D01*
Y149141D01*
G03X80641Y148550I591J0D01*
G01X82959D01*
G03X83550Y149141I0J591D01*
G01Y155059D01*
G03X82959Y155650I-591J0D01*
G01X80641D01*
G03X80050Y155059I0J-591D01*
G01X94405Y149390D02*
Y158616D01*
G03X93618Y159403I-787J0D01*
G01X90192D01*
G03X89405Y158616I0J-787D01*
G01Y149390D01*
G03X90192Y148603I787J0D01*
G01X93618D01*
G03X94405Y149390I0J787D01*
G01X85295Y155365D02*
Y152641D01*
G01X88445D02*
Y155365D01*
G01X91955Y165750D02*
X84855D01*
Y162250D01*
X91955D01*
Y165700D01*
G01X84855Y166481D02*
X91955D01*
Y169981D01*
X84855D01*
Y166531D01*
G01X103560Y30480D02*
X106560D01*
G02X107060Y29980I0J-500D01*
G01Y28980D01*
G02X106560Y28480I-500J0D01*
G01X103560D01*
G02X103060Y28980I0J500D01*
G01Y29980D01*
G02X103560Y30480I500J0D01*
G01X101450Y55430D02*
X108550D01*
Y58930D01*
X101450D01*
Y55480D01*
G01X103500Y54600D02*
X106500D01*
G02X107000Y54100I0J-500D01*
G01Y53100D01*
G02X106500Y52600I-500J0D01*
G01X103500D01*
G02X103000Y53100I0J500D01*
G01Y54100D01*
G02X103500Y54600I500J0D01*
G01X103480Y48720D02*
X106480D01*
G02X106980Y48220I0J-500D01*
G01Y47220D01*
G02X106480Y46720I-500J0D01*
G01X103480D01*
G02X102980Y47220I0J500D01*
G01Y48220D01*
G02X103480Y48720I500J0D01*
G01X98185Y161861D02*
X97785D01*
Y152261D01*
G01D02*
X98185D01*
G01X97170Y158561D02*
Y155561D01*
G02X96670Y155061I-500J0D01*
G01X95670D01*
G02X95170Y155561I0J500D01*
G01Y158561D01*
G02X95670Y159061I500J0D01*
G01X96670D01*
G02X97170Y158561I0J-500D01*
G01X96940Y166481D02*
X104040D01*
Y169981D01*
X96940D01*
Y166531D01*
G01X96240Y165220D02*
Y172320D01*
X92740D01*
Y165220D01*
X96190D01*
G01X111000Y18470D02*
X114000D01*
G02X114500Y17970I0J-500D01*
G01Y16970D01*
G02X114000Y16470I-500J0D01*
G01X111000D01*
G02X110500Y16970I0J500D01*
G01Y17970D01*
G02X111000Y18470I500J0D01*
G01X111580Y25260D02*
X108580D01*
G02X108080Y25760I0J500D01*
G01Y26760D01*
G02X108580Y27260I500J0D01*
G01X111580D01*
G02X112080Y26760I0J-500D01*
G01Y25760D01*
G02X111580Y25260I-500J0D01*
G01X109790Y35150D02*
Y32150D01*
G02X109290Y31650I-500J0D01*
G01X108290D01*
G02X107790Y32150I0J500D01*
G01Y35150D01*
G02X108290Y35650I500J0D01*
G01X109290D01*
G02X109790Y35150I0J-500D01*
G01X111100Y43470D02*
X114100D01*
G02X114600Y42970I0J-500D01*
G01Y41970D01*
G02X114100Y41470I-500J0D01*
G01X111100D01*
G02X110600Y41970I0J500D01*
G01Y42970D01*
G02X111100Y43470I500J0D01*
G01X111160Y36050D02*
X114160D01*
G02X114660Y35550I0J-500D01*
G01Y34550D01*
G02X114160Y34050I-500J0D01*
G01X111160D01*
G02X110660Y34550I0J500D01*
G01Y35550D01*
G02X111160Y36050I500J0D01*
G01X107700Y41780D02*
Y44780D01*
G02X108200Y45280I500J0D01*
G01X109200D01*
G02X109700Y44780I0J-500D01*
G01Y41780D01*
G02X109200Y41280I-500J0D01*
G01X108200D01*
G02X107700Y41780I0J500D01*
G01X106090Y51780D02*
X109090D01*
G02X109590Y51280I0J-500D01*
G01Y50280D01*
G02X109090Y49780I-500J0D01*
G01X106090D01*
G02X105590Y50280I0J500D01*
G01Y51280D01*
G02X106090Y51780I500J0D01*
G01X111080Y58180D02*
X114080D01*
G02X114580Y57680I0J-500D01*
G01Y56680D01*
G02X114080Y56180I-500J0D01*
G01X111080D01*
G02X110580Y56680I0J500D01*
G01Y57680D01*
G02X111080Y58180I500J0D01*
G01X108800Y100340D02*
Y103340D01*
G02X109300Y103840I500J0D01*
G01X110300D01*
G02X110800Y103340I0J-500D01*
G01Y100340D01*
G02X110300Y99840I-500J0D01*
G01X109300D01*
G02X108800Y100340I0J500D01*
G01X113990Y109470D02*
Y106470D01*
G02X113490Y105970I-500J0D01*
G01X112490D01*
G02X111990Y106470I0J500D01*
G01Y109470D01*
G02X112490Y109970I500J0D01*
G01X113490D01*
G02X113990Y109470I0J-500D01*
G01X112460Y115300D02*
X109460D01*
G02X108960Y115800I0J500D01*
G01Y116800D01*
G02X109460Y117300I500J0D01*
G01X112460D01*
G02X112960Y116800I0J-500D01*
G01Y115800D01*
G02X112460Y115300I-500J0D01*
G01X108470Y131350D02*
Y128350D01*
G02X107970Y127850I-500J0D01*
G01X106970D01*
G02X106470Y128350I0J500D01*
G01Y131350D01*
G02X106970Y131850I500J0D01*
G01X107970D01*
G02X108470Y131350I0J-500D01*
G01X111498Y134679D02*
X114498D01*
G02X114998Y134179I0J-500D01*
G01Y133179D01*
G02X114498Y132679I-500J0D01*
G01X111498D01*
G02X110998Y133179I0J500D01*
G01Y134179D01*
G02X111498Y134679I500J0D01*
G01X105885Y152261D02*
X106185D01*
Y161861D01*
X105785D01*
G01X110750Y155503D02*
Y152503D01*
G02X110250Y152003I-500J0D01*
G01X109250D01*
G02X108750Y152503I0J500D01*
G01Y155503D01*
G02X109250Y156003I500J0D01*
G01X110250D01*
G02X110750Y155503I0J-500D01*
G01X108350Y144040D02*
X111350D01*
G02X111850Y143540I0J-500D01*
G01Y142540D01*
G02X111350Y142040I-500J0D01*
G01X108350D01*
G02X107850Y142540I0J500D01*
G01Y143540D01*
G02X108350Y144040I500J0D01*
G01X110460Y157011D02*
Y164111D01*
X106960D01*
Y157011D01*
X110410D01*
G01X116340Y18470D02*
X119340D01*
G02X119840Y17970I0J-500D01*
G01Y16970D01*
G02X119340Y16470I-500J0D01*
G01X116340D01*
G02X115840Y16970I0J500D01*
G01Y17970D01*
G02X116340Y18470I500J0D01*
G01X126580Y18490D02*
X129580D01*
G02X130080Y17990I0J-500D01*
G01Y16990D01*
G02X129580Y16490I-500J0D01*
G01X126580D01*
G02X126080Y16990I0J500D01*
G01Y17990D01*
G02X126580Y18490I500J0D01*
G01X121480Y18450D02*
X124480D01*
G02X124980Y17950I0J-500D01*
G01Y16950D01*
G02X124480Y16450I-500J0D01*
G01X121480D01*
G02X120980Y16950I0J500D01*
G01Y17950D01*
G02X121480Y18450I500J0D01*
G01X126700Y31570D02*
X123700D01*
G02X123200Y32070I0J500D01*
G01Y33070D01*
G02X123700Y33570I500J0D01*
G01X126700D01*
G02X127200Y33070I0J-500D01*
G01Y32070D01*
G02X126700Y31570I-500J0D01*
G01X116150Y33550D02*
X119150D01*
G02X119650Y33050I0J-500D01*
G01Y32050D01*
G02X119150Y31550I-500J0D01*
G01X116150D01*
G02X115650Y32050I0J500D01*
G01Y33050D01*
G02X116150Y33550I500J0D01*
G01X121770Y25310D02*
X118770D01*
G02X118270Y25810I0J500D01*
G01Y26810D01*
G02X118770Y27310I500J0D01*
G01X121770D01*
G02X122270Y26810I0J-500D01*
G01Y25810D01*
G02X121770Y25310I-500J0D01*
G01X122530Y32540D02*
Y29540D01*
G02X122030Y29040I-500J0D01*
G01X121030D01*
G02X120530Y29540I0J500D01*
G01Y32540D01*
G02X121030Y33040I500J0D01*
G01X122030D01*
G02X122530Y32540I0J-500D01*
G01X116080Y43480D02*
X119080D01*
G02X119580Y42980I0J-500D01*
G01Y41980D01*
G02X119080Y41480I-500J0D01*
G01X116080D01*
G02X115580Y41980I0J500D01*
G01Y42980D01*
G02X116080Y43480I500J0D01*
G01X121330Y43450D02*
X124330D01*
G02X124830Y42950I0J-500D01*
G01Y41950D01*
G02X124330Y41450I-500J0D01*
G01X121330D01*
G02X120830Y41950I0J500D01*
G01Y42950D01*
G02X121330Y43450I500J0D01*
G01X126380Y58160D02*
X129380D01*
G02X129880Y57660I0J-500D01*
G01Y56660D01*
G02X129380Y56160I-500J0D01*
G01X126380D01*
G02X125880Y56660I0J500D01*
G01Y57660D01*
G02X126380Y58160I500J0D01*
G01X116383Y58203D02*
X119383D01*
G02X119883Y57703I0J-500D01*
G01Y56703D01*
G02X119383Y56203I-500J0D01*
G01X116383D01*
G02X115883Y56703I0J500D01*
G01Y57703D01*
G02X116383Y58203I500J0D01*
G01X124377Y49860D02*
X122255Y47738D01*
G02X121548I-353J354D01*
G01X120841Y48445D01*
G02Y49152I354J354D01*
G01X122963Y51274D01*
G02X123670I353J-354D01*
G01X124377Y50567D01*
G02Y49860I-354J-354D01*
G01X119990Y55220D02*
Y52220D01*
G02X119490Y51720I-500J0D01*
G01X118490D01*
G02X117990Y52220I0J500D01*
G01Y55220D01*
G02X118490Y55720I500J0D01*
G01X119490D01*
G02X119990Y55220I0J-500D01*
G01X121501Y58203D02*
X124501D01*
G02X125001Y57703I0J-500D01*
G01Y56703D01*
G02X124501Y56203I-500J0D01*
G01X121501D01*
G02X121001Y56703I0J500D01*
G01Y57703D01*
G02X121501Y58203I500J0D01*
G01X121850Y92550D02*
Y89550D01*
G02X121350Y89050I-500J0D01*
G01X120350D01*
G02X119850Y89550I0J500D01*
G01Y92550D01*
G02X120350Y93050I500J0D01*
G01X121350D01*
G02X121850Y92550I0J-500D01*
G01X117230Y102140D02*
Y99140D01*
G02X116730Y98640I-500J0D01*
G01X115730D01*
G02X115230Y99140I0J500D01*
G01Y102140D01*
G02X115730Y102640I500J0D01*
G01X116730D01*
G02X117230Y102140I0J-500D01*
G01X119540Y113610D02*
X122540D01*
G02X123040Y113110I0J-500D01*
G01Y112110D01*
G02X122540Y111610I-500J0D01*
G01X119540D01*
G02X119040Y112110I0J500D01*
G01Y113110D01*
G02X119540Y113610I500J0D01*
G01X128580Y118480D02*
X125580D01*
G02X125080Y118980I0J500D01*
G01Y119980D01*
G02X125580Y120480I500J0D01*
G01X128580D01*
G02X129080Y119980I0J-500D01*
G01Y118980D01*
G02X128580Y118480I-500J0D01*
G01X115930Y122633D02*
X118930D01*
G02X119430Y122133I0J-500D01*
G01Y121133D01*
G02X118930Y120633I-500J0D01*
G01X115930D01*
G02X115430Y121133I0J500D01*
G01Y122133D01*
G02X115930Y122633I500J0D01*
G01X126560Y131120D02*
Y128120D01*
G02X126060Y127620I-500J0D01*
G01X125060D01*
G02X124560Y128120I0J500D01*
G01Y131120D01*
G02X125060Y131620I500J0D01*
G01X126060D01*
G02X126560Y131120I0J-500D01*
G01X124620Y132800D02*
Y135800D01*
G02X125120Y136300I500J0D01*
G01X126120D01*
G02X126620Y135800I0J-500D01*
G01Y132800D01*
G02X126120Y132300I-500J0D01*
G01X125120D01*
G02X124620Y132800I0J500D01*
G01X117840Y147240D02*
X120840D01*
G02X121340Y146740I0J-500D01*
G01Y145740D01*
G02X120840Y145240I-500J0D01*
G01X117840D01*
G02X117340Y145740I0J500D01*
G01Y146740D01*
G02X117840Y147240I500J0D01*
G01X123900Y151480D02*
X120900D01*
G02X120400Y151980I0J500D01*
G01Y152980D01*
G02X120900Y153480I500J0D01*
G01X123900D01*
G02X124400Y152980I0J-500D01*
G01Y151980D01*
G02X123900Y151480I-500J0D01*
G01X127047Y157600D02*
X136273D01*
G03X137060Y158387I0J787D01*
G01Y161813D01*
G03X136273Y162600I-787J0D01*
G01X127047D01*
G03X126260Y161813I0J-787D01*
G01Y158387D01*
G03X127047Y157600I787J0D01*
G01X139660Y16780D02*
X136660D01*
G02X136160Y17280I0J500D01*
G01Y18280D01*
G02X136660Y18780I500J0D01*
G01X139660D01*
G02X140160Y18280I0J-500D01*
G01Y17280D01*
G02X139660Y16780I-500J0D01*
G01X136140Y22970D02*
Y25970D01*
G02X136640Y26470I500J0D01*
G01X137640D01*
G02X138140Y25970I0J-500D01*
G01Y22970D01*
G02X137640Y22470I-500J0D01*
G01X136640D01*
G02X136140Y22970I0J500D01*
G01X137870Y31920D02*
Y28920D01*
G02X137370Y28420I-500J0D01*
G01X136370D01*
G02X135870Y28920I0J500D01*
G01Y31920D01*
G02X136370Y32420I500J0D01*
G01X137370D01*
G02X137870Y31920I0J-500D01*
G01X128370Y23450D02*
Y26450D01*
G02X128870Y26950I500J0D01*
G01X129870D01*
G02X130370Y26450I0J-500D01*
G01Y23450D01*
G02X129870Y22950I-500J0D01*
G01X128870D01*
G02X128370Y23450I0J500D01*
G01X139290Y36130D02*
X142290D01*
G02X142790Y35630I0J-500D01*
G01Y34630D01*
G02X142290Y34130I-500J0D01*
G01X139290D01*
G02X138790Y34630I0J500D01*
G01Y35630D01*
G02X139290Y36130I500J0D01*
G01X142120Y49880D02*
X139120D01*
G02X138620Y50380I0J500D01*
G01Y51380D01*
G02X139120Y51880I500J0D01*
G01X142120D01*
G02X142620Y51380I0J-500D01*
G01Y50380D01*
G02X142120Y49880I-500J0D01*
G01X138420Y54210D02*
Y57210D01*
G02X138920Y57710I500J0D01*
G01X139920D01*
G02X140420Y57210I0J-500D01*
G01Y54210D01*
G02X139920Y53710I-500J0D01*
G01X138920D01*
G02X138420Y54210I0J500D01*
G01X132390Y54020D02*
Y51020D01*
G02X131890Y50520I-500J0D01*
G01X130890D01*
G02X130390Y51020I0J500D01*
G01Y54020D01*
G02X130890Y54520I500J0D01*
G01X131890D01*
G02X132390Y54020I0J-500D01*
G01X136630Y96870D02*
X139630D01*
G02X140130Y96370I0J-500D01*
G01Y95370D01*
G02X139630Y94870I-500J0D01*
G01X136630D01*
G02X136130Y95370I0J500D01*
G01Y96370D01*
G02X136630Y96870I500J0D01*
G01X132620Y117320D02*
X135620D01*
G02X136120Y116820I0J-500D01*
G01Y115820D01*
G02X135620Y115320I-500J0D01*
G01X132620D01*
G02X132120Y115820I0J500D01*
G01Y116820D01*
G02X132620Y117320I500J0D01*
G01X128770Y114150D02*
X131770D01*
G02X132270Y113650I0J-500D01*
G01Y112650D01*
G02X131770Y112150I-500J0D01*
G01X128770D01*
G02X128270Y112650I0J500D01*
G01Y113650D01*
G02X128770Y114150I500J0D01*
G01X131020Y115360D02*
X128020D01*
G02X127520Y115860I0J500D01*
G01Y116860D01*
G02X128020Y117360I500J0D01*
G01X131020D01*
G02X131520Y116860I0J-500D01*
G01Y115860D01*
G02X131020Y115360I-500J0D01*
G01X137220Y116610D02*
Y119610D01*
G02X137720Y120110I500J0D01*
G01X138720D01*
G02X139220Y119610I0J-500D01*
G01Y116610D01*
G02X138720Y116110I-500J0D01*
G01X137720D01*
G02X137220Y116610I0J500D01*
G01X136000Y128800D02*
Y125800D01*
G02X135500Y125300I-500J0D01*
G01X134500D01*
G02X134000Y125800I0J500D01*
G01Y128800D01*
G02X134500Y129300I500J0D01*
G01X135500D01*
G02X136000Y128800I0J-500D01*
G01X131480Y123910D02*
X128480D01*
G02X127980Y124410I0J500D01*
G01Y125410D01*
G02X128480Y125910I500J0D01*
G01X131480D01*
G02X131980Y125410I0J-500D01*
G01Y124410D01*
G02X131480Y123910I-500J0D01*
G01X134920Y118590D02*
X131920D01*
G02X131420Y119090I0J500D01*
G01Y120090D01*
G02X131920Y120590I500J0D01*
G01X134920D01*
G02X135420Y120090I0J-500D01*
G01Y119090D01*
G02X134920Y118590I-500J0D01*
G01X139050Y143143D02*
X131950D01*
Y139643D01*
X139050D01*
Y143093D01*
G01X135565Y138950D02*
Y131850D01*
X139065D01*
Y138950D01*
X135615D01*
G01X131840Y131050D02*
X128840D01*
G02X128340Y131550I0J500D01*
G01Y132550D01*
G02X128840Y133050I500J0D01*
G01X131840D01*
G02X132340Y132550I0J-500D01*
G01Y131550D01*
G02X131840Y131050I-500J0D01*
G01X139050Y147251D02*
X131950D01*
Y143751D01*
X139050D01*
Y147201D01*
G01X137873Y158350D02*
X144973D01*
Y161850D01*
X137873D01*
Y158400D01*
G01X133260Y154700D02*
X130260D01*
G02X129760Y155200I0J500D01*
G01Y156200D01*
G02X130260Y156700I500J0D01*
G01X133260D01*
G02X133760Y156200I0J-500D01*
G01Y155200D01*
G02X133260Y154700I-500J0D01*
G01X144870Y16750D02*
X141870D01*
G02X141370Y17250I0J500D01*
G01Y18250D01*
G02X141870Y18750I500J0D01*
G01X144870D01*
G02X145370Y18250I0J-500D01*
G01Y17250D01*
G02X144870Y16750I-500J0D01*
G01X149990Y16790D02*
X146990D01*
G02X146490Y17290I0J500D01*
G01Y18290D01*
G02X146990Y18790I500J0D01*
G01X149990D01*
G02X150490Y18290I0J-500D01*
G01Y17290D01*
G02X149990Y16790I-500J0D01*
G01X145550Y35050D02*
Y32050D01*
G02X145050Y31550I-500J0D01*
G01X144050D01*
G02X143550Y32050I0J500D01*
G01Y35050D01*
G02X144050Y35550I500J0D01*
G01X145050D01*
G02X145550Y35050I0J-500D01*
G01X144380Y27580D02*
X147380D01*
G02X147880Y27080I0J-500D01*
G01Y26080D01*
G02X147380Y25580I-500J0D01*
G01X144380D01*
G02X143880Y26080I0J500D01*
G01Y27080D01*
G02X144380Y27580I500J0D01*
G01X152570Y38970D02*
X149570D01*
G02X149070Y39470I0J500D01*
G01Y40470D01*
G02X149570Y40970I500J0D01*
G01X152570D01*
G02X153070Y40470I0J-500D01*
G01Y39470D01*
G02X152570Y38970I-500J0D01*
G01X149960Y34150D02*
X146960D01*
G02X146460Y34650I0J500D01*
G01Y35650D01*
G02X146960Y36150I500J0D01*
G01X149960D01*
G02X150460Y35650I0J-500D01*
G01Y34650D01*
G02X149960Y34150I-500J0D01*
G01X147328Y38818D02*
X144328D01*
G02X143828Y39318I0J500D01*
G01Y40318D01*
G02X144328Y40818I500J0D01*
G01X147328D01*
G02X147828Y40318I0J-500D01*
G01Y39318D01*
G02X147328Y38818I-500J0D01*
G01X147270Y56240D02*
X144270D01*
G02X143770Y56740I0J500D01*
G01Y57740D01*
G02X144270Y58240I500J0D01*
G01X147270D01*
G02X147770Y57740I0J-500D01*
G01Y56740D01*
G02X147270Y56240I-500J0D01*
G01X153710Y46820D02*
X150710D01*
G02X150210Y47320I0J500D01*
G01Y48320D01*
G02X150710Y48820I500J0D01*
G01X153710D01*
G02X154210Y48320I0J-500D01*
G01Y47320D01*
G02X153710Y46820I-500J0D01*
G01X152310Y56260D02*
X149310D01*
G02X148810Y56760I0J500D01*
G01Y57760D01*
G02X149310Y58260I500J0D01*
G01X152310D01*
G02X152810Y57760I0J-500D01*
G01Y56760D01*
G02X152310Y56260I-500J0D01*
G01X147080Y46730D02*
X144080D01*
G02X143580Y47230I0J500D01*
G01Y48230D01*
G02X144080Y48730I500J0D01*
G01X147080D01*
G02X147580Y48230I0J-500D01*
G01Y47230D01*
G02X147080Y46730I-500J0D01*
G01X148630Y90920D02*
Y87920D01*
G02X148130Y87420I-500J0D01*
G01X147130D01*
G02X146630Y87920I0J500D01*
G01Y90920D01*
G02X147130Y91420I500J0D01*
G01X148130D01*
G02X148630Y90920I0J-500D01*
G01X145510Y113110D02*
Y110110D01*
G02X145010Y109610I-500J0D01*
G01X144010D01*
G02X143510Y110110I0J500D01*
G01Y113110D01*
G02X144010Y113610I500J0D01*
G01X145010D01*
G02X145510Y113110I0J-500D01*
G01X142300Y115470D02*
Y112470D01*
G02X141800Y111970I-500J0D01*
G01X140800D01*
G02X140300Y112470I0J500D01*
G01Y115470D01*
G02X140800Y115970I500J0D01*
G01X141800D01*
G02X142300Y115470I0J-500D01*
G01X145450Y119520D02*
Y116520D01*
G02X144950Y116020I-500J0D01*
G01X143950D01*
G02X143450Y116520I0J500D01*
G01Y119520D01*
G02X143950Y120020I500J0D01*
G01X144950D01*
G02X145450Y119520I0J-500D01*
G01X146653Y116696D02*
Y119696D01*
G02X147153Y120196I500J0D01*
G01X148153D01*
G02X148653Y119696I0J-500D01*
G01Y116696D01*
G02X148153Y116196I-500J0D01*
G01X147153D01*
G02X146653Y116696I0J500D01*
G01X140340Y117190D02*
Y120190D01*
G02X140840Y120690I500J0D01*
G01X141840D01*
G02X142340Y120190I0J-500D01*
G01Y117190D01*
G02X141840Y116690I-500J0D01*
G01X140840D01*
G02X140340Y117190I0J500D01*
G01X151750Y119520D02*
Y116520D01*
G02X151250Y116020I-500J0D01*
G01X150250D01*
G02X149750Y116520I0J500D01*
G01Y119520D01*
G02X150250Y120020I500J0D01*
G01X151250D01*
G02X151750Y119520I0J-500D01*
G01X153140Y124800D02*
X150140D01*
G02X149640Y125300I0J500D01*
G01Y126300D01*
G02X150140Y126800I500J0D01*
G01X153140D01*
G02X153640Y126300I0J-500D01*
G01Y125300D01*
G02X153140Y124800I-500J0D01*
G01X146610Y125860D02*
Y128860D01*
G02X147110Y129360I500J0D01*
G01X148110D01*
G02X148610Y128860I0J-500D01*
G01Y125860D01*
G02X148110Y125360I-500J0D01*
G01X147110D01*
G02X146610Y125860I0J500D01*
G01X145410Y128810D02*
Y125810D01*
G02X144910Y125310I-500J0D01*
G01X143910D01*
G02X143410Y125810I0J500D01*
G01Y128810D01*
G02X143910Y129310I500J0D01*
G01X144910D01*
G02X145410Y128810I0J-500D01*
G01X140330Y125880D02*
Y128880D01*
G02X140830Y129380I500J0D01*
G01X141830D01*
G02X142330Y128880I0J-500D01*
G01Y125880D01*
G02X141830Y125380I-500J0D01*
G01X140830D01*
G02X140330Y125880I0J500D01*
G01X150750Y129890D02*
X153750D01*
G02X154250Y129390I0J-500D01*
G01Y128390D01*
G02X153750Y127890I-500J0D01*
G01X150750D01*
G02X150250Y128390I0J500D01*
G01Y129390D01*
G02X150750Y129890I500J0D01*
G01X153920Y131000D02*
X150920D01*
G02X150420Y131500I0J500D01*
G01Y132500D01*
G02X150920Y133000I500J0D01*
G01X153920D01*
G02X154420Y132500I0J-500D01*
G01Y131500D01*
G02X153920Y131000I-500J0D01*
G01X141230Y133060D02*
X144230D01*
G02X144730Y132560I0J-500D01*
G01Y131560D01*
G02X144230Y131060I-500J0D01*
G01X141230D01*
G02X140730Y131560I0J500D01*
G01Y132560D01*
G02X141230Y133060I500J0D01*
G01X146650Y132180D02*
Y135180D01*
G02X147150Y135680I500J0D01*
G01X148150D01*
G02X148650Y135180I0J-500D01*
G01Y132180D01*
G02X148150Y131680I-500J0D01*
G01X147150D01*
G02X146650Y132180I0J500D01*
G01X147040Y155570D02*
Y152570D01*
G02X146540Y152070I-500J0D01*
G01X145540D01*
G02X145040Y152570I0J500D01*
G01Y155570D01*
G02X145540Y156070I500J0D01*
G01X146540D01*
G02X147040Y155570I0J-500D01*
G01X155100Y16780D02*
X152100D01*
G02X151600Y17280I0J500D01*
G01Y18280D01*
G02X152100Y18780I500J0D01*
G01X155100D01*
G02X155600Y18280I0J-500D01*
G01Y17280D01*
G02X155100Y16780I-500J0D01*
G01X165090Y31000D02*
X162090D01*
G02X161590Y31500I0J500D01*
G01Y32500D01*
G02X162090Y33000I500J0D01*
G01X165090D01*
G02X165590Y32500I0J-500D01*
G01Y31500D01*
G02X165090Y31000I-500J0D01*
G01X158940Y26140D02*
Y29140D01*
G02X159440Y29640I500J0D01*
G01X160440D01*
G02X160940Y29140I0J-500D01*
G01Y26140D01*
G02X160440Y25640I-500J0D01*
G01X159440D01*
G02X158940Y26140I0J500D01*
G01X163710Y47420D02*
Y44420D01*
G02X163210Y43920I-500J0D01*
G01X162210D01*
G02X161710Y44420I0J500D01*
G01Y47420D01*
G02X162210Y47920I500J0D01*
G01X163210D01*
G02X163710Y47420I0J-500D01*
G01X162880Y38950D02*
X159880D01*
G02X159380Y39450I0J500D01*
G01Y40450D01*
G02X159880Y40950I500J0D01*
G01X162880D01*
G02X163380Y40450I0J-500D01*
G01Y39450D01*
G02X162880Y38950I-500J0D01*
G01X162730Y34120D02*
X159730D01*
G02X159230Y34620I0J500D01*
G01Y35620D01*
G02X159730Y36120I500J0D01*
G01X162730D01*
G02X163230Y35620I0J-500D01*
G01Y34620D01*
G02X162730Y34120I-500J0D01*
G01X154810Y34130D02*
X151810D01*
G02X151310Y34630I0J500D01*
G01Y35630D01*
G02X151810Y36130I500J0D01*
G01X154810D01*
G02X155310Y35630I0J-500D01*
G01Y34630D01*
G02X154810Y34130I-500J0D01*
G01X157710Y38950D02*
X154710D01*
G02X154210Y39450I0J500D01*
G01Y40450D01*
G02X154710Y40950I500J0D01*
G01X157710D01*
G02X158210Y40450I0J-500D01*
G01Y39450D01*
G02X157710Y38950I-500J0D01*
G01X158920Y48230D02*
Y51230D01*
G02X159420Y51730I500J0D01*
G01X160420D01*
G02X160920Y51230I0J-500D01*
G01Y48230D01*
G02X160420Y47730I-500J0D01*
G01X159420D01*
G02X158920Y48230I0J500D01*
G01X157570Y56220D02*
X154570D01*
G02X154070Y56720I0J500D01*
G01Y57720D01*
G02X154570Y58220I500J0D01*
G01X157570D01*
G02X158070Y57720I0J-500D01*
G01Y56720D01*
G02X157570Y56220I-500J0D01*
G01X158770Y93700D02*
X161770D01*
G02X162270Y93200I0J-500D01*
G01Y92200D01*
G02X161770Y91700I-500J0D01*
G01X158770D01*
G02X158270Y92200I0J500D01*
G01Y93200D01*
G02X158770Y93700I500J0D01*
G01X164830Y97950D02*
X161830D01*
G02X161330Y98450I0J500D01*
G01Y99450D01*
G02X161830Y99950I500J0D01*
G01X164830D01*
G02X165330Y99450I0J-500D01*
G01Y98450D01*
G02X164830Y97950I-500J0D01*
G01X161120Y116190D02*
Y113190D01*
G02X160620Y112690I-500J0D01*
G01X159620D01*
G02X159120Y113190I0J500D01*
G01Y116190D01*
G02X159620Y116690I500J0D01*
G01X160620D01*
G02X161120Y116190I0J-500D01*
G01X160070Y109020D02*
X157070D01*
G02X156570Y109520I0J500D01*
G01Y110520D01*
G02X157070Y111020I500J0D01*
G01X160070D01*
G02X160570Y110520I0J-500D01*
G01Y109520D01*
G02X160070Y109020I-500J0D01*
G01X158026Y119590D02*
Y116590D01*
G02X157526Y116090I-500J0D01*
G01X156526D01*
G02X156026Y116590I0J500D01*
G01Y119590D01*
G02X156526Y120090I500J0D01*
G01X157526D01*
G02X158026Y119590I0J-500D01*
G01X152970Y116618D02*
Y119618D01*
G02X153470Y120118I500J0D01*
G01X154470D01*
G02X154970Y119618I0J-500D01*
G01Y116618D01*
G02X154470Y116118I-500J0D01*
G01X153470D01*
G02X152970Y116618I0J500D01*
G01X159180Y126000D02*
Y129000D01*
G02X159680Y129500I500J0D01*
G01X160680D01*
G02X161180Y129000I0J-500D01*
G01Y126000D01*
G02X160680Y125500I-500J0D01*
G01X159680D01*
G02X159180Y126000I0J500D01*
G01X163320Y118470D02*
X160320D01*
G02X159820Y118970I0J500D01*
G01Y119970D01*
G02X160320Y120470I500J0D01*
G01X163320D01*
G02X163820Y119970I0J-500D01*
G01Y118970D01*
G02X163320Y118470I-500J0D01*
G01X154770Y126760D02*
X157770D01*
G02X158270Y126260I0J-500D01*
G01Y125260D01*
G02X157770Y124760I-500J0D01*
G01X154770D01*
G02X154270Y125260I0J500D01*
G01Y126260D01*
G02X154770Y126760I500J0D01*
G01X156020Y128410D02*
Y131410D01*
G02X156520Y131910I500J0D01*
G01X157520D01*
G02X158020Y131410I0J-500D01*
G01Y128410D01*
G02X157520Y127910I-500J0D01*
G01X156520D01*
G02X156020Y128410I0J500D01*
G01X161200Y138290D02*
Y135290D01*
G02X160700Y134790I-500J0D01*
G01X159700D01*
G02X159200Y135290I0J500D01*
G01Y138290D01*
G02X159700Y138790I500J0D01*
G01X160700D01*
G02X161200Y138290I0J-500D01*
G01X162929Y133221D02*
X160807Y131099D01*
G02X160100I-353J354D01*
G01X159393Y131806D01*
G02Y132513I354J354D01*
G01X161515Y134635D01*
G02X162222I353J-354D01*
G01X162929Y133928D01*
G02Y133221I-354J-354D01*
G01X154730Y138410D02*
Y135410D01*
G02X154230Y134910I-500J0D01*
G01X153230D01*
G02X152730Y135410I0J500D01*
G01Y138410D01*
G02X153230Y138910I500J0D01*
G01X154230D01*
G02X154730Y138410I0J-500D01*
G01X164113Y156550D02*
X154887D01*
G03X154100Y155763I0J-787D01*
G01Y152337D01*
G03X154887Y151550I787J0D01*
G01X164113D01*
G03X164900Y152337I0J787D01*
G01Y155763D01*
G03X164113Y156550I-787J0D01*
G01X151340Y149400D02*
Y152400D01*
G02X151840Y152900I500J0D01*
G01X152840D01*
G02X153340Y152400I0J-500D01*
G01Y149400D01*
G02X152840Y148900I-500J0D01*
G01X151840D01*
G02X151340Y149400I0J500D01*
G01X170400Y22920D02*
Y20920D01*
X174400D01*
Y22920D01*
X170400D01*
G01Y20120D02*
Y18120D01*
X174400D01*
Y20120D01*
X170400D01*
G01Y31320D02*
Y29320D01*
X174400D01*
Y31320D01*
X170400D01*
G01Y28520D02*
Y26520D01*
X174400D01*
Y28520D01*
X170400D01*
G01Y25720D02*
Y23720D01*
X174400D01*
Y25720D01*
X170400D01*
G01X174570Y42970D02*
Y35870D01*
X178070D01*
Y42970D01*
X174620D01*
G01X174375Y64450D02*
Y57350D01*
X177875D01*
Y64450D01*
X174425D01*
G01X177950Y65250D02*
Y72350D01*
X174450D01*
Y65250D01*
X177900D01*
G01X169800Y97913D02*
Y88687D01*
G03X170587Y87900I787J0D01*
G01X174013D01*
G03X174800Y88687I0J787D01*
G01Y97913D01*
G03X174013Y98700I-787J0D01*
G01X170587D01*
G03X169800Y97913I0J-787D01*
G01X181510Y111332D02*
Y123339D01*
X174030D01*
Y110741D01*
X181510D01*
Y111332D01*
G01X172650Y115320D02*
X169650D01*
G02X169150Y115820I0J500D01*
G01Y116820D01*
G02X169650Y117320I500J0D01*
G01X172650D01*
G02X173150Y116820I0J-500D01*
G01Y115820D01*
G02X172650Y115320I-500J0D01*
G01X172700Y109040D02*
X169700D01*
G02X169200Y109540I0J500D01*
G01Y110540D01*
G02X169700Y111040I500J0D01*
G01X172700D01*
G02X173200Y110540I0J-500D01*
G01Y109540D01*
G02X172700Y109040I-500J0D01*
G01X166470Y127930D02*
X163470D01*
G02X162970Y128430I0J500D01*
G01Y129430D01*
G02X163470Y129930I500J0D01*
G01X166470D01*
G02X166970Y129430I0J-500D01*
G01Y128430D01*
G02X166470Y127930I-500J0D01*
G01X172740Y124780D02*
X169740D01*
G02X169240Y125280I0J500D01*
G01Y126280D01*
G02X169740Y126780I500J0D01*
G01X172740D01*
G02X173240Y126280I0J-500D01*
G01Y125280D01*
G02X172740Y124780I-500J0D01*
G01X181610Y133863D02*
Y145871D01*
X174130D01*
Y133273D01*
X181610D01*
Y133863D01*
G01X166610Y134290D02*
X163610D01*
G02X163110Y134790I0J500D01*
G01Y135790D01*
G02X163610Y136290I500J0D01*
G01X166610D01*
G02X167110Y135790I0J-500D01*
G01Y134790D01*
G02X166610Y134290I-500J0D01*
G01X172720Y131110D02*
X169720D01*
G02X169220Y131610I0J500D01*
G01Y132610D01*
G02X169720Y133110I500J0D01*
G01X172720D01*
G02X173220Y132610I0J-500D01*
G01Y131610D01*
G02X172720Y131110I-500J0D01*
G01X172680Y137360D02*
X169680D01*
G02X169180Y137860I0J500D01*
G01Y138860D01*
G02X169680Y139360I500J0D01*
G01X172680D01*
G02X173180Y138860I0J-500D01*
G01Y137860D01*
G02X172680Y137360I-500J0D01*
G01X166291Y146590D02*
X178299D01*
Y154071D01*
X165701D01*
Y146590D01*
X166291D01*
G01Y154720D02*
X178299D01*
Y162201D01*
X165701D01*
Y154720D01*
X166291D01*
G01X177694Y21094D02*
X178778D01*
G01X177694D02*
Y22260D01*
G01X177520Y18450D02*
Y16450D01*
X181520D01*
Y18450D01*
X177520D01*
G01X186160Y16450D02*
Y18450D01*
X182160D01*
Y16450D01*
X186160D01*
G01X177694Y32906D02*
X178859D01*
G01X177694D02*
Y31679D01*
G01X178640Y42970D02*
Y35870D01*
X182140D01*
Y42970D01*
X178690D01*
G01X182710D02*
Y35870D01*
X186210D01*
Y42970D01*
X182760D01*
G01X178400Y64450D02*
Y57350D01*
X181900D01*
Y64450D01*
X178450D01*
G01X182425D02*
Y57350D01*
X185925D01*
Y64450D01*
X182475D01*
G01X186450D02*
Y57350D01*
X189950D01*
Y64450D01*
X186500D01*
G01X190025Y65250D02*
Y72350D01*
X186525D01*
Y65250D01*
X189975D01*
G01X186000D02*
Y72350D01*
X182500D01*
Y65250D01*
X185950D01*
G01X181975D02*
Y72350D01*
X178475D01*
Y65250D01*
X181925D01*
G01X187100Y111847D02*
Y121073D01*
G03X186313Y121860I-787J0D01*
G01X182887D01*
G03X182100Y121073I0J-787D01*
G01Y111847D01*
G03X182887Y111060I787J0D01*
G01X186313D01*
G03X187100Y111847I0J787D01*
G01X194778Y129380D02*
X185552D01*
G03X184765Y128593I0J-787D01*
G01Y125167D01*
G03X185552Y124380I787J0D01*
G01X194778D01*
G03X195565Y125167I0J787D01*
G01Y128593D01*
G03X194778Y129380I-787J0D01*
G01X195874Y137530D02*
X183866D01*
Y130050D01*
X196464D01*
Y137530D01*
X195874D01*
G01X189450Y149850D02*
X182350D01*
Y146350D01*
X189450D01*
Y149800D01*
G01X187795Y21094D02*
X187931D01*
G01X191172Y24464D02*
Y22305D01*
Y20705D01*
Y18545D01*
G03X191763Y17955I590J0D01*
G01X194082D01*
G03X194672Y18545I0J590D01*
G01Y24464D01*
G03X194082Y25055I-591J0D01*
G01X191763D01*
G03X191172Y24464I0J-591D01*
G01X189506Y22669D02*
X187931Y21094D01*
G01X205393Y21360D02*
X196167D01*
G03X195380Y20573I0J-787D01*
G01Y17147D01*
G03X196167Y16360I787J0D01*
G01X205393D01*
G03X206180Y17147I0J787D01*
G01Y20573D01*
G03X205393Y21360I-787J0D01*
G01X188093Y32906D02*
X189506D01*
G01D02*
Y31471D01*
G01Y22669D02*
Y22894D01*
G01X195872Y26371D02*
Y28530D01*
Y30130D01*
Y32290D01*
G03X195281Y32880I-591J-1D01*
G01X192962D01*
G03X192372Y32290I0J-590D01*
G01Y26371D01*
G03X192962Y25780I591J0D01*
G01X195281D01*
G03X195872Y26371I0J591D01*
G01X199950Y25780D02*
Y32880D01*
X196450D01*
Y25780D01*
X199900D01*
G01X194920Y42970D02*
Y35870D01*
X198420D01*
Y42970D01*
X194970D01*
G01X190850D02*
Y35870D01*
X194350D01*
Y42970D01*
X190900D01*
G01X186780D02*
Y35870D01*
X190280D01*
Y42970D01*
X186830D01*
G01X204126Y64991D02*
Y76999D01*
X196645D01*
Y64401D01*
X204126D01*
Y64991D01*
G01X199144Y91450D02*
X196985D01*
X195385D01*
X193226D01*
G03X192635Y90859I0J-591D01*
G01Y88541D01*
G03X193226Y87950I591J0D01*
G01X199144D01*
G03X199735Y88541I0J591D01*
G01Y90859D01*
G03X199144Y91450I-591J0D01*
G01X199735Y95850D02*
X192635D01*
Y92350D01*
X199735D01*
Y95800D01*
G01X192335Y109699D02*
Y107540D01*
Y105940D01*
Y103781D01*
G03X192925Y103190I590J-1D01*
G01X195244D01*
G03X195835Y103781I0J591D01*
G01Y109699D01*
G03X195244Y110290I-591J0D01*
G01X192925D01*
G03X192335Y109699I0J-590D01*
G01X199735Y100050D02*
X192635D01*
Y96550D01*
X199735D01*
Y100000D01*
G01X195130Y111606D02*
Y123613D01*
X187650D01*
Y111015D01*
X195130D01*
Y111606D01*
G01X200800Y113787D02*
Y123013D01*
G03X200013Y123800I-787J0D01*
G01X196587D01*
G03X195800Y123013I0J-787D01*
G01Y113787D01*
G03X196587Y113000I787J0D01*
G01X200013D01*
G03X200800Y113787I0J787D01*
G01X197040Y124930D02*
X202959D01*
G03X203550Y125520I0J591D01*
G01Y127839D01*
G03X202959Y128430I-591J0D01*
G01X197040D01*
G03X196450Y127839I1J-591D01*
G01Y125520D01*
G03X197040Y124930I591J1D01*
G01X190103Y160850D02*
X197203D01*
Y164350D01*
X190103D01*
Y160900D01*
G01Y164990D02*
X197203D01*
Y168490D01*
X190103D01*
Y165040D01*
G01X212878Y33070D02*
X206878D01*
G01Y21870D02*
X212878D01*
G01X208230Y57311D02*
Y59470D01*
Y61070D01*
Y63229D01*
G03X207639Y63820I-591J0D01*
G01X205321D01*
G03X204730Y63229I0J-591D01*
G01Y57311D01*
G03X205321Y56720I591J0D01*
G01X207639D01*
G03X208230Y57311I0J591D01*
G01X208930Y63229D02*
Y61070D01*
Y59470D01*
Y57311D01*
G03X209521Y56720I591J0D01*
G01X211839D01*
G03X212430Y57311I0J591D01*
G01Y63229D01*
G03X211839Y63820I-591J0D01*
G01X209521D01*
G03X208930Y63229I0J-591D01*
G01X212460Y65321D02*
Y67480D01*
Y69080D01*
Y71239D01*
G03X211869Y71830I-591J0D01*
G01X209551D01*
G03X208960Y71239I0J-591D01*
G01Y65321D01*
G03X209551Y64730I591J0D01*
G01X211869D01*
G03X212460Y65321I0J591D01*
G01X208250D02*
Y67480D01*
Y69080D01*
Y71239D01*
G03X207659Y71830I-591J0D01*
G01X205341D01*
G03X204750Y71239I0J-591D01*
G01Y65321D01*
G03X205341Y64730I591J0D01*
G01X207659D01*
G03X208250Y65321I0J591D01*
G01X219813Y79950D02*
X210587D01*
G03X209800Y79163I0J-787D01*
G01Y75737D01*
G03X210587Y74950I787J0D01*
G01X219813D01*
G03X220600Y75737I0J787D01*
G01Y79163D01*
G03X219813Y79950I-787J0D01*
G01X213811Y87963D02*
X201999D01*
G01X200910Y96550D02*
X203070D01*
X204670D01*
X206829D01*
G03X207420Y97140I0J591D01*
G01Y99459D01*
G03X206829Y100050I-591J0D01*
G01X200910D01*
G03X200320Y99459I1J-591D01*
G01Y97140D01*
G03X200910Y96550I590J0D01*
G01X214514Y100050D02*
X212355D01*
X210755D01*
X208596D01*
G03X208005Y99460I-1J-590D01*
G01Y97141D01*
G03X208596Y96550I591J0D01*
G01X214514D01*
G03X215105Y97141I0J591D01*
G01Y99460D01*
G03X214514Y100050I-590J0D01*
G01X200870Y101140D02*
X206870D01*
G01X213811Y95837D02*
X201999D01*
G01X204850Y113641D02*
Y115800D01*
Y117400D01*
Y119559D01*
G03X204259Y120150I-591J0D01*
G01X201941D01*
G03X201350Y119559I0J-591D01*
G01Y113641D01*
G03X201941Y113050I591J0D01*
G01X204259D01*
G03X204850Y113641I0J591D01*
G01X205506Y116350D02*
X212606D01*
Y119850D01*
X205506D01*
Y116400D01*
G01X212550Y116550D02*
X205450D01*
Y113050D01*
X212550D01*
Y116500D01*
G01X200870Y108240D02*
Y105240D01*
G01X206870Y112340D02*
X200870D01*
G01X204850Y127182D02*
Y125023D01*
Y123423D01*
Y121264D01*
G03X205441Y120673I591J0D01*
G01X207759D01*
G03X208350Y121264I0J591D01*
G01Y127182D01*
G03X207759Y127773I-591J0D01*
G01X205441D01*
G03X204850Y127182I0J-591D01*
G01X212550Y120673D02*
Y127773D01*
X209050D01*
Y120673D01*
X212500D01*
G01X208150Y133350D02*
Y140450D01*
X204650D01*
Y133350D01*
X208100D01*
G01X200450Y140450D02*
Y133350D01*
X203950D01*
Y140450D01*
X200500D01*
G01X212350Y133350D02*
Y140450D01*
X208850D01*
Y133350D01*
X212300D01*
G01X205250Y152650D02*
X212350D01*
Y156150D01*
X205250D01*
Y152700D01*
G01X207225Y149455D02*
Y147849D01*
G01Y145518D02*
X210375D01*
Y147093D01*
G01X207225Y151818D02*
X210375D01*
Y150243D01*
G01X205250Y141250D02*
X212350D01*
Y144750D01*
X205250D01*
Y141300D01*
G01X204363Y145118D02*
Y152218D01*
X200863D01*
Y145118D01*
X204313D01*
G01X205250Y156996D02*
X212350D01*
Y160496D01*
X205250D01*
Y157046D01*
G01X202096Y167188D02*
Y169347D01*
Y170947D01*
Y173106D01*
G03X201505Y173697I-591J0D01*
G01X199187D01*
G03X198596Y173106I0J-591D01*
G01Y167188D01*
G03X199187Y166597I591J0D01*
G01X201505D01*
G03X202096Y167188I0J591D01*
G01X212878Y25970D02*
Y28970D01*
G01X222131Y56380D02*
X224290D01*
X225890D01*
X228049D01*
G03X228640Y56971I0J591D01*
G01Y59289D01*
G03X228049Y59880I-591J0D01*
G01X222131D01*
G03X221540Y59289I0J-591D01*
G01Y56971D01*
G03X222131Y56380I591J0D01*
G01X220900Y56610D02*
Y63710D01*
X217400D01*
Y56610D01*
X220850D01*
G01X216720Y56590D02*
Y63690D01*
X213220D01*
Y56590D01*
X216670D01*
G01X222141Y60420D02*
X224300D01*
X225900D01*
X228059D01*
G03X228650Y61011I0J591D01*
G01Y63329D01*
G03X228059Y63920I-591J0D01*
G01X222141D01*
G03X221550Y63329I0J-591D01*
G01Y61011D01*
G03X222141Y60420I591J0D01*
G01X224600Y65171D02*
Y67330D01*
Y68930D01*
Y71089D01*
G03X224009Y71680I-591J0D01*
G01X221691D01*
G03X221100Y71089I0J-591D01*
G01Y65171D01*
G03X221691Y64580I591J0D01*
G01X224009D01*
G03X224600Y65171I0J591D01*
G01X216600Y64700D02*
Y71800D01*
X213100D01*
Y64700D01*
X216550D01*
G01X222011Y72440D02*
X224170D01*
X225770D01*
X227929D01*
G03X228520Y73031I0J591D01*
G01Y75349D01*
G03X227929Y75940I-591J0D01*
G01X222011D01*
G03X221420Y75349I0J-591D01*
G01Y73031D01*
G03X222011Y72440I591J0D01*
G01X222021Y76520D02*
X224180D01*
X225780D01*
X227939D01*
G03X228530Y77111I0J591D01*
G01Y79429D01*
G03X227939Y80020I-591J0D01*
G01X222021D01*
G03X221430Y79429I0J-591D01*
G01Y77111D01*
G03X222021Y76520I591J0D01*
G01X211750Y109699D02*
Y107540D01*
Y105940D01*
Y103781D01*
G03X212340Y103190I590J-1D01*
G01X214659D01*
G03X215250Y103781I0J591D01*
G01Y109699D01*
G03X214659Y110290I-591J0D01*
G01X212340D01*
G03X211750Y109699I0J-590D01*
G01X219850Y101943D02*
X226950D01*
Y105443D01*
X219850D01*
Y101993D01*
G01X216200Y156800D02*
Y150300D01*
G01D02*
X219700D01*
G01D02*
Y149607D01*
G01Y157587D02*
Y156800D01*
G01D02*
X216200D01*
G01X217203Y167088D02*
Y169247D01*
Y170847D01*
Y173006D01*
G03X216612Y173597I-591J0D01*
G01X214294D01*
G03X213703Y173006I0J-591D01*
G01Y167088D01*
G03X214294Y166497I591J0D01*
G01X216612D01*
G03X217203Y167088I0J591D01*
G01X221410Y166497D02*
Y173597D01*
X217910D01*
Y166497D01*
X221360D01*
G01X222050Y173597D02*
Y166497D01*
X225550D01*
Y173597D01*
X222100D01*
G01X234530Y57167D02*
Y66393D01*
G03X233743Y67180I-787J0D01*
G01X230317D01*
G03X229530Y66393I0J-787D01*
G01Y57167D01*
G03X230317Y56380I787J0D01*
G01X233743D01*
G03X234530Y57167I0J787D01*
G01X228890Y65211D02*
Y67370D01*
Y68970D01*
Y71129D01*
G03X228299Y71720I-591J0D01*
G01X225981D01*
G03X225390Y71129I0J-591D01*
G01Y65211D01*
G03X225981Y64620I591J0D01*
G01X228299D01*
G03X228890Y65211I0J591D01*
G01X231310Y98220D02*
Y105320D01*
X227810D01*
Y98220D01*
X231260D01*
G01X235473D02*
Y105320D01*
X231973D01*
Y98220D01*
X235423D01*
G01X228066Y108272D02*
X250676D01*
G01X272535Y164572D02*
X222767D01*
G01X249700Y-7500D02*
Y-2500D01*
X252167Y-6083D01*
X248833D01*
G01X246967Y-6750D02*
X246567Y-7167D01*
X246100Y-7417D01*
X245500Y-7500D01*
X244900Y-7333D01*
X244433Y-7000D01*
X244100Y-6417D01*
X244033Y-5750D01*
X244167Y-5083D01*
X244500Y-4667D01*
X244967Y-4333D01*
X245433Y-4250D01*
X245900Y-4333D01*
X246500Y-4667D01*
X246300Y-2500D01*
X244500D01*
G01X249700Y2500D02*
Y7500D01*
X252167Y3917D01*
X248833D01*
G01X246767Y4583D02*
X246300Y5167D01*
X245900Y5500D01*
X245367Y5667D01*
X244900Y5500D01*
X244567Y5167D01*
X244300Y4667D01*
X244233Y4083D01*
X244300Y3583D01*
X244567Y3083D01*
X244967Y2667D01*
X245433Y2500D01*
X245967Y2667D01*
X246433Y3167D01*
X246700Y3917D01*
X246767Y4750D01*
X246633Y5833D01*
X246433Y6417D01*
X246100Y7000D01*
X245633Y7417D01*
X245167Y7500D01*
X244700Y7333D01*
X244367Y6917D01*
G01X247050Y92481D02*
X239950D01*
Y88981D01*
X247050D01*
Y92431D01*
G01X239670Y98220D02*
Y105320D01*
X236170D01*
Y98220D01*
X239620D01*
G01X249700Y183000D02*
Y188000D01*
X252167Y184417D01*
X248833D01*
G01X246967Y183750D02*
X246567Y183333D01*
X246100Y183083D01*
X245500Y183000D01*
X244900Y183167D01*
X244433Y183500D01*
X244100Y184083D01*
X244033Y184750D01*
X244167Y185417D01*
X244500Y185833D01*
X244967Y186167D01*
X245433Y186250D01*
X245900Y186167D01*
X246500Y185833D01*
X246300Y188000D01*
X244500D01*
G01X249700Y192500D02*
Y197500D01*
X252167Y193917D01*
X248833D01*
G01X246767Y194583D02*
X246300Y195167D01*
X245900Y195500D01*
X245367Y195667D01*
X244900Y195500D01*
X244567Y195167D01*
X244300Y194667D01*
X244233Y194083D01*
X244300Y193583D01*
X244567Y193083D01*
X244967Y192667D01*
X245433Y192500D01*
X245967Y192667D01*
X246433Y193167D01*
X246700Y193917D01*
X246767Y194750D01*
X246633Y195833D01*
X246433Y196417D01*
X246100Y197000D01*
X245633Y197417D01*
X245167Y197500D01*
X244700Y197333D01*
X244367Y196917D01*
G01X257432Y108272D02*
X272991D01*
G01X278100Y18200D02*
X277825Y17800D01*
X277495Y17533D01*
X277110Y17400D01*
X276670Y17533D01*
X276340Y17800D01*
X276010Y18200D01*
X275900Y18733D01*
Y21400D01*
G01X273000Y17400D02*
Y21400D01*
X273660Y20600D01*
G01Y17400D02*
X272340D01*
G01X269935Y17867D02*
X269550Y17533D01*
X269110Y17400D01*
X268670Y17533D01*
X268285Y17933D01*
X268010Y18533D01*
X267900Y19133D01*
Y19867D01*
X268010Y20467D01*
X268285Y21000D01*
X268615Y21267D01*
X269000Y21400D01*
X269440Y21267D01*
X269770Y21000D01*
X269990Y20600D01*
X270100Y20067D01*
X269990Y19600D01*
X269715Y19133D01*
X269385Y18867D01*
X269000Y18800D01*
X268560Y18933D01*
X268230Y19267D01*
X267900Y19867D01*
G01X280708Y113552D02*
Y159458D01*
G01X280661Y113595D02*
G02X272672Y135237I22548J20619D01*
G01X280668Y156800D02*
G03X272668Y135300I23158J-20855D01*
G01X-32500Y-12500D02*
X232500D01*
G03X282500Y37500I0J50000D01*
G01Y152500D01*
G03X232500Y202500I-50000J0D01*
G01X-32500D01*
G03X-57500Y177500I0J-25000D01*
G01Y12500D01*
G03X-32500Y-12500I25000J0D01*
G54D13*
G01X198388Y28794D02*
G03X197539I-425J424D01*
G01X198988D02*
G03X198139I-425J424D01*
G01X209536Y114988D02*
G03Y114139I-424J-425D01*
G01Y115588D02*
G03Y114739I-424J-425D01*
G54D14*
G01X200720Y37936D02*
Y33999D01*
X218436D01*
Y37936D01*
G01Y50929D02*
X200720D01*
G01D02*
Y46992D01*
G01X218436D02*
Y50929D01*
G01X249549Y35613D02*
Y22247D01*
G01X278053D02*
X255927D01*
G01X249549Y106106D02*
Y94669D01*
G01X255927Y106106D02*
X278053D01*
G01Y33645D02*
Y22247D01*
G01Y106106D02*
Y94669D01*
G54D15*
G01X282592Y92700D02*
G03I-492J0D01*
M02*
